<svg version="1.2" baseProfile="tiny-ps" xmlns="http://www.w3.org/2000/svg" viewBox="0 0 350 70" width="350" height="70">
	<title>2bgtxt.svg</title>
<defs>
   <radialGradient id="rgrad" cx="50%" cy="10%" r="80%" >
    
            <stop offset="6%" style="stop-color:rgb(255,0,97);stop-opacity:1.00" />
            <stop offset="58%" style="stop-color:rgb(168,3,66);stop-opacity:1.00" />
            <stop offset="96%" style="stop-color:rgb(91,0,35);stop-opacity:1.00" />

    </radialGradient>
  </defs>
	<style>
		tspan { white-space:pre }
		.s0 { fill: #164987 } 
		.s1 { opacity: 0;fill: #ffffff }
#main{fill: url(#rgrad);} 
	</style>
	<path id="main" class="s0" d="m0 0h350v70h-350v-70z" />
	<path id="circles" class="s1" d="m56 50c12.15 0 22 9.85 22 22c0 12.15-9.85 22-22 22c-12.15 0-22-9.85-22-22c0-12.15 9.85-22 22-22zm69-62c10.49 0 19 8.51 19 19c0 10.49-8.51 19-19 19c-10.49 0-19-8.51-19-19c0-10.49 8.51-19 19-19zm109 59c11.6 0 21 9.4 21 21c0 11.6-9.4 21-21 21c-11.6 0-21-9.4-21-21c0-11.6 9.4-21 21-21zm90-19c5.52 0 10 4.48 10 10c0 5.52-4.48 10-10 10c-5.52 0-10-4.48-10-10c0-5.52 4.48-10 10-10zm-6-49c9.94 0 18 8.06 18 18c0 9.94-8.06 18-18 18c-9.94 0-18-8.06-18-18c0-9.94 8.06-18 18-18zm-326.5 24c9.11 0 16.5 7.39 16.5 16.5c0 9.11-7.39 16.5-16.5 16.5c-9.11 0-16.5-7.39-16.5-16.5c0-9.11 7.39-16.5 16.5-16.5zm57.5-15c5.52 0 10 4.48 10 10c0 5.52-4.48 10-10 10c-5.52 0-10-4.48-10-10c0-5.52 4.48-10 10-10zm116.5 47c1.93 0 3.5 1.57 3.5 3.5c0 1.93-1.57 3.5-3.5 3.5c-1.93 0-3.5-1.57-3.5-3.5c0-1.93 1.57-3.5 3.5-3.5zm71.5-34c3.87 0 7 3.13 7 7c0 3.87-3.13 7-7 7c-3.87 0-7-3.13-7-7c0-3.87 3.13-7 7-7zm59.5 66c4.69 0 8.5 3.81 8.5 8.5c0 4.69-3.81 8.5-8.5 8.5c-4.69 0-8.5-3.81-8.5-8.5c0-4.69 3.81-8.5 8.5-8.5zm-197-1c0.83 0 1.5 0.67 1.5 1.5c0 0.83-0.67 1.5-1.5 1.5c-0.83 0-1.5-0.67-1.5-1.5c0-0.83 0.67-1.5 1.5-1.5zm243.5-13c1.1 0 2 0.9 2 2c0 1.1-0.9 2-2 2c-1.1 0-2-0.9-2-2c0-1.1 0.9-2 2-2zm-285-29c1.1 0 2 0.9 2 2c0 1.1-0.9 2-2 2c-1.1 0-2-0.9-2-2c0-1.1 0.9-2 2-2zm-49 31c2.21 0 4 1.79 4 4c0 2.21-1.79 4-4 4c-2.21 0-4-1.79-4-4c0-2.21 1.79-4 4-4z" />
</svg>