<svg version="1.2" baseProfile="tiny-ps" xmlns="http://www.w3.org/2000/svg" viewBox="0 0 40 40" width="40" height="40">
	<title>bg-icon</title>
	<style>
		tspan { white-space:pre }
		.shp0 { fill: #000000 } 
		.shp1 { fill: #f96c04 } 
	</style>
	<path id="file" class="shp0" d="M30.5 12.14C30.77 12.44 31 12.85 31.19 13.36C31.38 13.87 31.48 14.34 31.48 14.77L31.48 33.22C31.48 33.65 31.34 34.01 31.07 34.31C30.8 34.61 30.48 34.76 30.09 34.76L10.72 34.76C10.34 34.76 10.01 34.61 9.74 34.31C9.47 34.01 9.34 33.65 9.34 33.22L9.34 7.6C9.34 7.17 9.47 6.81 9.74 6.51C10.01 6.21 10.34 6.06 10.72 6.06L23.64 6.06C24.02 6.06 24.44 6.17 24.9 6.38C25.37 6.59 25.73 6.85 26 7.15L30.5 12.14ZM24.69 8.59L29.2 13.6C29.31 13.73 29.42 13.95 29.52 14.26L24.1 14.26L24.1 8.24C24.38 8.34 24.57 8.46 24.69 8.59L24.69 8.59ZM11.18 32.71L11.18 8.11L22.25 8.11L22.25 14.77C22.25 15.2 22.39 15.56 22.66 15.86C22.93 16.16 23.25 16.31 23.64 16.31L29.63 16.31L29.63 32.71L11.18 32.71ZM13.03 27.58" />
	<path id="center" class="shp1" d="M12.62 30.66L12.62 27.38L16.08 24.92L17.81 26.56L23.87 20L28.2 24.92L28.2 30.66L12.62 30.66ZM15.9 22.46C14.09 22.46 12.62 20.99 12.62 19.18C12.62 17.37 14.09 15.9 15.9 15.9C17.71 15.9 19.18 17.37 19.18 19.18C19.18 20.99 17.71 22.46 15.9 22.46Z" />
</svg>