<svg version="1.2" baseProfile="tiny-ps" xmlns="http://www.w3.org/2000/svg" viewBox="0 0 200 175" width="200" height="175" style="transform:translateY(6px);transform-origin:center center">
	<title>crown1.svg</title>
	<style>
		tspan { white-space:pre }
		.s0 { opacity: .4;fill: #1e1e1e } 
		.s1 { fill: #c58501 } 
		.s2 { fill: #f8de67 } 
		.s3 { fill: #d0b743 } 
		.s4 { fill: #b29d3c } 
		.s5 { fill: #c5ad3e } 
		.s6 { fill: #c21818 } 
		.s7 { fill: #ec5c5c } 
		.s8 { opacity: .6;fill: #ffffff } 
		.s9 { opacity: .7;fill: #000000 } 
		.s10 { opacity: .2;fill: #ffffff } 
		.s11 { opacity: .9;fill: #000000 } 
		.s12 { fill: #f9e587 } 
		.s13 { opacity: .1;fill: #ffffff } 
	</style>
	<path id="shadow1" class="s0" d="m162 77l3 8c0 0-39.89 4.12-64.82 2.59c-30.42-1.87-62.18-10.59-62.18-10.59l2-6l122 6z" />
	<path id="backcrown" class="s1" d="m109 8c0.89 4.31 11.54 22.63 16.12 33.34c0.06 0.14 7.25 4.67 7.88 4.66c10.34-0.27 15.46-23.44 17.2-17.42c1.74 6.02 4.93 17.04 8.49 16.87c3.56-0.17 26.38-40.58 20.31-24.45c-5.91 15.7-11.75 53.08-14 54c-3.55 1.46-6.8-9.4-16-18c-4.53-4.24-9.78-7.92-15.07-10.93c-9.52-5.43-19.16-8.68-24.93-9.07c-7.13-0.48-15 0.95-20 2m-13.44 3.53c-5.35-3.21-8.45-10.9-12.45-19.47c-5.88-12.6-0.88 16.88-9.2 16.99c-8.32 0.11-21.91-28.05-21.91-28.05c0 0 14.56 42.43 9 56c0 0 12-17.4 27-22" />
	<path id="frontcrown" class="s2" d="m30.33 13.15c0 0 14.89 34.17 23.21 34.06c8.32-0.11 3.32-29.58 9.2-16.99c5.88 12.6 9.83 23.31 21.82 20.64c11.99-2.67 22.75-52.57 26.7-33.54c1.26 6.04 13.83 38.21 19.94 36.98c10.14-2.05 16.9-24.58 18.64-18.55c1.74 6.02 4.93 17.04 8.49 16.87c3.56-0.17 26.29-44.87 20.21-28.74c-5.91 15.7-11.14 56.93-13.39 57.85c-7.55 3.09-48.1 2.28-63.55 1.86c-29.61-0.81-63.02-8.39-63.02-8.39c5.56-13.57-8.24-62.05-8.24-62.05z" />
	<path id="bandaf" class="s3" d="m106.61 66.36c33.32 1.15 63.39-3.36 63.39-3.36l-3 15c0 0-31.44 3.85-61.29 2.43c-33.05-1.57-65.84-8.45-65.71-9.43c0.27-1.87-1-16-1-16c17.35 5.27 43.34 10.52 67.61 11.36z" />
	<path id="bandasml" class="s4" d="m105.61 79.09c33.32 0.31 61.39-0.91 61.39-0.91l-2 4.08c0 0-20.44 2.05-50.29 1.66c-33.05-0.43-75.84-8.3-75.71-8.56c0.27-0.51-1-4.35-1-4.35c17.35 1.43 43.34 7.86 67.61 8.09z" />
	<path id="gemshadow" class="s5" d="m97.06 58.51l0.75-11.51l9.43-5.01l8.68 6.5l-0.75 11.51l-9.43 5.01l-8.68-6.5z" />
	<path id="gem" class="s6" d="m98.57 57.71l0.63-9.67l7.93-4.21l7.29 5.46l-0.63 9.67l-7.93 4.21l-7.29-5.46z" />
	<path id="gem\inner" class="s7" d="m102.13 55.82l0.35-5.32l4.36-2.31l4.01 3l-0.35 5.32l-4.36 2.31l-4.01-3z" />
	<path id="sh2" class="s8" d="m107 44v4l-5 2l-2-2l7-4z" />
	<path id="sh3" class="s9" d="m114 59l-4-3l1-5l3-1v9z" />
	<path id="sh4" class="s10" d="m99 49l3 1l1 5l-4 3v-9z" />
	<path id="sh5" class="s11" d="m113 59l-7 5v-5l5-3l2 3z" />
	<path id="bila1" class="s12" d="m40.5 65c1.38 0 2.5 1.34 2.5 3c0 1.66-1.12 3-2.5 3c-1.38 0-2.5-1.34-2.5-3c0-1.66 1.12-3 2.5-3z" />
	<path id="bila2" class="s12" d="m75.5 72c1.38 0 2.5 1.34 2.5 3c0 1.66-1.12 3-2.5 3c-1.38 0-2.5-1.34-2.5-3c0-1.66 1.12-3 2.5-3z" />
	<path id="bila3" class="s12" d="m120.5 75c1.38 0 2.5 1.34 2.5 3c0 1.66-1.12 3-2.5 3c-1.38 0-2.5-1.34-2.5-3c0-1.66 1.12-3 2.5-3z" />
	<path id="bila4" class="s12" d="m166.5 74c1.38 0 2.5 1.34 2.5 3c0 1.66-1.12 3-2.5 3c-1.38 0-2.5-1.34-2.5-3c0-1.66 1.12-3 2.5-3z" />
	<path id="lights" fill-rule="evenodd" class="s13" d="m175 29c-0.78 10.52-7.96 39.32-11 52c-22.51 5.03-78.9 5.22-90-6c43.5-2.15 5-7.33 6-8c14.64-5.22 36.78-0.27 52.71-1.98c7.34 0.39 15.3-18.23 16.29-27.02c0 0.67 0 1.33 0 2c3 3.67 3.19 13.33 8 17c9.84-10.04 12.48-18 18-28z" />
</svg>