<svg version="1.2" baseProfile="tiny-ps" xmlns="http://www.w3.org/2000/svg" viewBox="0 0 350 475" width="350" height="475">
	<title>1itms</title>
	<style>
		tspan { white-space:pre }
		.shp0 { opacity: 0;fill: #2c302d } 
		.shp1 { opacity: 0;fill: #545e58 } 
		.shp2 { opacity: 0;fill: #494c4a } 
		.shp3 { opacity: 0;fill: #f7941d } 
		.shp4 { opacity: 0;fill: #191b1a } 
		.shp5 { opacity: 0;fill: #d8efe0 } 
		.shp6 { opacity: 0;fill: #3e3225 } 
		.shp7 { opacity: 0;fill: #2b2b2b } 
		.shp8 { opacity: 0;fill: #c8c8c8 } 
		.shp9 { fill: #23683b } 
		.shp10 { fill: #386648 } 
		.shp11 { fill: #acc7b5 } 
		.shp12 { fill: #29342d } 
		.shp13 { fill: #d7d931 } 
	</style>
	<path id="bhan" class="shp0" d="M96.59 255.12C96.59 255.12 103.12 254.49 105.31 256.2C107.54 257.96 110.06 258.95 110 265.42C109.94 271.9 101.95 267.59 101.95 267.59C101.95 267.59 103.71 261.08 99.94 260.54C94.91 259.82 95.85 257.9 96.59 255.12Z" />
	<path id="bside" class="shp1" d="M123 266L135 269L123 344L108 344L123 266Z" />
	<path id="bfront" class="shp2" d="M64.62 265L123.38 266.21L108.49 344L55.16 316.17L64.62 265Z" />
	<path id="binner" class="shp0" d="M66.29 268.22L118.58 269.29L105.33 338.53L57.87 313.75L66.29 268.22Z" />
	<path id="bcgc" class="shp3" d="M99.82 291.74L96.39 309.97L96.36 309.96L96.43 310.22L82.1 315.32C82.08 315.38 82.06 315.44 82.02 315.48C81.97 315.53 81.93 315.55 81.88 315.54L79.44 314.83C79.4 314.81 79.36 314.77 79.34 314.7C79.32 314.64 79.32 314.58 79.32 314.52L69.45 303.44L69.57 303.26L69.55 303.26L72.1 287.01L72.13 287.01L72.07 286.79L85.19 280.03C85.21 279.96 85.23 279.9 85.27 279.86C85.32 279.79 85.37 279.76 85.42 279.77L88.02 280.1C88.07 280.11 88.11 280.15 88.13 280.22C88.15 280.28 88.16 280.35 88.15 280.41L99.96 291.52L99.79 291.73L99.82 291.74ZM97.34 292.54L86.75 282.43L86.32 283C86.27 283.06 86.22 283.09 86.17 283.09C86.12 283.08 86.08 283.04 86.06 282.96L85.84 282.31L73.73 288.39L71.46 302.65L80.61 312.8L81.02 312.31C81.06 312.25 81.11 312.23 81.16 312.25C81.21 312.26 81.24 312.3 81.27 312.38L81.47 313.04L94.42 308.27L97.34 292.54ZM75.56 304.22C75.69 303.42 76.32 302.89 76.97 303.05L88.34 305.78C89.07 305.96 89.53 306.79 89.38 307.64L89.14 308.96L75.35 305.46L75.56 304.22ZM90.14 303.44C89.98 304.3 89.26 304.85 88.54 304.68L77.14 302C76.49 301.84 76.07 301.07 76.21 300.26L76.4 299.07L75.72 293.76C75.58 293.78 75.43 293.79 75.27 293.76C74.49 293.6 73.99 292.68 74.15 291.69C74.31 290.71 75.07 290.02 75.86 290.16C76.65 290.31 77.16 291.24 77 292.24C76.96 292.47 76.88 292.69 76.78 292.89L80.73 296.67L84.18 290.88C83.64 290.51 83.34 289.75 83.48 288.95C83.66 287.91 84.49 287.19 85.35 287.32C86.21 287.46 86.77 288.43 86.58 289.48C86.46 290.22 85.99 290.8 85.42 291.02L86.83 298.04L92.42 295.92C92.38 295.68 92.38 295.43 92.43 295.18C92.62 294.11 93.52 293.38 94.45 293.55C95.38 293.72 95.98 294.74 95.78 295.82C95.58 296.9 94.66 297.62 93.74 297.44C93.56 297.4 93.39 297.33 93.24 297.24L90.26 302.78L90.14 303.44Z" />
	<path id="briefcaserench" class="shp4" d="M80.48 307.98C80.16 307.98 79.88 307.85 79.65 307.58C79.42 307.31 79.31 306.99 79.31 306.62C79.31 306.25 79.42 305.93 79.65 305.66C79.88 305.39 80.16 305.25 80.48 305.25C80.79 305.25 81.07 305.39 81.3 305.66C81.53 305.93 81.65 306.25 81.65 306.62C81.65 306.99 81.53 307.31 81.3 307.58C81.07 307.85 80.79 307.98 80.48 307.98ZM90.25 295.23C89.33 294.16 88.63 292.92 88.15 291.53L75.7 306.04C75.24 306.58 75.01 307.23 75.01 307.98C75.01 308.75 75.24 309.39 75.7 309.9L77.64 312.2C78.12 312.72 78.67 312.99 79.31 312.99C79.95 312.99 80.5 312.72 80.95 312.2L93.42 297.67C92.23 297.11 91.17 296.3 90.25 295.23ZM104.86 287.87C104.75 287.73 104.61 287.65 104.43 287.65C104.32 287.65 103.89 287.91 103.14 288.41C102.39 288.91 101.56 289.49 100.66 290.14C99.76 290.78 99.28 291.13 99.22 291.17L95.69 288.89L95.69 284.12L101.04 280.52C101.24 280.36 101.34 280.16 101.34 279.92C101.34 279.68 101.24 279.48 101.04 279.32C100.51 278.9 99.85 278.57 99.08 278.33C98.3 278.1 97.56 277.98 96.86 277.98C94.6 277.98 92.67 278.92 91.07 280.78C89.47 282.65 88.67 284.9 88.67 287.53C88.67 290.15 89.47 292.4 91.07 294.27C92.67 296.14 94.6 297.07 96.86 297.07C98.58 297.07 100.15 296.48 101.58 295.29C103.02 294.11 104.02 292.56 104.59 290.66C104.87 289.71 105.01 288.95 105.01 288.4C105.01 288.19 104.96 288.01 104.86 287.87Z" />
	<path id="k2zale" class="shp5" d="M313.4 176.64C313.41 176.77 313.41 176.9 313.4 177.03L312.98 181.28C312.85 182.66 311.83 183.74 310.71 183.71C309.59 183.68 308.79 182.55 308.93 181.18L309.34 176.92C309.38 176.5 309.52 176.11 309.7 175.76C309.62 175.59 309.55 175.4 309.5 175.2L308.57 171.01C308.49 170.64 308.5 170.27 308.58 169.92C308.28 169.55 308.07 169.08 307.98 168.56L307.28 164.35C307.2 163.87 307.24 163.41 307.38 163.01C306.35 162.97 305.42 162.3 305.1 161.24L303.86 157.13C303.47 155.8 304.2 154.4 305.5 154C306.8 153.6 308.18 154.35 308.57 155.67L309.81 159.79C310.02 160.48 309.91 161.2 309.57 161.78C310.42 162.04 311.14 162.89 311.32 163.96L312.03 168.18C312.03 168.19 312.03 168.2 312.03 168.21C312.69 168.53 313.2 169.14 313.38 169.92L313.3 174.11C313.52 175.1 314.14 176.07 313.4 176.64ZM309.75 178.71C309.61 181.03 309.97 182.47 310.56 182.29C311.15 182.11 311.79 182.41 311.86 180.9C311.93 179.39 312.73 177.01 312.27 176.65C311.82 176.28 311.18 175.91 311.18 175.91C311.18 175.91 309.88 176.39 309.75 178.71ZM308.36 159.86C307.83 158.43 307.8 155.91 307.12 155.75C306.45 155.58 305.57 155.47 305.57 155.47C305.57 155.47 304.27 156.42 305.05 158.63C305.83 160.84 306.82 162.04 307.43 161.65C308.03 161.25 308.89 161.29 308.36 159.86ZM310.23 164.42C310.05 162.92 309.44 163.27 308.84 163.13C308.24 162.99 307.98 164.45 308.27 166.75C308.56 169.06 309.89 169.45 309.89 169.45C309.89 169.45 310.5 169.04 310.93 168.64C311.36 168.24 310.4 165.93 310.23 164.42ZM312.85 174.08C312.44 172.6 312.58 170.1 311.93 169.88C311.88 169.86 311.84 169.85 311.79 169.84C311.51 170.39 311.02 170.77 310.42 170.83C310.14 170.86 309.86 170.81 309.6 170.71C309.47 171.18 309.43 171.8 309.65 172.6C309.9 173.54 310.2 174.29 310.52 174.84C310.85 174.62 311.22 174.48 311.61 174.49C312.12 174.51 312.56 174.76 312.88 175.15C312.99 174.93 313.01 174.61 312.85 174.08Z" />
	<path id="handle" class="shp6" d="M311.59 188.04L275.62 250.59C274.34 252.61 270.71 252.62 267.52 250.6C264.33 248.59 262.79 245.31 264.07 243.28L305.17 183.98C306.23 182.32 308.52 181.87 310.29 182.99C312.06 184.12 312.64 186.38 311.59 188.04Z" />
	<path id="d1" class="shp4" d="M324.59 207.25C324.59 207.25 311.76 205.9 308.73 203.99C300.6 198.84 286.89 190.17 286.89 190.17L295.29 176.89C295.29 176.89 308.77 185.41 317.1 190.68C320.83 193.04 326.88 203.63 326.88 203.63L324.59 207.25Z" />
	<path id="d2" class="shp7" d="M311.84 186.46C315.32 186.51 325.32 178.57 325.32 178.57C325.32 178.56 327.38 186.9 325.62 196.34C323.89 205.56 307.21 219.88 307.21 219.88L304 205L292 199L299.54 185.21C299.54 185.21 308.36 186.42 311.84 186.46Z" />
	<path id="d2cut" fill-rule="evenodd" class="shp8" d="M322 202C318.39 209.13 314.47 212.41 307 220C307.33 220 307.67 220 308 220C316.27 214.66 335.8 192.84 325 179C325.49 186.67 325.46 193.28 322 202Z" />
	<path id="k2" class="shp6" d="M300 155.27L259.68 95.44C258.42 93.39 260.01 90.13 263.23 88.16C266.44 86.18 270.07 86.24 271.33 88.28L306.47 151.3C307.5 152.98 306.89 155.23 305.1 156.33C303.32 157.42 301.03 156.95 300 155.27Z" />
	<path id="ftul" class="shp9" d="M273.65 247.65C276.36 247.77 278.58 191.34 290.77 181.41C292.4 179.01 293.63 177.61 294.39 177.16C294.58 177.04 294.74 176.99 294.88 176.99C295.02 176.99 295.13 177.05 295.22 177.16C295.4 177.39 295.48 177.84 295.46 178.51C295.45 178.85 295.41 179.24 295.35 179.68C295.29 180.12 295.2 180.61 295.07 181.16C294.82 182.25 294.44 183.55 293.9 185.06C292.83 188.06 290.99 191.89 288.7 196.44C277.12 214.79 282.83 264.56 275.77 264.47C274.25 264.41 273.48 263.78 273.23 261.39C273.2 261.09 273.18 260.76 273.16 260.4C273.15 260.05 273.14 259.66 273.14 259.24C273.13 258.4 273.15 257.43 273.2 256.31C273.28 254.08 273.45 251.24 273.65 247.65L273.65 247.65Z" />
	<path id="ffr" class="shp10" d="M283.09 221.33C283.09 221.33 272.8 213.13 291.91 205.86C311.01 198.58 315.12 195.72 315.95 190.66C316.78 185.61 331.85 212.29 307.79 220.98C283.72 229.67 287.98 219.76 283.09 221.33Z" />
	<path id="ffl" class="shp10" d="M276 239C269.35 242.74 270.44 234.47 257 234C243.56 233.53 231.07 243.92 240 232C248.93 220.08 258.24 208.5 272 216C285.76 223.5 281 230 281 230C281 230 282.65 235.26 276 239Z" />
	<path id="fprt" class="shp11" d="M319.21 200.39C314.49 194.84 300.51 188.41 301.34 185.77C302.18 183.13 304.04 176.89 302.01 175.79C299.98 174.7 305.32 177.22 305.32 177.22C305.32 177.22 330.68 165.02 335.55 177.83C340.42 190.65 323.92 205.95 319.21 200.39ZM318.32 158.9C311.93 162.39 302.8 174.79 300.38 173.43C297.96 172.08 292.23 168.99 290.74 170.76C289.26 172.52 292.81 167.8 292.81 167.8C292.81 167.8 286.01 140.5 299.54 138.33C313.08 136.16 324.72 155.41 318.32 158.9ZM297.6 186.41C298.24 184.2 296.9 189.95 296.9 189.95C296.9 189.95 314.12 212.2 302.6 219.64C291.09 227.07 272.68 214.14 277.13 208.36C281.58 202.59 284.94 187.57 287.7 187.84C290.46 188.11 296.95 188.62 297.6 186.41ZM260.77 206.58C248.5 200.47 250.24 178.04 257.47 178.92C262.76 179.57 272 177.2 277.05 176.86C272.21 176.08 250.41 171.92 253 160C255.91 146.6 278.08 142.77 279 150C279.92 157.23 288.14 170.24 286 172C284.54 173.2 281.78 175.53 280.51 177.54C280.51 177.54 280.52 177.54 280.52 177.55C281.7 180.05 284.57 185.9 286.8 185.33C289.03 184.76 283.4 186.53 283.4 186.53C283.4 186.53 273.05 212.69 260.77 206.58Z" />
	<path id="fb" class="shp12" d="M293.5 170C300.96 170 307 174.25 307 179.5C307 184.75 300.96 189 293.5 189C286.04 189 280 184.75 280 179.5C280 174.25 286.04 170 293.5 170Z" />
	<path id="ftul2" class="shp9" d="M59.16 418.47C61.05 418.23 55.68 378.81 62.9 370.43C63.74 368.56 64.42 367.45 64.89 367.04C65.01 366.93 65.11 366.87 65.21 366.86C65.31 366.84 65.39 366.87 65.47 366.94C65.62 367.08 65.73 367.38 65.8 367.85C65.83 368.08 65.86 368.35 65.87 368.67C65.88 368.98 65.87 369.33 65.85 369.73C65.81 370.52 65.71 371.47 65.52 372.58C65.14 374.79 64.34 377.67 63.31 381.11C57.54 395.25 67.6 429.08 62.69 429.88C61.63 430.03 61.02 429.68 60.56 428.05C60.5 427.85 60.44 427.63 60.39 427.38C60.33 427.14 60.28 426.87 60.23 426.58C60.12 426 60.02 425.32 59.91 424.54C59.69 422.98 59.47 420.99 59.16 418.47L59.16 418.47Z" />
	<path id="ffr2" class="shp10" d="M62.47 399.06C62.47 399.06 54.34 394.63 66.69 387.25C79.04 379.86 81.53 377.37 81.49 373.76C81.44 370.16 95.16 386.82 79.55 395.8C63.93 404.77 65.67 397.37 62.47 399.06Z" />
	<path id="ffl2" class="shp10" d="M59.73 412.19C55.58 415.6 55.32 409.73 45.95 411.05C36.58 412.37 29.2 421.1 33.92 411.74C38.65 402.38 43.68 393.2 54.14 396.72C64.59 400.24 62.09 405.33 62.09 405.33C62.09 405.33 63.88 408.78 59.73 412.19Z" />
	<path id="fprt2" class="shp11" d="M84.94 380.11C80.99 376.84 70.51 374.09 70.76 372.16C71.02 370.22 71.54 365.67 70 365.16C68.47 364.65 72.47 365.74 72.47 365.74C72.47 365.74 88.55 354.17 93.5 362.46C98.44 370.75 88.89 383.39 84.94 380.11ZM79.24 351.44C75.23 354.65 70.43 364.36 68.58 363.72C66.74 363.07 62.39 361.64 61.58 363.04C60.77 364.45 62.65 360.74 62.65 360.74C62.65 360.74 54.59 342.63 63.7 339.47C72.82 336.31 83.24 348.24 79.24 351.44ZM68.25 373.06C68.42 371.45 68.2 375.6 68.2 375.6C68.2 375.6 82.86 388.93 75.79 395.5C68.72 402.07 54.38 395.35 56.76 390.8C59.13 386.25 59.62 375.42 61.56 375.27C63.51 375.11 68.07 374.67 68.25 373.06ZM45.2 391.56C35.95 388.83 34.4 373.05 39.52 372.78C43.27 372.58 49.38 369.81 52.84 368.95C49.39 369.01 33.77 368.79 34.1 360.2C34.47 350.55 49.37 345.18 50.9 350.08C52.42 354.98 59.71 363.01 58.44 364.49C57.58 365.49 55.95 367.45 55.32 369C55.32 369 55.32 369 55.33 369C56.45 370.6 59.16 374.3 60.63 373.63C62.11 372.96 58.42 374.88 58.42 374.88C58.42 374.88 54.46 394.3 45.2 391.56Z" />
	<path id="fb2" class="shp12" d="M63.4 362.18C68.56 361.27 73.27 363.48 73.92 367.12C74.56 370.76 70.89 374.45 65.73 375.36C60.56 376.27 55.85 374.06 55.21 370.42C54.56 366.78 58.23 363.09 63.4 362.18Z" />
	<path id="ftul3" class="shp9" d="M284.32 429.4C283.84 431.29 283.47 432.78 283.15 433.95C282.99 434.54 282.84 435.04 282.7 435.48C282.63 435.69 282.56 435.89 282.5 436.07C282.43 436.25 282.37 436.42 282.3 436.57C281.78 437.77 281.29 437.97 280.49 437.75C276.83 436.65 287.88 411.84 284.89 400.48C284.45 397.75 284.12 395.47 284.06 393.74C284.03 392.88 284.04 392.14 284.09 391.54C284.11 391.24 284.15 390.97 284.19 390.73C284.23 390.49 284.27 390.28 284.32 390.11C284.42 389.76 284.53 389.54 284.66 389.45C284.73 389.4 284.8 389.39 284.87 389.41C284.94 389.43 285.01 389.49 285.09 389.58C285.41 389.94 285.82 390.86 286.27 392.37C290.94 399.49 282.91 429.02 284.32 429.4L284.32 429.4Z" />
	<path id="ffr3" class="shp10" d="M271.05 410.06C260.04 401.65 272.16 390.31 271.77 393.06C271.38 395.81 273.03 397.95 281.7 404.82C290.38 411.69 283.74 414.25 283.74 414.25C281.47 412.65 282.05 418.47 271.05 410.06Z" />
	<path id="ffl3" class="shp10" d="M283.4 419.08C283.4 419.08 282 414.94 290.32 413.3C298.65 411.66 301.56 419.17 304.23 426.78C306.9 434.39 302.15 426.99 295.14 425.05C288.12 423.11 287.34 427.56 284.52 424.55C281.7 421.53 283.4 419.08 283.4 419.08Z" />
	<path id="fprt3" class="shp13" d="M263.74 383.24C268.34 377.4 279.44 387.83 279.44 387.83C279.44 387.83 282.61 387.4 281.38 387.64C280.16 387.87 280.1 391.4 280.1 392.9C280.11 394.4 271.84 395.45 268.5 397.56C265.17 399.66 259.15 389.07 263.74 383.24ZM275.71 376.25C278.45 379.1 281.14 386.99 282.61 386.68C284.08 386.37 287.54 385.71 288.02 386.86C288.49 388.02 287.43 385 287.43 385C287.43 385 295.38 371.99 288.75 368.67C282.12 365.34 272.98 373.41 275.71 376.25ZM281.93 393.84C281.96 392.6 281.72 395.79 281.72 395.79C281.72 395.79 269.21 404.49 273.94 410.21C278.67 415.93 290.28 412.23 288.92 408.52C287.56 404.82 288.27 396.5 286.81 396.19C285.34 395.88 281.91 395.09 281.93 393.84ZM297.65 410.26C304.98 409.1 307.73 397.21 303.86 396.5C301.02 395.97 296.64 393.24 294.09 392.25C296.71 392.63 308.64 394.02 309.24 387.44C309.92 380.04 299.11 374.45 297.45 378.04C295.8 381.63 289.44 387.02 290.26 388.28C290.82 389.13 291.86 390.79 292.19 392.03C292.19 392.04 292.19 392.04 292.19 392.04C291.17 393.14 288.74 395.7 287.68 395.04C286.62 394.38 289.24 396.21 289.24 396.21C289.24 396.21 290.32 411.42 297.65 410.26Z" />
	<path id="fb3" class="shp12" d="M292.14 393.13C291.28 395.84 287.47 397.06 283.62 395.85C279.78 394.64 277.35 391.45 278.2 388.74C279.06 386.03 282.87 384.81 286.72 386.02C290.56 387.24 292.99 390.42 292.14 393.13Z" />
</svg>