<svg version="1.2" baseProfile="tiny-ps" xmlns="http://www.w3.org/2000/svg" viewBox="0 0 200 175" width="200" height="175">
	<title>hairx1</title>
	<style>
		tspan { white-space:pre }
		.s0 { fill: #000000 } 
		.s1 { opacity: .1;fill: #ffffff } 
	</style>
	<path id="hr" fill-rule="evenodd" class="s0" d="m127 7c0.67 1 1.33 2 2 3c-0.67-1-1.33-2-2-3zm-26 3c0.67 0 1.33 0 2 0c-0.67 0-1.33 0-2 0zm28 0c5.6 5.51 8.08 14.89 8 26c7.3-6.03 9.76-11.09 22-13c0 0.33 0 0.67 0 1c-0.67 0-1.33 0-2 0c-6.55 5.35-12.99 6.74-14 18c9.68-7.1 26.03-6.47 31 5c0.67 3.33 1.33 6.67 2 10c-0.33 0-0.67 0-1 0c-0.33 0-0.67 0-1 0c-1.26-7.93-4.38-10.7-9-15c-6.33 0.25-9.84 1.72-13 5c14.66 1.4 20.21 6.87 23 20c-0.67-0.33-1.33-0.67-2-1c-1.56-4.37-2.37-4.84-6-7c5.07 7.39 17.15 20.56 11 35c-0.4-7.05-1.99-11.61-6-15c3.89 10.34 6.46 28.77-1 37c-0.33-3-0.67-6-1-9c-0.03 19.86-7.42 39.29-19 48c-0.21-2.23 0.77-3.2-1-2c-2.33 2-4.67 4-7 6c0.67-2.67 1.33-5.33 2-8c-0.33 0-0.67 0-1 0c-1 2.33-2 4.67-3 7c-0.33 0-0.67 0-1 0c-0.33-5.67-0.67-11.33-1-17c-2.67 7-5.33 14-8 21c2.67-9.67 5.33-19.33 8-29c-0.33 0-0.67 0-1 0c0 0.67 0 1.33 0 2c-1.67 2-3.33 4-5 6c2.21-9.88 10.26-26.1 5-39c-1.67 7.67-3.33 15.33-5 23c-0.33 0-0.67 0-1 0c2.11-21.45 1.65-40.34-12-51c1 11.33 2 22.67 3 34c-0.33 0-0.67 0-1 0c-2.33-10.33-4.67-20.67-7-31c-0.33 0-0.67 0-1 0c-0.33 7-0.67 14-1 21c-0.67-5.67-1.33-11.33-2-17c-3.33 18-6.67 36-10 54c0.33-13.33 0.67-26.67 1-40c-1.67 7.33-3.33 14.67-5 22c-0.33 0-0.67 0-1 0c1.33-11 2.67-22 4-33c-14.42 5.27-22.36 12.93-19 33c-0.67-0.33-1.33-0.67-2-1c-3.75-11.08-5.38-20.4-2-33c-20.22 12.66-9.48 36.95 1 50c-9.99-3.12-14.63-9.78-22-15c0 2 0 4 0 6c3 4.33 6 8.67 9 13c-3.33-2.67-6.67-5.33-10-8c0 10.67 0 21.33 0 32c-0.67-0.33-1.33-0.67-2-1c-1.33-4.33-2.67-8.67-4-13c-0.33 0-0.67 0-1 0c-0.33 2.67-0.67 5.33-1 8c-0.67-2.33-1.33-4.67-2-7c-0.33 0-0.67 0-1 0c-0.33 1.67-0.67 3.33-1 5c-0.33-5-0.67-10-1-15c-0.33 0-0.67 0-1 0c-2 7.33-4 14.67-6 22c-0.33 0-0.67 0-1 0c-1-2.67-2-5.33-3-8c-0.33 0-0.67 0-1 0c-0.33 1.67-0.67 3.33-1 5c-0.33 0-0.67 0-1 0c0-11 0-22 0-33c0 0.67 0 1.33 0 2c-1 3-2 6-3 9c0.33-9.33 0.67-18.67 1-28c-0.67 0.33-1.33 0.67-2 1c-2 4-4 8-6 12c1.67-5.67 3.33-11.33 5-17c-2 1.33-4 2.67-6 4c3.67-7 7.33-14 11-21c-3.67 3-7.33 6-11 9c4.49-6 7.11-8.65 7-20c-2.33 1.33-4.67 2.67-7 4c1-1.33 2-2.67 3-4c3-4.67 6-9.33 9-14c-1.33 0.67-2.67 1.33-4 2c5-5 10-10 15-15c-5.69 0.93-12.62 1.61-17-1c10.22-1.98 9.51-7.59 16-12c6.33-1.67 12.67-3.33 19-5c0-0.33 0-0.67 0-1c-6.15-0.89-10.47-0.37-16 1c9.96-10.53 29.35-8.16 44-4c-2.61-9.54-11.34-7.9-19-12c22.58 0.56 33.97 9.46 49 16c-0.33-2-0.67-4-1-6c-5-2.33-10-4.67-15-7c13.01-0.16 18 3.71 25 9c-5.09-8.74-12.46-9.76-21-15c15.33 1.14 24.67 7.67 28 21c0.33 0 0.67 0 1 0c0.18-10.07-1.91-14.94-4-22zm2 115c0.33 0.67 0.67 1.33 1 2c-0.33-0.67-0.67-1.33-1-2zm-53 8c0.67 0 1.33 0 2 0c-0.67 0-1.33 0-2 0zm54 8c0.33 0.67 0.67 1.33 1 2c-0.33-0.67-0.67-1.33-1-2zm-1 2c0.33 0.67 0.67 1.33 1 2c-0.33-0.67-0.67-1.33-1-2zm-1 19c0.33 0.67 0.67 1.33 1 2c-0.33-0.67-0.67-1.33-1-2z" />
	<path id="lights" fill-rule="evenodd" class="s1" d="m90 31c13.2 0.63 16.18 11.33 23 13c2.33-3.67 4.67-7.33 7-11c0.33 0 0.67 0 1 0c-0.33 3.67-0.67 7.33-1 11c3.36-2.25 9.52-4.61 15-2c-5.52 1.2-7.26 3.25-10 7c34.79-1.11 45.82 23.48 34 52c-0.33 0-0.67 0-1 0c0.87-21.24-3.56-35.21-19-40c0 0.33 0 0.67 0 1c7.68 4.64 11.13 14.57 11 27c-0.33 0-0.67 0-1 0c-2.69-15.95-12.06-21.12-24-28c-8.67 4.67-17.33 9.33-26 14c2.33-5 4.67-10 7-15c-19.44 5.5-33.33 13.82-50 20c5.21-12.24 15.06-18.6 24-27c0-0.33 0-0.67 0-1c-0.67-0.33-1.33-0.67-2-1c-8.67 0.67-17.33 1.33-26 2c0.33-0.67 0.67-1.33 1-2c16.24-5.93 25.46-10.26 47-7c-0.33-1-0.67-2-1-3c-3-3.33-6-6.67-9-10z" />
</svg>