<svg version="1.2" baseProfile="tiny-ps" xmlns="http://www.w3.org/2000/svg" viewBox="0 0 40 40" width="40" height="40">
	<title>itemssm-icon</title>
	<style>
		tspan { white-space:pre }
		.shp0 { fill: #000000 } 
		.shp1 { fill: #f96c04 } 
	</style>
	<path id="bk" class="shp0" d="M15.79 9.07L25.21 9.07L25.21 11.16L15.79 11.16L15.79 9.07ZM8.13 11.16C7 11.16 6.03 11.51 5.22 12.23C4.41 12.95 4 13.81 4 14.81L4 28.36C4 29.36 4.41 30.22 5.22 30.94C6.03 31.65 7 32.01 8.13 32.01L9.3 32.01L9.3 11.16L8.13 11.16ZM27.57 11.16L27.57 8.55C27.57 8.12 27.4 7.75 27.06 7.44C26.71 7.14 26.29 6.99 25.8 6.99L15.2 6.99C14.71 6.99 14.29 7.14 13.94 7.44C13.6 7.75 13.43 8.12 13.43 8.55L13.43 11.16L11.07 11.16L11.07 32.01L29.93 32.01L29.93 11.16L27.57 11.16ZM35.78 12.23C34.97 11.51 34 11.16 32.87 11.16L31.7 11.16L31.7 32.01L32.87 32.01C34 32.01 34.97 31.65 35.78 30.94C36.59 30.22 37 29.36 37 28.36L37 14.81C37 13.81 36.59 12.95 35.78 12.23Z" />
	<path id="crown" class="shp1" d="M26.97 18.59L26.97 25.41L26.95 25.41L27 25.5L21.18 28.89C21.18 28.92 21.17 28.94 21.16 28.96C21.14 28.99 21.12 29 21.1 29L19.9 29C19.88 29 19.86 28.99 19.84 28.96C19.83 28.94 19.82 28.92 19.82 28.89L14 25.5L14.05 25.41L14.03 25.41L14.03 18.59L14.05 18.59L14 18.5L19.82 15.11C19.82 15.08 19.83 15.06 19.84 15.04C19.86 15.01 19.88 15 19.9 15L21.1 15C21.12 15 21.14 15.01 21.16 15.04C21.17 15.06 21.18 15.08 21.18 15.11L27 18.5L26.95 18.59L26.97 18.59ZM26.02 19.03L20.71 15.93L20.56 16.17C20.54 16.19 20.52 16.21 20.5 16.21C20.48 16.21 20.46 16.19 20.44 16.17L20.29 15.93L14.98 19.03L14.98 24.97L20.29 28.07L20.44 27.83C20.46 27.81 20.48 27.79 20.5 27.79C20.52 27.79 20.54 27.81 20.56 27.83L20.71 28.07L26.02 24.97L26.02 19.03ZM17.16 25.2C17.16 24.86 17.43 24.59 17.76 24.59L23.24 24.59C23.57 24.59 23.84 24.86 23.84 25.2L23.84 25.72L17.16 25.72L17.16 25.2ZM23.84 23.56C23.84 23.89 23.57 24.16 23.24 24.16L17.76 24.16C17.43 24.16 17.16 23.89 17.16 23.56L17.16 23.07L16.4 21.01C16.33 21.04 16.26 21.05 16.18 21.05C15.78 21.05 15.45 20.72 15.45 20.31C15.45 19.91 15.78 19.58 16.18 19.58C16.58 19.58 16.91 19.91 16.91 20.31C16.91 20.41 16.89 20.5 16.86 20.59L19.06 21.76L20.2 19.27C19.93 19.17 19.73 18.9 19.73 18.59C19.73 18.18 20.06 17.85 20.46 17.85C20.86 17.85 21.18 18.18 21.18 18.59C21.18 18.87 21.02 19.12 20.78 19.24L21.96 21.8L24.23 20.59C24.2 20.5 24.18 20.41 24.18 20.31C24.18 19.91 24.5 19.58 24.9 19.58C25.31 19.58 25.63 19.91 25.63 20.31C25.63 20.72 25.31 21.05 24.9 21.05C24.83 21.05 24.75 21.04 24.68 21.01L23.84 23.3L23.84 23.56Z" />
</svg>