<svg version="1.2" baseProfile="tiny-ps" xmlns="http://www.w3.org/2000/svg" viewBox="0 0 350 118" width="350" height="118">
	<title>newsp.svg</title>
	<style>
		tspan { white-space:pre }
		.shp0 { fill: #cbcbcb } 
		.shp1 { fill: #afaaaa } 
		.shp2 { fill: #c2bfbf } 
		.txt3 { font-size: 16px;fill: #afaaaa;font-weight: bold;font-family: "Arial Narrow" } 
#c2{fill:#f1f1f1;filter:drop-shadow(0 3px 2px rgba(0,0,0,0.3));}
	</style>
	<path id="c2" class="shp0" d="M71 20C71 20 130.36 5.08 151 18C171.64 30.92 177 30 177 30C177 30 244.24 5.57 263 10C281.76 14.43 291 23 291 23L258 98C258 98 197.44 108.12 191 111C184.56 113.88 177 113 177 113L121 105C121 105 104.1 88.16 93.91 70.3C83.18 51.51 65.56 29.32 65 29C58.73 25.34 71 20 71 20Z" />
	<path id="xc" class="shp1" d="M213 64C213 64 248.3 50 263.09 50C270.97 50 277 53 277 53L265 77C265 77 260.23 78 252.61 78C237.8 78 216 86 216 86L213 64ZM158 84C158 84 141.65 73.27 120 78C112.56 79.63 107 81 107 81L90 51C90 51 105.74 47.18 124.24 45.84C138.46 44.81 153 52 153 52L158 84ZM185.84 94.5C210.95 94.68 236.22 80.02 264.78 80.12C264.92 79.64 264.97 79.26 265.03 79C265.05 78.87 265.08 78.77 265.1 78.71C265.12 78.69 265.13 78.67 265.14 78.66C265.15 78.66 265.17 78.66 265.18 78.68C265.22 78.76 265.29 79.03 265.26 79.59C265.19 80.19 265.17 80.92 264.08 82.82C236.64 82.4 208.7 97.4 184.52 97.25C184.81 98.03 185.06 98.44 185.26 98.57C185.31 98.6 185.35 98.62 185.4 98.62C185.44 98.62 185.48 98.6 185.51 98.57C185.59 98.5 185.65 98.38 185.7 98.2C185.89 97.49 186.01 96.22 185.84 94.5L185.84 94.5L185.84 94.5ZM185.99 100.06C211.59 99.61 234.36 86.36 260.86 85.97C260.96 85.5 260.99 85.13 261.04 84.87C261.06 84.74 261.08 84.65 261.1 84.59C261.11 84.57 261.12 84.55 261.13 84.54C261.15 84.54 261.16 84.55 261.17 84.56C261.21 84.64 261.27 84.91 261.27 85.46C261.24 86.05 261.23 86.77 260.41 88.63C235.11 88.52 209.66 102.02 184.66 102.84C184.96 103.6 185.21 104.01 185.41 104.14C185.45 104.17 185.5 104.18 185.54 104.18C185.59 104.18 185.63 104.16 185.66 104.12C185.74 104.05 185.8 103.92 185.85 103.75C186.05 103.02 186.17 101.72 185.99 100.06L185.99 100.06L185.99 100.06ZM186.13 105.64C212.61 104.21 233.44 92.21 257.82 91.71C257.84 91.24 257.82 90.88 257.83 90.62C257.83 90.5 257.84 90.4 257.85 90.35C257.86 90.32 257.86 90.31 257.87 90.3C257.88 90.3 257.9 90.3 257.91 90.32C257.96 90.4 258.05 90.66 258.13 91.21C258.19 91.79 258.28 92.5 257.9 94.34C234.65 94.23 210.82 106.7 184.75 108.6C185.04 109.4 185.28 109.83 185.48 109.96C185.53 110 185.58 110.01 185.62 110.01C185.67 110 185.71 109.98 185.74 109.94C185.82 109.87 185.89 109.72 185.94 109.54C186.15 108.75 186.3 107.36 186.13 105.64L186.13 105.64L186.13 105.64ZM169.86 43.04L169.86 43.04C169.68 44.53 169.77 45.92 169.93 46.8C169.97 47.02 170.03 47.19 170.1 47.32C170.13 47.39 170.17 47.44 170.21 47.47C170.25 47.51 170.3 47.53 170.35 47.54C170.54 47.57 170.8 47.36 171.1 46.83C148.31 24.95 109.27 31.28 79.95 37.11C79.12 35.53 79.36 34.82 79.46 34.26C79.62 33.73 79.79 33.46 79.87 33.38C79.89 33.35 79.9 33.35 79.92 33.35C79.93 33.35 79.94 33.37 79.94 33.39C79.95 33.44 79.94 33.52 79.93 33.64C79.9 33.88 79.83 34.23 79.84 34.66C109.67 30.77 144.97 23.24 169.86 43.04L169.86 43.04ZM169.59 48.49L169.59 48.49L169.59 48.49C169.35 50.1 169.41 51.62 169.57 52.56C169.62 52.79 169.67 52.98 169.75 53.11C169.78 53.17 169.82 53.23 169.86 53.26C169.91 53.3 169.95 53.32 170 53.32C170.21 53.34 170.47 53.08 170.79 52.51C147.34 30.47 112.23 34.96 83.5 42.01C82.61 40.27 82.7 39.54 82.72 38.94C82.78 38.38 82.89 38.09 82.94 38C82.96 37.98 82.97 37.97 82.99 37.97C83 37.98 83.01 37.99 83.02 38.01C83.04 38.06 83.05 38.15 83.05 38.27C83.07 38.52 83.07 38.89 83.14 39.34C112.57 33.34 145.02 28.33 169.59 48.49L169.59 48.49ZM169.21 54.44L169.21 54.44C168.96 56.23 169.04 57.9 169.24 58.89C169.3 59.13 169.36 59.32 169.44 59.45C169.48 59.51 169.52 59.56 169.57 59.59C169.62 59.62 169.67 59.63 169.72 59.63C169.94 59.6 170.21 59.27 170.53 58.6C144.77 37.4 114.34 39.85 86.58 47.53C86 45.58 86.08 44.77 86.13 44.09C86.2 43.46 86.3 43.14 86.36 43.04C86.38 43.02 86.39 43.01 86.4 43.01C86.41 43.01 86.42 43.03 86.43 43.05C86.45 43.11 86.46 43.21 86.46 43.35C86.47 43.63 86.46 44.04 86.5 44.56C115.07 37.95 143.32 34.46 169.21 54.44L169.21 54.44ZM157.96 99.89C152.29 99.58 144.72 97.38 139.3 97.1C132.99 96.76 123.76 98.57 123.76 98.57L122.37 96.19C122.37 96.19 132.2 94.22 138.73 94.55C144.33 94.84 152.17 97.16 158.04 97.47C165.88 97.89 166.78 97.94 166.78 97.94L166.41 100.36C166.41 100.36 165.54 100.31 157.96 99.89ZM137.36 92.48C130.67 92.15 121 94.26 121 94.26L119.42 91.59C119.42 91.59 129.75 89.28 136.68 89.61C142.63 89.89 151 92.46 157.23 92.77C165.56 93.18 166.52 93.23 166.52 93.23L166.14 95.96C166.14 95.96 165.22 95.91 157.18 95.5C151.17 95.19 143.1 92.77 137.36 92.48ZM135.16 87.26C128.05 86.94 117.88 89.41 117.88 89.41L116.1 86.38C116.1 86.38 126.96 83.66 134.35 83.98C140.69 84.26 149.67 87.13 156.31 87.43C165.2 87.83 166.23 87.88 166.23 87.88L165.83 90.99C165.83 90.99 164.85 90.95 156.29 90.54C149.9 90.24 141.27 87.54 135.16 87.26Z" />
	<path id="ds" class="shp2" d="M175 38L177 38L183 120L182 120L175 38Z" />
	<text id="textd" style="opacity: 0;transform: matrix(0.984,-0.177,0.177,0.984,186.889,49.203)" >
		<tspan x="0" y="0" class="txt3" dx="0 0 0 0 0 0 0 0 0 0 0 0 0" >PWCHIN TODAY
</tspan>
	</text>
	<path id="p" fill-rule="evenodd" class="shp1" d="M191 32C191.67 32 192.33 32 193 32C192.95 32.96 193.76 34.5 193.96 36.29C194.03 36.91 190.55 37.56 189.94 38.22L190.08 38.17L193.97 41L191.47 41.92L189.67 39.68C189.44 42.61 190.09 46.94 189.85 48.54C189.69 49.65 188.46 48.5 188 49C188 46.33 188 41.67 188 39L187 43L185 43L186.94 39.12C184.96 39.56 182.98 41 181 41C180.6 36.46 179.85 36.92 182 34C182 35.67 182 37.33 182 39C185.33 38 188.67 37 192 36C191.67 34.67 191.33 33.33 191 32Z" />
	<path id="w" class="shp1" d="M207 41C204.33 42 201.67 43 199 44C198 38.67 197 33.33 196 28C196.33 28 196.67 28 197 28C197.33 28 197.67 28 198 28C198.16 29.31 198.33 30.62 198.49 31.93L198.76 31.5L203 34.15L202.47 35L198.57 32.55C198.71 33.7 198.86 34.85 199 36C201.67 35.33 204.33 34.67 207 34C206.84 33.37 206.69 32.75 206.53 32.12L203.53 34L203 33.15L206.27 31.1C205.85 29.4 205.42 27.7 205 26C208.44 28.86 209.35 34.44 210 40C209 40.33 208 40.67 207 41ZM200.34 37.86L204 40.15L203.47 41L200 38.82C200 39.88 200 40.94 200 42C200.33 42 200.67 42 201 42C203 41.33 205 40.67 207 40C207 39.48 207 38.97 207 38.45L204.53 40L204 39.15L207 37.27C207 36.51 207 35.76 207 35C204.78 35.95 202.56 36.9 200.34 37.86Z" />
	<path id="c" fill-rule="evenodd" class="shp1" d="M223 21C224 21.67 225 22.33 226 23C226 23.33 226 23.67 226 24C223.33 24.67 220.67 25.33 218 26C218.67 28 219.33 30 220 32C222.67 31.33 225.33 30.67 228 30C225.05 33.65 218.85 35.39 213 36C212 32.33 211 28.67 210 25C214.33 23.67 218.67 22.33 223 21ZM215 26C214.33 26.33 213.67 26.67 213 27C213.67 29 214.33 31 215 33C216.33 33 217.67 33 219 33C217.67 30.67 216.33 28.33 215 26Z" />
	<path id="h" fill-rule="evenodd" class="shp1" d="M245 31C241.33 31 236.67 32 233 32C232.86 30.69 239.33 30.33 242 30C241.33 28.67 240.67 27.33 240 26C237.67 26.33 235.33 26.67 233 27C232.67 28.67 232.33 30.33 232 32C231.67 32 231.33 32 231 32C231 27.33 231 22.67 231 18C234.67 17.33 238.33 16.67 242 16C242 16.67 242 17.33 242 18C243 22.33 244 26.67 245 31ZM241 25C240.67 23 240.33 21 240 19C239.67 19 239.33 19 239 19C236.67 19.67 234.33 20.33 232 21C232.67 22.67 232.33 23.33 233 25C235.33 24.67 238.67 25.33 241 25Z" />
	<path id="i" fill-rule="evenodd" class="shp1" d="M249 15C252.04 18.37 249.73 22.91 249 29C251.33 28.67 253.67 28.33 256 28C256 27.67 256 27.33 256 27C254 26 252 25 250 24C253.67 25.33 257.33 26.67 261 28C261 28.33 261 28.67 261 29C257 30.33 253 31.67 249 33C248.67 33 248.33 33 248 33C248.33 27 248.67 21 249 15Z" />
	<path id="n" fill-rule="evenodd" class="shp1" d="M270 18C271 18 272 18 273 18C268.76 21.86 266.97 20.92 268 28C271 28.67 274 29.33 277 30C277.33 29 277.67 28 278 27C278.33 25.33 278.67 23.67 279 22C276.95 20.53 276.42 20.22 275 18C275.33 18 275.67 18 276 18C278.47 19.64 279.31 20.63 281 23C280 25.67 279 28.33 278 31C274.33 30.67 270.67 30.33 267 30C264.29 23.79 265.56 21.93 270 18ZM270 22C270.33 23 270.67 24 271 25C270.67 25 270.33 25 270 25C270 24 270 23 270 22ZM273 22C273.67 22 274.33 22 275 22C274.33 23 273.67 24 273 25C273 24 273 23 273 22Z" />
	<path id="t" fill-rule="evenodd" class="shp1" d="M194.87 50.95C195.86 50.82 196.85 50.68 197.84 50.54C197.93 51.2 198.02 51.86 198.11 52.52C196.18 53.13 194.24 53.73 192.31 54.34C192.35 54.67 192.4 55 192.44 55.33C196.92 55.29 197.17 55.45 199.79 57.34C197.43 57.33 195.07 57.32 192.72 57.31C193.13 60.28 193.54 63.25 193.95 66.22C193.53 65.61 193.11 64.99 192.68 64.38C192.03 62.11 191.38 59.85 190.73 57.58C188.89 58.85 187.05 60.11 185.2 61.38C185.16 61.05 185.11 60.72 185.07 60.39C185.87 58.93 188.19 56.46 189 55C185.05 55.42 185.56 57.18 182.4 55.71C182.35 55.38 182.31 55.05 182.26 54.72C186.46 53.46 190.67 52.21 194.87 50.95Z" />
	<path id="o" fill-rule="evenodd" class="shp1" d="M208 43C211.17 42.16 214.33 44.67 217 45C209.78 45.21 206.35 44.2 206 52C207 52.67 208 53.33 209 54C210.33 54.33 211.67 54.67 213 55C212.33 53 209.67 48 209 46C209.67 46.33 210.33 46.67 211 47C211.67 48.33 214.33 52.67 215 54C215.67 53.67 216.33 53.33 217 53C216.67 50 216.33 46 216 43C216.67 43.33 217.33 44.67 218 45C218.33 46 218.67 47 219 48C218.25 52.54 218.28 53.02 215 55C213.1 56.52 210.33 55.99 206 55C205.33 52.33 204.67 49.67 204 47C205.33 45.67 206.67 44.33 208 43Z" />
	<path id="d" fill-rule="evenodd" class="shp1" d="M226 40C230.67 42 235.33 44 240 46C240 46.67 240 47.33 240 48C234.33 49.67 228.67 51.33 223 53C224 48.67 225 44.33 226 40ZM227 41C226.67 44 226.33 47 226 50C229.67 48.67 233.33 47.33 237 46C236.33 46 235.67 46 235 46C232.33 44.33 229.67 42.67 227 41Z" />
	<path id="a" fill-rule="evenodd" class="shp1" d="M248.42 34.49C248.8 35.25 249.19 36.02 249.58 36.78L248.91 34.23L250.91 35.21L253.81 45.15C254.05 45.64 254.3 46.13 254.55 46.62C251.65 47.46 248.75 48.29 245.85 49.13C245.03 48.26 244.2 47.38 243.37 46.51C243.15 45.2 242.92 43.88 242.7 42.57C244.94 41.85 247.19 41.12 249.43 40.4C249.21 41.11 249 41.83 248.78 42.54C247.47 42.77 246.15 42.99 244.84 43.22C245.39 44.47 245.95 45.73 246.5 46.99C248.26 46.38 250.02 45.77 251.78 45.15L250.18 39.08C249.59 37.55 249 36.02 248.42 34.49Z" />
	<path id="y" class="shp1" d="M276 34C275.33 35.33 274.67 36.67 274 38L274 41C273.47 41.05 272.95 41.11 272.42 41.16C272.45 41.11 272.47 41.05 272.5 41L271 41L271 40.64C270.84 40.89 270.67 41.12 270.5 41.35C268.33 41.57 266.17 41.78 264 42C263.67 39.67 263.33 37.33 263 35C263 34.67 263 34.33 263 34C264.21 34.15 265.42 34.3 266.63 34.45C266.61 34.7 266.65 34.88 266.75 35C266.17 35 265.58 35 265 35C265 36 265 37 265 38C265.33 38.67 265.67 39.33 266 40C266.33 40 266.67 40 267 40C268.33 39.78 269.67 39.56 271 39.33L271 38L272.25 38C272.55 37.11 272.81 36.12 273 35C273 36 273 37 273 38L273.5 38C273.33 37 273.17 36 273 35C268.92 35.08 267.2 35.53 266.75 35C268.17 35 269.58 35 271 35C269.55 34.82 268.09 34.64 266.63 34.45C266.66 34.11 266.79 33.65 267 33C270 33.33 273 33.67 276 34ZM271 44C267.67 45.33 264.33 46.67 261 48C261.33 47.33 261.67 46.67 262 46C265.87 44.95 268.64 43.73 270.5 41.35C271.14 41.29 271.78 41.22 272.42 41.16C271.95 42.11 271.47 43.05 271 44Z" />
</svg>