<svg version="1.2" baseProfile="tiny-ps" xmlns="http://www.w3.org/2000/svg" viewBox="0 0 350 118" width="350" height="118">
	<title>2knf</title>
	<style>
		tspan { white-space:pre }
		.shp0 { fill: #343434 } 
		.shp1 { fill: #36422e } 
	</style>
	<path id="rod1" class="shp0" d="M187.54 15.71C187.69 16.04 186.76 16.8 185.45 17.43L95.51 63.16C94.2 63.78 92.64 63.23 92.02 61.92C91.39 60.61 91.95 59.05 93.26 58.43L184.89 16.24C186.2 15.62 187.38 15.38 187.54 15.71Z" />
	<path id="gard1" class="shp1" d="M112.82 31C112.82 31 114.35 35.2 111.52 37.42C108.69 39.65 99.25 43.38 99.58 48.91C99.92 54.45 101.22 55.39 101.22 55.39L96.49 57.64C96.49 57.64 93.06 43.85 96.2 41.82C99.35 39.78 109.44 39.25 112.82 31ZM109.16 69.02C105.59 70.18 97.05 58.83 97.05 58.83L101.78 56.57C101.78 56.57 101.69 58.17 105.78 61.92C109.86 65.68 118.71 60.69 122.22 59.9C125.73 59.1 128.03 62.94 128.03 62.94C119.5 60.36 112.72 67.86 109.16 69.02Z" />
	<path id="rod2" class="shp0" d="M195.89 49.67L269.93 41.02C270.99 40.91 271.91 42.02 271.99 43.49C272.07 44.96 271.27 46.24 270.2 46.34L195.96 51C194.9 51.1 194.02 50.89 194 50.52C193.99 50.16 194.83 49.77 195.89 49.67Z" />
	<path id="gard2" class="shp1" d="M264.3 30.27C268.04 30.49 271.86 44.18 271.86 44.18L266.63 44.55C266.63 44.55 267.3 43.1 264.86 38.11C262.42 33.13 252.36 34.55 248.81 34.01C245.25 33.47 244.51 29.06 244.51 29.06C251.52 34.57 260.56 30.05 264.3 30.27ZM245.39 61.02C245.39 61.02 245.49 56.55 248.93 55.51C252.38 54.47 262.54 54.44 264.24 49.17C265.94 43.89 265.08 42.54 265.08 42.54L270.31 42.17C270.31 42.17 268.47 56.26 264.8 57.01C261.13 57.75 251.54 54.57 245.39 61.02Z" />
</svg>