<svg version="1.2" baseProfile="tiny-ps" xmlns="http://www.w3.org/2000/svg" viewBox="0 0 350 112" width="350" height="112" style="transform:translateY(0);">
	<title>ninjaswords.svg</title>
	<style>
		tspan { white-space:pre }
		.shp0 { fill: #2a2a2a } 
		.shp1 { fill: #9f9696 } 
		.shp2 { fill: #e2cebd } 
		.shp3 { fill: #ffffff } 
		.shp4 { opacity: 0;fill: #cdb37b } 
		.shp5 { opacity: 0;fill: #373737 } 
		.shp6 { opacity: 0;fill: #d2c7af } 
		.shp7 { opacity: 0;fill: #8c7e5f } 
#garda, #bld1, #bld2, #gardar, #bld1r, #bld2r, #s1, #s2{opacity:1;transform:translateY(8px);tramsform-origin:center center;}
#bat, #ball, #ballcus {opacity:0;}
#bat,#shadow {transform:translateY(8px);tramsform-origin:center center;}
#shadow{opacity:0;}
	</style>
	<path id="garda" class="shp0" d="M90.21 43.41L104.83 47.64L102.76 61.01L85.9 58.8L90.21 43.41Z" />
	<path id="bld1" class="shp1" d="M96.85 48L220.33 5L211.33 18.36L94.3 56.86L96.85 48Z" />
	<path id="bld2" class="shp2" d="M98 53L208 15L217 8L211 18L95 56L98 53Z" />
	<path id="gardar" class="shp0" d="M276.98 38.11L263.64 48.65L255.02 38.22L265.4 27.1L276.98 38.11Z" />
	<path id="bld1r" class="shp1" d="M268.77 40.74L148.55 67.63L133.98 60.76L262.05 34.44L268.77 40.74Z" />
	<path id="bld2r" class="shp2" d="M267.74 40.36L148.65 67.15L138.37 61.63L149.68 63.04L263.62 39.32L267.74 40.36Z" />
	<path id="s1" class="shp3" d="M136.94 32.49C136.94 32.49 136.02 38.18 136.66 39.49C137.36 40.92 142.51 43.94 142.51 43.94C142.51 43.94 136.72 43.07 135.36 43.74C133.98 44.41 131.06 49.51 131.06 49.51C131.06 49.51 131.76 43.39 131.03 41.88C130.44 40.67 125.49 38.06 125.49 38.06C125.49 38.06 131.24 38.95 132.59 38.29C133.99 37.61 136.94 32.49 136.94 32.49Z" />
	<path id="s2" class="shp3" d="M197.94 46.49C197.94 46.49 197.02 52.18 197.66 53.49C198.36 54.92 203.51 57.94 203.51 57.94C203.51 57.94 197.72 57.07 196.36 57.74C194.98 58.41 192.06 63.51 192.06 63.51C192.06 63.51 192.76 57.39 192.03 55.88C191.44 54.67 186.49 52.06 186.49 52.06C186.49 52.06 192.24 52.95 193.59 52.29C194.99 51.61 197.94 46.49 197.94 46.49Z" />
	<path id="bat" class="shp4" d="M217 1C223.63 1 229 5.92 229 12C229 18.08 223.63 23 217 23C210.37 23 205 18.08 205 12C205 5.92 210.37 1 217 1ZM222 22C222 22 103.22 54.14 96 56C88.78 57.86 92 49 92 49L212 2C235.08 -1.9 222 22 222 22Z" />
	<path id="shadow" class="shp5" d="M221 22C220.71 22.05 220.31 22.01 219.84 21.89C219.94 21.96 220 22 220 22L95 55C95 55 93.58 55.58 93 55C92.63 54.63 93 54 93 54L210.79 15.07C210.41 14.39 210.12 13.7 210 13C209.17 8.17 215 2 215 2C207.16 17.5 223.1 21.61 221 22Z" />
	<path id="ball" class="shp6" d="M278.5 19C285.4 19 291 24.6 291 31.5C291 38.4 285.4 44 278.5 44C271.6 44 266 38.4 266 31.5C266 24.6 271.6 19 278.5 19Z" />
	<path id="ballcus" class="shp7" d="M288.21 38.12L288.4 39.99L287.73 40L287.52 37.84L287.63 37.84L287.57 37.76L289.9 36.82L290.22 37.31L288.21 38.12ZM286.97 39.1L286.3 39.11L286.09 36.96L286.2 36.95L286.15 36.88L288.47 35.94L288.8 36.42L286.78 37.23L286.97 39.1ZM285.8 38.25L285.15 38.33L284.6 36.19L284.7 36.17L284.64 36.1L286.77 34.92L287.16 35.38L285.32 36.4L285.8 38.25ZM284.59 37.96L283.97 38.12L283.01 36.04L283.11 36.01L283.04 35.94L284.88 34.5L285.35 34.91L283.76 36.16L284.59 37.96ZM283.05 37.67L282.44 37.83L281.48 35.74L281.58 35.72L281.5 35.65L283.34 34.21L283.81 34.62L282.22 35.87L283.05 37.67ZM281.51 37.38L280.9 37.54L280.8 37.33L280.3 37.66L279.29 35.94L277.23 36.29L277.18 35.69L279.56 35.29L279.57 35.38L279.65 35.33L280.71 37.13L279.94 35.45L280.04 35.43L279.96 35.36L281.8 33.92L282.28 34.33L280.69 35.58L281.51 37.38ZM279.11 20.81L279.05 20.89L277.49 19.41L277.89 18.97L279.24 20.25L281.08 19.39L281.26 19.91L279.14 20.9L279.11 20.81ZM279.09 21.76L280.92 20.9L281.11 21.42L278.99 22.41L278.96 22.33L278.89 22.4L277.33 20.92L277.73 20.48L279.09 21.76ZM278.87 23.27L280.77 22.65L280.89 23.2L278.7 23.91L278.68 23.82L278.61 23.88L277.26 22.18L277.7 21.79L278.87 23.27ZM280.06 24.16L280.1 24.74L277.87 25.09L277.87 25L277.79 25.05L276.72 23.11L277.21 22.79L278.13 24.47L280.06 24.16ZM279.37 25.38L279.41 25.96L277.19 26.31L277.18 26.22L277.1 26.27L276.04 24.33L276.53 24.01L277.45 25.69L279.37 25.38ZM278.69 26.6L278.72 27.17L276.5 27.53L276.5 27.43L276.42 27.49L275.56 25.93L276.34 27.76L276.25 27.78L276.32 27.85L274.59 29.21L274.15 28.81L275.65 27.63L274.9 25.88L275.46 25.74L275.35 25.55L275.84 25.23L276.76 26.91L278.69 26.6ZM274.82 27.48L274.89 27.54L273.16 28.9L272.73 28.5L274.22 27.33L273.48 25.57L274.05 25.43L274.92 27.46L274.82 27.48ZM273.4 27.18L273.47 27.24L271.73 28.6L271.3 28.2L272.8 27.02L272.05 25.27L272.62 25.13L273.49 27.15L273.4 27.18ZM271.98 27.06L269.98 28.17L269.62 27.72L271.35 26.77L270.92 24.97L271.53 24.91L272.02 26.98L271.92 26.99L271.98 27.06ZM270.58 26.29L268.41 27.17L268.11 26.69L269.99 25.94L269.85 24.14L270.47 24.14L270.64 26.22L270.54 26.22L270.58 26.29ZM269.26 25.42L267.09 26.29L266.79 25.82L268.68 25.06L268.53 23.26L269.15 23.26L269.32 25.34L269.22 25.34L269.26 25.42ZM276.85 42.3L276.92 42.23L278.62 43.73L278.19 44.2L276.72 42.89L274.77 43.82L274.56 43.28L276.82 42.21L276.85 42.3ZM276.87 41.32L274.91 42.24L274.7 41.71L276.96 40.64L277 40.73L277.07 40.65L278.77 42.16L278.34 42.62L276.87 41.32ZM277.08 39.75L275.05 40.42L274.91 39.86L277.25 39.08L277.27 39.17L277.35 39.11L278.83 40.85L278.35 41.26L277.08 39.75ZM275.79 38.84L275.74 38.25L278.12 37.84L278.13 37.94L278.22 37.88L279.39 39.87L278.87 40.21L277.85 38.49L275.79 38.84ZM276.51 37.56L276.46 36.97L278.84 36.56L278.85 36.66L278.93 36.61L280.11 38.6L279.59 38.94L278.57 37.21L276.51 37.56Z" />
</svg>