
<svg version="1.2" baseProfile="tiny-ps" xmlns="http://www.w3.org/2000/svg" viewBox="0 0 350 118" width="350" height="118">
	<title>paint.svg</title>
	<style>
		tspan { white-space:pre }
		.shp0 { fill: #ccc } 
		.shp1 { fill: #29312c } 
		.shp2 { fill: #ade0bf } 
		.shp3 { fill: #9fdf25 } 
		.shp4 { fill: #af5eb9 } 
		.shp5 { fill: #5f6f90 } 
		.shp6 { fill: #5f9070 } 
		.shp7 { fill: #2aebc0 } 
	</style>
	<path id="brush" class="shp0" d="M98.08 67.19C97.07 67.71 96.03 67.86 94.96 67.64C93.91 67.42 93.04 66.92 92.34 66.15C91.65 65.39 91.37 64.55 91.5 63.63C91.62 62.81 92.1 61.88 92.94 60.86C99.28 53.39 103.74 48.87 106.13 47.52C107.89 46.51 109.76 46.17 111.73 46.5C113.8 46.85 115.47 47.81 116.74 49.37C118.01 50.95 118.48 52.63 118.16 54.42C117.84 56.22 116.82 57.56 115.1 58.44L98.08 67.19L98.08 67.19ZM123.3 50.94C124.2 50.99 125.11 50.95 126.03 50.84C126.95 50.73 127.77 50.52 128.49 50.2C129.21 49.88 129.92 49.43 130.62 48.85C131.31 48.27 131.98 47.53 132.6 46.63C132.96 46.13 133.49 45.93 134.22 46.05C134.48 46.09 134.86 46.28 135.36 46.62C135.86 46.96 136.33 47.32 136.77 47.68C137.21 48.05 137.69 48.47 138.22 48.94C138.75 49.41 139.07 49.69 139.18 49.79C139.54 48.04 139.62 46.37 139.41 44.76C139.2 43.15 138.7 41.66 137.92 40.29C137.13 38.91 135.96 37.75 134.4 36.8C132.85 35.85 130.99 35.22 128.82 34.9C125.08 34.36 121.9 34.92 119.28 36.56C116.68 38.18 115.17 40.53 114.71 43.61L114.47 45.14C115.79 45.68 116.95 46.43 117.93 47.39C118.92 48.35 119.65 49.43 120.11 50.62C121.34 50.79 122.4 50.9 123.3 50.94Z" />
	<path id="brushpaint" class="shp1" d="M138.39 50.48C138.39 50.48 135.12 45.34 133.93 45.89C133 46.31 132.95 48.22 131.57 48.62C130.19 49.01 129.52 47.27 129.83 46.38C130.15 45.49 121.92 44.07 123.14 43.53C124.35 42.98 129.29 44.14 129.34 42.29C129.39 40.44 126.74 38.94 126.74 38.94C126.74 38.94 131.84 38.28 131.95 37.58C132.05 36.87 128.23 35.09 128.23 35.09C128.23 35.09 135.68 34.72 137.9 38.32C140.12 41.93 139.97 46.48 139.63 48.62C139.26 50.97 138.39 50.48 138.39 50.48Z" />
	<path id="paleta" fill-rule="evenodd" class="shp2" d="M271.92 24.15C284.88 10.44 314.55 21.37 321.59 27.76C329.67 35.1 326.44 75.35 304.45 82.57C273.03 92.89 252.13 72.24 254 66C255.75 60.14 260.3 65.37 267.01 57.77C273.76 50.14 265 37 265 37C265 37 263.88 32.66 271.92 24.15ZM274 55C271.58 57.68 271.58 63.46 273 66C273.74 67.33 278.12 69.23 284.26 65.26C289.81 61.66 290.5 49.16 290 46C289.17 40.8 281.89 34 276 32C270.11 30 271 42 271 42C277.63 44.39 276.42 52.32 274 55Z" />
	<path id="p" fill-rule="evenodd" class="shp3" d="M300.22 22.67C302.92 31.76 304.12 31.16 301.86 36.72C300.19 38.2 298 37.74 296.32 39.22C294.62 39.32 294.55 33.82 292.85 33.93C290.55 27.47 284.25 34.9 279.97 32.16C280.36 31.03 282.17 27.44 282.56 26.31C291.68 23.66 289.19 23.63 296.55 20.54C297.77 21.25 299 21.96 300.22 22.67Z" />
	<path id="c" class="shp4" d="M313.75 33.22C312.87 36.25 319.59 35.19 317 37C322.18 45.33 321.37 49.04 318.05 56.59C314.01 55.77 313.74 44.92 313 45C312.67 41.41 311.6 38.95 308 40C306.53 41.14 304 46.88 302.38 48.83C301.66 47.7 300.94 46.58 300.22 45.46C301.15 41.11 297.61 38.83 302 37C300.66 34.3 302.95 31.82 301.62 29.12C301.9 28.94 302.18 28.76 302.46 28.58C305.68 28.04 304.69 27.89 307.44 28.94C309.55 30.37 311.65 31.79 313.75 33.22Z" />
	<path id="w" fill-rule="evenodd" class="shp5" d="M291.12 46.12C291.04 40.45 295.39 37.69 299.02 34.7C298.79 34.53 298.55 34.36 298.32 34.2C297.33 34.19 296.34 34.19 295.34 34.19C300.49 28.56 305.8 25.14 311.97 24.78C312.2 24.95 312.43 25.11 312.66 25.28C311.91 26.52 311.16 27.76 310.41 29.01C307.91 30.41 305.4 31.81 302.9 33.21C305.42 35.65 304.99 34.67 305.46 37.2C304.47 37.2 303.48 37.2 302.48 37.19C303.6 39.11 308.82 41.69 305.99 42.93C302.01 40.92 298.97 40.13 295.66 41.9C294.15 43.31 292.64 44.72 291.12 46.12Z" />
	<path id="i" fill-rule="evenodd" class="shp6" d="M315 45C317 45.33 319 45.67 321 46C321 46.33 321 46.67 321 47C320 48.67 319 50.33 318 52C313 54.67 308 57.33 303 60C300.67 59.33 298.33 58.67 296 58C295.67 57 295.33 56 295 55C295.33 54.33 295.67 53.67 296 53C306.07 53.09 310.12 49.86 315 45Z" />
	<path id="h" fill-rule="evenodd" class="shp7" d="M315 41C316.33 41 317.67 41 319 41C319.56 45.5 309 50.67 309 51C308.14 65.25 306.75 69.66 288 73C289 71 297 66 298 64C304.55 62.92 299.47 62.65 304 60C304.33 59 305.67 56 306 55C306 54.67 304 53.33 304 53C295.68 53.59 292.86 56.28 291 50C301.75 51.56 309 46.95 315 41Z" />
</svg>