<svg version="1.2" baseProfile="tiny-ps" xmlns="http://www.w3.org/2000/svg" viewBox="0 0 350 118" width="350" height="118">
	<title>riflem16psd</title>
	<style>
		tspan { white-space:pre }
		.shp0 { fill: #474c44 } 
		.shp1 { fill: #2d312a } 
		.shp2 { opacity: 0.169;fill: #777a76 } 
	</style>
	<path id="triggrt" class="shp0" d="M105 55L106 53L108 51L112 49L116 52C116 52 112.59 55.59 112 55C111.41 54.41 114 52 114 52C114 52 111.66 50.94 111 51C110.34 51.06 107 54 107 54C107 54 114.28 58.39 116 58C117.72 57.61 120 54 120 54L121 56C121 56 116.56 60.08 115 60C113.44 59.92 107 56 107 56L105 55Z" />
	<path id="pat" class="shp1" d="M105 32L106 29L145 47L144 50L146 50L147 49L150 51L212 79L209 86L147 60L146 60C146 60 143.32 60.07 144 59C144.68 57.93 142 58 142 58L138 59L135 67L120 64C120 64 119.57 62.29 120 62C120.43 61.71 120.8 56.05 120 55C119.2 53.95 112.71 52.46 111 53C109.29 53.54 107 57 107 57C107 57 101.86 61.27 99 62C96.14 62.73 95 55 95 55L97 53C97 53 98.86 51.95 100 51C101.14 50.05 102.45 47.76 102 47C101.55 46.24 101 43 101 43C101 43 90.78 40.8 87 40C83.22 39.2 36.83 35.99 37 34C37.17 32.01 45 7 45 7C47.15 7.41 105 32 105 32Z" />
	<path id="lineup" class="shp0" d="M109 29C109 29 111.35 25.67 112 26C112.65 26.33 114 25 114 25L114 24L116 22L146 38C146 38 148.24 39.82 148 42C147.76 44.18 145 47 145 47L142 46C142 46 144.43 46.33 145 45C145.57 43.67 148.47 41.41 146 40C143.53 38.59 123 29 123 29L116 34L108 30L109 29Z" />
	<path id="barel" class="shp1" d="M221.55 83.65L221.57 83.71L253 98L251 102L220.12 88.76L219 91L216 90L216 87L207 84L209.93 77.16L208 76L210 75L212 77C212 77 223.81 71.08 224 71C224.19 70.92 225.14 74.46 225 75C224.89 75.41 222.62 81.02 221.55 83.65ZM213.67 78.67L219.51 81.32L220 81L221 75L213.67 78.67Z" />
	<path id="mag" class="shp0" d="M121 62C121 62 136.43 61.14 134 67C131.57 72.86 130 89 130 89C130 89 124.24 89.22 120.39 88.6C117.77 88.18 115.58 86.84 115.6 86.86C113.62 83.67 120 64 120 64L121 62Z" />
	<path id="hand2" class="shp0" d="M211 76C214.2 77.51 214 78 214 78C214 78 210.8 87.4 210 87C209.2 86.6 207 89 207 89L205 88L204 87L146 63L152 49C152 49 207.8 74.49 211 76Z" />
	<path id="lights" class="shp2" d="M151.96 60.35L207.88 84.15C208.97 84.62 209.53 85.73 209.15 86.63C208.76 87.54 207.57 87.9 206.48 87.44L150.56 63.64C149.47 63.17 148.9 62.06 149.29 61.15C149.67 60.25 150.87 59.89 151.96 60.35ZM107.19 31.74L129.18 41.36C129.68 41.58 129.91 42.17 129.69 42.68C129.47 43.18 128.88 43.41 128.37 43.19L106.39 33.57C105.88 33.35 105.65 32.76 105.87 32.26C106.09 31.75 106.68 31.52 107.19 31.74ZM126.76 86.2C126.02 86.05 125.5 85.15 125.5 84.15C125.52 77.78 126.45 71.58 129.45 65.01C129.92 63.98 130.86 63.21 131.6 63.36C132.33 63.5 132.58 64.55 132.07 65.61C128.86 72.3 127.87 78.38 128.1 84.7C128.14 85.7 127.49 86.34 126.76 86.2L126.76 86.2ZM122.94 85.64C122.4 85.59 122.04 84.7 122.16 83.66C122.9 77.12 123.64 70.54 126.2 64.42C126.61 63.46 127.39 62.74 127.89 62.78C128.39 62.83 128.4 63.7 127.96 64.72C125.16 71.11 124.32 77.47 124 83.91C123.96 84.93 123.49 85.7 122.94 85.64L122.94 85.64ZM119 85.06C118.23 84.9 117.63 83.87 117.82 82.83C119 76.21 119.89 69.51 122.44 63.78C122.84 62.88 123.83 62.28 124.47 62.38C125.11 62.47 125.19 63.26 124.8 64.2C122.33 70.12 121.59 76.82 120.59 83.42C120.44 84.46 119.78 85.21 119 85.06L119 85.06Z" />
</svg>