<svg version="1.2" baseProfile="tiny-ps" xmlns="http://www.w3.org/2000/svg" viewBox="0 0 350 118" width="350" height="118">
	<title>shield.svg</title>
	<style>
		tspan { white-space:pre }
		.shp0 { opacity: 0.102;fill: #000000 } 
		.shp1 { fill: #3d352f } 
		.shp2 { fill: #696254 } 
		.shp3 { opacity: 0.149;fill: #ffffff } 
		.shp4 { opacity: 0.122;fill: #000000 } 
		.shp5 { fill: #000000 } 
		.shp6 { opacity: 0.459;fill: #737373 } 
#bshadow,#shadow,#baston{transform:translateY(-4px);transform-origin:center center;}
	</style>
	<path id="shieldshadow1" class="shp0" d="M261 18L258 52L251 48C251 48 250.77 42.15 250.52 36.11C250.27 29.66 251 23 251 23C251 23 252.21 20.52 254.3 18.16C256.2 16.03 256 14 256 14L261 18Z" />
	<path id="shield" class="shp1" d="M254.14 59.32L255.21 14.61C255.23 13.64 255.56 12.83 256.18 12.2C256.8 11.56 257.51 11.29 258.33 11.39L258.38 11.39C258.38 11.39 269.84 14.68 278.21 14.58C282.03 14.53 287.41 9.74 291.27 10.53C295.68 11.43 297.84 17.82 301.23 19.47C305.94 21.75 310.93 19.42 310.93 19.42L310.97 19.43C311.57 19.54 312.08 19.94 312.49 20.63C312.9 21.32 313.08 22.08 313.04 22.91L311.24 60.97C311.1 63.92 310.56 66.84 309.6 69.75C308.64 72.69 307.48 75.33 306.13 77.65C304.76 80 303.14 82.33 301.25 84.63C299.33 86.96 297.54 88.93 295.89 90.53C294.22 92.15 292.47 93.7 290.63 95.2C288.77 96.71 287.43 97.76 286.64 98.31C285.84 98.87 285.26 98.36 284.79 98.7C284.45 98.99 284.07 99.16 283.66 99.22C283.66 99.22 283.65 99.21 283.64 99.22C283.63 99.22 283.63 99.22 283.62 99.22C283.21 99.28 282.83 99.21 282.48 99.03C282.01 98.81 281.38 98.5 280.6 98.09C279.82 97.68 278.48 96.87 276.59 95.65C274.69 94.42 272.84 93.08 271.06 91.63C269.26 90.17 267.29 88.28 265.14 85.97C262.97 83.63 261.09 81.18 259.52 78.62C257.94 76.05 256.62 73.06 255.58 69.65C254.54 66.25 254.06 62.8 254.14 59.32Z" />
	<path id="shieldin" class="shp2" d="M260.56 58.65L261.47 20.64C261.49 19.82 261.76 19.13 262.29 18.59C262.81 18.05 263.43 17.83 264.12 17.91L264.16 17.91C264.16 17.91 273.9 20.71 281.02 20.62C284.26 20.58 288.84 16.5 292.12 17.17C295.87 17.94 297.7 23.38 300.58 24.77C304.59 26.71 308.83 24.73 308.83 24.73L308.86 24.74C309.38 24.84 309.81 25.18 310.16 25.76C310.5 26.35 310.66 26.99 310.63 27.7L309.09 60.06C308.98 62.56 308.51 65.04 307.7 67.52C306.88 70.01 305.9 72.25 304.75 74.23C303.59 76.23 302.21 78.21 300.6 80.16C298.97 82.14 297.45 83.82 296.05 85.18C294.63 86.55 293.14 87.88 291.58 89.15C289.99 90.43 288.86 91.32 288.18 91.79C287.5 92.27 287.01 91.83 286.61 92.12C286.32 92.36 286 92.51 285.65 92.56C285.65 92.56 285.64 92.56 285.63 92.56C285.63 92.56 285.62 92.56 285.61 92.57C285.27 92.61 284.94 92.56 284.65 92.4C284.25 92.22 283.71 91.95 283.05 91.6C282.38 91.25 281.25 90.56 279.64 89.53C278.02 88.48 276.45 87.35 274.94 86.11C273.41 84.87 271.73 83.27 269.9 81.3C268.06 79.32 266.47 77.23 265.13 75.05C263.78 72.87 262.67 70.32 261.78 67.43C260.9 64.54 260.49 61.61 260.56 58.65Z" />
	<path id="shadowshieldtop" fill-rule="evenodd" class="shp3" d="M291 22C298.37 25.41 298.22 31.82 308 28C310.52 45.69 309.57 64.34 301.87 75.32C297.09 82.14 291.83 86.05 286 90C276.67 83.73 270.98 76.78 268 64C268.67 64.33 269.33 64.67 270 65C272.8 71.62 278.44 77.1 286 79C290.25 64.62 291.05 53.22 291 33C287.67 36.67 288.33 34.33 285 38C284.33 37.67 283.67 31.33 283 31C283 27.33 278 28.67 278 25C281.33 23 287.67 24 291 22Z" />
	<path id="bshadow" class="shp4" d="M120.82 66.11L199.85 27.4C202.08 26.31 204.78 27.23 205.87 29.46C206.96 31.7 206.04 34.39 203.81 35.48L124.78 74.19C122.54 75.28 119.85 74.36 118.76 72.13C117.66 69.9 118.59 67.2 120.82 66.11Z" />
	<path id="baston" class="shp5" d="M91.82 60.11L170.85 21.4C173.08 20.31 175.78 21.23 176.87 23.46C177.96 25.7 177.04 28.39 174.81 29.48L95.78 68.19C93.54 69.28 90.85 68.36 89.76 66.13C88.66 63.9 89.59 61.2 91.82 60.11Z" />
	<path id="shadow" class="shp6" d="M95 65C95 65 151.46 34.59 167.74 25.4C168.91 24.74 170.86 26.33 171.57 27.2C172.5 28.35 173 27 173 27C173.36 26.83 175.71 27.4 176.02 26.02C176.37 24.52 174.69 21.06 174.97 21.31C176.09 22.26 176.77 24.36 176.96 25.34C177.25 26.78 176.25 27.97 174 29L96 67C94.68 67.6 92.55 67.92 92 67C91.44 66.07 93.67 65.64 95 65Z" />
</svg>