<svg version="1.2" baseProfile="tiny-ps" xmlns="http://www.w3.org/2000/svg" viewBox="0 0 350 118" width="350" height="118">
	<title>socials2</title>
	<style>
		tspan { white-space:pre }
		.s0 { opacity: .4;fill: #000000 } 
		.s1 { fill: #34456d } 
		.s2 { opacity: .5;fill: #ffffff } 
		.s3 { opacity: .5;fill: #000000 } 
		.s4 { fill: #3c5aa2 } 
		.s5 { fill: #ffffff } 
		.s6 { opacity: 0;fill: #288ad5 } 
		.s7 { opacity: 0;fill: #600b9b } 
		.s8 { opacity: 0;fill: #eb20af } 
		.s9 { opacity: .7;fill: #000000 } 
	</style>
	<path id="shadow" class="s0" d="m130 11h91c3.87 0 7 3.13 7 7v82c0 3.87-3.13 7-7 7h-91c-3.87 0-7-3.13-7-7v-82c0-3.87 3.13-7 7-7z" />
	<path id="sign" class="s1" d="m95 8h176c3.87 0 7 3.13 7 7v82c0 3.87-3.13 7-7 7h-176c-3.87 0-7-3.13-7-7v-82c0-3.87 3.13-7 7-7z" />
	<path id="corners" class="s2" d="m232 9h40c0 0 4.91 0.64 5 5c0.05 2.41 0 47 0 47l-3-45c0 0-0.87-3.89-3-4c-2.13-0.11-39-3-39-3zm-98 94h-40c0 0-4.91-0.64-5-5c-0.05-2.41 0-47 0-47l3 45c0 0 0.87 3.89 3 4c2.13 0.11 39 3 39 3z" />
	<path id="m1shadow" class="s3" d="m180 76c11.05 0 20 8.95 20 20c0 11.05-8.95 20-20 20c-11.05 0-20-8.95-20-20c0-11.05 8.95-20 20-20z" />
	<path id="m1" class="s4" d="m180 75c11.05 0 20 8.95 20 20c0 11.05-8.95 20-20 20c-11.05 0-20-8.95-20-20c0-11.05 8.95-20 20-20z" />
	<path id="m2" class="s5" d="m180 77.6c9.61 0 17.4 7.79 17.4 17.4c0 9.61-7.79 17.4-17.4 17.4c-9.61 0-17.4-7.79-17.4-17.4c0-9.61 7.79-17.4 17.4-17.4z" />
	<path id="twt" class="s6" d="m190.16 89.16c0.94-0.1 1.89-0.36 2.83-0.78c-0.68 1.02-1.5 1.89-2.47 2.61c0.01 0.15 0.02 0.36 0.02 0.66c0 1.35-0.19 2.7-0.58 4.05c-0.39 1.35-0.97 2.64-1.76 3.88c-0.79 1.24-1.72 2.33-2.81 3.29c-1.09 0.95-2.4 1.71-3.93 2.28c-1.53 0.57-3.17 0.85-4.92 0.85c-2.75 0-5.27-0.75-7.56-2.26c0.36 0.04 0.75 0.06 1.19 0.06c2.29 0 4.32-0.72 6.11-2.16c-1.07-0.02-2.02-0.36-2.86-1.01c-0.84-0.65-1.42-1.48-1.74-2.49c0.34 0.05 0.64 0.08 0.93 0.08c0.44 0 0.87-0.06 1.29-0.17c-1.14-0.24-2.08-0.82-2.83-1.74c-0.75-0.92-1.12-1.99-1.12-3.21v-0.06c0.69 0.4 1.43 0.61 2.22 0.64c-0.67-0.46-1.2-1.06-1.6-1.8c-0.4-0.74-0.59-1.54-0.59-2.41c0-0.92 0.22-1.76 0.67-2.55c1.23 1.55 2.72 2.79 4.49 3.73c1.76 0.93 3.65 1.45 5.66 1.55c-0.08-0.4-0.12-0.78-0.12-1.16c0-1.4 0.48-2.58 1.44-3.57c0.96-0.98 2.12-1.48 3.48-1.48c1.42 0 2.62 0.53 3.6 1.59c1.11-0.22 2.15-0.62 3.12-1.22c-0.38 1.2-1.1 2.12-2.16 2.78v0z" />
	<path id="twich" class="s7" d="m180.5 91.74v5.74h-1.91v-5.74h1.91zm3.34 0v5.74h1.91v-5.74h-1.91zm-3.34 10.05l-2.87 2.87v-2.87h-4.3v-13.88h15.77v10.52l-3.34 3.36h-5.26zm-9.07-15.79l-1.44 3.82v15.32h5.26v2.87h2.87l2.87-2.87h4.3l5.73-5.74v-13.4h-19.58z" />
	<path id="fb" class="s1" d="m182.56 84c1.47 0 2.62 0.06 3.43 0.17v3.65h-2.36c-0.86 0-1.44 0.17-1.74 0.5c-0.3 0.33-0.45 0.83-0.45 1.49v2.61h4.41l-0.59 4.09h-3.82v10.5h-4.6v-10.5h-3.84v-4.09h3.84v-3.01c0-1.71 0.52-3.04 1.56-3.99c1.04-0.94 2.43-1.42 4.17-1.42v0z" />
	<path id="insta" class="s8" d="m187.5 103.35c-0.16 0.16-0.34 0.24-0.56 0.24h-13.92c-0.23 0-0.41-0.08-0.57-0.24c-0.15-0.16-0.23-0.36-0.23-0.6v-8.87h1.84c-0.17 0.57-0.26 1.17-0.26 1.79c0 1.75 0.61 3.25 1.82 4.48c1.22 1.24 2.68 1.85 4.39 1.85c1.13 0 2.17-0.28 3.12-0.85c0.95-0.57 1.71-1.33 2.27-2.31c0.56-0.97 0.83-2.03 0.83-3.18c0-0.62-0.09-1.22-0.26-1.79h1.76v8.87c0 0.24-0.08 0.44-0.23 0.6zm-7.49-3.8c-1.1 0-2.05-0.4-2.83-1.2c-0.79-0.8-1.18-1.76-1.18-2.89c0-1.13 0.39-2.1 1.18-2.89c0.79-0.8 1.73-1.2 2.83-1.2c1.11 0 2.06 0.4 2.84 1.2c0.79 0.8 1.18 1.76 1.18 2.89c0 1.13-0.39 2.1-1.18 2.89c-0.79 0.8-1.73 1.2-2.84 1.2v0zm7.46-8.35c-0.17 0.18-0.39 0.27-0.64 0.27h-2.27c-0.25 0-0.46-0.09-0.64-0.27c-0.17-0.18-0.26-0.41-0.26-0.67v-2.26c0-0.26 0.09-0.48 0.26-0.66c0.17-0.19 0.39-0.28 0.64-0.28h2.27c0.25 0 0.46 0.09 0.64 0.28c0.17 0.19 0.26 0.41 0.26 0.66v2.26c0 0.26-0.09 0.49-0.26 0.67zm1.77-5.42c-0.5-0.53-1.11-0.79-1.81-0.79h-14.87c-0.7 0-1.31 0.26-1.81 0.79c-0.5 0.53-0.76 1.16-0.76 1.9v15.63c0 0.74 0.25 1.37 0.76 1.9c0.5 0.53 1.11 0.79 1.81 0.79h14.87c0.7 0 1.31-0.26 1.81-0.79c0.5-0.53 0.76-1.16 0.76-1.9v-15.63c0-0.74-0.25-1.37-0.76-1.9z" />
	<path id="txtshadow" class="s9" d="m132.93 14.32h9.99l-0.47 3.43h-6.21l-0.92 6.69h4.87l-0.47 3.43h-4.87l-1.44 10.47h-3.78l3.29-24.02zm13.06 24.37c-1.85 0-3.2-0.53-4.04-1.58c-0.84-1.05-1.13-2.54-0.86-4.46l1.73-12.63c0.26-1.92 0.96-3.41 2.09-4.46c1.13-1.05 2.62-1.58 4.47-1.58c1.85 0 3.2 0.53 4.04 1.58c0.84 1.05 1.13 2.54 0.86 4.46l-1.73 12.63c-0.26 1.92-0.96 3.41-2.09 4.46c-1.13 1.05-2.62 1.58-4.47 1.58v0zm0.47-3.43c-1.3 0-1.85-0.79-1.63-2.37l1.8-13.11c0.22-1.58 0.98-2.37 2.28-2.37c1.3 0 1.85 0.79 1.63 2.37l-1.8 13.11c-0.22 1.58-0.98 2.37-2.28 2.37v0zm10.28-20.94h3.78l-2.82 20.59h6.21l-0.47 3.43h-9.99l3.29-24.02zm10.95 0h3.78l-2.82 20.59h6.21l-0.47 3.43h-9.99l3.29-24.02zm12.93 24.37c-1.85 0-3.2-0.53-4.04-1.58c-0.84-1.05-1.13-2.54-0.86-4.46l1.73-12.63c0.26-1.92 0.96-3.41 2.09-4.46c1.13-1.05 2.62-1.58 4.47-1.58c1.85 0 3.2 0.53 4.04 1.58c0.84 1.05 1.13 2.54 0.86 4.46l-1.73 12.63c-0.26 1.92-0.96 3.41-2.09 4.46c-1.13 1.05-2.62 1.58-4.47 1.58v0zm0.47-3.43c-1.3 0-1.85-0.79-1.63-2.37l1.8-13.11c0.22-1.58 0.98-2.37 2.28-2.37c1.3 0 1.85 0.79 1.63 2.37l-1.8 13.11c-0.22 1.58-0.98 2.37-2.28 2.37v0zm9.39-20.94h3.64l-0.85 18.46h0.07l4.32-18.46h4.12l-0.75 18.46h0.07l4.21-18.46h3.26l-5.73 24.02h-4.7l0.51-16.2h-0.07l-3.94 16.2h-5.01l0.86-24.02zm23.78 0h5.39l0.04 17.19h0.07l4.76-17.19h5.39l-3.29 24.02h-3.57l2.49-18.19h-0.07l-5.24 18.19h-3.16l-0.25-18.19h-0.07l-2.49 18.19h-3.29l3.29-24.02zm17.61 0h10.3l-0.47 3.43h-6.52l-0.87 6.35h5.18l-0.47 3.43h-5.18l-1.01 7.38h6.52l-0.47 3.43h-10.3l3.29-24.02z" />
	<path id="txt" class="s5" d="m131.93 13.32h9.99l-0.47 3.43h-6.21l-0.92 6.69h4.87l-0.47 3.43h-4.87l-1.44 10.47h-3.78l3.29-24.02zm13.06 24.37c-1.85 0-3.2-0.53-4.04-1.58c-0.84-1.05-1.13-2.54-0.86-4.46l1.73-12.63c0.26-1.92 0.96-3.41 2.09-4.46c1.13-1.05 2.62-1.58 4.47-1.58c1.85 0 3.2 0.53 4.04 1.58c0.84 1.05 1.13 2.54 0.86 4.46l-1.73 12.63c-0.26 1.92-0.96 3.41-2.09 4.46c-1.13 1.05-2.62 1.58-4.47 1.58v0zm0.47-3.43c-1.3 0-1.85-0.79-1.63-2.37l1.8-13.11c0.22-1.58 0.98-2.37 2.28-2.37c1.3 0 1.85 0.79 1.63 2.37l-1.8 13.11c-0.22 1.58-0.98 2.37-2.28 2.37v0zm10.28-20.94h3.78l-2.82 20.59h6.21l-0.47 3.43h-9.99l3.29-24.02zm10.95 0h3.78l-2.82 20.59h6.21l-0.47 3.43h-9.99l3.29-24.02zm12.93 24.37c-1.85 0-3.2-0.53-4.04-1.58c-0.84-1.05-1.13-2.54-0.86-4.46l1.73-12.63c0.26-1.92 0.96-3.41 2.09-4.46c1.13-1.05 2.62-1.58 4.47-1.58c1.85 0 3.2 0.53 4.04 1.58c0.84 1.05 1.13 2.54 0.86 4.46l-1.73 12.63c-0.26 1.92-0.96 3.41-2.09 4.46c-1.13 1.05-2.62 1.58-4.47 1.58v0zm0.47-3.43c-1.3 0-1.85-0.79-1.63-2.37l1.8-13.11c0.22-1.58 0.98-2.37 2.28-2.37c1.3 0 1.85 0.79 1.63 2.37l-1.8 13.11c-0.22 1.58-0.98 2.37-2.28 2.37v0zm9.39-20.94h3.64l-0.85 18.46h0.07l4.32-18.46h4.12l-0.75 18.46h0.07l4.21-18.46h3.26l-5.73 24.02h-4.7l0.51-16.2h-0.07l-3.94 16.2h-5.01l0.86-24.02zm23.78 0h5.39l0.04 17.19h0.07l4.76-17.19h5.39l-3.29 24.02h-3.57l2.49-18.19h-0.07l-5.24 18.19h-3.16l-0.25-18.19h-0.07l-2.49 18.19h-3.29l3.29-24.02zm17.61 0h10.3l-0.47 3.43h-6.52l-0.87 6.35h5.18l-0.47 3.43h-5.18l-1.01 7.38h6.52l-0.47 3.43h-10.3l3.29-24.02z" />
	<path id="darks" class="s1" d="m148.19 16.08c1.28 0.1 2.12 1.48 1.89 3.08l-1.92 13.04c-0.24 1.6-1.46 2.82-2.74 2.72c-1.28-0.1-2.12-1.48-1.89-3.08l1.92-13.04c0.24-1.6 1.46-2.82 2.74-2.72zm34.14-0.03c1.28 0.07 2.16 1.42 1.97 3.03l-1.56 13.09c-0.19 1.61-1.39 2.85-2.66 2.79c-1.28-0.07-2.16-1.42-1.97-3.03l1.56-13.09c0.19-1.61 1.39-2.85 2.66-2.79z" />
</svg>