<svg version="1.2" baseProfile="tiny-ps" xmlns="http://www.w3.org/2000/svg" viewBox="0 0 350 475" width="350" height="475">
	<title>spier.svg</title>
	<style>
		tspan { white-space:pre }
		.shp0 { fill: #2a251c } 
		.shp1 { opacity: 0.071;fill: #ffffff } 
		.shp2 { fill: #ece575 } 
		.shp3 { opacity: 0.22;fill: #ffffff } 
		.shp4 { opacity: 0.278;fill: #323331 } 
		.shp5 { fill: #cfc853 } 
		.shp6 { fill: #f0ecb3 } 
		.shp7 { fill: #ccc550 } 
		.shp8 { opacity: 0.259;fill: #000000 } 
		.shp9 { fill: #888554 } 
.shadow { opacity: 0.12;fill: #000000 }
	</style>
	<path id="pollhandle" class="shp0" d="M295.07 89.44C295.07 89.44 291.16 132.74 286.15 210.5C286.52 217.62 286.49 227.18 285.96 237.73C285.55 245.65 284.92 253.03 284.17 259.25C278.41 350.24 272.57 444.32 272.57 444.32C272.42 446.56 270.52 448.26 268.31 448.11L265.31 447.9C263.11 447.76 261.43 445.82 261.57 443.58L284.08 88.69C284.22 86.45 286.13 84.76 288.33 84.91L291.33 85.11C293.54 85.26 295.21 87.2 295.07 89.44Z" />
	<path id="pollw" class="shp1" d="M287.46 88.89C288.83 88.98 289.8 91.45 289.61 94.42L267.68 442C267.49 444.97 266.22 447.3 264.84 447.21C263.47 447.12 262.5 444.65 262.69 441.69L284.62 94.1C284.81 91.14 286.08 88.81 287.46 88.89Z" />
	<path id="top" class="shp2" d="M282.76 94.63C282.76 94.63 285.53 96.85 288.4 97.08C291.5 97.33 294.72 95.59 294.72 95.59L290.24 163.37C290.24 163.37 287.16 165.12 284.12 164.88C281.18 164.64 278.28 162.41 278.28 162.41L282.76 94.63Z" />
	<path id="tw" class="shp3" d="M291.67 98.07C293.04 98.16 294.08 96.36 293.99 97.73L290 162.6C289.9 163.98 285.71 165.02 284.33 164.93C282.96 164.84 278.92 163.64 279.01 162.27C279.01 162.27 287.34 161.03 287.9 158.91C290.81 147.91 291.79 113.14 291.96 103.21C291.99 101.43 286 100.4 286 100.4C286.1 99.02 290.29 97.98 291.67 98.07Z" />
	<path id="tb" class="shp4" d="M285.28 97.08C285.83 97.12 286.24 97.6 286.2 98.15L281.79 158.99C281.75 159.54 281.27 159.96 280.72 159.92C280.17 159.88 278.95 161.46 278.99 160.87L283.08 95.97C283.11 95.39 284.73 97.04 285.28 97.08Z" />
	<path id="bottom" class="shp5" d="M265.76 369.63C265.76 369.63 268.53 371.85 271.4 372.08C274.5 372.33 277.72 370.59 277.72 370.59L273.24 438.37C273.24 438.37 270.16 440.12 267.12 439.88C264.18 439.64 261.28 437.41 261.28 437.41L265.76 369.63Z" />
	<path id="bw" class="shp3" d="M274.67 373.07C276.04 373.16 277.08 371.36 276.99 372.73L273 437.6C272.9 438.98 268.71 440.02 267.33 439.93C265.96 439.84 261.92 438.64 262.01 437.27C262.01 437.27 270.34 436.03 270.9 433.91C273.81 422.91 274.79 388.14 274.96 378.21C274.99 376.43 269 375.4 269 375.4C269.1 374.02 273.29 372.98 274.67 373.07Z" />
	<path id="bb" class="shp4" d="M268.28 372.08C268.83 372.12 269.24 372.6 269.2 373.15L264.79 433.99C264.75 434.54 264.27 434.96 263.72 434.92C263.17 434.88 261.95 436.46 261.99 435.87L266.08 370.97C266.11 370.39 267.73 372.04 268.28 372.08Z" />
	<path id="c1" class="shp2" d="M299 54.84C298.12 65.71 292.3 76.55 292.3 76.55L293.61 88.2L289.77 89.83L289.76 89.99L289.61 89.9L289.45 89.97L289.46 89.81L285.99 87.7L289.33 76.22C289.33 76.22 284.79 64.23 285.15 53.3C285.5 42.37 294.69 7.66 294.69 7.66C294.69 7.66 299.87 43.97 299 54.84Z" />
	<path id="c2" class="shp6" d="M287.66 61.66C287.66 61.66 286.02 63.46 285.63 62.33C285.24 61.21 285.08 53.63 285.4 48.84C285.72 44.04 291.46 20.77 291.46 20.77C286.93 42.93 287.66 61.66 287.66 61.66ZM296.41 21.32C296.41 21.32 299.47 45.57 299.25 50.38C299.03 55.18 298.02 62.63 297.5 63.65C296.99 64.68 295.58 62.54 295.58 62.54C295.58 62.54 298.4 44.21 296.41 21.32Z" />
	<path id="c3" class="shp6" d="M297.54 27.73L293.84 22.83L289.58 27.75L294.64 8.55L297.54 27.73Z" />
	<path id="c4" class="shp7" d="M291.85 75.6C291.85 75.6 291.13 78.21 290.61 78.16C290.15 78.1 289.87 75.38 289.87 75.38L294.44 12.12L291.85 75.6Z" />
	<path id="shi1shadow" class="shp8 shadow" d="M152.6 310.42C151.27 317.27 149.34 323.26 146.84 328.38C144.37 333.42 141.34 338.21 137.76 342.74C134.26 347.18 131.03 350.76 128.06 353.52C125.13 356.25 122.09 358.74 118.94 361.02C115.84 363.26 113.66 364.74 112.36 365.49C111.08 366.24 110.05 366.81 109.27 367.19C108.7 367.53 108.04 367.66 107.31 367.56C107.17 367.54 107.03 367.48 106.89 367.45C106.76 367.45 106.63 367.47 106.49 367.46C105.76 367.36 105.06 367.06 104.38 366.56C103.48 365.97 102.29 365.13 100.81 364.06C99.34 363 96.84 361.02 93.34 358.15C89.89 355.32 86.59 352.38 83.42 349.34C80.28 346.34 76.84 342.64 73.09 338.28C69.39 333.97 66.14 329.63 63.31 325.22C60.51 320.86 57.98 315.92 55.71 310.38C53.44 304.87 51.88 299.31 51 293.68L39.01 216.37C38.73 214.59 38.89 212.94 39.47 211.42C40.06 209.9 40.9 208.99 42 208.69L42.66 208.51C42.66 208.51 61.51 212.42 81.95 207.36C105.69 201.49 132.52 184.23 132.52 184.23L133.53 183.95C135.24 183.49 136.83 183.93 138.3 185.26C139.78 186.6 140.66 188.42 140.95 190.71L153.29 289.28C154.18 296.42 153.95 303.48 152.6 310.42Z" />
	<path id="shi1" class="shp7" d="M147.6 307.42C146.27 314.27 144.34 320.26 141.84 325.38C139.37 330.42 136.34 335.21 132.76 339.74C129.26 344.18 126.03 347.76 123.06 350.52C120.13 353.25 117.09 355.74 113.94 358.02C110.84 360.26 108.66 361.74 107.36 362.49C106.08 363.24 105.05 363.81 104.27 364.19C103.7 364.53 103.04 364.66 102.31 364.56C102.17 364.54 102.03 364.48 101.89 364.45C101.76 364.45 101.63 364.47 101.49 364.46C100.76 364.36 100.06 364.06 99.38 363.56C98.48 362.97 97.29 362.13 95.81 361.06C94.34 360 91.84 358.02 88.34 355.15C84.89 352.32 81.59 349.38 78.42 346.34C75.28 343.34 71.84 339.64 68.09 335.28C64.39 330.97 61.14 326.63 58.31 322.22C55.51 317.86 52.98 312.92 50.71 307.38C48.44 301.87 46.88 296.31 46 290.68L34.01 213.37C33.73 211.59 33.89 209.94 34.47 208.42C35.06 206.9 35.9 205.99 37 205.69L37.66 205.51C37.66 205.51 56.51 209.42 76.95 204.36C100.69 198.49 127.52 181.23 127.52 181.23L128.53 180.95C130.24 180.49 131.83 180.93 133.3 182.26C134.78 183.6 135.66 185.42 135.95 187.71L148.29 286.28C149.18 293.42 148.95 300.48 147.6 307.42Z" />
	<path id="shi2" class="shp9" d="M140.01 304.02C138.9 309.99 137.27 315.22 135.14 319.71C133.04 324.15 130.44 328.38 127.37 332.39C124.36 336.34 121.57 339.54 118.99 342.02C116.46 344.47 113.81 346.73 111.07 348.8C108.36 350.84 106.45 352.19 105.32 352.88C104.19 353.57 103.28 354.09 102.6 354.45C102.1 354.77 101.52 354.89 100.88 354.82C100.75 354.81 100.63 354.75 100.51 354.73C100.39 354.73 100.28 354.75 100.16 354.74C99.52 354.67 98.9 354.42 98.3 353.99C97.51 353.48 96.46 352.76 95.15 351.84C93.85 350.92 91.64 349.21 88.55 346.72C85.49 344.26 82.56 341.7 79.74 339.04C76.95 336.41 73.88 333.17 70.54 329.33C67.23 325.53 64.33 321.68 61.8 317.78C59.29 313.91 57.03 309.52 54.99 304.59C52.97 299.68 51.57 294.73 50.8 289.7L40.23 220.94C39.98 219.35 40.13 217.9 40.66 216.57C41.2 215.23 41.96 214.44 42.95 214.2L43.55 214.05C43.55 214.05 60.62 217.8 78.56 213.78C99.37 209.12 122.46 194.82 122.46 194.82L123.33 194.61C124.79 194.26 126.14 194.66 127.4 195.84C128.67 197.02 129.43 198.6 129.68 200.57L140.52 285.66C141.31 291.85 141.14 297.98 140.01 304.02Z" />
	<path id="logo" class="shp8" d="M131.79 245.07C128.85 248.79 122.43 250.7 116.58 252.72C121.41 252.37 126.45 251.54 131.73 249.91C126.93 251.96 118.95 253.57 109.29 254.84C117.98 256.02 126.12 256.44 131.79 254.77C133.33 254.32 133.48 255.47 131.79 256.07C124.91 258.49 115.53 258.73 109.85 257.68C113.8 259.08 118.09 259.91 122.71 260.22C118.09 260.34 113.51 259.84 108.93 258.39C112.7 261.04 117.07 263.57 122.19 265.46C123.43 265.92 124.28 267.08 121.7 266.69C116.82 265.96 111.66 263.68 106.35 259.55C108.55 262.07 111.23 264.27 114.23 266.3C110.97 264.43 108.01 262.15 105.34 259.49C106.74 262.83 108.09 265.53 110.44 268.53C111.38 269.72 111.19 269.96 110 269.1C107.19 267.07 104.53 263.62 102.07 259.19C103.25 262.54 104.77 265.53 106.63 268.18C104.74 265.94 103.06 263.14 101.55 259.9C102.3 263.14 103.22 265.84 104.3 267.91C104.83 268.93 104.38 269.18 103.69 268.37C101.64 265.95 100.21 263.41 99.12 260.73C99.69 262.69 100.4 264.63 101.22 266.57C100.4 264.9 99.63 263.23 98.98 261.55C99.23 262.68 99.56 263.8 99.87 264.94C100.14 265.92 99.86 266.04 99.44 265.04C98.99 263.95 98.68 262.75 98.33 261.44C98.45 262.27 98.6 263.26 98.77 264.09C98.91 264.81 98.51 264.6 98.38 264.06C98.18 263.27 98.01 262.32 97.91 261.42C98.26 263.9 97.7 264.2 97.49 261.9C97.4 262.06 97.3 262.16 97.21 262.22L98.16 267.59L98.13 267.59L98.25 267.75L89.37 275.56C89.37 275.61 89.37 275.66 89.35 275.7C89.33 275.76 89.3 275.78 89.27 275.79L87.27 276C87.23 276.01 87.2 275.99 87.16 275.94C87.13 275.9 87.11 275.86 87.1 275.81L76.78 270.53L76.83 270.37L76.81 270.37L75.93 264.79C75.83 264.76 75.72 264.69 75.6 264.58C76.11 266.68 75.56 266.55 75.11 264.26C75.3 265.09 75.43 265.98 75.5 266.72C75.55 267.23 75.29 267.52 75.19 266.85C75.09 266.07 74.92 265.16 74.78 264.39C74.88 265.64 74.97 266.78 74.92 267.85C74.87 268.83 74.61 268.8 74.54 267.87C74.46 266.79 74.4 265.72 74.28 264.66C74.24 266.3 74.1 267.95 73.92 269.61C74.02 267.72 74.04 265.84 73.93 263.98C73.83 266.6 73.41 269.17 72.48 271.73C72.18 272.58 71.76 272.46 71.88 271.46C72.14 269.43 72.09 266.88 71.77 263.89C71.5 267.06 70.99 269.86 70.17 272.18C70.86 269.52 71.19 266.59 71.16 263.41C70.51 267.82 69.45 271.36 67.92 273.64C67.29 274.59 67.09 274.43 67.45 273.25C68.36 270.25 68.63 267.66 68.76 264.51C67.5 267.39 65.97 269.94 64.18 272.16C65.75 269.87 67.09 267.44 68.03 264.81C65.29 269.47 62.33 272.39 59.31 273.89C57.78 274.65 58.03 273.6 58.7 273.01C61.56 270.52 63.88 267.53 65.84 264.47C63.02 266.75 60.08 268.15 57.11 269.03C59.97 267.81 62.62 266.19 65 264.12C61.37 266.31 55.35 268.16 50.8 267.74C49.72 267.64 49.56 266.77 50.5 266.79C54.15 266.85 59.09 264.72 64.65 261.63C57.87 263.02 52.64 263.65 49.46 263.21C52.83 263.22 56.04 262.68 59.18 261.78C55.02 261.65 50.82 261.73 48.37 259.71C47.98 259.39 47.77 258.74 48.39 259.04C52.31 260.99 56.72 260.43 61.33 259.54C58.55 259.71 55.89 259.21 53.39 257.54C56.93 259.28 60.11 259.15 63.32 258.85C62.11 258.68 60.99 258.37 60 257.9C59.46 257.65 59.4 257.05 59.99 257.29C61.25 257.8 62.42 257.8 63.53 257.52C65.13 257.17 66.76 256.81 68.41 256.45C70.83 255.95 72.55 256.83 73.66 258.87C74.34 260.1 74.96 261.42 75.6 262.72L74.83 257.9L74.85 257.9L74.75 257.76L82.79 249.9C82.79 249.85 82.79 249.81 82.8 249.77C82.82 249.71 82.85 249.68 82.89 249.68L84.81 249.3C84.85 249.29 84.89 249.31 84.92 249.35C84.95 249.39 84.97 249.43 84.98 249.48L95.84 254.09L95.79 254.27L95.81 254.27L96.82 260C97.05 258.47 97.25 256.9 97.54 255.4C98.03 252.9 99.64 251.31 102.64 250.83C104.75 250.52 106.88 250.21 109.04 249.89C110.57 249.7 112.1 249.18 113.56 248.04C114.24 247.5 114.42 248.2 113.8 248.73C112.68 249.69 111.33 250.54 109.84 251.26C114.18 250.17 118.62 248.86 122.97 245.11C120.08 248.28 116.55 250.1 112.72 251.14C119.42 250.08 126.19 248.63 131.43 244.27C132.28 243.56 132.26 244.47 131.79 245.07ZM94.33 255.4L84.48 251.15L84.31 251.63C84.29 251.69 84.26 251.72 84.22 251.72C84.18 251.73 84.15 251.71 84.11 251.67L83.8 251.28L76.39 258.46L78.14 269.36L87.62 274.14L87.79 273.66C87.81 273.61 87.84 273.58 87.88 273.57C87.91 273.57 87.95 273.59 87.99 273.64L88.31 274.06L96.35 266.94L94.33 255.4ZM81.65 269.33C81.55 268.7 81.89 268.14 82.42 268.06L91.42 266.84C91.98 266.77 92.53 267.23 92.64 267.88L92.82 268.88L81.81 270.3L81.65 269.33ZM92.1 264.7C92.21 265.35 91.84 265.93 91.28 266.01L82.28 267.25C81.76 267.33 81.25 266.88 81.15 266.26L81 265.35L79.19 261.73C79.08 261.79 78.97 261.83 78.85 261.85C78.22 261.95 77.62 261.43 77.5 260.68C77.38 259.94 77.79 259.26 78.41 259.15C79.04 259.05 79.64 259.57 79.77 260.32C79.79 260.49 79.79 260.67 79.76 260.83L83.62 262.46L84.7 257.51C84.22 257.4 83.82 256.95 83.72 256.36C83.59 255.61 84.02 254.91 84.66 254.79C85.31 254.67 85.95 255.2 86.07 255.96C86.17 256.49 85.98 257.01 85.62 257.3L88.37 261.8L91.79 258.9C91.7 258.75 91.64 258.58 91.61 258.39C91.47 257.62 91.92 256.9 92.6 256.78C93.28 256.67 93.95 257.21 94.09 257.99C94.22 258.77 93.78 259.49 93.09 259.6C92.95 259.62 92.82 259.62 92.69 259.59L92.01 264.21L92.1 264.7Z" />
</svg>