<svg version="1.2" baseProfile="tiny-ps" xmlns="http://www.w3.org/2000/svg" viewBox="0 0 350 475" width="350" height="475">
	<title>tensign</title>
	<style>
		tspan { white-space:pre }
		.shp0 { fill: #492918 } 
		.shp1 { fill: #c5c5c5 } 
		.shp2 { opacity: 0.369;fill: #ffffff } 
		.shp3 { fill: #121010 } 
		.shp4 { fill: #161616 } 
		.txt5 { font-size: 36px;fill: #000000;font-family: "Arial" } 
	</style>
	<path id="handlel" class="shp0" d="M305.44 97.63C307.95 98.91 309.4 102.95 308.67 106.67L280.28 251.9C279.56 255.61 276.93 257.59 274.42 256.31C271.91 255.04 270.46 250.99 271.18 247.28L299.57 102.04C300.3 98.33 302.92 96.35 305.44 97.63Z" />
	<path id="sign" class="shp1" d="M255.99 99.26L347.69 114.96L337.31 175.55L245.62 159.84L255.99 99.26Z" />
	<path id="lightit" fill-rule="evenodd" class="shp2" d="M272 107C291.14 109.69 321.81 111.31 341 121C340.97 136.03 335.21 156.67 329 168C308.48 167.48 276.05 162.76 260 154C286.8 154.6 321.63 153.24 331 136C332.89 130.84 330.45 129.32 328 126C309.25 120.96 284.85 118.39 272 107Z" />
	<path id="splash" class="shp3" d="M312.5 439C300.07 439 290 437.21 290 435C290 432.79 300.07 431 312.5 431C324.93 431 335 432.79 335 435C335 437.21 324.93 439 312.5 439ZM279.5 434C275.91 434 273 432.43 273 430.5C273 428.57 275.91 427 279.5 427C283.09 427 286 428.57 286 430.5C286 432.43 283.09 434 279.5 434ZM277 439C277 440.66 275.21 442 273 442C270.79 442 269 440.66 269 439C269 437.34 270.79 436 273 436C275.21 436 277 437.34 277 439ZM254 437C251.74 437 249.6 436.74 247.68 436.29C246.12 439.54 238.8 442 230 442C220.06 442 212 438.87 212 435C212 433.03 214.11 431.25 217.49 429.97C216.55 429.26 216 428.41 216 427.5C216 425.01 220.03 423 225 423C229.97 423 234 425.01 234 427.5C234 427.73 233.95 427.96 233.89 428.18C235.73 428.34 237.47 428.6 239.05 428.96C239.61 425.07 246.08 422 254 422C262.28 422 269 425.36 269 429.5C269 433.64 262.28 437 254 437Z" />
	<path id="brush" class="shp1" d="M253.33 433.21C252.21 433.36 251.18 433.14 250.25 432.57C249.34 432.01 248.68 431.24 248.29 430.28C247.9 429.33 247.92 428.44 248.35 427.63C248.75 426.89 249.51 426.18 250.66 425.51C259.16 420.64 264.88 417.9 267.59 417.45C269.59 417.1 271.47 417.41 273.21 418.39C275.03 419.42 276.28 420.89 276.94 422.79C277.6 424.7 277.47 426.45 276.56 428.02C275.65 429.6 274.23 430.52 272.32 430.77L253.33 433.21L253.33 433.21ZM282.58 426.5C283.41 426.85 284.28 427.13 285.18 427.34C286.08 427.55 286.93 427.62 287.71 427.57C288.5 427.51 289.32 427.33 290.17 427.02C291.02 426.71 291.9 426.24 292.79 425.61C293.3 425.25 293.87 425.25 294.51 425.61C294.74 425.74 295.04 426.05 295.39 426.53C295.74 427.02 296.06 427.52 296.35 428.01C296.64 428.51 296.95 429.07 297.29 429.69C297.63 430.31 297.84 430.68 297.91 430.81C298.84 429.29 299.48 427.74 299.83 426.16C300.18 424.58 300.22 423.01 299.95 421.44C299.67 419.88 298.97 418.39 297.82 416.97C296.69 415.55 295.15 414.32 293.22 413.29C289.89 411.51 286.71 410.96 283.68 411.61C280.69 412.25 278.47 413.95 276.99 416.68L276.25 418.04C277.3 419 278.13 420.09 278.74 421.33C279.34 422.57 279.66 423.83 279.68 425.11C280.78 425.69 281.75 426.15 282.58 426.5Z" />
	<path id="brushpaint" class="shp4" d="M296.93 431.19C296.93 431.19 295.59 425.25 294.29 425.36C293.28 425.44 292.58 427.22 291.14 427.12C289.71 427.02 289.67 425.16 290.27 424.43C290.87 423.7 283.62 419.57 284.94 419.47C286.27 419.37 290.52 422.14 291.2 420.41C291.87 418.69 289.89 416.38 289.89 416.38C289.89 416.38 294.92 417.49 295.25 416.87C295.58 416.24 292.6 413.27 292.6 413.27C292.6 413.27 299.73 415.45 300.6 419.59C301.46 423.74 299.77 427.97 298.73 429.86C297.57 431.95 296.93 431.19 296.93 431.19Z" />
	<text id="TEN" style="opacity: 0;transform: matrix(0.982,0.186,-0.186,0.982,294.05,148.545)" >
		<tspan x="-35.1" y="0" class="txt5" dx="0 -1 -1 -1" >TEN
</tspan>
	</text>
	<path id="t" class="shp4" d="M279.9 121.16C280.95 121.71 279.28 124.33 279.02 125.91C278.76 127.48 274.5 123.43 272.66 123.5C270.82 123.57 279.68 132.72 279.9 133.42C280.12 134.13 276.33 136.08 276.17 135.19C276.01 134.29 271.78 128.25 271.78 128.25C271.78 128.25 267.56 142.74 267.62 144.64C267.68 146.54 264.84 145.37 264.11 145.22C263.38 145.07 267.18 128.62 267.18 128.62C267.18 128.62 261.12 131.71 259.72 132.15C258.33 132.58 257.75 130.55 257.75 130.55L268.28 122.69L258.41 120.87L259.07 117.31C263.81 119.4 278.85 120.61 279.9 121.16Z" />
	<path id="e" class="shp4" d="M289.99 140.19C289.99 140.19 291.38 135.25 293.27 134.67C295.17 134.09 299.81 136.47 301.17 141.04C302.53 145.6 296.96 151.21 293.71 150.69C289.56 150.03 282.21 149.85 281.87 141.15C281.46 130.72 292.87 125.27 298.83 128.77C303.75 131.66 306.14 133.74 305.99 139.48C305.97 140.49 304.13 138.65 302.09 135.45C300.39 132.78 297.86 131.32 296.2 131.09C291.9 130.51 286.29 134.43 286.04 137.01C285.61 141.44 285.57 143.24 286.92 144.53C288.59 146.14 291.93 147.48 293.27 146.93C294.62 146.38 295.42 148.93 297 145.17C298.58 141.41 296.36 139.28 294.81 138.63C293.26 137.99 291.65 141.08 291.96 141.79C292.27 142.49 289.99 140.19 289.99 140.19Z" />
	<path id="n" class="shp4" d="M316.74 136.56C314.85 137.87 313.29 140.67 312.35 141.88C311.41 143.09 313.2 148.1 314.33 149.6C315.45 151.1 321.63 151.91 322.88 152.41C324.13 152.9 327.24 149.31 328.36 147.29C329.48 145.27 330.09 140.83 329.9 138.99C329.7 137.15 326.37 135.81 324.85 135.61C323.33 135.4 321.04 134.31 322 132.63C322.96 130.95 329.72 134.18 332.53 137.03C335.34 139.87 329.66 150.97 328.36 153.42C327.07 155.87 317.94 155.39 313.67 153.16C309.39 150.93 309.17 143.89 310.38 140.29C311.58 136.68 318.71 132.02 318.71 132.02C319.64 132.19 318.62 135.24 316.74 136.56ZM319.59 139.54C319.96 140.95 316.73 147.19 316.08 146.25C315.43 145.3 317.4 139.13 317.4 139.13C317.4 139.13 319.21 138.13 319.59 139.54ZM322.88 140.15C323.25 141.56 320.02 147.8 319.37 146.85C318.72 145.91 320.69 139.74 320.69 139.74C320.69 139.74 322.5 138.73 322.88 140.15Z" />
</svg>