<svg version="1.2" baseProfile="tiny-ps" xmlns="http://www.w3.org/2000/svg" viewBox="0 0 350 475" width="350" height="475">
	<title>wl1a</title>
	<style>
		tspan { white-space:pre }
		.shp0 { opacity: 0.141;fill: #000000 } 
		.shp1 { fill: #3c362c } 
		.shp2 { fill: #2a251c } 
		.shp3 { fill: #727573 } 
		.shp4 { fill: #77d197 } 
		.shp5 { fill: #dfdfdf } 
		.shp6 { fill: #9f9f9f } 
		.shp7 { opacity: 0.549;fill: #ffffff } 
		.shp8 { opacity: 0.361;fill: #000000 } 
	</style>
	<path id="shadowdown" class="shp0" d="M255.26 419C274.18 419.05 289.52 420.23 289.51 421.65C289.51 423.06 274.56 427.11 255.64 427.06C236.72 427.02 221 422.9 221 421.48C221 420.07 236.34 418.96 255.26 419Z" />
	<path id="poll" class="shp1" d="M275.39 230.46C275.08 232.37 276.93 232.74 276.88 232.98C258.98 324.26 240.12 420.97 240.12 420.97C239.69 423.17 237.58 424.6 235.41 424.17L232.46 423.58C230.29 423.14 228.88 421 229.32 418.8L297.81 69.86C298.25 67.66 300.35 66.23 302.52 66.66L305.47 67.25C307.64 67.69 309.05 69.83 308.62 72.03C308.62 72.03 298.44 117.4 282.45 198.85C282.39 199.15 277.84 201.9 277.13 204.76C276.91 205.68 276.55 208.11 275.56 208.81C272.95 210.64 271.68 222.38 271.59 224.86" />
	<path id="pollhandle" class="shp2" d="M283.11 178.12C285.52 178.37 284.26 196.17 280.28 217.88C276.3 239.58 271.12 256.97 268.7 256.72C266.29 256.46 267.55 238.67 271.53 216.96C275.51 195.26 280.69 177.87 283.11 178.12Z" />
	<path id="blade" class="shp3" d="M316.32 20.29L347.21 35.89L332.78 151.97L300.84 197.01L306.37 170.12L298.5 162.59L323.18 33.83L316.32 20.29Z" />
	<path id="banda2" class="shp4" d="M289.28 158.23C289.28 158.23 285.49 172.84 291.75 178.67C298.02 184.49 312.14 190.6 317.16 203.48C322.18 216.36 318.53 217.31 318.53 217.31C318.53 217.31 315.26 203.97 308.63 198.54C302 193.12 290.44 185.6 287.34 179.4C284.24 173.19 281.77 157.84 284.5 156.75C287.24 155.66 289.28 158.23 289.28 158.23Z" />
	<path id="cut" class="shp5" d="M316.32 20.29L348.19 36.06L333.77 152.14C333.77 152.14 332.43 154.68 329.75 156.6C326.83 158.7 300.84 197.01 300.84 197.01C300.84 197.01 303.5 183.26 305.4 175.41C305.74 173.99 305.88 182.61 306.78 181.24C308.22 179.04 326.07 159.53 327.73 150.13C335.17 107.79 340.33 53.94 341.56 39.28C341.84 35.91 316.32 20.29 316.32 20.29Z" />
	<path id="h1" class="shp6" d="M297.61 154.79C297.61 154.79 298.06 146.02 294.7 144.11C291.34 142.2 285.25 143.04 283.85 143.28C282.45 143.52 284.63 129.16 285.68 128.85C286.73 128.53 297.32 132.7 298.08 132C298.84 131.3 303.84 123.06 303.84 123.06L310.33 125.71L304.73 154.2L297.61 154.79ZM304.91 92.1C301.55 90.19 295.46 91.03 294.06 91.27C292.66 91.51 294.85 77.14 295.89 76.83C296.94 76.52 307.53 80.69 308.29 79.99C309.05 79.29 314.05 71.05 314.05 71.05L320.54 73.69L314.94 102.18L307.82 102.77C307.82 102.77 308.27 94 304.91 92.1Z" />
	<path id="lights" fill-rule="evenodd" class="shp7" d="M342.19 57C342.84 57.13 343.5 57.26 344.15 57.39C344.39 87.71 335.83 106.11 313.16 111.28C314.79 109.88 316.43 108.48 318.07 107.08C322.9 99.42 328.36 94.68 331.8 83.93C329.11 83.74 326.43 83.54 323.75 83.35C331.58 72.7 334.16 66.82 342.19 57Z" />
	<path id="crown" class="shp8" d="M306.74 137.6L305.35 143.2L305.33 143.2L305.36 143.28L299.95 144.89C299.94 144.91 299.93 144.93 299.92 144.94C299.9 144.96 299.88 144.97 299.86 144.96L298.89 144.72C298.87 144.71 298.86 144.7 298.85 144.67C298.84 144.66 298.84 144.63 298.84 144.61L294.82 140.66L294.87 140.6L294.86 140.6L296.25 135L296.26 135L296.24 134.92L301.65 133.31C301.66 133.29 301.67 133.28 301.68 133.26C301.7 133.24 301.72 133.24 301.74 133.24L302.71 133.48C302.73 133.49 302.74 133.5 302.75 133.53C302.76 133.55 302.76 133.57 302.76 133.59L306.78 137.54L306.72 137.6L306.74 137.6ZM305.88 137.78L302.21 134.17L302.04 134.33C302.02 134.35 302 134.36 301.98 134.35C301.96 134.35 301.95 134.33 301.94 134.31L301.86 134.08L296.93 135.55L295.72 140.43L299.39 144.03L299.56 143.87C299.58 143.85 299.6 143.84 299.62 143.85C299.64 143.85 299.65 143.87 299.66 143.89L299.73 144.12L304.67 142.65L305.88 137.78ZM297.44 141.05C297.51 140.78 297.78 140.61 298.05 140.68L302.49 141.78C302.76 141.84 302.92 142.12 302.85 142.39L302.75 142.82L297.34 141.48L297.44 141.05ZM303.19 141.05C303.12 141.32 302.85 141.49 302.58 141.42L298.14 140.32C297.87 140.25 297.71 139.98 297.78 139.7L297.88 139.3L297.68 137.47C297.62 137.47 297.55 137.47 297.49 137.45C297.17 137.37 296.97 137.04 297.05 136.7C297.13 136.37 297.46 136.17 297.79 136.25C298.12 136.33 298.31 136.66 298.23 137C298.21 137.08 298.18 137.15 298.13 137.21L299.68 138.61L301.11 136.81C300.91 136.67 300.81 136.41 300.87 136.15C300.95 135.82 301.28 135.61 301.61 135.69C301.93 135.77 302.13 136.11 302.05 136.44C301.99 136.68 301.81 136.85 301.59 136.9L302.02 139.23L304.11 138.7C304.1 138.62 304.1 138.54 304.12 138.46C304.21 138.13 304.54 137.92 304.86 138C305.19 138.09 305.39 138.42 305.3 138.75C305.22 139.09 304.89 139.29 304.56 139.21C304.5 139.19 304.44 139.17 304.39 139.13L303.24 140.84L303.19 141.05ZM316.87 85.63L315.48 91.23L315.47 91.23L315.49 91.31L310.08 92.91C310.08 92.93 310.07 92.95 310.05 92.97C310.03 92.98 310.01 92.99 309.99 92.99L309.02 92.75C309 92.74 308.99 92.73 308.98 92.7C308.98 92.68 308.98 92.66 308.98 92.64L304.95 88.69L305.01 88.63L305 88.62L306.39 83.03L306.4 83.03L306.38 82.95L311.79 81.34C311.79 81.32 311.8 81.3 311.82 81.29C311.84 81.27 311.86 81.26 311.87 81.27L312.85 81.51C312.86 81.51 312.88 81.53 312.89 81.55C312.89 81.57 312.89 81.59 312.89 81.62L316.92 85.57L316.86 85.63L316.87 85.63ZM316.02 85.8L312.34 82.2L312.17 82.36C312.15 82.38 312.13 82.38 312.11 82.38C312.1 82.37 312.08 82.36 312.07 82.33L312 82.11L307.06 83.58L305.85 88.45L309.53 92.06L309.7 91.9C309.72 91.88 309.74 91.87 309.76 91.88C309.77 91.88 309.79 91.9 309.8 91.92L309.87 92.14L314.81 90.68L316.02 85.8ZM307.58 89.08C307.65 88.8 307.92 88.64 308.19 88.7L312.63 89.8C312.89 89.87 313.06 90.15 312.99 90.42L312.88 90.85L307.47 89.5L307.58 89.08ZM313.32 89.07C313.25 89.35 312.98 89.52 312.71 89.45L308.28 88.35C308.01 88.28 307.85 88 307.91 87.73L308.01 87.33L307.81 85.49C307.75 85.5 307.69 85.49 307.63 85.48C307.3 85.4 307.1 85.06 307.19 84.73C307.27 84.4 307.6 84.19 307.93 84.27C308.25 84.35 308.45 84.69 308.37 85.02C308.35 85.1 308.31 85.17 308.27 85.24L309.81 86.64L311.25 84.83C311.05 84.69 310.94 84.43 311.01 84.17C311.09 83.84 311.42 83.64 311.74 83.72C312.07 83.8 312.27 84.13 312.18 84.47C312.13 84.7 311.94 84.87 311.72 84.92L312.16 87.25L314.25 86.72C314.24 86.65 314.24 86.57 314.26 86.49C314.34 86.15 314.67 85.95 315 86.03C315.32 86.11 315.52 86.45 315.44 86.78C315.36 87.11 315.02 87.32 314.7 87.24C314.64 87.22 314.58 87.19 314.53 87.16L313.37 88.86L313.32 89.07Z" />
	<path id="nod" class="shp4" d="M281.19 153C281.19 153 290.6 156.6 291.18 155.02C291.77 153.45 289.15 167.02 289.15 167.02C289.15 167.02 278.84 169.42 279.16 164.99C279.47 160.57 280.25 154.86 281.19 153Z" />
	<path id="banda1" class="shp4" d="M290.16 165.02C290.16 167.67 285.58 178.02 286.1 185.01C286.56 191.1 296.47 199.42 302.05 204.05C307.64 208.69 298.45 227.41 299.02 219.04C300.06 203.67 281.45 201.03 281.09 190C280.54 173.17 287.16 163.01 287.16 163.01C287.16 163.01 290.15 162.37 290.16 165.02Z" />
</svg>