<svg version="1.2" baseProfile="tiny-ps" xmlns="http://www.w3.org/2000/svg" viewBox="0 0 350 480" width="350" height="480">
	<title>xbg13.svg</title>
	<defs>
		<linearGradient id="grd1" gradientUnits="userSpaceOnUse"  x1="85.5" y1="156.9" x2="264.5" y2="318.1">
			<stop offset=".4" stop-color="#ffffff" stop-opacity=".2" />
			<stop offset="100%" stop-color="#ffffff" stop-opacity="0" />
		</linearGradient>
	</defs>
	<style>
		tspan { white-space:pre }
		.s0 { fill: #682710 } 
		.s1 { fill: #d0bb7a } 
		.s2 { fill: url(#grd1) } 
		.s3 { opacity: .5;fill: rgba(0,0,0,0.00);stroke: #67270f;stroke-width: 1 } 
#hors{opacity:0;}
	</style>
	<path id="main" class="s0" d="m23 16h304c3.87 0 7 3.13 7 7v431c0 3.87-3.13 7-7 7h-304c-3.87 0-7-3.13-7-7v-431c0-3.87 3.13-7 7-7z" />
	<path id="ingalben" class="s1" d="m332 352v97c0 3.87-3.13 7-7 7h-300c-3.87 0-7-3.13-7-7v-97c0-3.53 2.61-6.43 6-6.92v-217.16c-3.39-0.49-6-3.39-6-6.92v-97c0-3.87 3.13-7 7-7h300c3.87 0 7 3.13 7 7v97c0 3.87-3.13 7-7 7v217c3.87 0 7 3.13 7 7z" />
	<path id="stars" class="s0" d="m323.1 383.18l1.09 5.99c0.01 0.06 0.01 0.14 0.01 0.24c0 0.17-0.04 0.31-0.13 0.43c-0.09 0.12-0.22 0.17-0.39 0.17c-0.16 0-0.33-0.05-0.51-0.14l-5.67-2.83l-5.67 2.83c-0.19 0.1-0.35 0.14-0.51 0.14c-0.18 0-0.31-0.06-0.4-0.17c-0.09-0.12-0.13-0.26-0.13-0.43c0-0.05 0.01-0.13 0.03-0.24l1.09-5.99l-4.6-4.24c-0.21-0.22-0.32-0.41-0.32-0.57c0-0.3 0.24-0.48 0.71-0.55l6.34-0.87l2.84-5.45c0.16-0.33 0.37-0.49 0.62-0.49c0.25 0 0.46 0.16 0.62 0.49l2.84 5.45l6.34 0.87c0.47 0.07 0.71 0.26 0.71 0.55c0 0.18-0.11 0.37-0.33 0.57l-4.58 4.24zm-284 43l1.09 5.99c0.01 0.06 0.01 0.14 0.01 0.24c0 0.17-0.04 0.31-0.13 0.43c-0.09 0.12-0.22 0.17-0.39 0.17c-0.16 0-0.33-0.05-0.51-0.14l-5.67-2.83l-5.67 2.83c-0.19 0.1-0.35 0.14-0.51 0.14c-0.18 0-0.31-0.06-0.4-0.17c-0.09-0.12-0.13-0.26-0.13-0.43c0-0.05 0.01-0.13 0.03-0.24l1.09-5.99l-4.6-4.24c-0.21-0.22-0.32-0.41-0.32-0.57c0-0.3 0.24-0.48 0.71-0.55l6.34-0.87l2.84-5.45c0.16-0.33 0.37-0.49 0.62-0.49c0.25 0 0.46 0.16 0.62 0.49l2.84 5.45l6.34 0.87c0.47 0.07 0.71 0.26 0.71 0.55c0 0.18-0.11 0.37-0.33 0.57l-4.58 4.24zm0-43l1.09 5.99c0.01 0.06 0.01 0.14 0.01 0.24c0 0.17-0.04 0.31-0.13 0.43c-0.09 0.12-0.22 0.17-0.39 0.17c-0.16 0-0.33-0.05-0.51-0.14l-5.67-2.83l-5.67 2.83c-0.19 0.1-0.35 0.14-0.51 0.14c-0.18 0-0.31-0.06-0.4-0.17c-0.09-0.12-0.13-0.26-0.13-0.43c0-0.05 0.01-0.13 0.03-0.24l1.09-5.99l-4.6-4.24c-0.21-0.22-0.32-0.41-0.32-0.57c0-0.3 0.24-0.48 0.71-0.55l6.34-0.87l2.84-5.45c0.16-0.33 0.37-0.49 0.62-0.49c0.25 0 0.46 0.16 0.62 0.49l2.84 5.45l6.34 0.87c0.47 0.07 0.71 0.26 0.71 0.55c0 0.18-0.11 0.37-0.33 0.57l-4.58 4.24zm274.95 36.76l2.84-5.45c0.16-0.33 0.37-0.49 0.62-0.49c0.25 0 0.46 0.16 0.62 0.49l2.84 5.45l6.34 0.87c0.47 0.07 0.71 0.26 0.71 0.55c0 0.18-0.11 0.37-0.33 0.57l-4.58 4.24l1.09 5.99c0.01 0.06 0.01 0.14 0.01 0.24c0 0.17-0.04 0.31-0.13 0.43c-0.09 0.12-0.22 0.17-0.39 0.17c-0.16 0-0.33-0.05-0.51-0.14l-5.67-2.83l-5.67 2.83c-0.19 0.1-0.35 0.14-0.51 0.14c-0.18 0-0.31-0.06-0.4-0.17c-0.09-0.12-0.13-0.26-0.13-0.43c0-0.05 0.01-0.13 0.03-0.24l1.09-5.99l-4.6-4.24c-0.21-0.22-0.32-0.41-0.32-0.57c0-0.3 0.24-0.48 0.71-0.55l6.34-0.87z" />
	<path id="shine" class="s2" d="m332 24l-0.04 427c0 0-3.23 4.98-4.96 5c-1.74 0.02-305-0.77-305-0.77c0 0-3.89-0.92-4-3.23c-0.11-2.3 311-433 311-433c0 0 3.04 2.1 3 5z" />
	<path id="x" class="s3" d="m71.21 440.72c0 1.38-0.87 2.94-2.6 4.67v0v0c-1.74 1.73-3.63 2.6-5.71 2.6c-2.77 0-5.19-1.04-7.27-3.11c-0.7-1.04-1.39-2-2.08-2.86c-0.7-0.87-1.04-1.82-1.04-2.86c-1.74-0.35-3.29-1.22-4.67-2.6c-0.35-0.35-0.7-0.52-1.04-0.52c-2.08-2.08-3.11-4.5-3.11-7.27c0-2.08 1.04-4.15 3.11-6.23c0.69-0.7 1.3-1.22 1.82-1.56c0.52-0.35 1.12-0.7 1.82-1.04c0.34-1.04 0.69-2.17 1.04-3.37c0.34-1.22 1.21-2.34 2.6-3.37c1.73-1.74 3.97-2.94 6.75-3.63c-2.08-2.08-4.15-3.29-6.23-3.63c-0.35-0.35-1.04-0.52-2.08-0.52c0 2.77-0.87 5.01-2.6 6.75c-1.74 1.38-3.29 1.38-4.67 0c-1.39-1.74-1.04-3.37 1.04-4.93c2.08-1.56 3.97-2.34 5.71-2.34v-3.11v-2.6c-3.11-3.11-5.19-6.58-6.23-10.38c-1.39-3.81-1.91-7.45-1.56-10.9c0.34-3.46 1.56-6.58 3.63-9.34c0-0.35-0.26-0.7-0.78-1.04c-0.52-0.35-0.78-0.7-0.78-1.04c-2.43-3.11-3.11-7.27-2.08-12.46c0.34-0.35 0.69-0.96 1.04-1.82c0.34-0.87 1.04-1.82 2.08-2.86c0-0.35 0.34-0.52 1.04-0.52c0.34 0 0.52-0.18 0.52-0.52c-1.04-1.74-2.08-3.63-3.11-5.71c-1.04-2.08-1.56-3.98-1.56-5.71v-194.67c0-1.74 0.52-3.63 1.56-5.71c1.04-2.08 2.08-3.81 3.11-5.19c0-0.7-0.18-1.04-0.52-1.04c-0.35 0-0.7-0.18-1.04-0.52c-0.7-0.7-1.22-1.48-1.56-2.34c-0.35-0.87-0.87-1.82-1.56-2.86c-0.35-0.7-0.52-1.91-0.52-3.63c0-3.81 1.38-6.75 4.15-8.83c-2.43-3.46-3.63-7.79-3.63-12.98c0-2.77 0.52-5.71 1.56-8.83c1.04-3.46 3.11-6.75 6.23-9.86v-5.19c-2.08-0.35-3.98-1.39-5.71-3.11c-0.7-0.35-1.22-1.13-1.56-2.34c-0.35-1.22-0.18-2.17 0.52-2.86c0.69-0.7 1.47-0.78 2.34-0.26c0.86 0.52 1.64 0.95 2.34 1.3c1.38 1.38 2.08 2.94 2.08 4.67c0.34 0 0.69-0.09 1.04-0.26c0.34-0.18 0.69-0.26 1.04-0.26h1.04c0.69-0.35 1.47-0.7 2.34-1.04c0.86-0.35 1.99-0.87 3.37-1.56c-3.46-1.39-5.71-2.43-6.75-3.11c-2.08-2.08-3.29-4.33-3.63-6.75c-1.04-0.7-2.25-1.74-3.63-3.11c-2.08-2.77-3.11-4.85-3.11-6.23c0-2.43 1.04-4.67 3.11-6.75c1.38-1.74 3.29-2.6 5.71-2.6c0-2.77 1.04-4.85 3.11-6.23c2.08-2.08 4.93-2.94 8.57-2.6c3.63 0.34 5.97 2.6 7.01 6.75c2.77 0 5.01 1.21 6.75 3.63c1.04 1.04 2.25 2.94 3.63 5.71c0.69-1.04 1.38-2.17 2.08-3.37c0.69-1.22 1.21-2.68 1.56-4.41c-1.39 0-3.29-0.87-5.71-2.6c0-0.35-0.26-1.04-0.78-2.08c-0.52-1.04-0.44-1.91 0.26-2.6c0.69-0.7 1.64-0.78 2.86-0.26c1.21 0.52 2.16 1.47 2.86 2.86c1.04 1.38 1.56 2.77 1.56 4.15c1.04 0 1.9 0.17 2.6 0.52h3.11c1.73-1.74 3.37-3.11 4.93-4.15c1.56-1.04 3.2-1.91 4.93-2.6c8.65-2.77 15.74-1.91 21.28 2.6c3.46-3.81 7.79-5.19 12.98-4.15c2.08 0.69 3.71 1.64 4.93 2.86c1.21 1.21 1.82 1.99 1.82 2.34c1.38-1.39 2.94-2.6 4.67-3.63c1.73-1.04 3.8-1.56 6.23-1.56h42.57c1.73 0 3.63 0.52 5.71 1.56c2.08 1.04 3.8 2.25 5.19 3.63c0-1.04 0.52-1.56 1.56-1.56c0.69-1.39 1.82-2.34 3.37-2.86c1.56-0.52 3.2-0.78 4.93-0.78c3.8 0 6.75 1.21 8.83 3.63l1.04 0.52c5.53-4.5 12.63-5.37 21.28-2.6c1.73 0.69 3.37 1.56 4.93 2.6c1.56 1.04 3.2 2.42 4.93 4.15c0.34 0 1.21-0.18 2.6-0.52c1.38-0.35 2.42-0.52 3.11-0.52c0-2.08 1.04-3.81 3.11-5.19c0-0.35 0.52-0.78 1.56-1.3c1.04-0.52 1.9-0.44 2.6 0.26c0.69 1.04 0.86 2.08 0.52 3.11c-0.35 1.04-0.7 1.9-1.04 2.6c-1.39 1.38-3.29 2.08-5.71 2.08c0 1.04 0.17 1.56 0.52 1.56c0 2.08 1.04 4.15 3.11 6.23c1.04-2.77 2.25-4.85 3.63-6.23c1.73-2.43 3.97-3.63 6.75-3.63c0.69-1.39 1.73-2.77 3.11-4.15c1.73-1.74 3.63-2.6 5.71-2.6c5.88 0 9.17 2.94 9.86 8.83c2.42 0 4.32 0.86 5.71 2.6c2.08 1.38 3.11 3.8 3.11 7.27c0 2.42-1.04 4.67-3.11 6.75c-1.04 1.38-2.43 2.08-4.15 2.08c0 3.11-1.22 5.53-3.63 7.27c-1.04 1.38-2.6 2.42-4.67 3.11c0.69 0.69 1.47 1.12 2.34 1.3c0.86 0.17 1.64 0.43 2.34 0.78c0.34 0 0.69 0.08 1.04 0.26c0.34 0.17 0.86 0.26 1.56 0.26c0-1.74 0.69-3.29 2.08-4.67c0.69-0.35 1.47-0.78 2.34-1.3c0.86-0.52 1.64-0.44 2.34 0.26c0.69 0.69 0.86 1.64 0.52 2.86c-0.35 1.21-0.7 2.16-1.04 2.86c-1.74 1.73-3.81 2.6-6.23 2.6v5.19c3.11 2.77 5.19 5.88 6.23 9.34c1.04 3.46 1.56 6.57 1.56 9.34c0 5.19-1.22 9.51-3.63 12.98c2.77 2.42 4.15 5.53 4.15 9.34c0 2.77-0.52 4.93-1.56 6.49c-1.04 1.56-1.91 2.68-2.6 3.37c1.38 1.73 2.34 3.71 2.86 5.97c0.52 2.25 0.78 4.06 0.78 5.45v194.15c0 1.38-0.35 3.11-1.04 5.19c-0.7 2.08-1.91 4.15-3.63 6.23c3.46 2.42 5.19 5.88 5.19 10.38c0 2.77-0.52 4.84-1.56 6.23c-1.04 1.38-1.91 2.42-2.6 3.11c0.69 0.69 1.38 2.08 2.08 4.15c1.04 2.42 1.73 5.1 2.08 8.05c0.34 2.94-0.18 6.31-1.56 10.12c-1.39 4.49-3.63 7.79-6.75 9.86v4.67c3.11 0 5.36 1.38 6.75 4.15c0.69 1.73 0.69 2.94 0 3.63c-1.39 1.38-2.94 1.21-4.67-0.52c-1.39-1.04-2.08-3.29-2.08-6.75c-1.39 0-2.25 0.17-2.6 0.52c-2.08 0.34-4.15 1.56-6.23 3.63c4.15 1.73 6.75 3.11 7.79 4.15c0.69 1.38 1.21 2.6 1.56 3.63c0.34 1.04 0.69 1.9 1.04 2.6c1.73 1.04 2.94 1.9 3.63 2.6c1.73 1.73 2.6 3.11 2.6 4.15c0.34 0.69 0.52 1.56 0.52 2.6c0 3.46-1.04 5.88-3.11 7.27c-1.39 1.38-3.11 2.42-5.19 3.11c-0.35 0.69-0.78 1.64-1.3 2.86c-0.52 1.21-1.3 2.16-2.34 2.86c-1.39 1.38-3.11 2.08-5.19 2.08c-2.43 0-4.85-0.87-7.27-2.6c-1.74-2.08-2.77-3.29-3.11-3.63c-1.04-0.35-2.25-0.87-3.63-1.56c-1.39-0.7-2.43-1.74-3.11-3.11c-1.39-1.39-2.6-3.46-3.63-6.23c-2.08 2.08-3.11 3.97-3.11 5.71c-0.35 0.69-0.52 1.56-0.52 2.6c0.69 0.34 1.64 0.69 2.86 1.04c1.21 0.34 2.16 0.86 2.86 1.56c1.73 1.73 1.9 3.46 0.52 5.19c-0.7 0.69-1.56 0.86-2.6 0.52c-1.04-0.35-1.56-0.7-1.56-1.04c-1.74-1.04-2.68-2.17-2.86-3.37c-0.18-1.22-0.26-2.34-0.26-3.37h-5.19c-2.77 3.11-6.23 5.53-10.38 7.27c-4.5 1.73-8.48 1.99-11.94 0.78c-3.46-1.22-6.41-2.68-8.83-4.41c-0.35 0.69-0.87 1.38-1.56 2.08c-2.77 2.08-5.37 3.11-7.79 3.11c-3.11 0-5.37-0.52-6.75-1.56c-1.39-1.04-2.77-2.25-4.15-3.63c-1.39 1.04-2.94 1.99-4.67 2.86c-1.74 0.86-3.81 1.3-6.23 1.3h-42.57c-1.74 0-3.46-0.44-5.19-1.3c-1.74-0.87-3.46-1.82-5.19-2.86l-2.08 2.08c-2.08 2.08-4.33 3.11-6.75 3.11c-3.46 0-6.93-1.39-10.38-4.15v-1.04c-4.85 4.15-11.6 5.19-20.25 3.11c-0.35 0-0.61-0.09-0.78-0.26c-0.18-0.18-0.61-0.26-1.3-0.26c-3.46-1.04-6.23-2.94-8.31-5.71h-7.27c0 2.77-0.7 4.84-2.08 6.23c-0.7 0.69-1.56 1.04-2.6 1.04c-1.04 0-1.74-0.18-2.08-0.52c-2.08-1.39-2.08-3.11 0-5.19c1.04-1.39 2.94-2.43 5.71-3.11c0-2.77-1.04-5.19-3.11-7.27c-0.7 2.42-1.91 4.67-3.63 6.75c-1.39 2.77-3.81 3.8-7.27 3.11v0zm199.86 2.08c0.34 0.34 0.17 0.86-0.52 1.56c0 0.69-0.44 1.04-1.3 1.04c-0.87 0-1.65-0.35-2.34-1.04c-1.39-1.39-2.08-3.11-2.08-5.19c2.08 0.69 3.8 1.38 5.19 2.08c0.34 0.69 0.69 1.21 1.04 1.56zm-1.04-409.33c1.04 0.17 1.38 0.6 1.04 1.3c-0.35 1.04-1.22 1.99-2.6 2.86c-1.39 0.86-2.6 1.47-3.63 1.82c0-2.08 0.69-3.63 2.08-4.67c1.04-1.04 2.08-1.48 3.11-1.3zm-191.04 2.6c-0.35-0.87-0.18-1.65 0.52-2.34c0.69-0.7 1.47-0.7 2.34 0c0.86 0.69 1.64 1.38 2.34 2.08c0.69 0.69 1.04 1.47 1.04 2.34c0 0.86 0 1.47 0 1.82c-2.43-0.7-4.15-1.56-5.19-2.6c-0.35 0-0.7-0.44-1.04-1.3zm-13.5 397.91c0.69-0.7 1.21-1.04 1.56-1.04c0.69 0 1.38 0.52 2.08 1.56c1.73 0.69 2.25 2.42 1.56 5.19c-1.74 0-3.29-0.7-4.67-2.08c-1.74-1.74-1.91-2.94-0.52-3.63v0zm17.91-7.79c0.17-1.39 0.43-2.77 0.78-4.15l2.08 1.04c0 2.08 0.17 4.15 0.52 6.23c0.34 2.08 1.38 4.15 3.11 6.23c0 0.69 0.34 1.38 1.04 2.08c-2.43 0-3.98 0.17-4.67 0.52c0-2.08-1.22-4.67-3.63-7.79v0c0.34-1.39 0.6-2.77 0.78-4.15zm-4.41-21.28v1.56c-0.7 0-2.17 0.08-4.41 0.26c-2.25 0.17-3.89 0.43-4.93 0.78c0-0.35-0.09-0.61-0.26-0.78c-0.18-0.18-0.26-0.61-0.26-1.3c2.08 0 3.8-0.7 5.19-2.08c1.04 1.04 2.08 1.56 3.11 1.56h1.56zm9.34 14.02c0.34 0.69 1.38 1.04 3.11 1.04c0.69 0 1.38-0.35 2.08-1.04c1.04-1.74 0.34-3.46-2.08-5.19c0.34-0.7 0.69-1.13 1.04-1.3c0.34-0.18 0.69-0.44 1.04-0.78c1.73-0.7 3.54-0.96 5.45-0.78c1.9 0.17 3.37 1.12 4.41 2.86c-2.77 1.73-4.67 5.01-5.71 9.86c-1.39 0.34-3.03 0.52-4.93 0.52c-1.91 0-3.89-0.52-5.97-1.56c0-1.39 0.52-2.6 1.56-3.63v0zm3.63-1.56c-0.7 0.34-1.74 0.17-3.11-0.52c0.69-0.7 1.04-1.22 1.04-1.56c0-0.35 0.34-0.87 1.04-1.56c1.73 1.38 2.08 2.6 1.04 3.63v0zm-3.63-1.04c-1.04-0.7-1.56-2.08-1.56-4.15c1.73 0 3.11 0.52 4.15 1.56l-1.56 1.56v0l-1.04 1.04zm18.95 9.34c1.21 1.04 2.16 1.73 2.86 2.08c-0.7 0.69-1.13 1.21-1.3 1.56c-0.18 0.34-0.61 0.86-1.3 1.56c-0.7 0.69-1.39 1.21-2.08 1.56c-0.7 0.34-1.39 0.86-2.08 1.56c-0.7-0.35-1.39-0.87-2.08-1.56c-2.08-2.08-3.11-4.33-3.11-6.75l3.11-1.56c1.38-0.7 2.25-1.82 2.6-3.37c0.34-1.56 0.52-2.68 0.52-3.37c0-1.74-0.18-2.94-0.52-3.63c1.38-1.39 3.11-2.6 5.19-3.63c1.04 1.38 1.9 3.46 2.6 6.23c0.34 1.38 0.52 2.6 0.52 3.63c-0.7-0.7-1.65-0.87-2.86-0.52c-1.22 0.34-2.17 1.04-2.86 2.08c-0.7 1.73-0.44 3.11 0.78 4.15zm3.37 1.56c-1.04-0.35-2.08-0.96-3.11-1.82c-1.04-0.87-1.22-2-0.52-3.37c0.69-1.39 1.56-2.08 2.6-2.08c1.04 0 1.9 0.17 2.6 0.52c0 2.42-0.52 4.67-1.56 6.75v0zm-8.31-12.98l1.04-0.52c0.34 0.69 0.52 1.73 0.52 3.11c0 1.73-0.87 3.11-2.6 4.15c-1.04 1.04-2.08 1.73-3.11 2.08v0c0.34-2.43 1.73-5.37 4.15-8.83v0zm-1.56 18.69c0.69 0.34 1.04 0.6 1.04 0.78c0 0.17 0.17 0.43 0.52 0.78c-2.43 1.38-4.24 2.16-5.45 2.34c-1.22 0.17-3.03 0.43-5.45 0.78c-3.46-5.54-5.02-10.21-4.67-14.02c1.73 0.69 3.46 1.3 5.19 1.82c1.73 0.52 3.63 0.6 5.71 0.26c0 2.77 1.04 5.19 3.11 7.27v0zm5.19 2.08c0.69-0.35 1.04-0.61 1.04-0.78c0-0.18 0.34-0.44 1.04-0.78c1.38-1.39 2.6-3.11 3.63-5.19c1.04 0 2.08-0.09 3.11-0.26c1.04-0.18 1.9-0.26 2.6-0.26c0.34 2.42-0.52 4.32-2.6 5.71c-2.08 1.38-4.33 1.9-6.75 1.56h-2.08zm7.27-14.02c2.77 1.73 4.15 3.63 4.15 5.71c-1.04 0.69-2.77 1.04-5.19 1.04c0.69-2.77 1.04-5.02 1.04-6.75v0zm-3.11-10.9h3.63c4.15 0 7.61 1.38 10.38 4.15c3.46 3.46 5.88 6.57 7.27 9.34c-2.08 0-4.5 0.34-7.27 1.04l-6.23 2.08c-0.7-2.43-2.25-4.5-4.67-6.23c0-3.81-1.04-7.27-3.11-10.38v0zm-6.75 3.11c-1.04-1.74-2.51-2.77-4.41-3.11c-1.91-0.35-3.72 0-5.45 1.04c-0.35 0.34-0.78 0.6-1.3 0.78c-0.52 0.17-0.96 0.6-1.3 1.3c-1.04-1.04-2.43-1.56-4.15-1.56c0.69-1.74 1.73-3.11 3.11-4.15c2.08-1.74 4.06-2.77 5.97-3.11c1.9-0.35 3.71-0.26 5.45 0.26c1.73 0.52 3.29 1.3 4.67 2.34c1.38 1.04 2.42 2.08 3.11 3.11c-1.74 0.34-3.63 1.38-5.71 3.11v0zm-18.69-5.19c0 1.04-0.18 2.25-0.52 3.63c-0.7 0-1.56 0.08-2.6 0.26c-1.04 0.17-1.91 0.26-2.6 0.26c0-0.35 0.08-1.22 0.26-2.6c0.17-1.39 0.26-2.25 0.26-2.6c1.38-0.35 2.51-0.52 3.37-0.52c0.86 0 1.64-0.35 2.34-1.04c-0.35 0.69-0.52 1.56-0.52 2.6zm-6.23 2.08c-0.35 1.38-0.52 2.25-0.52 2.6c-1.39 0.69-2.43 1.04-3.11 1.04c-2.43-2.43-3.81-4.33-4.15-5.71c0.69-0.35 2.08-0.61 4.15-0.78c2.08-0.18 3.46-0.26 4.15-0.26c0 0.69-0.18 1.73-0.52 3.11zm-2.08 5.19l-1.04-1.04c0.69-0.35 1.12-0.52 1.3-0.52c0.17 0 0.6-0.18 1.3-0.52c-0.7 1.38-1.22 2.08-1.56 2.08v0zm-1.3 2.34c-0.52 0.52-0.96 0.95-1.3 1.3c-1.04 1.04-1.91 1.56-2.6 1.56c-2.08 0-2.25-0.87-0.52-2.6c0.34-0.35 0.86-0.87 1.56-1.56c0.69-0.7 1.56-1.39 2.6-2.08c0.34 0.69 0.6 1.04 0.78 1.04c0.17 0 0.43 0.17 0.78 0.52c-0.35 0.69-0.78 1.3-1.3 1.82zm6.49-5.45c1.04 0 1.9 0 2.6 0c0 0.69-0.09 1.21-0.26 1.56c-0.18 0.34-0.26 0.86-0.26 1.56c-0.35 1.04-0.52 2.77-0.52 5.19c-0.7-0.7-1.56-1.3-2.6-1.82c-1.04-0.52-1.91-1.13-2.6-1.82c0.34-0.7 0.52-1.3 0.52-1.82c0-0.52 0.17-1.13 0.52-1.82c0.69-0.7 1.56-1.04 2.6-1.04zm4.67 0c0 2.42 0.52 4.49 1.56 6.23c-1.04 1.38-1.56 2.77-1.56 4.15c-0.35-0.35-0.7-0.52-1.04-0.52c-0.35 0-0.7-0.35-1.04-1.04c0-0.7 0.08-2.17 0.26-4.41c0.17-2.25 0.26-3.72 0.26-4.41h1.56zm-6.23 33.74c-1.04-0.35-1.48-1.04-1.3-2.08c0.17-1.04 0.6-1.91 1.3-2.6c1.04-1.04 2.77-1.56 5.19-1.56c0 2.08-0.35 3.46-1.04 4.15c-1.39 1.38-2.77 2.08-4.15 2.08v0zm47.24-0.52c-1.04-0.7-2.08-1.56-3.11-2.6c3.8-3.46 5.01-6.93 3.63-10.38c-0.35-1.74-1.39-2.6-3.11-2.6c-1.74-0.7-2.94 0.17-3.63 2.6c-1.74 2.42-1.22 5.53 1.56 9.34c-2.08 1.73-4.76 3.03-8.05 3.89c-3.29 0.86-6.84 0.78-10.64-0.26c-3.11-1.04-6.41-2.94-9.86-5.71c2.77 0 6.57-1.22 11.42-3.63c0.69 0 1.47 0.17 2.34 0.52c0.86 0.34 1.64 0.52 2.34 0.52c2.77-0.35 4.93-1.56 6.49-3.63c1.56-2.08 1.99-4.15 1.3-6.23c0.69-0.35 1.38-0.61 2.08-0.78c0.69-0.18 1.38-0.44 2.08-0.78l2.08-0.52c1.73-0.7 4.32-1.04 7.79-1.04c0.69 0.69 1.12 1.47 1.3 2.34c0.17 0.86 0.6 1.82 1.3 2.86c0.69 1.38 1.38 2.77 2.08 4.15c0.69 1.04 1.38 2.25 2.08 3.63c0.69 1.38 1.73 2.77 3.11 4.15c-0.35 0-0.52 0.34-0.52 1.04c-2.77 2.77-5.89 4.15-9.34 4.15c-2.08 0-3.63-0.35-4.67-1.04zm-6.23-12.46c0.34-1.74 1.56-2.6 3.63-2.6c1.73 0 2.6 0.69 2.6 2.08c0.34 1.38 0.08 2.94-0.78 4.67c-0.87 1.73-2 3.11-3.37 4.15c-2.08-3.11-2.77-5.89-2.08-8.31v0zm20.25-5.71c4.15 4.15 4.49 8.65 1.04 13.5c-1.04-1.04-2-2.17-2.86-3.37c-0.87-1.22-1.65-2.51-2.34-3.89c-1.04-1.39-1.91-2.94-2.6-4.67c-0.35-1.04-0.7-1.91-1.04-2.6c-0.35-0.7-0.7-1.39-1.04-2.08c4.15 0 7.09 1.04 8.83 3.11v0zm106.42 16.61c-7.97 2.77-14.71 2.42-20.25-1.04c2.77-3.46 3.46-6.93 2.08-10.38c-0.7-1.74-1.91-2.68-3.63-2.86c-1.74-0.18-2.94 0.78-3.63 2.86c-0.7 2.08-0.52 3.97 0.52 5.71c1.04 1.73 2.08 2.94 3.11 3.63c-0.7 0.69-1.91 1.64-3.63 2.86c-1.74 1.21-3.81 1.82-6.23 1.82c-2.77 0-4.67-0.61-5.71-1.82c-1.04-1.22-1.91-2-2.6-2.34c2.08-1.39 3.63-2.86 4.67-4.41c1.04-1.56 2.08-3.2 3.11-4.93c0.34-1.04 0.69-2 1.04-2.86c0.34-0.87 0.52-1.65 0.52-2.34c1.04-1.74 1.56-2.94 1.56-3.63c3.46 0 5.88 0.34 7.27 1.04c0.69 0.34 1.9 0.86 3.63 1.56c1.73 0.69 2.77 1.04 3.11 1.04c0 2.77 0.69 4.84 2.08 6.23c3.8 3.11 7.79 3.8 11.94 2.08c1.73 0.69 3.54 1.3 5.45 1.82c1.9 0.52 3.37 0.78 4.41 0.78c-2.43 2.42-5.37 4.15-8.83 5.19v0zm-24.4-6.23c-1.04-1.74-1.22-3.46-0.52-5.19c0.69-1.74 1.73-2.6 3.11-2.6c1.38 0 2.42 0.86 3.11 2.6c0 1.04-0.09 2.34-0.26 3.89c-0.18 1.56-1.13 3.2-2.86 4.93c-0.7-0.7-1.56-1.91-2.6-3.63zm55.55-33.74c0.34 0 0.69 0.17 1.04 0.52c0.34 0 0.69 0.17 1.04 0.52c0 0.69-0.52 1.56-1.56 2.6c-1.04-0.35-2.51-0.61-4.41-0.78c-1.91-0.18-3.2-0.26-3.89-0.26v-1.04c2.42 0.34 4.49-0.35 6.23-2.08c0.69 0.34 1.21 0.52 1.56 0.52zm1.56-20.76c-1.04-0.35-1.48-1.04-1.3-2.08c0.17-1.04 0.43-1.91 0.78-2.6c1.04 0.34 2.08 0.52 3.11 0.52c1.04 0 2.08 0.34 3.11 1.04c-1.04 3.46-2.94 4.49-5.71 3.11v0zm5.71-8.83c0.69 1.73 0.69 3.46 0 5.19c-2.08-1.04-3.98-1.56-5.71-1.56c1.38-2.43 3.29-3.63 5.71-3.63v0zm0.52 0c2.08-0.7 4.15-0.18 6.23 1.56c0.69 1.38 1.12 2.94 1.3 4.67c0.17 1.73-0.09 3.46-0.78 5.19c-0.7-1.39-1.39-2.25-2.08-2.6c-0.7-0.7-1.3-1.3-1.82-1.82c-0.52-0.52-1.13-1.13-1.82-1.82c0-1.39-0.35-3.11-1.04-5.19v0zm-17.13 6.75c-1.04-5.89 0.34-10.73 4.15-14.54c3.11-3.11 6.05-5.19 8.83-6.23c0 1.73 0.43 4.06 1.3 7.01c0.86 2.94 1.64 4.93 2.34 5.97c-1.04 0.69-2.25 1.21-3.63 1.56c-1.39 0.34-2.43 1.38-3.11 3.11c-3.46 0-6.75 1.04-9.86 3.11v0zm11.42 4.15c1.73 1.38 3.46 0.69 5.19-2.08c0.69-0.7 1.04-1.56 1.04-2.6c0.69 0.34 1.38 0.78 2.08 1.3c0.69 0.52 1.38 0.95 2.08 1.3c0.34 0.69 0.69 1.21 1.04 1.56c0.34 0.34 0.69 0.86 1.04 1.56c-0.35 1.04-1.04 1.73-2.08 2.08c-1.74 2.42-4.5 3.63-8.31 3.63c-0.35-0.35-0.52-0.7-0.52-1.04c0-0.35-0.18-0.7-0.52-1.04c-2.77-4.15-5.89-5.02-9.34-2.6c-0.7-0.7-1.22-1.56-1.56-2.6c-0.35-1.04-0.87-2.08-1.56-3.11c1.38-1.04 2.94-1.91 4.67-2.6c1.73-0.7 3.29-0.87 4.67-0.52c-0.7 3.46 0 5.71 2.08 6.75v0zm-4.41 5.19c-1.22-0.7-2.51-1.56-3.89-2.6c3.46-1.74 6.4-1.04 8.83 2.08c0.69 0.69 1.04 1.38 1.04 2.08c-2.77-0.35-4.76-0.87-5.97-1.56zm-7.27 2.08c-0.18 2.08 0.26 3.97 1.3 5.71c0.34 0.34 0.6 0.69 0.78 1.04c0.17 0.34 0.43 0.69 0.78 1.04c-0.35 0.34-0.87 1.21-1.56 2.6c-0.7-0.35-1.3-0.7-1.82-1.04c-0.52-0.35-1.13-0.87-1.82-1.56c-2.77-3.46-3.63-7.1-2.6-10.9c1.04-3.46 2.6-5.89 4.67-7.27c0.34 1.38 1.38 3.29 3.11 5.71c-1.74 1.04-2.68 2.6-2.86 4.67zm5.71 5.97c0.86-0.52 1.64-0.44 2.34 0.26c0.69 1.38 0.17 2.42-1.56 3.11c-0.35 0-0.78-0.18-1.3-0.52c-0.52-0.35-1.13-0.7-1.82-1.04c0.69-0.7 1.47-1.3 2.34-1.82zm0.26 3.37c-1.04 0.69-2.25 1.04-3.63 1.04c0.34-0.7 0.52-1.13 0.52-1.3c0-0.18 0.17-0.61 0.52-1.3c1.04 1.04 1.9 1.56 2.6 1.56v0zm-3.11-2.08c0-0.7-0.35-1.39-1.04-2.08c-1.04-1.39-1.48-3.11-1.3-5.19c0.17-2.08 0.95-3.63 2.34-4.67c3.8 4.49 7.44 6.92 10.9 7.27c0.69 1.38 0.78 2.94 0.26 4.67c-0.52 1.73-1.13 3.11-1.82 4.15h-1.04c-0.7 0-1.74-0.35-3.11-1.04c0.69-0.7 0.95-1.74 0.78-3.11c-0.18-1.39-0.96-2.08-2.34-2.08c-1.39 0.34-2.6 1.04-3.63 2.08v0zm-5.71 16.35c-0.35-1.91-0.52-3.2-0.52-3.89c0.69 0 1.64 0.08 2.86 0.26c1.21 0.17 2.16 0.43 2.86 0.78c0.34 0.34 0.52 1.04 0.52 2.08c-0.7 1.04-1.56 1.9-2.6 2.6c-1.04 0.69-1.91 1.38-2.6 2.08c0-0.7-0.18-2-0.52-3.89zm10.9-0.78c2.08 2.08 2.94 3.63 2.6 4.67c-1.74 1.04-3.29 0.17-4.67-2.6l2.08-2.08zm-35.3 17.13c0.69 0.34 1.56 1.04 2.6 2.08c-3.81 1.73-6.93 1.38-9.34-1.04c-1.39-2.08-2.08-3.98-2.08-5.71c2.42 1.04 4.49 1.38 6.23 1.04c0.34 1.04 1.21 2.25 2.6 3.63v0zm21.28-8.31c0 3.11-1.04 6.57-3.11 10.38c-0.7 1.04-1.74 2.25-3.11 3.63c-1.04 0-2.43-0.18-4.15-0.52c-1.74-0.35-3.63-1.04-5.71-2.08c3.8-2.43 5.71-6.06 5.71-10.9c2.77 1.04 6.23 0.86 10.38-0.52v0zm-14.54 7.27c-1.39 1.04-2.77 1.9-4.15 2.6c-2.08-2.08-3.63-3.81-4.67-5.19c2.08-0.7 3.37-1.74 3.89-3.11c0.52-1.39 0.43-2.6-0.26-3.63c-0.7-1.74-1.65-2.68-2.86-2.86c-1.22-0.18-2.17 0.08-2.86 0.78c0-3.46 1.04-6.75 3.11-9.86c2.08 1.04 3.8 2.25 5.19 3.63c-2.08 3.8-1.22 6.75 2.6 8.83c1.04 1.04 2.08 1.56 3.11 1.56c0.69 2.08-0.35 4.49-3.11 7.27v0zm-15.57-4.67c0.34-1.04 0.69-2.08 1.04-3.11c0.34-1.04 1.38-1.91 3.11-2.6c0 0.69 0.08 1.56 0.26 2.6c0.17 1.04 0.26 2.08 0.26 3.11h-4.67zm9.86-5.19c0 1.73-0.7 3.11-2.08 4.15c-0.7 0-1.13 0.08-1.3 0.26c-0.18 0.17-0.44 0.26-0.78 0.26c-0.7-1.04-1.04-2.94-1.04-5.71c2.42-0.7 4.15-0.35 5.19 1.04v0zm8.83 2.08c-0.7 0-1.74-0.35-3.11-1.04c-3.11-2.43-3.81-5.37-2.08-8.83c2.77 2.42 4.49 5.71 5.19 9.86v0zm-4.67-9.86c0.69-1.74 1.99-2.68 3.89-2.86c1.9-0.18 3.71 0.08 5.45 0.78l2.08 2.08c-0.7 0.34-1.39 0.86-2.08 1.56c-0.7 0.69-0.7 1.56 0 2.6c1.73 1.73 3.46 2.08 5.19 1.04c0.34 0.69 0.6 1.21 0.78 1.56c0.17 0.34 0.43 0.86 0.78 1.56c-3.81 1.38-7.45 2.08-10.9 2.08c-0.7-4.85-2.43-8.31-5.19-10.38v0zm15.57-1.56c0 1.73-0.52 3.11-1.56 4.15c-0.7-1.39-1.22-2.25-1.56-2.6l3.11-1.56zm-3.63 5.71c-0.7 0.34-1.39 0.34-2.08 0c-0.7-1.39 0-2.77 2.08-4.15c0.69 0.69 1.38 1.73 2.08 3.11c-0.7 0.34-1.39 0.69-2.08 1.04zm5.19-2.08c0.34-1.04 0.17-2.25-0.52-3.63h1.56c0 0.69 0.08 1.99 0.26 3.89c0.17 1.9 0.43 3.2 0.78 3.89c-0.7 0.34-1.13 0.6-1.3 0.78c-0.18 0.17-0.61 0.43-1.3 0.78c-0.7-1.39-1.04-2.43-1.04-3.11c0.69-0.7 1.21-1.56 1.56-2.6zm9.86-2.08l-1.04 1.04l-0.52-1.04v0h1.56zm-3.11-6.75c0.69 0 1.99 0.08 3.89 0.26c1.9 0.17 3.2 0.43 3.89 0.78c-1.39 2.08-2.94 3.97-4.67 5.71c-0.35-0.35-0.7-0.52-1.04-0.52c-0.35 0-0.7-0.18-1.04-0.52c-0.7-2.08-1.04-3.98-1.04-5.71v0zm-0.26 2.34c0.17 1.21 0.43 2.16 0.78 2.86c-0.7 0-1.65-0.09-2.86-0.26c-1.22-0.18-2.17-0.26-2.86-0.26c-0.35-1.39-0.52-2.6-0.52-3.63c0-1.04-0.18-1.91-0.52-2.6c0.34 0.34 2.25 0.86 5.71 1.56c0 0.34 0.08 1.12 0.26 2.34zm-14.28 1.82c-1.74-1.04-3.55-1.39-5.45-1.04c-1.91 0.34-3.37 1.38-4.41 3.11c-2.43-1.74-4.33-2.77-5.71-3.11c0.34-0.7 1.21-1.48 2.6-2.34c1.38-0.87 3.03-1.65 4.93-2.34c1.9-0.7 3.89-0.96 5.97-0.78c2.08 0.17 4.15 1.12 6.23 2.86c0.69 0.69 1.21 1.38 1.56 2.08c0.34 0.69 0.52 1.56 0.52 2.6c-1.74 0-2.94 0.34-3.63 1.04c-0.35-0.7-1.22-1.39-2.6-2.08v0zm-19.21 5.19c-0.35 2.08-0.35 3.46 0 4.15c-1.74 0.69-2.86 1.64-3.37 2.86c-0.52 1.21-0.96 2.34-1.3 3.37c-2.77-0.7-4.85-1.39-6.23-2.08c-3.46-0.7-5.89-1.04-7.27-1.04c0.69-1.74 1.56-3.37 2.6-4.93c1.04-1.56 2.42-3.2 4.15-4.93c1.73-2.08 4.15-3.29 7.27-3.63c3.11-0.35 5.36-0.35 6.75 0c-1.39 2.08-2.25 4.15-2.6 6.23zm-32.19 18.69c0-1.04 0.26-2.34 0.78-3.89c0.52-1.56 1.47-2.86 2.86-3.89c1.73-2.08 4.49-3.11 8.31-3.11c-1.04 0.69-1.74 1.9-2.08 3.63c-0.35 1.04-0.7 1.9-1.04 2.6c-1.04 2.08-2 3.97-2.86 5.71c-0.87 1.73-2.17 3.46-3.89 5.19c-1.39-2.77-2.08-4.85-2.08-6.23v0zm58.66 3.63c-0.7-0.35-1.56-0.52-2.6-0.52c-1.04 0-1.91 0-2.6 0c3.46-3.81 5.19-8.48 5.19-14.02c0-0.35 0.34-0.7 1.04-1.04c0.69-0.35 1.38-0.52 2.08-0.52c0 2.77 0.52 5.01 1.56 6.75c-2.08 1.73-3.29 3.97-3.63 6.75c-0.7 1.38-1.04 2.25-1.04 2.6v0zm23.88 7.79c-3.81 0-6.41-1.74-7.79-5.19h1.56c0.69 0 1.21-0.18 1.56-0.52c0.34-0.35 0.86-0.7 1.56-1.04c2.42-2.43 2.6-4.67 0.52-6.75c-1.39-0.7-2.94-0.35-4.67 1.04c-1.74 1.04-2.25 2.77-1.56 5.19c-2.77 0-4.85-1.04-6.23-3.11c-1.39-1.04-2.6-3.29-3.63-6.75c1.38-0.7 2.86-1.48 4.41-2.34c1.56-0.87 3.37-1.3 5.45-1.3c2.08-0.35 3.8-0.35 5.19 0c0.69 4.15 2.42 7.61 5.19 10.38c2.77 2.08 5.19 3.11 7.27 3.11c-0.7 1.38-1.39 2.6-2.08 3.63c-1.74 2.42-3.98 3.63-6.75 3.63v0zm-6.75-11.94c1.73-1.74 2.94-2 3.63-0.78c0.69 1.21 0.52 2.34-0.52 3.37c-1.39 1.38-3.11 2.08-5.19 2.08c0-2.77 0.69-4.33 2.08-4.67v0zm5.45-3.11c-0.87-1.39-1.48-3.29-1.82-5.71c4.15 0.34 7.44 2.08 9.86 5.19c1.73 1.73 2.6 3.97 2.6 6.75c-3.46 0-6.06-0.87-7.79-2.6c-1.04-1.04-2-2.25-2.86-3.63zm10.64-7.27c-1.39 1.38-2.34 1.99-2.86 1.82c-0.52-0.18-0.96-0.26-1.3-0.26c-1.04-1.74-0.87-2.94 0.52-3.63c1.04-1.39 2.77-1.91 5.19-1.56c-0.7 2.08-1.22 3.29-1.56 3.63v0zm0.78-7.27c0.52 1.38 0.78 2.42 0.78 3.11c-1.04-0.7-2.17-0.78-3.37-0.26c-1.22 0.52-2 1.12-2.34 1.82c-0.7 1.38-0.96 2.77-0.78 4.15c0.17 1.38 1.3 2.08 3.37 2.08c0.69 0 1.38-0.52 2.08-1.56c1.38-1.04 2.08-2.94 2.08-5.71c0.69 0.34 1.3 0.69 1.82 1.04c0.52 0.34 1.12 0.86 1.82 1.56c1.38 1.38 2.16 3.2 2.34 5.45c0.17 2.25-0.61 4.23-2.34 5.97c-1.39 1.04-3.11 1.9-5.19 2.6c-0.7-3.46-1.91-5.71-3.63-6.75c-2.77-2.77-6.23-4.67-10.38-5.71v-4.67c0.34-3.81 1.9-7.1 4.67-9.86c1.73 0.34 3.97 1.56 6.75 3.63c1.04 0.69 1.82 1.73 2.34 3.11zm-12.46-2.86c-0.87 1.56-1.3 3.54-1.3 5.97c-0.7 1.38-0.7 2.94 0 4.67h-5.19c-4.5 0.69-7.97 2.25-10.38 4.67c-0.35-1.39-0.61-2.6-0.78-3.63c-0.18-1.04-0.26-2.08-0.26-3.11c1.38-0.7 2.6-1.39 3.63-2.08c1.04-0.7 1.9-1.39 2.6-2.08c1.73 3.11 3.8 4.32 6.23 3.63c1.38-1.04 1.47-2.34 0.26-3.89c-1.22-1.56-2.17-2.51-2.86-2.86c0.69-1.39 1.38-2.68 2.08-3.89c0.69-1.22 1.38-2.17 2.08-2.86c2.08 0 4.15 0.34 6.23 1.04c-0.7 1.38-1.48 2.86-2.34 4.41zm15.83-3.89c-1.74-1.74-2.77-3.29-3.11-4.67c1.73 0 3.37 0.6 4.93 1.82c1.56 1.21 1.99 2.34 1.3 3.37c-0.7 1.73-1.74 1.56-3.11-0.52v0zm-4.67-4.93c-0.35 0.17-0.87 0.26-1.56 0.26c-2.43 0.69-4.5 1.9-6.23 3.63c-1.74-0.35-3.98-0.87-6.75-1.56c0-1.04 0.34-1.91 1.04-2.6c4.49 0.69 8.31-0.35 11.42-3.11c1.04 0 2.08-0.52 3.11-1.56c0 0.69 0 1.56 0 2.6c0 1.04 0.17 1.73 0.52 2.08c-0.7 0-1.22 0.08-1.56 0.26zm-12.46-7.01v-3.11c1.38 0 2.68-0.44 3.89-1.3c1.21-0.87 2.51-1.65 3.89-2.34c0.69-0.7 1.12-1.3 1.3-1.82c0.17-0.52 0.6-1.13 1.3-1.82c0.69 1.73 1.3 3.54 1.82 5.45c0.52 1.9 0.95 3.54 1.3 4.93c-5.19 4.15-10.04 6.23-14.54 6.23c0.69-1.74 1.04-3.81 1.04-6.23v0zm5.19-32.19c0-1.39 0.69-2.08 2.08-2.08c2.77-1.39 5.71-0.35 8.83 3.11c-1.74 1.38-3.46 2.25-5.19 2.6c-1.74 0.34-2.94 0.17-3.63-0.52c-1.39-0.35-2.08-1.39-2.08-3.11v0zm11.94 0.52c-1.74-1.74-3.55-2.86-5.45-3.37c-1.91-0.52-3.37-0.44-4.41 0.26c-1.74 0.69-2.6 1.56-2.6 2.6c0 2.42 1.04 3.97 3.11 4.67c3.11 2.08 6.4 1.38 9.86-2.08c1.38 1.73 2.51 4.23 3.37 7.53c0.86 3.29 0.43 7.18-1.3 11.68c-0.7 1.73-1.56 3.46-2.6 5.19c-1.04 1.73-2.08 3.11-3.11 4.15c-0.35-1.04-0.7-2.25-1.04-3.63c-0.35-1.04-0.78-2.17-1.3-3.37c-0.52-1.22-0.96-2.17-1.3-2.86c1.73-4.15 1.21-7.97-1.56-11.42c-1.74-1.74-3.2-2.6-4.41-2.6c-1.22 0-2 0-2.34 0c0-1.04-0.52-3.11-1.56-6.23c-1.04-3.11-1.56-5.54-1.56-7.27c1.38-0.7 2.42-1.04 3.11-1.04c3.46-1.74 6.4-3.37 8.83-4.93c2.42-1.56 4.49-3.2 6.23-4.93c2.08 1.73 3.46 4.23 4.15 7.53c0.69 3.29-0.35 6.31-3.11 9.08c-0.7 0-1.04 0.34-1.04 1.04v0zm-15.05-16.61c1.73-1.74 3.89-2.86 6.49-3.37c2.6-0.52 4.93 0.08 7.01 1.82c-1.04 1.04-3.81 2.68-8.31 4.93c-4.5 2.25-7.27 3.71-8.31 4.41c0-3.11 1.04-5.71 3.11-7.79v0zm-3.11-228.41c1.73 1.38 4.32 2.6 7.79 3.63c1.38 0.69 2.68 1.47 3.89 2.34c1.21 0.86 2.68 1.82 4.41 2.86c-5.54 2.42-9.86 1.73-12.98-2.08c-2.08-1.74-3.11-3.98-3.11-6.75v0zm6.23-8.31c0-2.43 0.69-3.63 2.08-3.63c2.42-1.74 5.36-1.22 8.83 1.56c-1.39 1.73-2.77 2.86-4.15 3.37c-1.39 0.52-2.6 0.78-3.63 0.78c-2.08 0-3.11-0.7-3.11-2.08v0zm11.94-2.6c-2.08-1.39-3.98-2.17-5.71-2.34c-1.74-0.18-3.11-0.09-4.15 0.26c-1.74 1.04-2.6 2.42-2.6 4.15c0 1.38 1.21 2.6 3.63 3.63c2.42 0.69 4.41 0.52 5.97-0.52c1.56-1.04 2.68-2.08 3.37-3.11c1.73 1.04 2.86 2.34 3.37 3.89c0.52 1.56 0.78 2.86 0.78 3.89c-0.7 4.49-2.43 7.61-5.19 9.34c-2.08-2.77-5.37-5.02-9.86-6.75c-0.7-0.7-2.08-1.39-4.15-2.08c-2.08-0.7-3.46-1.04-4.15-1.04c0-1.39 0.17-2.6 0.52-3.63c0.34-1.04 0.69-2.08 1.04-3.11c0.34-1.39 0.69-2.43 1.04-3.11c0.69-1.39 1.04-2.6 1.04-3.63c2.42 0.69 4.67 0 6.75-2.08c1.38-1.39 2.16-3.2 2.34-5.45c0.17-2.25-0.09-4.24-0.78-5.97c1.38-2.43 2.25-4.67 2.6-6.75c0.34-2.08 0.69-3.63 1.04-4.67c2.77 2.77 4.58 5.62 5.45 8.57c0.86 2.94 1.47 5.97 1.82 9.08c-0.7 5.53-2.08 9.34-4.15 11.42v0zm-30.11-37.38c0.69 0 2.16-0.18 4.41-0.52c2.25-0.35 3.89-0.52 4.93-0.52c0.34 0.69 0.6 1.12 0.78 1.3c0.17 0.17 0.43 0.6 0.78 1.3c-0.7 0-1.65 0.17-2.86 0.52c-1.22 0.34-2.17 0.69-2.86 1.04c-1.39-1.39-2.94-1.74-4.67-1.04c-0.35-0.7-0.52-1.39-0.52-2.08v0zm-0.26-3.11c-0.18 1.04-0.26 1.73-0.26 2.08c-2.77 0.69-4.67 1.21-5.71 1.56c0.34-0.35 0.52-1.13 0.52-2.34c0-1.22 0.17-2.34 0.52-3.37c1.04 0 2.08-0.09 3.11-0.26c1.04-0.18 1.9-0.26 2.6-0.26c-0.35 0.69-0.61 1.56-0.78 2.6zm-38.16-17.13c0.34 1.04 0.78 2.25 1.3 3.63c0.52 1.38 1.47 2.42 2.86 3.11c0.34 1.38 0.69 2.77 1.04 4.15c0.34 1.38 0.86 2.94 1.56 4.67h-4.15c-3.81 0-6.93-1.22-9.34-3.63c-1.74-1.74-3.11-3.2-4.15-4.41c-1.04-1.22-2.08-2.51-3.11-3.89c1.73 0 4.32-0.35 7.79-1.04c0.69-0.35 2.08-0.87 4.15-1.56c0.69-0.7 1.38-1.04 2.08-1.04v0zm-27.51-8.83c0-2.08 0.69-4.15 2.08-6.23c1.73 1.73 3.03 3.37 3.89 4.93c0.86 1.56 1.82 3.2 2.86 4.93c0.69 1.04 1.21 2.08 1.56 3.11c0.69 2.08 1.21 3.29 1.56 3.63c-3.46 0.69-6.23 0-8.31-2.08c-2.43-3.11-3.63-5.89-3.63-8.31v0zm30.11 1.56c2.77-2.77 6.05-3.29 9.86-1.56c-0.7 0.69-1.65 1.56-2.86 2.6c-1.22 1.04-2.34 2.42-3.37 4.15c-0.7-0.35-1.56-0.44-2.6-0.26c-1.04 0.17-2.08 0.26-3.11 0.26c0-1.39 0.69-3.11 2.08-5.19v0zm42.05 12.98c1.73-1.04 2.6-0.87 2.6 0.52c0.34 0.69-0.09 1.56-1.3 2.6c-1.22 1.04-2.34 1.9-3.37 2.6c-0.7-0.7-1.22-1.04-1.56-1.04c0.69-2.08 1.9-3.63 3.63-4.67v0zm-5.19 7.27c0.34-0.7 0.6-1.13 0.78-1.3c0.17-0.18 0.43-0.61 0.78-1.3c0 0.34 0.34 0.86 1.04 1.56c0.34 0-0.52 0.34-2.6 1.04v0zm0-1.04c0 0.34-0.18 0.86-0.52 1.56c-0.7 0-1.56 0.08-2.6 0.26c-1.04 0.17-2.08 0.26-3.11 0.26c0-0.35 0.08-0.78 0.26-1.3c0.17-0.52 0.26-1.13 0.26-1.82c0.34-1.04 0.52-2.77 0.52-5.19c2.08 0.69 3.97 2.25 5.71 4.67c-0.35 0.69-0.52 1.21-0.52 1.56zm3.63 1.56c0.69 0.69 1.3 1.38 1.82 2.08c0.52 0.69 1.12 1.38 1.82 2.08c-2.77 0.69-4.5 1.04-5.19 1.04h-3.11c0.34-0.35 0.52-0.87 0.52-1.56c0-1.39 0.17-2.25 0.52-2.6c1.38-0.7 2.25-1.04 2.6-1.04h1.04zm-11.94 0.52c-0.35-0.7-0.52-1.39-0.52-2.08c-0.35-0.7-0.52-1.22-0.52-1.56c0-0.35-0.35-0.87-1.04-1.56c1.38-2.08 2.08-3.81 2.08-5.19c0.69 0.34 1.21 0.6 1.56 0.78c0.34 0.17 0.86 0.43 1.56 0.78c-0.35 0.69-0.7 2.16-1.04 4.41c-0.35 2.25-0.52 3.71-0.52 4.41h-1.56zm-1.04-2.34c0 0.86 0 1.64 0 2.34l-2.6-1.04c0.34-0.7 0.6-1.3 0.78-1.82c0.17-0.52 0.43-1.13 0.78-1.82v0c0.69 0.69 1.04 1.47 1.04 2.34zm-5.71-1.82c0-1.39 0.52-2.17 1.56-2.34c1.04-0.18 1.9 0.08 2.6 0.78c-0.35 1.04-1.22 2.25-2.6 3.63c-1.04 0-1.56-0.7-1.56-2.08v0zm1.3-2.6c-1.22 0-1.82 0.86-1.82 2.6c0.69 1.38 1.21 2.08 1.56 2.08l-1.56 1.56c-3.46 1.38-5.71 1.73-6.75 1.04c-0.35 0-0.61-0.09-0.78-0.26c-0.18-0.18-0.44-0.26-0.78-0.26l-0.52-0.52c1.73-1.74 3.03-3.72 3.89-5.97c0.86-2.25 1.12-4.07 0.78-5.45c4.49-0.7 8.13-0.35 10.9 1.04c-0.35 0.69-0.52 1.21-0.52 1.56c0 0.34-0.18 0.86-0.52 1.56c-0.35 0.69-0.52 1.38-0.52 2.08c-1.04-0.7-2.17-1.04-3.37-1.04zm-11.94 0.26c0.17-1.56 0.95-2.86 2.34-3.89c0.69-0.35 1.3-0.61 1.82-0.78c0.52-0.18 0.95-0.44 1.3-0.78c-0.35 3.8-2.25 7.09-5.71 9.86c0-1.39 0.08-2.86 0.26-4.41zm-0.26-16.35c4.49-2.08 8.31-3.11 11.42-3.11c4.49 4.49 6.4 9.51 5.71 15.05c-3.11-1.74-6.58-2.25-10.38-1.56c0-4.5-2.25-7.97-6.75-10.38v0zm-2.08 1.82c0.34-0.18 0.86-0.61 1.56-1.3c1.73 0.69 3.29 1.82 4.67 3.37c1.38 1.56 1.9 3.71 1.56 6.49l-3.11 1.56c-3.11 2.42-3.98 5.36-2.6 8.83c-1.39 1.38-3.46 2.42-6.23 3.11c-1.04-1.74-1.65-3.11-1.82-4.15c-0.18-1.04-0.26-2.43-0.26-4.15c3.11 1.38 5.01 0.86 5.71-1.56c0.69-1.74 0.52-3.2-0.52-4.41c-1.04-1.22-2.25-2.17-3.63-2.86c0.34-0.35 0.86-0.96 1.56-1.82c0.69-0.87 1.21-1.48 1.56-1.82c0.69-0.7 1.21-1.13 1.56-1.3zm-4.67 5.97h0.52c0.34 0 0.52 0.08 0.52 0.26c0 0.17 0.17 0.26 0.52 0.26c1.38 1.04 2.08 2.42 2.08 4.15c-0.7 1.04-1.74 1.56-3.11 1.56c-0.7 0-1.39-0.18-2.08-0.52c0-1.74 0.52-3.63 1.56-5.71v0zm-2.08 5.19c-1.74-0.7-2.77-1.39-3.11-2.08c-0.35-0.7-0.7-1.39-1.04-2.08c1.38-0.7 3.29-1.04 5.71-1.04c-1.04 1.38-1.56 3.11-1.56 5.19v0zm13.5 12.2c1.73 0.86 3.63 0.78 5.71-0.26c0.69-0.35 1.73-1.22 3.11-2.6c0.69 0.69 1.56 1.04 2.6 1.04c-0.7 1.38-1.22 2.25-1.56 2.6c-2.43 2.77-5.54 4.15-9.34 4.15c-1.74 0-3.46-0.35-5.19-1.04c-1.74-0.7-3.29-1.91-4.67-3.63c1.73-0.35 3.03-0.87 3.89-1.56c0.86-0.7 1.47-1.04 1.82-1.04c0.69 0.69 1.9 1.47 3.63 2.34zm19.73 14.79c0-1.39 0.52-2.6 1.56-3.63c0.34 0.69 1.21 1.38 2.6 2.08c1.38 0.69 2.6 0.52 3.63-0.52c0.69-2.08 0.34-3.81-1.04-5.19c0.34-1.04 1.38-1.56 3.11-1.56h1.56c0.69 0.69 1.12 1.73 1.3 3.11c0.17 1.38 0.26 2.6 0.26 3.63c0 1.04-0.35 2.25-1.04 3.63c-2.43 0.34-4.33 1.04-5.71 2.08c-1.39 1.04-2.6 2.08-3.63 3.11c-2.77-1.74-3.63-3.98-2.6-6.75v0zm11.68 3.11c-0.18 0-0.44 0.34-0.78 1.04c-2.77 3.11-5.37 3.97-7.79 2.6c0.34-0.35 1.21-1.04 2.6-2.08c1.38-1.04 3.46-1.91 6.23-2.6c0 0.69-0.09 1.04-0.26 1.04zm-7.27-9.34c0.52-0.35 0.95-0.7 1.3-1.04c0.69 0.69 1.04 1.38 1.04 2.08c0 0.69-0.44 1.04-1.3 1.04c-0.87 0-1.65-0.35-2.34-1.04c0.34-0.35 0.78-0.7 1.3-1.04zm-1.82 0.52c-1.04-1.04-1.56-2.08-1.56-3.11c1.73 0 3.11 0.52 4.15 1.56c-0.7 0-1.56 0.52-2.6 1.56v0zm-2.6 3.63c-0.7 0.69-1.13 2.16-1.3 4.41c-0.18 2.25 0.6 4.23 2.34 5.97c-1.39 2.08-2.25 3.8-2.6 5.19c-0.7-0.7-1.56-1.74-2.6-3.11c-1.04-1.39-1.82-3.03-2.34-4.93c-0.52-1.91-0.61-3.81-0.26-5.71c0.34-1.91 1.38-3.89 3.11-5.97c1.38-1.39 2.6-2.25 3.63-2.6c0 1.38 0.52 2.94 1.56 4.67c-1.04 1.04-1.56 1.73-1.56 2.08v0zm4.67 11.42c1.04 0 2.08-0.09 3.11-0.26c1.04-0.18 2.25-0.96 3.63-2.34c0.34-0.7 0.69-1.39 1.04-2.08c0.34-0.7 0.69-1.56 1.04-2.6c2.77 0 5.19 1.04 7.27 3.11c1.04 1.04 1.73 2.08 2.08 3.11c-1.04 1.04-1.74 1.9-2.08 2.6l-4.67 3.11c-1.39-3.46-3.29-4.5-5.71-3.11c-2.43 0.69-3.11 2.42-2.08 5.19c-2.77 0.69-5.89-0.18-9.34-2.6c0.69-1.04 1.12-2 1.3-2.86c0.17-0.87 0.6-1.65 1.3-2.34c0.69 0.34 1.73 0.69 3.11 1.04v0zm19.21 0c0 1.04 0 2.34 0 3.89c0 1.56-0.52 3.03-1.56 4.41c-2.43 1.73-4.5 2.6-6.23 2.6c0.69-2.08 0.86-3.29 0.52-3.63c3.11-1.74 5.53-4.15 7.27-7.27v0zm-14.02 8.31c1.38 0 3.46-0.35 6.23-1.04c0 1.38-0.18 2.6-0.52 3.63c-2.43 0-4.33-0.87-5.71-2.6v0zm0.52-6.23c1.04-0.7 1.99-0.7 2.86 0c0.86 0.69 1.64 1.56 2.34 2.6c-1.39 0.69-3.46 1.38-6.23 2.08c-1.39-3.11-1.04-4.67 1.04-4.67v0zm2.08 9.6c1.04 0.52 1.9 0.95 2.6 1.3c-0.35 0.69-0.87 1.99-1.56 3.89c-0.7 1.9-1.04 3.2-1.04 3.89c-0.35 1.38-0.52 2.94-0.52 4.67c-2.43-0.7-5.37-2.6-8.83-5.71c-3.81-4.5-5.19-9.52-4.15-15.05c2.42 2.42 5.88 3.63 10.38 3.63c1.04 1.73 2.08 2.86 3.11 3.37zm13.5-19.99c-0.35 1.73-1.39 3.8-3.11 6.23c-0.35-0.35-0.52-0.7-0.52-1.04c0-0.35-0.35-0.87-1.04-1.56c-2.77-2.08-5.37-3.11-7.79-3.11c0.69-4.15 0.17-7.62-1.56-10.38c4.84-0.35 9.86 1.38 15.05 5.19c-0.35 1.38-0.7 2.94-1.04 4.67zm5.71-17.91c0.69-0.52 1.38-0.44 2.08 0.26c0.69 0.69 0.86 1.3 0.52 1.82c-0.35 0.52-0.7 1.12-1.04 1.82c-1.04 1.04-2.77 1.56-5.19 1.56c0.69-2.08 1.38-3.46 2.08-4.15c0.34-0.35 0.86-0.78 1.56-1.3zm-4.67 8.05v4.67c-2.08-1.74-4.41-3.2-7.01-4.41c-2.6-1.22-5.28-1.65-8.05-1.3c-0.7-0.7-1.22-1.39-1.56-2.08c1.73-0.35 3.11-0.52 4.15-0.52c1.04 0 2.25-0.35 3.63-1.04c1.04 1.38 2.08 2.34 3.11 2.86c1.04 0.52 2.08 1.12 3.11 1.82h2.6zm-17.65-4.67c-1.39-2.08-2.6-3.81-3.63-5.19c1.04-0.35 1.82-0.78 2.34-1.3c0.52-0.52 0.95-0.96 1.3-1.3c1.04-1.74 1.04-3.29 0-4.67c-0.7-0.35-1.74-0.35-3.11 0c-1.39 0.69-2.6 2.25-3.63 4.67c-1.74-1.74-3.81-3.29-6.23-4.67l1.56-7.79c3.11 3.11 6.57 4.84 10.38 5.19c2.08 0.34 3.8 0.34 5.19 0v4.15c0 2.77 1.21 5.88 3.63 9.34l-7.79 1.56zm13.5-12.98c-1.04-1.04-1.39-2.08-1.04-3.11c0.34-1.04 1.04-1.56 2.08-1.56c1.73 0 2.86 0.69 3.37 2.08c0.52 1.38 0.78 2.42 0.78 3.11c-0.7 0-1.22 0.08-1.56 0.26c-0.35 0.17-0.7 0.26-1.04 0.26v0l-2.6-1.04zm11.94-7.79c0 1.73-0.7 3.46-2.08 5.19c-0.7 0.69-1.39 1.3-2.08 1.82c-0.7 0.52-1.39 0.95-2.08 1.3c0-1.74-0.52-3.11-1.56-4.15c-1.04-1.04-2.08-1.56-3.11-1.56c-0.7 0-1.39 0.52-2.08 1.56c-0.7 1.04-0.52 2.42 0.52 4.15c0.34 1.04 1.38 1.56 3.11 1.56h2.08c0 1.73-0.87 3.46-2.6 5.19c-1.74 1.38-3.98 2.6-6.75 3.63c-2.43-2.08-3.98-5.02-4.67-8.83v-4.15c3.46-0.35 6.92-2.25 10.38-5.71c2.42-2.08 3.63-5.02 3.63-8.83c1.38 0.34 3.11 1.38 5.19 3.11c1.38 1.38 2.08 3.29 2.08 5.71v0zm-10.9-2.6c-3.46 3.46-6.75 5.36-9.86 5.71c1.04-4.15 2.77-7.1 5.19-8.83c2.42-2.08 4.84-3.11 7.27-3.11c0 1.73-0.87 3.8-2.6 6.23v0zm-15.57-7.79c0 0.69-0.09 1.64-0.26 2.86c-0.18 1.21 0.43 2.51 1.82 3.89c0.34 1.04 1.21 1.56 2.6 1.56c1.38 0 2.42-0.78 3.11-2.34c0.69-1.56 0.17-3.03-1.56-4.41c-1.39-1.39-2.94-2.08-4.67-2.08c0.34-1.74 1.04-2.94 2.08-3.63c2.42-1.74 4.32-2.6 5.71-2.6c5.53 0 8.65 2.6 9.34 7.79c-2.77 0-5.37 1.04-7.79 3.11c-3.11 3.11-4.85 6.23-5.19 9.34h-5.19c-3.46-0.35-6.75-1.56-9.86-3.63c1.04-2.77 2.25-5.02 3.63-6.75c2.08-2.08 4.15-3.11 6.23-3.11v0zm2.86 0.52c0.86 0.34 1.64 0.69 2.34 1.04c1.04 1.73 1.21 2.77 0.52 3.11c-0.7 0.69-1.91 0.69-3.63 0c-1.04-0.7-1.56-1.48-1.56-2.34c0-0.87 0-1.65 0-2.34c0.69 0 1.47 0.17 2.34 0.52zm-17.91 1.04c0 0.69 0.34 1.38 1.04 2.08c0.34 2.42 1.38 4.67 3.11 6.75c-0.7 3.46-1.04 6.05-1.04 7.79c-0.7-0.35-1.22-0.61-1.56-0.78c-0.35-0.18-0.87-0.44-1.56-0.78c0-4.85-1.04-9-3.11-12.46c-0.35-0.7-1.04-1.56-2.08-2.6h5.19zm-46.72-8.31c2.42 0 4.32 0.43 5.71 1.3c1.38 0.86 2.6 1.82 3.63 2.86c-2.08 1.73-3.46 3.63-4.15 5.71c-0.35 2.08-0.35 3.8 0 5.19c0.69 1.73 1.73 2.6 3.11 2.6c2.08 0.69 3.46-0.18 4.15-2.6c1.04-2.77 1.04-5.19 0-7.27c-0.7-1.39-1.39-2.6-2.08-3.63c5.53-4.5 12.28-5.37 20.25-2.6c4.15 1.73 7.27 3.8 9.34 6.23c-1.39 0.34-3.11 0.69-5.19 1.04c-2.08 0.34-4.15 1.21-6.23 2.6c-4.5-1.74-8.14-1.22-10.9 1.56c-1.39 1.38-2.08 3.11-2.08 5.19c-1.04 0.34-2.08 0.69-3.11 1.04c-1.04 0.34-2.25 0.69-3.63 1.04c-2.08 1.04-4.67 1.56-7.79 1.56c-0.35-0.7-0.7-1.39-1.04-2.08c-0.35-0.7-0.7-1.39-1.04-2.08c-0.7-1.04-1.22-1.91-1.56-2.6c-1.04-1.74-2.08-3.46-3.11-5.19c-1.04-1.74-2.25-3.46-3.63-5.19c0-0.35 0.17-0.61 0.52-0.78c0.34-0.18 0.52-0.44 0.52-0.78c2.08-2.08 4.84-3.11 8.31-3.11v0zm11.42 12.98c-0.35 1.38-1.39 2.08-3.11 2.08c-1.39 0-2.25-0.52-2.6-1.56c-0.35-1.04-0.35-2.08 0-3.11c1.38-2.77 2.6-4.67 3.63-5.71c2.42 3.11 3.11 5.88 2.08 8.31v0zm-126.15-11.42c7.96-2.77 14.88-1.91 20.76 2.6c-3.11 4.15-3.81 7.79-2.08 10.9c0.69 1.73 1.73 2.6 3.11 2.6c1.38 0 2.6-0.87 3.63-2.6c0-0.7 0-1.56 0-2.6c0-1.04-0.18-1.91-0.52-2.6c0-2.43-1.22-4.33-3.63-5.71c2.77-3.11 6.92-4.5 12.46-4.15c1.73 0.34 3.29 1.21 4.67 2.6c0.69 0.69 1.21 1.38 1.56 2.08c-1.39 1.73-2.6 3.46-3.63 5.19c-1.04 1.73-2.08 3.46-3.11 5.19c-0.7 0.69-1.22 1.56-1.56 2.6c-0.7 0.69-1.13 1.38-1.3 2.08c-0.18 0.69-0.44 1.38-0.78 2.08c-2.08 0-4.67-0.52-7.79-1.56c-1.74-0.7-3.98-1.39-6.75-2.08c0-1.39-0.26-2.43-0.78-3.11c-0.52-0.7-0.96-1.39-1.3-2.08c-1.74-2.08-3.98-3.11-6.75-3.11c-0.7 0-1.39 0.17-2.08 0.52c-0.7 0.34-1.39 0.69-2.08 1.04c-2.43-1.39-4.5-2.25-6.23-2.6c-1.74-0.35-3.46-0.7-5.19-1.04c2.42-2.77 5.53-4.85 9.34-6.23v0zm24.92 8.83c0.34 1.04 0.17 2.08-0.52 3.11c-0.7 1.04-1.56 1.56-2.6 1.56c-1.04 0-2.08-0.7-3.11-2.08c-0.35-2.43 0.52-5.19 2.6-8.31c2.08 2.08 3.29 3.97 3.63 5.71v0zm17.13 0.78c0.34 2.25-0.7 4.58-3.11 7.01c-1.74 2.42-4.5 3.63-8.31 3.63c0.34-0.7 0.86-1.82 1.56-3.37c0.69-1.56 1.21-2.68 1.56-3.37c1.04-1.74 1.99-3.37 2.86-4.93c0.86-1.56 2.16-3.2 3.89-4.93c0.69 1.73 1.21 3.71 1.56 5.97zm-73.46 31.41c-1.22 0-2.17-0.18-2.86-0.52c0.34-0.7 0.86-1.74 1.56-3.11c1.04 0 2.68 0.17 4.93 0.52c2.25 0.34 3.71 0.69 4.41 1.04v0.52c0 0.34-0.09 0.6-0.26 0.78c-0.18 0.17-0.26 0.43-0.26 0.78c-1.04-0.7-2.6-0.35-4.67 1.04c-0.7-0.7-1.65-1.04-2.86-1.04zm-5.71 20.25c0.86-0.7 2.16-0.7 3.89 0c2.08 0.69 2.25 2.25 0.52 4.67h-2.08c-1.04 0-2.25-0.35-3.63-1.04c0-1.74 0.43-2.94 1.3-3.63zm2.08 7.53c-0.52 0.17-1.13 0.43-1.82 0.78c-0.7 0.34-1.22 0.52-1.56 0.52c-0.35-0.7-0.52-1.48-0.52-2.34c0-0.87 0-1.65 0-2.34c1.04 0.69 1.99 1.04 2.86 1.04c0.86 0 1.82 0.34 2.86 1.04c-0.7 0.69-1.3 1.12-1.82 1.3zm-4.41-1.04c0 0.86 0.17 1.64 0.52 2.34c-1.04 0-2.17-0.09-3.37-0.26c-1.22-0.18-2.17-0.61-2.86-1.3c-2.43-2.43-2.77-5.71-1.04-9.86c0.69 0.69 1.12 1.3 1.3 1.82c0.17 0.52 0.6 0.95 1.3 1.3c1.73 1.73 3.11 2.94 4.15 3.63c0 0.69 0 1.47 0 2.34zm12.98-0.78c1.73-0.35 3.29-1.04 4.67-2.08c1.04 5.19-0.18 9.51-3.63 12.98c-1.74 2.08-3.29 3.54-4.67 4.41c-1.39 0.86-2.94 1.82-4.67 2.86c0-1.74-0.52-4.24-1.56-7.53c-1.04-3.29-1.74-5.28-2.08-5.97c3.11 0 5.53-1.39 7.27-4.15c1.38 0 2.94-0.18 4.67-0.52zm-6.75-6.23c-1.74-0.7-3.03-0.7-3.89 0c-0.87 0.69-1.48 1.9-1.82 3.63c-1.39-0.35-2.94-1.39-4.67-3.11c-0.7-0.7-1.39-1.74-2.08-3.11c0.69-1.39 1.38-2.43 2.08-3.11c2.08-2.08 4.67-3.11 7.79-3.11c0.34 0.69 0.6 1.3 0.78 1.82c0.17 0.52 0.43 0.95 0.78 1.3c1.38 1.73 2.94 3.03 4.67 3.89c1.73 0.86 3.46 0.6 5.19-0.78c0.69 1.04 1.38 2.6 2.08 4.67c-1.04 0.69-2.34 1.3-3.89 1.82c-1.56 0.52-3.2 0.95-4.93 1.3c0.69-2.77 0-4.5-2.08-5.19v0zm7.79-12.98c0-0.35 0.08-0.52 0.26-0.52c0.17 0 0.26-0.18 0.26-0.52c0-0.35 0.17-0.52 0.52-0.52l1.56 1.56c1.38 2.42 1.38 4.67 0 6.75c-0.7 1.04-1.56 1.73-2.6 2.08c-0.35-0.35-1.3-1.22-2.86-2.6c-1.56-1.39-3.89-2.25-7.01-2.6c-0.7-2.43-0.87-4.59-0.52-6.49c0.34-1.91 0.86-3.2 1.56-3.89c0.69 0 1.64 0.17 2.86 0.52c1.21 0.34 1.82 0.69 1.82 1.04c-0.35 0.34-0.52 0.86-0.52 1.56c0 0.69-0.09 1.21-0.26 1.56c-0.18 0.34 0.08 0.86 0.78 1.56c1.38 0.69 2.77 0.86 4.15 0.52v0zm0-3.11c-0.35 0.69-0.96 1.3-1.82 1.82c-0.87 0.52-1.65 0.43-2.34-0.26c-0.7-0.35-0.87-0.96-0.52-1.82c0.34-0.87 0.86-1.48 1.56-1.82c0.69 0.69 1.73 1.38 3.11 2.08v0zm-3.63 12.46c-2.43 0-3.98-0.7-4.67-2.08l-1.56-3.11c3.46 0.34 6.57 1.9 9.34 4.67c-1.04 0.34-2.08 0.52-3.11 0.52v0zm6.23-9.34c0-0.7-0.35-1.39-1.04-2.08c0.69-1.04 1.04-2.43 1.04-4.15c1.04 0 2.25 0.69 3.63 2.08c2.08 2.77 3.11 4.67 3.11 5.71c0.69 2.42 0.43 4.67-0.78 6.75c-1.22 2.08-2.86 3.97-4.93 5.71c-0.35-0.35-0.7-0.96-1.04-1.82c-0.35-0.87-0.7-1.48-1.04-1.82c3.11-3.11 3.46-6.58 1.04-10.38v0zm-3.63-4.67c-0.35-0.35-0.87-0.52-1.56-0.52c0.69-0.7 1.38-1.13 2.08-1.3c0.69-0.18 1.38-0.26 2.08-0.26c0 0.69-0.35 1.73-1.04 3.11c-0.7-0.35-1.22-0.7-1.56-1.04zm3.11-7.79c0-0.7-0.09-1.13-0.26-1.3c-0.18-0.18-0.26-0.44-0.26-0.78c0.34 0 0.86 0.17 1.56 0.52c0.69 0 1.21 0.08 1.56 0.26c0.34 0.17 0.86 0.26 1.56 0.26c0 1.73 0.34 2.94 1.04 3.63c-0.7-0.35-1.48-0.52-2.34-0.52c-0.87 0-1.65-0.18-2.34-0.52c-0.35-0.7-0.52-1.22-0.52-1.56v0zm-2.08-5.19c0 0.34 0.17 0.52 0.52 0.52h-1.56c0-0.35 0.08-0.61 0.26-0.78c0.17-0.18 0.26-0.44 0.26-0.78c0.34 0.34 0.52 0.69 0.52 1.04v0zm-6.23-3.11c-0.7-1.04-0.7-1.91 0-2.6c0.69-0.7 1.38-0.7 2.08 0c1.73 1.04 2.94 2.6 3.63 4.67c-0.35 0-0.87 0.34-1.56 1.04c-2.43-1.04-3.81-2.08-4.15-3.11v0zm6.75 2.08c1.04-1.74 2.77-3.29 5.19-4.67c0 1.38 0.08 2.6 0.26 3.63c0.17 1.04 0.26 2.42 0.26 4.15c-0.35 0-1.13-0.18-2.34-0.52c-1.22-0.35-2.17-0.52-2.86-0.52c0-0.35-0.09-0.52-0.26-0.52c-0.18 0-0.26-0.18-0.26-0.52v-1.04zm33.74-12.46c-0.35-1.04-1.39-2.43-3.11-4.15c-0.7-0.7-1.22-1.13-1.56-1.3c-0.35-0.18-0.87-0.61-1.56-1.3c0.69-0.35 1.9-0.52 3.63-0.52c2.77 0 4.84 0.69 6.23 2.08c1.38 1.38 2.08 2.6 2.08 3.63v1.56h-5.71zm5.19 2.08c-0.7 2.08-1.91 3.46-3.63 4.15c0-0.7-0.09-1.56-0.26-2.6c-0.18-1.04-0.44-1.91-0.78-2.6c2.08 0 3.63 0.34 4.67 1.04v0zm-7.53 5.19c-1.56-0.35-2.17-1.39-1.82-3.11c0.34-1.39 1.56-2.43 3.63-3.11c0.69 0.69 1.12 1.64 1.3 2.86c0.17 1.21 0.26 2.16 0.26 2.86c-0.7 0.69-1.82 0.86-3.37 0.52zm-2.34 0c0.69 2.42 2.6 2.94 5.71 1.56c0 2.77-1.22 5.71-3.63 8.83c-1.04-0.35-2.6-1.22-4.67-2.6c1.04-2.43 1.04-4.5 0-6.23c0-0.7-0.87-1.91-2.6-3.63l-3.11-1.56c0-2.77 1.04-5.37 3.11-7.79c0.34-0.7 0.78-1.13 1.3-1.3c0.52-0.18 0.95-0.44 1.3-0.78c2.08 1.38 3.29 2.25 3.63 2.6c1.73 1.73 2.77 2.94 3.11 3.63c-0.7 0.34-1.48 0.78-2.34 1.3c-0.87 0.52-1.48 1.3-1.82 2.34c-0.7 1.73-0.7 2.94 0 3.63v0zm-8.31-3.11l3.11 1.56c0.34 0.69 1.21 1.73 2.6 3.11c0.34 2.42 0 4.15-1.04 5.19c-2.77-2.08-4.33-5.37-4.67-9.86v0zm-1.04-0.52c-1.39-0.35-3.03-0.44-4.93-0.26c-1.91 0.17-3.72 0.78-5.45 1.82c-0.7-5.54 1.21-10.56 5.71-15.05c2.08 0 4.06 0.34 5.97 1.04c1.9 0.69 3.71 1.38 5.45 2.08c-0.7 0.69-1.22 1.12-1.56 1.3c-0.35 0.17-0.87 0.43-1.56 0.78c-2.43 3.11-3.63 5.88-3.63 8.31v0zm5.19 10.9c-2.77 2.77-5.71 3.46-8.83 2.08c0-0.7-0.52-1.04-1.56-1.04c0-0.35 0.17-0.7 0.52-1.04c0.69-0.7 1.04-1.22 1.04-1.56c0.69-2.77 0.17-4.07-1.56-3.89c-1.74 0.17-2.94 0.6-3.63 1.3c-0.7-1.39-1.04-2.6-1.04-3.63c-0.35-0.7-0.52-1.22-0.52-1.56c3.46-1.39 7.09-1.74 10.9-1.04c0 3.8 1.56 7.27 4.67 10.38v0zm-15.05 0.52c0-1.74 0.34-2.94 1.04-3.63c0.69 1.38 1.21 2.25 1.56 2.6c-1.39 0.69-2.25 1.04-2.6 1.04v0zm1.56-4.15c0.69-0.7 1.64-1.13 2.86-1.3c1.21-0.18 1.64 0.43 1.3 1.82c-0.7 1.04-1.56 1.9-2.6 2.6l-1.56-3.11zm-0.52 0c-1.39 1.04-2.08 2.6-2.08 4.67h-1.56c0-0.7-0.09-2.08-0.26-4.15c-0.18-2.08-0.44-3.46-0.78-4.15c0.69-0.35 1.12-0.61 1.3-0.78c0.17-0.18 0.6-0.44 1.3-0.78c0 0.69 0.17 1.38 0.52 2.08l1.56 3.11zm-9.86 7.79c0 0.69 0.17 1.21 0.52 1.56c-0.7 0-2.08 0-4.15 0c-2.08 0-3.46-0.18-4.15-0.52c1.38-2.08 2.6-3.63 3.63-4.67c0.69 0.34 1.3 0.6 1.82 0.78c0.52 0.17 1.12 0.43 1.82 0.78c0.34 0.69 0.52 1.38 0.52 2.08zm14.02-2.34c0.34 0.17 0.69 0.43 1.04 0.78c3.46 1.73 5.97 2.08 7.53 1.04c1.56-1.04 2.51-1.91 2.86-2.6c1.04 1.04 1.9 1.73 2.6 2.08c0.69 0.34 1.21 0.52 1.56 0.52c-1.74 2.08-4.41 3.8-8.05 5.19c-3.63 1.38-7.01 0.52-10.12-2.6c-0.7-0.7-1.39-1.74-2.08-3.11c0.34 0 1.56-0.7 3.63-2.08c0.34 0.34 0.69 0.6 1.04 0.78zm20.76-7.53c2.08-1.39 3.29-2.77 3.63-4.15c0.34-1.04 0.52-1.91 0.52-2.6c0.69 0 1.82 0.34 3.37 1.04c1.56 0.69 2.68 1.21 3.37 1.56c2.77 0.69 5.01 1.21 6.75 1.56c-1.04 1.04-2 2.16-2.86 3.37c-0.87 1.21-2 2.68-3.37 4.41c-1.74 1.73-3.81 2.86-6.23 3.37c-2.43 0.52-5.02 0.6-7.79 0.26c1.73-2.77 2.6-5.71 2.6-8.83v0zm-24.4-18.69h2.6c-1.04 1.04-1.56 1.9-1.56 2.6c-1.74 2.08-2.77 4.15-3.11 6.23c-0.35 2.08-0.52 4.15-0.52 6.23c-0.7 0.34-1.22 0.6-1.56 0.78c-0.35 0.17-0.87 0.43-1.56 0.78c0-1.39-0.09-2.6-0.26-3.63c-0.18-1.04-0.44-2.25-0.78-3.63c2.77-3.46 4.15-6.75 4.15-9.86c0.34 0.34 1.21 0.52 2.6 0.52v0zm-35.04-2.86c0.17-0.87 0.78-1.82 1.82-2.86c1.38-1.39 3.8-2.34 7.27-2.86c3.46-0.52 6.05 1.64 7.79 6.49c-2.08 0-3.81 0.69-5.19 2.08c-2.08 1.38-2.25 2.94-0.52 4.67c0.69 0.69 1.56 1.12 2.6 1.3c1.04 0.17 1.9-0.26 2.6-1.3c1.04-1.74 1.38-3.81 1.04-6.23c2.08 0 4.15 1.04 6.23 3.11c1.38 1.38 2.42 3.46 3.11 6.23c-2.43 2.42-5.54 3.8-9.34 4.15h-5.19c-0.35-3.11-2.08-6.23-5.19-9.34c-2.77-2.08-5.37-3.11-7.79-3.11c0.34-0.7 0.6-1.48 0.78-2.34zm16.87 3.89c-0.35 0.69-0.87 1.38-1.56 2.08c-1.04 1.04-2.08 1.56-3.11 1.56c-1.04 0-1.39-0.7-1.04-2.08c0-1.04 0.34-1.91 1.04-2.6c0.69-0.35 1.38-0.7 2.08-1.04c0.69-0.35 1.56-0.52 2.6-0.52c0.34 1.04 0.34 1.9 0 2.6zm-5.19 10.9c-3.46-0.35-6.75-1.91-9.86-4.67c-2.43-2.43-3.29-4.85-2.6-7.27c3.11 0 5.53 1.04 7.27 3.11c2.42 1.73 4.15 4.67 5.19 8.83v0zm-9.86 0c1.73 0 2.42 0.69 2.08 2.08c0 0.69-0.61 1.47-1.82 2.34c-1.22 0.86-2.68 1.3-4.41 1.3c0-3.81 1.38-5.71 4.15-5.71v0zm-4.15 6.75c1.73 0.69 3.63 0.34 5.71-1.04c1.73-2.08 1.73-3.98 0-5.71c0-0.35-0.52-0.52-1.56-0.52c-1.04 0-2.08 0.6-3.11 1.82c-1.04 1.21-1.74 2.51-2.08 3.89c-4.15-0.7-6.23-3.29-6.23-7.79c0-2.43 0.86-4.5 2.6-6.23c2.08-1.74 3.8-2.77 5.19-3.11c0 2.08 1.21 4.67 3.63 7.79c3.11 3.8 6.57 5.88 10.38 6.23v4.67c0 1.38-0.61 3.11-1.82 5.19c-1.22 2.08-2.34 3.46-3.37 4.15c-1.39-0.35-3.46-1.56-6.23-3.63c-1.39-0.7-2.43-2.6-3.11-5.71v0zm14.54-4.67c2.08 0.69 3.8 0.86 5.19 0.52c2.08-0.35 3.97-0.96 5.71-1.82c1.73-0.87 3.29-1.82 4.67-2.86c0.69 2.77 1.04 5.19 1.04 7.27c-2.77 2.08-4.67 3.63-5.71 4.67c-1.04-2.43-2.25-3.98-3.63-4.67c-1.39-0.35-2.43-0.35-3.11 0c-1.39 1.04-1.39 2.25 0 3.63c0.69 1.73 1.9 2.94 3.63 3.63c-0.7 1.04-1.39 1.99-2.08 2.86c-0.7 0.86-1.39 1.64-2.08 2.34c-1.04-0.35-2.17-0.52-3.37-0.52c-1.22 0-2.51-0.18-3.89-0.52c3.46-4.15 4.67-9 3.63-14.54v0zm-21.02 14.54c-0.18-0.7 0.08-1.39 0.78-2.08c0.69-0.7 1.38-0.87 2.08-0.52c0.69 0.34 1.21 0.86 1.56 1.56c1.38 1.38 2.25 2.94 2.6 4.67c-2.77 0-4.67-0.52-5.71-1.56c-0.7-0.7-1.13-1.39-1.3-2.08zm7.53 5.71h2.6c1.04-0.7 2.16-1.48 3.37-2.34c1.21-0.87 2.51-1.82 3.89-2.86c0.69 0.69 1.73 1.12 3.11 1.3c1.38 0.17 2.6 0.26 3.63 0.26c-0.7 1.38-1.22 2.25-1.56 2.6c-4.5 0-8.48 1.21-11.94 3.63c-1.39 0.69-2.43 1.38-3.11 2.08v-4.67zm13.5 10.38c-2.77 0-5.37 1.04-7.79 3.11c-0.7 0.69-1.13 1.21-1.3 1.56c-0.18 0.34-0.44 0.86-0.78 1.56c-2.43-4.85-3.63-8.65-3.63-11.42c5.19-4.15 10.2-5.89 15.05-5.19c-1.74 3.11-2.25 6.57-1.56 10.38v0zm-7.27 23.88c1.73 0.69 2.42 1.73 2.08 3.11c-0.35 1.38-1.04 2.25-2.08 2.6c-0.7 0.69-2 0.6-3.89-0.26c-1.91-0.87-3.55-2.17-4.93-3.89c3.11-2.43 6.05-2.94 8.83-1.56v0zm-13.5 6.75c1.04-1.74 2.08-2.94 3.11-3.63c1.73 2.08 3.46 3.37 5.19 3.89c1.73 0.52 3.29 0.43 4.67-0.26c2.42-0.7 3.54-2 3.37-3.89c-0.18-1.91-1.13-3.2-2.86-3.89c-1.04-0.35-2.43-0.44-4.15-0.26c-1.74 0.17-3.63 0.95-5.71 2.34c0-0.7-0.61-1.91-1.82-3.63c-1.22-1.74-2-4.33-2.34-7.79c0-3.11 0.52-5.89 1.56-8.31c0.69-2.08 1.56-3.89 2.6-5.45c1.04-1.56 2.08-2.86 3.11-3.89c0.34 1.04 0.78 2.51 1.3 4.41c0.52 1.9 1.3 4.06 2.34 6.49c-0.7 1.73-0.96 3.63-0.78 5.71c0.17 2.08 0.95 3.63 2.34 4.67c1.04 1.73 2.25 2.68 3.63 2.86c1.38 0.17 2.42 0.26 3.11 0.26c0.69 2.42 1.38 4.67 2.08 6.75c0.69 2.08 1.21 4.49 1.56 7.27c-2.77 1.04-6.23 2.77-10.38 5.19c-1.39 0.69-2.77 1.47-4.15 2.34c-1.39 0.86-2.6 1.82-3.63 2.86c-2.77-1.74-4.33-4.15-4.67-7.27c-0.7-2.77-0.52-5.02 0.52-6.75zm14.02 8.31c1.04-0.7 2.42-1.39 4.15-2.08c1.73-0.7 2.94-1.04 3.63-1.04c0 2.77-1.04 5.01-3.11 6.75c-2.08 2.08-4.85 3.46-8.31 4.15c-2.43 0-4.33-0.52-5.71-1.56c2.08-2.43 5.19-4.5 9.34-6.23v0zm-14.54 17.65c0-0.7 0.34-2.17 1.04-4.41c0.69-2.25 1.9-4.41 3.63-6.49c0.69 0.69 1.64 1.21 2.86 1.56c1.21 0.34 2.34 0.69 3.37 1.04c4.15 0 6.92-1.04 8.31-3.11c2.42-2.08 3.63-5.37 3.63-9.86c3.8-1.39 7.27-3.81 10.38-7.27c3.46-4.15 4.67-9.17 3.63-15.05c0-0.35 0.08-0.52 0.26-0.52c0.17 0 0.26-0.18 0.26-0.52c1.73-1.74 3.11-3.81 4.15-6.23c1.04-2.43 1.21-5.02 0.52-7.79c0-2.08-1.04-4.15-3.11-6.23c-1.39-1.39-2.77-2.08-4.15-2.08v-2.08c2.08 0 3.71 0.34 4.93 1.04c1.21 0.69 1.82 0.86 1.82 0.52c0-0.35-0.18-0.87-0.52-1.56c-0.7-1.39-1.04-2.94-1.04-4.67h2.08c0.69 1.73 1.56 2.77 2.6 3.11c2.77 2.77 5.88 4.15 9.34 4.15c4.49 0 8.31-2.08 11.42-6.23c1.04 0.34 2.42 0.52 4.15 0.52c4.84 0 8.48-1.22 10.9-3.63c1.73-1.74 3.97-4.85 6.75-9.34c4.84 0 7.96-1.22 9.34-3.63c2.42-2.08 3.63-5.02 3.63-8.83c0-1.74-0.09-3.03-0.26-3.89c-0.18-0.87-0.61-2-1.3-3.37c1.04-0.7 2.42-1.65 4.15-2.86c1.73-1.22 3.8-1.82 6.23-1.82h42.57c1.73 0 3.63 0.6 5.71 1.82c2.08 1.21 3.63 2.16 4.67 2.86c-1.04 2.08-1.56 4.32-1.56 6.75c0 3.46 1.21 6.23 3.63 8.31c2.08 2.77 5.19 4.15 9.34 4.15c0.69 1.38 1.56 2.68 2.6 3.89c1.04 1.21 2.42 2.68 4.15 4.41c4.15 4.15 9.51 5.71 16.09 4.67c0 0.34 0.26 0.69 0.78 1.04c0.52 0.34 0.95 0.69 1.3 1.04c1.73 1.73 4.41 3.11 8.05 4.15c3.63 1.04 6.83 0.17 9.6-2.6c1.73-1.74 2.6-3.63 2.6-5.71c0.34 0.34 1.04 0.52 2.08 0.52c-0.35 0.69-0.52 1.47-0.52 2.34c0 0.86-0.18 1.64-0.52 2.34c-0.35 1.04-0.7 1.9-1.04 2.6c0.69-0.35 1.56-0.7 2.6-1.04c2.08-0.7 3.63-1.04 4.67-1.04v2.08c-1.39 0-2.77 0.69-4.15 2.08c-3.11 3.11-4.15 6.57-3.11 10.38c1.04 3.8 2.6 6.92 4.67 9.34c0.34 0.34 0.69 0.52 1.04 0.52c-1.74 5.88-0.78 10.72 2.86 14.54c3.63 3.8 7.18 6.75 10.64 8.83c0 4.49 1.21 7.79 3.63 9.86c1.73 2.08 3.97 3.29 6.75 3.63c2.77 0.34 5.36-0.35 7.79-2.08c3.11 3.8 4.67 7.61 4.67 11.42v193.11c0 2.42-0.61 4.49-1.82 6.23c-1.22 1.73-2.34 3.11-3.37 4.15c-2.08-1.39-4.5-1.91-7.27-1.56c-2.77 0.34-5.02 1.56-6.75 3.63c-2.43 2.08-3.63 5.19-3.63 9.34c-2.08 1.38-5.19 3.8-9.34 7.27c-2.08 2.08-3.46 4.41-4.15 7.01c-0.7 2.6-0.7 5.27 0 8.05c-0.7 0.69-1.65 1.9-2.86 3.63c-1.22 1.73-2 3.29-2.34 4.67c-1.74 4.84-0.87 9.34 2.6 13.5c0.69 1.04 2.08 1.9 4.15 2.6v1.04c-1.04-0.35-2-0.52-2.86-0.52c-0.87 0-1.65-0.18-2.34-0.52c-0.7-0.35-1.22-0.7-1.56-1.04c0 1.04 0.17 2.08 0.52 3.11c0.34 1.04 0.69 2.42 1.04 4.15h-1.56c-0.35-1.04-1.39-2.43-3.11-4.15c-3.11-3.46-6.58-4.59-10.38-3.37c-3.81 1.21-6.75 2.68-8.83 4.41c-0.35 0.34-0.52 0.6-0.52 0.78c0 0.17-0.18 0.43-0.52 0.78c-1.39-0.7-3.72-0.87-7.01-0.52c-3.29 0.34-6.15 1.73-8.57 4.15c-2.08 1.73-3.63 3.37-4.67 4.93c-1.04 1.56-2.08 3.2-3.11 4.93c-4.15 0-6.93 1.04-8.31 3.11c-3.11 2.42-4.33 5.53-3.63 9.34c0 1.73 0.52 3.46 1.56 5.19c-1.39 1.38-2.94 2.6-4.67 3.63c-1.74 1.04-3.63 1.56-5.71 1.56h-42.57c-3.81 0-7.27-1.56-10.38-4.67c3.46-5.19 2.77-10.21-2.08-15.05c-1.39-2.43-4.5-3.63-9.34-3.63c-0.7-1.39-1.56-2.77-2.6-4.15c-1.04-1.39-2.43-2.94-4.15-4.67c-3.11-3.11-6.93-4.67-11.42-4.67c-0.7 0-1.56 0.08-2.6 0.26c-1.04 0.17-1.56 0.08-1.56-0.26c-1.74-1.74-4.59-3.46-8.57-5.19c-3.98-1.74-7.88-0.7-11.68 3.11c-0.7 0.69-1.3 1.3-1.82 1.82c-0.52 0.52-0.96 1.3-1.3 2.34h-1.56c0-1.39 0.34-3.11 1.04-5.19c0.34-1.04 0.69-1.74 1.04-2.08c-0.35 0.34-1.04 0.69-2.08 1.04c-0.7 0.34-1.56 0.52-2.6 0.52c-1.04 0-1.91 0.17-2.6 0.52v-1.56c2.08 0 3.63-0.52 4.67-1.56c2.08-2.08 3.2-4.24 3.37-6.49c0.17-2.25-0.09-4.59-0.78-7.01c-0.7-2.08-1.56-3.81-2.6-5.19c-1.04-1.39-1.91-2.43-2.6-3.11v-7.27c-0.7-1.74-1.3-3.2-1.82-4.41c-0.52-1.22-1.48-2.51-2.86-3.89c-2.08-1.74-3.72-3.2-4.93-4.41c-1.22-1.22-2.68-2.17-4.41-2.86c0-4.15-1.22-7.27-3.63-9.34c-1.74-2.08-3.98-3.29-6.75-3.63c-2.77-0.35-5.37 0.34-7.79 2.08c-1.39-1.39-2.51-3.11-3.37-5.19c-0.87-2.08-1.3-3.98-1.3-5.71v-194.67zm18.95 234.64c0.17-1.04 0.26-1.91 0.26-2.6c2.42 0 4.49 1.21 6.23 3.63c-2.08 0-4.15 0.52-6.23 1.56c-0.35-0.7-0.44-1.56-0.26-2.6zm7.27 3.89c0.17 1.21-0.44 1.99-1.82 2.34c-1.04 0.69-2 0.6-2.86-0.26c-0.87-0.87-1.65-1.82-2.34-2.86c1.04-0.7 2.08-1.04 3.11-1.04c1.04 0 2.25-0.18 3.63-0.52c0 0.34 0.08 1.12 0.26 2.34zm-3.37-5.97c-1.39-0.35-2.6-0.87-3.63-1.56c0.69-0.7 1.47-2.68 2.34-5.97c0.86-3.29 1.3-5.8 1.3-7.53c1.73 0.69 3.2 1.56 4.41 2.6c1.21 1.04 2.68 2.42 4.41 4.15c2.42 2.42 3.8 5.01 4.15 7.79c0.69 2.42 0.52 4.67-0.52 6.75c-1.39-1.04-3.46-1.91-6.23-2.6c-1.39-0.35-2.43-0.52-3.11-0.52c-0.7-1.74-1.74-2.77-3.11-3.11zm-4.67 4.67c-0.7 0.69-1.39 1.3-2.08 1.82c-0.7 0.52-1.39 1.12-2.08 1.82c-0.7 0.69-1.13 1.21-1.3 1.56c-0.18 0.34-0.61 0.86-1.3 1.56c-0.35-1.04-0.52-2.77-0.52-5.19c0-2.77 0.95-4.67 2.86-5.71c1.9-1.04 3.54-1.39 4.93-1.04c-0.35 1.04-0.52 2.77-0.52 5.19v0zm-2.08 2.34c0.69-0.52 1.38-0.96 2.08-1.3c0 1.04 0.34 1.9 1.04 2.6c1.38 2.08 3.11 2.77 5.19 2.08c1.73-1.04 2.6-2.43 2.6-4.15c0-1.04-0.18-1.91-0.52-2.6c3.46 0 6.4 0.86 8.83 2.6c-0.7 2.08-1.74 4.15-3.11 6.23c-3.46-1.74-6.41-0.87-8.83 2.6c-0.35 0.34-0.52 0.69-0.52 1.04c0 0.34-0.18 0.69-0.52 1.04c-4.85 0.34-8.31-1.39-10.38-5.19c0.34-0.7 0.69-1.3 1.04-1.82c0.34-0.52 0.69-1.13 1.04-1.82c0.69-0.35 1.38-0.78 2.08-1.3zm18.69 7.53l-1.04-1.56c1.38-2.08 2.25-3.98 2.6-5.71c2.08 2.08 3.8 4.67 5.19 7.79c0.34 1.73 0.34 3.54 0 5.45c-0.35 1.9-1.39 3.71-3.11 5.45c-1.04 1.04-2.25 1.9-3.63 2.6c-0.35-0.7-0.61-1.13-0.78-1.3c-0.18-0.18-0.44-0.61-0.78-1.3c1.04-1.04 1.56-1.91 1.56-2.6c2.42-3.46 2.42-6.41 0-8.83v0zm-6.23 9.34c0.69-0.7 1.38-0.87 2.08-0.52c0.69 0.34 1.04 0.69 1.04 1.04c-0.35 0.69-0.78 1.12-1.3 1.3c-0.52 0.17-1.13 0.6-1.82 1.3c-0.7-1.74-0.7-2.77 0-3.11v0zm-4.67-8.83c2.42-2.77 5.01-3.63 7.79-2.6v0.52c-2.43 2.08-5.37 3.46-8.83 4.15c0-0.7 0.34-1.39 1.04-2.08v0zm9.34-1.56l1.56 1.56c1.04 1.73 1.04 3.8 0 6.23c-0.7 0.69-1.13 1.21-1.3 1.56c-0.18 0.34-0.61 0.69-1.3 1.04l-0.52-0.52c-0.35 0-0.52-0.09-0.52-0.26c0-0.18-0.18-0.26-0.52-0.26c-1.39-0.35-2.34 0-2.86 1.04c-0.52 1.04-0.44 2.08 0.26 3.11c-0.7 0-1.56 0.17-2.6 0.52c-1.04 0.34-1.91 0.69-2.6 1.04c-1.39-3.81-1.56-6.58-0.52-8.31c1.73 0 3.46-0.52 5.19-1.56c1.73-1.04 3.29-2.25 4.67-3.63c0.69 0 1.04-0.52 1.04-1.56v0zm0.26 13.76c0.17 0.17 0.26 0.6 0.26 1.3c-1.39 0-2.25-0.18-2.6-0.52c0.69-0.7 1.38-1.22 2.08-1.56c0 0.34 0.08 0.6 0.26 0.78zm-10.64-43.35c-1.39-0.7-3.11-1.39-5.19-2.08l-3.11-1.56c-1.74-1.04-3.37-2-4.93-2.86c-1.56-0.87-3.03-2.17-4.41-3.89c2.08-1.74 4.49-2.43 7.27-2.08c2.77 0.34 5.01 1.56 6.75 3.63c1.73 1.73 2.94 4.67 3.63 8.83v0zm-8.83 5.19c1.04 0.34 1.73 1.12 2.08 2.34c0.34 1.21-0.35 2.16-2.08 2.86c-2.08 1.38-5.02 0.69-8.83-2.08c3.11-3.46 6.05-4.5 8.83-3.11v0zm-10.38 4.67c3.46 3.46 6.75 4.15 9.86 2.08c2.77-1.04 3.97-2.43 3.63-4.15c-0.35-1.74-1.39-2.77-3.11-3.11c-3.11-1.39-6.41-0.35-9.86 3.11c0-0.7-0.35-1.04-1.04-1.04c-2.43-2.43-3.63-5.02-3.63-7.79c0-2.43 0.69-4.41 2.08-5.97c1.38-1.56 2.42-2.68 3.11-3.37c1.38 1.73 2.94 3.11 4.67 4.15c1.73 1.04 3.46 2.08 5.19 3.11l3.11 1.56c0.69 0.34 1.56 0.69 2.6 1.04c1.04 0.34 1.9 0.52 2.6 0.52c-0.35 2.08-1.04 4.75-2.08 8.05c-1.04 3.29-1.56 5.45-1.56 6.49h-0.52c-1.74 0-3.55 0.6-5.45 1.82c-1.91 1.21-3.03 3.2-3.37 5.97c0 1.04 0.08 1.99 0.26 2.86c0.17 0.86 0.43 1.82 0.78 2.86c-1.39 2.77-2.25 4.93-2.6 6.49c-0.35 1.56-0.7 3.2-1.04 4.93c-1.04-1.74-2.08-3.29-3.11-4.67c-1.04-1.39-1.91-3.11-2.6-5.19c-2.77-7.27-2.08-13.85 2.08-19.73v0zm5.19 24.66c0.34-1.56 1.21-3.55 2.6-5.97c1.04 1.73 2.25 3.29 3.63 4.67c1.38 1.38 3.46 2.42 6.23 3.11c-0.35 2.08 0 4.84 1.04 8.31c-5.19 0-10.04-1.74-14.54-5.19c0.34-1.74 0.69-3.37 1.04-4.93zm-7.01 14.28c1.56-1.39 3.37-2.08 5.45-2.08c-0.7 2.42-1.74 4.23-3.11 5.45c-1.39 1.21-2.43 1.47-3.11 0.78c-1.04-1.39-0.78-2.77 0.78-4.15zm7.27-2.34c-0.18-0.18-0.61-0.26-1.3-0.26v-5.19c0.69 0.34 1.21 0.69 1.56 1.04c0.34 0.34 0.86 0.69 1.56 1.04c4.49 3.46 8.65 4.67 12.46 3.63l1.04 2.08l-7.79 1.56c-1.74-1.74-3.81-2.94-6.23-3.63v0c-0.7 0-1.13-0.09-1.3-0.26zm20.51 9.08c-2.43 1.04-3.81 2.25-4.15 3.63c-0.35 0-0.61 0.34-0.78 1.04c-0.18 0.69 0.08 1.38 0.78 2.08c1.04 1.38 2.42 1.56 4.15 0.52c1.73-1.04 2.94-2.43 3.63-4.15c1.38 1.38 3.11 2.6 5.19 3.63c-0.35 3.11-1.04 5.71-2.08 7.79c-2.77-2.43-6.06-3.81-9.86-4.15h-5.19c0.34-1.74 0.34-3.29 0-4.67c0-2.43-0.44-4.41-1.3-5.97c-0.87-1.56-1.65-3.03-2.34-4.41c0.69-0.35 1.73-0.61 3.11-0.78c1.38-0.18 2.77-0.44 4.15-0.78l4.67 6.23zm-17.13 10.38c-1.39 1.73-2.77 1.9-4.15 0.52c-1.04-1.74-1.56-3.29-1.56-4.67c2.08-0.7 3.8-0.35 5.19 1.04c0.34 0.69 0.52 1.73 0.52 3.11v0zm-12.98 4.15c0-2.08 0.86-3.98 2.6-5.71c0.69-0.7 1.3-1.22 1.82-1.56c0.52-0.35 1.12-0.7 1.82-1.04c0.34 0.69 0.6 1.56 0.78 2.6c0.17 1.04 0.6 1.9 1.3 2.6c2.08 2.08 3.8 2.25 5.19 0.52c1.04-1.74 0.86-3.46-0.52-5.19c-2.08-1.39-3.98-1.74-5.71-1.04c0-1.39 0.34-2.6 1.04-3.63c0.69-1.04 1.38-1.91 2.08-2.6c2.77-2.08 5.01-3.29 6.75-3.63c2.77 2.77 4.32 6.05 4.67 9.86v4.67c-4.15 1.04-7.62 2.94-10.38 5.71c-2.43 3.11-3.63 5.53-3.63 7.27c-1.74 0-3.46-0.87-5.19-2.6c-1.74-1.04-2.6-3.11-2.6-6.23v0zm19.47 1.3c-0.87 1.21-2 2.68-3.37 4.41c-2.77 2.08-5.37 3.11-7.79 3.11c0-1.74 1.04-3.98 3.11-6.75c1.38-1.39 2.77-2.51 4.15-3.37c1.38-0.87 3.29-1.48 5.71-1.82c-0.35 1.73-0.96 3.2-1.82 4.41zm-10.64 9.08c3.11 0.69 5.71 0 7.79-2.08c3.46-3.46 5.19-7.27 5.19-11.42c1.38-0.35 3.11-0.35 5.19 0c2.08 0 3.89 0.43 5.45 1.3c1.56 0.86 2.86 1.64 3.89 2.34c-0.7 2.08-1.74 4.15-3.11 6.23c-1.74 2.08-3.63 3.46-5.71 4.15c0-2.77-0.7-4.67-2.08-5.71c-0.35-0.7-1.22-1.04-2.6-1.04c-1.04 0-1.74 0.17-2.08 0.52c-1.39 1.38-1.22 2.94 0.52 4.67c0.34 1.04 1.73 1.9 4.15 2.6c-0.35 0.34-0.52 0.69-0.52 1.04c0 0.34-0.35 0.69-1.04 1.04c-2.43 2.42-4.76 3.54-7.01 3.37c-2.25-0.18-4.07-0.96-5.45-2.34c-1.04-0.7-1.91-2.25-2.6-4.67v0z" />
	<path id="hors" class="s0" d="m168 181c11.67 3.33 23.33 6.67 35 10c-0.67-1.67-1.33-3.33-2-5c4 1.67 8 3.33 12 5c2.33-2.33 4.67-4.67 7-7c-0.33 2.67-0.67 5.33-1 8c1.67-1.33 3.33-2.67 5-4c-0.67 4.67-1.33 9.33-2 14c11.79 9.91 20.23 27.34 26 43c-4.51 5.54-6.86 9.62-16 8c-5.1-12.69-16.98-17.92-31-21c-14.11 20.99-13.76 29.5-22 57c-0.33 0-0.67 0-1 0c2.72-36.92-48.62-37.7-72-53c4-0.33 8-0.67 12-1c-2.33-1-4.67-2-7-3c4-0.33 8-0.67 12-1c0-3 0-6 0-9c-5-1.33-10-2.67-15-4c14.87-1.25 30.13 4.32 41 1c0-1.33 0-2.67 0-4c-2.67-0.67-5.33-1.33-8-2c0.33-0.67 0.67-1.33 1-2c6.58-1.22 21.43-1.11 26-5c-9.25 2.88-17.81-1.67-22-7c7.09 2.11 11.53 2.68 19 1c0.33-1 0.67-2 1-3c-1.33-1-2.67-2-4-3c6.58-1.48 11.54-1.56 19-1c0-0.67 0-1.33 0-2c-9.92-4.23-17.34-7.63-28-1c0.67-1.33 1.33-2.67 2-4c4.33-1.67 8.67-3.33 13-5zm30 4c1 0 2 0 3 0c-1 0-2 0-3 0zm25 31c0.67 1 1.33 2 2 3c-0.67-1-1.33-2-2-3zm-46 73c0.33 0.67 0.67 1.33 1 2c-0.33-0.67-0.67-1.33-1-2z" />
</svg>