<svg version="1.2" baseProfile="tiny-ps" xmlns="http://www.w3.org/2000/svg" viewBox="0 0 350 480" width="350" height="480">
	<title>xbg1</title>
	<style>
		tspan { white-space:pre }
		.shp0 { opacity: 0.541;fill: #5f9070 } 
		.shp1 { opacity: 0.212;fill: #000000 } 
		.shp2 { fill: #838885 } 
		.shp3 { fill: #e4e4e4 } 
	</style>
	<path id="mainbg" class="shp0" d="M41 5L310 5C316.08 5 321 9.92 321 16L321 436L30 436L30 16C30 9.92 34.92 5 41 5Z" />
	<path id="shadow" class="shp1" d="M321 424.97C321 424.97 320.92 433.39 321 435L30 435C29.93 435 30 421 30 421C30 419.45 31.72 417.62 31.82 417.55C44.6 389.29 101.45 367.96 175.93 367.96C256.05 367.96 318.53 394.98 321 424.05C321.01 424.14 320.98 424.22 320.93 424.3C320.95 424.52 320.98 424.74 321 424.97Z" />
	<path id="framebottom" class="shp2" d="M45 443L306 443L306 455L45 455L45 443ZM60 448L27.52 448L18 431L18 373.46L25.03 360.38L25.03 329L30.02 329L30.13 431L32.52 436.23L52.51 436.23L60 448ZM298.49 436.23L318.48 436.23L320.87 431L320.98 329L325.97 329L325.97 360.38L333 373.46L333 431L323.48 448L291 448L298.49 436.23Z" />
	<path id="rectmid" class="shp2" d="M83 435L267 435C267 435 267 445.33 267 449.99C267 456.67 267 454.1 267 460.37C267 464.31 267 472 267 472L83 472C83 472 83 464.54 83 460.89C83 454.14 83 456.3 83 449.42C83 445.6 83 435 83 435Z" />
	<path id="recttext" class="shp3" d="M88 438L263 438C263 438 263 446.65 263 450.56C263 456.16 263 454 263 459.26C263 462.55 263 469 263 469L88 469C88 469 88 462.75 88 459.69C88 454.03 88 455.85 88 450.09C88 446.88 88 438 88 438Z" />
</svg>