<svg version="1.2" baseProfile="tiny-ps" xmlns="http://www.w3.org/2000/svg" viewBox="0 0 350 480" width="350" height="480">
	<title>xbg16.svg</title>
	<defs>
		<linearGradient id="grd1" gradientUnits="userSpaceOnUse"  x1="85.5" y1="156.9" x2="264.5" y2="318.1">
			<stop offset=".4" stop-color="#000" stop-opacity=".2" />
			<stop offset="80%" stop-color="#000" stop-opacity="0" />
		</linearGradient>


   <radialGradient id="rgrad" cx="50%" cy="10%" r="80%" >
    
            <stop offset="5%" style="stop-color:rgb(255,192,130);stop-opacity:0.66" />
            <stop offset="30%" style="stop-color:rgb(205,129,54);stop-opacity:0.66" />
            <stop offset="79%" style="stop-color:rgb(111,64,17);stop-opacity:0.66" />

    </radialGradient>
  
	</defs>
	<style>
		tspan { white-space:pre }
		.s0 { fill: #d4cdb8 } 
		.s1 { fill: #670f8a } 
		.s2 { fill: url(#grd1) } 
		.s3 { opacity: 1;fill: rgba(0,0,0,0.00);stroke: #d4cdb8;stroke-width: 1 } 
#hors{opacity:0;}
#main{opacity:1;}
#ingalben{opacity:.5;fill: url(#rgrad)}
	</style>
	<path id="main" class="s0" d="m23 16h304c3.87 0 7 3.13 7 7v431c0 3.87-3.13 7-7 7h-304c-3.87 0-7-3.13-7-7v-431c0-3.87 3.13-7 7-7z" />
	<path id="ingalben" class="s1" d="m332 352v97c0 3.87-3.13 7-7 7h-300c-3.87 0-7-3.13-7-7v-97c0-3.53 2.61-6.43 6-6.92v-217.16c-3.39-0.49-6-3.39-6-6.92v-97c0-3.87 3.13-7 7-7h300c3.87 0 7 3.13 7 7v97c0 3.87-3.13 7-7 7v217c3.87 0 7 3.13 7 7z" />
	<path id="stars" class="s0" d="m323.1 383.18l1.09 5.99c0.01 0.06 0.01 0.14 0.01 0.24c0 0.17-0.04 0.31-0.13 0.43c-0.09 0.12-0.22 0.17-0.39 0.17c-0.16 0-0.33-0.05-0.51-0.14l-5.67-2.83l-5.67 2.83c-0.19 0.1-0.35 0.14-0.51 0.14c-0.18 0-0.31-0.06-0.4-0.17c-0.09-0.12-0.13-0.26-0.13-0.43c0-0.05 0.01-0.13 0.03-0.24l1.09-5.99l-4.6-4.24c-0.21-0.22-0.32-0.41-0.32-0.57c0-0.3 0.24-0.48 0.71-0.55l6.34-0.87l2.84-5.45c0.16-0.33 0.37-0.49 0.62-0.49c0.25 0 0.46 0.16 0.62 0.49l2.84 5.45l6.34 0.87c0.47 0.07 0.71 0.26 0.71 0.55c0 0.18-0.11 0.37-0.33 0.57l-4.58 4.24zm-284 43l1.09 5.99c0.01 0.06 0.01 0.14 0.01 0.24c0 0.17-0.04 0.31-0.13 0.43c-0.09 0.12-0.22 0.17-0.39 0.17c-0.16 0-0.33-0.05-0.51-0.14l-5.67-2.83l-5.67 2.83c-0.19 0.1-0.35 0.14-0.51 0.14c-0.18 0-0.31-0.06-0.4-0.17c-0.09-0.12-0.13-0.26-0.13-0.43c0-0.05 0.01-0.13 0.03-0.24l1.09-5.99l-4.6-4.24c-0.21-0.22-0.32-0.41-0.32-0.57c0-0.3 0.24-0.48 0.71-0.55l6.34-0.87l2.84-5.45c0.16-0.33 0.37-0.49 0.62-0.49c0.25 0 0.46 0.16 0.62 0.49l2.84 5.45l6.34 0.87c0.47 0.07 0.71 0.26 0.71 0.55c0 0.18-0.11 0.37-0.33 0.57l-4.58 4.24zm0-43l1.09 5.99c0.01 0.06 0.01 0.14 0.01 0.24c0 0.17-0.04 0.31-0.13 0.43c-0.09 0.12-0.22 0.17-0.39 0.17c-0.16 0-0.33-0.05-0.51-0.14l-5.67-2.83l-5.67 2.83c-0.19 0.1-0.35 0.14-0.51 0.14c-0.18 0-0.31-0.06-0.4-0.17c-0.09-0.12-0.13-0.26-0.13-0.43c0-0.05 0.01-0.13 0.03-0.24l1.09-5.99l-4.6-4.24c-0.21-0.22-0.32-0.41-0.32-0.57c0-0.3 0.24-0.48 0.71-0.55l6.34-0.87l2.84-5.45c0.16-0.33 0.37-0.49 0.62-0.49c0.25 0 0.46 0.16 0.62 0.49l2.84 5.45l6.34 0.87c0.47 0.07 0.71 0.26 0.71 0.55c0 0.18-0.11 0.37-0.33 0.57l-4.58 4.24zm274.95 36.76l2.84-5.45c0.16-0.33 0.37-0.49 0.62-0.49c0.25 0 0.46 0.16 0.62 0.49l2.84 5.45l6.34 0.87c0.47 0.07 0.71 0.26 0.71 0.55c0 0.18-0.11 0.37-0.33 0.57l-4.58 4.24l1.09 5.99c0.01 0.06 0.01 0.14 0.01 0.24c0 0.17-0.04 0.31-0.13 0.43c-0.09 0.12-0.22 0.17-0.39 0.17c-0.16 0-0.33-0.05-0.51-0.14l-5.67-2.83l-5.67 2.83c-0.19 0.1-0.35 0.14-0.51 0.14c-0.18 0-0.31-0.06-0.4-0.17c-0.09-0.12-0.13-0.26-0.13-0.43c0-0.05 0.01-0.13 0.03-0.24l1.09-5.99l-4.6-4.24c-0.21-0.22-0.32-0.41-0.32-0.57c0-0.3 0.24-0.48 0.71-0.55l6.34-0.87z" />
	<path id="shine" class="s2" d="m332 24l-0.04 427c0 0-3.23 4.98-4.96 5c-1.74 0.02-305-0.77-305-0.77c0 0-3.89-0.92-4-3.23c-0.11-2.3 311-433 311-433c0 0 3.04 2.1 3 5z" />
	<path id="hors" class="s0" d="m168 181c11.67 3.33 23.33 6.67 35 10c-0.67-1.67-1.33-3.33-2-5c4 1.67 8 3.33 12 5c2.33-2.33 4.67-4.67 7-7c-0.33 2.67-0.67 5.33-1 8c1.67-1.33 3.33-2.67 5-4c-0.67 4.67-1.33 9.33-2 14c11.79 9.91 20.23 27.34 26 43c-4.51 5.54-6.86 9.62-16 8c-5.1-12.69-16.98-17.92-31-21c-14.11 20.99-13.76 29.5-22 57c-0.33 0-0.67 0-1 0c2.72-36.92-48.62-37.7-72-53c4-0.33 8-0.67 12-1c-2.33-1-4.67-2-7-3c4-0.33 8-0.67 12-1c0-3 0-6 0-9c-5-1.33-10-2.67-15-4c14.87-1.25 30.13 4.32 41 1c0-1.33 0-2.67 0-4c-2.67-0.67-5.33-1.33-8-2c0.33-0.67 0.67-1.33 1-2c6.58-1.22 21.43-1.11 26-5c-9.25 2.88-17.81-1.67-22-7c7.09 2.11 11.53 2.68 19 1c0.33-1 0.67-2 1-3c-1.33-1-2.67-2-4-3c6.58-1.48 11.54-1.56 19-1c0-0.67 0-1.33 0-2c-9.92-4.23-17.34-7.63-28-1c0.67-1.33 1.33-2.67 2-4c4.33-1.67 8.67-3.33 13-5zm30 4c1 0 2 0 3 0c-1 0-2 0-3 0zm25 31c0.67 1 1.33 2 2 3c-0.67-1-1.33-2-2-3zm-46 73c0.33 0.67 0.67 1.33 1 2c-0.33-0.67-0.67-1.33-1-2z" />
</svg>