<svg version="1.2" baseProfile="tiny-ps" xmlns="http://www.w3.org/2000/svg" viewBox="0 0 350 480" width="350" height="480">
	<title>xbg12.svg</title>
<defs>
   <radialGradient id="rgrad" cx="50%" cy="10%" r="80%" >
    
            <stop offset="6%" style="stop-color:rgb(255,0,97);stop-opacity:1.00" />
            <stop offset="58%" style="stop-color:rgb(168,3,66);stop-opacity:1.00" />
            <stop offset="96%" style="stop-color:rgb(91,0,35);stop-opacity:1.00" />

    </radialGradient>
  </defs>
	<style>
		tspan { white-space:pre }
		.s0 { fill: #f7038d } 
		.s1 { opacity: .1;fill: #ffffff } 
		.s2 { opacity: 0;fill: #000000 } 
		.s3 { opacity: .6;fill: #ffffff } 
		.s4 { opacity: .1;fill: #000000 } 
#main{fill: url(#rgrad);}
	</style>
	<path id="main" class="s0" d="m23 16h304c3.87 0 7 3.13 7 7v431c0 3.87-3.13 7-7 7h-304c-3.87 0-7-3.13-7-7v-431c0-3.87 3.13-7 7-7z" />
	<path id="eye" class="s1" d="m204.81 177.64c-9.32 5.63-19.43 8.44-30.31 8.44c-10.88 0-20.99-2.81-30.31-8.44c-9.32-5.63-17.08-13.19-23.26-22.68c7.07-10.93 15.93-19.1 26.58-24.52c-2.84 4.82-4.26 10.03-4.26 15.63c0 8.57 3.06 15.9 9.17 21.98c6.11 6.09 13.47 9.13 22.08 9.13c8.6 0 15.96-3.04 22.08-9.13c6.11-6.09 9.17-13.42 9.17-21.98c0-5.6-1.42-10.81-4.26-15.63c10.65 5.42 19.51 13.59 26.58 24.52c-6.19 9.49-13.94 17.05-23.26 22.68zm-30.31-46.02c-4 0-7.42 1.41-10.25 4.24c-2.84 2.83-4.26 6.23-4.26 10.21c0 0.93-0.33 1.71-0.98 2.36c-0.65 0.65-1.44 0.97-2.37 0.97c-0.93 0-1.72-0.32-2.37-0.97c-0.65-0.65-0.98-1.43-0.98-2.36c0-5.79 2.08-10.75 6.24-14.9c4.16-4.14 9.15-6.22 14.96-6.22c0.93 0 1.72 0.32 2.37 0.97c0.65 0.65 0.98 1.44 0.98 2.36c0 0.93-0.33 1.71-0.98 2.36c-0.65 0.65-1.44 0.97-2.37 0.97v0zm61.1 18.55c-6.51-10.6-15.27-19.12-26.26-25.56c-11-6.44-22.61-9.66-34.84-9.66c-12.23 0-23.85 3.22-34.84 9.66c-11 6.44-19.75 14.96-26.26 25.56c-0.93 1.62-1.4 3.22-1.4 4.79c0 1.57 0.46 3.17 1.4 4.79c6.51 10.6 15.26 19.13 26.26 25.56c11 6.44 22.61 9.66 34.84 9.66c12.23 0 23.84-3.21 34.84-9.62c11-6.41 19.75-14.94 26.26-25.6c0.93-1.62 1.4-3.22 1.4-4.79c0-1.57-0.47-3.17-1.4-4.79v0z" />
	<path id="cgclogo" class="s2" d="m299.88 126.93c-8.38 5.85-24.23 7.36-39.34 9.3c11.89 0.86 24.15 0.87 36.97-0.5c-11.91 2.31-31.58 2.86-56.34 2.26c21.23 4.94 40.47 8.08 54.24 6.62c3.64-0.39 3.46 1.73-0.61 2.35c-16.94 2.58-39.71 0.42-53.53-3.27c9.36 3.84 19.58 6.62 30.58 8.46c-11.21-1.02-22.32-3.23-33.29-7.37c8.36 6.2 18.06 12.19 29.61 17c2.74 1.14 4.2 3.48-1.75 2.18c-11.54-2.52-23.39-8.18-35.13-17.67c4.52 5.54 10.38 10.51 17 15.16c-7.36-4.41-13.9-9.6-19.63-15.58c2.06 6.94 4.31 12.56 8.94 18.93c1.83 2.52 1.24 2.93-1.4 1c-6.33-4.61-11.68-12.06-16.12-21.52c1.55 6.98 4.15 13.29 7.8 18.93c-3.91-4.85-7.05-10.81-9.55-17.67c0.47 6.64 1.63 12.23 3.5 16.58c0.92 2.13-0.4 2.51-1.84 0.75c-4.35-5.31-7.01-10.75-8.67-16.42c0.59 4.08 1.6 8.15 2.89 12.23c-1.42-3.55-2.73-7.09-3.68-10.64c0.14 2.35 0.49 4.68 0.79 7.04c0.25 2.03-0.57 2.19-1.23 0.08c-0.72-2.3-0.99-4.8-1.31-7.54c-0.07 1.7-0.14 3.73-0.09 5.44c0.05 1.48-0.94 0.94-1.05-0.17c-0.16-1.64-0.18-3.6 0-5.44c-0.26 5.08-1.96 5.53-1.4 0.84c-1.72 1.51-2.91 0.17-1.75-2.26c1.7-3.57 3.22-7.31 5.08-10.8c2.58-4.87 7.77-7.5 16.12-7.37c5.75 0.14 11.51 0.28 17.26 0.42c4.01 0.17 8.15-0.31 12.35-2.01c1.96-0.79 2.06 0.61 0.26 1.42c-3.25 1.47-7.07 2.64-11.22 3.52c11.49-0.62 23.03-1.64 35.22-7.2c-8.39 4.97-17.83 7.23-27.86 7.96c17.04 0.18 33.75-0.32 47.75-6.62c2.24-1.01 1.79 0.65 0.44 1.59zm-122.3 48.27c-0.01 0.11-0.04 0.21-0.1 0.3c-0.08 0.11-0.17 0.17-0.27 0.17h-5.41c-0.1 0-0.2-0.06-0.27-0.17c-0.06-0.09-0.09-0.19-0.1-0.3l-26.25-14.62l0.22-0.37h-0.06v-12.32c-0.4 0.1-0.94-0.07-1.54-0.6c0.56 4.69-1.14 4.24-1.4-0.84c0.18 1.84 0.16 3.81 0 5.44c-0.11 1.11-1.1 1.65-1.05 0.17c0.06-1.71-0.01-3.74-0.09-5.44c-0.32 2.74-0.6 5.23-1.31 7.54c-0.66 2.11-1.48 1.95-1.23-0.08c0.29-2.36 0.65-4.69 0.79-7.04c-0.95 3.55-2.26 7.09-3.68 10.64c1.29-4.08 2.3-8.15 2.89-12.23c-1.66 5.67-4.33 11.1-8.67 16.42c-1.44 1.76-2.76 1.38-1.84-0.75c1.88-4.36 3.04-9.94 3.5-16.58c-2.5 6.86-5.64 12.82-9.55 17.67c3.65-5.64 6.25-11.95 7.8-18.93c-4.44 9.46-9.8 16.92-16.12 21.52c-2.64 1.92-3.23 1.51-1.4-1c4.63-6.37 6.88-11.99 8.94-18.93c-5.72 5.97-12.27 11.17-19.63 15.58c6.62-4.65 12.48-9.62 17-15.16c-11.74 9.49-23.59 15.15-35.13 17.67c-5.95 1.3-4.5-1.04-1.75-2.18c11.56-4.81 21.26-10.8 29.61-17c-10.97 4.14-22.09 6.35-33.29 7.37c10.99-1.83 21.22-4.61 30.58-8.46c-13.82 3.69-36.59 5.85-53.53 3.27c-4.07-0.62-4.26-2.73-0.61-2.35c13.76 1.46 33-1.68 54.24-6.62c-24.76 0.6-44.43 0.05-56.34-2.26c12.83 1.37 25.08 1.36 36.97 0.5c-15.11-1.94-30.96-3.45-39.34-9.3c-1.35-0.94-1.8-2.6 0.44-1.59c14 6.3 30.71 6.8 47.75 6.62c-10.03-0.73-19.47-2.99-27.86-7.96c12.19 5.56 23.74 6.58 35.22 7.2c-4.15-0.88-7.96-2.05-11.22-3.52c-1.8-0.81-1.7-2.21 0.26-1.42c4.21 1.7 8.35 2.18 12.35 2.01c5.75-0.14 11.51-0.28 17.26-0.42c8.35-0.13 13.54 2.5 16.12 7.37c1.78 3.35 3.26 6.92 4.87 10.35v-13.79h0.06l-0.22-0.37l26.25-14.62c0.01-0.11 0.04-0.21 0.1-0.3c0.08-0.11 0.17-0.17 0.27-0.17h5.41c0.1 0 0.2 0.06 0.27 0.17c0.06 0.09 0.09 0.19 0.1 0.3l26.25 14.62l-0.22 0.37h0.06v29.43h-0.06l0.22 0.37l-26.25 14.62zm21.84-42.51l-23.97-13.34l-0.68 1.02c-0.08 0.11-0.17 0.17-0.27 0.17c-0.1 0-0.2-0.06-0.27-0.17l-0.68-1.02l-23.97 13.34v25.62l23.97 13.34l0.68-1.02c0.08-0.11 0.17-0.17 0.27-0.17c0.1 0 0.2 0.06 0.27 0.17l0.68 1.02l23.97-13.34v-25.62zm-39.97 26.59c0-1.44 1.21-2.61 2.7-2.61h24.69c1.49 0 2.7 1.17 2.7 2.61v2.24h-30.1v-2.24zm30.1-7.08c0 1.44-1.21 2.61-2.7 2.61h-24.69c-1.49 0-2.7-1.17-2.7-2.61v-2.11l-3.43-8.85c-0.32 0.1-0.66 0.15-1.01 0.15c-1.81 0-3.28-1.42-3.28-3.17c0-1.75 1.47-3.17 3.28-3.17c1.81 0 3.28 1.42 3.28 3.17c0 0.42-0.09 0.82-0.24 1.18l9.93 5.05l5.18-10.71c-1.25-0.45-2.14-1.6-2.14-2.97c0-1.75 1.47-3.17 3.28-3.17c1.81 0 3.28 1.42 3.28 3.17c0 1.24-0.74 2.31-1.82 2.83l5.32 11.01l10.24-5.21c-0.15-0.37-0.24-0.76-0.24-1.18c0-1.75 1.47-3.17 3.28-3.17c1.81 0 3.28 1.42 3.28 3.17c0 1.75-1.47 3.17-3.28 3.17c-0.35 0-0.69-0.06-1.01-0.15l-3.81 9.84v1.11z" />
	<path id="corner0" class="s3" d="m280 18h48c0 0 3.78-0.75 4 9c0.22 9.75 0 72 0 72c0 0-3.19-72.7-4-76c-0.27-1.09-1.57-2.49-5-3c-8.71-1.3-26.53-0.45-43-2z" />
	<path id="corner1" class="s3" d="m69 459h-48c0 0-3.78 0.75-4-9c-0.22-9.75 0-72 0-72c0 0 3.19 72.7 4 76c0.27 1.09 1.57 2.49 5 3c8.71 1.3 26.53 0.45 43 2z" />
	<path id="wave9" class="s4" d="m17 267c0 0 58.67-88.95 156.85-49.79c98.18 39.15 158.15-50.21 158.15-50.21v289l-315-1v-188z" />
</svg>