<svg version="1.2" baseProfile="tiny-ps" xmlns="http://www.w3.org/2000/svg" viewBox="0 0 350 480" width="350" height="480">
	<title>xbg2</title>
	<style>
		tspan { white-space:pre }
		.shp0 { fill: #875f90 } 
		.shp1 { opacity: 0.212;fill: #000000 } 
		.shp2 { fill: #573260 } 
		.shp3 { fill: #dadada } 
		.shp4 { fill: #000000 } 
	</style>
	<path id="mainbg" class="shp0" d="M41 1L310 1C316.08 1 321 5.92 321 12L321 432L30 432L30 12C30 5.92 34.92 1 41 1Z" />
	<path id="shadow" class="shp1" d="M321 420.97C321 420.97 320.92 429.39 321 431L30 431C29.93 431 30 417 30 417C30 415.45 31.72 413.62 31.82 413.55C44.6 385.29 101.45 363.96 175.93 363.96C256.05 363.96 318.53 390.98 321 420.05C321.01 420.14 320.98 420.22 320.93 420.3C320.95 420.52 320.98 420.74 321 420.97Z" />
	<path id="tag" class="shp2" d="M30 432L321 432L321 472L30 472L30 432Z" />
	<path id="placeholder" class="shp3" d="M313.42 452.95L300.21 467.4C299.84 467.81 299.4 468.01 298.89 468.01C298.45 468.01 298.06 467.86 297.72 467.56L297.72 468.8L53.28 468.8L53.28 467.56C52.94 467.86 52.55 468.01 52.11 468.01C51.6 468.01 51.16 467.81 50.79 467.4L37.58 452.95C37.21 452.54 37.02 452.06 37.02 451.5C37.02 450.94 37.21 450.45 37.58 450.05L50.79 435.59C51.16 435.18 51.6 434.98 52.11 434.98C52.55 434.98 52.94 435.13 53.28 435.43L53.28 435.2L297.72 435.2L297.72 435.43C298.06 435.13 298.45 434.98 298.89 434.98C299.4 434.98 299.84 435.18 300.21 435.59L313.42 450.05C313.79 450.45 313.98 450.94 313.98 451.5C313.98 452.06 313.79 452.54 313.42 452.95Z" />
	<path id="sides" class="shp4" d="M51.34 468.93C51 468.71 50.6 468.45 50.15 468.13C49.69 467.81 49.25 467.46 48.83 467.07C47.93 466.33 47.34 465.61 47.06 464.92C46.78 464.23 46.63 463.56 46.59 462.91C46.56 462.26 46.54 461.63 46.53 461.02C46.53 460.41 46.34 459.81 45.99 459.23C45.45 458.4 44.72 457.82 43.79 457.5C42.86 457.17 41.91 457.13 40.97 457.38C41.35 457.75 41.65 458.12 41.86 458.5C42.08 458.87 42.23 459.22 42.32 459.56C42.84 459.53 43.32 459.67 43.75 459.98C44.18 460.28 44.43 460.76 44.49 461.42C44.52 462.01 44.34 462.53 43.96 462.98C43.57 463.43 43.09 463.78 42.51 464.02C41.93 464.26 41.31 464.38 40.63 464.4C39.95 464.42 39.31 464.27 38.71 463.95C38.28 463.72 37.9 463.39 37.55 462.97C37.21 462.55 36.97 462.08 36.85 461.57C36.73 461.06 36.77 460.52 36.96 459.94C37.15 459.37 37.56 458.81 38.19 458.26C38.81 457.76 39.42 457.4 40.01 457.19C39.22 456.51 38.34 455.85 37.37 455.2C36.4 454.54 35.46 453.9 34.57 453.26L39.54 449.01C39.16 448.92 38.82 448.79 38.51 448.63C38.2 448.47 37.87 448.26 37.5 448.02C36.79 447.5 36.3 446.95 36.02 446.37C35.74 445.79 35.62 445.22 35.66 444.68C35.69 444.14 35.86 443.63 36.16 443.14C36.45 442.66 36.82 442.27 37.25 441.96C37.83 441.56 38.47 441.34 39.18 441.3C39.89 441.26 40.56 441.35 41.19 441.56C41.82 441.76 42.36 442.1 42.82 442.55C43.27 443.01 43.51 443.55 43.55 444.19C43.56 444.89 43.37 445.42 42.98 445.79C42.58 446.16 42.11 446.36 41.55 446.39C41.45 447.15 41.08 447.92 40.44 448.7C41.43 448.88 42.38 448.77 43.29 448.38C44.19 447.99 44.87 447.34 45.33 446.43C45.63 445.79 45.76 445.15 45.7 444.5C45.64 443.84 45.6 443.16 45.58 442.45C45.55 441.74 45.65 440.99 45.86 440.21C46.08 439.43 46.61 438.57 47.46 437.65C47.87 437.17 48.3 436.74 48.75 436.34C49.2 435.95 49.61 435.62 49.98 435.36L50 435.81C49.31 436.33 48.63 436.96 47.98 437.73C47.33 438.49 46.99 439.39 46.94 440.41C46.88 441.22 46.88 441.95 46.92 442.59C46.96 443.24 46.97 443.83 46.95 444.38C46.93 444.93 46.83 445.45 46.65 445.94C46.47 446.44 46.14 446.93 45.67 447.42C44.96 448.13 44.11 448.64 43.1 448.95C42.09 449.26 41.05 449.34 39.99 449.19L39.61 449.55C39.35 449.79 39.08 450.03 38.79 450.28C38.49 450.53 38.17 450.8 37.82 451.09C38.21 451.47 38.59 451.81 38.94 452.1C39.29 452.39 39.62 452.63 39.92 452.83C40.27 452.55 40.61 452.3 40.94 452.1C41.27 451.9 41.61 451.75 41.97 451.63C42.74 451.33 43.4 451.24 43.94 451.34C44.47 451.45 44.87 451.64 45.15 451.91C45.42 452.19 45.58 452.52 45.61 452.9C45.64 453.27 45.53 453.61 45.29 453.91C45.04 454.2 44.66 454.42 44.13 454.55C43.6 454.69 42.93 454.64 42.13 454.41C41.76 454.32 41.41 454.2 41.07 454.04C40.74 453.88 40.38 453.67 40 453.42C39.69 453.62 39.38 453.88 39.06 454.2C38.73 454.53 38.4 454.9 38.06 455.3C38.49 455.55 38.92 455.82 39.34 456.1C39.76 456.37 40.14 456.66 40.47 456.95C41.49 456.71 42.52 456.71 43.55 456.93C44.57 457.15 45.44 457.59 46.18 458.23C46.72 458.64 47.09 459.07 47.31 459.53C47.53 459.98 47.68 460.47 47.77 460.99C47.85 461.51 47.9 462.06 47.92 462.66C47.93 463.26 47.99 463.91 48.1 464.63C48.23 465.59 48.65 466.38 49.34 467C50.02 467.62 50.69 468.12 51.36 468.5L51.34 468.93ZM40.42 447.88C40.27 448.09 40.1 448.33 39.92 448.59C39.54 448.49 39.19 448.37 38.86 448.21C38.52 448.04 38.21 447.83 37.92 447.56C37.26 447.04 36.88 446.46 36.77 445.81C36.66 445.15 36.74 444.53 37 443.94C37.27 443.36 37.67 442.87 38.23 442.5C38.78 442.12 39.39 441.96 40.07 442.02C40.74 442.08 41.29 442.24 41.71 442.5C42.13 442.76 42.45 443.07 42.66 443.4C42.88 443.74 42.97 444.09 42.94 444.45C42.91 444.81 42.77 445.13 42.52 445.42C42.32 445.74 42.02 445.9 41.63 445.91C41.62 445.3 41.42 444.83 41.03 444.52C40.77 444.31 40.49 444.18 40.18 444.13C39.87 444.08 39.6 444.11 39.38 444.19C39.16 444.28 39.02 444.45 38.95 444.7C38.88 444.95 38.95 445.24 39.17 445.58C39.34 445.83 39.59 446.04 39.93 446.19C40.28 446.34 40.66 446.42 41.07 446.43C41.06 446.54 41.03 446.66 40.98 446.78C40.94 446.91 40.9 447.06 40.86 447.23C40.73 447.45 40.58 447.66 40.42 447.88ZM40.14 445.38C39.87 445.17 39.79 445 39.91 444.89C40.05 444.72 40.26 444.72 40.56 444.9C40.85 445.07 41.02 445.38 41.07 445.83C40.73 445.75 40.42 445.6 40.14 445.38ZM38.59 454.08C38.28 454.42 37.98 454.75 37.68 455.07C37.26 454.8 36.85 454.51 36.45 454.21C36.04 453.9 35.64 453.6 35.25 453.3C35.6 452.97 35.95 452.64 36.32 452.33C36.68 452.01 37.05 451.67 37.43 451.32C37.77 451.63 38.12 451.94 38.49 452.26C38.85 452.58 39.22 452.88 39.58 453.15C39.23 453.44 38.9 453.75 38.59 454.08ZM41.07 460.56C41.31 460.33 41.59 460.17 41.92 460.07C41.9 460.51 41.76 460.82 41.51 461C41.26 461.17 41.06 461.19 40.9 461.03C40.78 460.94 40.83 460.78 41.07 460.56ZM39.45 458.01C39.75 457.83 40.08 457.68 40.44 457.56C40.67 457.78 40.87 457.99 41.05 458.2C41.24 458.42 41.4 458.62 41.56 458.82L41.89 459.53C41.49 459.57 41.12 459.68 40.8 459.86C40.47 460.04 40.24 460.24 40.11 460.45C39.94 460.78 39.9 461.06 40 461.29C40.1 461.51 40.26 461.66 40.5 461.74C40.73 461.81 40.99 461.82 41.27 461.77C41.55 461.71 41.8 461.56 42 461.33C42.34 461.01 42.49 460.57 42.45 460.01C42.79 459.99 43.1 460.11 43.4 460.37C43.65 460.64 43.81 460.93 43.86 461.26C43.91 461.59 43.86 461.91 43.7 462.23C43.54 462.54 43.28 462.84 42.9 463.11C42.53 463.39 42.02 463.57 41.39 463.68C40.75 463.78 40.15 463.68 39.57 463.38C39 463.07 38.54 462.67 38.21 462.15C37.87 461.64 37.71 461.07 37.73 460.45C37.75 459.83 38.04 459.24 38.62 458.7C38.87 458.42 39.14 458.19 39.45 458.01ZM51.34 468.93C51 468.71 50.6 468.45 50.15 468.13C49.69 467.81 49.25 467.46 48.83 467.07C47.93 466.33 47.34 465.61 47.06 464.92C46.78 464.23 46.63 463.56 46.59 462.91C46.56 462.26 46.54 461.63 46.53 461.02C46.53 460.41 46.34 459.81 45.99 459.23C45.45 458.4 44.72 457.82 43.79 457.5C42.86 457.17 41.91 457.13 40.97 457.38C41.35 457.75 41.65 458.12 41.86 458.5C42.08 458.87 42.23 459.22 42.32 459.56C42.84 459.53 43.32 459.67 43.75 459.98C44.18 460.28 44.43 460.76 44.49 461.42C44.52 462.01 44.34 462.53 43.96 462.98C43.57 463.43 43.09 463.78 42.51 464.02C41.93 464.26 41.31 464.38 40.63 464.4C39.95 464.42 39.31 464.27 38.71 463.95C38.28 463.72 37.9 463.39 37.55 462.97C37.21 462.55 36.97 462.08 36.85 461.57C36.73 461.06 36.77 460.52 36.96 459.94C37.15 459.37 37.56 458.81 38.19 458.26C38.81 457.76 39.42 457.4 40.01 457.19C39.22 456.51 38.34 455.85 37.37 455.2C36.4 454.54 35.46 453.9 34.57 453.26L39.54 449.01C39.16 448.92 38.82 448.79 38.51 448.63C38.2 448.47 37.87 448.26 37.5 448.02C36.79 447.5 36.3 446.95 36.02 446.37C35.74 445.79 35.62 445.22 35.66 444.68C35.69 444.14 35.86 443.63 36.16 443.14C36.45 442.66 36.82 442.27 37.25 441.96C37.83 441.56 38.47 441.34 39.18 441.3C39.89 441.26 40.56 441.35 41.19 441.56C41.82 441.76 42.36 442.1 42.82 442.55C43.27 443.01 43.51 443.55 43.55 444.19C43.56 444.89 43.37 445.42 42.98 445.79C42.58 446.16 42.11 446.36 41.55 446.39C41.45 447.15 41.08 447.92 40.44 448.7C41.43 448.88 42.38 448.77 43.29 448.38C44.19 447.99 44.87 447.34 45.33 446.43C45.63 445.79 45.76 445.15 45.7 444.5C45.64 443.84 45.6 443.16 45.58 442.45C45.55 441.74 45.65 440.99 45.86 440.21C46.08 439.43 46.61 438.57 47.46 437.65C47.87 437.17 48.3 436.74 48.75 436.34C49.2 435.95 49.61 435.62 49.98 435.36L50 435.81C49.31 436.33 48.63 436.96 47.98 437.73C47.33 438.49 46.99 439.39 46.94 440.41C46.88 441.22 46.88 441.95 46.92 442.59C46.96 443.24 46.97 443.83 46.95 444.38C46.93 444.93 46.83 445.45 46.65 445.94C46.47 446.44 46.14 446.93 45.67 447.42C44.96 448.13 44.11 448.64 43.1 448.95C42.09 449.26 41.05 449.34 39.99 449.19L39.61 449.55C39.35 449.79 39.08 450.03 38.79 450.28C38.49 450.53 38.17 450.8 37.82 451.09C38.21 451.47 38.59 451.81 38.94 452.1C39.29 452.39 39.62 452.63 39.92 452.83C40.27 452.55 40.61 452.3 40.94 452.1C41.27 451.9 41.61 451.75 41.97 451.63C42.74 451.33 43.4 451.24 43.94 451.34C44.47 451.45 44.87 451.64 45.15 451.91C45.42 452.19 45.58 452.52 45.61 452.9C45.64 453.27 45.53 453.61 45.29 453.91C45.04 454.2 44.66 454.42 44.13 454.55C43.6 454.69 42.93 454.64 42.13 454.41C41.76 454.32 41.41 454.2 41.07 454.04C40.74 453.88 40.38 453.67 40 453.42C39.69 453.62 39.38 453.88 39.06 454.2C38.73 454.53 38.4 454.9 38.06 455.3C38.49 455.55 38.92 455.82 39.34 456.1C39.76 456.37 40.14 456.66 40.47 456.95C41.49 456.71 42.52 456.71 43.55 456.93C44.57 457.15 45.44 457.59 46.18 458.23C46.72 458.64 47.09 459.07 47.31 459.53C47.53 459.98 47.68 460.47 47.77 460.99C47.85 461.51 47.9 462.06 47.92 462.66C47.93 463.26 47.99 463.91 48.1 464.63C48.23 465.59 48.65 466.38 49.34 467C50.02 467.62 50.69 468.12 51.36 468.5L51.34 468.93ZM40.42 447.88C40.27 448.09 40.1 448.33 39.92 448.59C39.54 448.49 39.19 448.37 38.86 448.21C38.52 448.04 38.21 447.83 37.92 447.56C37.26 447.04 36.88 446.46 36.77 445.81C36.66 445.15 36.74 444.53 37 443.94C37.27 443.36 37.67 442.87 38.23 442.5C38.78 442.12 39.39 441.96 40.07 442.02C40.74 442.08 41.29 442.24 41.71 442.5C42.13 442.76 42.45 443.07 42.66 443.4C42.88 443.74 42.97 444.09 42.94 444.45C42.91 444.81 42.77 445.13 42.52 445.42C42.32 445.74 42.02 445.9 41.63 445.91C41.62 445.3 41.42 444.83 41.03 444.52C40.77 444.31 40.49 444.18 40.18 444.13C39.87 444.08 39.6 444.11 39.38 444.19C39.16 444.28 39.02 444.45 38.95 444.7C38.88 444.95 38.95 445.24 39.17 445.58C39.34 445.83 39.59 446.04 39.93 446.19C40.28 446.34 40.66 446.42 41.07 446.43C41.06 446.54 41.03 446.66 40.98 446.78C40.94 446.91 40.9 447.06 40.86 447.23C40.73 447.45 40.58 447.66 40.42 447.88ZM40.14 445.38C39.87 445.17 39.79 445 39.91 444.89C40.05 444.72 40.26 444.72 40.56 444.9C40.85 445.07 41.02 445.38 41.07 445.83C40.73 445.75 40.42 445.6 40.14 445.38ZM38.59 454.08C38.28 454.42 37.98 454.75 37.68 455.07C37.26 454.8 36.85 454.51 36.45 454.21C36.04 453.9 35.64 453.6 35.25 453.3C35.6 452.97 35.95 452.64 36.32 452.33C36.68 452.01 37.05 451.67 37.43 451.32C37.77 451.63 38.12 451.94 38.49 452.26C38.85 452.58 39.22 452.88 39.58 453.15C39.23 453.44 38.9 453.75 38.59 454.08ZM41.07 460.56C41.31 460.33 41.59 460.17 41.92 460.07C41.9 460.51 41.76 460.82 41.51 461C41.26 461.17 41.06 461.19 40.9 461.03C40.78 460.94 40.83 460.78 41.07 460.56ZM39.45 458.01C39.75 457.83 40.08 457.68 40.44 457.56C40.67 457.78 40.87 457.99 41.05 458.2C41.24 458.42 41.4 458.62 41.56 458.82L41.89 459.53C41.49 459.57 41.12 459.68 40.8 459.86C40.47 460.04 40.24 460.24 40.11 460.45C39.94 460.78 39.9 461.06 40 461.29C40.1 461.51 40.26 461.66 40.5 461.74C40.73 461.81 40.99 461.82 41.27 461.77C41.55 461.71 41.8 461.56 42 461.33C42.34 461.01 42.49 460.57 42.45 460.01C42.79 459.99 43.1 460.11 43.4 460.37C43.65 460.64 43.81 460.93 43.86 461.26C43.91 461.59 43.86 461.91 43.7 462.23C43.54 462.54 43.28 462.84 42.9 463.11C42.53 463.39 42.02 463.57 41.39 463.68C40.75 463.78 40.15 463.68 39.57 463.38C39 463.07 38.54 462.67 38.21 462.15C37.87 461.64 37.71 461.07 37.73 460.45C37.75 459.83 38.04 459.24 38.62 458.7C38.87 458.42 39.14 458.19 39.45 458.01ZM51.34 468.93C51 468.71 50.6 468.45 50.15 468.13C49.69 467.81 49.25 467.46 48.83 467.07C47.93 466.33 47.34 465.61 47.06 464.92C46.78 464.23 46.63 463.56 46.59 462.91C46.56 462.26 46.54 461.63 46.53 461.02C46.53 460.41 46.34 459.81 45.99 459.23C45.45 458.4 44.72 457.82 43.79 457.5C42.86 457.17 41.91 457.13 40.97 457.38C41.35 457.75 41.65 458.12 41.86 458.5C42.08 458.87 42.23 459.22 42.32 459.56C42.84 459.53 43.32 459.67 43.75 459.98C44.18 460.28 44.43 460.76 44.49 461.42C44.52 462.01 44.34 462.53 43.96 462.98C43.57 463.43 43.09 463.78 42.51 464.02C41.93 464.26 41.31 464.38 40.63 464.4C39.95 464.42 39.31 464.27 38.71 463.95C38.28 463.72 37.9 463.39 37.55 462.97C37.21 462.55 36.97 462.08 36.85 461.57C36.73 461.06 36.77 460.52 36.96 459.94C37.15 459.37 37.56 458.81 38.19 458.26C38.81 457.76 39.42 457.4 40.01 457.19C39.22 456.51 38.34 455.85 37.37 455.2C36.4 454.54 35.46 453.9 34.57 453.26L39.54 449.01C39.16 448.92 38.82 448.79 38.51 448.63C38.2 448.47 37.87 448.26 37.5 448.02C36.79 447.5 36.3 446.95 36.02 446.37C35.74 445.79 35.62 445.22 35.66 444.68C35.69 444.14 35.86 443.63 36.16 443.14C36.45 442.66 36.82 442.27 37.25 441.96C37.83 441.56 38.47 441.34 39.18 441.3C39.89 441.26 40.56 441.35 41.19 441.56C41.82 441.76 42.36 442.1 42.82 442.55C43.27 443.01 43.51 443.55 43.55 444.19C43.56 444.89 43.37 445.42 42.98 445.79C42.58 446.16 42.11 446.36 41.55 446.39C41.45 447.15 41.08 447.92 40.44 448.7C41.43 448.88 42.38 448.77 43.29 448.38C44.19 447.99 44.87 447.34 45.33 446.43C45.63 445.79 45.76 445.15 45.7 444.5C45.64 443.84 45.6 443.16 45.58 442.45C45.55 441.74 45.65 440.99 45.86 440.21C46.08 439.43 46.61 438.57 47.46 437.65C47.87 437.17 48.3 436.74 48.75 436.34C49.2 435.95 49.61 435.62 49.98 435.36L50 435.81C49.31 436.33 48.63 436.96 47.98 437.73C47.33 438.49 46.99 439.39 46.94 440.41C46.88 441.22 46.88 441.95 46.92 442.59C46.96 443.24 46.97 443.83 46.95 444.38C46.93 444.93 46.83 445.45 46.65 445.94C46.47 446.44 46.14 446.93 45.67 447.42C44.96 448.13 44.11 448.64 43.1 448.95C42.09 449.26 41.05 449.34 39.99 449.19L39.61 449.55C39.35 449.79 39.08 450.03 38.79 450.28C38.49 450.53 38.17 450.8 37.82 451.09C38.21 451.47 38.59 451.81 38.94 452.1C39.29 452.39 39.62 452.63 39.92 452.83C40.27 452.55 40.61 452.3 40.94 452.1C41.27 451.9 41.61 451.75 41.97 451.63C42.74 451.33 43.4 451.24 43.94 451.34C44.47 451.45 44.87 451.64 45.15 451.91C45.42 452.19 45.58 452.52 45.61 452.9C45.64 453.27 45.53 453.61 45.29 453.91C45.04 454.2 44.66 454.42 44.13 454.55C43.6 454.69 42.93 454.64 42.13 454.41C41.76 454.32 41.41 454.2 41.07 454.04C40.74 453.88 40.38 453.67 40 453.42C39.69 453.62 39.38 453.88 39.06 454.2C38.73 454.53 38.4 454.9 38.06 455.3C38.49 455.55 38.92 455.82 39.34 456.1C39.76 456.37 40.14 456.66 40.47 456.95C41.49 456.71 42.52 456.71 43.55 456.93C44.57 457.15 45.44 457.59 46.18 458.23C46.72 458.64 47.09 459.07 47.31 459.53C47.53 459.98 47.68 460.47 47.77 460.99C47.85 461.51 47.9 462.06 47.92 462.66C47.93 463.26 47.99 463.91 48.1 464.63C48.23 465.59 48.65 466.38 49.34 467C50.02 467.62 50.69 468.12 51.36 468.5L51.34 468.93ZM40.42 447.88C40.27 448.09 40.1 448.33 39.92 448.59C39.54 448.49 39.19 448.37 38.86 448.21C38.52 448.04 38.21 447.83 37.92 447.56C37.26 447.04 36.88 446.46 36.77 445.81C36.66 445.15 36.74 444.53 37 443.94C37.27 443.36 37.67 442.87 38.23 442.5C38.78 442.12 39.39 441.96 40.07 442.02C40.74 442.08 41.29 442.24 41.71 442.5C42.13 442.76 42.45 443.07 42.66 443.4C42.88 443.74 42.97 444.09 42.94 444.45C42.91 444.81 42.77 445.13 42.52 445.42C42.32 445.74 42.02 445.9 41.63 445.91C41.62 445.3 41.42 444.83 41.03 444.52C40.77 444.31 40.49 444.18 40.18 444.13C39.87 444.08 39.6 444.11 39.38 444.19C39.16 444.28 39.02 444.45 38.95 444.7C38.88 444.95 38.95 445.24 39.17 445.58C39.34 445.83 39.59 446.04 39.93 446.19C40.28 446.34 40.66 446.42 41.07 446.43C41.06 446.54 41.03 446.66 40.98 446.78C40.94 446.91 40.9 447.06 40.86 447.23C40.73 447.45 40.58 447.66 40.42 447.88ZM40.14 445.38C39.87 445.17 39.79 445 39.91 444.89C40.05 444.72 40.26 444.72 40.56 444.9C40.85 445.07 41.02 445.38 41.07 445.83C40.73 445.75 40.42 445.6 40.14 445.38ZM38.59 454.08C38.28 454.42 37.98 454.75 37.68 455.07C37.26 454.8 36.85 454.51 36.45 454.21C36.04 453.9 35.64 453.6 35.25 453.3C35.6 452.97 35.95 452.64 36.32 452.33C36.68 452.01 37.05 451.67 37.43 451.32C37.77 451.63 38.12 451.94 38.49 452.26C38.85 452.58 39.22 452.88 39.58 453.15C39.23 453.44 38.9 453.75 38.59 454.08ZM41.07 460.56C41.31 460.33 41.59 460.17 41.92 460.07C41.9 460.51 41.76 460.82 41.51 461C41.26 461.17 41.06 461.19 40.9 461.03C40.78 460.94 40.83 460.78 41.07 460.56ZM39.45 458.01C39.75 457.83 40.08 457.68 40.44 457.56C40.67 457.78 40.87 457.99 41.05 458.2C41.24 458.42 41.4 458.62 41.56 458.82L41.89 459.53C41.49 459.57 41.12 459.68 40.8 459.86C40.47 460.04 40.24 460.24 40.11 460.45C39.94 460.78 39.9 461.06 40 461.29C40.1 461.51 40.26 461.66 40.5 461.74C40.73 461.81 40.99 461.82 41.27 461.77C41.55 461.71 41.8 461.56 42 461.33C42.34 461.01 42.49 460.57 42.45 460.01C42.79 459.99 43.1 460.11 43.4 460.37C43.65 460.64 43.81 460.93 43.86 461.26C43.91 461.59 43.86 461.91 43.7 462.23C43.54 462.54 43.28 462.84 42.9 463.11C42.53 463.39 42.02 463.57 41.39 463.68C40.75 463.78 40.15 463.68 39.57 463.38C39 463.07 38.54 462.67 38.21 462.15C37.87 461.64 37.71 461.07 37.73 460.45C37.75 459.83 38.04 459.24 38.62 458.7C38.87 458.42 39.14 458.19 39.45 458.01ZM51.34 468.93C51 468.71 50.6 468.45 50.15 468.13C49.69 467.81 49.25 467.46 48.83 467.07C47.93 466.33 47.34 465.61 47.06 464.92C46.78 464.23 46.63 463.56 46.59 462.91C46.56 462.26 46.54 461.63 46.53 461.02C46.53 460.41 46.34 459.81 45.99 459.23C45.45 458.4 44.72 457.82 43.79 457.5C42.86 457.17 41.91 457.13 40.97 457.38C41.35 457.75 41.65 458.12 41.86 458.5C42.08 458.87 42.23 459.22 42.32 459.56C42.84 459.53 43.32 459.67 43.75 459.98C44.18 460.28 44.43 460.76 44.49 461.42C44.52 462.01 44.34 462.53 43.96 462.98C43.57 463.43 43.09 463.78 42.51 464.02C41.93 464.26 41.31 464.38 40.63 464.4C39.95 464.42 39.31 464.27 38.71 463.95C38.28 463.72 37.9 463.39 37.55 462.97C37.21 462.55 36.97 462.08 36.85 461.57C36.73 461.06 36.77 460.52 36.96 459.94C37.15 459.37 37.56 458.81 38.19 458.26C38.81 457.76 39.42 457.4 40.01 457.19C39.22 456.51 38.34 455.85 37.37 455.2C36.4 454.54 35.46 453.9 34.57 453.26L39.54 449.01C39.16 448.92 38.82 448.79 38.51 448.63C38.2 448.47 37.87 448.26 37.5 448.02C36.79 447.5 36.3 446.95 36.02 446.37C35.74 445.79 35.62 445.22 35.66 444.68C35.69 444.14 35.86 443.63 36.16 443.14C36.45 442.66 36.82 442.27 37.25 441.96C37.83 441.56 38.47 441.34 39.18 441.3C39.89 441.26 40.56 441.35 41.19 441.56C41.82 441.76 42.36 442.1 42.82 442.55C43.27 443.01 43.51 443.55 43.55 444.19C43.56 444.89 43.37 445.42 42.98 445.79C42.58 446.16 42.11 446.36 41.55 446.39C41.45 447.15 41.08 447.92 40.44 448.7C41.43 448.88 42.38 448.77 43.29 448.38C44.19 447.99 44.87 447.34 45.33 446.43C45.63 445.79 45.76 445.15 45.7 444.5C45.64 443.84 45.6 443.16 45.58 442.45C45.55 441.74 45.65 440.99 45.86 440.21C46.08 439.43 46.61 438.57 47.46 437.65C47.87 437.17 48.3 436.74 48.75 436.34C49.2 435.95 49.61 435.62 49.98 435.36L50 435.81C49.31 436.33 48.63 436.96 47.98 437.73C47.33 438.49 46.99 439.39 46.94 440.41C46.88 441.22 46.88 441.95 46.92 442.59C46.96 443.24 46.97 443.83 46.95 444.38C46.93 444.93 46.83 445.45 46.65 445.94C46.47 446.44 46.14 446.93 45.67 447.42C44.96 448.13 44.11 448.64 43.1 448.95C42.09 449.26 41.05 449.34 39.99 449.19L39.61 449.55C39.35 449.79 39.08 450.03 38.79 450.28C38.49 450.53 38.17 450.8 37.82 451.09C38.21 451.47 38.59 451.81 38.94 452.1C39.29 452.39 39.62 452.63 39.92 452.83C40.27 452.55 40.61 452.3 40.94 452.1C41.27 451.9 41.61 451.75 41.97 451.63C42.74 451.33 43.4 451.24 43.94 451.34C44.47 451.45 44.87 451.64 45.15 451.91C45.42 452.19 45.58 452.52 45.61 452.9C45.64 453.27 45.53 453.61 45.29 453.91C45.04 454.2 44.66 454.42 44.13 454.55C43.6 454.69 42.93 454.64 42.13 454.41C41.76 454.32 41.41 454.2 41.07 454.04C40.74 453.88 40.38 453.67 40 453.42C39.69 453.62 39.38 453.88 39.06 454.2C38.73 454.53 38.4 454.9 38.06 455.3C38.49 455.55 38.92 455.82 39.34 456.1C39.76 456.37 40.14 456.66 40.47 456.95C41.49 456.71 42.52 456.71 43.55 456.93C44.57 457.15 45.44 457.59 46.18 458.23C46.72 458.64 47.09 459.07 47.31 459.53C47.53 459.98 47.68 460.47 47.77 460.99C47.85 461.51 47.9 462.06 47.92 462.66C47.93 463.26 47.99 463.91 48.1 464.63C48.23 465.59 48.65 466.38 49.34 467C50.02 467.62 50.69 468.12 51.36 468.5L51.34 468.93ZM40.42 447.88C40.27 448.09 40.1 448.33 39.92 448.59C39.54 448.49 39.19 448.37 38.86 448.21C38.52 448.04 38.21 447.83 37.92 447.56C37.26 447.04 36.88 446.46 36.77 445.81C36.66 445.15 36.74 444.53 37 443.94C37.27 443.36 37.67 442.87 38.23 442.5C38.78 442.12 39.39 441.96 40.07 442.02C40.74 442.08 41.29 442.24 41.71 442.5C42.13 442.76 42.45 443.07 42.66 443.4C42.88 443.74 42.97 444.09 42.94 444.45C42.91 444.81 42.77 445.13 42.52 445.42C42.32 445.74 42.02 445.9 41.63 445.91C41.62 445.3 41.42 444.83 41.03 444.52C40.77 444.31 40.49 444.18 40.18 444.13C39.87 444.08 39.6 444.11 39.38 444.19C39.16 444.28 39.02 444.45 38.95 444.7C38.88 444.95 38.95 445.24 39.17 445.58C39.34 445.83 39.59 446.04 39.93 446.19C40.28 446.34 40.66 446.42 41.07 446.43C41.06 446.54 41.03 446.66 40.98 446.78C40.94 446.91 40.9 447.06 40.86 447.23C40.73 447.45 40.58 447.66 40.42 447.88ZM40.14 445.38C39.87 445.17 39.79 445 39.91 444.89C40.05 444.72 40.26 444.72 40.56 444.9C40.85 445.07 41.02 445.38 41.07 445.83C40.73 445.75 40.42 445.6 40.14 445.38ZM38.59 454.08C38.28 454.42 37.98 454.75 37.68 455.07C37.26 454.8 36.85 454.51 36.45 454.21C36.04 453.9 35.64 453.6 35.25 453.3C35.6 452.97 35.95 452.64 36.32 452.33C36.68 452.01 37.05 451.67 37.43 451.32C37.77 451.63 38.12 451.94 38.49 452.26C38.85 452.58 39.22 452.88 39.58 453.15C39.23 453.44 38.9 453.75 38.59 454.08ZM41.07 460.56C41.31 460.33 41.59 460.17 41.92 460.07C41.9 460.51 41.76 460.82 41.51 461C41.26 461.17 41.06 461.19 40.9 461.03C40.78 460.94 40.83 460.78 41.07 460.56ZM39.45 458.01C39.75 457.83 40.08 457.68 40.44 457.56C40.67 457.78 40.87 457.99 41.05 458.2C41.24 458.42 41.4 458.62 41.56 458.82L41.89 459.53C41.49 459.57 41.12 459.68 40.8 459.86C40.47 460.04 40.24 460.24 40.11 460.45C39.94 460.78 39.9 461.06 40 461.29C40.1 461.51 40.26 461.66 40.5 461.74C40.73 461.81 40.99 461.82 41.27 461.77C41.55 461.71 41.8 461.56 42 461.33C42.34 461.01 42.49 460.57 42.45 460.01C42.79 459.99 43.1 460.11 43.4 460.37C43.65 460.64 43.81 460.93 43.86 461.26C43.91 461.59 43.86 461.91 43.7 462.23C43.54 462.54 43.28 462.84 42.9 463.11C42.53 463.39 42.02 463.57 41.39 463.68C40.75 463.78 40.15 463.68 39.57 463.38C39 463.07 38.54 462.67 38.21 462.15C37.87 461.64 37.71 461.07 37.73 460.45C37.75 459.83 38.04 459.24 38.62 458.7C38.87 458.42 39.14 458.19 39.45 458.01ZM299.64 468.5C300.31 468.12 300.98 467.62 301.66 467C302.35 466.38 302.77 465.59 302.9 464.63C303.01 463.91 303.07 463.26 303.08 462.66C303.1 462.06 303.15 461.51 303.23 460.99C303.32 460.47 303.47 459.98 303.69 459.53C303.91 459.07 304.28 458.64 304.82 458.23C305.56 457.59 306.43 457.15 307.45 456.93C308.48 456.71 309.51 456.71 310.53 456.95C310.86 456.66 311.24 456.37 311.66 456.1C312.08 455.82 312.51 455.55 312.94 455.3C312.6 454.9 312.27 454.53 311.94 454.2C311.62 453.88 311.31 453.62 311 453.42C310.62 453.67 310.26 453.88 309.93 454.04C309.59 454.2 309.24 454.32 308.87 454.41C308.07 454.64 307.4 454.69 306.87 454.55C306.34 454.42 305.96 454.2 305.71 453.91C305.47 453.61 305.36 453.27 305.39 452.9C305.42 452.52 305.58 452.19 305.85 451.91C306.13 451.64 306.53 451.45 307.06 451.34C307.6 451.24 308.25 451.33 309.03 451.63C309.39 451.75 309.73 451.9 310.06 452.1C310.39 452.3 310.73 452.55 311.08 452.83C311.38 452.63 311.71 452.39 312.06 452.1C312.41 451.81 312.79 451.47 313.18 451.09C312.83 450.8 312.51 450.53 312.21 450.28C311.92 450.03 311.65 449.79 311.39 449.55L311.01 449.19C309.95 449.34 308.91 449.26 307.9 448.95C306.89 448.64 306.04 448.13 305.33 447.42C304.86 446.93 304.53 446.44 304.35 445.94C304.17 445.45 304.07 444.93 304.05 444.38C304.03 443.83 304.04 443.24 304.08 442.59C304.12 441.95 304.12 441.22 304.06 440.41C304.01 439.39 303.67 438.49 303.02 437.73C302.37 436.96 301.69 436.33 301 435.81L301.02 435.36C301.39 435.62 301.8 435.95 302.25 436.34C302.7 436.74 303.13 437.17 303.54 437.65C304.39 438.57 304.92 439.43 305.14 440.21C305.35 440.99 305.45 441.74 305.42 442.45C305.4 443.16 305.36 443.84 305.3 444.5C305.24 445.15 305.37 445.79 305.67 446.43C306.13 447.34 306.81 447.99 307.71 448.38C308.62 448.77 309.57 448.88 310.56 448.7C309.92 447.92 309.55 447.15 309.45 446.39C308.89 446.36 308.42 446.16 308.02 445.79C307.63 445.42 307.44 444.89 307.45 444.19C307.49 443.55 307.73 443.01 308.18 442.55C308.64 442.1 309.18 441.76 309.81 441.56C310.44 441.35 311.11 441.26 311.82 441.3C312.53 441.34 313.17 441.56 313.75 441.96C314.18 442.27 314.55 442.66 314.84 443.14C315.14 443.63 315.31 444.14 315.34 444.68C315.38 445.22 315.26 445.79 314.98 446.37C314.7 446.95 314.21 447.5 313.5 448.02C313.13 448.26 312.8 448.47 312.49 448.63C312.18 448.79 311.84 448.92 311.46 449.01L316.43 453.26C315.54 453.9 314.6 454.54 313.63 455.2C312.66 455.85 311.78 456.51 310.99 457.19C311.58 457.4 312.19 457.76 312.81 458.26C313.44 458.81 313.85 459.37 314.04 459.94C314.23 460.52 314.27 461.06 314.15 461.57C314.03 462.08 313.79 462.55 313.45 462.97C313.1 463.39 312.72 463.72 312.29 463.95C311.69 464.27 311.05 464.42 310.37 464.4C309.69 464.38 309.07 464.26 308.49 464.02C307.91 463.78 307.43 463.43 307.04 462.98C306.66 462.53 306.48 462.01 306.51 461.42C306.57 460.76 306.82 460.28 307.25 459.98C307.68 459.67 308.16 459.53 308.68 459.56C308.77 459.22 308.92 458.87 309.14 458.5C309.35 458.12 309.65 457.75 310.03 457.38C309.09 457.13 308.14 457.17 307.21 457.5C306.28 457.82 305.55 458.4 305.01 459.23C304.66 459.81 304.47 460.41 304.47 461.02C304.46 461.63 304.44 462.26 304.4 462.91C304.37 463.56 304.22 464.23 303.94 464.92C303.66 465.61 303.07 466.33 302.17 467.07C301.75 467.46 301.31 467.81 300.85 468.13C300.4 468.45 300 468.71 299.66 468.93L299.64 468.5ZM310.58 447.88C310.73 448.09 310.9 448.33 311.08 448.59C311.46 448.49 311.81 448.37 312.14 448.21C312.48 448.04 312.79 447.83 313.08 447.56C313.74 447.04 314.12 446.46 314.23 445.81C314.34 445.15 314.26 444.53 314 443.94C313.73 443.36 313.33 442.87 312.77 442.5C312.22 442.12 311.61 441.96 310.93 442.02C310.26 442.08 309.71 442.24 309.29 442.5C308.87 442.76 308.55 443.07 308.34 443.4C308.12 443.74 308.03 444.09 308.06 444.45C308.09 444.81 308.23 445.13 308.48 445.42C308.68 445.74 308.98 445.9 309.37 445.91C309.38 445.3 309.58 444.83 309.97 444.52C310.23 444.31 310.51 444.18 310.82 444.13C311.13 444.08 311.4 444.11 311.62 444.19C311.84 444.28 311.98 444.45 312.05 444.7C312.12 444.95 312.05 445.24 311.83 445.58C311.66 445.83 311.41 446.04 311.07 446.19C310.72 446.34 310.34 446.42 309.93 446.43C309.94 446.54 309.97 446.66 310.02 446.78C310.06 446.91 310.1 447.06 310.14 447.23C310.27 447.45 310.42 447.66 310.58 447.88ZM310.86 445.38C311.13 445.17 311.21 445 311.09 444.89C310.95 444.72 310.74 444.72 310.44 444.9C310.15 445.07 309.98 445.38 309.93 445.83C310.27 445.75 310.58 445.6 310.86 445.38ZM312.41 454.08C312.72 454.42 313.02 454.75 313.32 455.07C313.74 454.8 314.15 454.51 314.55 454.21C314.96 453.9 315.36 453.6 315.75 453.3C315.4 452.97 315.05 452.64 314.68 452.33C314.32 452.01 313.95 451.67 313.57 451.32C313.23 451.63 312.88 451.94 312.51 452.26C312.15 452.58 311.78 452.88 311.42 453.15C311.77 453.44 312.1 453.75 312.41 454.08ZM309.93 460.56C309.69 460.33 309.41 460.17 309.08 460.07C309.1 460.51 309.24 460.82 309.49 461C309.74 461.17 309.94 461.19 310.1 461.03C310.22 460.94 310.17 460.78 309.93 460.56ZM311.55 458.01C311.25 457.83 310.92 457.68 310.56 457.56C310.33 457.78 310.13 457.99 309.95 458.2C309.76 458.42 309.6 458.62 309.44 458.82L309.11 459.53C309.51 459.57 309.88 459.68 310.2 459.86C310.53 460.04 310.76 460.24 310.89 460.45C311.06 460.78 311.1 461.06 311 461.29C310.9 461.51 310.74 461.66 310.5 461.74C310.27 461.81 310.01 461.82 309.73 461.77C309.45 461.71 309.2 461.56 309 461.33C308.66 461.01 308.51 460.57 308.55 460.01C308.21 459.99 307.9 460.11 307.6 460.37C307.35 460.64 307.19 460.93 307.14 461.26C307.09 461.59 307.14 461.91 307.3 462.23C307.46 462.54 307.72 462.84 308.1 463.11C308.47 463.39 308.98 463.57 309.61 463.68C310.25 463.78 310.85 463.68 311.43 463.38C312 463.07 312.46 462.67 312.79 462.15C313.13 461.64 313.29 461.07 313.27 460.45C313.25 459.83 312.96 459.24 312.38 458.7C312.13 458.42 311.86 458.19 311.55 458.01ZM299.64 468.5C300.31 468.12 300.98 467.62 301.66 467C302.35 466.38 302.77 465.59 302.9 464.63C303.01 463.91 303.07 463.26 303.08 462.66C303.1 462.06 303.15 461.51 303.23 460.99C303.32 460.47 303.47 459.98 303.69 459.53C303.91 459.07 304.28 458.64 304.82 458.23C305.56 457.59 306.43 457.15 307.45 456.93C308.48 456.71 309.51 456.71 310.53 456.95C310.86 456.66 311.24 456.37 311.66 456.1C312.08 455.82 312.51 455.55 312.94 455.3C312.6 454.9 312.27 454.53 311.94 454.2C311.62 453.88 311.31 453.62 311 453.42C310.62 453.67 310.26 453.88 309.93 454.04C309.59 454.2 309.24 454.32 308.87 454.41C308.07 454.64 307.4 454.69 306.87 454.55C306.34 454.42 305.96 454.2 305.71 453.91C305.47 453.61 305.36 453.27 305.39 452.9C305.42 452.52 305.58 452.19 305.85 451.91C306.13 451.64 306.53 451.45 307.06 451.34C307.6 451.24 308.25 451.33 309.03 451.63C309.39 451.75 309.73 451.9 310.06 452.1C310.39 452.3 310.73 452.55 311.08 452.83C311.38 452.63 311.71 452.39 312.06 452.1C312.41 451.81 312.79 451.47 313.18 451.09C312.83 450.8 312.51 450.53 312.21 450.28C311.92 450.03 311.65 449.79 311.39 449.55L311.01 449.19C309.95 449.34 308.91 449.26 307.9 448.95C306.89 448.64 306.04 448.13 305.33 447.42C304.86 446.93 304.53 446.44 304.35 445.94C304.17 445.45 304.07 444.93 304.05 444.38C304.03 443.83 304.04 443.24 304.08 442.59C304.12 441.95 304.12 441.22 304.06 440.41C304.01 439.39 303.67 438.49 303.02 437.73C302.37 436.96 301.69 436.33 301 435.81L301.02 435.36C301.39 435.62 301.8 435.95 302.25 436.34C302.7 436.74 303.13 437.17 303.54 437.65C304.39 438.57 304.92 439.43 305.14 440.21C305.35 440.99 305.45 441.74 305.42 442.45C305.4 443.16 305.36 443.84 305.3 444.5C305.24 445.15 305.37 445.79 305.67 446.43C306.13 447.34 306.81 447.99 307.71 448.38C308.62 448.77 309.57 448.88 310.56 448.7C309.92 447.92 309.55 447.15 309.45 446.39C308.89 446.36 308.42 446.16 308.02 445.79C307.63 445.42 307.44 444.89 307.45 444.19C307.49 443.55 307.73 443.01 308.18 442.55C308.64 442.1 309.18 441.76 309.81 441.56C310.44 441.35 311.11 441.26 311.82 441.3C312.53 441.34 313.17 441.56 313.75 441.96C314.18 442.27 314.55 442.66 314.84 443.14C315.14 443.63 315.31 444.14 315.34 444.68C315.38 445.22 315.26 445.79 314.98 446.37C314.7 446.95 314.21 447.5 313.5 448.02C313.13 448.26 312.8 448.47 312.49 448.63C312.18 448.79 311.84 448.92 311.46 449.01L316.43 453.26C315.54 453.9 314.6 454.54 313.63 455.2C312.66 455.85 311.78 456.51 310.99 457.19C311.58 457.4 312.19 457.76 312.81 458.26C313.44 458.81 313.85 459.37 314.04 459.94C314.23 460.52 314.27 461.06 314.15 461.57C314.03 462.08 313.79 462.55 313.45 462.97C313.1 463.39 312.72 463.72 312.29 463.95C311.69 464.27 311.05 464.42 310.37 464.4C309.69 464.38 309.07 464.26 308.49 464.02C307.91 463.78 307.43 463.43 307.04 462.98C306.66 462.53 306.48 462.01 306.51 461.42C306.57 460.76 306.82 460.28 307.25 459.98C307.68 459.67 308.16 459.53 308.68 459.56C308.77 459.22 308.92 458.87 309.14 458.5C309.35 458.12 309.65 457.75 310.03 457.38C309.09 457.13 308.14 457.17 307.21 457.5C306.28 457.82 305.55 458.4 305.01 459.23C304.66 459.81 304.47 460.41 304.47 461.02C304.46 461.63 304.44 462.26 304.4 462.91C304.37 463.56 304.22 464.23 303.94 464.92C303.66 465.61 303.07 466.33 302.17 467.07C301.75 467.46 301.31 467.81 300.85 468.13C300.4 468.45 300 468.71 299.66 468.93L299.64 468.5ZM310.58 447.88C310.73 448.09 310.9 448.33 311.08 448.59C311.46 448.49 311.81 448.37 312.14 448.21C312.48 448.04 312.79 447.83 313.08 447.56C313.74 447.04 314.12 446.46 314.23 445.81C314.34 445.15 314.26 444.53 314 443.94C313.73 443.36 313.33 442.87 312.77 442.5C312.22 442.12 311.61 441.96 310.93 442.02C310.26 442.08 309.71 442.24 309.29 442.5C308.87 442.76 308.55 443.07 308.34 443.4C308.12 443.74 308.03 444.09 308.06 444.45C308.09 444.81 308.23 445.13 308.48 445.42C308.68 445.74 308.98 445.9 309.37 445.91C309.38 445.3 309.58 444.83 309.97 444.52C310.23 444.31 310.51 444.18 310.82 444.13C311.13 444.08 311.4 444.11 311.62 444.19C311.84 444.28 311.98 444.45 312.05 444.7C312.12 444.95 312.05 445.24 311.83 445.58C311.66 445.83 311.41 446.04 311.07 446.19C310.72 446.34 310.34 446.42 309.93 446.43C309.94 446.54 309.97 446.66 310.02 446.78C310.06 446.91 310.1 447.06 310.14 447.23C310.27 447.45 310.42 447.66 310.58 447.88ZM310.86 445.38C311.13 445.17 311.21 445 311.09 444.89C310.95 444.72 310.74 444.72 310.44 444.9C310.15 445.07 309.98 445.38 309.93 445.83C310.27 445.75 310.58 445.6 310.86 445.38ZM312.41 454.08C312.72 454.42 313.02 454.75 313.32 455.07C313.74 454.8 314.15 454.51 314.55 454.21C314.96 453.9 315.36 453.6 315.75 453.3C315.4 452.97 315.05 452.64 314.68 452.33C314.32 452.01 313.95 451.67 313.57 451.32C313.23 451.63 312.88 451.94 312.51 452.26C312.15 452.58 311.78 452.88 311.42 453.15C311.77 453.44 312.1 453.75 312.41 454.08ZM309.93 460.56C309.69 460.33 309.41 460.17 309.08 460.07C309.1 460.51 309.24 460.82 309.49 461C309.74 461.17 309.94 461.19 310.1 461.03C310.22 460.94 310.17 460.78 309.93 460.56ZM311.55 458.01C311.25 457.83 310.92 457.68 310.56 457.56C310.33 457.78 310.13 457.99 309.95 458.2C309.76 458.42 309.6 458.62 309.44 458.82L309.11 459.53C309.51 459.57 309.88 459.68 310.2 459.86C310.53 460.04 310.76 460.24 310.89 460.45C311.06 460.78 311.1 461.06 311 461.29C310.9 461.51 310.74 461.66 310.5 461.74C310.27 461.81 310.01 461.82 309.73 461.77C309.45 461.71 309.2 461.56 309 461.33C308.66 461.01 308.51 460.57 308.55 460.01C308.21 459.99 307.9 460.11 307.6 460.37C307.35 460.64 307.19 460.93 307.14 461.26C307.09 461.59 307.14 461.91 307.3 462.23C307.46 462.54 307.72 462.84 308.1 463.11C308.47 463.39 308.98 463.57 309.61 463.68C310.25 463.78 310.85 463.68 311.43 463.38C312 463.07 312.46 462.67 312.79 462.15C313.13 461.64 313.29 461.07 313.27 460.45C313.25 459.83 312.96 459.24 312.38 458.7C312.13 458.42 311.86 458.19 311.55 458.01ZM299.64 468.5C300.31 468.12 300.98 467.62 301.66 467C302.35 466.38 302.77 465.59 302.9 464.63C303.01 463.91 303.07 463.26 303.08 462.66C303.1 462.06 303.15 461.51 303.23 460.99C303.32 460.47 303.47 459.98 303.69 459.53C303.91 459.07 304.28 458.64 304.82 458.23C305.56 457.59 306.43 457.15 307.45 456.93C308.48 456.71 309.51 456.71 310.53 456.95C310.86 456.66 311.24 456.37 311.66 456.1C312.08 455.82 312.51 455.55 312.94 455.3C312.6 454.9 312.27 454.53 311.94 454.2C311.62 453.88 311.31 453.62 311 453.42C310.62 453.67 310.26 453.88 309.93 454.04C309.59 454.2 309.24 454.32 308.87 454.41C308.07 454.64 307.4 454.69 306.87 454.55C306.34 454.42 305.96 454.2 305.71 453.91C305.47 453.61 305.36 453.27 305.39 452.9C305.42 452.52 305.58 452.19 305.85 451.91C306.13 451.64 306.53 451.45 307.06 451.34C307.6 451.24 308.25 451.33 309.03 451.63C309.39 451.75 309.73 451.9 310.06 452.1C310.39 452.3 310.73 452.55 311.08 452.83C311.38 452.63 311.71 452.39 312.06 452.1C312.41 451.81 312.79 451.47 313.18 451.09C312.83 450.8 312.51 450.53 312.21 450.28C311.92 450.03 311.65 449.79 311.39 449.55L311.01 449.19C309.95 449.34 308.91 449.26 307.9 448.95C306.89 448.64 306.04 448.13 305.33 447.42C304.86 446.93 304.53 446.44 304.35 445.94C304.17 445.45 304.07 444.93 304.05 444.38C304.03 443.83 304.04 443.24 304.08 442.59C304.12 441.95 304.12 441.22 304.06 440.41C304.01 439.39 303.67 438.49 303.02 437.73C302.37 436.96 301.69 436.33 301 435.81L301.02 435.36C301.39 435.62 301.8 435.95 302.25 436.34C302.7 436.74 303.13 437.17 303.54 437.65C304.39 438.57 304.92 439.43 305.14 440.21C305.35 440.99 305.45 441.74 305.42 442.45C305.4 443.16 305.36 443.84 305.3 444.5C305.24 445.15 305.37 445.79 305.67 446.43C306.13 447.34 306.81 447.99 307.71 448.38C308.62 448.77 309.57 448.88 310.56 448.7C309.92 447.92 309.55 447.15 309.45 446.39C308.89 446.36 308.42 446.16 308.02 445.79C307.63 445.42 307.44 444.89 307.45 444.19C307.49 443.55 307.73 443.01 308.18 442.55C308.64 442.1 309.18 441.76 309.81 441.56C310.44 441.35 311.11 441.26 311.82 441.3C312.53 441.34 313.17 441.56 313.75 441.96C314.18 442.27 314.55 442.66 314.84 443.14C315.14 443.63 315.31 444.14 315.34 444.68C315.38 445.22 315.26 445.79 314.98 446.37C314.7 446.95 314.21 447.5 313.5 448.02C313.13 448.26 312.8 448.47 312.49 448.63C312.18 448.79 311.84 448.92 311.46 449.01L316.43 453.26C315.54 453.9 314.6 454.54 313.63 455.2C312.66 455.85 311.78 456.51 310.99 457.19C311.58 457.4 312.19 457.76 312.81 458.26C313.44 458.81 313.85 459.37 314.04 459.94C314.23 460.52 314.27 461.06 314.15 461.57C314.03 462.08 313.79 462.55 313.45 462.97C313.1 463.39 312.72 463.72 312.29 463.95C311.69 464.27 311.05 464.42 310.37 464.4C309.69 464.38 309.07 464.26 308.49 464.02C307.91 463.78 307.43 463.43 307.04 462.98C306.66 462.53 306.48 462.01 306.51 461.42C306.57 460.76 306.82 460.28 307.25 459.98C307.68 459.67 308.16 459.53 308.68 459.56C308.77 459.22 308.92 458.87 309.14 458.5C309.35 458.12 309.65 457.75 310.03 457.38C309.09 457.13 308.14 457.17 307.21 457.5C306.28 457.82 305.55 458.4 305.01 459.23C304.66 459.81 304.47 460.41 304.47 461.02C304.46 461.63 304.44 462.26 304.4 462.91C304.37 463.56 304.22 464.23 303.94 464.92C303.66 465.61 303.07 466.33 302.17 467.07C301.75 467.46 301.31 467.81 300.85 468.13C300.4 468.45 300 468.71 299.66 468.93L299.64 468.5ZM310.58 447.88C310.73 448.09 310.9 448.33 311.08 448.59C311.46 448.49 311.81 448.37 312.14 448.21C312.48 448.04 312.79 447.83 313.08 447.56C313.74 447.04 314.12 446.46 314.23 445.81C314.34 445.15 314.26 444.53 314 443.94C313.73 443.36 313.33 442.87 312.77 442.5C312.22 442.12 311.61 441.96 310.93 442.02C310.26 442.08 309.71 442.24 309.29 442.5C308.87 442.76 308.55 443.07 308.34 443.4C308.12 443.74 308.03 444.09 308.06 444.45C308.09 444.81 308.23 445.13 308.48 445.42C308.68 445.74 308.98 445.9 309.37 445.91C309.38 445.3 309.58 444.83 309.97 444.52C310.23 444.31 310.51 444.18 310.82 444.13C311.13 444.08 311.4 444.11 311.62 444.19C311.84 444.28 311.98 444.45 312.05 444.7C312.12 444.95 312.05 445.24 311.83 445.58C311.66 445.83 311.41 446.04 311.07 446.19C310.72 446.34 310.34 446.42 309.93 446.43C309.94 446.54 309.97 446.66 310.02 446.78C310.06 446.91 310.1 447.06 310.14 447.23C310.27 447.45 310.42 447.66 310.58 447.88ZM310.86 445.38C311.13 445.17 311.21 445 311.09 444.89C310.95 444.72 310.74 444.72 310.44 444.9C310.15 445.07 309.98 445.38 309.93 445.83C310.27 445.75 310.58 445.6 310.86 445.38ZM312.41 454.08C312.72 454.42 313.02 454.75 313.32 455.07C313.74 454.8 314.15 454.51 314.55 454.21C314.96 453.9 315.36 453.6 315.75 453.3C315.4 452.97 315.05 452.64 314.68 452.33C314.32 452.01 313.95 451.67 313.57 451.32C313.23 451.63 312.88 451.94 312.51 452.26C312.15 452.58 311.78 452.88 311.42 453.15C311.77 453.44 312.1 453.75 312.41 454.08ZM309.93 460.56C309.69 460.33 309.41 460.17 309.08 460.07C309.1 460.51 309.24 460.82 309.49 461C309.74 461.17 309.94 461.19 310.1 461.03C310.22 460.94 310.17 460.78 309.93 460.56ZM311.55 458.01C311.25 457.83 310.92 457.68 310.56 457.56C310.33 457.78 310.13 457.99 309.95 458.2C309.76 458.42 309.6 458.62 309.44 458.82L309.11 459.53C309.51 459.57 309.88 459.68 310.2 459.86C310.53 460.04 310.76 460.24 310.89 460.45C311.06 460.78 311.1 461.06 311 461.29C310.9 461.51 310.74 461.66 310.5 461.74C310.27 461.81 310.01 461.82 309.73 461.77C309.45 461.71 309.2 461.56 309 461.33C308.66 461.01 308.51 460.57 308.55 460.01C308.21 459.99 307.9 460.11 307.6 460.37C307.35 460.64 307.19 460.93 307.14 461.26C307.09 461.59 307.14 461.91 307.3 462.23C307.46 462.54 307.72 462.84 308.1 463.11C308.47 463.39 308.98 463.57 309.61 463.68C310.25 463.78 310.85 463.68 311.43 463.38C312 463.07 312.46 462.67 312.79 462.15C313.13 461.64 313.29 461.07 313.27 460.45C313.25 459.83 312.96 459.24 312.38 458.7C312.13 458.42 311.86 458.19 311.55 458.01ZM299.64 468.5C300.31 468.12 300.98 467.62 301.66 467C302.35 466.38 302.77 465.59 302.9 464.63C303.01 463.91 303.07 463.26 303.08 462.66C303.1 462.06 303.15 461.51 303.23 460.99C303.32 460.47 303.47 459.98 303.69 459.53C303.91 459.07 304.28 458.64 304.82 458.23C305.56 457.59 306.43 457.15 307.45 456.93C308.48 456.71 309.51 456.71 310.53 456.95C310.86 456.66 311.24 456.37 311.66 456.1C312.08 455.82 312.51 455.55 312.94 455.3C312.6 454.9 312.27 454.53 311.94 454.2C311.62 453.88 311.31 453.62 311 453.42C310.62 453.67 310.26 453.88 309.93 454.04C309.59 454.2 309.24 454.32 308.87 454.41C308.07 454.64 307.4 454.69 306.87 454.55C306.34 454.42 305.96 454.2 305.71 453.91C305.47 453.61 305.36 453.27 305.39 452.9C305.42 452.52 305.58 452.19 305.85 451.91C306.13 451.64 306.53 451.45 307.06 451.34C307.6 451.24 308.25 451.33 309.03 451.63C309.39 451.75 309.73 451.9 310.06 452.1C310.39 452.3 310.73 452.55 311.08 452.83C311.38 452.63 311.71 452.39 312.06 452.1C312.41 451.81 312.79 451.47 313.18 451.09C312.83 450.8 312.51 450.53 312.21 450.28C311.92 450.03 311.65 449.79 311.39 449.55L311.01 449.19C309.95 449.34 308.91 449.26 307.9 448.95C306.89 448.64 306.04 448.13 305.33 447.42C304.86 446.93 304.53 446.44 304.35 445.94C304.17 445.45 304.07 444.93 304.05 444.38C304.03 443.83 304.04 443.24 304.08 442.59C304.12 441.95 304.12 441.22 304.06 440.41C304.01 439.39 303.67 438.49 303.02 437.73C302.37 436.96 301.69 436.33 301 435.81L301.02 435.36C301.39 435.62 301.8 435.95 302.25 436.34C302.7 436.74 303.13 437.17 303.54 437.65C304.39 438.57 304.92 439.43 305.14 440.21C305.35 440.99 305.45 441.74 305.42 442.45C305.4 443.16 305.36 443.84 305.3 444.5C305.24 445.15 305.37 445.79 305.67 446.43C306.13 447.34 306.81 447.99 307.71 448.38C308.62 448.77 309.57 448.88 310.56 448.7C309.92 447.92 309.55 447.15 309.45 446.39C308.89 446.36 308.42 446.16 308.02 445.79C307.63 445.42 307.44 444.89 307.45 444.19C307.49 443.55 307.73 443.01 308.18 442.55C308.64 442.1 309.18 441.76 309.81 441.56C310.44 441.35 311.11 441.26 311.82 441.3C312.53 441.34 313.17 441.56 313.75 441.96C314.18 442.27 314.55 442.66 314.84 443.14C315.14 443.63 315.31 444.14 315.34 444.68C315.38 445.22 315.26 445.79 314.98 446.37C314.7 446.95 314.21 447.5 313.5 448.02C313.13 448.26 312.8 448.47 312.49 448.63C312.18 448.79 311.84 448.92 311.46 449.01L316.43 453.26C315.54 453.9 314.6 454.54 313.63 455.2C312.66 455.85 311.78 456.51 310.99 457.19C311.58 457.4 312.19 457.76 312.81 458.26C313.44 458.81 313.85 459.37 314.04 459.94C314.23 460.52 314.27 461.06 314.15 461.57C314.03 462.08 313.79 462.55 313.45 462.97C313.1 463.39 312.72 463.72 312.29 463.95C311.69 464.27 311.05 464.42 310.37 464.4C309.69 464.38 309.07 464.26 308.49 464.02C307.91 463.78 307.43 463.43 307.04 462.98C306.66 462.53 306.48 462.01 306.51 461.42C306.57 460.76 306.82 460.28 307.25 459.98C307.68 459.67 308.16 459.53 308.68 459.56C308.77 459.22 308.92 458.87 309.14 458.5C309.35 458.12 309.65 457.75 310.03 457.38C309.09 457.13 308.14 457.17 307.21 457.5C306.28 457.82 305.55 458.4 305.01 459.23C304.66 459.81 304.47 460.41 304.47 461.02C304.46 461.63 304.44 462.26 304.4 462.91C304.37 463.56 304.22 464.23 303.94 464.92C303.66 465.61 303.07 466.33 302.17 467.07C301.75 467.46 301.31 467.81 300.85 468.13C300.4 468.45 300 468.71 299.66 468.93L299.64 468.5ZM310.58 447.88C310.73 448.09 310.9 448.33 311.08 448.59C311.46 448.49 311.81 448.37 312.14 448.21C312.48 448.04 312.79 447.83 313.08 447.56C313.74 447.04 314.12 446.46 314.23 445.81C314.34 445.15 314.26 444.53 314 443.94C313.73 443.36 313.33 442.87 312.77 442.5C312.22 442.12 311.61 441.96 310.93 442.02C310.26 442.08 309.71 442.24 309.29 442.5C308.87 442.76 308.55 443.07 308.34 443.4C308.12 443.74 308.03 444.09 308.06 444.45C308.09 444.81 308.23 445.13 308.48 445.42C308.68 445.74 308.98 445.9 309.37 445.91C309.38 445.3 309.58 444.83 309.97 444.52C310.23 444.31 310.51 444.18 310.82 444.13C311.13 444.08 311.4 444.11 311.62 444.19C311.84 444.28 311.98 444.45 312.05 444.7C312.12 444.95 312.05 445.24 311.83 445.58C311.66 445.83 311.41 446.04 311.07 446.19C310.72 446.34 310.34 446.42 309.93 446.43C309.94 446.54 309.97 446.66 310.02 446.78C310.06 446.91 310.1 447.06 310.14 447.23C310.27 447.45 310.42 447.66 310.58 447.88ZM310.86 445.38C311.13 445.17 311.21 445 311.09 444.89C310.95 444.72 310.74 444.72 310.44 444.9C310.15 445.07 309.98 445.38 309.93 445.83C310.27 445.75 310.58 445.6 310.86 445.38ZM312.41 454.08C312.72 454.42 313.02 454.75 313.32 455.07C313.74 454.8 314.15 454.51 314.55 454.21C314.96 453.9 315.36 453.6 315.75 453.3C315.4 452.97 315.05 452.64 314.68 452.33C314.32 452.01 313.95 451.67 313.57 451.32C313.23 451.63 312.88 451.94 312.51 452.26C312.15 452.58 311.78 452.88 311.42 453.15C311.77 453.44 312.1 453.75 312.41 454.08ZM309.93 460.56C309.69 460.33 309.41 460.17 309.08 460.07C309.1 460.51 309.24 460.82 309.49 461C309.74 461.17 309.94 461.19 310.1 461.03C310.22 460.94 310.17 460.78 309.93 460.56ZM311.55 458.01C311.25 457.83 310.92 457.68 310.56 457.56C310.33 457.78 310.13 457.99 309.95 458.2C309.76 458.42 309.6 458.62 309.44 458.82L309.11 459.53C309.51 459.57 309.88 459.68 310.2 459.86C310.53 460.04 310.76 460.24 310.89 460.45C311.06 460.78 311.1 461.06 311 461.29C310.9 461.51 310.74 461.66 310.5 461.74C310.27 461.81 310.01 461.82 309.73 461.77C309.45 461.71 309.2 461.56 309 461.33C308.66 461.01 308.51 460.57 308.55 460.01C308.21 459.99 307.9 460.11 307.6 460.37C307.35 460.64 307.19 460.93 307.14 461.26C307.09 461.59 307.14 461.91 307.3 462.23C307.46 462.54 307.72 462.84 308.1 463.11C308.47 463.39 308.98 463.57 309.61 463.68C310.25 463.78 310.85 463.68 311.43 463.38C312 463.07 312.46 462.67 312.79 462.15C313.13 461.64 313.29 461.07 313.27 460.45C313.25 459.83 312.96 459.24 312.38 458.7C312.13 458.42 311.86 458.19 311.55 458.01Z" />
</svg>