<svg version="1.2" baseProfile="tiny-ps" xmlns="http://www.w3.org/2000/svg" viewBox="0 0 350 480" width="350" height="480">
	<title>xbg3.svg</title>
	<style>
		tspan { white-space:pre }
		.shp0 { fill: #dadada ;transform:translateY(-7px);transform-origin:center center;} 
		.shp1 { fill: #1a2649 } 
		.shp2 { fill: #5368a5 } 
	</style>
	<path id="s0" class="shp0" d="M179.5 428C230.03 428 271 438.75 271 452C271 465.25 230.03 476 179.5 476C128.97 476 88 465.25 88 452C88 438.75 128.97 428 179.5 428Z" />
	<path id="s1" class="shp1" d="M212.08 61.28C244.07 75.97 277.49 138.86 295.34 164.07C323.51 203.84 350.41 211.3 331.4 252.68C300.34 320.29 212.05 345.23 133.29 291.81C58.28 240.94 55.1 178.02 20.46 109.86C-6.6 56.61 129.62 23.4 212.08 61.28Z" />
	<path id="s1a" fill-rule="evenodd" class="shp2" d="M138.06 52.51C169.55 54.13 199.89 65.26 207 71C233.2 92.16 242.87 130.98 269 152C286.52 166.1 337.32 203.64 316 232C315.33 232.33 314.67 232.67 314 233C254.29 232.57 243.12 141.73 200 118C162.33 97.26 101.27 131.17 54 121C45.61 119.19 40.95 115.5 37 109C2.2 51.73 123.45 51.76 138.06 52.51Z" />
	<path id="s2" class="shp2" d="M301 278C315.91 278 328 291.43 328 308C328 324.57 315.91 338 301 338C286.09 338 274 324.57 274 308C274 291.43 286.09 278 301 278ZM298.5 370C308.16 370 316 378.51 316 389C316 399.49 308.16 408 298.5 408C288.84 408 281 399.49 281 389C281 378.51 288.84 370 298.5 370ZM53.5 265C62.61 265 70 273.06 70 283C70 292.94 62.61 301 53.5 301C44.39 301 37 292.94 37 283C37 273.06 44.39 265 53.5 265ZM278 36C286.28 36 293 43.61 293 53C293 62.39 286.28 70 278 70C269.72 70 263 62.39 263 53C263 43.61 269.72 36 278 36ZM109 347C119.49 347 128 356.85 128 369C128 381.15 119.49 391 109 391C98.51 391 90 381.15 90 369C90 356.85 98.51 347 109 347Z" />
</svg>