<svg version="1.2" baseProfile="tiny-ps" xmlns="http://www.w3.org/2000/svg" viewBox="0 0 350 480" width="350" height="480">
	<title>xbg4.svg</title>
	<style>
		tspan { white-space:pre }
		.s0 { fill: #cc0000 } 
		.s1 { opacity: 1;fill: #ff9e17 } 
		.s2 { opacity: .7;fill: #ffe817 } 
	</style>
	<path id="firebig" class="s0" d="m330 334c-1.42 5.66-3.32 10.77-5.52 15.37c4.58 17.32 7.22 34.43 5.52 46.63c-4.24 30.42-12 28-12 28c0 0-129.65 14.25-139 1c-9.35-13.25-124.09-6.18-129 1c-4.91 7.18-27-7-27-7c0 0-20.73-18.35-12-52c8.73-33.65 34.67-60.41 31-82c-3.67-21.59 16.07 50.89 0 86c-16.07 35.11 36.06-15.38 30-33c-6.06-17.62-51.4-87.99-41-148c10.4-60.01-1.58 27.21 34 69c35.58 41.79-26.27-45.71-9-103c10.01-33.21 49.53-84.31 52-110c2.47-25.69 9-40 9-40c0 0 10.59 27.45 4 55c-6.59 27.55-35.78 61.38-24 91c11.78 29.62 41.26 69.88 33 96c-8.26 26.12-9.92 62.14 5 76c14.92 13.86 24.35-64.44 14-80c-10.35-15.56-33.15-88.14-4-117c29.15-28.86-15.3 14.05 12 60c27.3 45.95 47.08-104.64 20-132c-27.08-27.36 51.03 5.89 41 75c-10.03 69.11-41.48 89.67-39 120c2.48 30.33 7.54 69.68 16 72c8.46 2.32 36.41-47.05 23-72c-13.41-24.95-5.53-44.34 8-62c13.53-17.66 6.36 10.31 14 22c7.64 11.69 33-11.27 28-39c-5-27.73-12.97-51.3-19-63c-6.03-11.7 32.62 36.3 37 53c4.38 16.7-11.44 72.21-36 100c-24.56 27.79 16.62 76.73 29 83c12.38 6.27 4.47-33.9-5-50c-9.47-16.1 22-56.85 32-64c10-7.15-19.49 37.37-7 56c3.84 5.72 8.64 15.44 13.33 27.04c5.02-12.91 9.29-27.35 8.67-38.04c-1.43-24.57 19.43 17.35 9 59z" />
	<path id="f1" class="s0" d="m328 221c0 0-13.15-12.37-13-25c0.15-12.63 12.89-17.68 13-27c0.11-9.32 8.14 13.02 3 23c-5.14 9.98-3 29-3 29z" />
	<path id="f2" class="s0" d="m29 111c-7.9 15.8-5.94-26.48 0-38c5.94-11.52 13.18-25.15 9-33c-4.18-7.85 22.49 29.76 10 51c-12.49 21.24-3.78-10.46-19 20z" />
	<path id="f3" class="s0" d="m269 34c-2.63-9.43 8.83-30.05 8-24c-0.83 6.05 4.21 12 8 24c3.79 12-8 24-8 24c1.69-9.59-5.37-14.57-8-24z" />
	<path id="finner" fill-rule="evenodd" class="s1" d="m274 22c4.84 4.84 7.92 8.06 8 18c-1.67-1.67-3.33-3.33-5-5c-1.33-1-2.67-2-4-3c0.33-3.33 0.67-6.67 1-10zm-156 24c-4.98 21.37-21.31 35.2-26 58c13.21-12.56 39.25-57.8 24-81c-0.48 7.97 4.23 13.46 2 23zm-85 44c0.33 0 0.67 0 1 0c2-3 4-6 6-9c1-0.33 2-0.67 3-1c0.33 2.67 0.67 5.33 1 8c6.63-7.03 4.48-22.85-2-28c-4.68 8.73-9.18 15.99-9 30zm163 74c18.86-18.4 22.34-76.81-5-88c16.02 36.97 19.33 45.66 5 88zm-133 11c-9.22 39.12 29.14 108.11 38 135c0.67 0.33 1.33 0.67 2 1c-0.6-10.82-4.5-25.28-1-37c4.69-15.7 15.5-31.82 10-56c-2.29-10.08-10.05-14.93-14-23c-9.3-19.01-10.14-40.68-10-70c-1 0-2 0-3 0c-7.33 16.67-14.67 33.34-22 50zm100 58c0.67 0.33 1.33 0.67 2 1c11.13-11.57 22.54-23.9 23-46c-0.33 0-0.67 0-1 0c-2.82 9.41-8.19 19.41-16 24c-16.54-8.34-20.5-17.28-29-34c-1.14 24.65 14.39 36.65 21 55zm160-30c0 0.67 0 1.33 0 2c3.76-4.09 8.31-16.61 6-23c-2.35 6.28-9.01 13.15-6 21zm-104 31c3.67 5.33 7.33 10.67 11 16c-1.33 9-2.67 18-4 27c0.33 0 0.67 0 1 0c5.03-20.62 26.29-23.91 36-39c0-3.67 0-7.33 0-11c5.72-9.27 12.29-18.42 16-31c-12.5 12.11-18.04 28.02-37 34c-10.76-10.28-8.99-18.63-15-35c-4.52 10.7-16.88 23.38-8 39zm79 73c0.33 0 0.67 0 1 0c-3.33-7.67-6.67-15.33-10-23c0.67-8.67 1.33-17.33 2-26c-6.94 18.9-11.04 35.94 7 49zm-219 17c11.29-27.12-17.11-54.28-29-64c0.1 33.91 26.48 33.99 29 64zm247-36c-4.94 36.49-7.97 40.83-18 49c-6.75-1.13-12.26-10.12-14-16c-0.67-0.33-1.33-0.67-2-1c3.21 11.06 10.7 27.68 3 41c-5.9 8.08-32.98-25.46-39-28c-5.88 0.56 2.73 27.84 0 31c-6.33-2.33-13.67 13.18-14-9c-3-11-6-22-9-33c-0.33-7.67-0.67-15.33-1-23c-0.33-0.67-0.67-1.33-1-2c-4.14 22.32-11.54 46.33-33 47c-1.33 0-2.67 0-4 0c-14.77-19.91-30.96-42.58-27-78c-0.33 0-0.67 0-1 0c-9.15 46.55-1.81 71.21-43 91c-3.67-8.33-12.06 0.07-6-18c-0.67-0.33-6.33-7.67-7-8c-0.86 12.09-2.48 20.23 2 29c0 0.33 0 0.67 0 1c-19.74-22-29 12.07-38-8c0.64 21.51-9.25 39.88-37 39c-11.52-22.14 4.03-42.14 6-70c-5.74 10.43-32.33 56.3-29 65c4.07 10.64 16.28 30.11 33 24c6.01-2.2 16.66-15.51 26-14c13.03 2.11 23.15 13.24 43 10c12.49-2.04 22.85-11.73 37-9c13.04 2.52 24.58 14.76 42 12c7.33-3.33 14.67-6.67 22-10c11.33 2.33 22.67 4.67 34 7c11.55 1.75 17.2-7.96 36-6c0-2 9 2 9 0c15.51-14.62 33.37-76.34 30-113zm-223 23c0.33 0.67 0.67 1.33 1 2c-0.33-0.67-0.67-1.33-1-2zm-60 6c0 1.33 0 2.67 0 4c0-1.33 0-2.67 0-4z" />
	<path id="fsml" fill-rule="evenodd" class="s2" d="m317 22c0 7 0 14 0 21c-0.67-0.33-1.33-0.67-2-1c0.67-6.67 1.33-13.33 2-20zm-256 4c0 9.33 0 18.67 0 28c-0.67-0.33-1.33-0.67-2-1c-1.55-4.9-4.57-13.14-3-18c1.11-4.96 2.62-5.73 5-9zm135 2c5.22 12.51 19.71 46.32 13 63c0-0.67 0-1.33 0-2c-11.64-10.87-16.62-32.25-13-61zm-37 47c4.53 6.46 4.15 17.42 3 27c-0.33 0-0.67 0-1 0c-1.33-8.67-3.03-16.58-2-27zm-113 47c1.49 5.23-1.97 17.86-4 23c-0.33 0-0.67 0-1 0c-0.36-11.03 1.52-16.54 5-23zm252 13c3.43 3.21 2.75 15.73 0 19c-1.33-4-2.67-8-4-12c1.33-2.33 2.67-4.67 4-7zm-220 30c0 20 0 40 0 60c-0.33 0-0.67 0-1 0c-0.33-0.67-0.67-1.33-1-2c-15.57-14.73-1.39-41.94 2-58zm245 23c1.33 1 2.67 2 4 3c-0.33 2-0.67 4-1 6c-0.33 0-0.67 0-1 0c-0.67-3-1.33-6-2-9zm3 10c5.62 4.56 9.76 11 10 21c-4.67 8.67-9.33 17.33-14 26c0.98-22.02 9.04-20.59 4-47zm-281 9c2 7.67 4 15.33 6 23c11.54 26.23 18.38 16.23 18 56c-21.68-17.31-29.96-42.07-24-79zm43 3c5 1.33 10 2.67 15 4c7.19 17.52-2.51 29.76-8 45c-0.33 0-0.67 0-1 0c1.37-17.68 6.63-32.67-2-47c-1.33-0.67-2.67-1.33-4-2zm138 13c4.83 6.44 5.8 11.51 17 12c5.42-2.02 8.93-4.06 13-7c0 3 0 6 0 9c-9.91 7.23-15.78 12.14-21 16c-0.38-15.6-8.26-14.65-9-30zm-149 3c0.67 0.67 1.33 1.33 2 2c-1.92-1.39-0.6-0.1-2-2zm210 14c-2 8.67-4 17.33-6 26c-2.18 13.75 2.48 21.99 1 35c-0.33 0-0.67 0-1 0c-0.56-32.28-12.17-37.28 6-61zm-273 38c2.98 5.99 6.21 26.51 4 32c0-0.67 0-1.33 0-2c-7.83-9.2-6.07-17.26-4-30zm68 87c15.03-2.38 17.7-2.12 28 6c53.02-1.24 33.27-34.09 57-58c0 0.67 0 1.33 0 2c9.35 11.1 13.19 51.19 36 41c3.28-10.68 25-28 25-28c3 14.33 6 28.67 9 43c5.67 0.67 11.33 1.33 17 2c9.1-2.6 10.36-11.13 16-17c4.67 6 9.33 12 14 18c11.15-1.59 14.61-7.02 21-13c-2.58 11.2-7.12 21.19-13 29c-13.33 1-26.67 2-40 3c-37.29-6.1-90.55-6.1-130 0c-8.44 1.31-12.06-3.65-17-5c-10.65-2.9-28 0.32-36 2c0.67-1 1.33-2 2-3c4-3.67 8-7.33 12-11c-0.33-3.67-0.67-7.33-1-11zm-49-16c0.33 1 0.67 2 1 3c-0.33 0-0.67 0-1 0c0-1 0-2 0-3zm-1 3c0 12.67 0 25.33 0 38c3.33 4 6.67 8 10 12c-0.67 0-1.33 0-2 0c-1.33 0.33-2.67 0.67-4 1c-6.53-4.84-13.86-6.6-17-15c-5.9-13.77 8.44-27.36 13-36zm48-192c0.33 0.67 0.67 1.33 1 2c-0.33-0.67-0.67-1.33-1-2zm-1 3c0.33 0.67 0.67 1.33 1 2c-0.33-0.67-0.67-1.33-1-2zm146 58c0.33 0.67 0.67 1.33 1 2c-0.33-0.67-0.67-1.33-1-2z" />
</svg>