
<svg version="1.2" baseProfile="tiny-ps" xmlns="http://www.w3.org/2000/svg" viewBox="0 0 350 480" width="350" height="480">
	<title>xbg7.svg</title>
<defs>
   <radialGradient id="grd" cx="50%" cy="30%" r="100%" >
    
            <stop offset="1%" style="stop-color:rgb(255,176,255);stop-opacity:1.00" />
            <stop offset="36%" style="stop-color:rgb(158,83,158);stop-opacity:1.00" />
            <stop offset="68%" style="stop-color:rgb(118,0,128);stop-opacity:1.00" />
            <stop offset="100%" style="stop-color:rgb(79,11,85);stop-opacity:1.00" />

    </radialGradient>
  </defs>
	<style>
		tspan { white-space:pre }
		.s0 { fill: #c4b56a } 
		.s1 { opacity: .1;fill: #000000 } 
		.s2 { opacity: .4;fill: #ffffff } 
		.s3 { opacity: 0;fill: #b1b1b1 } 
		.s4 { opacity: 0;fill: #ffffff } 
#corner0,#corner1{opacity: 1;}
#cgclogo{opacity: .2;}
#star11{opacity: 0.11;fill:#fff;}
#main{fill:url(#grd);}
	</style>
	<path id="main" class="s0" d="m23 16h304c3.87 0 7 3.13 7 7v431c0 3.87-3.13 7-7 7h-304c-3.87 0-7-3.13-7-7v-431c0-3.87 3.13-7 7-7z" />
	<path id="cgclogo" class="s1" d="m299.88 126.93c-8.38 5.85-24.23 7.36-39.34 9.3c11.89 0.86 24.15 0.87 36.97-0.5c-11.91 2.31-31.58 2.86-56.34 2.26c21.23 4.94 40.47 8.08 54.24 6.62c3.64-0.39 3.46 1.73-0.61 2.35c-16.94 2.58-39.71 0.42-53.53-3.27c9.36 3.84 19.58 6.62 30.58 8.46c-11.21-1.02-22.32-3.23-33.29-7.37c8.36 6.2 18.06 12.19 29.61 17c2.74 1.14 4.2 3.48-1.75 2.18c-11.54-2.52-23.39-8.18-35.13-17.67c4.52 5.54 10.38 10.51 17 15.16c-7.36-4.41-13.9-9.6-19.63-15.58c2.06 6.94 4.31 12.56 8.94 18.93c1.83 2.52 1.24 2.93-1.4 1c-6.33-4.61-11.68-12.06-16.12-21.52c1.55 6.98 4.15 13.29 7.8 18.93c-3.91-4.85-7.05-10.81-9.55-17.67c0.47 6.64 1.63 12.23 3.5 16.58c0.92 2.13-0.4 2.51-1.84 0.75c-4.35-5.31-7.01-10.75-8.67-16.42c0.59 4.08 1.6 8.15 2.89 12.23c-1.42-3.55-2.73-7.09-3.68-10.64c0.14 2.35 0.49 4.68 0.79 7.04c0.25 2.03-0.57 2.19-1.23 0.08c-0.72-2.3-0.99-4.8-1.31-7.54c-0.07 1.7-0.14 3.73-0.09 5.44c0.05 1.48-0.94 0.94-1.05-0.17c-0.16-1.64-0.18-3.6 0-5.44c-0.26 5.08-1.96 5.53-1.4 0.84c-1.72 1.51-2.91 0.17-1.75-2.26c1.7-3.57 3.22-7.31 5.08-10.8c2.58-4.87 7.77-7.5 16.12-7.37c5.75 0.14 11.51 0.28 17.26 0.42c4.01 0.17 8.15-0.31 12.35-2.01c1.96-0.79 2.06 0.61 0.26 1.42c-3.25 1.47-7.07 2.64-11.22 3.52c11.49-0.62 23.03-1.64 35.22-7.2c-8.39 4.97-17.83 7.23-27.86 7.96c17.04 0.18 33.75-0.32 47.75-6.62c2.24-1.01 1.79 0.65 0.44 1.59zm-122.3 48.27c-0.01 0.11-0.04 0.21-0.1 0.3c-0.08 0.11-0.17 0.17-0.27 0.17h-5.41c-0.1 0-0.2-0.06-0.27-0.17c-0.06-0.09-0.09-0.19-0.1-0.3l-26.25-14.62l0.22-0.37h-0.06v-12.32c-0.4 0.1-0.94-0.07-1.54-0.6c0.56 4.69-1.14 4.24-1.4-0.84c0.18 1.84 0.16 3.81 0 5.44c-0.11 1.11-1.1 1.65-1.05 0.17c0.06-1.71-0.01-3.74-0.09-5.44c-0.32 2.74-0.6 5.23-1.31 7.54c-0.66 2.11-1.48 1.95-1.23-0.08c0.29-2.36 0.65-4.69 0.79-7.04c-0.95 3.55-2.26 7.09-3.68 10.64c1.29-4.08 2.3-8.15 2.89-12.23c-1.66 5.67-4.33 11.1-8.67 16.42c-1.44 1.76-2.76 1.38-1.84-0.75c1.88-4.36 3.04-9.94 3.5-16.58c-2.5 6.86-5.64 12.82-9.55 17.67c3.65-5.64 6.25-11.95 7.8-18.93c-4.44 9.46-9.8 16.92-16.12 21.52c-2.64 1.92-3.23 1.51-1.4-1c4.63-6.37 6.88-11.99 8.94-18.93c-5.72 5.97-12.27 11.17-19.63 15.58c6.62-4.65 12.48-9.62 17-15.16c-11.74 9.49-23.59 15.15-35.13 17.67c-5.95 1.3-4.5-1.04-1.75-2.18c11.56-4.81 21.26-10.8 29.61-17c-10.97 4.14-22.09 6.35-33.29 7.37c10.99-1.83 21.22-4.61 30.58-8.46c-13.82 3.69-36.59 5.85-53.53 3.27c-4.07-0.62-4.26-2.73-0.61-2.35c13.76 1.46 33-1.68 54.24-6.62c-24.76 0.6-44.43 0.05-56.34-2.26c12.83 1.37 25.08 1.36 36.97 0.5c-15.11-1.94-30.96-3.45-39.34-9.3c-1.35-0.94-1.8-2.6 0.44-1.59c14 6.3 30.71 6.8 47.75 6.62c-10.03-0.73-19.47-2.99-27.86-7.96c12.19 5.56 23.74 6.58 35.22 7.2c-4.15-0.88-7.96-2.05-11.22-3.52c-1.8-0.81-1.7-2.21 0.26-1.42c4.21 1.7 8.35 2.18 12.35 2.01c5.75-0.14 11.51-0.28 17.26-0.42c8.35-0.13 13.54 2.5 16.12 7.37c1.78 3.35 3.26 6.92 4.87 10.35v-13.79h0.06l-0.22-0.37l26.25-14.62c0.01-0.11 0.04-0.21 0.1-0.3c0.08-0.11 0.17-0.17 0.27-0.17h5.41c0.1 0 0.2 0.06 0.27 0.17c0.06 0.09 0.09 0.19 0.1 0.3l26.25 14.62l-0.22 0.37h0.06v29.43h-0.06l0.22 0.37l-26.25 14.62zm21.84-42.51l-23.97-13.34l-0.68 1.02c-0.08 0.11-0.17 0.17-0.27 0.17c-0.1 0-0.2-0.06-0.27-0.17l-0.68-1.02l-23.97 13.34v25.62l23.97 13.34l0.68-1.02c0.08-0.11 0.17-0.17 0.27-0.17c0.1 0 0.2 0.06 0.27 0.17l0.68 1.02l23.97-13.34v-25.62zm-39.97 26.59c0-1.44 1.21-2.61 2.7-2.61h24.69c1.49 0 2.7 1.17 2.7 2.61v2.24h-30.1v-2.24zm30.1-7.08c0 1.44-1.21 2.61-2.7 2.61h-24.69c-1.49 0-2.7-1.17-2.7-2.61v-2.11l-3.43-8.85c-0.32 0.1-0.66 0.15-1.01 0.15c-1.81 0-3.28-1.42-3.28-3.17c0-1.75 1.47-3.17 3.28-3.17c1.81 0 3.28 1.42 3.28 3.17c0 0.42-0.09 0.82-0.24 1.18l9.93 5.05l5.18-10.71c-1.25-0.45-2.14-1.6-2.14-2.97c0-1.75 1.47-3.17 3.28-3.17c1.81 0 3.28 1.42 3.28 3.17c0 1.24-0.74 2.31-1.82 2.83l5.32 11.01l10.24-5.21c-0.15-0.37-0.24-0.76-0.24-1.18c0-1.75 1.47-3.17 3.28-3.17c1.81 0 3.28 1.42 3.28 3.17c0 1.75-1.47 3.17-3.28 3.17c-0.35 0-0.69-0.06-1.01-0.15l-3.81 9.84v1.11z" />
	<path id="corner0" class="s2" d="m280 18h48c0 0 3.78-0.75 4 9c0.22 9.75 0 72 0 72c0 0-3.19-72.7-4-76c-0.27-1.09-1.57-2.49-5-3c-8.71-1.3-26.53-0.45-43-2z" />
	<path id="corner1" class="s2" d="m69 459h-48c0 0-3.78 0.75-4-9c-0.22-9.75 0-72 0-72c0 0 3.19 72.7 4 76c0.27 1.09 1.57 2.49 5 3c8.71 1.3 26.53 0.45 43 2z" />
	<path id="star11" class="s3" d="m332.91 45.18l-155.18 97.95c-1.16 0.83-1.85 1.13-2.08 0.9c-0.03-0.03-0.03-0.09-0.04-0.14c-0.09 0.34-0.18 0.59-0.28 0.77c0.33-0.18 0.9-0.35 1.79-0.5l150.72-19.96c1.41-0.23 2.61-0.26 3.62-0.08c1.01 0.18 1.51 0.5 1.51 0.97v39.81c0 0.47-0.5 0.79-1.51 0.97c-1.01 0.18-2.21 0.15-3.62-0.08l-150.72-19.96c-0.9-0.15-1.49-0.32-1.81-0.51c0.1 0.18 0.2 0.43 0.3 0.79c0.01-0.05 0.01-0.12 0.04-0.15c0.23-0.23 0.92 0.07 2.08 0.9l153.18 131.95c1.16 0.83 2.03 1.66 2.62 2.5c0.59 0.84 0.71 1.43 0.38 1.76l-0.15 57.15c-0.33 0.33-0.92 0.2-1.76-0.38c-0.84-0.59-1.67-1.46-2.5-2.62l-152.95-189.18c-0.39-0.54-0.65-0.98-0.81-1.32c0.03 0.14 0.05 0.25 0.08 0.4l19.96 307.72c0.23 1.41 0.26 2.61 0.08 3.62c-0.18 1.01-0.5 1.51-0.97 1.51h-39.81c-0.47 0-0.79-0.5-0.97-1.51c-0.18-1.01-0.15-2.21 0.08-3.62l19.96-307.72c0.02-0.11 0.04-0.19 0.06-0.29c-0.16 0.32-0.4 0.71-0.75 1.21l-152.95 189.18c-0.83 1.16-1.66 2.03-2.5 2.62c-0.84 0.59-1.43 0.71-1.76 0.38l-0.15-57.15c-0.33-0.33-0.2-0.92 0.38-1.76c0.59-0.84 1.46-1.67 2.62-2.5l153.18-131.95c1.16-0.83 1.85-1.13 2.08-0.9c0.02 0.02 0.01 0.06 0.02 0.09c0.08-0.31 0.17-0.55 0.27-0.72c-0.33 0.19-0.9 0.35-1.79 0.5l-150.72 19.96c-1.41 0.23-2.61 0.26-3.62 0.08c-1.01-0.18-1.51-0.5-1.51-0.97v-39.81c0-0.47 0.5-0.79 1.51-0.97c1.01-0.18 2.21-0.15 3.62 0.08l150.72 19.96c0.89 0.15 1.47 0.32 1.8 0.5c-0.09-0.17-0.18-0.41-0.27-0.73c-0.01 0.03-0.01 0.07-0.03 0.1c-0.23 0.23-0.92-0.07-2.08-0.9l-155.18-97.95c-1.16-0.83-0.03-23.66-0.62-24.5c-0.59-0.84 4.29-3.43 4.62-3.76l28.15-0.15c0.33-0.33 0.92-0.2 1.76 0.38c0.84 0.59 1.67 1.46 2.5 2.62l119.95 122.18c0.36 0.5 0.6 0.9 0.76 1.22c-0.02-0.11-0.04-0.19-0.06-0.31l-19.96-121.72c-0.23-1.41-0.26-2.61-0.08-3.62c0.18-1.01 0.5-1.51 0.97-1.51h39.81c0.47 0 0.79 0.5 0.97 1.51c0.18 1.01 0.15 2.21-0.08 3.62l-19.96 121.72c-0.02 0.15-0.05 0.25-0.08 0.38c0.16-0.34 0.41-0.76 0.8-1.3l119.95-122.18c0.83-1.16 1.66-2.03 2.5-2.62c0.84-0.59 1.43-0.71 1.76-0.38l28.15 0.15c0.33 0.33 5.2 2.92 4.62 3.76c-0.59 0.84 0.54 23.67-0.62 24.5zm-157.87 99.77c-0.02 0-0.04 0.02-0.05 0.02c-0.02 0-0.04-0.02-0.06-0.02c0 0.02 0.03 0.03 0.03 0.05c0 0.02-0.02 0.03-0.03 0.05c0.02 0 0.04-0.02 0.05-0.02c0.02 0 0.04 0.03 0.06 0.04c-0.01-0.02-0.03-0.04-0.03-0.06c0-0.02 0.02-0.03 0.03-0.05z" />
	<path id="wave9" class="s4" d="m17 267c0 0 58.67-88.95 156.85-49.79c98.18 39.15 158.15-50.21 158.15-50.21v289l-315-1v-188z" />
</svg>