<svg version="1.2" baseProfile="tiny-ps" xmlns="http://www.w3.org/2000/svg" viewBox="0 0 200 148" width="800" height="748">
	<title>ani7.svg</title>

<defs>
   <radialGradient id="grblue" cx="45%" cy="53%" r="58%" >
    <stop offset="0%" style="stop-color:rgb(33,150,243);stop-opacity:1.00" />
            <stop offset="13%" style="stop-color:rgb(33,150,243);stop-opacity:1.00" />
            <stop offset="18%" style="stop-color:rgb(209,255,204);stop-opacity:1.00" />
            <stop offset="29%" style="stop-color:rgb(33,150,243);stop-opacity:1.00" />
            <stop offset="39%" style="stop-color:rgb(16,115,195);stop-opacity:1.00" />
            <stop offset="48%" style="stop-color:rgb(21,143,242);stop-opacity:1.00" />
            <stop offset="66%" style="stop-color:rgb(7,44,75);stop-opacity:1.00" />

    </radialGradient>


<radialGradient id="grbluer" cx="55%" cy="53%" r="58%" >
    <stop offset="0%" style="stop-color:rgb(33,150,243);stop-opacity:1.00" />
            <stop offset="13%" style="stop-color:rgb(33,150,243);stop-opacity:1.00" />
            <stop offset="18%" style="stop-color:rgb(209,255,204);stop-opacity:1.00" />
            <stop offset="29%" style="stop-color:rgb(33,150,243);stop-opacity:1.00" />
            <stop offset="39%" style="stop-color:rgb(16,115,195);stop-opacity:1.00" />
            <stop offset="48%" style="stop-color:rgb(21,143,242);stop-opacity:1.00" />
            <stop offset="66%" style="stop-color:rgb(7,44,75);stop-opacity:1.00" />

    </radialGradient>


<radialGradient id="blugr" cx="50%" cy="57%" r="54%" >
    
            <stop offset="0%" style="stop-color:rgb(0,8,15);stop-opacity:1.00" />
            <stop offset="35%" style="stop-color:rgb(2,41,71);stop-opacity:1.00" />
            <stop offset="41%" style="stop-color:rgb(11,52,85);stop-opacity:1.00" />
            <stop offset="54%" style="stop-color:rgb(16,115,195);stop-opacity:1.00" />
            <stop offset="57%" style="stop-color:rgb(21,143,242);stop-opacity:1.00" />
            <stop offset="79%" style="stop-color:rgb(7,44,75);stop-opacity:1.00" />

    </radialGradient>




<radialGradient id="greenr" cx="50%" cy="57%" r="54%" >
    
            <stop offset="0%" style="stop-color:rgb(7,75,13);stop-opacity:1.00" />
            <stop offset="35%" style="stop-color:rgb(9,78,15);stop-opacity:1.00" />
            <stop offset="41%" style="stop-color:rgb(21,141,31);stop-opacity:1.00" />
            <stop offset="54%" style="stop-color:rgb(40,255,59);stop-opacity:1.00" />
            <stop offset="57%" style="stop-color:rgb(30,178,43);stop-opacity:1.00" />
            <stop offset="79%" style="stop-color:rgb(7,75,13);stop-opacity:1.00" />

    </radialGradient>


<radialGradient id="green" cx="50%" cy="57%" r="54%" >
    
            <stop offset="0%" style="stop-color:rgb(7,75,13);stop-opacity:1.00" />
            <stop offset="35%" style="stop-color:rgb(9,78,15);stop-opacity:1.00" />
            <stop offset="41%" style="stop-color:rgb(21,141,31);stop-opacity:1.00" />
            <stop offset="54%" style="stop-color:rgb(40,255,59);stop-opacity:1.00" />
            <stop offset="57%" style="stop-color:rgb(30,178,43);stop-opacity:1.00" />
            <stop offset="79%" style="stop-color:rgb(7,75,13);stop-opacity:1.00" />

    </radialGradient>

<radialGradient id="mov" cx="50%" cy="57%" r="54%" >
    
            <stop offset="0%" style="stop-color:rgb(81,19,80);stop-opacity:1.00" />
            <stop offset="35%" style="stop-color:rgb(135,11,132);stop-opacity:1.00" />
            <stop offset="41%" style="stop-color:rgb(198,48,195);stop-opacity:1.00" />
            <stop offset="54%" style="stop-color:rgb(255,85,185);stop-opacity:1.00" />
            <stop offset="57%" style="stop-color:rgb(235,23,230);stop-opacity:1.00" />
            <stop offset="79%" style="stop-color:rgb(135,11,132);stop-opacity:1.00" />

    </radialGradient>

<radialGradient id="movr" cx="50%" cy="53%" r="50%" >
    
            <stop offset="0%" style="stop-color:rgb(81,19,80);stop-opacity:1.00" />
            <stop offset="35%" style="stop-color:rgb(135,11,132);stop-opacity:1.00" />
            <stop offset="41%" style="stop-color:rgb(198,48,195);stop-opacity:1.00" />
            <stop offset="54%" style="stop-color:rgb(255,85,185);stop-opacity:1.00" />
            <stop offset="57%" style="stop-color:rgb(235,23,230);stop-opacity:1.00" />
            <stop offset="79%" style="stop-color:rgb(135,11,132);stop-opacity:1.00" />

    </radialGradient>

  </defs>
	<style>
		tspan { white-space:pre }
		.shp0 { opacity: 1;fill: #000000 } 
		.shp1 { opacity: 1;fill: #ffffff } 
		.shp2 { fill: #ffffff } 
		.shp3 { fill: #000000 } 
		.shp4 { fill: #896b6b } 
		.shp5 { opacity:0;fill: #000; } 
		.shp6 { opacity: 0.42;fill: #000000 } 
.dxhide{opacity:0;}
/*** Eye 1***/
#m2a{opacity:.8;}
#m2{opacity:.8;}

#m2a_copy{opacity:0.6;transform:translate(-25px, 11px) scale(2);transform-origin:center;fill:#fff;}
#m2_copy{opacity:0.6;transform:translate(43px, 11px) scale(2);transform-origin:center;fill:#fff;}

#m1a{fill:#000;}/***iris ***/
#m1{fill:#000;}

#ma{fill:#000;}/***frame ***/
#m{fill:#000;}


/** Added ***/
#m0{fill:url(#grbluer);}
#m0a{fill:url(#grbluer);}

	</style>
	<path id="m0" class="shp0" d="M66 59.44C70.73 59.44 74.56 63.27 74.56 68C74.56 72.73 70.73 76.56 66 76.56C61.27 76.56 57.44 72.73 57.44 68C57.44 63.27 61.27 59.44 66 59.44Z" />
	<path id="m" fill-rule="evenodd" class="shp0" d="M51.6 53.29C52.2 53.83 52.8 54.37 53.4 54.91C56.87 54.68 61.04 53.51 65.28 54.19C75.36 55.81 84.63 60.6 88.86 68.05C86.7 66.13 84.54 64.21 82.38 62.29C78.19 59.23 63.36 52.27 55.02 55.63C55.02 55.69 55.02 55.75 55.02 55.81C58.73 56.4 64.04 55.91 67.98 56.89C75.87 58.86 87 66.42 89.94 73.09C89.88 73.09 89.82 73.09 89.76 73.09C84.56 69.31 80.11 65.53 73.92 62.47C76.11 67.85 74.84 74.24 69.78 75.97C69.78 76.03 69.78 76.09 69.78 76.15C75.24 75.49 80.7 74.83 86.16 74.17C87.36 74.53 88.56 74.89 89.76 75.25C89.76 75.31 89.76 75.37 89.76 75.43C82.68 75.13 76.68 76.38 69.96 77.41C65.39 78.11 58.93 75.97 56.1 76.51C53.63 76.98 51.62 78.74 49.8 79.93C50.44 77.07 52.78 77 54.66 75.43C53.74 75.22 53.03 74.76 52.5 74.17C49.73 75.16 48.76 76.21 46.92 77.95C46.92 77.77 46.92 77.59 46.92 77.41C47.97 75.22 49.24 74.82 51.06 73.45C50.52 72.91 49.98 72.37 49.44 71.83C46.43 72.73 45.73 73.78 43.86 75.61C43.86 75.31 43.86 75.01 43.86 74.71C45.17 72.95 45.99 71.46 48.54 70.93C48 69.91 47.46 68.89 46.92 67.87C46.98 67.81 47.04 67.75 47.1 67.69C48.42 69.07 49.74 70.45 51.06 71.83C53.79 73.94 56.82 74.77 60.6 75.97C55.45 70.11 55.93 66.09 60.6 60.13C54.43 60.41 50.41 63.27 46.74 66.07C43.2 66.09 35.52 63.28 34.32 61.21C36.69 62.4 41.87 64.64 45.66 63.01C42.17 62.74 38.54 60.4 37.56 57.61C39.2 58.82 43.67 61.69 46.56 60.67C44.17 60.15 41.51 57.46 40.98 55.09C42.84 56.72 46.58 60.99 50.88 59.23C48.19 58.68 46.33 56.05 45.66 53.47C45.78 53.53 45.9 53.59 46.02 53.65C46.48 55.04 47.4 55.82 48.36 56.71C49.74 56.23 51.12 55.75 52.5 55.27C52.2 54.61 51.9 53.95 51.6 53.29ZM52.86 55.81C51.54 56.17 50.22 56.53 48.9 56.89C49.02 56.95 49.14 57.01 49.26 57.07C50.5 57.99 54.09 58.61 55.92 57.79C54.38 57.48 53.86 56.6 52.86 55.81ZM63.3 60.13C60.65 61.44 58.45 62.36 57.54 65.35C55.5 72.01 63.25 78.14 69.24 75.61C77.65 72.05 74.8 59.84 63.3 60.13Z" />
	<path id="m1" class="shp0" d="M66.5 64C68.99 64 71 66.01 71 68.5C71 70.99 68.99 73 66.5 73C64.01 73 62 70.99 62 68.5C62 66.01 64.01 64 66.5 64Z" />
	<path id="m2" class="shp1" d="M64.5 65C65.33 65 66 65.67 66 66.5C66 67.33 65.33 68 64.5 68C63.67 68 63 67.33 63 66.5C63 65.67 63.67 65 64.5 65Z" />
<path id="m2_copy" class="shp1" d="M64.5 65C65.33 65 66 65.67 66 66.5C66 67.33 65.33 68 64.5 68C63.67 68 63 67.33 63 66.5C63 65.67 63.67 65 64.5 65Z" />
	<path id="ma" fill-rule="evenodd" class="shp0" d="M149.5 55.27C150.88 55.75 152.26 56.23 153.64 56.71C154.6 55.82 155.52 55.04 155.98 53.65C156.1 53.59 156.22 53.53 156.34 53.47C155.67 56.05 153.81 58.68 151.12 59.23C155.42 60.99 159.16 56.72 161.02 55.09C160.49 57.46 157.83 60.15 155.44 60.67C158.33 61.69 162.8 58.82 164.44 57.61C163.46 60.4 159.83 62.74 156.34 63.01C160.13 64.64 165.31 62.4 167.68 61.21C166.48 63.28 158.8 66.09 155.26 66.07C151.59 63.27 147.57 60.41 141.4 60.13C146.07 66.09 146.55 70.11 141.4 75.97C145.18 74.77 148.21 73.94 150.94 71.83C152.26 70.45 153.58 69.07 154.9 67.69C154.96 67.75 155.02 67.81 155.08 67.87C154.54 68.89 154 69.91 153.46 70.93C156.01 71.46 156.83 72.95 158.14 74.71C158.14 75.01 158.14 75.31 158.14 75.61C156.27 73.78 155.57 72.73 152.56 71.83C152.02 72.37 151.48 72.91 150.94 73.45C152.76 74.82 154.03 75.22 155.08 77.41C155.08 77.59 155.08 77.77 155.08 77.95C153.24 76.21 152.27 75.16 149.5 74.17C148.97 74.76 148.26 75.22 147.34 75.43C149.22 77 151.56 77.07 152.2 79.93C150.38 78.74 148.37 76.98 145.9 76.51C143.07 75.97 136.61 78.11 132.04 77.41C125.32 76.38 119.32 75.13 112.24 75.43C112.24 75.37 112.24 75.31 112.24 75.25C113.44 74.89 114.64 74.53 115.84 74.17C121.3 74.83 126.76 75.49 132.22 76.15C132.22 76.09 132.22 76.03 132.22 75.97C127.16 74.24 125.89 67.85 128.08 62.47C121.89 65.53 117.44 69.31 112.24 73.09C112.18 73.09 112.12 73.09 112.06 73.09C115 66.42 126.13 58.86 134.02 56.89C137.96 55.91 143.27 56.4 146.98 55.81C146.98 55.75 146.98 55.69 146.98 55.63C138.64 52.27 123.81 59.23 119.62 62.29C117.46 64.21 115.3 66.13 113.14 68.05C117.37 60.6 126.64 55.81 136.72 54.19C140.96 53.51 145.13 54.68 148.6 54.91C149.2 54.37 149.8 53.83 150.4 53.29C150.1 53.95 149.8 54.61 149.5 55.27ZM146.08 57.79C147.91 58.61 151.5 57.99 152.74 57.07C152.86 57.01 152.98 56.95 153.1 56.89C151.78 56.53 150.46 56.17 149.14 55.81C148.14 56.6 147.62 57.48 146.08 57.79ZM132.76 75.61C138.75 78.14 146.5 72.01 144.46 65.35C143.55 62.36 141.35 61.44 138.7 60.13C127.2 59.84 124.35 72.05 132.76 75.61Z" />
	<path id="m0a" class="shp0" d="M136 59.44C140.73 59.44 144.56 63.27 144.56 68C144.56 72.73 140.73 76.56 136 76.56C131.27 76.56 127.44 72.73 127.44 68C127.44 63.27 131.27 59.44 136 59.44Z" />
	<path id="m1a" class="shp0" d="M135.5 64C137.99 64 140 66.01 140 68.5C140 70.99 137.99 73 135.5 73C133.01 73 131 70.99 131 68.5C131 66.01 133.01 64 135.5 64Z" />
	<path id="m2a" class="shp1" d="M132.5 65C133.33 65 134 65.67 134 66.5C134 67.33 133.33 68 132.5 68C131.67 68 131 67.33 131 66.5C131 65.67 131.67 65 132.5 65Z" />
<path id="m2a_copy" class="shp1" d="M132.5 65C133.33 65 134 65.67 134 66.5C134 67.33 133.33 68 132.5 68C131.67 68 131 67.33 131 66.5C131 65.67 131.67 65 132.5 65Z" />
	<path id="mw" class="shp2 dxhide" d="M57 56C59.71 54.89 69.64 57.61 73 59C76.36 60.39 79 67 79 67C79 67 80.88 73.64 80 75C79.12 76.36 75.93 77.16 74 78C72.07 78.84 56.45 79 52 78C50.67 77.7 49.6 76.33 48.75 74.55C46.76 70.38 44 64 44 64C44.5 63.08 54.29 57.11 57 56Z" />
	<path id="z0" class="shp3 dxhide" d="M41 49C41 49 52.84 41.46 60 42C67.16 42.54 82 49 82 49L85 46L83 52C83 52 67.39 43.34 59 44C50.61 44.66 47.19 46.31 41 49Z" />
	<path id="z1" class="shp3  dxhide" d="M49 76C49 76 56.78 78.36 62 78C67.22 77.64 76.92 77.68 78 77C79.08 76.32 69.44 80.07 63 80C56.56 79.93 52 79 52 79C52 79 51.11 80.12 52 81C52.89 81.88 49.57 80.07 49 76Z" />
	<path id="z2" class="shp3 dxhide" d="M76 56C81.79 60.18 81.04 65.28 81 65C80.52 61.51 77.05 58.72 75 57C72.95 55.28 65 53 65 53C65 53 70.21 51.82 76 56Z" />
	<path id="m3" class="shp4 dxhide" d="M73.7 61.79C73.95 62.64 74 63.56 74 64.5C74 70.3 69.97 75 65 75C60.03 75 56 70.3 56 64.5C56 61.48 57.09 58.76 58.84 56.85C58.76 56.93 62.75 56.19 67 57C69.49 57.48 73.1 59.74 73.7 61.79Z" />
	<path id="m4" class="shp5 dxhide" d="M71 60C71.15 60.65 71 62.29 71 63C71 67.42 68.54 71 65.5 71C62.46 71 60 67.42 60 63C60 60.7 60.67 58.63 61.73 57.17C61.69 57.23 64.12 56.67 66.72 57.29C68.24 57.65 70.63 58.43 71 60Z" />
	<path id="m5sh" class="shp6 dxhide" d="M45 68C45 68 44.91 66.61 44 65C43.09 63.39 46 64 46 64C46 64 46.61 62.58 47 62C47.39 61.42 51.17 60.25 50 60C48.83 59.75 52 59 52 59C52 59 56.98 57.2 56 57C55.02 56.8 57.99 54.67 63 56C63.99 56.26 71.72 57.89 75 61C78.28 64.11 80.31 65.88 80 70C79.78 72.94 80.44 72.44 77.62 67.57C76.61 65.81 74.4 64.15 73 63C67.71 58.67 59.51 58.86 55 61C50.49 63.14 46 68 46 68C46 68 43.91 64 45 68Z" />
	<path id="m5" class="shp3 dxhide" d="M47 75C47 75 42.91 63.61 42 62C41.09 60.39 41 59 41 59C41 59 46.61 60.58 47 60C47.39 59.42 44.17 56.25 43 56C41.83 55.75 52 57 52 57C52 57 49.98 54.2 49 54C48.02 53.8 57.99 52.67 63 54C63.99 54.26 71.72 55.89 75 59C78.28 62.11 81.2 68.88 81 73C80.85 76.03 80.46 70.46 77.62 65.57C76.6 63.81 74.4 62.15 73 61C67.71 56.67 59.51 56.86 55 59C50.49 61.14 46 66 46 66C46 66 45.91 71 47 75Z" />
	<path id="mwr" class="shp2 dxhide" d="M154 64C154 64 151.24 70.38 149.25 74.55C148.4 76.33 147.33 77.7 146 78C141.55 79 125.93 78.84 124 78C122.07 77.16 118.88 76.36 118 75C117.12 73.64 119 67 119 67C119 67 121.64 60.39 125 59C128.36 57.61 138.29 54.89 141 56C143.71 57.11 153.5 63.08 154 64Z" />
	<path id="z0r" class="shp3 dxhide" d="M139 44C130.61 43.34 115 52 115 52L113 46L116 49C116 49 130.84 42.54 138 42C145.16 41.46 157 49 157 49C150.81 46.31 147.39 44.66 139 44Z" />
	<path id="z1r" class="shp3 dxhide" d="M146 81C146.89 80.12 146 79 146 79C146 79 141.44 79.93 135 80C128.56 80.07 118.92 76.32 120 77C121.08 77.68 130.78 77.64 136 78C141.22 78.36 149 76 149 76C148.43 80.07 145.11 81.88 146 81Z" />
	<path id="z2r" class="shp3 dxhide" d="M133 53C133 53 125.05 55.28 123 57C120.95 58.72 117.48 61.51 117 65C116.96 65.28 116.21 60.18 122 56C127.79 51.82 133 53 133 53Z" />
	<path id="m3r" class="shp4 dxhide" d="M131 57C135.25 56.19 139.24 56.93 139.16 56.85C140.91 58.76 142 61.48 142 64.5C142 70.3 137.97 75 133 75C128.03 75 124 70.3 124 64.5C124 63.56 124.05 62.64 124.3 61.79C124.9 59.74 128.51 57.48 131 57Z" />
	<path id="m4r" class="shp5 dxhide" d="M131.28 57.29C133.88 56.67 136.31 57.23 136.27 57.17C137.33 58.63 138 60.7 138 63C138 67.42 135.54 71 132.5 71C129.46 71 127 67.42 127 63C127 62.29 126.85 60.65 127 60C127.37 58.43 129.76 57.65 131.28 57.29Z" />
	<path id="m5shr" class="shp6 dxhide" d="M152 68C152 68 147.51 63.14 143 61C138.49 58.86 130.29 58.67 125 63C123.6 64.15 121.39 65.81 120.38 67.57C117.56 72.44 118.22 72.94 118 70C117.69 65.88 119.72 64.11 123 61C126.28 57.89 134.01 56.26 135 56C140.01 54.67 142.98 56.8 142 57C141.02 57.2 146 59 146 59C146 59 149.17 59.75 148 60C146.83 60.25 150.61 61.42 151 62C151.39 62.58 152 64 152 64C152 64 154.91 63.39 154 65C153.09 66.61 153 68 153 68C154.09 64 152 68 152 68Z" />
	<path id="m5r" class="shp3 dxhide" d="M152 66C152 66 147.51 61.14 143 59C138.49 56.86 130.29 56.67 125 61C123.6 62.15 121.4 63.81 120.38 65.57C117.54 70.46 117.15 76.03 117 73C116.8 68.88 119.72 62.11 123 59C126.28 55.89 134.01 54.26 135 54C140.01 52.67 149.98 53.8 149 54C148.02 54.2 146 57 146 57C146 57 156.17 55.75 155 56C153.83 56.25 150.61 59.42 151 60C151.39 60.58 157 59 157 59C157 59 156.91 60.39 156 62C155.09 63.61 151 75 151 75C152.09 71 152 66 152 66Z" />
	<path id="shadowleft" class="shp3 shadowleft  dxhide" d="M64.5 56C68.27 56 71.57 58.08 73.43 61.2C74.42 62.89 75 64.87 75 67C75 73.08 70.3 78 64.5 78C58.7 78 54 73.08 54 67C54 63.34 55.71 60.1 58.33 58.1C60.06 56.78 62.19 56 64.5 56Z" />
	<path id="shadowright" class="shp3 shadowright  dxhide" d="M133.5 56C137.27 56 140.57 58.08 142.43 61.2C143.42 62.89 144 64.87 144 67C144 73.08 139.3 78 133.5 78C127.7 78 123 73.08 123 67C123 63.34 124.71 60.1 127.33 58.1C129.06 56.78 131.19 56 133.5 56Z" />
	<path id="m2sc" class="shp2 dxhide" d="M59 60C60.1 60 61 60.9 61 62C61 63.1 60.1 64 59 64C57.9 64 57 63.1 57 62C57 60.9 57.9 60 59 60ZM71 68C72.1 68 73 68.9 73 70C73 71.1 72.1 72 71 72C69.9 72 69 71.1 69 70C69 68.9 69.9 68 71 68ZM60 68C60.55 68 61 68.45 61 69C61 69.55 60.55 70 60 70C59.45 70 59 69.55 59 69C59 68.45 59.45 68 60 68Z" />
	<path id="m2scr" class="shp2 dxhide" d="M139 60C140.1 60 141 60.9 141 62C141 63.1 140.1 64 139 64C137.9 64 137 63.1 137 62C137 60.9 137.9 60 139 60ZM127 68C128.1 68 129 68.9 129 70C129 71.1 128.1 72 127 72C125.9 72 125 71.1 125 70C125 68.9 125.9 68 127 68ZM138 68C138.55 68 139 68.45 139 69C139 69.55 138.55 70 138 70C137.45 70 137 69.55 137 69C137 68.45 137.45 68 138 68Z" />
</svg>