<svg version="1.2" baseProfile="tiny-ps" xmlns="http://www.w3.org/2000/svg" viewBox="0 0 350 450" width="350" height="450">
	<title>b10.svg</title>
	<style>
		tspan { white-space:pre }
		.shp0 { fill: #79be67 } 
	</style>
	<path id="b1" class="shp0" d="M146 173C148.05 172.11 151.59 162.74 156 159C160.41 155.26 191.08 157.32 195 159C198.92 160.68 201.59 170.06 204 172C206.41 173.94 214.97 168.47 227 168C239.03 167.53 247.77 182.48 249 185C250.23 187.52 256.69 190.76 261 194C265.31 197.24 265.29 202.87 275 206C284.71 209.13 289.81 215.61 291 221C292.19 226.39 285.03 235.03 282 237C278.97 238.97 268.47 235.99 267 235C265.53 234.01 251.27 222.61 247 222C242.73 221.39 238 215 238 215C238 215 231.85 216.88 233 224C234.15 231.12 229.71 264.69 228 269C226.29 273.31 229.94 285.67 231 288C232.06 290.33 241.08 314.97 241 317C240.92 319.03 239.49 336.62 243 342C246.51 347.38 249.04 356.05 248 358C246.96 359.95 257.01 388.54 257 391C256.99 393.46 256.05 400.96 260 403C263.95 405.04 260 416 260 416C260 416 254.46 417.52 253 418C251.54 418.48 239.17 418.79 234 418C228.83 417.21 222.29 406.69 223 405C223.71 403.31 225.48 400.32 225 397C224.52 393.68 223.25 377.71 223 375C222.75 372.29 218.79 359.55 217 357C215.21 354.45 213.38 338.22 210 336C206.62 333.78 201.03 325.16 199 322C196.97 318.84 177 317.83 177 318C177 318.17 162.49 319.43 159 320C155.51 320.57 150.71 329.94 147 332C143.29 334.06 136.38 349.36 136 353C135.62 356.64 135.11 384.39 135 388C134.89 391.61 133.19 398.09 134 399C134.81 399.91 136.7 404.46 134 409C131.3 413.54 125.87 411.46 124 414C122.13 416.54 109.63 418.47 105 419C100.37 419.53 80.97 413.69 82 411C83.03 408.31 98.48 399.36 101 396C103.52 392.64 101.98 373.57 104 371C106.02 368.43 105.17 357.96 104 355C102.83 352.04 106.12 345.86 107 343C107.88 340.14 111.22 315.29 112 312C112.78 308.71 123 283.21 125 280C127 276.79 122.37 264.73 120 258C117.63 251.27 117.27 225.56 118 223C118.73 220.44 114.09 216.01 113 218C111.91 219.99 108.35 221.1 105 223C101.65 224.9 99.76 231.29 102 234C104.24 236.71 99.76 248.17 99 250C98.24 251.83 86.06 256.14 80 255C73.94 253.86 69.82 241.49 70 239C70.18 236.51 82.56 207.09 83 205C83.44 202.91 104.21 182.89 110 177C115.79 171.11 129 171 129 171C133.78 169.41 143.95 173.89 146 173Z" />
</svg>