<svg version="1.2" baseProfile="tiny-ps" xmlns="http://www.w3.org/2000/svg" viewBox="0 0 200 148" width="200" height="148">
	<title>beard</title>
	<style>
		tspan { white-space:pre }
		.s0 { opacity: .5;fill: #000000 } 
		.s1 { fill: #000000 } 
	</style>
	<path id="bottomlip" class="s0" d="m100 43.28c-0.19 0.08-0.39 0.12-0.6 0.12h-0.4c-0.21 0-0.42-0.04-0.6-0.12c-1.67 0.02-6.49-0.26-10.57-3.63c0 0 5.28 1.66 7.25 1.3c1.08-0.2 2.24-0.37 3.06-0.48c0.25-0.16 0.55-0.26 0.87-0.26h0.4c0.32 0 0.62 0.1 0.87 0.26c0.82 0.11 1.98 0.28 3.06 0.48c1.97 0.36 7.25-1.3 7.25-1.3c-4.09 3.37-8.91 3.64-10.57 3.63z" />
	<path id="toplip" class="s0" d="m114.97 34.36c-2.96-0.87-8.48-2.32-11.54-2.18c-0.62 0.03-1.17 0.02-1.67-0.02c-0.28 0.18-0.61 0.28-0.97 0.28h-3.58c-0.36 0-0.69-0.11-0.97-0.28c-0.5 0.04-1.06 0.05-1.67 0.02c-3.07-0.15-8.58 1.31-11.54 2.18c-2.96 0.87-0.3-1.96-0.3-1.96c0 0 11.34-6.39 12.57-5.96c1.23 0.43 3.51 1.87 3.51 1.87l0.09 0.56h0.22l0.09-0.56c0 0 2.27-1.44 3.51-1.87c1.23-0.43 12.57 5.96 12.57 5.96c0 0 2.66 2.83-0.3 1.96z" />
	<path id="b5" class="s1" d="m93 44c0 0 7.75 2.1 10.75 0.38c3-1.72-0.84 10.59-0.84 10.59l-3.78 0.75l-4.13-0.72l-2-11z" />
</svg>