<svg version="1.2" baseProfile="tiny-ps" xmlns="http://www.w3.org/2000/svg" viewBox="0 0 200 148" width="200" height="148">
	<title>beard</title>
	<style>
		tspan { white-space:pre }
		.s0 { opacity: .5;fill: #000000 } 
		.s1 { opacity: 0;fill: #1e1e1e } 
		.s2 { fill: #1e1e1e } 
	</style>
	<path id="bottomlip" class="s0" d="m100 43.28c-0.19 0.08-0.39 0.12-0.6 0.12h-0.4c-0.21 0-0.42-0.04-0.6-0.12c-1.67 0.02-6.49-0.26-10.57-3.63c0 0 5.28 1.66 7.25 1.3c1.08-0.2 2.24-0.37 3.06-0.48c0.25-0.16 0.55-0.26 0.87-0.26h0.4c0.32 0 0.62 0.1 0.87 0.26c0.82 0.11 1.98 0.28 3.06 0.48c1.97 0.36 7.25-1.3 7.25-1.3c-4.09 3.37-8.91 3.64-10.57 3.63z" />
	<path id="toplip" class="s0" d="m114.97 34.36c-2.96-0.87-8.48-2.32-11.54-2.18c-0.62 0.03-1.17 0.02-1.67-0.02c-0.28 0.18-0.61 0.28-0.97 0.28h-3.58c-0.36 0-0.69-0.11-0.97-0.28c-0.5 0.04-1.06 0.05-1.67 0.02c-3.07-0.15-8.58 1.31-11.54 2.18c-2.96 0.87-0.3-1.96-0.3-1.96c0 0 11.34-6.39 12.57-5.96c1.23 0.43 3.51 1.87 3.51 1.87l0.09 0.56h0.22l0.09-0.56c0 0 2.27-1.44 3.51-1.87c1.23-0.43 12.57 5.96 12.57 5.96c0 0 2.66 2.83-0.3 1.96z" />
	<path id="b1" class="s1" d="m140 47c-7.52 4.1-18.51 2.28-22-8c-1.81-5.32 0.58-9.08-5-13c-2.46-1.73-6.15-1.85-8.97-1.62c1.74-0.91-5.14 2.56-10.06 0c-2.82-0.23-6.51-0.11-8.97 1.62c-5.58 3.92-3.19 7.68-5 13c-3.49 10.28-14.48 12.1-22 8c-4.77-2.6 1.61-18.36 1-13c-0.61 5.36 3.22 15.79 14 7c4.75-3.88-2.75-16.09 2.98-21.28c4.28-3.87 13.28-5.63 18.34-5.28c0.67-0.29 1.4-0.45 2.17-0.45h5c0.77 0 1.5 0.16 2.17 0.45c5.07-0.35 14.06 1.41 18.34 5.28c5.74 5.19-1.77 17.4 2.98 21.28c10.78 8.79 14.61-1.64 14-7c-0.61-5.36 5.77 10.4 1 13z" />
	<path id="b2" class="s1" d="m106 26c-5.66-0.61-5.66-1-5.66-1v-0.02c-0.11 0.01-0.23 0.02-0.34 0.02h-2c-0.12 0-0.23-0.01-0.34-0.02v0.02c0 0 0 0.39-5.66 1c-5.66 0.61-19.97 8.36-20 7c-0.03-1.36 0.58-5.32 3-9c1.82-2.76 13.67-7.4 19.47-9.54c0.9-0.9 2.15-1.46 3.53-1.46h2c1.38 0 2.63 0.56 3.53 1.46c5.8 2.14 17.65 6.78 19.47 9.54c2.42 3.68 3.03 7.64 3 9c-0.03 1.36-14.34-6.39-20-7z" />
	<path id="b3" class="s1" d="m92.08 24.38c0 0 0.1 0.61-4.48 1.38c-15.14 2.55-15.33 8.48-15.5 7.47c-0.16-1.02-0.08-4.04 1.51-7.06c1.59-3.02 19.39-9.16 19.39-9.16l-0.92 7.38zm11.92-7.38c0 0 17.81 6.14 19.39 9.16c1.59 3.02 1.67 6.05 1.51 7.06c-0.16 1.02-0.35-4.92-15.5-7.47c-4.59-0.77-4.48-1.38-4.48-1.38l-0.92-7.38z" />
	<path id="b4" class="s2" d="m107.77 26.64c-3.9-0.85-3.81-1.52-3.81-1.52l-0.03-0.28c-0.29 0.1-0.6 0.16-0.93 0.16h-9c-0.33 0-0.63-0.07-0.93-0.16l-0.03 0.28c0 0 0.09 0.67-3.81 1.52c-12.87 2.81-13.03 9.34-13.17 8.22c-0.14-1.12-0.07-4.45 1.28-7.78c1.04-2.58 10.37-7.22 14.51-9.17c0.5-0.51 1.17-0.83 1.92-0.89c0.03-0.01 0.05-0.02 0.05-0.02l0 0.02c0.06 0 0.12-0.02 0.18-0.02c0 0 2.12 1 4.3 1c2.32 0 4.7-1 4.7-1c0.06 0 0.12 0.01 0.18 0.02l0-0.02c0 0 0.02 0.01 0.05 0.02c0.75 0.06 1.43 0.38 1.92 0.89c4.14 1.96 13.47 6.59 14.51 9.17c1.35 3.33 1.42 6.66 1.28 7.78c-0.14 1.12-0.3-5.42-13.17-8.22zm-31.77 8.36c0 0 9.25 20.68 14 17c4.75-3.68 4-6 4-6l3.66-1v0.16c0.26-0.1 0.55-0.16 0.84-0.16c0.3 0 0.58 0.06 0.84 0.16v-0.16l3.66 1c0 0-0.75 2.32 4 6c4.75 3.68 14-17 14-17c0 0-1.64 5-2 9c-0.36 4 3.05 1.23 0 10c-3.05 8.77-19.66 7-19.66 7v-0.16c-0.26 0.1-0.55 0.16-0.84 0.16c-0.3 0-0.58-0.06-0.84-0.16v0.16c0 0-16.61 1.77-19.66-7c-3.05-8.77 0.36-6 0-10c-0.36-4-2-9-2-9z" />
</svg>