<svg version="1.2" baseProfile="tiny-ps" xmlns="http://www.w3.org/2000/svg" viewBox="0 0 700 400" width="700" height="400">
	<title>bg1.svg</title>
  <defs>
   <radialGradient id="skygrd" cx="74%" cy="16%" r="86%" >
    
            <stop offset="7%" style="stop-color:rgb(255,185,231);stop-opacity:1.00" />
            <stop offset="48%" style="stop-color:rgb(244,54,241);stop-opacity:1.00" />
            <stop offset="58%" style="stop-color:rgb(230,19,245);stop-opacity:1.00" />
            <stop offset="100%" style="stop-color:rgb(154,0,165);stop-opacity:1.00" />

    </radialGradient>
<radialGradient id="moongrd" cx="57%" cy="31%" r="97%" >
   <stop offset="5%" style="stop-color:rgb(255,166,119);stop-opacity:1.00" />
            <stop offset="71%" style="stop-color:rgb(255,124,54);stop-opacity:1.00" />
            <stop offset="100%" style="stop-color:rgb(195,68,0);stop-opacity:1.00" />

    </radialGradient>

<radialGradient id="cloudright" cx="11%" cy="0%" r="113.41135544995076%" >
    
            <stop offset="7%" style="stop-color:rgb(198,144,180);stop-opacity:1.00" />
            <stop offset="48%" style="stop-color:rgb(198,44,196);stop-opacity:1.00" />
            <stop offset="58%" style="stop-color:rgb(189,16,202);stop-opacity:1.00" />
            <stop offset="100%" style="stop-color:rgb(116,0,125);stop-opacity:1.00" />

    </radialGradient>
<radialGradient id="cloudleft" cx="60%" cy="27%" r="70%" >
    
            <stop offset="4%" style="stop-color:rgb(198,144,180);stop-opacity:1.00" />
            <stop offset="48%" style="stop-color:rgb(198,44,196);stop-opacity:1.00" />
            <stop offset="58%" style="stop-color:rgb(189,16,202);stop-opacity:1.00" />
            <stop offset="100%" style="stop-color:rgb(88,0,95);stop-opacity:1.00" />

    </radialGradient>

<radialGradient id="molgr" cx="70%" cy="20%" r="40%" >
    
            <stop offset="4%" style="stop-color:rgb(198,181,137);stop-opacity:1.00" />
            <stop offset="38%" style="stop-color:rgb(182,79,41);stop-opacity:1.00" />
            <stop offset="54%" style="stop-color:rgb(171,85,16);stop-opacity:1.00" />
            <stop offset="100%" style="stop-color:rgb(98,32,4);stop-opacity:1.00" />

    </radialGradient>

<radialGradient id="morgr" cx="40%" cy="10%" r="50%" >
    
            <stop offset="4%" style="stop-color:rgb(198,181,137);stop-opacity:1.00" />
            <stop offset="38%" style="stop-color:rgb(182,79,41);stop-opacity:1.00" />
            <stop offset="54%" style="stop-color:rgb(171,85,16);stop-opacity:1.00" />
            <stop offset="100%" style="stop-color:rgb(98,32,4);stop-opacity:1.00" />

    </radialGradient>

<radialGradient id="treegrd" cx="77%" cy="10%" r="58%" >
    
            <stop offset="0%" style="stop-color:rgb(198,0,255);stop-opacity:1.00" />
            <stop offset="61%" style="stop-color:rgb(123,0,212);stop-opacity:1.00" />
            <stop offset="100%" style="stop-color:rgb(48,26,48);stop-opacity:1.00" />

    </radialGradient>

<radialGradient id="treegrd2" cx="37%" cy="10%" r="50%" >
    
            <stop offset="0%" style="stop-color:rgb(198,0,255);stop-opacity:1.00" />
            <stop offset="61%" style="stop-color:rgb(123,0,212);stop-opacity:1.00" />
            <stop offset="100%" style="stop-color:rgb(48,26,48);stop-opacity:1.00" />

    </radialGradient>

<radialGradient id="grassgrd" cx="77%" cy="17%" r="56%" >
    
            <stop offset="0%" style="stop-color:rgb(155,17,255);stop-opacity:1.00" />
            <stop offset="24%" style="stop-color:rgb(123,0,212);stop-opacity:1.00" />
            <stop offset="69%" style="stop-color:rgb(48,26,48);stop-opacity:1.00" />

    </radialGradient>

<radialGradient id="groundgrd" cx="50%" cy="50%" r="50%" >
    
            <stop offset="0%" style="stop-color:rgb(180,80,36);stop-opacity:1.00" />
            <stop offset="58%" style="stop-color:rgb(98,43,19);stop-opacity:1.00" />
            <stop offset="100%" style="stop-color:rgb(81,36,16);stop-opacity:1.00" />

    </radialGradient>

  </defs>
	<style>
		tspan { white-space:pre }
		.shp0 { fill: #4b4234 } 
		.shp1 { fill: #daacd9 } 
		.shp2 { fill: #ddcaae } 
		.shp3 { fill: #cc9064 } 
		.shp4 { fill: #f0a437 } 
		.shp5 { fill: #da860e } 
		.shp6 { fill: #c2a781 }
#sky{fill: url(#skygrd);} 
#moon{fill: url(#moongrd);}
#cr{fill: url(#cloudright);}
#cl{fill: url(#cloudleft);}
#mol {fill: url(#molgr);}
#molr {fill: url(#morgr);}
#trl{fill: url(#treegrd);}
#trr1 ,#trr2{fill: url(#treegrd2);}
#gl{fill: url(#grassgrd);}
#gr {fill: url(#grassgrd);}
#main {fill: url(#groundgrd);}
	</style>
	<path id="main" class="shp0" d="M0 0L700 0L700 400L0 400L0 0Z" />
	<path id="sky" class="shp1" d="M0 0L700 0L700 255L0 255L0 0Z" />
	<path id="moon" class="shp2" d="M544 17.2C566.53 17.2 584.8 35.47 584.8 58C584.8 80.53 566.53 98.8 544 98.8C521.47 98.8 503.2 80.53 503.2 58C503.2 35.47 521.47 17.2 544 17.2Z" />
	<path id="mol" class="shp3" d="M-41 160L0 113L23 133L36 102L56 78L80 58L88 95L108 96L125 131L135 147L150 154L155 179L171 195L178 221L175 237L183 246L170 257L150 257L120 258C120 258 100 260 88 261C76 262 32 258 32 258C27 258 1 256 1 256L-14 257C-14 257 -37 264 -39 248C-41 232 -42 170 -42 170L-41 160Z" />
	<path id="molr" class="shp3" d="M732 207L728 224C728 224 715 244 711 249C707 254 693 262 689 267C685 272 666 272 666 272L612 257L563 228L560 202L577 176L578 152L589 138L600 114L603 91L627 88L629 58L641 33L667 57L681 106L692 142L716 152L732 187L732 207Z" />
	<path id="trl" class="shp4" d="M216.09 206.81C223.76 207.97 229 210.3 229 213C229 214.95 226.27 216.71 221.88 217.97C220.94 224.18 214.2 229 206 229C205.83 229 205.66 228.99 205.49 228.98C205.82 229.94 206 230.95 206 232C206 238.08 200.18 243 193 243C189.3 243 185.97 241.68 183.6 239.58C181.34 241.09 178.54 242 175.5 242C172.95 242 170.57 241.36 168.53 240.26C165.92 240.73 163.04 241 160 241C151.14 241 143.57 238.77 140.49 235.63C136.67 238.87 131.15 241.13 124.85 241.79C123.69 249.23 115.48 255 105.5 255C95.31 255 86.96 248.98 86.09 241.32C81.64 242.4 76.7 243 71.5 243C51.89 243 36 234.49 36 224C36 213.52 51.87 205.02 71.45 205C71.16 203.87 71 202.7 71 201.5C71 193.45 78 186.69 87.51 184.65C87.19 183.15 87 181.6 87 180C87 168.95 95.06 160 105 160C112.66 160 119.18 165.32 121.78 172.81C123.9 172.29 126.15 172 128.5 172C140.37 172 150 179.16 150 188C150 190.83 149 193.48 147.27 195.78C151.91 191.7 159.9 189 169 189C173.76 189 178.21 189.75 182.05 191.04C182.03 190.69 182 190.35 182 190C182 178.95 190.28 170 200.5 170C210.72 170 219 178.95 219 190C219 196.05 216.5 201.45 212.58 205.11C213.85 205.56 215.03 206.13 216.09 206.81ZM115.97 200.98C115.97 201.16 116 201.33 116 201.5C116 201.63 115.98 201.76 115.97 201.89C116.39 201.79 116.83 201.71 117.26 201.62C116.82 201.42 116.39 201.21 115.97 200.98ZM135.8 203.03C136.44 203.28 137.06 203.55 137.64 203.84C139.35 203.48 141.17 203.24 143.08 203.11C143.25 201.4 143.9 199.76 144.98 198.25C142.57 200.4 139.4 202.06 135.8 203.03ZM146 223C145.94 223 145.87 223 145.81 223C145.93 223.65 146 224.32 146 225C146 225.41 145.95 225.81 145.91 226.21C146.27 226.08 146.63 225.95 147.01 225.83C147.04 224.82 147.34 223.86 147.86 222.94C147.25 222.97 146.63 223 146 223Z" />
	<path id="trr1" class="shp4" d="M590.49 216.05C588.37 218.13 585.44 219.55 582.13 219.91C582.69 221.17 583 222.55 583 224C583 230.08 577.63 235 571 235C564.37 235 559 230.08 559 224C559 223.49 559.05 222.99 559.13 222.49C558.56 222.71 557.98 222.9 557.38 223.06C557.78 224.3 558 225.62 558 227C558 233.63 553.08 239 547 239C542.45 239 538.54 235.98 536.87 231.68C535.81 231.88 534.68 232 533.5 232C529.54 232 526.1 230.75 524.31 228.9C521.37 230.24 518.04 231 514.5 231C502.63 231 493 222.49 493 212C493 201.51 502.63 193 514.5 193C515.4 193 516.29 193.06 517.16 193.16C517.07 192.45 517 191.74 517 191C517 182.72 523.27 176 531 176C534.06 176 536.87 177.06 539.18 178.84C541.05 177.69 543.42 177 546 177C549.13 177 551.95 178.02 553.95 179.64C556.61 178.6 559.7 178 563 178C572.94 178 581 183.37 581 190C581 192.26 580.03 194.36 578.4 196.16C579.09 196.06 579.78 196 580.5 196C586.66 196 591.85 199.67 593.47 204.68C594.44 205.99 595 207.45 595 209C595 211.75 593.28 214.24 590.49 216.05Z" />
	<path id="trr2" class="shp4" d="M657.49 221.05C655.37 223.13 652.44 224.55 649.13 224.91C649.69 226.17 650 227.55 650 229C650 235.08 644.63 240 638 240C631.37 240 626 235.08 626 229C626 228.49 626.05 227.99 626.13 227.49C625.56 227.71 624.98 227.9 624.38 228.06C624.78 229.3 625 230.62 625 232C625 238.63 620.08 244 614 244C609.45 244 605.54 240.98 603.87 236.68C602.81 236.88 601.68 237 600.5 237C596.54 237 593.1 235.75 591.31 233.9C588.37 235.24 585.04 236 581.5 236C569.63 236 560 227.49 560 217C560 206.51 569.63 198 581.5 198C582.4 198 583.29 198.06 584.16 198.16C584.07 197.45 584 196.74 584 196C584 187.72 590.27 181 598 181C601.06 181 603.87 182.06 606.18 183.84C608.05 182.69 610.42 182 613 182C616.13 182 618.95 183.02 620.95 184.64C623.61 183.6 626.7 183 630 183C639.94 183 648 188.37 648 195C648 197.26 647.03 199.36 645.4 201.16C646.09 201.06 646.78 201 647.5 201C653.66 201 658.85 204.67 660.47 209.68C661.44 210.99 662 212.45 662 214C662 216.75 660.28 219.24 657.49 221.05Z" />
	<path id="gl" class="shp5" d="M196 274C177.51 274 161.99 271.8 157.41 268.82C155.56 269.51 153.15 269.94 150.48 269.99C147.64 271.22 143.33 272 138.5 272C133.28 272 128.68 271.08 125.87 269.68C122.67 270.51 118.75 271 114.5 271C114.14 271 113.79 270.99 113.43 270.98C100.33 272.82 80.15 274 57.5 274C39.34 274 22.78 273.24 10.17 271.99C9.95 271.99 9.73 272 9.5 272C6.38 272 3.59 271.61 1.67 270.99C-0.11 270.75 -1.77 270.48 -3.29 270.21C-6.3 271.88 -11.98 273 -18.5 273C-28.16 273 -36 270.54 -36 267.5C-36 265.29 -31.83 263.38 -25.82 262.51C-26.57 261.73 -27 260.89 -27 260C-27 256.13 -19.16 253 -9.5 253C-5.93 253 -2.61 253.43 0.16 254.16C1.03 248.96 5.55 245 11 245C11.7 245 12.37 245.07 13.03 245.19C14.61 242.11 17.81 240 21.5 240C26.3 240 30.27 243.57 30.91 248.2C31.58 248.07 32.28 248 33 248C34.82 248 36.49 248.42 37.84 249.13C40.37 245.59 48.44 243 58 243C67.01 243 74.68 245.3 77.66 248.53C78.72 247.03 80.93 246 83.5 246C84.68 246 85.79 246.22 86.75 246.6C89.46 244.43 93.93 243 99 243C102.62 243 105.94 243.73 108.54 244.94C109.74 243.22 112.84 242 116.5 242C121.19 242 125 244.01 125 246.5C125 247.17 124.71 247.81 124.21 248.39C125.61 249.05 126.69 249.92 127.33 250.91C130.21 248.57 135.47 247 141.5 247C148.32 247 154.18 249.01 156.69 251.87C157.76 249.58 159.96 248 162.5 248C166.09 248 169 251.13 169 255C169 255.05 168.99 255.09 168.99 255.14C170.45 255.05 171.96 255 173.5 255C173.57 255 173.64 255 173.71 255C175.09 253.78 177.17 253 179.5 253C181.77 253 183.8 253.74 185.18 254.91C187.27 253.15 190.66 252 194.5 252C195.08 252 195.65 252.03 196.2 252.08C196.07 251.57 196 251.04 196 250.5C196 245.81 201.15 242 207.5 242C213.85 242 219 245.81 219 250.5C219 251.23 218.87 251.94 218.63 252.62C220.06 253.26 221 254.31 221 255.5C221 255.67 220.97 255.84 220.94 256C220.96 256 220.98 256 221 256C225.26 256 228.74 259.12 228.98 263.05C233.4 264.18 236 265.53 236 267C236 270.87 218.09 274 196 274Z" />
	<path id="gr" class="shp5" d="M815 271.5C815 274.54 807.16 277 797.5 277C790.98 277 785.3 275.88 782.29 274.21C780.77 274.48 779.11 274.75 777.33 274.99C775.41 275.61 772.62 276 769.5 276C769.27 276 769.05 275.99 768.83 275.99C756.22 277.24 739.66 278 721.5 278C718.85 278 716.24 277.98 713.67 277.95C712.14 277.98 710.58 278 709 278C702.39 278 696.18 277.72 690.69 277.22C680.87 276.69 672.29 275.92 665.57 274.98C665.21 274.99 664.86 275 664.5 275C663.26 275 662.06 274.95 660.89 274.87C658.28 275.58 655.03 276 651.5 276C649.56 276 647.71 275.87 646 275.64C644.29 275.87 642.44 276 640.5 276C636.97 276 633.72 275.58 631.11 274.87C629.94 274.95 628.74 275 627.5 275C627.14 275 626.79 274.99 626.43 274.98C619.71 275.92 611.13 276.69 601.31 277.22C595.82 277.72 589.61 278 583 278C581.42 278 579.86 277.98 578.33 277.95C575.76 277.98 573.15 278 570.5 278C552.34 278 535.78 277.24 523.17 275.99C522.95 275.99 522.73 276 522.5 276C519.38 276 516.59 275.61 514.67 274.99C512.89 274.75 511.23 274.48 509.71 274.21C506.7 275.88 501.02 277 494.5 277C484.83 277 477 274.54 477 271.5C477 269.29 481.17 267.38 487.18 266.51C486.43 265.73 486 264.89 486 264C486 260.13 493.83 257 503.5 257C507.07 257 510.39 257.43 513.16 258.16C514.03 252.96 518.55 249 524 249C524.7 249 525.37 249.07 526.03 249.19C527.61 246.11 530.81 244 534.5 244C539.3 244 543.27 247.57 543.91 252.2C544.58 252.07 545.28 252 546 252C547.82 252 549.49 252.42 550.84 253.13C552.85 250.31 558.37 248.1 565.36 247.32C567.13 246.48 569.24 246 571.5 246C573.92 246 576.16 246.55 578.01 247.49C583.84 248.33 588.5 250.18 590.66 252.53C591.72 251.03 593.93 250 596.5 250C597.68 250 598.79 250.22 599.75 250.6C602.46 248.43 606.93 247 612 247C615.62 247 618.94 247.73 621.54 248.94C622.74 247.22 625.84 246 629.5 246C634.19 246 638 248.01 638 250.5C638 250.67 637.98 250.84 637.94 251.01C640.89 251.05 643.64 251.46 646 252.15C648.36 251.46 651.11 251.05 654.06 251.01C654.02 250.84 654 250.67 654 250.5C654 248.01 657.81 246 662.5 246C666.16 246 669.26 247.22 670.46 248.94C673.06 247.73 676.38 247 680 247C685.07 247 689.54 248.43 692.25 250.6C693.21 250.22 694.32 250 695.5 250C698.07 250 700.28 251.03 701.34 252.53C703.5 250.18 708.16 248.33 713.99 247.49C715.84 246.55 718.08 246 720.5 246C722.76 246 724.87 246.48 726.64 247.32C733.63 248.1 739.15 250.31 741.16 253.13C742.51 252.42 744.18 252 746 252C746.72 252 747.42 252.07 748.09 252.2C748.73 247.57 752.7 244 757.5 244C761.19 244 764.39 246.11 765.97 249.19C766.63 249.07 767.3 249 768 249C773.45 249 777.97 252.96 778.84 258.16C781.61 257.43 784.93 257 788.5 257C798.16 257 806 260.13 806 264C806 264.89 805.57 265.73 804.82 266.51C810.83 267.38 815 269.29 815 271.5Z" />
	<path id="cl" class="shp6" d="M227.5 87C222.81 87 219 84.76 219 82C219 79.24 222.81 77 227.5 77C232.19 77 236 79.24 236 82C236 84.76 232.19 87 227.5 87ZM186.5 88C179.59 88 173.5 86.75 169.78 84.83C168.22 84.93 166.63 85 165 85C163.68 85 162.39 84.96 161.12 84.89C158.6 89.58 150.99 93 142 93C138.95 93 136.07 92.6 133.49 91.89C129.94 93.85 125.64 95 121 95C108.85 95 99 87.16 99 77.5C99 67.83 108.85 60 121 60C122.64 60 124.23 60.15 125.76 60.42C128.19 53.84 136.32 49 146 49C156.46 49 165.11 54.65 166.71 62.03C181.93 62.39 194 67.38 194 73.5C194 73.51 194 73.52 194 73.52C201.61 74.62 207 77.33 207 80.5C207 84.64 197.82 88 186.5 88Z" />
	<path id="cr" class="shp6" d="M705.47 76.66C705.81 77.4 706 78.19 706 79C706 83.42 700.63 87 694 87C687.37 87 682 83.42 682 79C682 78.91 682.02 78.82 682.02 78.73C680.6 78.88 679.13 78.97 677.61 78.99C679.09 80.16 680 81.75 680 83.5C680 87.09 676.19 90 671.5 90C666.81 90 663 87.09 663 83.5C663 82.97 663.09 82.47 663.24 81.98C663 81.98 662.75 82 662.5 82C659.78 82 657.22 81.63 654.99 81C655.63 81.93 656 82.94 656 84C656 88.42 649.96 92 642.5 92C635.42 92 629.62 88.77 629.06 84.66C626.54 87.57 619.06 89.88 609.5 90.68C606.51 93.27 601.14 95 595 95C586.19 95 578.94 91.45 578.09 86.9C577.21 86.47 576.46 86.01 575.85 85.52C573.85 87.63 570.64 89 567 89C564.24 89 561.72 88.21 559.79 86.91C558.74 86.97 557.64 87 556.5 87C549.6 87 544 85.88 544 84.5C544 83.14 549.43 82.04 556.18 82C556.07 81.51 556 81.01 556 80.5C556 75.81 560.92 72 567 72C568.81 72 570.52 72.35 572.03 72.95C572.02 72.8 572 72.65 572 72.5C572 66.15 578.72 61 587 61C595.18 61 601.82 66.02 601.98 72.26C604.22 69.19 610.09 67 617 67C619.55 67 621.95 67.31 624.09 67.84C624.03 67.4 624 66.95 624 66.5C624 59.04 631.84 53 641.5 53C647.86 53 653.41 55.62 656.48 59.53C657.91 58.58 659.86 58 662 58C666.42 58 670 60.46 670 63.5C670 63.5 670 63.51 670 63.51C672.18 63.18 674.53 63 677 63C679.17 63 681.26 63.14 683.22 63.4C684.46 57.5 690.83 53 698.5 53C707.06 53 714 58.6 714 65.5C714 70.38 710.53 74.61 705.47 76.66ZM631.96 77.82C631.27 78.73 630.26 79.56 629 80.28C629.33 80.64 629.58 81.02 629.74 81.4C630.43 80.22 631.55 79.17 633.02 78.31C632.66 78.15 632.31 77.99 631.96 77.82Z" />
</svg>