<svg version="1.2" baseProfile="tiny-ps" xmlns="http://www.w3.org/2000/svg" viewBox="0 0 350 450" width="350" height="450">
	<title>c3.svg</title>
	<style>
		tspan { white-space:pre }
		.shp0 { fill: #010101 } 
		.shp1 { opacity: 0.09;fill: #ffffff } 
		.shp2 { fill: #37312b } 
		.shp3 { fill: #d3d3d3 } 
		.shp4 { fill: #30302f } 
		.shp5 { fill: #2a2a29 } 
		.shp6 { fill: #bbbbbb } 
		.shp7 { opacity: 0;fill: #141313 } 
		.shp8 { fill: #31302f } 
		.shp9 { fill: #747270 } 
		.shp10 { fill: #696969 } 
		.shp11 { opacity: 0.18;fill: #000000 } 
		.shp12 { fill: #000000 }


#nodcravata,#cravata{opacity:0;}
#shadowsjaket{opacity:.3; fill: #000;}
#papion{opacity:1;}
#h2{ fill: #085c4a ;} 
#pantofleft,#pantofright{fill:#111;}
#papion{opacity:1;}
	</style>
	<path id="pantaloni" class="shp0" d="M176.97 273.5C202.98 273.25 229 271 229 271C229 271 242.15 313.04 242 320C241.85 326.96 246.62 346.89 248 350C249.38 353.11 257.9 386.38 258 389C258.1 391.62 257.9 399.03 257 400C246.75 411.02 223 399 223 399C223 399 223.66 380.26 219 365C214.34 349.74 206.54 335.51 200 328C193.46 320.49 182.22 321.11 177 321C171.78 320.89 170.55 321.89 161 324C151.45 326.11 138 350 138 350L135 397C135 397 133.27 403.02 130 404C126.73 404.98 100 395 100 395L102 353L105 345L111 312L125 272C125 272 150.98 273.75 176.97 273.5Z" />
	<path id="shadowpants" fill-rule="evenodd" class="shp1" d="M237 318C242.65 325.41 240 344.39 237 352C236.33 351.67 235.67 351.33 235 351C232.7 318.11 240.12 358.95 237 318ZM132 328C128.39 341.17 140 321 141 321C139.19 332.17 127.3 345.44 118 349C123.33 341.67 126.67 335.33 132 328ZM216 346C225.73 350.16 224.43 363.67 238 357C237.33 358 235.67 362 235 363C234.67 363 234.33 363 234 363C232 362.67 230 360.33 228 360C221.92 357.5 218.34 352.09 216 346ZM128 349C129 349.33 130 349.67 131 350C128 353.33 125 356.67 122 360C118.33 360.33 114.67 360.67 111 361C111 360.33 111 359.67 111 359C118.07 357.12 124.12 354.14 128 349ZM236 316C236.33 316.67 236.67 317.33 237 318C236.67 317.33 236.33 316.67 236 316Z" />
	<path id="pantofleft" class="shp2" d="M117 400C119.19 402.43 128.46 403.21 130 402C131.85 400.54 134.75 397.92 135 399C135.25 400.07 136.72 403.85 137 405C137.28 406.15 135.29 408.88 135 410C134.71 411.12 126.31 413.37 125 415C123.69 416.63 105.65 419.83 103 420C101.54 420.09 95.39 419.14 90.12 417.1C85.79 415.43 82.06 412.7 82 412C81.87 410.45 81.05 409.24 82 409C82.95 408.76 94.96 400.26 97 399C99.04 397.74 100 393 100 393C115.08 390.67 115.1 397.89 117 400Z" />
	<path id="pantofright" class="shp2" d="M227 397C227 397 233.43 403.37 233 395C232.65 388.29 253.01 388.93 254 396C254.52 399.68 258 397 258 397C258 397 262.61 404.75 263 406C263.39 407.25 261.71 414.8 258 418C254.29 421.2 236.21 419.29 232 418C227.79 416.71 222 406 222 406L222 400C222.9 398.02 227 397 227 397Z" />
	<path id="camasa1" class="shp3" d="M158 161C158 161 164.79 158.51 176.49 158.19C181.73 158.04 190.76 158.81 195 161C198.85 162.99 217 206 217 206L195 283L156 283L134 202L158 161Z" />
	<path id="manecicamasal" class="shp3" d="M72 225L101 229L101 233L67 233L72 225Z" />
	<path id="manecicamasar" class="shp3" d="M279 207C279 207 275.42 207.73 268 214C260.58 220.27 257 229 257 229L253 226L271 202L279 207Z" />
	<path id="cravata" class="shp4" d="M180 200L185 232C185 232 178 244.95 177 244C176 243.05 170 232 170 232L174 201C176.43 195.63 180 200 180 200Z" />
	<path id="nodcravata" class="shp5" d="M170 191C170 191 175.58 193.31 184 191C184.71 190.8 180.8 200.14 180 200C179.2 199.86 176.36 202.28 174 200C171.64 197.72 170.82 193.02 170 191Z" />
	<path id="camasagat" class="shp6" d="M177 190C177 190 176.64 190.17 176.03 190.46C172.42 192.15 157 200 157 200L154 177C154 177 175.93 181.01 201 177C202.57 176.75 199 199 199 199L177 190Z" />
	<path id="papion" class="shp7" d="M177.59 195.87C177.59 195.87 177.38 195.97 177.02 196.13C174.93 197.12 165.99 201.67 165.99 201.67C165.99 201.67 166.53 198.15 166.08 194.73C165.66 191.49 164.25 188.33 164.25 188.33C164.25 188.33 170.46 191.28 178.04 191.36C182.29 191.4 186.28 189.17 191.51 188.33C191.95 188.26 190.69 191.28 190.3 194.4C189.89 197.69 190.35 201.09 190.35 201.09L177.59 195.87Z" />
	<path id="curea" class="shp8" d="M177 285C177 285 120.99 283 122 281C123.01 279 123 275 123 275C124.2 275.3 177 276 177 276C177 276 228.8 274.3 230 274C230 274 230.99 278 232 280C233.01 282 177 285 177 285Z" />
	<path id="catarama" class="shp9" d="M174 276C174 276 179.62 274.07 181 275C182.38 275.93 182.71 284.08 182 285C181.29 285.92 174 285 174 285L174 283C174 283 181.13 284.17 181 283C180.81 281.22 179.62 281.05 179.98 279.83C180.32 278.67 180.75 277.13 180 277C178.57 276.75 174 276.98 174 278C174 279.02 173.1 276.26 174 276" />
	<path id="h2" class="shp10" d="M114 173C114 173 121.31 171.37 129.24 170.69C138.68 169.88 149 170 149 170L154 159C154 159 193.13 155.5 196 159C198.87 162.5 205 170 205 170C205 170 214.15 168.37 222.17 167.82C228.43 167.38 234 168 234 168C234 168 239.54 172.23 243.39 176.65C246.73 180.5 248.31 184.49 250 186C251.62 187.45 255.97 189.18 260.29 192.87C265.66 197.47 271 204 271 204L254 226L237 218C237 218 234.11 233.8 232 250C229.63 268.18 238 289 238 289C238 289 205.85 295.18 183.12 295.43C176.54 295.51 199.3 178.73 193.81 159.63C193.32 157.92 177.72 156.99 177 157C176.09 157.01 160.2 158.25 159.37 160.49C155.4 171.09 167.52 203.97 168 233C168.49 262.99 167.65 294.95 164.74 295C133.91 295.5 115 291 115 291C115 291 120.64 272.61 119 260C118.77 258.21 118.97 253.55 118.76 252.11C116.54 237.14 115 220 115 220L103 224L102 230C102 230 77.48 223.98 74 227C70.52 230.02 84 201 84 201L114 173Z" />
	<path id="shadowsjaket" fill-rule="evenodd" class="shp11" d="M234 169C236.42 169.6 243.46 178.6 250 187C251.39 188.79 254.3 188.41 257.43 191.13C262.66 195.67 268.52 203.47 269 205C255.27 199.75 252.9 184.87 231 191C233.92 187.39 241.56 187.82 247 187C247 186.67 247 186.33 247 186C246.33 185.33 245.67 184.67 245 184C241.67 180.33 238.33 176.67 235 173C228.06 173.19 227.93 173.98 227 180C224.67 178.67 222.33 177.33 220 176C221.33 174.33 222.67 172.67 224 171C226.67 170.33 231.33 169.67 234 169ZM114 174C118.33 174.33 131.93 170.16 132 174C132 175 135 176 135 177C108.58 177.15 104.44 203.32 86 200C106.12 185.78 103.12 181.37 114 174ZM141 186C150 186.35 150.56 189.56 157 192C157 192.33 162 194.67 162 195C151.87 194.12 138.57 190.4 128 195C128.67 194 130.33 192 131 191C133.67 189.67 138.33 187.33 141 186ZM211 187C218.71 186.82 224.67 193.03 228 197C215 195.63 208.3 192.02 195 194C195.33 193.33 199.67 191.67 200 191C202.67 190 208.33 188 211 187ZM118 199C117.67 208.33 119.17 220.67 118 230C116.11 227.41 117.14 207.88 111 219C112.67 213 116.33 205 118 199ZM227.62 202.9C235.77 208.53 227.77 210.06 252.07 219.81C251.41 219.89 250.75 219.98 250.09 220.07C249.1 220.2 248.11 220.34 247.12 220.47C240.7 219.42 239.47 218.02 235.5 215.91C235.51 218.4 234.5 227.9 232 231C233.52 216.41 229.14 211.77 227.62 202.9ZM154 259C154 261 154 263 154 265C144.33 264 134.67 263 125 262C125 260.67 125 259.33 125 258C134.67 258.33 144.33 258.67 154 259ZM226 264C215.47 263.75 210.07 265.71 203 268C203 265.33 203 262.67 203 260C203.33 260 203.67 260 204 260C207.48 262.85 220.86 260.01 226 258C226 260 226 262 226 264ZM198 194C198.67 194 199.33 194 200 194C199.33 194 198.67 194 198 194ZM226.36 201.05C226.78 201.66 227.2 202.28 227.62 202.9C227.2 202.28 226.78 201.66 226.36 201.05Z" />
	<path id="nuj" class="shp12" d="M141.03 172.89C142.35 171.86 146.59 169.49 148 169C150.56 168.12 156.69 165.93 158 168C162.65 175.33 163 195 163 195C163 195 147.11 185.39 142.98 185.45C140.33 185.49 127.08 192.68 127.08 192.68L131.07 184.37C132.13 180 138.68 174.7 141.03 172.89Z" />
	<path id="nuj2" class="shp12" d="M225.57 186.62L228.8 195.26C228.8 195.26 216.25 186.9 213.62 186.62C209.51 186.18 192.81 194.32 192.81 194.32C192.81 194.32 194.94 174.76 200.24 167.88C201.73 165.93 207.64 168.67 210.1 169.78C211.46 170.39 215.47 173.14 216.7 174.28C218.87 176.3 224.92 182.18 225.57 186.62Z" />
</svg>