<svg version="1.2" baseProfile="tiny-ps" xmlns="http://www.w3.org/2000/svg" viewBox="0 0 200 175" width="200" height="175">
	<title>cap18.svg</title>
	<defs>
		<radialGradient id="grd1" gradientUnits="userSpaceOnUse"  cx="100%" cy="66%" r="32.794%">
			<stop offset="0.085" stop-color="#3b3a3a"  />
			<stop offset="0.448" stop-color="#111111"  />
			<stop offset="1" stop-color="#000000"  />
		</radialGradient>
		<radialGradient id="grd2" gradientUnits="userSpaceOnUse"  cx="100%" cy="7%" r="77.729%">
			<stop offset="0.009" stop-color="#1a1e1f" stop-opacity="0" />
			<stop offset="1" stop-color="#353a47"  />
		</radialGradient>
	</defs>
	<style>
		tspan { white-space:pre }
		.shp0 { opacity: 1;fill: #000000 } 
		.shp1 { opacity: 0;fill: #000000 } 
		.shp2 { opacity: 0;fill: #767168 } 
		.shp3 { opacity: 0;fill: #262626 } 
		.shp4 { opacity: 0;fill: #423f39 } 
		.shp5 { opacity: 0;fill: #000000 } 
		.shp6 { opacity: 0;fill: url(#grd1) } 
		.shp7 { opacity: 0;fill: url(#grd2) } 
		.shp8 { opacity: 0;fill: #646262 } 
		.txt9 { opacity: 0;font-size: 18px;fill: #ffffff;font-family: "Arial";text-shadow:0 1px 0 #000; } 

#hsidesblak, #freza2{opacity:0;}
#freza, .freza{transform:translateY(3px);}
	</style>
	<path id="freza" class="shp0" d="M160.95 90C160.95 90 156.53 85.92 153.16 81.42C141.34 88.93 146.63 77.94 149.19 68.62C150.78 62.85 148.66 56.72 148 57C146.5 57.63 148.12 63.04 146.53 68.49C144.34 75.99 140.25 85.06 136.8 86.97C132.92 89.12 123.82 89.72 119.98 90.06C113.89 90.59 107.34 91 100.5 91C76.34 91 55.68 86.85 47.16 80.98C43.76 85.64 39.05 90 39.05 90L32 90C32 90 40.87 34.77 99.5 35C99.67 35 99.83 35.01 100 35.01C100.17 35.01 100.33 35 100.5 35C159.13 34.77 168 90 168 90L160.95 90Z" />
	<path id="freza2" class="shp1" d="M160.95 90C160.95 90 152.02 81.74 149.87 75.79C147.72 69.84 100.5 68.83 100.5 68.83L99.5 68.83C99.5 68.83 52.28 69.84 50.13 75.79C47.98 81.74 39.05 90 39.05 90L32 90C32 90 40.87 34.77 99.5 35C99.67 35 99.83 35.01 100 35.01C100.17 35.01 100.33 35 100.5 35C159.13 34.77 168 90 168 90L160.95 90Z" />
	<path id="earlight" class="shp2" d="M168.19 73.86C171.69 73.2 175.16 76.02 175.94 80.15C175.94 80.15 177.28 81.99 177.79 84.74C178.05 86.11 175.35 87.71 175.67 89.41C176.06 91.46 178.47 89.66 178.87 91.81C180.07 98.18 181.17 108.07 181.17 108.07C181.94 112.2 179.73 116.08 176.23 116.74C172.73 117.4 169.27 114.58 168.49 110.45L163.26 82.53C162.48 78.4 164.69 74.51 168.19 73.86Z" />
	<path id="eardarl" class="shp3" d="M161.54 66.37C165.61 65.6 171.64 73.88 172.54 78.68L177.63 116.15C178.53 120.95 174.96 122.47 170.89 123.23C166.82 123.99 166.79 118.72 165.88 113.91C165.88 113.91 167.98 109.11 166.88 103.2C165.1 93.74 157.8 81.45 157.8 81.45C156.9 76.64 157.47 67.13 161.54 66.37Z" />
	<path id="hsidesblak" class="shp1" d="M52 93C52 93 39.98 91.96 36.97 100.43C33.88 109.13 37.79 128.35 38 130C38.41 133.25 62.73 161.05 65 163C67.27 164.95 30 163 30 163C30 163 28.19 157.56 26.4 152.21C24.69 147.06 23 142 23 142C23 142 23.29 128.94 27.43 118.25C31.32 108.21 31.07 96.74 31 90C30.82 72.44 61.33 80.96 52 93ZM169 90C168.93 96.74 168.68 108.21 172.57 118.25C176.71 128.94 177 142 177 142C177 142 175.31 147.06 173.6 152.21C171.81 157.56 170 163 170 163C170 163 132.73 164.95 135 163C137.27 161.05 161.59 133.25 162 130C162.21 128.35 166.12 109.13 163.03 100.43C160.02 91.96 148 93 148 93C138.67 80.96 169.18 72.44 169 90Z" />
	<path id="sline" class="shp3" d="M28.17 126.2L35.84 119.78L61.56 137.12L77.6 138.82L71.88 145.7L58.02 143.47L41.12 132.32L34.13 135.82L28.17 126.2Z" />
	<path id="sdarknumb" class="shp4" d="M28.5 120.5C32.26 120.5 35.3 124.98 35.3 130.5C35.3 136.02 32.26 140.5 28.5 140.5C24.74 140.5 23.7 136.02 23.7 130.5C23.7 124.98 24.74 120.5 28.5 120.5Z" />
	<path id="slightnumb" class="shp2" d="M27.14 121C30.37 121 32.99 125.03 32.99 130C32.99 134.97 30.37 139 27.14 139C23.91 139 23.01 134.97 23.01 130C23.01 125.03 23.91 121 27.14 121Z" />
	<path id="h2shadow" class="shp5" d="M162.74 98.01C162.74 98.01 159.86 99.01 156.29 93.71C146.88 100.36 125.46 105 100.53 105C74.95 105 53.07 100.11 44.06 93.19C40.45 98.69 37.26 98.01 37.26 98.01L30 98.01C30 98.01 37.39 38.73 99.47 39C99.65 39 99.82 39.01 100 39.01C100.18 39.01 100.35 39 100.53 39C162.61 38.73 170 98.01 170 98.01L162.74 98.01Z" />
	<path id="h2" class="shp6" d="M164.53 97.82C164.53 97.82 159.86 93.01 156.29 87.71C146.88 94.36 125.46 99 100.53 99C74.95 99 53.07 94.11 44.06 87.19C40.45 92.69 35.47 97.82 35.47 97.82L28 97.82C28 97.82 37.39 32.73 99.47 33C99.65 33 99.82 33.01 100 33.01C100.18 33.01 100.35 33 100.53 33C162.61 32.73 172 97.82 172 97.82L164.53 97.82Z" />
	<path id="h2shine" class="shp7" d="M162.74 93.01C162.74 93.01 159.86 94.01 156.29 88.71C146.88 95.36 125.46 100 100.53 100C74.95 100 53.07 95.11 44.06 88.19C40.45 93.69 37.26 93.01 37.26 93.01L30 93.01C30 93.01 37.39 33.73 99.47 34C99.65 34 99.82 34.01 100 34.01C100.18 34.01 100.35 34 100.53 34C162.61 33.73 170 93.01 170 93.01L162.74 93.01Z" />
	<path id="h2shine2" class="shp8" d="M55 72C54.05 74.11 35.03 75.93 49 57C62.97 38.07 89 34 89 34C45.7 53.12 55.95 69.89 55 72Z" />
	<text id="CGC" style="opacity: 0.42;transform: matrix(1,0,0,1,100.3,91.281)" >
		<tspan x="-19.55" y="0" class="txt9" dx="0 0 0 0" >CGC
</tspan>
	</text>
</svg>