<svg version="1.2" baseProfile="tiny-ps" xmlns="http://www.w3.org/2000/svg" viewBox="0 0 200 175" width="200" height="175">
	<title>cap1</title>
	<defs>
		<radialGradient id="grd1" gradientUnits="userSpaceOnUse"  cx="100" cy="71" r="32.794">
			<stop offset="0.085" stop-color="#3b3a3a"  />
			<stop offset="0.448" stop-color="#111111"  />
			<stop offset="1" stop-color="#000000"  />
                        
		</radialGradient>
		<radialGradient id="grd2" gradientUnits="userSpaceOnUse"  cx="100" cy="72" r="36.729">
			<stop offset="0.009" stop-color="#1a1e1f" stop-opacity="0" />
                        <stop offset="0.109" stop-color="#1a1e1f" stop-opacity="0.1" />
			<stop offset="30%" stop-color="#353a47" stop-opacity="0.7" />
                        <stop offset="70%" stop-color="#353a47" stop-opacity="0.4" />
		</radialGradient>
	</defs>
	<style>
		tspan { white-space:pre }
		.shp0 { fill: #000000 } 
		.shp1 { fill: url(#grd1) } 
		.shp2 { fill: url(#grd2) } 
		.shp3 { fill: #777474 } 
		.shp4 { fill: #303030 } 
	</style>
	<path id="h2shadow" class="shp0" d="M162.74 101.01C162.74 101.01 159.86 102.01 156.29 96.71C146.88 103.36 125.46 108 100.53 108C74.95 108 53.07 103.11 44.06 96.19C40.45 101.69 37.26 101.01 37.26 101.01L30 101.01C30 101.01 37.39 41.73 99.47 42C99.65 42 99.82 42.01 100 42.01C100.18 42.01 100.35 42 100.53 42C162.61 41.73 170 101.01 170 101.01L162.74 101.01Z" />
	<path id="h2" class="shp1" d="M164.53 102.82C164.53 102.82 159.86 98.01 156.29 92.71C146.88 99.36 125.46 104 100.53 104C74.95 104 53.07 99.11 44.06 92.19C40.45 97.69 35.47 102.82 35.47 102.82L28 102.82C28 102.82 37.39 37.73 99.47 38C99.65 38 99.82 38.01 100 38.01C100.18 38.01 100.35 38 100.53 38C162.61 37.73 172 102.82 172 102.82L164.53 102.82Z" />
	<path id="h2shine" class="shp2" d="M162.74 98.01C162.74 98.01 159.86 99.01 156.29 93.71C146.88 100.36 125.46 105 100.53 105C74.95 105 53.07 100.11 44.06 93.19C40.45 98.69 37.26 98.01 37.26 98.01L30 98.01C30 98.01 37.39 38.73 99.47 39C99.65 39 99.82 39.01 100 39.01C100.18 39.01 100.35 39 100.53 39C162.61 38.73 170 98.01 170 98.01L162.74 98.01Z" />
	<path id="h2logo" class="shp3" d="M107.93 70.27L117 67.47L108.46 72.84L111.07 77.98L109.68 80.55L107.58 80.08L109.15 81.72L107.24 81.72L108.63 82.89L106.71 83.36L108.46 88.26L106.54 92L105.32 91.07L102.88 89.43L103.05 84.06L105.49 79.62L102.7 79.15L104.45 76.81L107.93 77.28L106.54 73.31L102.35 74.48L101.48 77.98L100.78 78.45L100.78 70.5L104.1 68.17L104.1 69.34L108.98 67L107.41 69.1L107.93 70.27ZM97.65 74.48L93.46 73.31L92.07 77.28L95.55 76.81L97.3 79.15L94.51 79.62L96.95 84.06L97.12 89.43L94.68 91.07L93.46 92L91.54 88.26L93.29 83.36L91.37 82.89L92.76 81.72L90.85 81.72L92.42 80.08L90.32 80.55L88.93 77.98L91.54 72.84L83 67.47L92.07 70.27L92.59 69.1L91.02 67L95.9 69.34L95.9 68.17L99.22 70.5L99.22 78.45L98.52 77.98L97.65 74.48Z" />
	<path id="h2shine2" class="shp4" d="M112 41C112 41 138.03 45.07 152 64C165.97 82.93 146.95 81.11 146 79C145.05 76.89 155.3 60.12 112 41Z" />
</svg>