<svg version="1.2" baseProfile="tiny-ps" xmlns="http://www.w3.org/2000/svg" viewBox="0 0 200 175" width="200" height="175">
	<title>cap9</title>
	<defs>
		<radialGradient id="grd1" gradientUnits="userSpaceOnUse"  cx="100" cy="71" r="32.794">
		<stop offset="0.085" stop-color="#3b3a3a"  />
			<stop offset="0.448" stop-color="#111111"  />
			<stop offset="1" stop-color="#000000"  />
		</radialGradient>

		<radialGradient id="grd2" gradientUnits="userSpaceOnUse"  cx="100" cy="72" r="36.729">
			<stop offset="0.009" stop-color="#1a1e1f" stop-opacity="0" />
                        <stop offset="0.109" stop-color="#1a1e1f" stop-opacity="0.1" />
			<stop offset="30%" stop-color="#353a47" stop-opacity="0.7" />
                        <stop offset="70%" stop-color="#353a47" stop-opacity="0.4" />
		</radialGradient>
		<linearGradient id="grd3" gradientUnits="userSpaceOnUse"  x1="103.326" y1="127" x2="95.674" y2="91">
			<stop offset="0" stop-color="#5881c6" stop-opacity="0.6" />
			<stop offset="1" stop-color="#000000" stop-opacity="0.4" />
		</linearGradient>

<radialGradient id="grd4" cx="60%" cy="50%" r="50%" >
    
            <stop offset="0%" style="stop-color:rgb(0,0,0);stop-opacity:0.30" />
            <stop offset="16%" style="stop-color:rgb(208,151,255);stop-opacity:0.32" />
            <stop offset="56%" style="stop-color:rgb(255,0,222);stop-opacity:0.35" />
            <stop offset="96%" style="stop-color:rgb(18,0,0);stop-opacity:0.51" />

    </radialGradient>
	</defs>
	<style>
		tspan { white-space:pre }
		.shp0 { fill: #000000 } 
		.shp1 { fill: url(#grd4) } 
		.shp2 { fill: url(#grd2) } 
		.shp3 { opacity: 0;fill: #757272 } 
		.shp4 { opacity: 0;fill: #ffffff } 
		.shp5 { fill: #303030 } 
		.shp6 { opacity: 0;fill: #000000 } 
		.shp7 { opacity: 0;fill: #777474 } 
		.shp8 { opacity: 0;fill: url(#grd3) }
#vizor, .vizor { opacity: 1; fill: url(#grd2);transform:scaleY(1.5) translateY(-2px);transform-origin:center center;}
#logo2, .logo2 { opacity: 1;fill: #fc1484 }
#logo3, .logo3 { opacity: 0;fill: #ceb767 /** star ***/ }
#logo4, .logo4 { opacity: 0;fill: #aef83a /*** hazard ***/ }
#logo1a, .logoaripi{opacity:1;fill:#fc1484}
#tif, .tifup{opacity:0;fill:#fc1414}
#h2shadow {opacity:1;fill:#000}
#h2shine2  {opacity:1;}
#h2logo ,.firstlogo{opacity:0;fill:#777;transform:translateY(5px);}
#crack, .crack{opacity:1;fill:#333}
#vizormodel, .shp6 .vizormodel (opacity:1;}
	</style>
	<path id="h2shadow" class="shp0" d="M162.74 101.01C162.74 101.01 159.86 102.01 156.29 96.71C146.88 103.36 125.46 108 100.53 108C74.95 108 53.07 103.11 44.06 96.19C40.45 101.69 37.26 101.01 37.26 101.01L30 101.01C30 101.01 37.39 41.73 99.47 42C99.65 42 99.82 42.01 100 42.01C100.18 42.01 100.35 42 100.53 42C162.61 41.73 170 101.01 170 101.01L162.74 101.01Z" />
	<path id="h2" class="shp1" d="M164.53 102.82C164.53 102.82 159.86 98.01 156.29 92.71C146.88 99.36 125.46 104 100.53 104C74.95 104 53.07 99.11 44.06 92.19C40.45 97.69 35.47 102.82 35.47 102.82L28 102.82C28 102.82 37.39 37.73 99.47 38C99.65 38 99.82 38.01 100 38.01C100.18 38.01 100.35 38 100.53 38C162.61 37.73 172 102.82 172 102.82L164.53 102.82Z" />
	<path id="h2shine" class="shp2" d="M162.74 98.01C162.74 98.01 159.86 99.01 156.29 93.71C146.88 100.36 125.46 105 100.53 105C74.95 105 53.07 100.11 44.06 93.19C40.45 98.69 37.26 98.01 37.26 98.01L30 98.01C30 98.01 37.39 38.73 99.47 39C99.65 39 99.82 39.01 100 39.01C100.18 39.01 100.35 39 100.53 39C162.61 38.73 170 98.01 170 98.01L162.74 98.01Z" />
	<path id="h2logo" class="shp3 firstlogo" d="M107.93 70.27L117 67.47L108.46 72.84L111.07 77.98L109.68 80.55L107.58 80.08L109.15 81.72L107.24 81.72L108.63 82.89L106.71 83.36L108.46 88.26L106.54 92L105.32 91.07L102.88 89.43L103.05 84.06L105.49 79.62L102.7 79.15L104.45 76.81L107.93 77.28L106.54 73.31L102.35 74.48L101.48 77.98L100.78 78.45L100.78 70.5L104.1 68.17L104.1 69.34L108.98 67L107.41 69.1L107.93 70.27ZM97.65 74.48L93.46 73.31L92.07 77.28L95.55 76.81L97.3 79.15L94.51 79.62L96.95 84.06L97.12 89.43L94.68 91.07L93.46 92L91.54 88.26L93.29 83.36L91.37 82.89L92.76 81.72L90.85 81.72L92.42 80.08L90.32 80.55L88.93 77.98L91.54 72.84L83 67.47L92.07 70.27L92.59 69.1L91.02 67L95.9 69.34L95.9 68.17L99.22 70.5L99.22 78.45L98.52 77.98L97.65 74.48Z" />

<path id="logo2" class="shp3 logo2" d="M113.93 77.92L113.93 91.08L113.9 91.08L114 91.25L101.92 97.79C101.91 97.84 101.9 97.88 101.87 97.92C101.83 97.97 101.79 98 101.74 98L99.26 98C99.21 98 99.17 97.97 99.13 97.92C99.1 97.88 99.09 97.84 99.08 97.79L87 91.25L87.1 91.08L87.07 91.08L87.07 77.92L87.1 77.92L87 77.75L99.08 71.21C99.09 71.16 99.1 71.12 99.13 71.08C99.17 71.03 99.21 71 99.26 71L101.74 71C101.79 71 101.83 71.03 101.87 71.08C101.9 71.12 101.91 71.16 101.92 71.21L114 77.75L113.9 77.92L113.93 77.92ZM111.97 78.77L100.94 72.8L100.63 73.25C100.59 73.3 100.55 73.33 100.5 73.33C100.45 73.33 100.41 73.3 100.38 73.25L100.06 72.8L89.03 78.77L89.03 90.23L100.06 96.2L100.38 95.75C100.41 95.7 100.45 95.67 100.5 95.67C100.55 95.67 100.59 95.7 100.63 95.75L100.94 96.2L111.97 90.23L111.97 78.77ZM93.57 90.67C93.57 90.02 94.13 89.5 94.82 89.5L106.18 89.5C106.87 89.5 107.43 90.02 107.43 90.67L107.43 91.67L93.57 91.67L93.57 90.67ZM107.43 87.5C107.43 88.14 106.87 88.67 106.18 88.67L94.82 88.67C94.13 88.67 93.57 88.14 93.57 87.5L93.57 86.56L91.99 82.6C91.85 82.64 91.69 82.67 91.53 82.67C90.7 82.67 90.02 82.03 90.02 81.25C90.02 80.47 90.7 79.83 91.53 79.83C92.36 79.83 93.04 80.47 93.04 81.25C93.04 81.44 93 81.62 92.93 81.78L97.5 84.04L99.89 79.24C99.31 79.04 98.9 78.53 98.9 77.92C98.9 77.13 99.58 76.5 100.41 76.5C101.25 76.5 101.92 77.13 101.92 77.92C101.92 78.47 101.58 78.95 101.08 79.18L103.53 84.11L108.25 81.78C108.18 81.62 108.14 81.44 108.14 81.25C108.14 80.47 108.81 79.83 109.65 79.83C110.48 79.83 111.16 80.47 111.16 81.25C111.16 82.03 110.48 82.67 109.65 82.67C109.49 82.67 109.33 82.64 109.18 82.6L107.43 87L107.43 87.5Z" />
	<path id="logo3" class="shp3 logo3" d="M102.33 81.03C102.74 80.98 103.26 81.03 103.88 81.17C104.49 81.31 105 81.37 105.42 81.33C105.21 81.73 104.84 82.19 104.3 82.7C103.67 83.28 103.26 83.7 103.07 83.97C103.2 84.32 103.31 84.82 103.4 85.48C103.53 86.35 103.61 86.87 103.65 87.06C101.66 85.61 99.65 85.61 97.62 87.06C97.65 86.88 97.74 86.39 97.88 85.57C97.99 84.95 98.09 84.47 98.2 84.12C98.02 83.73 97.63 83.26 97.02 82.72C96.41 82.18 96.02 81.72 95.84 81.33C96.25 81.37 96.75 81.32 97.34 81.19C97.92 81.05 98.41 81 98.8 81.03C99.34 80.56 99.87 79.58 100.41 78.08C100.84 78.27 101.19 78.72 101.49 79.43C101.83 80.29 102.11 80.82 102.33 81.03L102.33 81.03ZM105.86 84.71C106.26 84.17 107.1 83.33 108.38 82.21C109.51 81.22 110.3 80.34 110.73 79.55C109.97 79.5 108.84 79.34 107.34 79.1C105.9 78.88 104.77 78.73 103.95 78.68C103.56 78.09 103.01 77.02 102.29 75.46C101.64 74.04 101.06 73 100.55 72.33C100.33 72.73 99.8 73.82 98.95 75.6C98.32 76.95 97.73 77.97 97.18 78.68C96.49 78.75 95.39 78.9 93.87 79.13C92.48 79.34 91.37 79.48 90.55 79.55C90.74 80.23 91.57 81.13 93.03 82.23C94.47 83.29 95.26 84.17 95.4 84.86C95.54 85.52 95.39 86.56 94.95 87.99C94.48 89.53 94.29 90.74 94.38 91.63C95.13 91.35 96.18 90.83 97.53 90.08C98.87 89.33 99.93 88.82 100.71 88.54C101.39 88.83 102.42 89.35 103.79 90.1C105.09 90.82 106.13 91.33 106.9 91.63C106.88 90.89 106.72 89.78 106.44 88.29C106.13 86.56 105.93 85.36 105.86 84.71L105.86 84.71ZM106.3 75.42C112.23 76.26 116.26 76.85 118.38 77.2C115.69 80.02 113.49 82.23 111.75 83.83C110.44 85.05 109.75 85.78 109.69 86.04C109.67 86.12 110.02 88.13 110.73 92.07C110.78 92.35 110.93 93.38 111.17 95.15C111.35 96.35 111.54 97.34 111.75 98.12C111.49 98.01 108.75 96.59 103.51 93.85C101.83 92.97 100.9 92.52 100.71 92.51C100.41 92.51 98.49 93.45 94.96 95.32C91.47 97.17 89.7 98.11 89.66 98.12C90.3 93.65 90.99 89.67 91.73 86.18C90.69 84.95 89.23 83.46 87.37 81.7C84.94 79.37 83.45 77.91 82.89 77.34C84.28 76.96 86.23 76.61 88.74 76.29C92.02 75.85 94.05 75.56 94.82 75.42C95.68 74.15 96.67 72.34 97.79 70.01C99.22 67.01 100.14 65.13 100.55 64.38C101.34 65.59 102.31 67.42 103.47 69.87C104.73 72.52 105.67 74.37 106.3 75.42L106.3 75.42Z" />
	<path id="logo4" class="shp3 logo4" d="M112.43 94.04C112.58 93.97 112.79 93.84 113.06 93.65C113.37 93.44 113.58 93.3 113.71 93.23C114.23 92.96 114.71 92.96 115.17 93.23C114.99 93.98 114.57 94.65 113.89 95.23C113.69 95.39 113.38 95.62 112.96 95.94C112.53 96.23 112.22 96.46 112.02 96.64C110.57 97.34 108.95 97.68 107.17 97.66C105.47 97.64 103.93 97.3 102.55 96.64C102.65 96.7 102.27 96.45 101.41 95.9C101.32 95.86 101.13 95.7 100.83 95.45C100.57 95.22 100.4 95.11 100.33 95.11C100.21 95.1 99.84 95.32 99.24 95.76C98.54 96.29 98.13 96.58 98 96.64C97.94 96.68 97.83 96.71 97.68 96.75C97.52 96.78 97.4 96.81 97.33 96.83C94.98 97.88 92.49 97.99 89.86 97.17C89.8 97.16 89.64 97.07 89.37 96.9C89.17 96.78 88.93 96.71 88.66 96.71C88.22 96.35 87.88 96.15 87.66 96.11C87.51 95.95 87.27 95.74 86.94 95.48C86.58 95.18 86.33 94.96 86.2 94.85C85.64 94.32 85.37 93.74 85.39 93.11C85.85 92.93 86.34 92.99 86.85 93.28C86.96 93.35 87.17 93.5 87.48 93.72C87.74 93.9 87.95 94.03 88.12 94.11C88.18 94.13 88.26 94.14 88.38 94.14C88.51 94.14 88.6 94.15 88.66 94.16C88.73 94.2 88.83 94.27 88.96 94.37C89.09 94.49 89.19 94.55 89.26 94.57C90.02 94.81 90.97 94.89 92.11 94.79C93.23 94.69 94.11 94.46 94.73 94.11C95.52 93.64 96.3 92.75 97.06 91.44C97.23 91.16 97.41 90.64 97.61 89.89C97.62 89.81 97.67 89.7 97.77 89.56C97.86 89.4 97.92 89.29 97.94 89.22C98.08 88.62 98.06 87.88 97.86 86.97C97.57 85.7 97.42 84.89 97.4 84.56C97.62 84.59 97.84 84.52 98.05 84.35C98.27 84.18 98.46 84.09 98.61 84.09C98.8 84.09 99.06 84.21 99.39 84.44C99.72 84.69 99.98 84.82 100.14 84.83C100.45 84.85 101.03 84.58 101.88 84.02C102.49 84.39 102.87 84.59 103.01 84.62C103.17 84.88 103.19 85.13 103.08 85.37C103.05 85.43 102.99 85.53 102.88 85.67C102.81 85.79 102.77 85.88 102.74 85.95C102.38 87.18 102.38 88.5 102.74 89.89C102.77 89.98 102.83 90.11 102.94 90.26C103.04 90.41 103.11 90.54 103.15 90.63C103.17 90.69 103.19 90.79 103.22 90.95C103.23 91.07 103.25 91.17 103.27 91.23C103.86 92.53 104.97 93.64 106.61 94.57C108.73 95.01 110.67 94.84 112.43 94.04L112.43 94.04ZM105.01 91.56C104.69 91.41 104.41 90.9 104.15 90.03C104.16 90.09 104.05 89.87 103.81 89.36C103.69 89.09 103.66 88.81 103.74 88.5C103.79 88.34 103.98 88.14 104.31 87.9C104.73 87.61 104.99 87.41 105.08 87.29C105.14 87.22 105.22 87.09 105.33 86.9C105.46 86.67 105.55 86.51 105.61 86.43C105.89 86.03 106.11 85.56 106.28 85.02C106.64 83.91 106.82 83.26 106.82 83.09C108.23 82.46 109.34 82.28 110.16 82.56C110.3 82.9 110.23 83.63 109.95 84.76C109.93 84.88 109.91 85.07 109.9 85.34C109.89 85.6 109.86 85.78 109.83 85.9C109.79 85.98 109.73 86.08 109.63 86.2C109.52 86.33 109.45 86.43 109.42 86.5C109.38 86.59 109.28 86.88 109.12 87.38C109.01 87.72 108.88 88 108.75 88.22C108.52 88.62 107.96 89.25 107.08 90.1C106.5 90.66 105.81 91.15 105.01 91.56L105.01 91.56ZM93.6 83.09C93.87 85.09 94.89 86.87 96.66 88.43C96.74 88.98 96.59 89.65 96.2 90.44C96.16 90.52 96.1 90.64 96.03 90.8C95.97 90.97 95.92 91.08 95.89 91.14C95.77 91.36 95.63 91.48 95.47 91.51C95.02 91.55 94.24 91.02 93.13 89.89C92.87 89.63 92.56 89.23 92.21 88.7C91.87 88.18 91.62 87.85 91.46 87.69C91.46 87.4 91.31 87.09 91 86.76C90.45 84.84 90.24 83.44 90.39 82.56C91.3 82.24 92.37 82.42 93.6 83.09L93.6 83.09ZM94.99 74.54C95.03 74.15 95.76 73.72 97.21 73.28C97.45 73.2 98.1 73.06 99.14 72.87C99.67 72.78 100.78 72.89 102.48 73.21C102.56 73.22 102.72 73.23 102.95 73.23C103.15 73.23 103.31 73.24 103.41 73.28C103.47 73.29 103.56 73.35 103.69 73.46C103.82 73.56 103.93 73.63 104.01 73.67C104.13 73.72 104.29 73.79 104.5 73.86C104.71 73.93 104.86 73.98 104.94 74.02C105.23 74.16 105.39 74.33 105.41 74.54C105.43 74.67 105.14 75.12 104.55 75.88C104.12 76.42 103.74 76.78 103.41 76.95C101.47 76.44 100.06 76.23 99.21 76.34C98.97 76.37 98.65 76.5 98.23 76.72C97.89 76.91 97.55 76.99 97.21 76.95C96.81 76.91 96.23 76.33 95.47 75.21C95.16 74.76 95 74.53 94.99 74.54L94.99 74.54ZM117.44 89.1C117.46 89.47 117.48 89.67 117.49 89.7C117.15 90.22 116.93 90.54 116.82 90.63C116.47 90.65 116.23 90.61 116.1 90.51C116.02 90.19 116 89.54 116.03 88.55C116.06 87.61 116.01 86.96 115.89 86.62C115.72 86.09 115.49 85.54 115.22 84.95C114.73 83.87 114.4 83.23 114.22 83.02C112.93 82.31 111.98 81.76 111.36 81.35C107.97 81.01 105.32 82.03 103.41 84.42C102.84 84.06 102.44 83.84 102.22 83.76C102.29 82.97 102.14 82.32 101.79 81.8C101.56 81.48 101.14 81.1 100.55 80.68C100.59 80.53 100.6 80.31 100.58 80.03C100.56 79.75 100.57 79.54 100.62 79.41C102.82 78.55 104.08 77.99 104.41 77.74C105.46 76.97 106.21 76.02 106.68 74.88C106.72 74.81 106.74 74.69 106.75 74.51C106.76 74.31 106.79 74.16 106.82 74.07C106.84 74 106.9 73.9 107 73.77C107.08 73.64 107.13 73.54 107.15 73.47C107.37 72.63 107.33 71.79 107.05 70.96C106.96 70.68 106.81 70.33 106.61 69.92C106.35 69.39 106.2 69.07 106.15 68.94C105.41 67.95 104.56 67.17 103.6 66.6C102.84 66.13 102.35 65.8 102.13 65.62C101.48 65.06 101.49 64.7 102.14 64.53C102.94 64.31 104.05 64.6 105.48 65.39C106.89 66.17 107.93 67 108.61 67.87C109.46 68.93 110.06 70.04 110.42 71.21C110.46 71.32 110.53 71.47 110.64 71.66C110.74 71.84 110.8 71.96 110.83 72.01C110.9 72.31 110.99 73.06 111.09 74.28C111.08 74.18 110.99 74.93 110.83 76.55C111.18 76.87 111.74 77.13 112.5 77.34C114.78 79.16 116.1 80.34 116.44 80.89C116.45 81.2 116.59 81.56 116.86 81.98C117.17 82.48 117.37 82.85 117.44 83.09C117.46 83.18 117.47 83.32 117.47 83.51C117.46 83.71 117.47 83.86 117.49 83.95C117.54 84.11 117.65 84.34 117.82 84.63C117.98 84.9 118.07 85.12 118.11 85.29C118.23 86.12 118.01 87.39 117.44 89.1L117.44 89.1ZM89 81.49C86.85 82.04 85.43 83.66 84.73 86.36C84.62 86.74 84.53 87.39 84.44 88.29C84.36 89.31 84.27 90.05 84.18 90.51C83.64 90.67 83.2 90.24 82.84 89.22C82.46 88.1 82.32 86.99 82.44 85.9C82.7 83.63 83.51 81.67 84.87 80.03C86.08 78.54 87.68 77.4 89.66 76.62C89.11 74.15 89.47 71.8 90.74 69.59C91.85 67.62 93.4 66.13 95.39 65.12C95.58 65.1 95.84 65.03 96.17 64.91C96.59 64.77 96.87 64.68 96.99 64.65C97.67 64.47 98.23 64.5 98.66 64.74C98.79 65.05 98.73 65.32 98.49 65.53C98.09 65.87 97.89 66.04 97.87 66.05C96.42 66.65 95.15 67.77 94.06 69.39C93.72 69.98 93.5 70.75 93.39 71.7C93.29 72.72 93.36 73.6 93.6 74.33C93.88 75.18 94.44 76.05 95.27 76.95C95.73 77.45 96.6 78.07 97.87 78.82C97.77 78.8 98.48 78.98 100 79.34C100.15 79.51 100.2 79.91 100.14 80.56C100.02 80.76 99.78 80.95 99.42 81.14C99.05 81.34 98.79 81.52 98.66 81.68C98.73 81.6 98.61 82.29 98.28 83.76C98.24 83.77 97.89 83.99 97.21 84.42C96.78 84.27 96.54 84.03 96.47 83.69C96.48 83.7 95.75 83.12 94.27 81.95C94.39 81.93 93.97 81.78 93 81.49C91.76 81.11 90.43 81.11 89 81.49L89 81.49Z" />
	<path id="logo1a" class="shp4 logoaripi" d="M100.4 88.7C100.7 88.8 100.87 89.2 100.91 89.89C100.96 90.58 100.84 91.01 100.55 91.17C100.28 90.45 100.23 89.62 100.4 88.7L100.4 88.7ZM98.45 88.7C98.56 88.67 98.64 88.69 98.7 88.75C98.77 88.83 98.82 88.88 98.86 88.89C98.86 88.88 98.83 89.33 98.79 90.26C98.75 90.8 98.58 91.1 98.26 91.17C98.26 91.17 98.32 90.35 98.45 88.7L98.45 88.7ZM102.16 88.41C102.23 88.4 102.3 88.41 102.37 88.43C102.46 88.47 102.51 88.48 102.55 88.48C102.58 88.61 102.65 88.8 102.74 89.03C102.87 89.32 102.95 89.52 102.97 89.61C103.14 90.09 103.11 90.48 102.9 90.77C102.69 90.56 102.53 90.2 102.43 89.7C102.4 89.63 102.36 89.41 102.3 89.05C102.24 88.79 102.2 88.58 102.16 88.41L102.16 88.41ZM95.9 90.77C95.9 90.34 95.99 89.87 96.17 89.36C96.4 88.7 96.54 88.27 96.57 88.08C96.74 88.57 96.77 89.11 96.66 89.68C96.54 90.31 96.29 90.68 95.9 90.77L95.9 90.77ZM104.1 87.68C104.48 87.85 104.79 88.16 105.01 88.59C105.24 89.06 105.28 89.52 105.12 89.96C104.47 89.26 104.13 88.5 104.1 87.68L104.1 87.68ZM93.69 89.96C93.98 89.14 94.41 88.29 94.97 87.41C95.07 87.9 94.99 88.41 94.74 88.94C94.49 89.5 94.14 89.84 93.69 89.96L93.69 89.96ZM91.67 88.82C92.08 87.78 92.64 87.11 93.36 86.81C93.32 86.87 93.22 87.08 93.06 87.43C92.94 87.69 92.83 87.89 92.74 88.04C92.47 88.48 92.11 88.74 91.67 88.82L91.67 88.82ZM105.71 86.67C105.98 86.59 106.34 86.81 106.79 87.34C107.22 87.86 107.35 88.31 107.19 88.7C106.46 88.13 105.97 87.46 105.71 86.67L105.71 86.67ZM101.55 85.79C101.83 85.95 102.04 86.26 102.18 86.73C102.3 87.1 102.36 87.51 102.36 87.96C102.09 87.83 101.9 87.52 101.79 87.04C101.77 86.95 101.73 86.74 101.69 86.41C101.64 86.14 101.59 85.94 101.55 85.79L101.55 85.79ZM100.88 88.22C100.57 88.2 100.39 87.91 100.32 87.36C100.29 87.17 100.28 86.65 100.28 85.79C100.52 85.97 100.67 86.32 100.74 86.85C100.75 86.97 100.77 87.2 100.79 87.54C100.81 87.83 100.84 88.06 100.88 88.22L100.88 88.22ZM99.07 88.29C98.83 88.08 98.74 87.68 98.79 87.08C98.81 86.91 98.85 86.67 98.89 86.36C98.95 86.05 98.99 85.84 99 85.72C99.16 85.94 99.24 86.35 99.23 86.97C99.23 87.49 99.17 87.93 99.07 88.29L99.07 88.29ZM97.64 85.72C97.69 85.72 97.73 85.74 97.77 85.76C97.8 85.78 97.83 85.79 97.86 85.79C97.83 85.95 97.8 86.16 97.77 86.43C97.73 86.74 97.71 86.96 97.7 87.08C97.62 87.57 97.49 87.93 97.31 88.15C97.12 87.87 97.1 87.46 97.24 86.94C97.29 86.81 97.36 86.6 97.47 86.3C97.56 86.05 97.62 85.85 97.64 85.72L97.64 85.72ZM96.31 85.72C96.34 85.72 96.38 85.74 96.41 85.76C96.45 85.78 96.48 85.79 96.5 85.79C96.46 86.08 96.36 86.41 96.2 86.8C96 87.28 95.88 87.59 95.83 87.75C95.55 87.52 95.52 87.18 95.75 86.73C95.81 86.62 95.91 86.45 96.06 86.2C96.19 85.98 96.27 85.82 96.31 85.72L96.31 85.72ZM89.86 87.34C89.94 87.25 90.07 87.07 90.26 86.81C90.44 86.58 90.58 86.41 90.68 86.3C91.05 85.93 91.46 85.72 91.93 85.67C91.83 85.78 91.69 85.95 91.53 86.18C91.34 86.44 91.21 86.62 91.12 86.73C90.77 87.11 90.35 87.32 89.86 87.34L89.86 87.34ZM107.19 85.39C107.58 85.46 107.95 85.65 108.3 85.97C108.68 86.32 108.88 86.69 108.88 87.08C108.05 86.61 107.48 86.05 107.19 85.39L107.19 85.39ZM104.04 87.15C103.26 86.67 102.81 85.86 102.69 84.72C103.25 85.3 103.7 86.11 104.04 87.15L104.04 87.15ZM88.31 85.6C88.85 84.84 89.55 84.39 90.4 84.25C89.99 84.76 89.72 85.07 89.59 85.16C89.24 85.46 88.81 85.6 88.31 85.6L88.31 85.6ZM94.22 87.08C94.04 86.88 94.02 86.63 94.16 86.32C94.15 86.36 94.31 86.12 94.62 85.6C95.21 84.65 95.52 84.11 95.57 83.98C95.61 83.97 95.64 83.98 95.68 84C95.71 84.04 95.74 84.05 95.76 84.05C95.79 83.95 95.27 84.96 94.22 87.08L94.22 87.08ZM108.4 83.72C108.53 83.79 108.73 83.88 109 83.98C109.28 84.1 109.49 84.19 109.62 84.25C110.05 84.49 110.3 84.83 110.35 85.27C109.86 85.19 109.16 84.73 108.26 83.91C108.32 83.88 108.37 83.81 108.4 83.72L108.4 83.72ZM110.76 84.58C111.77 83.93 112.26 83.62 112.23 83.65L121.45 83.65C121.4 83.93 121.19 84.17 120.83 84.37C120.51 84.55 120.16 84.66 119.76 84.72C119.04 84.82 117.88 84.84 116.26 84.79C114.35 84.72 113.1 84.7 112.5 84.72C112.42 84.72 112.25 84.73 112.01 84.76C111.82 84.77 111.67 84.78 111.57 84.78C111.24 84.78 110.97 84.71 110.76 84.58L110.76 84.58ZM86.36 83.51C86.48 83.66 86.93 83.96 87.71 84.39C87.55 84.54 87.26 84.62 86.85 84.62C86.73 84.63 86.55 84.63 86.31 84.62C86.05 84.59 85.87 84.58 85.76 84.58C85.53 84.58 84.73 84.6 83.37 84.63C82.34 84.66 81.51 84.66 80.89 84.63C79.02 84.55 77.78 84.2 77.17 83.58C78.14 83.53 79.6 83.51 81.56 83.51C84.57 83.51 86.17 83.51 86.36 83.51L86.36 83.51ZM103.09 83.18C103.25 83.3 104.03 84.29 105.45 86.13C104.98 86.06 104.54 85.68 104.11 84.99C103.59 84.12 103.22 83.6 103.02 83.44C103.02 83.45 103.05 83.36 103.09 83.18L103.09 83.18ZM95.1 82.91C95.17 82.9 95.21 82.92 95.24 82.98C94.25 84.49 93.44 85.46 92.81 85.87C92.97 85.37 93.33 84.85 93.87 84.3C94.52 83.63 94.93 83.17 95.1 82.91L95.1 82.91ZM89.52 82.58C88.68 83.46 87.92 83.74 87.24 83.44C87.23 83.33 87.28 83.27 87.4 83.25L87.71 83.18C87.78 83.14 87.91 83.07 88.1 82.96C88.25 82.87 88.38 82.8 88.49 82.75C88.81 82.61 88.98 82.54 88.98 82.54C88.98 82.54 89.16 82.55 89.52 82.58L89.52 82.58ZM103.64 82.3C104.51 82.88 105.53 83.83 106.72 85.13C106.14 85 105.58 84.62 105.05 83.98C104.39 83.21 103.92 82.74 103.64 82.58L103.64 82.3ZM112.38 82.03C113.31 82.03 115.38 82.03 118.58 82.03C121.09 82.03 123.14 82.03 124.73 82.03C124.66 82.58 124.01 82.92 122.78 83.04L112.09 83.04C111.8 82.61 111.65 82.39 111.64 82.37C111.67 82.29 111.79 82.23 111.99 82.21C112.2 82.16 112.33 82.1 112.38 82.03L112.38 82.03ZM109.21 82.03C109.36 82.1 109.59 82.17 109.9 82.23C110.26 82.31 110.5 82.37 110.62 82.4C111.14 82.58 111.41 82.91 111.43 83.39C110.43 83.06 109.69 82.7 109.21 82.3L109.21 82.03ZM94.76 81.96C93.91 83.03 92.85 83.97 91.6 84.79C91.82 84.27 92.27 83.75 92.95 83.25C93.85 82.59 94.39 82.16 94.57 81.96L94.76 81.96ZM84.41 82.77C83.68 82.74 82.21 82.77 79.98 82.86C78.1 82.93 76.74 82.9 75.88 82.77C75.34 82.7 74.63 82.39 73.74 81.84C73.77 81.76 73.81 81.71 73.86 81.7C75.08 81.8 77.05 81.79 79.79 81.66C82.4 81.55 84.34 81.56 85.62 81.7C86.29 81.77 86.69 81.97 86.83 82.3C86.62 82.63 86.27 82.81 85.78 82.84C85.81 82.84 85.36 82.82 84.41 82.77L84.41 82.77ZM104.31 81.51C106.16 82.49 107.32 83.27 107.81 83.84C107.51 83.97 107.24 83.94 106.98 83.74C106.9 83.68 106.79 83.58 106.66 83.44C106.53 83.31 106.44 83.22 106.38 83.18C106.12 82.98 105.77 82.74 105.33 82.46C104.68 82.05 104.32 81.82 104.24 81.77C104.19 81.71 104.17 81.62 104.17 81.51L104.31 81.51ZM93.95 81.1C94 81.09 94.04 81.1 94.06 81.12C94.11 81.14 94.14 81.15 94.16 81.15C93.3 82.02 92.11 82.77 90.6 83.39C90.9 83 91.44 82.6 92.21 82.17C93.1 81.69 93.68 81.34 93.95 81.1L93.95 81.1ZM108.54 82.24C107.96 82.24 107.32 82.06 106.64 81.68C106.54 81.63 106.26 81.48 105.82 81.21C105.48 81.01 105.2 80.86 104.98 80.75C106.45 81.02 107.64 81.52 108.54 82.24L108.54 82.24ZM86.5 81.29C87.57 80.65 88.37 80.52 88.91 80.89C87.84 81.49 87.04 81.62 86.5 81.29L86.5 81.29ZM93.14 80.49C93.17 80.66 93.08 80.79 92.88 80.86C92.82 80.87 92.74 80.88 92.64 80.91C92.52 80.93 92.44 80.95 92.41 80.96C90.8 81.58 89.97 81.89 89.93 81.89C89.99 81.66 90.18 81.46 90.51 81.31C90.47 81.34 90.77 81.24 91.4 81.03C92.41 80.69 92.93 80.51 92.95 80.49L93.14 80.49ZM112.78 80.29C114.05 80.3 116.65 80.3 120.58 80.29C123.83 80.27 126.4 80.29 128.3 80.36C127.98 80.96 127.15 81.32 125.81 81.44C124.4 81.55 122.24 81.56 119.34 81.45C116.29 81.35 114.1 81.34 112.78 81.44C112.73 81.32 112.69 81.15 112.66 80.94C112.61 80.65 112.58 80.47 112.57 80.42C112.6 80.37 112.67 80.33 112.78 80.29L112.78 80.29ZM109.76 80.56C109.73 80.42 109.75 80.3 109.81 80.22C110.62 80.23 111.14 80.27 111.39 80.33C112.04 80.46 112.32 80.73 112.23 81.15C111.94 81.1 111.53 81 110.99 80.86C110.44 80.71 110.03 80.62 109.76 80.56L109.76 80.56ZM85.62 81.15C84.44 81.06 82.36 81.07 79.38 81.19C76.52 81.31 74.44 81.29 73.12 81.15C72.14 81.06 71.34 80.77 70.72 80.29C70.68 80.28 70.66 80.21 70.64 80.08C71.51 80.09 74.08 80.09 78.36 80.08C81.46 80.07 83.96 80.09 85.89 80.15C85.84 80.29 85.75 80.63 85.62 81.15L85.62 81.15ZM106.26 79.96C106.55 79.82 107.07 79.84 107.82 80.03C108.51 80.21 109 80.4 109.28 80.63C109.38 80.6 108.37 80.38 106.26 79.96L106.26 79.96ZM89.38 80.36C89.52 79.84 90.44 79.58 92.14 79.61C91.89 79.83 91.46 79.99 90.88 80.1C90.8 80.11 90.54 80.15 90.12 80.22C89.82 80.27 89.57 80.32 89.38 80.36L89.38 80.36ZM108 79.01C108.16 78.73 108.72 78.68 109.69 78.87C109.57 79.09 109.32 79.2 108.93 79.19C108.77 79.17 108.46 79.12 108 79.01L108 79.01ZM112.78 79.08C112.6 79.33 112.17 79.42 111.48 79.36C111.31 79.35 111.06 79.32 110.71 79.27C110.42 79.23 110.24 79.21 110.14 79.22C110.25 78.8 110.65 78.61 111.34 78.66C111.92 78.71 112.4 78.85 112.78 79.08L112.78 79.08ZM86.03 78.82C86.12 78.8 86.31 78.78 86.59 78.75C86.88 78.71 87.12 78.69 87.29 78.68C87.91 78.63 88.36 78.68 88.64 78.82C88.62 78.95 88.48 79.06 88.22 79.17C87.98 79.27 87.69 79.34 87.36 79.36C86.55 79.43 86.11 79.25 86.03 78.82L86.03 78.82ZM89.31 78.75C89.43 78.75 89.62 78.73 89.88 78.69C90.14 78.66 90.34 78.63 90.47 78.62C90.93 78.6 91.22 78.71 91.33 78.94C91.24 78.95 91.06 78.97 90.79 79.01C90.53 79.04 90.33 79.07 90.19 79.08C89.72 79.09 89.43 78.98 89.31 78.75L89.31 78.75ZM132.12 78.01C132.19 78.23 132.03 78.48 131.66 78.75L130.78 79.41C130.25 79.59 128.53 79.68 125.61 79.68L113.04 79.68C113.08 79.58 113.1 79.39 113.1 79.1C113.1 78.83 113.12 78.64 113.17 78.54C115.52 78.58 118.43 78.61 121.9 78.61C122.16 78.61 123.1 78.62 124.72 78.64C125.84 78.65 126.75 78.65 127.44 78.62C129.47 78.58 131.01 78.37 132.06 78.01L132.06 78.01L132.12 78.01ZM77.9 79.55C77.62 79.55 76.5 79.58 74.53 79.62C73.17 79.66 72.09 79.65 71.3 79.59C68.96 79.43 67.42 78.79 66.67 77.67C67.54 78.21 69.49 78.48 72.53 78.48C73.83 78.48 76 78.46 79.05 78.43C81.88 78.41 84.01 78.4 85.43 78.41C85.42 78.46 85.45 78.64 85.52 78.96C85.59 79.24 85.6 79.44 85.55 79.55L77.9 79.55ZM133.33 75.32C133.42 75.35 133.47 75.42 133.47 75.51C132.58 76.93 131.52 77.74 130.31 77.94L109.69 77.94C105.81 78.24 103.23 80.3 101.95 84.12C101.69 83.79 101.35 83.27 100.93 82.58C100.5 81.85 100.16 81.34 99.93 81.03C101.18 79.75 102.42 78.77 103.64 78.08C105.24 77.15 106.97 76.61 108.81 76.46C109.02 76.44 110.83 76.44 114.26 76.46L125 76.46C128.02 76.46 129.6 76.46 129.73 76.44C131.32 76.34 132.52 75.96 133.33 75.32L133.33 75.32ZM96.78 79.22C98.65 80.62 100.1 82.47 101.14 84.79C100.11 84.82 98.66 84.82 96.78 84.79C96.35 82.72 95.46 81.06 94.11 79.82C92.69 78.51 90.87 77.77 88.64 77.6L73.93 77.6C71 77.6 69.27 77.56 68.75 77.48C67.09 77.22 66.05 76.5 65.6 75.32C67.01 76.01 69.14 76.38 72 76.44C72.91 76.46 74.19 76.44 75.83 76.39C77.71 76.34 79 76.32 79.72 76.32L84.74 76.32C84.94 76.32 85.78 76.31 87.26 76.29C88.24 76.26 89.04 76.27 89.66 76.32C92.1 76.52 94.47 77.49 96.78 79.22L96.78 79.22Z" />
	<path id="h2shine2" class="shp5" d="M112 41C112 41 138.03 45.07 152 64C165.97 82.93 146.95 81.11 146 79C145.05 76.89 155.3 60.12 112 41Z" />
	<path id="crack" class="shp6 crack" d="M64 61L64 59L65 57L65 55L66 52L66 54L69 56L71 53L75 53L76 55L73 55L70 57C70 57 68.01 60.38 68 61C67.99 61.62 66.22 63.61 65 64C63.78 64.39 64 66 64 66C64 66 62.26 67.21 61 68C59.74 68.79 59.72 69.28 59 70L57 72L57 75C57 75 57.94 76.74 58 78C58.06 79.26 57 80 57 80L57 81L58 82L60 82L63 81L65 80L67 79L69 78L70 77L72 76L71 74L73 73L73 76L71 78L70 80L69 81L65 82L61 85L58 84L54 86L55 88L54 90L52 92.28L51 94L52 97L51 99L50 97L49 96L49 92.28L52 89L52 87L52 84L54 82L56 77C56 77 54.7 74.58 55 72C55.3 69.42 63 63 63 63L64 61Z" />
	<path id="tifshadow" class="shp6 tifshadow" d="M95.75 39.05C103.97 40.09 110.3 43.59 109.88 46.88C109.47 50.17 102.47 51.99 94.25 50.95C86.03 49.91 79.7 46.41 80.12 43.12C80.53 39.83 87.53 38.01 95.75 39.05Z" />
	<path id="tif" class="shp7" d="M115 10C115 10 114.98 10.1 114.95 10.26C114.97 10.34 115 10.42 115 10.5C115 10.69 114.92 10.87 114.79 11.06C113.67 16.79 108.22 44.33 107.29 46C106.47 47.46 102.26 49.07 100.43 49.71L100.43 50C100.43 50 100.26 49.95 100 49.86C99.74 49.95 99.57 50 99.57 50L99.57 49.71C97.74 49.07 93.53 47.46 92.71 46C91.78 44.33 86.33 16.79 85.21 11.06C85.08 10.87 85 10.69 85 10.5C85 10.42 85.03 10.34 85.05 10.26C85.02 10.1 85 10 85 10L85.16 10.01C86.19 8.31 92.43 7 100 7C107.57 7 113.81 8.31 114.84 10.01L115 10Z" />
	<path id="vizor" class="shp8 vizor" d="M36.5 91C36.5 91 68.16 102.66 99.74 102.66C131.16 102.66 162.5 91 162.5 91C164.43 91 166 91.81 166 92.8L158 112.25C158 118.12 127.45 123.9 121.83 123.9C121.83 123.9 122.82 127 99.99 127C76.83 127 76.17 123.9 76.17 123.9C70.55 123.9 40 118.12 40 112.25L33 92.8C33 91.81 34.57 91 36.5 91Z" />
	<path id="vizormodel" class="shp6 vizormodel" d="M37.45 93C37.45 93 70.56 105 100 105C129.29 105 161.55 93 161.55 93C163.46 93 165 93.28 165 93.62L154.54 105.49C154.54 107.29 126.05 109.05 120.82 109.05C120.82 109.05 121.29 112 100 112C78.41 112 78.25 109.05 78.25 109.05C73.01 109.05 44.53 107.29 44.53 105.49L34 93.62C34 93.28 35.54 93 37.45 93Z" />
</svg>