<svg version="1.2" baseProfile="tiny-ps" xmlns="http://www.w3.org/2000/svg" viewBox="0 0 200 148" width="200" height="148">
	<title>deye.svg</title>
	<style>
		tspan { white-space:pre }
		.shp0 { fill: #ffffff } 
		.shp1 { fill: #000000 } 
		.shp2 { opacity: 0;fill: #000000 } 
		.shp3 { opacity: 0.631;fill: #ffffff } 
#eyebrow-thik{transform:scaleY(.7) scaleX(.6) translateX(50px) translateY(-40px);transform-origin:left bottom;}
#eyebrow-thikright{transform:scaleY(.7) scaleX(.6) translateX(80px) translateY(-40px);transform-origin:left bottom;}
	</style>
	<path id="alb1" class="shp0" d="M57 67C57 67 62.42 64.96 68 65C73.58 65.04 77.97 65.99 81 68C84.66 70.43 87 73 87 73C87 73 73.32 76.02 65 74C56.68 71.98 57 67 57 67Z" />
	<path id="alb1r" class="shp0" d="M135 73C126.68 75.02 113 72 113 72C113 72 115.34 69.43 119 67C122.03 64.99 126.42 64.04 132 64C137.58 63.96 143 66 143 66C143 66 143.32 70.98 135 73Z" />
	<path id="irisblack" class="shp1" d="M71.5 65C73.67 65 75.63 64.68 77 65.76C78.24 66.74 79 68.06 79 69.5C79 72.54 75.64 75 71.5 75C67.36 75 64 72.54 64 69.5C64 67.91 64.92 66.47 66.4 65.47C67.74 64.56 69.53 65 71.5 65Z" />
	<path id="irisblackright" class="shp1" d="M133.6 65.47C135.08 66.47 136 67.91 136 69.5C136 72.54 132.64 75 128.5 75C124.36 75 121 72.54 121 69.5C121 68.06 121.76 66.74 123 65.76C124.37 64.68 126.33 65 128.5 65C130.47 65 132.26 64.56 133.6 65.47Z" />
	<path id="eyebrow-thik" class="shp1" d="M36 51C36 51 41.03 47.67 45 45C48.97 42.33 49.11 46.02 53 46C54.73 45.99 61.26 43.65 68.06 43.51C76.5 43.33 85.37 45.48 86 47C87.14 49.74 91.48 58.72 92 59C92.52 59.28 88.99 60.95 87 59C85.01 57.05 76.14 50.91 63 52C57.7 52.44 55.86 56.07 49 56C42.14 55.93 45.64 55.87 36 51Z" />
	<path id="eyebrow-thikright" class="shp1" d="M151 56C144.14 56.07 142.3 52.44 137 52C123.86 50.91 114.99 57.05 113 59C111.01 60.95 107.48 59.28 108 59C108.52 58.72 112.86 49.74 114 47C114.63 45.48 123.5 43.33 131.94 43.51C138.74 43.65 145.27 45.99 147 46C150.89 46.02 151.03 42.33 155 45C158.97 47.67 164 51 164 51C154.36 55.87 157.86 55.93 151 56Z" />
	<path id="eyebrown-thin" class="shp2" d="M88 62C87.75 61.18 86.7 61.55 86.45 60.73C86.2 60.44 85.97 60.15 85.74 59.87C85.03 59.64 84.45 59.11 84.18 58.42C83.92 58.31 83.67 58.16 83.42 57.9C81.97 56.38 77.42 50.47 65 51C59.99 51.21 55.77 54.13 49.29 54.1C42.81 54.06 46.12 54.03 37 51.66C37 51.66 41.75 50.03 45.51 48.73C49.26 47.43 49.39 49.23 53.07 49.22C54.71 49.22 59.88 47.07 66.31 47C71.63 46.95 77.77 48.81 81.38 50.33C81.72 50.13 82.09 50 82.5 50C82.73 50 82.95 50.05 83.16 50.12C83.54 48.88 84.14 47.54 85 46C87.93 51.18 85.85 52.7 87.21 53.1C87.62 54.08 88.71 53.19 89.77 50.32C90.15 52.39 88.45 57.57 90 59C90.92 59.85 88.83 60.63 88 62Z" />
	<path id="eyebrown-thinright" class="shp2" d="M110 59C111.55 57.57 109.85 52.39 110.23 50.32C111.29 53.19 112.38 54.08 112.79 53.1C114.15 52.7 112.07 51.18 115 46C115.86 47.54 116.46 48.88 116.84 50.12C117.05 50.05 117.27 50 117.5 50C117.91 50 118.28 50.13 118.62 50.33C122.23 48.81 128.37 46.95 133.69 47C140.12 47.07 145.29 49.22 146.93 49.22C150.61 49.23 150.74 47.43 154.49 48.73C158.25 50.03 163 51.66 163 51.66C153.88 54.03 157.19 54.06 150.71 54.1C144.23 54.13 140.01 51.21 135 51C122.58 50.47 118.03 56.38 116.58 57.9C116.33 58.16 116.08 58.31 115.82 58.42C115.55 59.11 114.97 59.64 114.26 59.87C114.03 60.15 113.8 60.44 113.55 60.73C113.3 61.55 112.25 61.18 112 62C111.17 60.63 109.08 59.85 110 59Z" />
	<path id="eyebrown-thin2" class="shp2" d="M89.13 54.75C88.71 54 87.77 54.59 87.35 53.83C87.04 53.6 86.76 53.37 86.48 53.14C85.73 53.06 85.06 52.66 84.65 52.04C84.37 52 84.09 51.89 83.8 51.69C82.06 50.51 76.39 45.67 64.35 48.78C59.49 50.03 55.97 53.76 49.62 55.07C43.27 56.39 46.51 55.67 37.09 55.24C37.09 55.24 41.41 52.66 44.81 50.61C48.21 48.56 48.71 50.29 52.31 49.51C53.91 49.17 58.52 46 64.79 44.6C69.99 43.43 76.38 43.98 80.23 44.72C80.52 44.45 80.86 44.24 81.26 44.16C81.48 44.11 81.71 44.11 81.93 44.14C82.04 42.85 82.35 41.41 82.87 39.73C86.81 44.19 85.09 46.1 86.51 46.21C87.11 47.08 87.99 45.99 88.44 42.96C89.24 44.91 88.65 50.33 90.46 51.4C91.54 52.04 89.66 53.24 89.13 54.75Z" />
	<path id="eyebrown-thinright2" class="shp2" d="M109.54 51.4C111.35 50.33 110.76 44.91 111.56 42.96C112.01 45.99 112.89 47.08 113.49 46.21C114.91 46.1 113.19 44.19 117.13 39.73C117.65 41.41 117.96 42.85 118.07 44.14C118.29 44.11 118.52 44.11 118.74 44.16C119.14 44.24 119.48 44.45 119.77 44.72C123.62 43.98 130.01 43.43 135.21 44.6C141.48 46 146.09 49.17 147.69 49.51C151.29 50.29 151.79 48.56 155.19 50.61C158.59 52.66 162.91 55.24 162.91 55.24C153.49 55.67 156.73 56.39 150.38 55.07C144.03 53.76 140.51 50.03 135.65 48.78C123.61 45.67 117.94 50.51 116.2 51.69C115.91 51.89 115.63 52 115.35 52.04C114.94 52.66 114.27 53.06 113.52 53.14C113.24 53.37 112.96 53.6 112.65 53.83C112.23 54.59 111.29 54 110.87 54.75C110.34 53.24 108.46 52.04 109.54 51.4Z" />
	<path id="ochi" class="shp1" d="M47 69C47 69 60.2 63.98 67 64C73.8 64.02 81.23 64.9 85 69C88.77 73.1 89.94 73.71 89.94 75C89.94 76.29 86.97 73.86 86 74C85.03 74.14 82.78 73.65 82 74C81.22 74.35 79.88 73.8 81 73C82.12 72.2 84.37 72.85 83 71C81.63 69.15 79.78 64.99 64 66C59.72 66.27 58.37 67.97 58 69C57.28 70.99 59.67 71.89 62 73C63.24 73.59 66 75 66 75C66 75 58.56 73.52 57 72C54.14 69.22 56 68 56 68C56 68 51.04 69.73 48 71C44.96 72.27 46.72 70.8 47 69Z" />
	<path id="ochiright" class="shp1" d="M152 71C148.96 69.73 144 68 144 68C144 68 145.86 69.22 143 72C141.44 73.52 134 75 134 75C134 75 136.76 73.59 138 73C140.33 71.89 142.72 70.99 142 69C141.63 67.97 140.28 66.27 136 66C120.22 64.99 118.37 69.15 117 71C115.63 72.85 117.88 72.2 119 73C120.12 73.8 118.78 74.35 118 74C117.22 73.65 114.97 74.14 114 74C113.03 73.86 110.06 76.29 110.06 75C110.06 73.71 111.23 73.1 115 69C118.77 64.9 126.2 64.02 133 64C139.8 63.98 153 69 153 69C153.28 70.8 155.04 72.27 152 71Z" />
	<path id="sus" class="shp1" d="M53 67C53 67 60.36 60.54 66 60C71.64 59.46 80.06 61.38 86 66C91.94 70.62 77.71 61.23 71 61C64.29 60.77 55.43 64.37 53 67Z" />
	<path id="susright" class="shp1" d="M129 61C122.29 61.23 108.06 70.62 114 66C119.94 61.38 128.36 59.46 134 60C139.64 60.54 147 67 147 67C144.57 64.37 135.71 60.77 129 61Z" />
	<path id="jos" class="shp1" d="M88 68C88 68 80.64 74.46 75 75C69.36 75.54 60.94 73.62 55 69C49.06 64.38 63.29 73.77 70 74C76.71 74.23 85.57 70.63 88 68Z" />
	<path id="josright" class="shp1" d="M130 74C136.71 73.77 150.94 64.38 145 69C139.06 73.62 130.64 75.54 125 75C119.36 74.46 112 68 112 68C114.43 70.63 123.29 74.23 130 74Z" />
	<path id="alp" class="shp3" d="M76 66C77.1 66 78 66.9 78 68C78 69.1 77.1 70 76 70C74.9 70 74 69.1 74 68C74 66.9 74.9 66 76 66ZM74 69C74.55 69 75 69.45 75 70C75 70.55 74.55 71 74 71C73.45 71 73 70.55 73 70C73 69.45 73.45 69 74 69Z" />
	<path id="alpright" class="shp3" d="M133 66C134.1 66 135 66.9 135 68C135 69.1 134.1 70 133 70C131.9 70 131 69.1 131 68C131 66.9 131.9 66 133 66ZM131 69C131.55 69 132 69.45 132 70C132 70.55 131.55 71 131 71C130.45 71 130 70.55 130 70C130 69.45 130.45 69 131 69Z" />
</svg>