<svg version="1.2" baseProfile="tiny-ps" xmlns="http://www.w3.org/2000/svg" viewBox="0 0 200 148" width="200" height="148">
	<title>ep1</title>
	<style>
		tspan { white-space:pre }
		.shp0 { fill: #ccd1c6 } 
		.shp1 { fill: #000000 } 
		.shp2 { opacity: 0.6;fill: #2b9daa } 
		.shp3 { fill: #49a4a7 } 
		.shp4 { fill: #9ceef8 } 
	</style>
	<path id="r1" class="shp0" d="M155 68C153.94 69.37 142.53 80.89 140 82C137.47 83.11 129 84 129 84L118 82L117 79.66C117 79.66 128.87 68.56 137 65C145.13 61.44 158 63 158 63C158 63 156.06 66.63 155 68ZM71 84C71 84 62.53 83.11 60 82C57.47 80.89 46.06 69.37 45 68C43.94 66.63 42 63 42 63C42 63 54.87 61.44 63 65C71.13 68.56 83 79.66 83 79.66L82 82L71 84Z" />
	<path id="iris" class="shp1" d="M132 80.62C127.79 80.62 124.37 77.21 124.37 73C124.37 68.79 127.79 65.37 132 65.37C136.21 65.37 139.62 68.79 139.62 73C139.62 77.21 136.21 80.62 132 80.62ZM68 80.62C63.79 80.62 60.37 77.21 60.37 73C60.37 68.79 63.79 65.37 68 65.37C72.21 65.37 75.62 68.79 75.62 73C75.62 77.21 72.21 80.62 68 80.62Z" />
	<path id="bluefade" class="shp2" d="M132 79.31C128.51 79.31 125.69 76.49 125.69 73C125.69 69.51 128.51 66.69 132 66.69C135.49 66.69 138.31 69.51 138.31 73C138.31 76.49 135.49 79.31 132 79.31ZM68 79.31C64.51 79.31 61.69 76.49 61.69 73C61.69 69.51 64.51 66.69 68 66.69C71.49 66.69 74.31 69.51 74.31 73C74.31 76.49 71.49 79.31 68 79.31Z" />
	<path id="star" class="shp3" d="M134 73L139 74L134 74L136 75L134 75L136 78L133 75L132 78L132 74L130 79L131 74L129 76L130 74L126 75L130 73L127 72L130 72L130 70L131 72L132 69C132 69 131.61 71.96 132 72C132.39 72.04 133.6 67.46 134 68C134.4 68.54 132.43 71.88 133 71C133.57 70.12 136 68 136 68L133 72L135 70L134 72L138 70L136 72L138 72L134 73ZM70 74L71 76L69 74L70 79L68 74L68 78L67 75L64 78L66 75L64 75L66 74L61 74L66 73L62 72L64 72L62 70L66 72L65 70L67 72L64 68C64 68 66.43 70.12 67 71C67.57 71.88 65.6 68.54 66 68C66.4 67.46 67.61 72.04 68 72C68.39 71.96 68 69 68 69L69 72L70 70L70 72L73 72L70 73L74 75L70 74Z" />
	<path id="nucleu" class="shp4" d="M131 75.41C129.67 75.41 128.59 74.33 128.59 73C128.59 71.67 129.67 70.59 131 70.59C132.33 70.59 133.41 71.67 133.41 73C133.41 74.33 132.33 75.41 131 75.41ZM69 75.41C67.67 75.41 66.59 74.33 66.59 73C66.59 71.67 67.67 70.59 69 70.59C70.33 70.59 71.41 71.67 71.41 73C71.41 74.33 70.33 75.41 69 75.41Z" />
	<path id="framez" class="shp1" d="M168 60.23C168.33 61.35 166.49 60.89 166.59 62.54C165.73 62.83 164.86 63.13 164 63.42C164.47 63.36 164.94 63.3 165.41 63.25C164.84 64.69 160.71 64.86 158.59 65.02C158.43 65.79 158.27 66.55 158.12 67.32C159.29 67.09 160.47 66.85 161.65 66.61C161.65 66.67 161.65 66.73 161.65 66.79C159.2 69.08 156.29 69.32 154.31 72C154.21 72 154.1 72 154 72C154 71.94 153.88 72.7 153.88 72.64C154.02 72.41 154.16 72.2 154.31 72C155.46 72 156.92 72 158 72C158 72.06 157.41 72.94 157.41 73C153.93 75.73 150.24 73.69 147.76 78.14C147.76 78.31 149 77.82 149 78C150.41 77.82 151.59 77.18 153 77C151.89 79.27 146.89 80.98 143 81C143 81.06 141.88 81.45 141.88 81.5C142.34 82.14 142.67 82.58 143.53 82.92C143.69 83.16 143.84 83.4 144 83.63C139.58 82.56 135.64 85.7 131 86C124.85 86.39 121.76 82.91 116 84.52C115.76 85.35 115.53 86.17 115.29 87C115.37 84.7 115.45 82.39 115.53 80.09C114.43 80.97 113.33 81.86 112.24 82.75C112.24 82.86 112.24 82.98 112.24 83.1C112.16 83.1 112.08 83.1 111.96 82.45C113.75 73.71 119.4 72.31 126 68C128.6 66.3 130.34 60.41 131.06 57.04C131.54 54.79 130.36 52.74 131.29 51.01C131.45 50.84 131.61 50.66 131.76 50.48C134.67 52.26 135.04 58 135.76 61.3C139.49 62.51 144.7 54.95 145.88 52.61C146.57 51.26 146.24 48.91 147.53 48C148.51 51.89 147.6 56.84 145.88 59.35C145.96 59.46 146.04 59.58 146.12 59.7C146.35 59.76 146.59 59.82 146.82 59.88C150.22 58.55 154.79 54.05 155.06 50.48C155.22 50.48 155.37 50.48 155.53 50.48C156.58 53.55 155.83 56.37 154.59 58.99C154.59 59.35 154.59 59.7 154.59 60.05C159.83 59.23 161.13 57.41 164.71 55.8C164.78 55.8 164.86 55.8 164.94 55.8C164.79 58.28 162.85 59.24 161.41 60.76C162.75 62.19 165.23 59.64 167.53 60.23C167.69 60.23 169.56 59.49 168 60.23ZM154.35 63.42C149.59 63.87 145.14 63.88 141.41 65.02C133.61 67.41 122.95 75.78 118.59 80.97C118.67 81.09 118.75 81.21 118.82 81.33C138.26 85.4 139.81 82.7 149 73C151.35 70.52 152.94 68.03 155.29 65.55C156.08 64.96 156.86 64.37 157.65 63.78C156.55 63.66 155.45 63.54 154.35 63.42ZM87.76 82.75C86.67 81.86 85.57 80.97 84.47 80.09C84.55 82.39 84.63 84.7 84.71 87C84.47 86.17 84.24 85.35 84 84.52C78.24 82.91 75.09 85.44 68.94 85.05C64.3 84.75 60.42 82.56 56 83.63C56.16 83.4 56.31 83.16 56.47 82.92C57.33 82.58 57.66 82.14 58.12 81.5C58.12 81.45 58.12 81.39 58.12 81.33C54.22 81.31 49.11 80.41 48 78.14C49.41 78.31 50.82 78.49 52.24 78.67C52.24 78.49 52.24 78.31 52.24 78.14C49.76 73.69 46.07 75.73 42.59 73C42.59 72.94 42.59 72.88 42.59 72.82C43.76 72.82 44.94 72.82 46.12 72.82C46.12 72.76 46.12 72.7 46.12 72.64C44.15 69.34 40.98 69.25 38.35 66.79C38.35 66.73 38.35 66.67 38.35 66.61C39.53 66.85 40.71 67.09 41.88 67.32C41.73 66.55 41.57 65.79 41.41 65.02C39.29 64.86 35.16 64.69 34.59 63.25C35.06 63.3 35.53 63.36 36 63.42C35.14 63.13 34.27 62.83 33.41 62.54C33.51 60.89 32.9 61.35 32 60.23C32.16 60.23 32.31 60.23 32.47 60.23C34.77 59.64 37.25 62.19 38.59 60.76C37.15 59.24 35.21 58.28 35.06 55.8C35.14 55.8 35.22 55.8 35.29 55.8C38.87 57.41 40.17 59.23 45.41 60.05C45.41 59.7 45.41 59.35 45.41 58.99C44.17 56.37 43.42 53.55 44.47 50.48C44.63 50.48 44.78 50.48 44.94 50.48C45.21 54.05 49.78 58.55 53.18 59.88C53.41 59.82 53.65 59.76 53.88 59.7C53.96 59.58 54.04 59.46 54.12 59.35C52.4 56.84 51.49 51.89 52.47 48C53.76 48.91 53.43 51.26 54.12 52.61C55.3 54.95 60.51 62.51 64.24 61.3C64.96 58 65.33 52.26 68.24 50.48C68.39 50.66 68.55 50.84 68.71 51.01C69.64 52.74 68.46 54.79 68.94 57.04C69.66 60.41 70.05 63.66 72 66.08C76.5 71.67 86.12 75.93 88 83.1C87.92 83.1 87.84 83.1 87.76 83.1C87.76 82.98 87.76 82.86 87.76 82.75ZM58.59 65.02C54.86 63.88 50.41 63.87 45.65 63.42C44.55 63.54 43.45 63.66 42.35 63.78C43.14 64.37 43.92 64.96 44.71 65.55C47.06 68.03 49.41 70.51 51.76 73C60.95 82.69 61.74 85.4 81.18 81.33C81.25 81.21 81.33 81.09 81.41 80.97C77.05 75.78 66.39 67.41 58.59 65.02Z" />
</svg>