<svg version="1.2" baseProfile="tiny-ps" xmlns="http://www.w3.org/2000/svg" viewBox="0 0 200 148" width="200" height="148">
	<title>ep2</title>
	<style>
		tspan { white-space:pre }
		.shp0 { fill: #ccd1c6 } 
		.shp1 { fill: #111 } 
		.shp2 { opacity: 0.7;fill: #cbf61f } 
		.shp3 { fill: #49a4a7 } 
		.shp4 { fill: #9af668 } 
	</style>
	<path id="r1" class="shp0" d="M149.5 70C148.55 71.37 138.28 82.89 136 84C133.72 85.11 126.1 86 126.1 86L116.2 84L115.3 81.66C115.3 81.66 125.98 70.56 133.3 67C140.62 63.44 152.2 65 152.2 65C152.2 65 150.45 68.63 149.5 70ZM73.9 86C73.9 86 66.28 85.11 64 84C61.72 82.89 51.45 71.37 50.5 70C49.55 68.63 47.8 65 47.8 65C47.8 65 59.38 63.44 66.7 67C74.02 70.56 84.7 81.66 84.7 81.66L83.8 84L73.9 86Z" />
	<path id="iris" class="shp1" d="M128.8 82.62C125.01 82.62 121.94 79.21 121.94 75C121.94 70.79 125.01 67.37 128.8 67.37C132.59 67.37 135.66 70.79 135.66 75C135.66 79.21 132.59 82.62 128.8 82.62ZM71.2 82.62C67.41 82.62 64.34 79.21 64.34 75C64.34 70.79 67.41 67.37 71.2 67.37C74.99 67.37 78.06 70.79 78.06 75C78.06 79.21 74.99 82.62 71.2 82.62Z" />
	<path id="bluefade" class="shp2" d="M128.8 81.31C125.66 81.31 123.12 78.49 123.12 75C123.12 71.51 125.66 68.69 128.8 68.69C131.94 68.69 134.48 71.51 134.48 75C134.48 78.49 131.94 81.31 128.8 81.31ZM71.2 81.31C68.06 81.31 65.52 78.49 65.52 75C65.52 71.51 68.06 68.69 71.2 68.69C74.34 68.69 76.88 71.51 76.88 75C76.88 78.49 74.34 81.31 71.2 81.31Z" />
	<path id="star" class="shp3" d="M130.6 75L135.1 76L130.6 76L132.4 77L130.6 77L132.4 80L129.7 77L128.8 80L128.8 76L127 81L127.9 76L126.1 78L127 76L123.4 77L127 75L124.3 74L127 74L127 72L127.9 74L128.8 71C128.8 71 128.45 73.96 128.8 74C129.15 74.04 130.24 69.46 130.6 70C130.96 70.54 129.19 73.88 129.7 73C130.21 72.12 132.4 70 132.4 70L129.7 74L131.5 72L130.6 74L134.2 72L132.4 74L134.2 74L130.6 75ZM73 76L73.9 78L72.1 76L73 81L71.2 76L71.2 80L70.3 77L67.6 80L69.4 77L67.6 77L69.4 76L64.9 76L69.4 75L65.8 74L67.6 74L65.8 72L69.4 74L68.5 72L70.3 74L67.6 70C67.6 70 69.79 72.12 70.3 73C70.81 73.88 69.04 70.54 69.4 70C69.76 69.46 70.85 74.04 71.2 74C71.55 73.96 71.2 71 71.2 71L72.1 74L73 72L73 74L75.7 74L73 75L76.6 77L73 76Z" />
	<path id="nucleu" class="shp4" d="M127.9 77.41C126.7 77.41 125.73 76.33 125.73 75C125.73 73.67 126.7 72.59 127.9 72.59C129.1 72.59 130.07 73.67 130.07 75C130.07 76.33 129.1 77.41 127.9 77.41ZM72.1 77.41C70.9 77.41 69.93 76.33 69.93 75C69.93 73.67 70.9 72.59 72.1 72.59C73.3 72.59 74.27 73.67 74.27 75C74.27 76.33 73.3 77.41 72.1 77.41Z" />
	<path id="framez" class="shp1" d="M161.2 62.23C161.5 63.35 159.84 62.89 159.93 64.54C159.15 64.83 158.38 65.13 157.6 65.42C158.02 65.36 158.45 65.3 158.87 65.25C158.36 66.69 154.63 66.86 152.73 67.02C152.59 67.79 152.45 68.55 152.31 69.32C153.36 69.09 154.42 68.85 155.48 68.61C155.48 68.67 155.48 68.73 155.48 68.79C153.28 71.08 150.66 71.32 148.88 74C148.79 74 148.69 74 148.6 74C148.6 73.94 148.49 74.7 148.49 74.64C148.62 74.41 148.75 74.2 148.88 74C149.91 74 151.23 74 152.2 74C152.2 74.06 151.67 74.94 151.67 75C148.54 77.73 145.22 75.69 142.99 80.14C142.99 80.31 144.1 79.82 144.1 80C145.37 79.82 146.43 79.18 147.7 79C146.7 81.27 142.2 82.98 138.7 83C138.7 83.06 137.69 83.45 137.69 83.5C138.11 84.14 138.4 84.58 139.18 84.92C139.32 85.16 139.46 85.4 139.6 85.63C135.62 84.56 132.08 87.7 127.9 88C122.37 88.39 119.58 84.91 114.4 86.52C114.19 87.35 113.98 88.17 113.76 89C113.84 86.7 113.91 84.39 113.98 82.09C112.99 82.97 112 83.86 111.01 84.75C111.01 84.86 111.01 84.98 111.01 85.1C110.94 85.1 110.87 85.1 110.77 84.45C112.37 75.71 117.46 74.31 123.4 70C125.74 68.3 127.31 62.41 127.95 59.04C128.38 56.79 127.32 54.74 128.16 53.01C128.31 52.84 128.45 52.66 128.59 52.48C131.2 54.26 131.54 60 132.19 63.3C135.54 64.51 140.23 56.95 141.29 54.61C141.91 53.26 141.61 50.91 142.78 50C143.66 53.89 142.84 58.84 141.29 61.35C141.36 61.46 141.44 61.58 141.51 61.7C141.72 61.76 141.93 61.82 142.14 61.88C145.19 60.55 149.31 56.05 149.55 52.48C149.69 52.48 149.84 52.48 149.98 52.48C150.93 55.55 150.25 58.37 149.13 60.99C149.13 61.35 149.13 61.7 149.13 62.05C153.85 61.23 155.01 59.41 158.24 57.8C158.31 57.8 158.38 57.8 158.45 57.8C158.31 60.28 156.57 61.24 155.27 62.76C156.47 64.19 158.71 61.64 160.78 62.23C160.92 62.23 162.61 61.49 161.2 62.23ZM148.92 65.42C144.63 65.87 140.62 65.88 137.27 67.02C130.24 69.41 120.65 77.78 116.73 82.97C116.8 83.09 116.87 83.21 116.94 83.33C134.43 87.4 135.83 84.7 144.1 75C146.22 72.52 147.65 70.03 149.76 67.55C150.47 66.96 151.18 66.37 151.88 65.78C150.89 65.66 149.91 65.54 148.92 65.42ZM88.99 84.75C88 83.86 87.01 82.97 86.02 82.09C86.09 84.39 86.16 86.7 86.24 89C86.02 88.17 85.81 87.35 85.6 86.52C80.42 84.91 77.58 87.44 72.05 87.05C67.87 86.75 64.38 84.56 60.4 85.63C60.54 85.4 60.68 85.16 60.82 84.92C61.6 84.58 61.89 84.14 62.31 83.5C62.31 83.45 62.31 83.39 62.31 83.33C58.8 83.31 54.2 82.41 53.2 80.14C54.47 80.31 55.74 80.49 57.01 80.67C57.01 80.49 57.01 80.31 57.01 80.14C54.78 75.69 51.46 77.73 48.33 75C48.33 74.94 48.33 74.88 48.33 74.82C49.39 74.82 50.45 74.82 51.51 74.82C51.51 74.76 51.51 74.7 51.51 74.64C49.74 71.34 46.89 71.25 44.52 68.79C44.52 68.73 44.52 68.67 44.52 68.61C45.58 68.85 46.64 69.09 47.69 69.32C47.55 68.55 47.41 67.79 47.27 67.02C45.37 66.86 41.64 66.69 41.13 65.25C41.55 65.3 41.98 65.36 42.4 65.42C41.62 65.13 40.85 64.83 40.07 64.54C40.16 62.89 39.61 63.35 38.8 62.23C38.94 62.23 39.08 62.23 39.22 62.23C41.29 61.64 43.53 64.19 44.73 62.76C43.43 61.24 41.69 60.28 41.55 57.8C41.62 57.8 41.69 57.8 41.76 57.8C44.99 59.41 46.15 61.23 50.87 62.05C50.87 61.7 50.87 61.35 50.87 60.99C49.75 58.37 49.07 55.55 50.02 52.48C50.16 52.48 50.31 52.48 50.45 52.48C50.69 56.05 54.81 60.55 57.86 61.88C58.07 61.82 58.28 61.76 58.49 61.7C58.56 61.58 58.64 61.46 58.71 61.35C57.16 58.84 56.34 53.89 57.22 50C58.39 50.91 58.09 53.26 58.71 54.61C59.77 56.95 64.46 64.51 67.81 63.3C68.46 60 68.8 54.26 71.41 52.48C71.55 52.66 71.69 52.84 71.84 53.01C72.68 54.74 71.62 56.79 72.05 59.04C72.69 62.41 73.05 65.66 74.8 68.08C78.85 73.67 87.51 77.93 89.2 85.1C89.13 85.1 89.06 85.1 88.99 85.1C88.99 84.98 88.99 84.86 88.99 84.75ZM62.73 67.02C59.38 65.88 55.37 65.87 51.08 65.42C50.09 65.54 49.11 65.66 48.12 65.78C48.82 66.37 49.53 66.96 50.24 67.55C52.35 70.03 54.47 72.51 56.59 75C64.86 84.69 65.57 87.4 83.06 83.33C83.13 83.21 83.2 83.09 83.27 82.97C79.35 77.78 69.76 69.41 62.73 67.02Z" />
</svg>