<svg version="1.2" baseProfile="tiny-ps" xmlns="http://www.w3.org/2000/svg" viewBox="0 0 200 148" width="200" height="148">
	<title>ep3</title>
	<style>
		tspan { white-space:pre }
		.shp0 { fill: #e2e2e2 } 
		.shp1 { fill: #000000 } 
		.shp2 { opacity: 0.4;fill: #f8138f } 
		.shp3 { fill: #49a4a7 } 
		.shp4 { opacity: 0.651;fill: #fb8bc8 } 
	</style>
	<path id="r1" class="shp0" d="M148.16 70.08C146.99 71.22 134.99 80.32 132.58 80.92C130.17 81.52 122.57 80.79 122.57 80.79L113.23 76.75L112.75 74.28C112.75 74.28 125.08 65.67 132.84 63.73C140.6 61.79 151.65 65.76 151.65 65.76C151.65 65.76 149.33 68.94 148.16 70.08ZM76.31 80.39C76.31 80.39 68.74 81.42 66.31 80.91C63.88 80.41 51.6 71.79 50.39 70.7C49.19 69.61 46.77 66.52 46.77 66.52C46.77 66.52 57.68 62.12 65.5 63.75C73.31 65.38 85.91 73.49 85.91 73.49L85.51 75.98L76.31 80.39Z" />
	<path id="iris" class="shp1" d="M126.67 78.14C122.97 77.34 120.55 73.36 121.27 69.24C121.99 65.13 125.57 62.44 129.27 63.24C132.98 64.03 135.4 68.02 134.68 72.13C133.96 76.25 130.38 78.94 126.67 78.14ZM73.32 77.32C69.71 78.52 65.9 76.23 64.82 72.21C63.74 68.2 65.8 63.97 69.42 62.77C73.03 61.57 76.83 63.86 77.91 67.87C78.99 71.89 76.94 76.12 73.32 77.32Z" />
	<path id="bluefade" class="shp2" d="M126.9 76.86C123.83 76.2 121.83 72.9 122.42 69.49C123.02 66.09 125.98 63.86 129.05 64.52C132.11 65.18 134.12 68.48 133.52 71.89C132.93 75.29 129.96 77.52 126.9 76.86ZM72.98 76.07C69.99 77.06 66.84 75.17 65.95 71.84C65.06 68.51 66.76 65.01 69.75 64.02C72.74 63.03 75.89 64.92 76.79 68.25C77.68 71.57 75.98 75.07 72.98 76.07Z" />
	<path id="star" class="shp3" d="M129.73 71.07L133.96 72.99L129.56 72.05L131.15 73.4L129.39 73.02L130.64 76.33L128.51 72.83L127.12 75.58L127.8 71.67L125.19 76.17L126.92 71.48L124.82 73.05L126.04 71.29L122.36 71.51L126.21 70.31L123.75 68.76L126.38 69.33L126.73 67.38L127.26 69.52L128.65 66.78C128.65 66.78 127.8 69.6 128.14 69.71C128.48 69.83 130.33 65.58 130.58 66.18C130.84 66.79 128.54 69.67 129.19 68.92C129.85 68.17 132.34 66.56 132.34 66.56L129.02 69.9L131.12 68.33L129.9 70.09L133.76 68.89L131.66 70.47L133.42 70.85L129.73 71.07ZM73.34 70.43L74.71 72.05L72.48 70.71L74.62 75.2L71.62 71L72.65 74.81L71.02 72.24L69.21 75.95L70.16 72.52L68.45 73.09L69.91 71.57L65.62 72.99L69.65 70.61L65.96 70.8L67.68 70.23L65.45 68.89L69.4 69.66L68.02 68.04L70.25 69.37L66.65 66.41C66.65 66.41 69.28 67.74 70 68.42C70.71 69.1 68.17 66.47 68.37 65.84C68.57 65.21 70.78 69.24 71.11 69.09C71.44 68.94 70.34 66.23 70.34 66.23L71.97 68.8L72.32 66.61L72.83 68.52L75.4 67.67L73.08 69.47L77.03 70.24L73.34 70.43Z" />
	<path id="nucleu" class="shp4" d="M132.26 70.37C131.09 70.12 130.33 68.87 130.56 67.57C130.78 66.27 131.92 65.42 133.08 65.67C134.25 65.92 135.02 67.18 134.79 68.48C134.56 69.78 133.43 70.63 132.26 70.37ZM75.51 71.71C74.37 72.09 73.17 71.37 72.83 70.1C72.49 68.83 73.14 67.5 74.28 67.12C75.42 66.74 76.62 67.46 76.96 68.73C77.3 70 76.65 71.33 75.51 71.71Z" />
	<path id="framez" class="shp1" d="M160.4 64.63C160.5 65.79 158.96 64.99 158.76 66.61C157.95 66.74 157.14 66.86 156.33 66.98C156.76 67.02 157.18 67.05 157.6 67.08C156.85 68.38 153.19 67.76 151.3 67.5C151.03 68.22 150.76 68.94 150.49 69.67C151.56 69.66 152.64 69.65 153.71 69.65C153.7 69.71 153.69 69.76 153.68 69.82C151.14 71.59 148.53 71.27 146.34 73.5C146.25 73.48 146.15 73.46 146.06 73.44C146.07 73.39 145.84 74.11 145.85 74.05C146.01 73.85 146.17 73.67 146.34 73.5C147.34 73.72 148.63 74 149.58 74.21C149.57 74.27 148.9 75.01 148.89 75.07C145.36 77.07 142.47 74.37 139.52 78.24C139.49 78.42 140.66 78.17 140.63 78.35C141.9 78.44 143.05 78.04 144.32 78.14C142.95 80.14 138.27 80.85 134.84 80.13C134.83 80.18 133.78 80.35 133.77 80.4C134.07 81.11 134.28 81.6 134.97 82.11C135.07 82.37 135.17 82.63 135.26 82.89C131.57 81 127.56 83.31 123.43 82.71C117.96 81.91 115.84 77.92 110.5 78.38C110.15 79.15 109.8 79.91 109.45 80.67C109.92 78.44 110.38 76.2 110.85 73.96C109.73 74.62 108.61 75.27 107.5 75.93C107.48 76.05 107.46 76.16 107.44 76.28C107.37 76.26 107.3 76.25 107.31 75.59C110.39 67.39 115.6 67.11 122.14 64.17C124.72 63.01 127.27 57.58 128.48 54.43C129.29 52.32 128.61 50.09 129.73 48.59C129.89 48.44 130.06 48.3 130.23 48.16C132.48 50.46 131.82 56.13 131.88 59.49C134.94 61.39 140.83 55 142.27 52.94C143.11 51.76 143.22 49.4 144.52 48.76C144.71 52.75 143.06 57.41 141.11 59.52C141.16 59.66 141.21 59.79 141.26 59.92C141.45 60.02 141.65 60.12 141.85 60.23C145.06 59.58 149.85 56.06 150.71 52.63C150.84 52.66 150.98 52.69 151.12 52.72C151.52 55.92 150.37 58.53 148.82 60.85C148.76 61.19 148.7 61.54 148.64 61.89C153.4 62.08 154.84 60.56 158.27 59.67C158.34 59.69 158.41 59.7 158.48 59.72C157.91 62.11 156.04 62.68 154.52 63.89C155.44 65.54 158.07 63.52 159.99 64.54C160.12 64.57 161.9 64.21 160.4 64.63ZM147.85 65.13C143.59 64.65 139.67 63.81 136.2 64.21C128.93 65.04 118.11 71.18 113.39 75.42C113.44 75.55 113.48 75.68 113.53 75.81C129.91 83.52 131.75 81.17 141.49 73.46C143.99 71.49 145.82 69.36 148.31 67.39C149.1 66.96 149.9 66.54 150.69 66.11C149.74 65.79 148.8 65.46 147.85 65.13ZM91.38 74.32C90.23 73.74 89.08 73.15 87.93 72.57C88.51 74.77 89.09 76.97 89.67 79.18C89.28 78.44 88.89 77.7 88.5 76.96C83.15 76.83 80.97 80.04 75.55 81.18C71.45 82.03 67.6 80.88 64 82.99C64.09 82.72 64.17 82.46 64.26 82.19C64.92 81.65 65.11 81.14 65.37 80.42C65.36 80.36 65.34 80.3 65.33 80.25C61.95 81.19 57.31 81.58 55.84 79.66C57.11 79.48 58.37 79.31 59.64 79.13C59.6 78.96 59.56 78.79 59.52 78.62C56.39 74.94 53.63 77.81 50.01 76.03C49.99 75.97 49.98 75.92 49.97 75.86C50.99 75.57 52.01 75.28 53.03 74.99C53.02 74.93 53.01 74.88 52.99 74.82C50.56 72.12 47.79 72.81 44.96 71.09C44.95 71.03 44.93 70.97 44.92 70.92C45.99 70.85 47.07 70.79 48.14 70.73C47.83 70.03 47.53 69.33 47.22 68.62C45.35 69 41.72 69.85 40.91 68.59C41.33 68.53 41.75 68.48 42.17 68.42C41.36 68.34 40.54 68.27 39.73 68.2C39.45 66.59 39.02 67.18 37.99 66.32C38.13 66.28 38.26 66.25 38.4 66.21C40.26 65.07 42.98 66.92 43.83 65.21C42.24 64.1 40.35 63.65 39.67 61.29C39.73 61.28 39.8 61.26 39.87 61.24C43.33 61.91 44.86 63.34 49.59 62.85C49.52 62.51 49.44 62.17 49.36 61.83C47.7 59.61 46.42 57.07 46.66 53.85C46.79 53.81 46.93 53.77 47.07 53.73C48.09 57.11 53.06 60.32 56.29 60.77C56.49 60.66 56.68 60.54 56.87 60.43C56.91 60.29 56.95 60.16 56.99 60.03C54.94 58.04 53.06 53.48 53.05 49.49C54.38 50.05 54.61 52.39 55.5 53.53C57.05 55.49 63.24 61.51 66.21 59.42C66.1 56.06 65.16 50.44 67.29 48C67.46 48.13 67.64 48.27 67.81 48.4C69.01 49.84 68.44 52.1 69.35 54.16C70.71 57.23 71.78 60.27 74.01 62.12C79.15 66.41 88.45 68.15 91.66 74.61C91.59 74.62 91.53 74.64 91.46 74.66C91.43 74.55 91.4 74.44 91.38 74.32ZM62.13 64.4C58.64 64.22 54.78 65.3 50.54 66.04C49.62 66.43 48.69 66.81 47.76 67.2C48.57 67.57 49.39 67.95 50.2 68.33C52.79 70.14 55.38 71.96 57.97 73.77C68.09 80.87 69.38 83.29 85.35 74.57C85.39 74.44 85.43 74.31 85.47 74.17C80.54 70.23 69.43 64.78 62.13 64.4Z" />
</svg>