<svg version="1.2" baseProfile="tiny-ps" xmlns="http://www.w3.org/2000/svg" viewBox="0 0 200 148" width="200" height="148">
	<title>ep4</title>
	<style>
		tspan { white-space:pre }
		.shp0 { fill: #e2e2e2 } 
		.shp1 { fill: #000000 } 
		.shp2 { opacity: 0.231;fill: #2b9daa } 
		.shp3 { fill: #49a4a7 } 
		.shp4 { opacity: 0.651;fill: #9ceef8 } 
	</style>
	<path id="r1" class="shp0" d="M153.7 70.02C152.4 71.16 139.04 80.31 136.35 80.91C133.66 81.51 125.19 80.78 125.19 80.78L114.8 76.72L114.26 74.24C114.26 74.24 128 65.6 136.64 63.65C145.28 61.7 157.58 65.68 157.58 65.68C157.58 65.68 155 68.88 153.7 70.02ZM73.67 80.38C73.67 80.38 65.24 81.41 62.53 80.91C59.82 80.4 46.14 71.74 44.8 70.64C43.47 69.55 40.77 66.45 40.77 66.45C40.77 66.45 52.93 62.03 61.63 63.67C70.33 65.31 84.37 73.45 84.37 73.45L83.92 75.95L73.67 80.38Z" />
	<path id="iris" class="shp1" d="M129.77 78.12C125.64 77.32 122.95 73.32 123.74 69.18C124.54 65.05 128.54 62.35 132.66 63.15C136.79 63.95 139.48 67.95 138.68 72.09C137.88 76.22 133.89 78.92 129.77 78.12ZM70.34 77.29C66.31 78.5 62.08 76.2 60.88 72.17C59.67 68.13 61.96 63.88 65.99 62.68C70.02 61.47 74.25 63.77 75.46 67.81C76.66 71.84 74.37 76.09 70.34 77.29Z" />
	<path id="bluefade" class="shp2" d="M130.01 76.83C126.6 76.17 124.37 72.86 125.03 69.43C125.69 66.01 129 63.77 132.41 64.44C135.83 65.1 138.06 68.41 137.4 71.84C136.73 75.26 133.43 77.49 130.01 76.83ZM69.97 76.03C66.63 77.03 63.13 75.13 62.13 71.79C61.14 68.45 63.03 64.93 66.37 63.94C69.7 62.94 73.21 64.84 74.2 68.18C75.2 71.52 73.3 75.04 69.97 76.03Z" />
	<path id="star" class="shp3" d="M133.17 71.01L137.88 72.95L132.98 72L134.75 73.36L132.79 72.98L134.18 76.3L131.81 72.79L130.26 75.54L131.02 71.62L128.11 76.14L130.04 71.43L127.71 73.01L129.06 71.24L124.96 71.46L129.25 70.25L126.51 68.7L129.44 69.27L129.82 67.31L130.42 69.46L131.97 66.71C131.97 66.71 131.03 69.54 131.4 69.65C131.78 69.77 133.84 65.5 134.12 66.11C134.41 66.71 131.85 69.62 132.57 68.86C133.3 68.11 136.08 66.49 136.08 66.49L132.38 69.84L134.72 68.26L133.36 70.03L137.66 68.83L135.32 70.41L137.28 70.79L133.17 71.01ZM70.36 70.37L71.89 72L69.41 70.66L71.79 75.16L68.45 70.94L69.59 74.78L67.78 72.19L65.77 75.92L66.82 72.47L64.91 73.05L66.54 71.52L61.76 72.95L66.25 70.56L62.14 70.74L64.06 70.17L61.57 68.83L65.97 69.6L64.44 67.97L66.92 69.31L62.92 66.34C62.92 66.34 65.84 67.68 66.64 68.36C67.44 69.03 64.6 66.4 64.83 65.77C65.05 65.13 67.52 69.18 67.88 69.03C68.24 68.87 67.02 66.15 67.02 66.15L68.84 68.74L69.22 66.54L69.79 68.46L72.66 67.6L70.08 69.41L74.47 70.19L70.36 70.37Z" />
	<path id="nucleu" class="shp4" d="M135.99 70.32C134.69 70.07 133.84 68.8 134.09 67.5C134.34 66.19 135.6 65.34 136.91 65.59C138.21 65.85 139.06 67.11 138.81 68.41C138.55 69.72 137.29 70.57 135.99 70.32ZM72.78 71.66C71.51 72.04 70.17 71.32 69.79 70.04C69.42 68.77 70.14 67.43 71.41 67.05C72.68 66.67 74.02 67.39 74.4 68.67C74.77 69.94 74.05 71.28 72.78 71.66Z" />
	<path id="framez" class="shp1" d="M167.33 64.55C167.44 65.71 165.72 64.91 165.51 66.54C164.6 66.66 163.7 66.79 162.8 66.91C163.27 66.94 163.75 66.98 164.22 67.01C163.38 68.32 159.3 67.69 157.2 67.43C156.89 68.16 156.59 68.88 156.29 69.61C157.49 69.6 158.69 69.6 159.88 69.59C159.87 69.65 159.86 69.71 159.85 69.76C157.01 71.54 154.12 71.22 151.67 73.46C151.57 73.44 151.46 73.42 151.36 73.4C151.37 73.34 151.11 74.07 151.12 74.01C151.3 73.81 151.48 73.63 151.67 73.46C152.79 73.68 154.22 73.96 155.28 74.17C155.27 74.23 154.52 74.98 154.51 75.04C150.58 77.05 147.36 74.33 144.08 78.22C144.04 78.4 145.35 78.15 145.31 78.33C146.73 78.42 148.01 78.02 149.42 78.12C147.9 80.13 142.68 80.84 138.86 80.11C138.85 80.17 137.68 80.34 137.67 80.39C138 81.1 138.24 81.6 139.01 82.1C139.12 82.36 139.23 82.63 139.34 82.89C135.22 80.99 130.76 83.31 126.15 82.71C120.06 81.91 117.7 77.9 111.75 78.36C111.36 79.13 110.97 79.9 110.58 80.66C111.1 78.42 111.62 76.17 112.14 73.92C110.9 74.58 109.65 75.24 108.41 75.9C108.38 76.01 108.36 76.13 108.34 76.25C108.26 76.23 108.19 76.22 108.2 75.55C111.63 67.32 117.43 67.03 124.72 64.08C127.59 62.92 130.43 57.47 131.78 54.3C132.68 52.18 131.92 49.95 133.17 48.43C133.35 48.29 133.54 48.15 133.73 48C136.23 50.31 135.5 56.01 135.57 59.38C138.98 61.29 145.53 54.88 147.14 52.81C148.07 51.62 148.2 49.25 149.64 48.6C149.85 52.61 148.01 57.3 145.85 59.42C145.9 59.55 145.96 59.68 146.01 59.81C146.23 59.92 146.45 60.02 146.67 60.12C150.24 59.47 155.58 55.94 156.54 52.49C156.69 52.52 156.84 52.55 157 52.58C157.44 55.8 156.16 58.42 154.44 60.75C154.37 61.1 154.3 61.45 154.23 61.79C159.53 61.99 161.14 60.46 164.96 59.57C165.03 59.58 165.11 59.6 165.19 59.61C164.56 62.02 162.48 62.59 160.78 63.8C161.81 65.46 164.73 63.43 166.87 64.46C167.02 64.49 169 64.13 167.33 64.55ZM153.36 65.05C148.6 64.57 144.25 63.72 140.38 64.13C132.28 64.96 120.23 71.12 114.97 75.38C115.02 75.51 115.08 75.65 115.13 75.78C133.38 83.52 135.42 81.17 146.27 73.42C149.05 71.44 151.09 69.3 153.87 67.32C154.75 66.89 155.63 66.46 156.51 66.04C155.46 65.71 154.41 65.38 153.36 65.05ZM90.45 74.28C89.17 73.7 87.89 73.11 86.61 72.52C87.26 74.73 87.9 76.95 88.55 79.16C88.11 78.42 87.68 77.67 87.25 76.93C81.29 76.8 78.87 80.03 72.82 81.17C68.26 82.03 63.97 80.87 59.96 82.99C60.06 82.72 60.15 82.46 60.24 82.19C60.99 81.64 61.2 81.13 61.49 80.41C61.47 80.35 61.46 80.29 61.44 80.23C57.67 81.18 52.5 81.57 50.87 79.64C52.28 79.47 53.69 79.29 55.1 79.11C55.06 78.94 55.01 78.77 54.97 78.6C51.48 74.9 48.41 77.79 44.37 76C44.36 75.94 44.35 75.88 44.33 75.83C45.47 75.54 46.61 75.25 47.74 74.96C47.73 74.9 47.71 74.84 47.7 74.78C44.99 72.08 41.9 72.77 38.75 71.03C38.74 70.98 38.72 70.92 38.71 70.86C39.9 70.8 41.1 70.74 42.29 70.68C41.95 69.97 41.61 69.27 41.27 68.56C39.19 68.93 35.14 69.79 34.24 68.53C34.71 68.47 35.18 68.41 35.65 68.35C34.74 68.28 33.83 68.21 32.92 68.13C32.62 66.52 32.13 67.11 30.99 66.25C31.14 66.21 31.29 66.17 31.45 66.13C33.52 64.99 36.55 66.85 37.49 65.14C35.73 64.02 33.61 63.57 32.86 61.2C32.93 61.18 33.01 61.16 33.08 61.14C36.94 61.81 38.64 63.26 43.91 62.76C43.83 62.42 43.74 62.07 43.65 61.73C41.81 59.5 40.38 56.95 40.64 53.72C40.8 53.68 40.95 53.64 41.1 53.6C42.24 56.99 47.77 60.22 51.38 60.67C51.59 60.56 51.8 60.44 52.02 60.33C52.06 60.19 52.11 60.06 52.16 59.92C49.87 57.92 47.78 53.35 47.77 49.34C49.24 49.9 49.5 52.26 50.49 53.4C52.22 55.37 59.12 61.41 62.42 59.31C62.3 55.94 61.25 50.29 63.62 47.85C63.81 47.98 64.01 48.11 64.2 48.24C65.54 49.69 64.9 51.96 65.92 54.03C67.44 57.11 68.62 60.17 71.1 62.03C76.83 66.33 87.19 68.09 90.77 74.57C90.69 74.59 90.62 74.61 90.54 74.63C90.51 74.51 90.48 74.4 90.45 74.28ZM57.88 64.32C53.99 64.13 49.69 65.22 44.97 65.97C43.94 66.35 42.91 66.74 41.87 67.13C42.78 67.5 43.68 67.88 44.59 68.26C47.47 70.08 50.36 71.91 53.25 73.73C64.52 80.86 65.95 83.29 83.74 74.54C83.78 74.4 83.83 74.27 83.88 74.13C78.38 70.18 66.01 64.7 57.88 64.32Z" />
</svg>