<svg version="1.2" baseProfile="tiny-ps" xmlns="http://www.w3.org/2000/svg" viewBox="0 0 200 148" width="200" height="148">
	<title>ep5</title>
	<style>
		tspan { white-space:pre }
		.shp0 { fill: #78d838 } 
		.shp1 { fill: #000000 } 
		.shp2 { fill: #78d838 } 
		.shp3 { fill: #000000 } 
	</style>
	<path id="gi" class="shp0" d="M70 67C73.31 67 76 69.46 76 72.5C76 75.54 73.31 78 70 78C66.69 78 64 75.54 64 72.5C64 69.46 66.69 67 70 67Z" />
	<path id="sn" class="shp1" d="M94 70C94 70 88.77 74.1 87 74C85.23 73.9 66.48 60.43 61 61C55.52 61.57 45.34 66.93 43 67C40.66 67.07 61.88 58.29 61 58C60.12 57.71 57.78 51.85 62 55C66.22 58.15 87.86 70.04 89 69C90.14 67.96 93.4 68.19 94 68C94.6 67.81 94 70 94 70Z" />
	<path id="e1" class="shp1" d="M49 66C49 66 67.01 62.19 73 65C78.99 67.81 87.58 76.08 87 77C84.75 80.58 66.26 82.37 64 81C61.06 79.22 66.58 80.29 72.41 79.77C77.56 79.3 82.96 77.15 83 77C83.31 75.88 82.45 73.32 80 73C77.55 72.68 78.94 69 49 66Z" />
	<path id="gi2" class="shp2" d="M131 67C134.31 67 137 69.46 137 72.5C137 75.54 134.31 78 131 78C127.69 78 125 75.54 125 72.5C125 69.46 127.69 67 131 67Z" />
	<path id="sn2" class="shp3" d="M107 68C107.6 68.19 110.86 67.96 112 69C113.14 70.04 134.78 58.15 139 55C143.22 51.85 140.88 57.71 140 58C139.12 58.29 160.34 67.07 158 67C155.66 66.93 145.48 61.57 140 61C134.52 60.43 115.77 73.9 114 74C112.23 74.1 107 70 107 70C107 70 106.4 67.81 107 68Z" />
	<path id="e12" class="shp3" d="M121 73C118.55 73.32 117.69 75.88 118 77C118.04 77.15 123.44 79.3 128.59 79.77C134.42 80.29 139.94 79.22 137 81C134.74 82.37 116.25 80.58 114 77C113.42 76.08 122.01 67.81 128 65C133.99 62.19 152 66 152 66C122.06 69 123.45 72.68 121 73Z" />
</svg>