<svg version="1.2" baseProfile="tiny-ps" xmlns="http://www.w3.org/2000/svg" viewBox="0 0 200 148" width="200" height="148">
	<title>ey1</title>
	<defs>
		<linearGradient id="grd1" gradientUnits="userSpaceOnUse"  x1="61.5" y1="58" x2="61.5" y2="70">
			<stop offset="0.62" stop-color="#fff" stop-opacity="0.6" />
			<stop offset="7.62" stop-color="#fff" stop-opacity="0.3" />
			<stop offset="8.62" stop-color="#fff" stop-opacity="1" />
			<stop offset="9.33" stop-color="#fff" stop-opacity="0.2" />
			<stop offset="100%" stop-color="#000" stop-opacity="0" />
		</linearGradient>
		<linearGradient id="grd2" gradientUnits="userSpaceOnUse"  x1="130.5" y1="58" x2="130.5" y2="70">
			<stop offset="0.62" stop-color="#fff" stop-opacity="0.6" />
			<stop offset="7.62" stop-color="#fff" stop-opacity="0.3" />
			<stop offset="8.62" stop-color="#fff" stop-opacity="1" />
			<stop offset="9.33" stop-color="#fff" stop-opacity="0.2" />
			<stop offset="100%" stop-color="#000" stop-opacity="0" />
		</linearGradient>
		<linearGradient id="grd3" gradientUnits="userSpaceOnUse"  x1="130.5" y1="58" x2="130.5" y2="70">
			<stop offset="0.62" stop-color="#fff" stop-opacity="0.6" />
			<stop offset="7.62" stop-color="#fff" stop-opacity="0.3" />
			<stop offset="8.62" stop-color="#fff" stop-opacity="1" />
			<stop offset="9.33" stop-color="#fff" stop-opacity="0.2" />
			<stop offset="100%" stop-color="#000" stop-opacity="0" />
		</linearGradient>
	</defs>
	<style>
		tspan { white-space:pre }
		.shp0 { fill: #000000 } 
		.shp1 { opacity: 0.55;fill: url(#grd3)} 
		.shp2 { fill: url(#grd1) } 
		.shp3 { fill: url(#grd2) } 
	</style>
	<path id="lblak" class="shp0" d="M65.5 55C72.96 55 79 61.04 79 68.5C79 75.96 72.96 82 65.5 82C58.04 82 52 75.96 52 68.5C52 61.04 58.04 55 65.5 55Z" />
	<path id="lwhite" class="shp1" d="M65.5 61.32C70.57 61.32 74.68 65.43 74.68 70.5C74.68 75.57 70.57 79.68 65.5 79.68C60.43 79.68 56.32 75.57 56.32 70.5C56.32 65.43 60.43 61.32 65.5 61.32Z" />
	<path id="llight" class="shp2" d="M61.5 58C65.09 58 68 60.69 68 64C68 67.31 65.09 70 61.5 70C57.91 70 55 67.31 55 64C55 60.69 57.91 58 61.5 58Z" />
	<path id="rblak" class="shp0" d="M134.5 55C141.96 55 148 61.04 148 68.5C148 75.96 141.96 82 134.5 82C127.04 82 121 75.96 121 68.5C121 61.04 127.04 55 134.5 55Z" />
	<path id="rwhite" class="shp1" d="M134.5 61.32C139.57 61.32 143.68 65.43 143.68 70.5C143.68 75.57 139.57 79.68 134.5 79.68C129.43 79.68 125.32 75.57 125.32 70.5C125.32 65.43 129.43 61.32 134.5 61.32Z" />
	<path id="right" class="shp3" d="M130.5 58C134.09 58 137 60.69 137 64C137 67.31 134.09 70 130.5 70C126.91 70 124 67.31 124 64C124 60.69 126.91 58 130.5 58Z" />
</svg>