<svg version="1.2" baseProfile="tiny-ps" xmlns="http://www.w3.org/2000/svg" viewBox="0 0 200 148" width="200" height="148">
	<title>ey2</title>
	<defs>
		<linearGradient id="grd1" gradientUnits="userSpaceOnUse"  x1="61.5" y1="58" x2="61.5" y2="70">
			<stop offset="0.62" stop-color="#5e5e5e" stop-opacity="0.6" />
		</linearGradient>
		<linearGradient id="grd2" gradientUnits="userSpaceOnUse"  x1="130.5" y1="58" x2="130.5" y2="70">
			<stop offset="0.62" stop-color="#5e5e5e" stop-opacity="0.6" />
		</linearGradient>
	</defs>
	<style>
		tspan { white-space:pre }
		.shp0 { fill: #000000 } 
		.shp1 { fill: url(#grd1) } 
		.shp2 { fill: url(#grd2) } 
	</style>
	<path id="lblak" class="shp0" d="M65.5 55C72.96 55 79 61.04 79 68.5C79 75.96 72.96 82 65.5 82C58.04 82 52 75.96 52 68.5C52 61.04 58.04 55 65.5 55Z" />
	<path id="llight" class="shp1" d="M61.5 58C65.09 58 68 60.69 68 64C68 67.31 65.09 70 61.5 70C57.91 70 55 67.31 55 64C55 60.69 57.91 58 61.5 58Z" />
	<path id="rblak" class="shp0" d="M134.5 55C141.96 55 148 61.04 148 68.5C148 75.96 141.96 82 134.5 82C127.04 82 121 75.96 121 68.5C121 61.04 127.04 55 134.5 55Z" />
	<path id="right" class="shp2" d="M130.5 58C134.09 58 137 60.69 137 64C137 67.31 134.09 70 130.5 70C126.91 70 124 67.31 124 64C124 60.69 126.91 58 130.5 58Z" />
</svg>