<svg version="1.2" baseProfile="tiny-ps" xmlns="http://www.w3.org/2000/svg" viewBox="0 0 200 148" width="200" height="148">
	<title>ey3</title>
	<defs>
		<linearGradient id="grd1" gradientUnits="userSpaceOnUse"  x1="61.5" y1="61.889" x2="61.5" y2="69.444">
			<stop offset="0.62" stop-color="#5e5e5e" stop-opacity="0.6" />
		</linearGradient>
		<linearGradient id="grd2" gradientUnits="userSpaceOnUse"  x1="130.5" y1="61.889" x2="130.5" y2="69.444">
			<stop offset="0.62" stop-color="#5e5e5e" stop-opacity="0.6" />
		</linearGradient>
	</defs>
	<style>
		tspan { white-space:pre }
		.shp0 { fill: #000000 } 
		.shp1 { fill: url(#grd1) } 
		.shp2 { fill: url(#grd2) } 
	</style>
	<path id="lblak" class="shp0" d="M65.5 60C72.96 60 79 63.81 79 68.5C79 73.19 72.96 77 65.5 77C58.04 77 52 73.19 52 68.5C52 63.81 58.04 60 65.5 60Z" />
	<path id="llight" class="shp1" d="M61.5 61.89C65.09 61.89 68 63.58 68 65.67C68 67.75 65.09 69.44 61.5 69.44C57.91 69.44 55 67.75 55 65.67C55 63.58 57.91 61.89 61.5 61.89Z" />
	<path id="rblak" class="shp0" d="M134.5 60C141.96 60 148 63.81 148 68.5C148 73.19 141.96 77 134.5 77C127.04 77 121 73.19 121 68.5C121 63.81 127.04 60 134.5 60Z" />
	<path id="right" class="shp2" d="M130.5 61.89C134.09 61.89 137 63.58 137 65.67C137 67.75 134.09 69.44 130.5 69.44C126.91 69.44 124 67.75 124 65.67C124 63.58 126.91 61.89 130.5 61.89Z" />
</svg>