<svg version="1.2" baseProfile="tiny-ps" xmlns="http://www.w3.org/2000/svg" viewBox="0 0 200 148" width="200" height="148">
	<title>ey4</title>
	<defs>
		<linearGradient id="grd1" gradientUnits="userSpaceOnUse"  x1="62.685" y1="58" x2="62.685" y2="70">
			<stop offset="0.62" stop-color="#5e5e5e" stop-opacity="0.6" />
		</linearGradient>
		<linearGradient id="grd2" gradientUnits="userSpaceOnUse"  x1="131.685" y1="58" x2="131.685" y2="70">
			<stop offset="0.62" stop-color="#5e5e5e" stop-opacity="0.6" />
		</linearGradient>
	</defs>
	<style>
		tspan { white-space:pre }
		.shp0 { fill: #000000 } 
		.shp1 { fill: url(#grd1) } 
		.shp2 { fill: url(#grd2) } 
	</style>
	<path id="lblak" class="shp0" d="M65.5 55C70.75 55 75 61.04 75 68.5C75 75.96 70.75 82 65.5 82C60.25 82 56 75.96 56 68.5C56 61.04 60.25 55 65.5 55Z" />
	<path id="llight" class="shp1" d="M62.69 58C65.21 58 67.26 60.69 67.26 64C67.26 67.31 65.21 70 62.69 70C60.16 70 58.11 67.31 58.11 64C58.11 60.69 60.16 58 62.69 58Z" />
	<path id="rblak" class="shp0" d="M134.5 55C139.75 55 144 61.04 144 68.5C144 75.96 139.75 82 134.5 82C129.25 82 125 75.96 125 68.5C125 61.04 129.25 55 134.5 55Z" />
	<path id="right" class="shp2" d="M131.69 58C134.21 58 136.26 60.69 136.26 64C136.26 67.31 134.21 70 131.69 70C129.16 70 127.11 67.31 127.11 64C127.11 60.69 129.16 58 131.69 58Z" />
</svg>