<svg version="1.2" baseProfile="tiny-ps" xmlns="http://www.w3.org/2000/svg" viewBox="0 0 200 148" width="200" height="148">
	<title>ey6</title>
	<defs>
		<linearGradient id="grd1" gradientUnits="userSpaceOnUse"  x1="58.75" y1="62.687" x2="58.75" y2="74.594">
			<stop offset="0.62" stop-color="#5e5e5e" stop-opacity="0.6" />
			<stop offset="50%" stop-color="#5e5e5e" stop-opacity="0.3" />
			<stop offset="100%" stop-color="#5e5e5e" stop-opacity="0" />
		</linearGradient>
		<linearGradient id="grd2" gradientUnits="userSpaceOnUse"  x1="130.108" y1="60.621" x2="130.108" y2="73.042">
			<stop offset="0.62" stop-color="#5e5e5e" stop-opacity="0.6" />
			<stop offset="50%" stop-color="#5e5e5e" stop-opacity="0.3" />
			<stop offset="100%" stop-color="#5e5e5e" stop-opacity="0" />
		</linearGradient>
		<linearGradient id="grd3" gradientUnits="userSpaceOnUse"  x1="130.108" y1="60.621" x2="130.108" y2="73.042">
			<stop offset="0.62" stop-color="#000" stop-opacity="1" />
			<stop offset="50%" stop-color="#222" stop-opacity="0.8" />
			<stop offset="100%" stop-color="#000" stop-opacity="1" />
		</linearGradient>
	</defs>
	<style>
		tspan { white-space:pre }
		.shp0 { opacity: 0.4;fill: #000000 } 
		.shp1 { fill: url(#grd3) } 
		.shp2 { opacity: 0.502;fill: #ffffff } 
		.shp3 { fill: url(#grd1) } 
		.shp4 { fill: url(#grd2) } 
	</style>
	<path id="sl" class="shp0" d="M76.92 84.04C75.4 85.04 73.47 86.01 71.12 86.84C68.77 87.67 65.99 88.32 62.67 88.54C55.99 88.93 47.45 87.85 36.7 84.09C36.69 84.07 44.43 85.75 53.29 86.07C54.4 86.1 55.54 86.11 56.7 86.11C51.21 84.58 44.61 81.52 37 76C37 76 56.04 86.34 68 85.02C71.77 84.15 74.98 82.62 76.83 80.04C77.78 78.54 78.51 77.68 79.12 77.43C79.42 77.3 79.69 77.32 79.91 77.46C80.02 77.52 80.12 77.62 80.2 77.75C80.28 77.87 80.35 78.02 80.41 78.19C80.9 79.63 80.01 82.12 76.92 84.04Z" />
	<path id="sr" class="shp0" d="M119.59 78.19C119.65 78.02 119.72 77.87 119.8 77.75C119.88 77.62 119.98 77.52 120.09 77.46C120.31 77.32 120.58 77.3 120.88 77.43C121.49 77.68 122.22 78.54 123.17 80.04C125.02 82.62 128.23 84.15 132 85.02C143.96 86.34 163 76 163 76C155.39 81.52 148.79 84.58 143.3 86.11C144.46 86.11 145.6 86.1 146.71 86.07C155.57 85.75 163.31 84.07 163.3 84.09C152.55 87.85 144.01 88.93 137.33 88.54C134.01 88.32 131.23 87.67 128.88 86.84C126.53 86.01 124.6 85.04 123.08 84.04C119.99 82.12 119.1 79.63 119.59 78.19Z" />
	<path id="darkl" class="shp1" d="M65 58C72.73 58 79 63.82 79 71C79 78.18 72.73 84 65 84C57.27 84 51 78.18 51 71C51 63.82 57.27 58 65 58Z" />
	<path id="darkr" class="shp1" d="M135 58C142.73 58 149 63.82 149 71C149 78.18 142.73 84 135 84C127.27 84 121 78.18 121 71C121 63.82 127.27 58 135 58Z" />
	<path id="wl" class="shp2" d="M64.5 71C66.43 71 68 73.46 68 76.5C68 79.54 66.43 82 64.5 82C62.57 82 61 79.54 61 76.5C61 73.46 62.57 71 64.5 71Z" />
	<path id="wr" class="shp2" d="M135.5 71C137.43 71 139 73.46 139 76.5C139 79.54 137.43 82 135.5 82C133.57 82 132 79.54 132 76.5C132 73.46 133.57 71 135.5 71Z" />
	<path id="llight" class="shp3" d="M58.75 62.69C62.1 62.69 64.81 65.35 64.81 68.64C64.81 71.93 62.1 74.59 58.75 74.59C55.4 74.59 52.69 71.93 52.69 68.64C52.69 65.35 55.4 62.69 58.75 62.69Z" />
	<path id="right" class="shp4" d="M133.99 62.53C136.41 65.01 136.63 68.94 134.48 71.31C132.34 73.69 128.64 73.61 126.22 71.13C123.81 68.66 123.59 64.73 125.73 62.35C127.88 59.98 131.58 60.06 133.99 62.53Z" />
</svg>