<svg version="1.2" baseProfile="tiny-ps" xmlns="http://www.w3.org/2000/svg" viewBox="0 0 350 450" width="350" height="450">
	<title>fbody</title>
	<style>
		tspan { white-space:pre }
		.shp0 { fill: #f0dfc5 } 
	</style>
	<path id="hand-left" class="shp0" d="M133 211C127.3 213.77 120 220.32 110 228C105.23 231.66 96.2 232.51 90.09 234.19C87.91 234.79 86.1 236.37 85 237C80.82 239.39 66.8 239.23 63 236C59.2 232.77 53.18 230 61 226C68.82 222 77.28 224.3 82 223C96.61 218.97 98.37 211.71 103 205C107.63 198.29 128 191 128 191C148.46 189.22 146.68 204.35 133 211Z" />
	<path id="hand-right" class="shp0" d="M219 191C219 191 233.93 194.64 243 205C252.31 215.64 250.89 210.31 264 202C268.24 199.31 269.49 189.14 278.4 186.16C287.31 183.19 286.46 190.16 287.45 195.74C288.43 201.32 281.02 209.61 276 211C274.68 211.37 270.96 216.76 269 218C263.53 221.47 246.18 233.37 236 228C224.85 222.12 218.7 213.77 213 211C199.32 204.35 203.24 190.03 219 191Z" />
	<path id="base2" class="shp0" d="M134.07 277.42C163.83 258.88 156.64 234.09 144 231C135.45 228.91 130.77 219.43 131 217C131.23 214.58 130.73 208.93 134.47 202.46C134.56 202.31 134.74 202.17 134.96 202.05C139.5 201.04 136.34 201.27 134.96 202.05C133.64 202.34 131.68 202.74 128.82 203.26C119.58 204.94 112.94 199.36 114.14 196.91C114.81 195.56 124.23 191.07 127.69 190.57C132.33 189.9 145.08 186.9 151.41 184.23C157.74 181.55 160.48 171.31 160.48 171.31C167.83 169.79 172.67 169.94 174.5 170.09C176.33 169.94 181.17 169.79 188.52 171.31C188.52 171.31 190.26 181.55 196.59 184.23C202.92 186.9 215.67 189.9 220.31 190.57C223.77 191.07 233.19 195.56 233.86 196.91C235.06 199.36 228.42 204.94 219.18 203.26C216.32 202.74 214.36 202.34 213.04 202.05C211.66 201.27 208.5 201.04 213.04 202.05C213.26 202.17 213.44 202.31 213.53 202.46C217.27 208.93 218.78 214.77 219.01 217.19C219.24 219.62 215.41 228.36 206.77 230.03C196.13 232.09 192.45 257.92 210.22 272.69C209.79 272.25 211.57 273.75 214 276C215.53 277.42 218.36 281.2 218.53 281.03C224.24 288.23 227.35 297.04 225.32 308.14C223.6 317.59 220.23 325.02 215.53 329.22C217.53 332.17 219.02 335.99 219.64 340.31C220.63 347.23 219.13 353.6 216.09 357.35C219.14 361.27 221.31 364.33 221.67 371.5C222.12 380.33 220.91 398.54 214.67 399.44C208.43 400.33 205.27 388.24 203.02 377.8C201.28 369.7 199.87 362.06 202.39 357.46C199.31 354.39 196.92 349.46 196.09 343.68C195.4 338.84 195.93 334.27 197.35 330.68C186.69 325.17 181.44 311.34 183.97 296.1C184.01 295.85 184.06 295.61 184.11 295.36C183.25 297.16 182.74 297.97 180 299C179.88 299.7 178.51 297.88 177 298C174.59 298.2 175.86 299.17 174.45 298.98C173.84 298.96 171.28 297.45 169.72 295.63C174.39 309.6 167.72 324.64 158.65 331.86C160.74 335.12 162.15 339.49 162.41 344.38C162.72 350.21 161.33 355.5 158.91 359.11C162.27 363.13 163.06 370.32 163.17 378.6C163.29 387.58 161.32 402.34 155.02 402.68C148.73 403.01 144.46 388.1 143.37 379.75C142.45 372.63 143.21 366.11 145.44 361.66C141.73 358.58 139.03 352.62 138.66 345.64C138.42 341.29 139.14 337.24 140.52 333.97C135.1 330.76 130.35 324.13 126.82 315.19C121.98 302.92 124.99 288.79 131.13 280.48C131.4 280.11 133.85 277.56 134.07 277.42ZM156.24 407.74C162.01 407.43 166.79 409.01 166.91 411.27C167.03 413.53 162.45 415.61 156.68 415.91C150.91 416.22 146.13 414.64 146.01 412.38C145.89 410.12 150.47 408.04 156.24 407.74ZM214.45 404.64C220.17 403.82 225.11 405.1 225 407.36C224.9 409.37 223.4 410.19 220.94 411.29C219.29 412.03 217.91 412.41 215.61 412.74C209.89 413.56 205 412.42 204.67 410.18C204.35 407.94 208.73 405.46 214.45 404.64Z" />
	<path id="ll2" class="shp0" d="M171 317C169.93 319.96 163.89 331.16 164 339C164.15 349.83 161.29 356.24 160 358C159.05 359.29 162.77 367.44 163 372C163.3 378.04 163.95 389.2 162 394C160.67 397.26 160.7 404.98 164 408C167.27 411 167.41 412.14 166 414C164.7 415.71 158.05 416.42 156 417C153.95 417.58 146.02 414.78 145 413C144.46 412.06 146.82 405.36 147 404C147.18 402.64 146.82 397.69 146 395C145.18 392.31 141.89 379.63 142 375C142.06 372.64 142.61 359.34 141 356C139.39 352.66 138.15 346.75 138 344C137.85 341.25 127 316 127 316C143.2 303.91 172.07 314.04 171 317Z" />
	<path id="lrr2" class="shp0" d="M226 310C226 310 218.27 336.74 219.34 339.28C219.95 340.71 220.66 347.29 219 351C217.91 353.44 221.62 363.99 222.07 366.31C222.51 368.62 221.21 386.9 220.92 389.7C220.62 392.5 221.2 397.43 221.64 398.73C222.07 400.03 225.6 406.14 225.3 407.19C224.21 411.03 217.38 413.38 215.25 413.19C213.13 413.01 207.25 413.57 205.85 411.95C204.44 410.32 203.67 409.85 205.7 405.87C207.72 401.88 207.92 394.51 206 391.55C204.08 388.6 200.71 376.02 200.08 371.5C199.46 366.97 200 357.39 199.18 356.01C198.36 354.63 194.08 345.82 192.66 338.11C191.25 330.4 183.61 320.7 182 318C180.39 315.3 204.53 300.33 226 310Z" />
	<path id="bikini" class="shp0" d="M149 263C149 263 160.02 277.15 176 276C197.23 274.47 202.2 263.43 201 261C199.8 258.57 206 268 206 268C206 268 193.86 273.56 186.52 289.48C184.27 294.34 183 297 183 297C183 297 182.75 298.39 180.41 299.32C178.38 300.13 173.4 299.66 172 299C170.67 298.37 171.56 298.64 169 296C168.11 295.08 167.47 291.7 164.45 286.73C156.44 273.54 145.41 267.95 146 267C146.91 265.54 149 263 149 263Z" />
	<path id="bra" class="shp0" d="M218 223C213.36 231.34 202 233 202 233C202 233 191.39 231.22 186 229C180.85 226.88 175 226 175 226C175 226 169.15 226.88 164 229C158.61 231.22 148 233 148 233C148 233 137.87 231.2 133 223C128.13 214.8 132 209 132 209C134.41 212.99 136.12 212.71 143 214C149.5 215.22 147.95 205.74 162.53 218.51C168.28 223.56 175 218 175 218C175 218 181.72 223.56 187.47 218.51C202.05 205.74 200.5 215.22 207 214C213.88 212.71 214.59 212.99 217 209C217 209 221.87 216.05 218 223Z" />
</svg>