<svg version="1.2" baseProfile="tiny-ps" xmlns="http://www.w3.org/2000/svg" viewBox="0 0 100 150" width="100" height="150">
	<title>fmaleicon.svg</title>
	<style>
		tspan { white-space:pre }
		.shp0 { fill: #444 } 
                .shp1{ fill: #444 }
.shp0,.shp1{filter:drop-shadow(0 0 3px #000) invert(80%);}
#body{transform:rotate(180deg) scaleX(.7) scaleY(1);transform-origin:center center;}
#armright{transform:translate(-5px,5px) rotate(-11deg);transform-origin:center center;}
#armleft{transform:translate(5px,5px) rotate(11deg);transform-origin:center center;}
	</style>
	<path id="body" class="shp0" d="M33 52L67 52C68.66 52 70 53.34 70 55L68 95C68 96.66 66.82 98 65.37 98L35.62 98C34.18 98 33 96.66 33 95L30 55C30 53.34 31.34 52 33 52Z" />
	<path id="armleft" class="shp0" d="M23.5 55C26.54 55 29 57.46 29 60.5L29 84.5C29 87.54 26.54 90 23.5 90C20.46 90 18 87.54 18 84.5L18 60.5C18 57.46 20.46 55 23.5 55Z" />
	<path id="armright" class="shp0" d="M76.5 55C79.54 55 82 57.46 82 60.5L82 84.5C82 87.54 79.54 90 76.5 90C73.46 90 71 87.54 71 84.5L71 60.5C71 57.46 73.46 55 76.5 55Z" />
	<path id="footleft" class="shp0" d="M40.5 100C43.54 100 46 102.46 46 105.5L46 129.5C46 132.54 43.54 135 40.5 135C37.46 135 35 132.54 35 129.5L35 105.5C35 102.46 37.46 100 40.5 100Z" />
	<path id="footright" class="shp0" d="M59.5 100C62.54 100 65 102.46 65 105.5L65 129.5C65 132.54 62.54 135 59.5 135C56.46 135 54 132.54 54 129.5L54 105.5C54 102.46 56.46 100 59.5 100Z" />
	<path id="head" class="shp1" d="M59.43 25.63C60.51 27.42 61.05 29.38 61.05 31.5C61.05 33.62 60.51 35.58 59.43 37.37C58.35 39.16 56.89 40.58 55.05 41.63C53.2 42.67 51.19 43.2 49.01 43.2C46.82 43.2 44.81 42.67 42.96 41.63C41.12 40.58 39.66 39.16 38.58 37.37C37.51 35.58 36.97 33.62 36.97 31.5C36.97 29.38 37.51 27.42 38.58 25.63C39.66 23.83 41.12 22.41 42.96 21.37C44.81 20.32 46.82 19.8 49.01 19.8C51.19 19.8 53.2 20.32 55.05 21.37C56.89 22.41 58.35 23.83 59.43 25.63ZM57.54 17.2C54.93 15.72 52.09 14.98 49.01 14.98C45.92 14.98 43.08 15.72 40.47 17.2C37.87 18.67 35.81 20.68 34.29 23.21C32.77 25.74 32.01 28.5 32.01 31.5C32.01 34.49 32.77 37.26 34.29 39.79C35.81 42.32 37.87 44.32 40.47 45.8C43.08 47.28 45.92 48.02 49.01 48.02C52.09 48.02 54.93 47.28 57.54 45.8C60.14 44.32 62.2 42.32 63.72 39.79C65.24 37.26 66 34.49 66 31.5C66 28.5 65.24 25.74 63.72 23.21C62.2 20.68 60.14 18.67 57.54 17.2Z" />
</svg>