<svg version="1.2" baseProfile="tiny-ps" xmlns="http://www.w3.org/2000/svg" viewBox="0 0 350 450" width="350" height="450">
	<title>fou13.svg</title>
	<style>
		tspan { white-space:pre }
		.shp0 { fill: #4a4a4a } 
		.shp1 { fill: #0a0a0a } 
		.shp2 { fill: #141414 } 
		.shp3 { fill: #000000 } 
		.shp4 { opacity: 0;fill: #dbdbdb } 
		.shp5 { opacity: 0.09;fill: #000000 } 
		.shp6 { opacity: 0.102;fill: #000000 } 
		.shp7 { opacity: 0.039;fill: #ffffff } 
		.shp8 { fill: #0f0f0f } 
		.shp9 { opacity: 0;fill: #141414 } 
		.shp10 { opacity: 0;fill: #62943d } 
		.shp11 { opacity: 0.031;fill: #000000 } 
		.shp12 { opacity: 0.012;fill: #000000 } 
		.shp13 { opacity: 0.071;fill: #ffffff } 
		.shp14 { opacity: 0.259;fill: #000000 } 
		.shp15 { opacity: 0.012;fill: #ffffff } 
		.shp16 { opacity: 0.369;fill: #000000 } 
#fillit{opacity:0;fill:#6b0202;}
#backkote{opacity:1;transform:scaleY(.7) translate(-10px,20px) rotate(-10deg);transform-origin:center center;}
#legl,#legr{opacity:0;fill:#6b0202;}
#bootl,#bootr{opacity:1;fill:#222;}
#shirt{opacity:0;}
#bodyshadow{}
#fbody{fill:#f1f1f1;}
#skirtl{fill:#700;}
#skirtright{fill:#900}
#hl,#hr{opacity:0;}
#hl2,#hr2{opacity:0;}
#beltl,#beltr{opacity:1;fill:#ccc;}

#shuel,#shuer{opacity:0;fill:#760e82;}
#hr2a{opacity:1;fill:#800;}
#hl2a{opacity:0;}
#model{opacity:1;fill:#555;}
#tat1{opacity:0;fill:#38446b;filter:hue-rotate(90deg) invert(10%) brightness(120%);}
#sh8{opacity:0.4;}
#sh9{opacity:.5;fill:#000;}
#sh10{opacity:0;}
	</style>
	<path id="fillit" class="shp0" d="M176 230C185.94 230 194 240.52 194 253.5C194 266.48 185.94 277 176 277C166.06 277 158 266.48 158 253.5C158 240.52 166.06 230 176 230Z" />
	<path id="backkote" class="shp1" d="M140 384C140 384 142.38 311.9 155 282C157.74 275.51 159.56 265.87 163.13 267.86C168.64 270.92 183.6 270.63 188 269C196.05 266.01 193.77 273.39 197 282C208.39 312.38 223.74 378.06 223 383C222.05 389.34 209.49 382.85 199 387C188.51 391.15 180.22 380.53 164 375C147.78 369.47 146 384 146 384C138.51 390.19 140 384 140 384Z" />
	<path id="legl" class="shp2" d="M165 317C163.45 319.66 156.08 333.67 155 337C153.92 340.33 153.44 349.3 153 352C152.56 354.7 148.78 366.56 147 374C145.22 381.44 146.54 394.57 147 396C147.46 397.43 144.71 399.55 143 402C141.29 404.45 132.83 401.99 130 396C127.17 390.01 119.13 394.26 120 393C120.87 391.74 121.75 389.8 123 386C124.25 382.2 123.39 368.49 123 364C122.61 359.51 122.16 345.04 122 344C121.84 342.96 121.67 341.15 122 340C122.33 338.85 126.54 328.36 127 327C127.46 325.64 127 306 127 306C146.69 297.68 170.34 307.82 165 317Z" />
	<path id="legr" class="shp2" d="M228 394C224.28 393.78 222.08 397.69 219 397C215.35 396.19 214.14 393.48 214 393C213.56 391.47 210.18 371.09 210 370C209.82 368.91 200.67 339.31 198 337C195.33 334.69 185 314 185 314C200 291.22 224.46 305.13 225 306C225.54 306.87 230.11 336.19 230 339C229.89 341.81 230.45 358.21 232 369C233.55 379.79 236.8 389.69 238 391C239.2 392.31 240.85 396.82 241 398C241.07 398.5 233.97 394.35 228 394Z" />
	<path id="bootl" class="shp3" d="M100 415C100 415 99.19 411 103 408C106.81 405 118 396 118 396C118 396 120.76 392.75 122 387C123.24 381.25 122.83 355.75 122 351C121.17 346.25 122 344 122 344C122 344 144.58 349.54 149 347C153.42 344.46 153.23 344.14 154 346C154.77 347.86 147.73 372 147 376C146.27 380 146.73 394.29 147 395C147.27 395.71 148.51 401.54 149 403C149.49 404.46 149.76 410.04 149 411C148.24 411.96 142 414 142 414L141 414L139 416C139 416 124.15 419.82 122 420C119.84 420.18 105.48 419.79 104 419C102.52 418.21 100 415 100 415Z" />
	<path id="bootr" class="shp3" d="M214 346C221.66 345.48 230.38 338.75 231 339C231.62 339.25 231.38 346.43 231 356C230.62 365.57 235.38 383.21 236 385C236.62 386.79 239.85 391.43 240 393C240.15 394.57 242.17 399.11 243 400C243.83 400.89 246.45 402.86 248 406C249.55 409.14 247.52 414.29 247 415C246.48 415.71 241.45 418.39 240 419C238.55 419.61 220.56 418.57 219 418C217.44 417.43 214.84 411.43 214 410C213.15 408.57 212.52 405 213 404C213.48 403 214.49 396.61 214 394C213.51 391.39 211.09 376.96 209 370C206.9 363.04 201 344 201 344C202.61 346.14 207.95 346.41 214 346Z" />
	<path id="shirt" class="shp4" d="M230 211C228.76 210.43 222.36 206.76 221 208C219.64 209.24 212.97 218.79 212 220C211.03 221.21 206.65 237.51 206 240C205.3 242.67 209.2 255.16 211 261C212.8 266.84 175.93 273 175.93 273L175.93 272.96C175.79 272.97 175.65 273 175.5 273C175.35 273 175.21 272.97 175.07 272.96L175.07 273C175.07 273 138.2 266.84 140 261C141.8 255.16 141.7 245.67 141 243C140.35 240.51 133.97 222.21 133 221C132.03 219.79 127.36 212.24 126 211C124.64 209.76 122.24 207.43 121 208C119.76 208.57 110.13 187.31 110 179L118 175C118 175 125.42 173.06 128 173C129.08 172.98 131.9 172.97 134.81 172.98C138.82 172.98 143 173 143 173L147 173L153 164L173.42 167.7C174 167.27 174.72 167 175.5 167C176.28 167 177 167.27 177.58 167.7L198 164L204 173L208 173C208 173 212.18 172.98 216.19 172.98C219.1 172.97 221.92 172.98 223 173C225.58 173.06 233 176 233 176L242 182C241.87 190.31 231.24 211.57 230 211Z" />
	<path id="bodyshadow" fill-rule="evenodd" class="shp5" d="M113 177C132.54 180.27 144.05 196.11 132 212C130.33 212 131.67 210 130 210C127.08 208.07 122.89 210.02 121 207C125.06 204.91 125.23 202.24 127 198C118.88 178 110.79 182 108 182C109.33 180.33 109.67 179.67 111 178C111.67 177.67 112.33 177.33 113 177ZM218 181C216.33 191 214.67 201 213 211C213.33 211.33 213.67 211.67 214 212C215 212 219 208 220 208C224.96 201.2 219.25 202.64 223 193C226.19 186.05 233.83 179.83 236.79 179.26C233.42 177.24 230.55 176.06 225 176C222.33 177.33 220.67 179.67 218 181ZM238 180C238 179.33 237.55 179.11 236.79 179.26C237.19 179.5 237.59 179.74 238 180ZM142 238C140.21 241.86 141.96 240.77 142 247C162.85 237.39 185.26 237.78 207 248C205.14 226.15 159.51 235.56 142 238Z" />
	<path id="fbody" class="shp3" d="M129.79 170.49C137.59 170.37 145.06 172.42 146 173C149.02 174.88 149.81 191.86 151 192C152.19 192.14 167.27 198.69 170 205C172.78 211.43 175.07 213 175.07 213C175.07 213 176.71 212.86 179 208C184.14 197.07 200.42 192.83 200 191C199.58 189.17 205.18 174.17 206 173C206.39 172.45 213.2 170.37 220.24 170.46C228.09 170.57 237.21 173.88 237 174C204.61 192.01 223.86 206.49 223 206C222.14 205.51 217.86 210.76 217 213C216.14 215.24 214.81 223.21 213 225C211.19 226.79 209.93 225.4 208 231C206.07 236.6 207 246 207 246C207 246 194.68 237.94 176 238C153.89 238.07 141 244 141 244C141 244 138.2 239.31 137 234C135.8 228.69 131.52 218.57 128 214C124.48 209.43 121.67 207.14 122 207C145.38 197.33 110.2 175.92 110.49 174.85C110.49 174.85 120.62 170.63 129.79 170.49Z" />
	<path id="sh1" class="shp6" d="M154.32 193C165.67 192.66 168.42 197.15 174.84 205C174.84 206.33 174.84 207.67 174.84 209C174.59 209 175.09 209 174.84 209C169.65 195.21 160.12 198.12 149 196C151.53 194.67 151.79 194.33 154.32 193ZM197.68 193C186.33 192.66 183.58 197.15 177.16 205C177.16 206.33 177.16 207.67 177.16 209C177.41 209 176.91 209 177.16 209C182.35 195.21 191.88 198.12 203 196C200.47 194.67 200.21 194.33 197.68 193Z" />
	<path id="sh2" fill-rule="evenodd" class="shp5" d="M142 228C155.85 225.88 167.72 228.79 174.19 215C174.19 216.33 174.19 217.67 174.19 219C166.2 226.85 162.76 231.34 148.63 231C145.47 229.67 145.16 229.33 142 228ZM209 228C195.15 225.88 183.28 228.79 176.81 215C176.81 216.33 176.81 217.67 176.81 219C184.8 226.85 188.24 231.34 202.37 231C205.53 229.67 205.84 229.33 209 228Z" />
	<path id="shadowbootleft" fill-rule="evenodd" class="shp7" d="M122 345C124.95 345.56 128.05 346.44 131 347C135.05 347.77 140.95 348.23 145 349C143.33 351 139.67 353 138 355C139.67 355 141.33 355 143 355C140.81 356.96 139.81 357.28 136 358C138.59 362.32 133.18 363.85 128 369C129.33 369.67 132.67 373.33 134 374C131.05 379.53 130.54 379.69 127 386C129 386.33 132 389.67 134 390C132.2 391.88 125.22 396.85 129 397C127.66 399.76 128.37 397.29 128 400C132.67 400.33 137.33 400.67 142 401C141.25 405.21 125.41 402.75 124 408C121.68 416.61 109.83 415.41 102 414C101.67 412.67 101.33 412.33 101 411C109.32 403.65 118.84 398.36 121.16 392.59C125.4 382.03 123.37 365.93 122 345Z" />
	<path id="shadowbootright" fill-rule="evenodd" class="shp7" d="M225 408C222.5 410.33 222.47 413.51 225 416C222.24 416.4 219.3 416.34 217 414C211.9 403.92 216.37 400.29 214.07 389.02C212.85 383.02 211.08 376.9 210 371C208.49 362.73 206.18 354.71 203 347C206.08 347.36 209.15 349.72 212.23 350.09C214.82 350.39 218.41 350.7 221 351C217.4 356.02 216.91 351.23 214 356C215.33 356.67 217.67 359.33 219 360C218.33 360 217.67 360 217 360C215 361 213 362 211 363C214 363 217 363 220 363C219 364 218 365 217 366C218.33 366.67 219.67 367.33 221 368C219.67 368.33 218.33 368.67 217 369C229.68 389.66 217.03 390.83 242 408C242 409 242 410 242 411C241.33 411.33 240.67 411.67 240 412C235 411 230 409 225 408Z" />
	<path id="skirtl" class="shp8" d="M140 262C140 262 158.83 272.33 174 273C189.17 273.67 175.07 316 175.07 316C175.07 316 168.99 317.09 165 316C161.01 314.91 132.05 306.87 128 311C123.95 315.13 127.13 274.87 140 262Z" />
	<path id="skirtright" class="shp3" d="M225 310C212.37 298.08 191.99 313.91 188 315C184.01 316.09 179 316 179 316C179 316 137.79 273.22 161 273C195.86 272.66 211 261 211 261C223.87 273.87 230.29 314.99 225 310Z" />
	<path id="hl" class="shp9" d="M156 159L158 171C158 171 154.1 172.84 155 180C155.9 187.16 165.61 199.28 170 200C174.39 200.72 175.07 273.74 175.07 283C175.07 292.26 129.46 281.65 130 280C130.54 278.35 139.15 264.03 140 260C141.48 253 141.24 246.3 140 243C138.7 239.55 137.28 234.57 136 231C133.09 222.9 125.96 211.94 125 211C124.04 210.06 120.29 209.6 119 211C117.71 212.4 112.91 216.44 110 219C107.09 221.56 102.84 224.71 102 226C101.16 227.29 101.4 230.47 97 229C92.6 227.53 87.19 235.32 87 239C86.81 242.68 89.35 247.73 88 249C86.65 250.27 82.7 249.17 82 252C81.3 254.83 74.06 253.49 72 251C69.94 248.51 68 240 68 240C68 240 70.65 237.12 71 234C71.35 230.88 81.8 204.93 83 203C84.2 201.07 107.8 180.16 109 179C111.79 176.31 115.57 174.32 122 173C125 172.39 142 172 142 172L156 159Z" />
	<path id="hr" class="shp9" d="M207 172C207 172 226.23 171.69 229 173C230 173.47 236.37 176.66 240 180C240.66 180.61 248.01 185.06 255 193C259.77 198.41 267.44 202.1 268 203C269.2 204.93 276.13 205.72 279 207C282.42 208.52 280 212 280 212C280 212 264.61 212.74 265 221C265.51 231.82 269.66 233.11 269 236C268.94 236.28 263.25 233.35 263 233C255.09 222.01 244.11 220.43 242 219C238.79 216.82 232.29 213.4 231 212C229.71 210.6 224.3 208.35 223 208C219.27 206.99 218.83 212.06 213 222C207.85 230.79 209.46 232.12 208 235C205.26 240.42 209.27 256.26 211 260C212.73 263.74 220.46 278.35 221 280C221.54 281.65 177 294.26 177 285C177 275.74 176.61 200.72 181 200C185.39 199.28 195.1 187.16 196 180C196.9 172.84 193 171 193 171L195 159L207 172Z" />
	<path id="hl2" class="shp2" d="M156 159L158 171C158 171 154.1 172.84 155 180C155.9 187.16 165.61 199.28 170 200C174.39 200.72 175.07 273.74 175.07 283C175.07 292.26 129.46 281.65 130 280C130.54 278.35 139.15 264.03 140 260C141.48 253 141.24 246.3 140 243C138.7 239.55 137.28 234.57 136 231C133.09 222.9 125.96 211.94 125 211C124.04 210.06 120.29 209.6 119 211C117.71 212.4 112.91 216.44 110 219C107.09 221.56 102.84 224.71 102 226C101.16 227.29 101.4 230.47 97 229C92.6 227.53 87.19 235.32 87 239C86.81 242.68 89.35 247.73 88 249C86.65 250.27 82.7 249.17 82 252C81.3 254.83 74.06 253.49 72 251C69.94 248.51 68 240 68 240C68 240 70.65 237.12 71 234C71.35 230.88 81.8 204.93 83 203C84.2 201.07 107.8 180.16 109 179C111.79 176.31 115.57 174.32 122 173C125 172.39 142 172 142 172L156 159Z" />
	<path id="hr2" class="shp2" d="M207 172C207 172 226.23 171.69 229 173C230 173.47 236.37 176.66 240 180C240.66 180.61 248.01 185.06 255 193C259.77 198.41 267.44 202.1 268 203C269.2 204.93 276.13 205.72 279 207C282.42 208.52 280 212 280 212C280 212 264.61 212.74 265 221C265.51 231.82 269.66 233.11 269 236C268.94 236.28 263.25 233.35 263 233C255.09 222.01 244.11 220.43 242 219C238.79 216.82 232.29 213.4 231 212C229.71 210.6 224.3 208.35 223 208C219.27 206.99 219.83 213.06 214 223C213.44 223.96 211.19 225.12 210 228.21C207.31 235.15 205.89 246.77 212 260C213.73 263.74 221.46 278.35 222 280C222.54 281.65 177 294.26 177 285C177 275.74 176.61 200.72 181 200C185.39 199.28 195.1 187.16 196 180C196.9 172.84 193 171 193 171L195 159L207 172Z" />
	<path id="hr2a" class="shp2" d="M177 272C177.1 268.97 215 266 215 266C215 266 215.85 267.33 221 277C226.21 286.79 260.34 381.23 255 389C249.66 396.77 222.96 390.29 210 385C197.04 379.71 187 390 187 390L177 283C177 283 176.99 272.19 177 272Z" />
	<path id="hl2a" class="shp2" d="M161 382C160.95 377.75 138 383 138 383C138 383 132.05 392.19 113 385C105.2 382.06 102 381 102 381C102 381 104.28 365.16 109.59 345.94C116.27 321.71 126.58 292.1 130 282C132.44 274.78 137 266 137 266C137 266 136.54 265.91 140 268C143.46 270.09 175 272 175 272C178.3 350.23 161.39 414.14 161 382Z" />
	<path id="beltl" class="shp10" d="M135 231C135 231 149.45 235.82 158 234C166.55 232.18 174.07 229 174.07 229L175 269C175 269 161.68 257.89 152 257C142.32 256.11 138 260 138 260C138 260 143.03 259.98 135 231Z" />
	<path id="beltr" class="shp10" d="M212 261C212 261 206.68 256.11 197 257C187.32 257.89 176 269 176 269L177 229C177 229 182.45 232.18 191 234C199.55 235.82 210 231 210 231C205.77 248.59 212 261 212 261Z" />
	<path id="shuel" class="shp9" d="M129 393C130.12 393.78 130.94 398.17 132 398C133.06 397.83 132.93 398.08 134 400C135.07 401.92 136.44 402.76 139 403C141.56 403.24 143.47 401.87 144 401C144.53 400.13 146.09 397.54 147 397C147.91 396.46 149.78 404.39 150 406C150.22 407.61 147.35 411.51 147 412C146.65 412.49 143 413 143 413L141 413C141 413 140.68 414.22 139 415C137.32 415.78 128.78 418.18 124 419C119.22 419.82 111.02 419.36 107 419C102.98 418.64 100.75 416.29 100 415C99.25 413.71 100.48 410.7 101 410C101.52 409.3 114.81 398.71 117 397C119.19 395.29 120 392 120 392C122.25 390.74 127.88 392.22 129 393Z" />
	<path id="shuer" class="shp9" d="M219 397C220.6 397.28 221.92 395.55 223 394C224.08 392.45 226.51 391.58 229 391C231.49 390.42 235.35 394.57 237 396C238.65 397.43 240.84 396.09 241 397C241.16 397.91 246.51 402.96 247 405C247.67 407.78 248.06 414.04 247 415C246.55 415.41 243.82 416.83 241 418C238.18 419.17 232.64 419 230 419C227.36 419 221.74 418.27 221 418C220.26 417.73 217.41 416.02 216 414C214.59 411.98 213.17 407.83 213 407C212.83 406.17 213.5 402.63 214 401C214.63 398.96 215 395 215 395C215.54 395.54 217.4 396.72 219 397Z" />
	<path id="sh3" class="shp11" d="M177.09 207.52C179.7 208.7 179.2 210.76 179.69 218.13C179.2 222.78 187.17 225.35 186.94 227.36C185.74 226.97 176.75 224.38 177 217C176.21 214.89 174.06 207.56 177.09 207.52L177.09 207.52ZM184.3 224.9C184.43 225.64 184.57 226.31 184.72 226.92C184.57 226.31 184.43 225.64 184.3 224.9L184.3 224.9ZM173.91 206.52C176.94 206.56 174.79 213.89 174 216C174.25 223.38 165.26 225.97 164.06 226.36C163.83 224.35 171.8 221.78 171.31 217.13C171.8 209.76 171.3 207.7 173.91 206.52L173.91 206.52ZM166.7 223.9C166.57 224.64 166.43 225.31 166.28 225.92C166.43 225.31 166.57 224.64 166.7 223.9L166.7 223.9Z" />
	<path id="sh4" fill-rule="evenodd" class="shp12" d="M211 190C218 191 221.28 200.8 229 200C230.8 203.6 223.32 203.44 220.63 206.87C219.07 208.85 218.36 211.94 217 214C214.18 218.27 211.97 222.24 210 226C202.68 243.09 209.49 262.63 220 279C219 279.67 218 280.33 217 281C212.5 284.18 197.83 287.11 191 284C197.5 282.88 201.6 280.28 204 275C207.27 265.04 189.7 232.24 184 225C215.82 230.15 216.87 209.03 210.14 204.68C206.83 202.53 201.39 198.85 198 199C172.45 192.98 209.81 194.17 211 190ZM188 285C189 285 190 285 191 285C190 285 189 285 188 285Z" />
	<path id="sh5" fill-rule="evenodd" class="shp12" d="M146.76 201.12C143.39 201.46 138.54 205.9 135.57 208.5C129.54 213.78 134.26 234.71 165 225C164.12 226.53 162.29 228.95 160.24 231.92C158.23 234.85 145.93 237.99 145.28 242.03C141.93 262.6 141.97 268.83 144 275C146.4 280.28 153.5 282.88 160 284C153.17 287.11 138.5 284.18 134 281C133 280.33 132 279.67 131 279C139.3 266.08 144.54 256.98 138.16 240.66C136.84 237.28 137.68 231.83 136 228C133.5 224.56 133.54 222.54 130.14 218.72C128.49 216.87 126.83 211.74 125 210C121.84 207 113.74 214.83 115 211C120.29 205.45 125.81 196.11 132.59 194.1C141.2 205.31 167.68 173.03 146.76 201.12ZM163 285C162 285 161 285 160 285C161 285 162 285 163 285Z" />
	<path id="sh6" fill-rule="evenodd" class="shp11" d="M97 196C97.43 202.88 94.16 212.08 97 216C92.11 215.06 91.81 204.98 87 207C86 207.67 89 211.33 88 212C87.84 218.3 78.71 224.93 78 229C76.79 235.94 84.05 239.09 86 247C81.3 249.7 81.13 250.14 74 251C73.67 250 71.33 249 71 248C69.48 245.55 69.22 243.61 69 241C68.67 237.19 72.37 232.37 74.5 225.51C76.31 219.72 80.32 210.68 83 205C86.11 198.42 108.05 182.15 113 176C115.33 176.67 122.67 173.33 125 174C124.67 174.67 116.33 180.33 116 181C110 184 115.74 175.6 102 189C102.67 191.33 100.33 197.67 101 200C99 200 99 196 97 196Z" />
	<path id="sh7" fill-rule="evenodd" class="shp11" d="M231 201C230.33 203.33 235.67 206.67 235 209C236.05 211.6 242.28 215.21 244 214C246 213 248 212 250 211C249.67 213 251.33 216 251 218C253.67 218.33 259.21 226.34 257 218C259.23 213.76 259.95 215.48 264 213C265 213 269.53 209.38 271 212C261.05 219.71 259.93 221.49 266 233C259.26 225.88 249.65 221.44 239.61 216.61C233.34 213.59 227.74 209.32 222 207C222 206.33 224 206.67 224 206C228.33 204.67 226.67 202.33 231 201Z" />
	<path id="sh8" class="shp13" d="M214.21 219.6M205 229C196.04 230.77 190.06 229.16 182 224C182 224 195.07 231.56 206 226C210.8 223.56 213.12 221.33 214.21 219.6C213.13 223.05 210.63 227.89 205 229ZM164 230C155.04 231.77 149.06 230.16 141 225C141 225 154.07 232.56 165 227C169.8 224.56 172.12 222.33 173.21 220.6C172.13 224.05 169.63 228.89 164 230ZM173.21 220.6C173.86 218.56 174 215 174 215C174 215 174.6 218.4 173.21 220.6Z" />
	<path id="tat1" class="shp14" d="M187.37 241.04C186.64 240.92 185.75 242.61 185.83 243.81C185.92 245.01 184.92 246.21 184.41 246.59C183.91 246.97 182.46 247.19 182.46 247.19C182.46 247.19 182.57 248.39 182.12 249.42C181.67 250.44 180.54 250.69 179.82 250.64C179.37 250.61 178.63 249.94 178.5 249.57C178.38 249.2 177.95 249.5 177.38 248.78C176.81 248.07 179.55 245.42 179.57 246.62C179.6 247.62 179.92 247.71 179.72 248.1C179.51 248.48 179.33 248.55 179.17 249.24C179.01 249.93 180.21 249.67 180.76 249.41C181.3 249.14 181.5 247.83 181.45 247.35C181.39 246.87 180.36 245.3 178.96 244.95C177.56 244.6 176.12 247.08 175.85 247.42C175.62 247.72 175.75 250.18 175.79 250.85L176.57 250.13C176.74 249.96 177.04 249.96 177.22 250.12L178.65 251.37C178.83 251.53 178.83 251.79 178.66 251.96L177.4 253.12L178.38 253.98L179.44 252.99C179.62 252.82 179.91 252.82 180.1 252.98L181.52 254.23C181.71 254.39 181.71 254.66 181.53 254.82L180.15 256.11C179.97 256.27 179.68 256.28 179.49 256.12L178.36 255.12L177.47 255.95L178.66 256.99C178.85 257.16 178.85 257.42 178.67 257.59L177.29 258.87C177.11 259.04 176.82 259.04 176.64 258.88L175.5 257.88L174.43 258.87C174.26 259.04 173.96 259.04 173.78 258.88L172.35 257.63C172.17 257.47 172.17 257.21 172.34 257.04L173.54 255.93L172.62 255.12L171.56 256.11C171.38 256.27 171.09 256.28 170.9 256.12L169.48 254.87C169.29 254.71 169.29 254.44 169.47 254.28L170.85 252.99C171.03 252.82 171.32 252.82 171.51 252.98L172.64 253.98L173.59 253.1L172.34 252C172.15 251.84 172.15 251.58 172.33 251.41L173.71 250.13C173.89 249.96 174.18 249.96 174.36 250.12L175.21 250.86C175.25 250.21 175.38 247.72 175.15 247.42C174.88 247.08 173.44 244.6 172.04 244.95C170.64 245.3 169.61 246.87 169.55 247.35C169.5 247.83 169.7 249.14 170.24 249.41C170.79 249.67 171.99 249.93 171.83 249.24C171.67 248.55 171.49 248.48 171.28 248.1C171.08 247.71 171.4 247.62 171.43 246.62C171.45 245.42 174.19 248.07 173.62 248.78C173.05 249.5 172.62 249.2 172.5 249.57C172.37 249.94 171.63 250.61 171.18 250.64C170.46 250.69 169.33 250.44 168.88 249.42C168.43 248.39 168.54 247.19 168.54 247.19C168.54 247.19 167.09 246.97 166.59 246.59C166.08 246.21 165.08 245.01 165.17 243.81C165.25 242.61 164.36 240.92 163.63 241.04C162.9 241.16 162 240.95 162 240.95C162 240.95 162.6 239.93 163.34 240C164.09 240.07 165.9 240.62 166.01 241.19C166.11 241.76 166.4 241.4 166.66 241.39C166.92 241.37 168.02 241.27 168.34 241.88C168.67 242.48 169.05 243.27 169.05 243.27C169.05 243.27 168.42 243.69 167.98 243.51C167.53 243.33 167.31 242.57 166.61 242.72C166.3 242.79 166.13 243.44 166.16 243.84C166.2 244.2 166.65 245.38 167.18 245.6C167.74 245.82 168.8 245.93 169.15 245.52C169.5 245.12 169.95 244.3 169.89 243.85C169.74 242.74 170.32 241.39 171.46 241.15C172.6 240.91 174.25 240.69 175 242.38C175.28 243.02 175.43 243.45 175.5 243.75C175.57 243.45 175.72 243.02 176 242.38C176.75 240.69 178.4 240.91 179.54 241.15C180.68 241.39 181.26 242.74 181.11 243.85C181.05 244.3 181.5 245.12 181.85 245.52C182.2 245.93 183.26 245.82 183.82 245.6C184.35 245.38 184.8 244.2 184.84 243.84C184.87 243.44 184.7 242.79 184.39 242.72C183.69 242.57 183.47 243.33 183.02 243.51C182.58 243.69 181.95 243.27 181.95 243.27C181.95 243.27 182.33 242.48 182.66 241.88C182.98 241.27 184.08 241.37 184.34 241.39C184.6 241.4 184.89 241.76 184.99 241.19C185.1 240.62 186.91 240.07 187.66 240C188.4 239.93 189 240.95 189 240.95C189 240.95 188.1 241.16 187.37 241.04ZM175.52 256.74L176.41 255.92L175.49 255.11L174.6 255.94L175.52 256.74ZM175.51 253.99L176.46 253.11L175.48 252.26L174.54 253.13L175.51 253.99Z" />
	<path id="sh9" class="shp15" d="M216 380C207.73 371.69 192 382 192 382L197 286C213.78 337.53 224.27 388.31 216 380Z" />
	<path id="sh10" class="shp15" d="M156 278L139 378C139 378 131.3 388.27 123 384C114.7 379.73 114.53 374.75 122 358C129.47 341.25 156 278 156 278Z" />
	<path id="model" class="shp16" d="M198.05 238.03C196.72 237.79 195.09 241.08 195.25 243.42C195.41 245.76 193.59 248.1 192.68 248.84C191.76 249.58 189.14 250 189.14 250C189.14 250 189.34 252.34 188.52 254.34C187.7 256.34 185.64 256.81 184.35 256.72C183.52 256.66 182.17 255.35 181.95 254.63C181.72 253.92 180.95 254.5 179.91 253.11C178.88 251.71 183.84 246.55 183.89 248.88C183.93 250.84 184.53 251.02 184.16 251.77C183.78 252.52 183.46 252.65 183.16 253.99C182.87 255.34 185.05 254.83 186.04 254.32C187.03 253.8 187.38 251.24 187.29 250.31C187.2 249.37 185.31 246.32 182.78 245.64C180.24 244.97 177.63 249.79 177.14 250.46C176.71 251.03 176.95 255.83 177.02 257.13L178.43 255.72C178.76 255.4 179.29 255.39 179.62 255.7L182.21 258.13C182.54 258.45 182.55 258.96 182.23 259.29L179.95 261.56L181.72 263.22L183.65 261.3C183.98 260.97 184.51 260.97 184.84 261.28L187.43 263.71C187.76 264.03 187.77 264.54 187.45 264.87L184.94 267.37C184.61 267.69 184.08 267.7 183.75 267.39L181.68 265.44L180.07 267.05L182.24 269.09C182.58 269.41 182.59 269.92 182.26 270.25L179.75 272.75C179.43 273.08 178.89 273.08 178.56 272.77L176.5 270.83L174.57 272.75C174.24 273.08 173.71 273.08 173.38 272.77L170.79 270.34C170.46 270.02 170.45 269.51 170.77 269.18L172.95 267.02L171.28 265.44L169.35 267.37C169.02 267.69 168.49 267.7 168.16 267.39L165.57 264.96C165.24 264.64 165.23 264.13 165.55 263.8L168.06 261.3C168.39 260.97 168.92 260.97 169.25 261.28L171.32 263.22L173.03 261.52L170.76 259.38C170.42 259.06 170.41 258.55 170.74 258.22L173.25 255.72C173.57 255.4 174.11 255.39 174.44 255.7L175.98 257.15C176.05 255.88 176.29 251.04 175.86 250.46C175.37 249.79 172.76 244.97 170.22 245.64C167.69 246.32 165.8 249.37 165.71 250.31C165.62 251.24 165.97 253.8 166.96 254.32C167.95 254.83 170.13 255.34 169.84 253.99C169.54 252.65 169.22 252.52 168.84 251.77C168.47 251.02 169.07 250.84 169.11 248.88C169.16 246.55 174.12 251.71 173.09 253.11C172.05 254.5 171.28 253.92 171.05 254.63C170.83 255.35 169.48 256.66 168.65 256.72C167.36 256.81 165.3 256.34 164.48 254.34C163.66 252.34 163.86 250 163.86 250C163.86 250 161.24 249.58 160.32 248.84C159.41 248.1 157.59 245.76 157.75 243.42C157.91 241.08 156.28 237.79 154.95 238.03C153.63 238.27 152 237.84 152 237.84C152 237.84 153.09 235.87 154.44 236.01C155.8 236.15 159.08 237.21 159.27 238.32C159.46 239.42 159.98 238.73 160.45 238.7C160.93 238.67 162.93 238.47 163.51 239.65C164.1 240.84 164.8 242.36 164.8 242.36C164.8 242.36 163.66 243.19 162.84 242.84C162.03 242.49 161.65 241 160.37 241.31C159.81 241.44 159.49 242.69 159.56 243.47C159.62 244.18 160.44 246.49 161.4 246.9C162.41 247.34 164.34 247.54 164.98 246.76C165.62 245.97 166.43 244.38 166.31 243.49C166.04 241.34 167.09 238.71 169.17 238.24C171.24 237.76 174.23 237.34 175.58 240.63C176.1 241.88 176.37 242.73 176.5 243.29C176.63 242.73 176.9 241.88 177.42 240.63C178.77 237.34 181.76 237.76 183.83 238.24C185.91 238.71 186.96 241.34 186.69 243.49C186.57 244.38 187.38 245.97 188.02 246.76C188.66 247.54 190.59 247.34 191.6 246.9C192.56 246.49 193.38 244.18 193.44 243.47C193.51 242.69 193.19 241.44 192.63 241.31C191.35 241 190.97 242.49 190.16 242.84C189.34 243.19 188.2 242.36 188.2 242.36C188.2 242.36 188.9 240.84 189.49 239.65C190.07 238.47 192.07 238.67 192.55 238.7C193.02 238.73 193.54 239.42 193.73 238.32C193.92 237.21 197.2 236.15 198.56 236.01C199.91 235.87 201 237.84 201 237.84C201 237.84 199.37 238.27 198.05 238.03ZM176.54 268.61L178.15 267L176.48 265.43L174.87 267.03L176.54 268.61ZM176.52 263.24L178.23 261.53L176.46 259.87L174.75 261.57L176.52 263.24Z" />
</svg>