<svg version="1.2" baseProfile="tiny-ps" xmlns="http://www.w3.org/2000/svg" viewBox="0 0 350 450" width="350" height="450">
	<title>fou6.svg</title>
	<style>
		tspan { white-space:pre }
		.shp0 { fill: #ccc } 
		.shp1 { fill: #ccc } 
		.shp2 { fill: #dbdbdb } 
		.shp3 { opacity: 0.102;fill: #000000 } 
		.shp4 { opacity: 0.09;fill: #000000 } 
		.shp5 { fill: #ccc } 
		.shp6 { fill: #444 } 
		.shp7 { opacity: 0.129;fill: #000000 } 
		.shp8 { opacity: 0.11;fill: #000000 } 
#shirt{opacity:1;fill:#f1f1f1;}
#hl,#hr{opacity:0;fill:#ccc;}
#beltl,#beltr{opacity:0;fill:#888;}
#shuel, #shuer{opacity:1;fill:#222;}
#legl,#legr{opacity:1;fill:#a505f5;}
#sh1{opacity:0;}
#sh2{opacity:0;}
#sh3{opacity:0.07;}
#sh4{opacity:0.07;fill:#000;}
#sh5{opacity:0.08;fill:#000;}
#sh6{opacity:0;fill:#2782a1;}
#sh7{opacity:0;fill:#2d4a54;}
#frshield,#fshield{opacity:0;fill:#888;}
#shorts{fill:#a505f5;}
	</style>
	<path id="shorts" class="shp0" d="M140 261C140 261 158.24 268.25 175.48 268.5C192.74 268.75 210 261 210 261C210 261 218.82 277.51 221 287C223.18 296.49 225 307 225 307C225 307 219.34 303.36 213 304C206.66 304.64 195.66 307.39 191 314C187.83 318.49 187 319 187 319C187 319 185.24 314.22 183 313C180.76 311.78 176.57 312.88 175 313C173.43 313.12 168.98 311.99 167 313C166.14 313.44 162 321 162 321C162 321 147.93 305.14 139 305C130.07 304.86 128.5 307.46 128 307C127.5 306.54 127.72 293.21 128 292C128.28 290.79 130.57 279.09 133 274C135.43 268.91 140 261 140 261Z" />
	<path id="legl" class="shp1" d="M163 319C161.5 321.69 156.08 333.67 155 337C153.92 340.33 153.44 349.3 153 352C152.56 354.7 149.78 366.56 148 374C146.22 381.44 146.54 394.57 147 396C147.46 397.43 144.71 399.55 143 402C141.29 404.45 132.83 401.99 130 396C127.17 390.01 119.13 393.26 120 392C120.87 390.74 120.75 389.8 122 386C123.25 382.2 123.39 368.49 123 364C122.61 359.51 121.16 345.04 121 344C120.84 342.96 121.67 341.15 122 340C122.33 338.85 126.54 328.36 127 327C127.46 325.64 128 306 128 306C147.69 297.68 164.5 316.31 163 319Z" />
	<path id="legr" class="shp1" d="M228 394C224.28 393.78 222.08 397.69 219 397C215.35 396.19 214.14 393.48 214 393C213.56 391.47 210.18 371.09 210 370C209.82 368.91 200.67 339.31 198 337C195.33 334.69 187 318 187 318C202 295.22 224.46 305.13 225 306C225.54 306.87 230.11 336.19 230 339C229.89 341.81 230.45 358.21 232 369C233.55 379.79 238.8 389.69 240 391C241.2 392.31 240.85 396.82 241 398C241.07 398.5 233.97 394.35 228 394Z" />
	<path id="shirt" class="shp2" d="M230 211C228.76 210.43 222.36 206.76 221 208C219.64 209.24 212.97 218.79 212 220C211.03 221.21 206.65 237.51 206 240C205.3 242.67 209.2 255.16 211 261C212.8 266.84 175.93 273 175.93 273L175.93 168L198 164L204 173L208 173C208 173 212.18 172.98 216.19 172.98C219.1 172.97 221.92 172.98 223 173C225.58 173.06 233 176 233 176L242 182C241.87 190.31 231.24 211.57 230 211ZM140 261C141.8 255.16 141.7 245.67 141 243C140.35 240.51 133.97 222.21 133 221C132.03 219.79 127.36 212.24 126 211C124.64 209.76 122.24 207.43 121 208C119.76 208.57 110.13 187.31 110 179L118 175C118 175 125.42 173.06 128 173C129.08 172.98 131.9 172.97 134.81 172.98C138.82 172.98 143 173 143 173L147 173L153 164L175.07 168L175.07 273C175.07 273 138.2 266.84 140 261ZM175.5 167C177.43 167 179 168.57 179 170.5L179 269.5C179 271.43 177.43 273 175.5 273C173.57 273 172 271.43 172 269.5L172 170.5C172 168.57 173.57 167 175.5 167Z" />
	<path id="sh1" class="shp3" d="M154.32 193C165.67 192.66 168.42 197.15 174.84 205C174.84 206.33 174.84 207.67 174.84 209C174.59 209 175.09 209 174.84 209C169.65 195.21 160.12 198.12 149 196C151.53 194.67 151.79 194.33 154.32 193ZM197.68 193C186.33 192.66 183.58 197.15 177.16 205C177.16 206.33 177.16 207.67 177.16 209C177.41 209 176.91 209 177.16 209C182.35 195.21 191.88 198.12 203 196C200.47 194.67 200.21 194.33 197.68 193Z" />
	<path id="sh2" fill-rule="evenodd" class="shp4" d="M142 228C155.85 225.88 167.72 228.79 174.19 215C174.19 216.33 174.19 217.67 174.19 219C166.2 226.85 162.76 231.34 148.63 231C145.47 229.67 145.16 229.33 142 228ZM209 228C195.15 225.88 183.28 228.79 176.81 215C176.81 216.33 176.81 217.67 176.81 219C184.8 226.85 188.24 231.34 202.37 231C205.53 229.67 205.84 229.33 209 228Z" />
	<path id="hl" class="shp1" d="M156 159L158 171C158 171 154.1 172.84 155 180C155.9 187.16 165.61 199.28 170 200C174.39 200.72 175.07 273.74 175.07 283C175.07 292.26 129.46 281.65 130 280C130.54 278.35 139.15 264.03 140 260C141.48 253 141.24 246.3 140 243C138.7 239.55 137.28 234.57 136 231C133.09 222.9 125.96 211.94 125 211C124.04 210.06 120.29 209.6 119 211C117.71 212.4 112.91 216.44 110 219C107.09 221.56 102.84 224.71 102 226C101.16 227.29 101.4 230.47 97 229C92.6 227.53 87.19 235.32 87 239C86.81 242.68 89.35 247.73 88 249C86.65 250.27 82.7 249.17 82 252C81.3 254.83 74.06 253.49 72 251C69.94 248.51 68 240 68 240C68 240 70.65 237.12 71 234C71.35 230.88 81.8 204.93 83 203C84.2 201.07 107.8 180.16 109 179C111.79 176.31 115.57 174.32 122 173C125 172.39 142 172 142 172L156 159Z" />
	<path id="hr" class="shp1" d="M207 172C207 172 226.23 171.69 229 173C230 173.47 236.37 176.66 240 180C240.66 180.61 248.01 185.06 255 193C259.77 198.41 267.44 202.1 268 203C269.2 204.93 276.13 205.72 279 207C282.42 208.52 280 212 280 212C280 212 264.61 212.74 265 221C265.51 231.82 269.66 233.11 269 236C268.94 236.28 263.25 233.35 263 233C255.09 222.01 244.11 220.43 242 219C238.79 216.82 232.29 213.4 231 212C229.71 210.6 224.3 208.35 223 208C219.27 206.99 218.83 212.06 213 222C207.85 230.79 209.46 232.12 208 235C205.26 240.42 209.27 256.26 211 260C212.73 263.74 220.46 278.35 221 280C221.54 281.65 177 294.26 177 285C177 275.74 176.61 200.72 181 200C185.39 199.28 195.1 187.16 196 180C196.9 172.84 193 171 193 171L195 159L207 172Z" />
	<path id="beltl" class="shp5" d="M135 231C135 231 149.45 235.82 158 234C166.55 232.18 174.07 229 174.07 229L175 269C175 269 161.68 257.89 152 257C142.32 256.11 138 260 138 260C138 260 143.03 259.98 135 231Z" />
	<path id="beltr" class="shp5" d="M212 261C212 261 206.68 256.11 197 257C187.32 257.89 176 269 176 269L177 229C177 229 182.45 232.18 191 234C199.55 235.82 210 231 210 231C205.77 248.59 212 261 212 261Z" />
	<path id="fshield" class="shp6" d="M120 393C120 393 125.58 374.2 122 359C118.65 344.79 121 340 121 340L127 327L138 349C138 349 137.25 352.1 136.44 359.98C135.55 368.63 138.95 377.56 139 376C138.83 381.46 140.58 387.18 140 393C139.91 393.94 138.09 393.86 134 395C132.16 395.51 130.89 398.23 131 398C126.35 407.91 116.4 410.45 114 411C109.62 412 101.13 410.68 108 404C114.96 397.24 120 394.07 120 393Z" />
	<path id="frshield" class="shp6" d="M202 347C202 347 210.26 350.89 211 347C211.83 342.61 217 334 217 334C217 334 222.89 340.08 225.24 343.93C226.44 345.9 228 347 228 347C228 347 229.58 342.79 230 342C230.42 341.21 233.22 358.35 233 365C232.8 371.08 234.11 377.23 236 382C237.89 386.77 241.94 391.6 241 395C240.41 397.14 245.69 401.86 247 404C251.36 411.1 238.6 412.74 235 413C230.67 413.31 226.46 415.69 222 411C217.54 406.31 214.3 397.69 213 391C211.7 384.31 206.86 356.62 202 347Z" />
	<path id="shuel" class="shp6" d="M129 393C130.12 393.78 130.94 398.17 132 398C133.06 397.83 132.93 398.08 134 400C135.07 401.92 136.44 402.76 139 403C141.56 403.24 143.47 401.87 144 401C144.53 400.13 146.09 397.54 147 397C147.91 396.46 149.78 404.39 150 406C150.22 407.61 147.35 411.51 147 412C146.65 412.49 143 413 143 413L141 413C141 413 140.68 414.22 139 415C137.32 415.78 128.78 418.18 124 419C119.22 419.82 111.02 419.36 107 419C102.98 418.64 100.75 416.29 100 415C99.25 413.71 100.48 410.7 101 410C101.52 409.3 114.81 398.71 117 397C119.19 395.29 120 392 120 392C122.25 390.74 127.88 392.22 129 393Z" />
	<path id="shuer" class="shp6" d="M219 397C220.6 397.28 221.92 395.55 223 394C224.08 392.45 226.51 391.58 229 391C231.49 390.42 235.35 394.57 237 396C238.65 397.43 240.84 396.09 241 397C241.16 397.91 246.51 402.96 247 405C247.67 407.78 248.06 414.04 247 415C246.55 415.41 243.82 416.83 241 418C238.18 419.17 232.64 419 230 419C227.36 419 221.74 418.27 221 418C220.26 417.73 217.41 416.02 216 414C214.59 411.98 213.17 407.83 213 407C212.83 406.17 213.5 402.63 214 401C214.63 398.96 215 395 215 395C215.54 395.54 217.4 396.72 219 397Z" />
	<path id="sh3" class="shp7" d="M177.09 207.52C179.7 208.7 179.2 210.76 179.69 218.13C179.2 222.78 187.17 225.35 186.94 227.36C185.74 226.97 176.75 224.38 177 217C176.21 214.89 174.06 207.56 177.09 207.52L177.09 207.52ZM184.3 224.9C184.43 225.64 184.57 226.31 184.72 226.92C184.57 226.31 184.43 225.64 184.3 224.9L184.3 224.9ZM173.91 206.52C176.94 206.56 174.79 213.89 174 216C174.25 223.38 165.26 225.97 164.06 226.36C163.83 224.35 171.8 221.78 171.31 217.13C171.8 209.76 171.3 207.7 173.91 206.52L173.91 206.52ZM166.7 223.9C166.57 224.64 166.43 225.31 166.28 225.92C166.43 225.31 166.57 224.64 166.7 223.9L166.7 223.9Z" />
	<path id="sh4" fill-rule="evenodd" class="shp3" d="M211 190C218 191 221.28 200.8 229 200C230.8 203.6 223.32 203.44 220.63 206.87C219.07 208.85 218.36 211.94 217 214C214.18 218.27 211.97 222.24 210 226C202.68 243.09 209.49 262.63 220 279C219 279.67 218 280.33 217 281C212.5 284.18 197.83 287.11 191 284C197.5 282.88 201.6 280.28 204 275C207.27 265.04 189.7 232.24 184 225C215.82 230.15 216.87 209.03 210.14 204.68C206.83 202.53 201.39 198.85 198 199C172.45 192.98 209.81 194.17 211 190ZM188 285C189 285 190 285 191 285C190 285 189 285 188 285Z" />
	<path id="sh5" fill-rule="evenodd" class="shp8" d="M146.76 201.12C143.39 201.46 138.54 205.9 135.57 208.5C129.54 213.78 134.26 234.71 165 225C164.12 226.53 162.29 228.95 160.24 231.92C158.23 234.85 145.93 237.99 145.28 242.03C141.93 262.6 141.97 268.83 144 275C146.4 280.28 153.5 282.88 160 284C153.17 287.11 138.5 284.18 134 281C133 280.33 132 279.67 131 279C139.3 266.08 144.54 256.98 138.16 240.66C136.84 237.28 137.68 231.83 136 228C133.5 224.56 133.54 222.54 130.14 218.72C128.49 216.87 126.83 211.74 125 210C121.84 207 113.74 214.83 115 211C120.29 205.45 125.81 196.11 132.59 194.1C141.2 205.31 167.68 173.03 146.76 201.12ZM163 285C162 285 161 285 160 285C161 285 162 285 163 285Z" />
	<path id="sh6" fill-rule="evenodd" class="shp8" d="M97 196C97.43 202.88 94.16 212.08 97 216C92.11 215.06 91.81 204.98 87 207C86 207.67 89 211.33 88 212C87.84 218.3 78.71 224.93 78 229C76.79 235.94 84.05 239.09 86 247C81.3 249.7 81.13 250.14 74 251C73.67 250 71.33 249 71 248C69.48 245.55 69.22 243.61 69 241C68.67 237.19 72.37 232.37 74.5 225.51C76.31 219.72 80.32 210.68 83 205C86.11 198.42 108.05 182.15 113 176C115.33 176.67 122.67 173.33 125 174C124.67 174.67 116.33 180.33 116 181C110 184 115.74 175.6 102 189C102.67 191.33 100.33 197.67 101 200C99 200 99 196 97 196Z" />
	<path id="sh7" fill-rule="evenodd" class="shp8" d="M231 201C230.33 203.33 235.67 206.67 235 209C236.05 211.6 242.28 215.21 244 214C246 213 248 212 250 211C249.67 213 251.33 216 251 218C253.67 218.33 259.21 226.34 257 218C259.23 213.76 259.95 215.48 264 213C265 213 269.53 209.38 271 212C261.05 219.71 259.93 221.49 266 233C259.26 225.88 249.65 221.44 239.61 216.61C233.34 213.59 227.74 209.32 222 207C222 206.33 224 206.67 224 206C228.33 204.67 226.67 202.33 231 201Z" />
</svg>