<svg class="svg-g3" version="1.2" baseProfile="tiny-ps" xmlns="http://www.w3.org/2000/svg" viewBox="0 0 200 148" width="200" height="148">
	<title>g3</title>
	<defs>
		<linearGradient id="grd1" gradientUnits="userSpaceOnUse"  x1="102" y1="56.44" x2="102" y2="101.56">
			<stop offset="0.62" stop-color="#5e5e5e" stop-opacity="0.6" />
		</linearGradient>
		
		<radialGradient id="grd2" cx="48%" cy="0%" r="100.03998401278722%" >
     <stop offset="0%" style="stop-color:rgb(151,4,143);stop-opacity:0.57" />
     <stop offset="100%" style="stop-color:rgb(7,58,187);stop-opacity:0.00" />

    </radialGradient>
				
				
	</defs>
	<style>
		tspan { white-space:pre }
		.shp0 { fill: #89b555; } 
		.shp1 { fill: url(#grd2) } 
		.shp2 { fill: #2d2e2c }


.svg-g3 path,
.svg-g3 polygon,
.svg-g3 rect {
  fill:url(#grd2) ;
}

.svg-g3 circle {
  stroke: #4691f6;
  stroke-width: 3;
}

		#mst{opacity:.4;stroke: #4691f6;
  stroke-width: 3;}
	</style>
	<path id="mst" class="shp0 dostoke" d="M149.54 96.25C149.54 96.25 126.32 102 122.68 102C116.94 102 107.87 83.79 99.13 83.79C90.97 83.79 83.11 102 78.52 102C75.96 102 53.51 96.25 53.51 96.25C47.74 96.25 44 91.53 44 85.71L44 66.54L44.05 66.54C44.54 60.64 49.43 56 55.41 56C55.41 56 83.71 57.92 84.96 57.92C90.83 57.92 108.32 57.92 116.17 57.92C118.57 57.92 148.59 56 148.59 56C154.57 56 159.46 60.64 159.95 66.54L160 66.54L160 85.71C160 91.53 155.31 96.25 149.54 96.25Z" />
	<path id="lrns" class="shp1" d="M149 95.92C149 95.92 126.05 101.56 122.44 101.56C116.77 101.56 107.8 83.7 99.16 83.7C91.1 83.7 83.32 101.56 78.79 101.56C76.26 101.56 54.06 95.92 54.06 95.92C48.35 95.92 44.66 91.29 44.66 85.58L44.66 66.78L44.71 66.78C45.19 60.99 50.03 56.44 55.94 56.44C55.94 56.44 83.92 58.32 85.15 58.32C90.96 58.32 108.25 58.32 116.01 58.32C118.38 58.32 148.06 56.44 148.06 56.44C153.97 56.44 158.81 60.99 159.29 66.78L159.34 66.78L159.34 85.58C159.34 91.29 154.71 95.92 149 95.92Z" />
	<path id="frame" fill-rule="evenodd" class="shp2" d="M152 97C152 97 127.58 103 123.75 103C117.72 103 108.17 84 98.98 84C90.4 84 82.13 103 77.3 103C74.62 103 51 97 51 97C44.92 97 41 92.08 41 86L41 66L41.05 66C41.56 59.84 46.71 55 53 55C53 55 82.76 57 84.07 57C90.26 57 108.65 57 116.91 57C119.42 57 151 55 151 55C157.29 55 162.44 59.84 162.95 66L163 66L163 86C163 92.08 158.08 97 152 97ZM160 85.12L160 67.63L159.95 67.63C159.46 62.24 154.57 58 148.59 58C148.59 58 118.57 59.75 116.17 59.75C108.32 59.75 90.83 59.75 84.96 59.75C83.71 59.75 55.41 58 55.41 58C49.43 58 44.54 62.24 44.05 67.63L44 67.63L44 85.12C44 90.44 47.74 94.75 53.51 94.75C53.51 94.75 75.96 100 78.52 100C83.11 100 90.97 83.37 99.13 83.37C107.87 83.37 116.94 100 122.68 100C126.32 100 149.54 94.75 149.54 94.75C155.31 94.75 160 90.44 160 85.12Z" />
</svg>