<svg version="1.2" baseProfile="tiny-ps" xmlns="http://www.w3.org/2000/svg" viewBox="0 0 200 148" width="200" height="148">
	<title>gl1</title>
	<defs>
		<linearGradient id="grd1" gradientUnits="userSpaceOnUse"  x1="73.023" y1="82.432" x2="68.124" y2="59.383">
			<stop offset="0" stop-color="#5881c6" stop-opacity="0.6" />
			<stop offset="1" stop-color="#000000" stop-opacity="0.4" />
		</linearGradient>
		<linearGradient id="grd2" gradientUnits="userSpaceOnUse"  x1="130.236" y1="83.252" x2="125.337" y2="60.203">
			<stop offset="0" stop-color="#5881c6" stop-opacity="0.6" />
			<stop offset="1" stop-color="#000000" stop-opacity="0.4" />
		</linearGradient>
	</defs>
	<style>
		tspan { white-space:pre }
		.shp0 { fill: url(#grd1) } 
		.shp1 { fill: url(#grd2) } 
		.shp2 { fill: #000000 } 
	</style>
	<path id="lenl" class="shp0" d="M90.25 73.71L89.94 77.99C86.45 81.57 84.68 81.56 82.26 82.43L62.67 80.36C57.58 79.43 48.71 77.67 50.93 70.66L51.26 68.42C51.91 63.89 49.97 57.52 63.98 59.9L85.89 63.7C90.82 64.41 90.96 68.78 90.25 73.71Z" />
	<path id="lenr" class="shp1" d="M112.47 64.52L134.38 60.72C148.39 58.34 146.45 64.71 147.1 69.24L147.43 71.48C149.65 78.49 140.78 80.25 135.69 81.18L116.1 83.25C113.68 82.38 111.91 82.39 108.42 78.81L108.11 74.53C107.4 69.6 107.54 65.23 112.47 64.52Z" />
	<path id="fl" class="shp2" d="M67.37 62.55L56.14 61.17L54.69 61.9L52.49 79.33L49.68 78.98L50.34 73.62L46.66 70.9L47.87 61.06L53.58 58.81L71.83 61.05L67.37 62.55Z" />
	<path id="fr" class="shp2" d="M128.17 61.05L146.42 58.81L152.13 61.06L153.34 70.9L149.66 73.62L150.32 78.98L147.51 79.33L145.31 61.9L143.86 61.17L132.63 62.55L128.17 61.05Z" />
	<path id="fc " class="shp2" d="M87 67L113 67L109.85 68.33L90.15 68.33L87 67ZM90.15 69.67L108.27 69.67L106.08 71L92.35 71L90.15 69.67Z" />
</svg>