<svg version="1.2" baseProfile="tiny-ps" xmlns="http://www.w3.org/2000/svg" viewBox="0 0 200 148" width="200" height="148">
	<title>gl10</title>
	<defs>
		<linearGradient id="grd1" gradientUnits="userSpaceOnUse"  x1="162.055" y1="41.089" x2="162.055" y2="55.092">
			<stop offset="0.62" stop-color="#5e5e5e" stop-opacity="0.6" />
		</linearGradient>
		<linearGradient id="grd2" gradientUnits="userSpaceOnUse"  x1="60.561" y1="56.196" x2="60.561" y2="86.286">
			<stop offset="0.62" stop-color="#5e5e5e" stop-opacity="0.6" />
		</linearGradient>
		<linearGradient id="grd3" gradientUnits="userSpaceOnUse"  x1="140.437" y1="57.187" x2="140.437" y2="87.281">
			<stop offset="0.62" stop-color="#5e5e5e" stop-opacity="0.6" />
		</linearGradient>
	</defs>
	<style>
		tspan { white-space:pre }
		.shp0 { fill: #1c1b1b } 
		.shp1 { fill: #57ff15 } 
		.shp2 { fill: url(#grd1) } 
		.shp3 { fill: url(#grd2) } 
		.shp4 { fill: #387221 } 
		.shp5 { fill: url(#grd3) } 
		.shp6 { opacity: 1;fill: #d4f3ae } 
	</style>
	<path id="y" class="shp0" d="M100.5 66C114.03 66.06 125.03 70.06 125 76.5C125.02 84.31 114.44 75.9 100.13 75.42C86.16 76 76.28 83.79 76 76.5C76.03 69.86 86.97 66.1 100.5 66L100.5 66Z" />
	<path id="z" class="shp1" d="M100.5 63C114.03 63.06 125.03 67.06 125 73.5C125.02 81.31 114.44 72.9 100.13 72.42C86.16 73 76.28 80.79 76 73.5C76.03 66.86 86.97 63.1 100.5 63L100.5 63Z" />
	<path id="l" class="shp0" d="M156.3 62.61L164.85 59.8L166.1 63.6L157.55 66.41L156.3 62.61ZM162.48 54.93L166.48 54.74L166.9 63.73L162.91 63.92L162.48 54.93Z" />
	<path id="sml" fill-rule="evenodd" class="shp0" d="M160.03 40.33C165.02 38.7 170.39 41.41 172.02 46.39C173.66 51.38 170.95 56.75 165.96 58.38C160.98 60.02 155.61 57.31 153.97 52.32C152.33 47.34 155.05 41.97 160.03 40.33ZM156.67 50.91C157.7 54.06 161.09 55.78 164.24 54.74C167.39 53.71 169.1 50.32 168.07 47.17C167.03 44.02 163.64 42.31 160.49 43.34C157.35 44.37 155.63 47.76 156.67 50.91Z" />
	<path id="smlin" fill-rule="evenodd" class="shp1" d="M159.72 39.38C164.71 37.75 170.07 40.46 171.71 45.44C173.35 50.43 170.64 55.8 165.65 57.43C160.67 59.07 155.3 56.36 153.66 51.37C152.02 46.39 154.74 41.02 159.72 39.38ZM156.35 49.96C157.39 53.11 160.78 54.82 163.93 53.79C167.08 52.76 168.79 49.37 167.75 46.22C166.72 43.07 163.33 41.36 160.18 42.39C157.03 43.42 155.32 46.81 156.35 49.96Z" />
	<path id="lh" class="shp2" d="M159.87 41.44C163.54 40.23 167.5 42.23 168.7 45.91C169.91 49.58 167.91 53.53 164.24 54.74C160.57 55.95 156.61 53.95 155.4 50.28C154.2 46.6 156.2 42.65 159.87 41.44Z" />
	<path id="m1" fill-rule="evenodd" class="shp0" d="M63.51 51.92C75.49 51.92 85.19 61.63 85.19 73.6C85.19 85.58 75.49 95.28 63.51 95.28C51.54 95.28 41.83 85.58 41.83 73.6C41.83 61.63 51.54 51.92 63.51 51.92ZM48.02 72.99C48.02 80.52 54.4 86.62 62.28 86.62C70.15 86.62 76.53 80.52 76.53 72.99C76.53 65.47 70.15 59.37 62.28 59.37C54.4 59.37 48.02 65.47 48.02 72.99Z" />
	<path id="lens" class="shp3" d="M60.56 56.2C69.24 56.2 76.27 62.93 76.27 71.24C76.27 79.55 69.24 86.29 60.56 86.29C51.89 86.29 44.85 79.55 44.85 71.24C44.85 62.93 51.89 56.2 60.56 56.2Z" />
	<path id="top" fill-rule="evenodd" class="shp4" d="M62.33 50.59C73.74 50.59 82.98 59.84 82.98 71.24C82.98 82.65 73.74 91.89 62.33 91.89C50.93 91.89 41.68 82.65 41.68 71.24C41.68 59.84 50.93 50.59 62.33 50.59ZM47.58 70.65C47.58 77.82 53.66 83.63 61.15 83.63C68.65 83.63 74.72 77.82 74.72 70.65C74.72 63.48 68.65 57.67 61.15 57.67C53.66 57.67 47.58 63.48 47.58 70.65Z" />
	<path id="ts" fill-rule="evenodd" class="shp1" d="M61.15 51.48C71.42 51.48 79.74 59.8 79.74 70.06C79.74 80.33 71.42 88.65 61.15 88.65C50.89 88.65 42.57 80.33 42.57 70.06C42.57 59.8 50.89 51.48 61.15 51.48ZM47.88 69.53C47.88 75.97 53.34 81.2 60.08 81.2C66.82 81.2 72.29 75.97 72.29 69.53C72.29 63.08 66.82 57.86 60.08 57.86C53.34 57.86 47.88 63.08 47.88 69.53Z" />
	<path id="m2" fill-rule="evenodd" class="shp0" d="M137.48 52.91C149.45 52.91 159.16 62.62 159.16 74.59C159.16 86.57 149.45 96.28 137.48 96.28C125.52 96.28 115.81 86.57 115.81 74.59C115.81 62.62 125.52 52.91 137.48 52.91ZM124.47 74C124.47 81.52 130.85 87.62 138.72 87.62C146.59 87.62 152.97 81.52 152.97 74C152.97 66.48 146.59 60.37 138.72 60.37C130.85 60.37 124.47 66.48 124.47 74Z" />
	<path id="len2" class="shp5" d="M140.44 57.19C149.12 57.19 156.16 63.92 156.16 72.23C156.16 80.54 149.12 87.28 140.44 87.28C131.76 87.28 124.72 80.54 124.72 72.23C124.72 63.92 131.76 57.19 140.44 57.19Z" />
	<path id="top2" fill-rule="evenodd" class="shp4" d="M138.67 51.59C150.07 51.59 159.31 60.84 159.31 72.25C159.31 83.66 150.07 92.91 138.67 92.91C127.27 92.91 118.03 83.66 118.03 72.25C118.03 60.84 127.27 51.59 138.67 51.59ZM126.28 71.64C126.28 78.81 132.35 84.62 139.84 84.62C147.33 84.62 153.41 78.81 153.41 71.64C153.41 64.47 147.33 58.66 139.84 58.66C132.35 58.66 126.28 64.47 126.28 71.64Z" />
	<path id="ts2" fill-rule="evenodd" class="shp1" d="M139.84 52.47C150.11 52.47 158.44 60.79 158.44 71.06C158.44 81.33 150.11 89.66 139.84 89.66C129.57 89.66 121.25 81.33 121.25 71.06C121.25 60.79 129.57 52.47 139.84 52.47ZM128.72 70.52C128.72 76.96 134.18 82.19 140.92 82.19C147.66 82.19 153.13 76.96 153.13 70.52C153.13 64.07 147.66 58.84 140.92 58.84C134.18 58.84 128.72 64.07 128.72 70.52Z" />
	<path id="q" class="shp6" d="M58 53C59.1 53 60 53.9 60 55C60 56.1 59.1 57 58 57C56.9 57 56 56.1 56 55C56 53.9 56.9 53 58 53ZM71 56C72.1 56 73 56.9 73 58C73 59.1 72.1 60 71 60C69.9 60 69 59.1 69 58C69 56.9 69.9 56 71 56ZM75 72.62C76.31 72.62 77.38 73.69 77.38 75C77.38 76.31 76.31 77.38 75 77.38C73.69 77.38 72.62 76.31 72.62 75C72.62 73.69 73.69 72.62 75 72.62ZM63 82.62C64.31 82.62 65.38 83.69 65.38 85C65.38 86.31 64.31 87.38 63 87.38C61.69 87.38 60.62 86.31 60.62 85C60.62 83.69 61.69 82.62 63 82.62Z" />
	<path id="qr" class="shp6" d="M143 54C144.1 54 145 54.9 145 56C145 57.1 144.1 58 143 58C141.9 58 141 57.1 141 56C141 54.9 141.9 54 143 54ZM130 57C131.1 57 132 57.9 132 59C132 60.1 131.1 61 130 61C128.9 61 128 60.1 128 59C128 57.9 128.9 57 130 57ZM126 73.62C127.31 73.62 128.37 74.69 128.37 76C128.37 77.31 127.31 78.37 126 78.37C124.69 78.37 123.62 77.31 123.62 76C123.62 74.69 124.69 73.62 126 73.62ZM138 83.62C139.31 83.62 140.37 84.69 140.37 86C140.37 87.31 139.31 88.37 138 88.37C136.69 88.37 135.62 87.31 135.62 86C135.62 84.69 136.69 83.62 138 83.62Z" />
</svg>