<svg version="1.2" baseProfile="tiny-ps" xmlns="http://www.w3.org/2000/svg" viewBox="0 0 200 148" width="200" height="148">
	<title>gl3</title>
	<style>
		tspan { white-space:pre }
		.shp0 { fill: #000000 } 
		.shp1 { opacity: 0.122;fill: #ffffff } 
	</style>
	<path id="scar" class="shp0" d="M67.55 50.37L70 52.99C70 52.99 63.46 66.73 57.31 73.07C51.15 79.41 51.61 91.41 50.38 87.04C49.16 82.68 51.2 77.44 51.2 77.44L67.55 52.99L65.1 51.24L69.18 46L67.55 50.37Z" />
	<path id="scar2" class="shp0" d="M73.03 48.63L74.63 51.86C74.63 51.86 65.77 70.4 59.68 78.55C53.65 86.61 53.42 96.42 52.6 93.44C51.72 90.21 53.81 84.76 53.81 84.76L72.38 52.33L70.46 50.34L75.77 41.81L73.03 48.63Z" />
	<path id="tach" class="shp0" d="M66.05 85.33C59.8 84.44 54.41 81.87 50.77 78.45C47.24 75.14 46.82 68.68 48.28 63.86C50.07 57.97 54.28 56.68 60.65 55.1C64.84 54.05 69.01 56.04 73.73 57.47C80.02 59.38 85.42 63.79 89 68C92.28 71.85 93.03 71.35 91.64 75.96C89.89 81.73 85.69 82.14 79.92 84.16C75.91 85.56 71.1 86.05 66.05 85.33Z" />
	<path id="shine" class="shp1" d="M50 73C50 73 51.72 73.9 56 78C60.28 82.1 69.25 82.58 77 82C84.75 81.42 91.09 74.59 91 75C90.91 75.41 88.16 79 85 81C81.84 83 68.56 85.51 61 83C53.44 80.49 50 73 50 73L50 73Z" />
</svg>