<svg version="1.2" baseProfile="tiny-ps" xmlns="http://www.w3.org/2000/svg" viewBox="0 0 200 148" width="200" height="148">
	<title>gl4</title>
	<style>
		tspan { white-space:pre }
		.shp0 { fill: #000000 } 
		.shp1 { fill: #fffd55 } 
	</style>
	<path id="sr" class="shp0" d="M150.35 71.6C150.28 71.94 149.99 72.3 149.5 72.66L138.9 79.56L138.42 92.32C138.41 92.55 138.39 92.72 138.37 92.82C138.3 93.16 138.15 93.44 137.93 93.64C137.72 93.84 137.44 93.91 137.1 93.84C136.81 93.78 136.51 93.62 136.2 93.35L126.56 85.28L114.51 88.85C114.13 88.98 113.79 89.01 113.48 88.95C113.16 88.88 112.94 88.71 112.82 88.44C112.7 88.16 112.68 87.86 112.75 87.51C112.79 87.3 112.83 87.13 112.87 87.02L117.5 75.13L113.46 69L85.54 69L81.5 75.13L86.13 87.02C86.17 87.13 86.21 87.3 86.25 87.51C86.32 87.86 86.3 88.16 86.18 88.44C86.06 88.71 85.84 88.88 85.52 88.95C85.21 89.01 84.87 88.98 84.49 88.85L72.44 85.28L62.8 93.35C62.49 93.62 62.19 93.78 61.9 93.84C61.56 93.91 61.28 93.84 61.07 93.64C60.85 93.44 60.7 93.16 60.63 92.82C60.61 92.72 60.59 92.55 60.58 92.32L60.1 79.56L49.5 72.66C49.01 72.3 48.72 71.94 48.65 71.6C48.53 70.99 48.9 70.52 49.77 70.18L61.52 65.87L64.63 53.53C64.8 52.8 65.12 52.38 65.61 52.28C66.09 52.18 66.55 52.43 67 53.04L74.76 63.13L87.25 62.42C88.18 62.38 88.71 62.67 88.84 63.27C88.91 63.63 88.79 64.07 88.46 64.59L88.18 65L110.82 65L110.54 64.59C110.21 64.07 110.09 63.63 110.16 63.27C110.29 62.67 110.82 62.38 111.75 62.42L124.24 63.13L132 53.04C132.45 52.43 132.91 52.18 133.39 52.28C133.88 52.38 134.2 52.8 134.37 53.53L137.48 65.87L149.23 70.18C150.1 70.52 150.47 70.99 150.35 71.6Z" />
	<path id="sil" class="shp1" d="M81.45 65.52C82.07 65.5 82.43 65.69 82.51 66.1C82.56 66.34 82.48 66.63 82.25 66.98L77.59 74.04L80.69 82.01C80.72 82.08 80.75 82.19 80.78 82.33C80.83 82.57 80.81 82.77 80.73 82.96C80.65 83.14 80.5 83.25 80.29 83.3C80.08 83.34 79.85 83.32 79.6 83.23L71.53 80.84L65.07 86.24C64.86 86.43 64.66 86.54 64.46 86.58C64.23 86.62 64.05 86.58 63.9 86.44C63.76 86.31 63.66 86.12 63.61 85.89C63.6 85.83 63.58 85.71 63.57 85.55L63.26 77.01L56.15 72.38C55.82 72.14 55.63 71.9 55.59 71.67C55.5 71.27 55.75 70.95 56.33 70.73L64.21 67.84L66.29 59.57C66.4 59.08 66.62 58.8 66.94 58.73C67.27 58.66 67.58 58.83 67.88 59.24L73.07 66L81.45 65.52L81.45 65.52Z" />
	<path id="sir" class="shp1" d="M117.55 65.52L125.93 66L131.12 59.24C131.42 58.83 131.73 58.66 132.06 58.73C132.38 58.8 132.6 59.08 132.71 59.57L134.79 67.84L142.67 70.73C143.25 70.95 143.5 71.27 143.41 71.67C143.37 71.9 143.18 72.14 142.85 72.38L135.74 77.01L135.43 85.55C135.42 85.71 135.4 85.83 135.39 85.89C135.34 86.12 135.24 86.31 135.1 86.44C134.95 86.58 134.77 86.62 134.54 86.58C134.34 86.54 134.14 86.43 133.93 86.24L127.47 80.84L119.4 83.23C119.15 83.32 118.92 83.34 118.71 83.3C118.5 83.25 118.35 83.14 118.27 82.96C118.19 82.77 118.17 82.57 118.22 82.33C118.25 82.19 118.28 82.08 118.31 82.01L121.41 74.04L116.75 66.98C116.52 66.63 116.44 66.34 116.49 66.1C116.57 65.69 116.93 65.5 117.55 65.52L117.55 65.52Z" />
</svg>