<svg version="1.2" baseProfile="tiny-ps" xmlns="http://www.w3.org/2000/svg" viewBox="0 0 200 148" width="200" height="148">
	<title>gl5</title>
	<style>
		tspan { white-space:pre }
		.shp0 { fill: #eafc52 } 
		.shp1 { fill: #f80968 } 
	</style>
	<path id="fr" class="shp0" d="M148.22 72.02C147.97 73.04 147.54 74.05 146.93 75.04C146.32 76.04 145.69 76.86 145.05 77.51C144.41 78.17 143.72 78.78 142.97 79.37C142.22 79.95 141.68 80.35 141.35 80.56C141.02 80.77 140.76 80.92 140.58 81.01L123.08 91.35C122.74 91.56 122.37 91.62 121.98 91.53C121.58 91.43 121.28 91.21 121.07 90.88L110.13 73.8C109.37 72.55 108.77 71.36 108.29 70.19C101.98 68.23 95.89 68.28 89.58 70.51C89.13 71.58 88.56 72.67 87.87 73.8L76.93 90.88C76.72 91.21 76.42 91.43 76.02 91.53C75.63 91.62 75.26 91.56 74.92 91.35L57.42 81.01C57.24 80.92 56.98 80.77 56.65 80.56C56.32 80.35 55.78 79.95 55.03 79.37C54.28 78.78 53.59 78.17 52.95 77.51C52.31 76.86 51.68 76.04 51.07 75.04C50.46 74.05 50.03 73.04 49.78 72.02C48.99 68.67 49.33 65.83 50.81 63.48C52.29 61.13 54.73 59.55 58.13 58.74C59.08 58.52 60.08 58.45 61.14 58.55C62.19 58.64 63.21 58.86 64.19 59.22C65.16 59.57 66.01 59.92 66.74 60.26C67.46 60.6 68.16 60.98 68.84 61.4C69.26 60.72 69.71 60.07 70.2 59.43C70.69 58.8 71.3 58.11 72.01 57.35C72.72 56.6 73.52 55.94 74.43 55.38C75.33 54.82 76.25 54.42 77.19 54.2C80.6 53.39 83.49 53.69 85.87 55.12C88.25 56.55 89.84 58.93 90.64 62.28C90.78 62.89 90.85 63.53 90.88 64.17C96.29 64.17 101.71 64.17 107.12 64.17C107.15 63.53 107.22 62.89 107.36 62.28C108.16 58.93 109.75 56.55 112.13 55.12C114.51 53.69 117.4 53.39 120.81 54.2C121.75 54.42 122.67 54.82 123.57 55.38C124.48 55.94 125.28 56.6 125.99 57.35C126.7 58.11 127.31 58.8 127.8 59.43C128.29 60.07 128.74 60.72 129.16 61.4C129.84 60.98 130.54 60.6 131.26 60.26C131.99 59.92 132.84 59.57 133.81 59.22C134.79 58.86 135.81 58.64 136.86 58.55C137.92 58.45 138.92 58.52 139.87 58.74C143.27 59.55 145.71 61.13 147.19 63.48C148.67 65.83 149.01 68.67 148.22 72.02Z" />
	<path id="in" class="shp1" d="M76.37 89.02C76.18 89.32 75.91 89.51 75.56 89.6C75.21 89.68 74.88 89.63 74.58 89.44L59.01 80.24C58.84 80.16 58.62 80.03 58.32 79.84C58.03 79.65 57.55 79.3 56.88 78.78C56.21 78.26 55.59 77.71 55.03 77.13C54.46 76.55 53.9 75.81 53.36 74.93C52.81 74.04 52.43 73.15 52.21 72.24C51.5 69.26 51.8 66.73 53.12 64.64C54.44 62.55 56.61 61.14 59.64 60.42C60.48 60.22 61.37 60.16 62.31 60.25C63.26 60.33 64.16 60.53 65.03 60.84C65.9 61.16 66.65 61.47 67.3 61.77C67.94 62.08 68.57 62.41 69.17 62.79C69.54 62.18 69.94 61.6 70.38 61.04C70.82 60.47 71.36 59.86 71.99 59.18C72.62 58.51 73.34 57.92 74.14 57.43C74.95 56.93 75.77 56.58 76.61 56.38C79.64 55.65 82.21 55.93 84.33 57.2C86.45 58.47 87.86 60.59 88.57 63.57C89.28 66.56 88.46 69.98 86.1 73.82L76.37 89.02L76.37 89.02ZM121.63 89.02L111.9 73.82C109.54 69.98 108.72 66.56 109.43 63.57C110.14 60.59 111.55 58.47 113.67 57.2C115.79 55.93 118.36 55.65 121.39 56.38C122.23 56.58 123.05 56.93 123.86 57.43C124.66 57.92 125.38 58.51 126.01 59.18C126.64 59.86 127.18 60.47 127.62 61.04C128.06 61.6 128.46 62.18 128.83 62.79C129.43 62.41 130.06 62.08 130.7 61.77C131.35 61.47 132.1 61.16 132.97 60.84C133.84 60.53 134.74 60.33 135.69 60.25C136.63 60.16 137.52 60.22 138.36 60.42C141.39 61.14 143.56 62.55 144.88 64.64C146.2 66.73 146.5 69.26 145.79 72.24C145.57 73.15 145.19 74.04 144.64 74.93C144.1 75.81 143.54 76.55 142.97 77.13C142.41 77.71 141.79 78.26 141.12 78.78C140.45 79.3 139.97 79.65 139.68 79.84C139.38 80.03 139.16 80.16 138.99 80.24L123.42 89.44C123.12 89.63 122.79 89.68 122.44 89.6C122.09 89.51 121.82 89.32 121.63 89.02L121.63 89.02Z" />
</svg>