<svg version="1.2" baseProfile="tiny-ps" xmlns="http://www.w3.org/2000/svg" viewBox="0 0 200 148" width="200" height="148">
	<title>gl6</title>
	<style>
		tspan { white-space:pre }
		.shp0 { fill: #f80968 } 
		.shp1 { fill: #eafc52 } 
	</style>
	<path id="sout" class="shp0" d="M145.8 88.66C143.77 86.78 141.6 85.06 139.34 83.48C139.31 83.95 139.26 84.42 139.13 84.9C138.5 87.24 137.02 89.01 134.7 90.21C132.39 91.42 129.69 91.82 126.6 91.44L125.52 95.46C125.46 95.67 125.33 95.83 125.12 95.92C124.92 96.01 124.69 96.03 124.42 95.96L120.63 94.96C120.39 94.9 120.2 94.77 120.06 94.58C119.92 94.38 119.88 94.19 119.93 93.99L121.02 89.97C119.82 89.5 118.69 88.95 117.63 88.31C116.57 87.67 115.71 87.08 115.06 86.54C114.4 86 113.81 85.45 113.28 84.89C112.74 84.33 112.39 83.93 112.2 83.68C112.02 83.44 111.89 83.26 111.82 83.14C111.59 82.74 111.66 82.42 112.02 82.18L115.75 79.84C115.92 79.73 116.16 79.69 116.47 79.74C116.76 79.78 116.96 79.91 117.09 80.12L117.13 80.18C118.84 82.26 120.85 83.81 123.18 84.85C123.84 85.16 124.51 85.4 125.2 85.58C126.72 85.98 128.14 86 129.47 85.65C130.8 85.29 131.63 84.51 131.95 83.3C132.07 82.87 132.04 82.43 131.86 81.97C131.68 81.52 131.45 81.11 131.18 80.76C130.9 80.41 130.43 79.98 129.77 79.47C129.1 78.95 128.55 78.55 128.11 78.24C127.67 77.94 126.99 77.49 126.07 76.9C125.41 76.47 124.88 76.12 124.5 75.88C124.41 75.82 124.29 75.74 124.19 75.67C111.61 71.12 97.51 70.14 84.1 72.92C84.4 73.11 84.66 73.31 84.89 73.52C85.35 73.95 85.77 74.48 86.17 75.11C86.56 75.74 86.84 76.44 87.01 77.22C87.52 79.59 87.02 81.83 85.51 83.94C84 86.05 81.78 87.63 78.85 88.67L79.74 92.74C79.78 92.96 79.74 93.15 79.6 93.33C79.45 93.5 79.25 93.62 78.99 93.68L75.15 94.49C74.91 94.54 74.68 94.51 74.47 94.4C74.25 94.29 74.13 94.14 74.08 93.93L73.2 89.87C71.92 89.99 70.66 90.01 69.42 89.91C68.19 89.82 67.15 89.68 66.32 89.49C65.48 89.3 64.7 89.07 63.97 88.82C63.24 88.56 62.74 88.36 62.46 88.22C62.19 88.09 61.99 87.98 61.88 87.91C61.48 87.65 61.4 87.34 61.61 86.97L63.86 83.21C63.96 83.03 64.16 82.89 64.45 82.79C64.73 82.7 64.97 82.72 65.18 82.86L65.25 82.89C67.72 83.98 70.23 84.46 72.78 84.34C73.51 84.32 74.22 84.23 74.92 84.08C76.45 83.76 77.73 83.14 78.75 82.22C79.77 81.31 80.15 80.24 79.88 79.02C79.79 78.58 79.56 78.2 79.19 77.88C78.82 77.55 78.44 77.29 78.03 77.1C77.62 76.91 77 76.74 76.18 76.58C75.35 76.42 74.67 76.31 74.14 76.23C73.89 76.2 73.56 76.16 73.18 76.11C65.64 78.98 58.55 83.14 52.37 88.66C49.14 78.88 46.78 69.07 52.37 58.94C55.3 59.63 58.34 60.24 61.44 60.8C62.75 59.65 64.35 58.68 66.29 57.94L65.39 53.76C65.34 53.56 65.4 53.36 65.54 53.18C65.69 52.99 65.89 52.88 66.13 52.82L69.97 52.01C70.23 51.96 70.47 51.98 70.67 52.08C70.87 52.19 70.99 52.35 71.04 52.56L71.93 56.66C73.03 56.52 74.11 56.48 75.18 56.53C76.25 56.58 77.13 56.66 77.82 56.78C78.51 56.9 79.17 57.07 79.81 57.27C80.45 57.48 80.87 57.62 81.07 57.71C81.26 57.8 81.43 57.88 81.56 57.95C81.95 58.16 82.06 58.44 81.9 58.8L80.33 62.68C80.23 62.95 80.04 63.12 79.76 63.19C79.73 63.2 79.71 63.2 79.69 63.21C92.29 64.3 105.33 64.37 117.7 63.38C118.42 61.79 119.67 60.53 121.53 59.62C123.79 58.51 126.45 58.11 129.52 58.42L130.63 54.29C130.68 54.09 130.82 53.94 131.04 53.84C131.25 53.74 131.48 53.72 131.73 53.79L135.52 54.79C135.78 54.86 135.97 54.98 136.11 55.16C136.24 55.35 136.27 55.54 136.22 55.76L135.13 59.8C135.9 60.08 136.64 60.41 137.35 60.77C140.25 60.22 143.09 59.62 145.8 58.94C153.01 70.22 149.57 79.38 145.8 88.66ZM78.48 63C78.23 62.91 77.82 62.78 77.24 62.62C76.66 62.46 76.05 62.33 75.42 62.23C74.78 62.13 74.03 62.07 73.17 62.07C72.41 62.07 71.69 62.14 70.98 62.27C73.56 62.6 76.17 62.88 78.8 63.12C78.72 63.09 78.61 63.05 78.48 63Z" />
	<path id="sin" class="shp1" d="M141.47 67.06L138.61 69.54C138.42 69.71 138.2 69.77 137.94 69.72C137.7 69.69 137.48 69.59 137.3 69.39C137.26 69.34 137.16 69.22 137 69.05C136.84 68.87 136.56 68.6 136.16 68.24C135.76 67.88 135.33 67.53 134.86 67.19C134.39 66.85 133.82 66.51 133.13 66.16C132.44 65.8 131.74 65.53 131.03 65.35C129.43 64.93 128.04 64.88 126.87 65.21C125.7 65.53 124.99 66.16 124.74 67.1C124.64 67.46 124.63 67.81 124.69 68.15C124.75 68.49 124.92 68.84 125.2 69.21C125.48 69.57 125.75 69.88 126.02 70.15C126.28 70.42 126.69 70.76 127.26 71.16C127.82 71.57 128.28 71.89 128.64 72.13C128.99 72.36 129.53 72.7 130.25 73.16C131.07 73.67 131.69 74.07 132.12 74.35C132.55 74.63 133.13 75.04 133.85 75.58C134.57 76.12 135.12 76.58 135.52 76.96C135.91 77.34 136.34 77.83 136.81 78.41C137.27 78.99 137.6 79.54 137.79 80.07C137.98 80.6 138.1 81.2 138.16 81.86C138.22 82.53 138.15 83.2 137.97 83.89C137.4 86 136.07 87.6 133.98 88.68C131.9 89.76 129.47 90.13 126.69 89.78L125.72 93.4C125.67 93.59 125.55 93.73 125.36 93.82C125.18 93.9 124.97 93.91 124.73 93.85L121.32 92.95C121.1 92.89 120.93 92.78 120.8 92.61C120.68 92.43 120.64 92.26 120.69 92.08L121.66 88.46C120.59 88.04 119.57 87.55 118.62 86.97C117.66 86.39 116.89 85.86 116.3 85.37C115.71 84.89 115.18 84.39 114.7 83.89C114.22 83.39 113.9 83.03 113.73 82.8C113.57 82.58 113.45 82.42 113.39 82.32C113.18 81.95 113.24 81.66 113.57 81.45L116.92 79.35C117.08 79.24 117.29 79.21 117.57 79.25C117.83 79.29 118.02 79.41 118.13 79.6L118.17 79.65C119.7 81.52 121.52 82.92 123.61 83.86C124.2 84.13 124.81 84.35 125.43 84.51C126.8 84.87 128.08 84.89 129.27 84.57C130.47 84.25 131.21 83.55 131.51 82.46C131.61 82.07 131.58 81.67 131.42 81.26C131.26 80.85 131.06 80.49 130.81 80.17C130.56 79.86 130.14 79.47 129.54 79.01C128.94 78.55 128.45 78.18 128.05 77.91C127.66 77.63 127.04 77.23 126.21 76.7C125.61 76.31 125.14 76 124.8 75.78C124.45 75.55 123.98 75.23 123.39 74.82C122.8 74.4 122.33 74.05 121.99 73.76C121.64 73.47 121.23 73.1 120.76 72.65C120.28 72.2 119.91 71.79 119.64 71.42C119.37 71.04 119.1 70.61 118.82 70.11C118.53 69.62 118.34 69.14 118.24 68.68C118.14 68.22 118.09 67.71 118.08 67.16C118.08 66.62 118.15 66.06 118.3 65.49C118.81 63.59 120.09 62.14 122.13 61.14C124.16 60.14 126.56 59.79 129.31 60.07L130.32 56.35C130.36 56.17 130.49 56.03 130.68 55.94C130.88 55.86 131.08 55.84 131.3 55.9L134.71 56.8C134.95 56.86 135.13 56.97 135.24 57.14C135.36 57.3 135.4 57.48 135.34 57.67L134.36 61.31C135.3 61.65 136.19 62.05 137.03 62.52C137.86 62.99 138.54 63.42 139.04 63.79C139.54 64.17 140.01 64.57 140.43 64.99C140.86 65.41 141.14 65.7 141.26 65.85C141.38 66 141.48 66.13 141.56 66.24C141.78 66.56 141.75 66.84 141.47 67.06ZM78.23 87.13L79.02 90.79C79.06 90.99 79.02 91.16 78.9 91.32C78.77 91.48 78.59 91.58 78.35 91.63L74.9 92.36C74.68 92.41 74.47 92.38 74.28 92.29C74.09 92.19 73.97 92.05 73.93 91.87L73.14 88.21C71.99 88.32 70.86 88.33 69.74 88.25C68.63 88.16 67.69 88.03 66.94 87.86C66.19 87.69 65.49 87.49 64.84 87.26C64.18 87.03 63.73 86.85 63.48 86.73C63.23 86.6 63.05 86.51 62.95 86.44C62.59 86.21 62.52 85.93 62.71 85.6L64.73 82.22C64.82 82.05 65 81.93 65.27 81.84C65.52 81.76 65.73 81.78 65.92 81.9L65.98 81.93C68.21 82.9 70.47 83.34 72.76 83.23C73.41 83.21 74.06 83.13 74.69 83C76.07 82.71 77.22 82.15 78.14 81.33C79.05 80.51 79.39 79.54 79.16 78.44C79.07 78.05 78.86 77.71 78.53 77.41C78.2 77.12 77.85 76.89 77.49 76.72C77.12 76.55 76.56 76.39 75.82 76.25C75.08 76.11 74.47 76 73.99 75.94C73.51 75.87 72.78 75.79 71.8 75.69C71.08 75.61 70.52 75.54 70.11 75.5C69.7 75.45 69.14 75.38 68.42 75.28C67.7 75.17 67.12 75.07 66.68 74.97C66.24 74.86 65.7 74.72 65.07 74.53C64.45 74.34 63.93 74.14 63.51 73.93C63.1 73.72 62.66 73.45 62.18 73.14C61.7 72.82 61.31 72.48 61.01 72.12C60.71 71.75 60.43 71.32 60.17 70.84C59.92 70.35 59.73 69.82 59.6 69.25C59.18 67.33 59.65 65.46 61.01 63.66C62.37 61.85 64.34 60.46 66.92 59.48L66.11 55.71C66.07 55.53 66.12 55.35 66.25 55.19C66.38 55.02 66.56 54.91 66.78 54.87L70.23 54.14C70.47 54.09 70.68 54.11 70.86 54.2C71.04 54.29 71.15 54.44 71.2 54.63L71.99 58.32C72.98 58.19 73.96 58.15 74.92 58.2C75.88 58.24 76.68 58.32 77.3 58.43C77.92 58.54 78.52 58.69 79.09 58.87C79.67 59.06 80.04 59.19 80.22 59.27C80.4 59.35 80.55 59.42 80.67 59.48C81.01 59.67 81.11 59.92 80.97 60.25L79.56 63.74C79.47 63.98 79.29 64.13 79.04 64.2C78.81 64.29 78.57 64.29 78.32 64.2C78.26 64.17 78.12 64.11 77.89 64.03C77.67 63.94 77.3 63.83 76.78 63.68C76.26 63.54 75.71 63.42 75.14 63.33C74.56 63.24 73.89 63.19 73.11 63.19C72.34 63.18 71.59 63.26 70.88 63.41C69.26 63.75 68 64.33 67.11 65.15C66.22 65.96 65.87 66.85 66.08 67.8C66.16 68.16 66.3 68.48 66.51 68.75C66.72 69.03 67.04 69.27 67.45 69.46C67.87 69.66 68.26 69.82 68.61 69.94C68.97 70.06 69.49 70.18 70.19 70.28C70.88 70.39 71.43 70.47 71.85 70.52C72.27 70.57 72.91 70.64 73.77 70.72C74.73 70.81 75.47 70.88 75.98 70.94C76.49 71 77.19 71.11 78.08 71.26C78.97 71.42 79.68 71.58 80.21 71.74C80.73 71.91 81.34 72.15 82.02 72.45C82.7 72.76 83.25 73.11 83.66 73.5C84.07 73.88 84.46 74.36 84.81 74.93C85.17 75.49 85.42 76.13 85.57 76.82C86.03 78.96 85.58 80.97 84.22 82.87C82.86 84.77 80.86 86.19 78.23 87.13Z" />
</svg>