<svg version="1.2" baseProfile="tiny-ps" xmlns="http://www.w3.org/2000/svg" viewBox="0 0 200 148" width="200" height="148">
	<title>gl7a</title>
	<defs>
		<linearGradient id="grd1" gradientUnits="userSpaceOnUse"  x1="150.951" y1="58.747" x2="150.951" y2="110.762">
			<stop offset="0.62" stop-color="#5e5e5e" stop-opacity="0.6" />
			<stop offset="50%" stop-color="#5e5e5e" stop-opacity="0.3" />
			<stop offset="100%" stop-color="#5e5e5e" stop-opacity="0" />
		</linearGradient>
	</defs>
	<style>
		tspan { white-space:pre }
		.shp0 { fill: #393a37 } 
		.shp1 { fill: url(#grd1) } 
		.shp2 { fill: #89b555 } 
		.shp3 { fill: #454842 }
		.iris { fill: #fa0f25 }
		.vjos { fill: #cccccc;opacity:.4; }
		.shpm3{fill: #f92bbc}
		.zaeye{ fill: #222222;}
	</style>
	<path id="m1" class="shp0" d="M158.41 109.23C158.26 109.23 157.99 110.33 157.84 110.31L147.83 114C147.83 114 148.7 103.87 147.68 94.11C146.98 87.45 137.8 84.17 137.53 87.58C137.18 91.95 121.73 89.75 121.73 89.75C121.73 89.75 120.19 78.49 117.22 80C115.25 81.01 111.29 77.42 110.45 75.67C107.61 69.79 109.26 65.2 112.69 65C125.77 64.24 143.27 59.21 144.74 58.14C148.49 55.42 156.81 58.36 156.98 58.67C157.44 58.48 157.92 58.35 158.41 58.35C163.71 58.35 168 69.74 168 83.79C168 97.84 163.71 109.23 158.41 109.23Z" />
	<path id="shade" class="shp1" d="M156.15 59.44C163.88 60.99 166.87 70.58 166.87 84.33C166.87 98.08 161.73 107.33 156.15 109.23C151.31 110.88 149.77 112.03 149.94 108.15C150.12 104.16 149.8 95.72 149.94 90.83C150.11 85.04 150.44 79.14 147.69 76.76C145.95 75.26 137.4 82.6 136.4 80C134.28 74.49 133.83 62.71 140.92 60.52C145.64 59.06 148.93 57.99 156.15 59.44Z" />
	<path id="m2" class="zaeye" d="M117.22 69.18C117.22 69.18 140.09 66.1 145.43 62.68C150.77 59.26 149.24 66.29 147.69 69.18C146.14 72.07 130.76 80 130.76 80C130.76 80 126.93 80.36 122.86 78.92C119.33 77.68 115.53 74.72 114.96 73.51C113.74 70.9 117.22 69.18 117.22 69.18Z" />
	<path id="m3" class="shpm3" d="M151.25 74.45L146.76 74.81L152 70.04L151.25 74.45ZM154.79 77.52L149.93 77.85L155.6 73.49L154.79 77.52ZM158.18 80.77L153.31 81.1L158.99 76.74L158.18 80.77Z" />
	<path id="vjos" class="vjos" d="M153.33 104.9C153.85 105.84 156.8 104.38 157.84 103.82C158.88 103.26 162.36 88.66 162.36 88.66C162.36 88.66 164.58 86.47 164.61 88.66C164.68 93.17 162.11 101.63 161.23 103.82C159.39 108.39 151.07 109.23 151.07 109.23L151.07 97.32C151.07 97.32 152.81 103.97 153.33 104.9Z" />
	<path id="iris" class="iris" d="M121.17 71.04C120.57 68.11 123.46 68.4 126.82 67.77C130.19 67.13 132.75 65.81 133.35 68.74C134.59 74.79 122.41 77.08 121.17 71.04Z" />
</svg>