<svg version="1.2" baseProfile="tiny-ps" xmlns="http://www.w3.org/2000/svg" viewBox="0 0 200 148" width="200" height="148">
	<title>greenbeard.svg</title>
	<style>
		tspan { white-space:pre }
		.s0 { opacity: .4;fill: #000000 } 
		.s1 { fill: #48810c } 
		.s2 { opacity: .2;fill: #000000 } 
	</style>
	<path id="toplip" class="s0" d="m114.97 34.36c-2.96-0.87-8.48-2.32-11.54-2.18c-0.62 0.03-1.17 0.02-1.67-0.02c-0.28 0.18-0.61 0.28-0.97 0.28h-3.58c-0.36 0-0.69-0.11-0.97-0.28c-0.5 0.04-1.06 0.05-1.67 0.02c-3.07-0.15-8.58 1.31-11.54 2.18c-2.96 0.87-0.3-1.96-0.3-1.96c0 0 11.34-6.39 12.57-5.96c1.23 0.43 3.51 1.87 3.51 1.87l0.09 0.56h0.22l0.09-0.56c0 0 2.27-1.44 3.51-1.87c1.23-0.43 12.57 5.96 12.57 5.96c0 0 2.66 2.83-0.3 1.96z" />
	<path id="bottomlip" class="s0" d="m100 43.28c-0.19 0.08-0.39 0.12-0.6 0.12h-0.4c-0.21 0-0.42-0.04-0.6-0.12c-1.67 0.02-6.49-0.26-10.57-3.63c0 0 5.28 1.66 7.25 1.3c1.08-0.2 2.24-0.37 3.06-0.48c0.25-0.16 0.55-0.26 0.87-0.26h0.4c0.32 0 0.62 0.1 0.87 0.26c0.82 0.11 1.98 0.28 3.06 0.48c1.97 0.36 7.25-1.3 7.25-1.3c-4.09 3.37-8.91 3.64-10.57 3.63z" />
	<path id="bw2" class="s1" d="m127.8 33.98c0 0-7.79 11.55-16.72 19.19c-1.02 0.87-10.83 2.42-11.38 1.67c-0.22 0.63-13.76-0.96-15.11-2.27c-6.1-5.93-12.6-10.58-12.6-10.58c0 0 0.26-0.49 0.66-1.27c-0.37 0.17-0.75 0.27-1.16 0.27c-1.93 0-3.5-2.01-3.5-4.5c0-0.76 0.16-1.47 0.42-2.1c-0.86-0.55-1.42-1.41-1.42-2.4c0-0.45 0.12-0.87 0.33-1.25c-0.8-0.27-1.33-0.73-1.33-1.25c0-0.83 1.34-1.5 3-1.5c0.02 0 0.05 0 0.07 0c-0.05-0.16-0.07-0.33-0.07-0.5c0-1.38 1.57-2.5 3.5-2.5c0.17 0 0.34 0.01 0.5 0.03c0-0.01 0-0.02 0-0.03c0-1.66 1.57-3 3.5-3c1.02 0 1.93 0.38 2.57 0.98c0.29-1.13 1.49-1.98 2.93-1.98c0.37 0 0.72 0.06 1.05 0.17c0.23-1.22 1.68-2.17 3.45-2.17c0.38 0 0.73 0.05 1.07 0.13c0.63-0.68 1.7-1.13 2.93-1.13c1 0 1.89 0.31 2.52 0.79c0.11-1 0.95-1.79 1.98-1.79c0.5 0 0.95 0.19 1.3 0.49c0.54-0.88 1.77-1.49 3.2-1.49c1.36 0 2.52 0.56 3.1 1.36c0.42-0.22 0.89-0.36 1.4-0.36c1.35 0 2.47 0.89 2.85 2.12c0.05-0.01 0.11-0.01 0.16-0.02c0-0.03-0.01-0.07-0.01-0.1c0-1.1 0.67-2 1.5-2c0.83 0 1.5 0.9 1.5 2c0 0.11-0.01 0.22-0.02 0.33c0.07 0.03 0.13 0.06 0.2 0.09c0.51-0.26 1.13-0.42 1.82-0.42c1.66 0 3 0.9 3 2c0 0.43-0.21 0.83-0.56 1.16c0.01 0.01 0.03 0.02 0.04 0.03c0.47-0.12 0.98-0.19 1.52-0.19c2.21 0 4 1.12 4 2.5c0 0 0 0.01 0 0.01c0.22 0.17 0.41 0.38 0.57 0.61c0.46-0.68 1.15-1.12 1.93-1.12c1.38 0 2.5 1.34 2.5 3c0 0.36-0.06 0.7-0.16 1.01c0.05 0 0.1-0.01 0.16-0.01c1.47 0 2.68 0.88 2.94 2.04c1.17 0.17 2.06 0.98 2.06 1.96c0 1.02-0.96 1.86-2.2 1.98zm-27.8-8.98c-6.06-0.22-16.77 3.14-21.98 4.93c0.6 0.54 0.98 1.27 0.98 2.07c0 0.82-0.39 1.57-1.02 2.11c0.83 2.67 3.44 7.73 6.19 10.37c3.79 3.65 7.83 4.51 7.83 4.51l5-7h5c0 0 3.15 6.82 6 7c2.32 0.14 11.46-9.53 12.11-15.03c-1.19-0.15-2.11-0.97-2.11-1.97c0-0.48 0.22-0.92 0.58-1.27c-4.95-3.31-10.59-5.44-18.58-5.73zm-24 14l13 12l11 1l13-3l7-11c0 0 5.37-11.2 7.14 7.03c0.69 7.16 0.16 2.64 0.86 10.97c0.41 4.9-4.59 20.14-7.11 14.77c-5.65-12.05-3.84-17.75-20.89-17.77c-20.45-0.02-14.66 5.45-22.03 17.85c-3.64 6.12-8.14-14.58-8.97-18.85c-1.27-6.53 1-14 1-14l6 1zm-22.01-2.76c0 0 14.31-7.85 18.39-12.48c4.07-4.62 4.25 4.73 4.25 4.73c0 0-15.56 7.66-22.63 7.75zm66.75-6.7c0 0-0.78-9.32 3.74-5.14c4.52 4.19 19.56 10.54 19.56 10.54c-7.05 0.63-23.31-5.4-23.31-5.4z" />
	<path id="bar2shd" fill-rule="evenodd" class="s2" d="m122 25c4 1.67 7.49 4.35 12 5c6.75 4.7 0 2.67 0 3c-10.83-3.62-10.34 4.97-10 13c0 1-6 4-6 5c0.33 0 0.67 0 1 0c2.33-1 4.67-2 7-3c0.81 8.26-0.53 14.33-3 21c-0.67 0-1.33 0-2 0c-0.97-9.01-4.64-12.54-10-17c-4 0.33-8 1.67-12 2c-0.06-4.73 0.13-7.66 2-10c1.71 4.37 4.66 7.35 10 5c11.22-6.64 9.34-17.59 11-24z" />
</svg>