<svg version="1.2" baseProfile="tiny-ps" xmlns="http://www.w3.org/2000/svg" viewBox="0 0 200 175" width="200" height="175" style="transform: translate(-3px,3px);">
	<title>hair18c</title>
	<style>
		tspan { white-space:pre }
		.shp0 { fill: #111111 } 
		.shp1 { fill: #a0f042 } 
	</style>
	<path id="hair17" class="shp0" d="M174.92 125.65C174.9 125.75 174.88 125.85 174.85 125.95C172.31 133.82 163.94 142.97 158.81 147.15C158.74 147.21 158.67 147.26 158.59 147.32C162.38 143.6 166.85 136.26 169.31 128.37C164.77 135.48 159.41 142.31 152 145C140.44 149.19 143.52 147.45 147.55 140.8C154.29 129.7 170.07 107.4 164 88C156.12 62.8 130.5 51.46 120 55C114.19 56.96 107 63 107 63C107 63 103.87 64.04 101.74 63.45C101.84 63.66 101.92 63.77 102 63.72C102 63.72 101.94 64.16 101.44 64.53C101.19 64.72 100.82 64.88 100.3 64.96C100.04 65 99.74 65.02 99.41 65C99.07 64.99 98.7 64.94 98.29 64.84C98.08 64.98 96.85 57.86 91.81 51.57C87.94 46.11 81.35 41.26 76.97 39.42C77.04 39.44 77.1 39.46 77.17 39.48C81.77 41 89.95 44.88 93.85 49.08C94.61 50.01 95.28 50.9 95.9 51.76C92.56 46.33 87.08 38.04 82.35 33.8C86.02 36.43 91.1 40.39 94 44C94.57 44.71 95.1 45.39 95.6 46.04C93.57 37.3 92 29 92 29C92 29 143.22 13.92 166 41C173.77 50.23 181.27 60.59 183 73C184.61 78.03 184.51 86.08 185 96C184.94 105.55 178.81 118.93 174.92 125.65ZM176.9 111.9C176.78 115.43 176.32 119.72 175.15 124.68C177.2 119.45 178.82 111.69 179.07 103.67C178.48 106.47 177.75 109.22 176.9 111.9ZM153.43 150.48C153.21 150.56 153.1 150.59 153.09 150.59C153.09 150.59 153.18 150.56 153.36 150.49C154.07 150.22 156.07 149.33 158.59 147.32C157.75 148.15 156.94 148.82 156.2 149.25C154.78 150 153.88 150.32 153.43 150.48ZM72.37 38.5C72.37 38.49 72.45 38.49 72.63 38.5C72.97 38.51 73.66 38.54 74.82 38.71C75.44 38.84 76.18 39.08 76.97 39.42C74.72 38.69 73.13 38.54 72.57 38.51C72.43 38.5 72.36 38.5 72.37 38.5ZM80 32C80.75 32.45 81.54 33.07 82.35 33.8C78.36 30.92 76.03 29.61 80 32Z" />
	<path id="shine" class="shp1" d="M173 77C184.58 98.06 161.46 130.95 168 110C179.9 71.87 142 54 142 54C142 54 162.41 57.75 173 77Z" />
</svg>