<svg version="1.2" baseProfile="tiny-ps" xmlns="http://www.w3.org/2000/svg" viewBox="0 0 200 175" width="200" height="175" style="transform:translateY(15px);">
	<title>hair16</title>
	<defs>
		<linearGradient id="grd1" gradientUnits="userSpaceOnUse"  x1="99.163" y1="44.603" x2="99.163" y2="57.458">
				<stop offset="0%" stop-color="rgb(0,0,0)" stop-opacity="0.4" />
  <stop offset="40%" stop-color="rgb(0,0,0)" stop-opacity="0.35" />
		<stop offset="42%" stop-color="rgb(0,0,0)" stop-opacity="0.7" />
  <stop offset="50%" stop-color="rgb(0,0,0)" stop-opacity="0.32" />
		<stop offset="52%" stop-color="rgb(0,0,0)" stop-opacity="0.7" />
		<stop offset="99%" stop-color="rgb(0,0,0)" stop-opacity="0.3" />
		<stop offset="109%" stop-color="rgb(0,0,0)" stop-opacity="0.36" />
		</linearGradient>
	</defs>
	<style>
		tspan { white-space:pre }
		.shp0 { fill: url(#grd1) } 
		.shp1 { fill: #000000 } 
	</style>
	<path id="blending" class="shp0" d="M100.94 30.3C134.98 30.41 152.14 51.71 163 70C166.59 75.8 141.33 59.9 100 59C79.92 58.53 76.67 55.51 57 67C45.42 73.87 34.76 71.42 35 71C49.24 45.87 66.14 30.06 100.94 30.3L100.94 30.3Z" />
	<path id="dreds" class="shp1" d="M38.81 71.28C38.7 71.2 38.62 71.09 38.53 70.98C38.07 71.45 37.55 71.72 37.05 71.67C36.72 71.63 36.42 71.47 36.18 71.2C35.93 70.93 35.73 70.56 35.59 70.12C35.32 69.24 35.31 68.09 35.63 66.91C36.29 64.57 37.91 63 39.05 63.09C39.72 63.15 40.11 63.8 40.25 64.8C40.85 64.19 41.46 63.8 42.01 63.62C41.85 63.56 41.71 63.48 41.59 63.36C41.52 63.28 41.47 63.19 41.43 63.09C41.03 63.37 40.61 63.48 40.25 63.36C39.29 63.04 39.12 61.3 39.86 59.62C40.57 57.94 41.92 56.94 42.8 57.22C43.32 57.39 43.54 57.96 43.51 58.75C44.47 58.07 45.36 57.9 45.83 58.4C46.43 59.06 46.21 60.73 45.09 62.16C44.48 62.93 43.72 63.43 43.04 63.62C43.12 63.66 43.19 63.69 43.27 63.74C44.23 64.41 44.38 66.65 43.19 68.79C42.88 69.32 42.53 69.79 42.14 70.19C41.76 70.59 41.35 70.91 40.94 71.14C40.14 71.59 39.36 71.68 38.81 71.28L38.81 71.28ZM45.4 57.73C45.35 57.66 45.32 57.58 45.29 57.49C44.92 57.7 44.56 57.77 44.26 57.64C43.5 57.31 43.51 55.76 44.22 54.32C44.4 53.96 44.61 53.64 44.84 53.37C44.95 53.24 45.07 53.11 45.2 53C45.32 52.89 45.44 52.8 45.57 52.71C46.08 52.38 46.6 52.27 47 52.44C47.47 52.63 47.65 53.17 47.56 53.87C48.46 53.35 49.28 53.27 49.65 53.76C50.13 54.39 49.72 55.81 48.55 56.95C47.38 58.09 45.89 58.45 45.4 57.73L45.4 57.73ZM49.63 53.38C49.58 53.32 49.55 53.25 49.53 53.17C49.18 53.35 48.84 53.41 48.57 53.29C47.87 53 47.84 51.65 48.44 50.37C48.59 50.05 48.77 49.77 48.97 49.53C49.07 49.41 49.18 49.3 49.29 49.2C49.4 49.11 49.51 49.02 49.62 48.95C50.07 48.66 50.55 48.56 50.93 48.72C50.98 48.73 51.02 48.77 51.06 48.8C50.98 48.17 51.41 47.29 52.2 46.67C52.68 46.28 53.2 46.05 53.65 45.99C53.88 45.96 54.09 45.96 54.27 46.02C54.46 46.07 54.62 46.16 54.73 46.3C54.93 46.54 54.96 46.88 54.85 47.25C55.22 47.19 55.58 47.2 55.87 47.28C56.02 47.32 56.15 47.38 56.26 47.46C56.37 47.54 56.46 47.63 56.52 47.75C56.88 48.38 56.22 49.35 55.05 49.94C54.62 50.16 54.18 50.29 53.78 50.34C53.95 50.98 53.53 51.95 52.62 52.75C51.5 53.72 50.09 54.01 49.63 53.38ZM51.56 50.01C51.85 49.85 52.13 49.75 52.4 49.7C52.38 49.61 52.37 49.53 52.38 49.43C52.04 49.52 51.73 49.53 51.5 49.43C51.54 49.6 51.57 49.79 51.56 50.01L51.56 50.01ZM161.19 71.28C160.64 71.68 159.86 71.59 159.06 71.14C158.65 70.91 158.24 70.59 157.86 70.19C157.47 69.79 157.12 69.32 156.81 68.79C155.62 66.65 155.77 64.41 156.73 63.74C156.81 63.69 156.88 63.66 156.96 63.62C156.28 63.43 155.52 62.93 154.91 62.16C153.79 60.73 153.57 59.06 154.17 58.4C154.64 57.9 155.53 58.07 156.49 58.75C156.46 57.96 156.68 57.39 157.2 57.22C158.08 56.94 159.43 57.94 160.14 59.62C160.88 61.3 160.71 63.04 159.75 63.36C159.39 63.48 158.97 63.37 158.57 63.09C158.53 63.19 158.48 63.28 158.41 63.36C158.29 63.48 158.15 63.56 157.99 63.62C158.54 63.8 159.15 64.19 159.75 64.8C159.89 63.8 160.28 63.15 160.95 63.09C162.09 63 163.71 64.57 164.37 66.91C164.69 68.09 164.68 69.24 164.41 70.12C164.27 70.56 164.07 70.93 163.82 71.2C163.58 71.47 163.28 71.63 162.95 71.67C162.45 71.72 161.93 71.45 161.47 70.98C161.38 71.09 161.3 71.2 161.19 71.28L161.19 71.28ZM154.6 57.73C154.65 57.66 154.68 57.58 154.71 57.49C155.08 57.7 155.44 57.77 155.74 57.64C156.5 57.31 156.49 55.76 155.78 54.32C155.6 53.96 155.39 53.64 155.16 53.37C155.05 53.24 154.93 53.11 154.8 53C154.68 52.89 154.56 52.8 154.43 52.71C153.92 52.38 153.39 52.27 153 52.44C152.53 52.63 152.35 53.17 152.44 53.87C151.54 53.35 150.72 53.27 150.35 53.76C149.87 54.39 150.28 55.81 151.45 56.95C152.62 58.09 154.11 58.45 154.6 57.73L154.6 57.73ZM150.37 53.38C150.42 53.32 150.45 53.25 150.47 53.17C150.82 53.35 151.16 53.41 151.43 53.29C152.13 53 152.16 51.65 151.56 50.37C151.41 50.05 151.23 49.77 151.03 49.53C150.93 49.41 150.82 49.3 150.71 49.2C150.6 49.11 150.49 49.02 150.38 48.95C149.93 48.66 149.45 48.56 149.07 48.72C149.02 48.73 148.98 48.77 148.94 48.8C149.02 48.17 148.59 47.29 147.8 46.67C147.32 46.28 146.8 46.05 146.35 45.99C146.12 45.96 145.91 45.96 145.73 46.02C145.54 46.07 145.38 46.16 145.27 46.3C145.07 46.54 145.04 46.88 145.15 47.25C144.78 47.19 144.42 47.2 144.13 47.28C143.98 47.32 143.85 47.38 143.74 47.46C143.63 47.54 143.54 47.63 143.48 47.75C143.12 48.38 143.78 49.35 144.95 49.94C145.38 50.16 145.82 50.29 146.22 50.34C146.05 50.98 146.47 51.95 147.38 52.75C148.5 53.72 149.91 54.01 150.37 53.38ZM148.44 50.01C148.15 49.85 147.87 49.75 147.6 49.7C147.62 49.61 147.63 49.53 147.62 49.43C147.96 49.52 148.27 49.53 148.5 49.43C148.46 49.6 148.43 49.79 148.44 50.01L148.44 50.01ZM144.63 46.02C144.95 47.57 144.44 48.92 143.47 48.99C143.09 49.01 142.71 48.84 142.36 48.53C142.29 48.6 142.23 48.67 142.15 48.72C141.3 49.23 139.82 48.44 138.88 46.97C138.12 45.77 137.99 44.54 138.45 43.91C138.01 43.7 137.56 43.37 137.15 42.95C136.05 41.82 135.71 40.45 136.37 39.91C136.83 39.54 137.64 39.66 138.44 40.13C138.44 39.69 138.58 39.33 138.88 39.17C139.55 38.79 140.76 39.47 141.6 40.7C142.29 41.7 142.53 42.77 142.26 43.39C142.31 43.38 142.36 43.35 142.42 43.35C143.35 43.34 144.33 44.52 144.63 46.02ZM140.49 43.51C140.46 43.61 140.42 43.7 140.36 43.79C140.66 43.95 140.96 44.17 141.24 44.45C141.31 44.22 141.42 44.03 141.54 43.86C141.23 43.88 140.86 43.75 140.49 43.51ZM147.35 56.2C147.57 55.38 148.01 54.85 148.59 54.83C149.56 54.8 150.58 56.21 150.9 58.05C151.23 59.96 150.69 61.65 149.67 61.76C149.27 61.8 148.87 61.6 148.5 61.22C148.43 61.31 148.36 61.39 148.28 61.46C148.13 61.56 147.97 61.61 147.79 61.64C148.33 61.94 148.9 62.5 149.41 63.25C149.71 62.26 150.26 61.67 150.94 61.76C152.09 61.92 153.24 63.94 153.56 66.38C153.89 68.94 153.18 71.05 151.93 70.96C151.45 70.92 150.98 70.56 150.55 69.99C150.47 70.09 150.38 70.18 150.27 70.25C149.17 70.91 147.36 69.33 146.31 66.78C145.29 64.31 145.4 61.96 146.49 61.46C146.57 61.43 146.65 61.41 146.74 61.4C146.07 61.04 145.38 60.33 144.86 59.36C143.91 57.6 143.91 55.74 144.82 55.2C145.5 54.8 146.5 55.24 147.35 56.2ZM146.87 54.84C146.49 54.89 146.1 54.72 145.73 54.4C145.67 54.48 145.61 54.56 145.53 54.62C144.7 55.24 143.18 54.45 142.18 52.86C141.19 51.31 141.11 49.63 141.97 49.11C142.6 48.73 143.58 49.09 144.44 49.93C144.62 49.18 145.02 48.68 145.58 48.65C146.5 48.58 147.54 49.83 147.91 51.48C148.29 53.18 147.84 54.71 146.87 54.84ZM58.58 43.35C58.64 43.35 58.69 43.38 58.74 43.39C58.47 42.77 58.71 41.7 59.4 40.7C60.24 39.47 61.45 38.79 62.12 39.17C62.42 39.33 62.56 39.69 62.56 40.13C63.36 39.66 64.17 39.54 64.63 39.91C65.29 40.45 64.95 41.82 63.85 42.95C63.44 43.37 62.99 43.7 62.55 43.91C63.01 44.54 62.88 45.77 62.12 46.97C61.18 48.44 59.7 49.23 58.85 48.72C58.77 48.67 58.71 48.6 58.64 48.53C58.29 48.84 57.91 49.01 57.53 48.99C56.56 48.92 56.05 47.57 56.37 46.02C56.67 44.52 57.65 43.34 58.58 43.35ZM60.51 43.51C60.54 43.61 60.58 43.7 60.64 43.79C60.34 43.95 60.04 44.17 59.76 44.45C59.69 44.22 59.58 44.03 59.46 43.86C59.77 43.88 60.14 43.75 60.51 43.51ZM53.65 56.2C53.43 55.38 52.99 54.85 52.41 54.83C51.44 54.8 50.42 56.21 50.1 58.05C49.77 59.96 50.31 61.65 51.33 61.76C51.73 61.8 52.13 61.6 52.5 61.22C52.57 61.31 52.64 61.39 52.72 61.46C52.87 61.56 53.03 61.61 53.21 61.64C52.67 61.94 52.1 62.5 51.59 63.25C51.29 62.26 50.74 61.67 50.06 61.76C48.91 61.92 47.76 63.94 47.44 66.38C47.11 68.94 47.82 71.05 49.07 70.96C49.55 70.92 50.02 70.56 50.45 69.99C50.53 70.09 50.62 70.18 50.73 70.25C51.83 70.91 53.64 69.33 54.69 66.78C55.71 64.31 55.6 61.96 54.51 61.46C54.43 61.43 54.35 61.41 54.26 61.4C54.93 61.04 55.62 60.33 56.14 59.36C57.09 57.6 57.09 55.74 56.18 55.2C55.5 54.8 54.5 55.24 53.65 56.2ZM54.13 54.84C54.51 54.89 54.9 54.72 55.27 54.4C55.33 54.48 55.39 54.56 55.47 54.62C56.3 55.24 57.82 54.45 58.82 52.86C59.81 51.31 59.89 49.63 59.03 49.11C58.4 48.73 57.42 49.09 56.56 49.93C56.38 49.18 55.98 48.68 55.42 48.65C54.5 48.58 53.46 49.83 53.09 51.48C52.71 53.18 53.16 54.71 54.13 54.84ZM63.14 42.61C63.28 41.16 64.1 39.77 64.97 39.5C65.03 39.49 65.08 39.5 65.13 39.49C64.85 38.97 65.05 37.86 65.72 36.64C66.13 35.9 66.65 35.24 67.14 34.8C67.39 34.58 67.64 34.42 67.86 34.32C67.91 34.29 67.97 34.27 68.02 34.26C68.07 34.24 68.12 34.23 68.17 34.22C68.27 34.21 68.36 34.21 68.45 34.24C68.74 34.33 68.87 34.66 68.86 35.13C69.69 34.42 70.5 34.13 70.96 34.45C71.13 34.56 71.23 34.74 71.28 34.97C71.33 35.19 71.32 35.46 71.25 35.76C71.12 36.35 70.76 37.07 70.2 37.77C69.78 38.29 69.31 38.73 68.87 39.04C69.36 39.59 69.26 40.89 68.55 42.25C67.68 43.94 66.36 44.97 65.55 44.64C65.47 44.61 65.41 44.56 65.34 44.5C65.06 44.87 64.74 45.1 64.41 45.15C63.56 45.26 62.99 44.12 63.14 42.61L63.14 42.61ZM66.82 39.14C66.85 39.23 66.9 39.31 66.95 39.38C66.67 39.62 66.38 39.92 66.13 40.26C66.05 40.06 65.94 39.9 65.82 39.76C66.12 39.69 66.46 39.47 66.82 39.14L66.82 39.14ZM62.22 52.34C61.89 51.64 61.45 51.22 60.97 51.29C60.17 51.4 59.51 52.83 59.51 54.58C59.5 56.4 60.34 57.86 61.32 57.73C61.69 57.69 62.01 57.43 62.25 57.02C62.32 57.09 62.4 57.15 62.49 57.19C62.64 57.26 62.8 57.28 62.95 57.27C62.56 57.63 62.18 58.23 61.87 59.02C61.37 58.2 60.76 57.77 60.12 58.01C59.06 58.39 58.11 60.6 58.05 63.12C58.05 63.45 58.06 63.76 58.1 64.06C58.13 64.37 58.18 64.65 58.25 64.92C58.38 65.45 58.58 65.91 58.84 66.25C59.1 66.6 59.42 66.84 59.78 66.96C59.95 67.01 60.14 67.04 60.32 67.03C60.51 67.02 60.71 66.97 60.9 66.89C61.5 66.65 61.99 66.11 62.32 65.43C62.44 65.49 62.56 65.54 62.7 65.55C64.16 65.66 65.48 63.68 65.6 61.4C65.74 59.16 65.04 57.18 64.02 56.9C63.94 56.88 63.87 56.88 63.8 56.88C64.28 56.46 64.68 55.75 64.9 54.83C65.29 53.16 64.96 51.48 64.11 51.11C63.48 50.83 62.74 51.36 62.22 52.34L62.22 52.34ZM62.38 51.05C62.69 51.05 62.99 50.84 63.23 50.5C63.29 50.56 63.36 50.63 63.43 50.67C64.22 51.11 65.32 50.22 66 48.58C66.66 46.98 66.58 45.32 65.75 44.98C65.13 44.73 64.3 45.27 63.68 46.2C63.44 45.54 63.05 45.15 62.58 45.23C61.81 45.35 61.11 46.66 61.03 48.18C60.95 49.76 61.56 51.07 62.38 51.05L62.38 51.05ZM137.86 42.61C138.01 44.12 137.44 45.26 136.59 45.15C136.26 45.1 135.94 44.87 135.66 44.5C135.59 44.56 135.53 44.61 135.45 44.64C134.64 44.97 133.32 43.94 132.45 42.25C131.74 40.89 131.64 39.59 132.13 39.04C131.69 38.73 131.22 38.29 130.8 37.77C130.24 37.07 129.88 36.35 129.75 35.76C129.68 35.46 129.67 35.19 129.72 34.97C129.77 34.74 129.87 34.56 130.04 34.45C130.5 34.13 131.31 34.42 132.14 35.13C132.13 34.66 132.26 34.33 132.55 34.24C132.64 34.21 132.73 34.21 132.83 34.22C132.88 34.23 132.93 34.24 132.98 34.26C133.03 34.27 133.09 34.29 133.14 34.32C133.36 34.42 133.61 34.58 133.86 34.8C134.35 35.24 134.87 35.9 135.28 36.64C135.95 37.86 136.15 38.97 135.87 39.49C135.92 39.5 135.97 39.49 136.03 39.5C136.9 39.77 137.72 41.16 137.86 42.61L137.86 42.61ZM134.18 39.14C134.15 39.23 134.1 39.31 134.05 39.38C134.33 39.62 134.62 39.92 134.87 40.26C134.95 40.06 135.06 39.9 135.18 39.76C134.88 39.69 134.54 39.47 134.18 39.14L134.18 39.14ZM138.78 52.34C139.11 51.64 139.55 51.22 140.03 51.29C140.83 51.4 141.49 52.83 141.49 54.58C141.5 56.4 140.66 57.86 139.68 57.73C139.31 57.69 138.99 57.43 138.75 57.02C138.68 57.09 138.6 57.15 138.51 57.19C138.36 57.26 138.2 57.28 138.05 57.27C138.44 57.63 138.82 58.23 139.13 59.02C139.63 58.2 140.24 57.77 140.88 58.01C141.94 58.39 142.89 60.6 142.95 63.12C142.95 63.45 142.94 63.76 142.9 64.06C142.87 64.37 142.82 64.65 142.75 64.92C142.62 65.45 142.42 65.91 142.16 66.25C141.9 66.6 141.58 66.84 141.22 66.96C141.05 67.01 140.86 67.04 140.68 67.03C140.49 67.02 140.29 66.97 140.1 66.89C139.5 66.65 139.01 66.11 138.68 65.43C138.56 65.49 138.44 65.54 138.3 65.55C136.84 65.66 135.52 63.68 135.4 61.4C135.26 59.16 135.96 57.18 136.98 56.9C137.06 56.88 137.13 56.88 137.2 56.88C136.72 56.46 136.32 55.75 136.1 54.83C135.71 53.16 136.04 51.48 136.89 51.11C137.52 50.83 138.26 51.36 138.78 52.34L138.78 52.34ZM138.62 51.05C138.31 51.05 138.01 50.84 137.77 50.5C137.71 50.56 137.64 50.63 137.57 50.67C136.78 51.11 135.68 50.22 135 48.58C134.34 46.98 134.42 45.32 135.25 44.98C135.87 44.73 136.7 45.27 137.32 46.2C137.56 45.54 137.95 45.15 138.42 45.23C139.19 45.35 139.89 46.66 139.97 48.18C140.05 49.76 139.44 51.07 138.62 51.05L138.62 51.05ZM131.52 39.41C131.44 40.88 130.74 42.08 129.96 42.06C129.66 42.04 129.39 41.84 129.18 41.51C129.12 41.57 129.05 41.63 128.97 41.67C128.17 42.08 127.1 41.19 126.55 39.61C126.11 38.35 126.23 37.1 126.77 36.52C126.41 36.26 126.05 35.89 125.75 35.43C125.35 34.82 125.13 34.18 125.11 33.63C125.1 33.35 125.13 33.1 125.21 32.88C125.29 32.67 125.41 32.49 125.58 32.36C126.05 32.01 126.74 32.2 127.38 32.78C127.45 32.34 127.61 32.01 127.9 31.9C127.98 31.87 128.06 31.85 128.15 31.85C128.19 31.85 128.24 31.86 128.28 31.87C128.33 31.88 128.37 31.89 128.42 31.91C128.61 31.98 128.8 32.11 128.99 32.29C129.38 32.65 129.75 33.22 130.02 33.88C130.45 34.99 130.47 36.03 130.14 36.56C130.18 36.56 130.23 36.55 130.28 36.56C131.04 36.72 131.6 37.99 131.52 39.41L131.52 39.41ZM128.64 36.4C128.59 36.49 128.54 36.57 128.48 36.65C128.7 36.85 128.92 37.11 129.1 37.42C129.21 37.21 129.33 37.04 129.46 36.9C129.2 36.86 128.91 36.68 128.64 36.4L128.64 36.4ZM130.94 49.18C131.35 48.41 131.84 47.93 132.29 47.96C133.03 47.99 133.46 49.42 133.2 51.25C132.95 53.18 131.91 54.83 130.98 54.8C130.63 54.79 130.36 54.53 130.19 54.12C130.11 54.2 130.02 54.28 129.93 54.33C129.77 54.42 129.62 54.45 129.47 54.46C129.8 54.81 130.07 55.42 130.25 56.24C130.86 55.3 131.52 54.78 132.1 54.97C133.07 55.28 133.67 57.59 133.36 60.36C133.31 60.73 133.25 61.08 133.18 61.42C133.1 61.76 133.01 62.09 132.9 62.39C132.69 63 132.41 63.54 132.1 63.96C131.79 64.38 131.43 64.68 131.06 64.84C130.88 64.92 130.69 64.97 130.5 64.97C130.32 64.98 130.13 64.95 129.95 64.88C129.4 64.66 128.99 64.1 128.78 63.36C128.65 63.43 128.52 63.51 128.38 63.54C126.9 63.8 125.94 61.71 126.21 59.2C126.45 56.78 127.46 54.57 128.5 54.17C128.57 54.15 128.64 54.14 128.71 54.13C128.32 53.73 128.04 53.01 127.98 52.06C127.87 50.34 128.46 48.56 129.32 48.09C129.96 47.74 130.59 48.21 130.94 49.18L130.94 49.18ZM130.98 47.86C130.68 47.88 130.44 47.7 130.26 47.37C130.19 47.44 130.12 47.51 130.04 47.57C129.22 48.11 128.31 47.29 127.93 45.69C127.56 44.13 127.9 42.45 128.73 42.03C129.34 41.71 130.04 42.17 130.49 43.04C130.81 42.35 131.23 41.92 131.65 41.95C132.36 41.99 132.83 43.23 132.68 44.77C132.53 46.38 131.75 47.79 130.98 47.86L130.98 47.86ZM69.48 39.41C69.4 37.99 69.96 36.72 70.72 36.56C70.77 36.55 70.82 36.56 70.86 36.56C70.53 36.03 70.55 34.99 70.98 33.88C71.25 33.22 71.62 32.65 72.01 32.29C72.2 32.11 72.39 31.98 72.58 31.91C72.63 31.89 72.67 31.88 72.72 31.87C72.76 31.86 72.81 31.85 72.85 31.85C72.94 31.85 73.02 31.87 73.1 31.9C73.39 32.01 73.55 32.34 73.62 32.78C74.26 32.2 74.95 32.01 75.42 32.36C75.59 32.49 75.71 32.67 75.79 32.88C75.87 33.1 75.9 33.35 75.89 33.63C75.87 34.18 75.65 34.82 75.25 35.43C74.95 35.89 74.59 36.26 74.23 36.52C74.77 37.1 74.89 38.35 74.45 39.61C73.9 41.19 72.83 42.08 72.03 41.67C71.95 41.63 71.88 41.57 71.82 41.51C71.61 41.84 71.34 42.04 71.04 42.06C70.26 42.08 69.56 40.88 69.48 39.41L69.48 39.41ZM72.36 36.4C72.41 36.49 72.46 36.57 72.52 36.65C72.3 36.85 72.08 37.11 71.9 37.42C71.79 37.21 71.67 37.04 71.54 36.9C71.8 36.86 72.09 36.68 72.36 36.4L72.36 36.4ZM70.06 49.18C69.65 48.41 69.16 47.93 68.71 47.96C67.97 47.99 67.54 49.42 67.8 51.25C68.05 53.18 69.09 54.83 70.02 54.8C70.37 54.79 70.64 54.53 70.81 54.12C70.89 54.2 70.98 54.28 71.07 54.33C71.23 54.42 71.38 54.45 71.53 54.46C71.2 54.81 70.93 55.42 70.75 56.24C70.14 55.3 69.48 54.78 68.9 54.97C67.93 55.28 67.33 57.59 67.64 60.36C67.69 60.73 67.75 61.08 67.82 61.42C67.9 61.76 67.99 62.09 68.1 62.39C68.31 63 68.59 63.54 68.9 63.96C69.21 64.38 69.57 64.68 69.94 64.84C70.12 64.92 70.31 64.97 70.5 64.97C70.68 64.98 70.87 64.95 71.05 64.88C71.6 64.66 72.01 64.1 72.22 63.36C72.35 63.43 72.48 63.51 72.62 63.54C74.1 63.8 75.06 61.71 74.79 59.2C74.55 56.78 73.54 54.57 72.5 54.17C72.43 54.15 72.36 54.14 72.29 54.13C72.68 53.73 72.96 53.01 73.02 52.06C73.13 50.34 72.54 48.56 71.68 48.09C71.04 47.74 70.41 48.21 70.06 49.18L70.06 49.18ZM70.02 47.86C70.32 47.88 70.56 47.7 70.74 47.37C70.81 47.44 70.88 47.51 70.96 47.57C71.78 48.11 72.69 47.29 73.07 45.69C73.44 44.13 73.1 42.45 72.27 42.03C71.66 41.71 70.96 42.17 70.51 43.04C70.19 42.35 69.77 41.92 69.35 41.95C68.64 41.99 68.17 43.23 68.32 44.77C68.47 46.38 69.25 47.79 70.02 47.86L70.02 47.86ZM76.6 37.29L76.6 37.29C76.17 35.93 76.39 34.65 77.12 34.42C77.17 34.4 77.22 34.41 77.27 34.41C76.76 33.93 76.43 32.92 76.48 31.82C76.51 31.16 76.68 30.58 76.95 30.21C77.09 30.02 77.26 29.88 77.44 29.81C77.48 29.79 77.53 29.77 77.57 29.76C77.62 29.75 77.67 29.74 77.72 29.74C77.81 29.74 77.91 29.75 78.01 29.78C78.36 29.88 78.66 30.2 78.87 30.61C79.36 30.06 80.06 29.96 80.59 30.36C80.79 30.5 80.94 30.69 81.06 30.9C81.18 31.11 81.26 31.35 81.3 31.59C81.39 32.09 81.33 32.63 81.14 33.17C80.99 33.57 80.79 33.91 80.54 34.16C81.16 34.71 81.49 35.88 81.46 37.09C81.41 38.6 80.77 39.55 79.87 39.23C79.79 39.19 79.71 39.14 79.62 39.09C79.49 39.44 79.27 39.66 78.95 39.7C78.13 39.8 77.05 38.72 76.6 37.29L76.6 37.29ZM78.76 34.12C78.83 34.21 78.91 34.28 78.99 34.35C78.83 34.56 78.69 34.82 78.6 35.14C78.43 34.94 78.26 34.79 78.08 34.67C78.34 34.61 78.57 34.41 78.76 34.12L78.76 34.12L78.76 34.12ZM79.11 46.76C78.5 46.06 77.82 45.66 77.24 45.74C76.75 45.81 76.41 46.21 76.25 46.82C76.1 47.43 76.13 48.24 76.4 49.12C76.96 50.99 78.47 52.46 79.64 52.29C80.09 52.22 80.39 51.94 80.56 51.51C80.67 51.58 80.78 51.64 80.89 51.68C81.08 51.74 81.26 51.75 81.42 51.74C81.09 52.13 80.83 52.77 80.67 53.6C79.86 52.77 78.97 52.35 78.21 52.63C77.59 52.86 77.13 53.57 76.93 54.56C76.82 55.06 76.78 55.62 76.81 56.23C76.81 56.39 76.82 56.54 76.84 56.7C76.85 56.86 76.87 57.02 76.89 57.18C76.93 57.5 77 57.83 77.07 58.17C77.16 58.52 77.26 58.87 77.38 59.19C77.49 59.52 77.63 59.82 77.78 60.11C78.07 60.68 78.43 61.17 78.83 61.53C79.24 61.9 79.69 62.14 80.16 62.23C80.4 62.28 80.64 62.29 80.87 62.27C81.11 62.24 81.34 62.18 81.56 62.08C82.23 61.77 82.67 61.15 82.86 60.38C83.01 60.44 83.16 60.49 83.31 60.5C84.93 60.54 85.1 58.42 84.7 55.98C84.33 53.64 83.48 51.6 82.41 51.34C82.34 51.32 82.26 51.32 82.19 51.32C82.55 50.88 82.69 50.14 82.62 49.21C82.49 47.53 81.74 45.86 80.78 45.49C80.06 45.23 79.41 45.76 79.11 46.76L79.11 46.76L79.11 46.76ZM78.87 45.47C79.24 45.45 79.5 45.25 79.65 44.9C79.74 44.96 79.83 45.03 79.93 45.07C80.94 45.5 81.66 44.61 81.66 43.02C81.67 41.48 81.07 39.89 80.19 39.56C79.53 39.3 78.91 39.82 78.6 40.71C78.09 40.07 77.52 39.71 77.02 39.78C76.2 39.9 75.84 41.17 76.26 42.66C76.7 44.22 77.92 45.5 78.87 45.47L78.87 45.47L78.87 45.47ZM125.4 37.29C124.95 38.72 123.87 39.8 123.05 39.7C122.73 39.66 122.51 39.44 122.38 39.09C122.29 39.14 122.21 39.19 122.13 39.23C121.23 39.55 120.59 38.6 120.54 37.09C120.51 35.88 120.84 34.71 121.46 34.16C121.21 33.91 121.01 33.57 120.86 33.17C120.67 32.63 120.61 32.09 120.7 31.59C120.74 31.35 120.82 31.11 120.94 30.9C121.06 30.69 121.21 30.5 121.41 30.36C121.94 29.96 122.64 30.06 123.13 30.61C123.34 30.2 123.64 29.88 123.99 29.78C124.09 29.75 124.19 29.74 124.28 29.74C124.33 29.74 124.38 29.75 124.43 29.76C124.47 29.77 124.52 29.79 124.56 29.81C124.74 29.88 124.91 30.02 125.05 30.21C125.32 30.58 125.49 31.16 125.52 31.82C125.57 32.92 125.24 33.93 124.73 34.41C124.78 34.41 124.83 34.4 124.88 34.42C125.61 34.65 125.83 35.93 125.4 37.29L125.4 37.29L125.4 37.29ZM123.24 34.12C123.17 34.21 123.09 34.28 123.01 34.35C123.17 34.56 123.31 34.82 123.4 35.14C123.57 34.94 123.74 34.79 123.92 34.67C123.66 34.61 123.43 34.41 123.24 34.12L123.24 34.12L123.24 34.12ZM122.89 46.76C123.5 46.06 124.18 45.66 124.76 45.74C125.25 45.81 125.59 46.21 125.75 46.82C125.9 47.43 125.87 48.24 125.6 49.12C125.04 50.99 123.53 52.46 122.36 52.29C121.91 52.22 121.61 51.94 121.44 51.51C121.33 51.58 121.22 51.64 121.11 51.68C120.92 51.74 120.74 51.75 120.58 51.74C120.91 52.13 121.17 52.77 121.33 53.6C122.14 52.77 123.03 52.35 123.79 52.63C124.41 52.86 124.87 53.57 125.07 54.56C125.18 55.06 125.22 55.62 125.19 56.23C125.19 56.39 125.18 56.54 125.16 56.7C125.15 56.86 125.13 57.02 125.11 57.18C125.07 57.5 125 57.83 124.93 58.17C124.84 58.52 124.74 58.87 124.62 59.19C124.51 59.52 124.37 59.82 124.22 60.11C123.93 60.68 123.57 61.17 123.17 61.53C122.76 61.9 122.31 62.14 121.84 62.23C121.6 62.28 121.36 62.29 121.13 62.27C120.89 62.24 120.66 62.18 120.44 62.08C119.77 61.77 119.33 61.15 119.14 60.38C118.99 60.44 118.84 60.49 118.69 60.5C117.07 60.54 116.9 58.42 117.3 55.98C117.67 53.64 118.52 51.6 119.59 51.34C119.66 51.32 119.74 51.32 119.81 51.32C119.45 50.88 119.31 50.14 119.38 49.21C119.51 47.53 120.26 45.86 121.22 45.49C121.94 45.23 122.59 45.76 122.89 46.76L122.89 46.76L122.89 46.76ZM123.13 45.47C122.76 45.45 122.5 45.25 122.35 44.9C122.26 44.96 122.17 45.03 122.07 45.07C121.06 45.5 120.34 44.61 120.34 43.02C120.33 41.48 120.93 39.89 121.81 39.56C122.47 39.3 123.09 39.82 123.4 40.71C123.91 40.07 124.48 39.71 124.98 39.78C125.8 39.9 126.16 41.17 125.74 42.66C125.3 44.22 124.08 45.5 123.13 45.47L123.13 45.47L123.13 45.47ZM119.56 37.18C118.86 38.72 117.57 39.79 116.78 39.54C116.47 39.46 116.29 39.2 116.23 38.83C116.13 38.87 116.04 38.91 115.94 38.93C114.96 39.09 114.42 38.06 114.59 36.57C114.72 35.37 115.22 34.25 115.97 33.77C115.71 33.5 115.51 33.14 115.37 32.72C115.19 32.16 115.15 31.62 115.26 31.13C115.32 30.89 115.42 30.66 115.56 30.46C115.7 30.26 115.88 30.09 116.12 29.96C116.78 29.6 117.74 29.75 118.29 30.33C118.6 29.92 119.03 29.61 119.49 29.51C119.56 29.5 119.62 29.49 119.68 29.48C119.74 29.48 119.8 29.48 119.86 29.48C119.92 29.48 119.97 29.49 120.03 29.5C120.08 29.51 120.13 29.53 120.18 29.55C120.37 29.62 120.52 29.76 120.63 29.94C120.84 30.31 120.86 30.89 120.74 31.55C120.55 32.66 120.06 33.72 119.46 34.24C119.51 34.24 119.56 34.23 119.61 34.24C120.26 34.45 120.2 35.73 119.56 37.18L119.56 37.18L119.56 37.18L119.56 37.18L119.56 37.18ZM117.97 33.91C117.88 33.99 117.78 34.07 117.68 34.12C117.83 34.35 117.93 34.63 117.98 34.96C118.19 34.77 118.39 34.63 118.6 34.5C118.34 34.43 118.13 34.22 117.97 33.91L117.97 33.91L117.97 33.91L117.97 33.91L117.97 33.91ZM115.13 46.4C115.84 45.86 116.6 45.58 117.22 45.72C117.74 45.83 118.11 46.23 118.24 46.83C118.36 47.43 118.2 48.25 117.67 49.07C116.49 50.81 114.63 51.71 113.72 51.48C113.35 51.38 113.13 51.1 113.05 50.69C112.95 50.75 112.85 50.8 112.75 50.83C112.58 50.89 112.43 50.9 112.3 50.88C112.53 51.26 112.68 51.87 112.73 52.65C113.46 51.86 114.27 51.6 115 51.98C115.59 52.29 116.1 53.04 116.33 53.99C116.44 54.47 116.48 54.99 116.45 55.52C116.44 55.65 116.42 55.78 116.4 55.91C116.38 56.04 116.36 56.18 116.33 56.31C116.28 56.57 116.21 56.83 116.12 57.08C116.03 57.34 115.92 57.58 115.8 57.8C115.69 58.03 115.56 58.23 115.42 58.41C115.15 58.78 114.85 59.09 114.5 59.38C114.16 59.66 113.77 59.93 113.36 60.16C113.25 60.22 113.15 60.28 113.05 60.33C113.02 60.34 112.99 60.36 112.97 60.37C112.94 60.38 112.92 60.39 112.89 60.41C112.84 60.43 112.78 60.45 112.73 60.47C112.63 60.51 112.52 60.55 112.42 60.58C112.32 60.6 112.21 60.62 112.11 60.63C111.5 60.69 111.07 60.28 110.88 59.59C110.75 59.7 110.62 59.81 110.49 59.87C109.78 60.16 109.31 59.66 109.12 58.83C109.02 58.41 108.98 57.91 109 57.36C109.02 56.8 109.09 56.19 109.2 55.55C109.59 53.08 110.53 50.81 111.5 50.51C111.57 50.49 111.63 50.49 111.69 50.49C111.43 50.06 111.35 49.33 111.51 48.4C111.81 46.72 112.81 45.08 113.81 44.9C114.55 44.75 115.05 45.4 115.13 46.4L115.13 46.4L115.13 46.4L115.13 46.4L115.13 46.4ZM115.62 45.21C115.27 45.13 115.07 44.88 115 44.52C114.9 44.57 114.8 44.61 114.7 44.63C113.67 44.86 113.11 43.92 113.38 42.36C113.64 40.84 114.58 39.38 115.56 39.2C116.29 39.07 116.81 39.67 116.92 40.6C117.55 40.04 118.19 39.7 118.66 39.76C119.06 39.82 119.29 40.14 119.35 40.65C119.38 40.91 119.37 41.22 119.3 41.56C119.23 41.9 119.11 42.27 118.92 42.66C118.12 44.34 116.49 45.44 115.62 45.21L115.62 45.21L115.62 45.21L115.62 45.21ZM82.44 37.18L82.44 37.18L82.44 37.18L82.44 37.18C81.8 35.73 81.74 34.45 82.39 34.24C82.44 34.23 82.49 34.24 82.54 34.24C81.94 33.72 81.45 32.66 81.26 31.55C81.14 30.89 81.16 30.31 81.37 29.94C81.48 29.76 81.63 29.62 81.82 29.55C81.87 29.53 81.92 29.51 81.97 29.5C82.03 29.49 82.08 29.48 82.14 29.48C82.2 29.48 82.26 29.48 82.32 29.48C82.38 29.49 82.44 29.5 82.51 29.51C82.97 29.61 83.4 29.92 83.71 30.33C84.26 29.75 85.22 29.6 85.88 29.96C86.12 30.09 86.3 30.26 86.44 30.46C86.58 30.66 86.68 30.89 86.74 31.13C86.85 31.62 86.81 32.16 86.63 32.72C86.49 33.14 86.29 33.5 86.03 33.77C86.78 34.25 87.28 35.37 87.41 36.57C87.58 38.06 87.04 39.09 86.06 38.93C85.96 38.91 85.87 38.87 85.77 38.83C85.71 39.2 85.53 39.46 85.22 39.54C84.43 39.79 83.14 38.72 82.44 37.18L82.44 37.18ZM84.03 33.91C84.12 33.99 84.22 34.07 84.32 34.12C84.17 34.35 84.07 34.63 84.02 34.96C83.81 34.77 83.61 34.63 83.4 34.5C83.66 34.43 83.87 34.22 84.03 33.91L84.03 33.91L84.03 33.91L84.03 33.91L84.03 33.91ZM86.87 46.4C86.16 45.86 85.4 45.58 84.78 45.72C84.26 45.83 83.89 46.23 83.76 46.83C83.64 47.43 83.8 48.25 84.33 49.07C85.51 50.81 87.37 51.71 88.28 51.48C88.65 51.38 88.87 51.1 88.95 50.69C89.05 50.75 89.15 50.8 89.25 50.83C89.42 50.89 89.57 50.9 89.7 50.88C89.47 51.26 89.32 51.87 89.27 52.65C88.54 51.86 87.73 51.6 87 51.98C86.41 52.29 85.9 53.04 85.67 53.99C85.56 54.47 85.52 54.99 85.55 55.52C85.56 55.65 85.58 55.78 85.6 55.91C85.62 56.04 85.64 56.18 85.67 56.31C85.72 56.57 85.79 56.83 85.88 57.08C85.97 57.34 86.08 57.58 86.2 57.8C86.31 58.03 86.44 58.23 86.58 58.41C86.85 58.78 87.15 59.09 87.5 59.38C87.84 59.66 88.23 59.93 88.64 60.16C88.75 60.22 88.85 60.28 88.95 60.33C88.98 60.34 89.01 60.36 89.03 60.37C89.06 60.38 89.08 60.39 89.11 60.41C89.16 60.43 89.22 60.45 89.27 60.47C89.37 60.51 89.48 60.55 89.58 60.58C89.68 60.6 89.79 60.62 89.89 60.63C90.5 60.69 90.93 60.28 91.12 59.59C91.25 59.7 91.38 59.81 91.51 59.87C92.22 60.16 92.69 59.66 92.88 58.83C92.98 58.41 93.02 57.91 93 57.36C92.98 56.8 92.91 56.19 92.8 55.55C92.41 53.08 91.47 50.81 90.5 50.51C90.43 50.49 90.37 50.49 90.31 50.49C90.57 50.06 90.65 49.33 90.49 48.4C90.19 46.72 89.19 45.08 88.19 44.9C87.45 44.75 86.95 45.4 86.87 46.4L86.87 46.4L86.87 46.4L86.87 46.4L86.87 46.4ZM86.38 45.21C86.73 45.13 86.93 44.88 87 44.52C87.1 44.57 87.2 44.61 87.3 44.63C88.33 44.86 88.89 43.92 88.62 42.36C88.36 40.84 87.42 39.38 86.44 39.2C85.71 39.07 85.19 39.67 85.08 40.6C84.45 40.04 83.81 39.7 83.34 39.76C82.94 39.82 82.71 40.14 82.65 40.65C82.62 40.91 82.63 41.22 82.7 41.56C82.77 41.9 82.89 42.27 83.08 42.66C83.88 44.34 85.51 45.44 86.38 45.21L86.38 45.21L86.38 45.21L86.38 45.21ZM98.87 37.09L98.87 37.09C98.59 35.62 98.88 34.08 99.6 33.67C99.64 33.65 99.69 33.65 99.73 33.63C99.31 33.14 99.11 31.96 99.28 30.59C99.38 29.77 99.61 29.03 99.89 28.54C100.03 28.29 100.18 28.11 100.34 28C100.38 27.97 100.42 27.95 100.46 27.93C100.5 27.91 100.54 27.9 100.58 27.89C100.62 27.88 100.66 27.88 100.7 27.88C100.74 27.88 100.78 27.89 100.82 27.9C101.11 27.97 101.33 28.29 101.49 28.74C101.71 28.38 101.95 28.14 102.2 28.04C102.45 27.93 102.69 27.96 102.92 28.11C103.08 28.22 103.21 28.38 103.32 28.58C103.35 28.63 103.37 28.68 103.39 28.73C103.4 28.76 103.42 28.78 103.43 28.81C103.43 28.82 103.43 28.82 103.43 28.83C103.44 28.84 103.44 28.85 103.44 28.85C103.45 28.87 103.45 28.88 103.46 28.89C103.49 29.01 103.52 29.13 103.55 29.26C103.64 29.78 103.62 30.41 103.44 31.14C103.3 31.67 103.1 32.17 102.85 32.56C103.41 33.02 103.76 34.28 103.64 35.83C103.49 37.77 102.6 39.14 101.74 38.89C101.65 38.86 101.58 38.82 101.5 38.77C101.33 39.19 101.09 39.46 100.79 39.54C99.99 39.71 99.16 38.6 98.87 37.09L98.87 37.09ZM101.15 33C101.21 33.09 101.27 33.17 101.35 33.23C101.18 33.52 101.02 33.88 100.9 34.28C100.76 34.07 100.61 33.93 100.46 33.81C100.71 33.69 100.94 33.4 101.15 33L101.15 33L101.15 33ZM100.12 46.55C99.65 45.85 99.12 45.4 98.64 45.4C97.86 45.4 97.35 46.58 97.44 48.14C97.51 49.76 98.59 51.3 99.79 51.42C100.23 51.47 100.59 51.29 100.82 50.96C100.93 51.04 101.03 51.11 101.14 51.17C101.33 51.26 101.52 51.31 101.7 51.33C101.28 51.6 100.9 52.08 100.6 52.75C99.89 51.86 99.11 51.32 98.36 51.38C97.15 51.48 96.02 53.27 96.04 55.68C96.06 55.99 96.1 56.3 96.16 56.6C96.22 56.9 96.31 57.19 96.43 57.47C96.66 58.02 96.98 58.51 97.37 58.9C97.77 59.3 98.22 59.6 98.7 59.78C98.82 59.82 98.94 59.86 99.07 59.89C99.13 59.9 99.19 59.91 99.25 59.92C99.31 59.93 99.37 59.94 99.44 59.95C99.68 59.97 99.93 59.97 100.17 59.93C100.92 59.8 101.49 59.38 101.85 58.81C102.01 58.88 102.17 58.95 102.35 58.99C104.22 59.34 105.54 57.6 105.35 55.47C105.2 53.38 104.11 51.5 102.89 51.13C102.81 51.1 102.72 51.09 102.64 51.09C103.13 50.74 103.45 50.08 103.52 49.18C103.62 47.55 102.9 45.88 101.93 45.51C101.21 45.23 100.54 45.7 100.12 46.55L100.12 46.55L100.12 46.55ZM100.08 45.35C100.41 45.37 100.68 45.2 100.87 44.88C100.95 44.95 101.03 45.01 101.12 45.06C102.05 45.54 103.03 44.65 103.24 42.87C103.46 41.13 102.89 39.43 102.02 39.21C101.37 39.04 100.73 39.69 100.35 40.64C99.95 39.99 99.48 39.63 99.06 39.72C98.36 39.88 98.04 41.11 98.22 42.52C98.4 43.98 99.2 45.27 100.08 45.35L100.08 45.35L100.08 45.35ZM108.53 33.23L108.53 33.23L108.53 33.23C108.4 32.3 108.75 31.37 109.43 31.17C109.47 31.16 109.51 31.17 109.55 31.16C109.22 30.83 109.1 30.13 109.34 29.36C109.49 28.89 109.75 28.49 110.05 28.24C110.2 28.12 110.36 28.03 110.52 27.99C110.56 27.98 110.6 27.97 110.64 27.97C110.68 27.96 110.72 27.96 110.76 27.96C110.79 27.96 110.83 27.97 110.87 27.97C110.91 27.98 110.94 27.99 110.98 28C111.24 28.09 111.42 28.31 111.52 28.58C111.74 28.43 111.98 28.36 112.21 28.38C112.43 28.39 112.65 28.49 112.82 28.65C112.95 28.76 113.05 28.9 113.12 29.04C113.14 29.07 113.15 29.11 113.17 29.14C113.17 29.16 113.18 29.18 113.19 29.2C113.19 29.2 113.19 29.21 113.19 29.21C113.19 29.22 113.19 29.22 113.19 29.23C113.2 29.24 113.2 29.24 113.2 29.25C113.22 29.33 113.23 29.4 113.24 29.48C113.25 29.78 113.15 30.1 112.92 30.43C112.74 30.68 112.51 30.89 112.26 31.05C112.68 31.46 112.8 32.28 112.52 33.16C112.15 34.27 111.32 34.98 110.68 34.7C110.62 34.67 110.56 34.63 110.51 34.59C110.33 34.84 110.11 34.98 109.87 35C109.23 35.02 108.68 34.21 108.53 33.23L108.53 33.23ZM110.82 30.95C110.86 31.01 110.91 31.07 110.96 31.11C110.79 31.26 110.63 31.45 110.49 31.68C110.4 31.53 110.29 31.43 110.17 31.34C110.38 31.29 110.61 31.15 110.82 30.95L110.82 30.95L110.82 30.95L110.82 30.95ZM108.56 39.84C108.29 39.25 107.94 38.86 107.57 38.79C106.97 38.68 106.47 39.42 106.38 40.53C106.27 41.7 106.84 43.18 107.69 43.51C108.01 43.63 108.29 43.54 108.51 43.31C108.57 43.38 108.64 43.45 108.72 43.51C108.84 43.6 108.97 43.65 109.11 43.68C108.76 43.87 108.41 44.22 108.1 44.71C107.71 43.9 107.21 43.31 106.66 43.16C106.23 43.03 105.77 43.2 105.41 43.55C105.04 43.92 104.78 44.48 104.68 45.29C104.66 45.51 104.66 45.75 104.66 46C104.67 46.25 104.69 46.51 104.73 46.79C104.8 47.35 104.92 47.96 105.1 48.53C105.28 49.12 105.51 49.66 105.79 50.06C105.86 50.16 105.93 50.26 106 50.34C106.04 50.38 106.08 50.42 106.12 50.45C106.16 50.49 106.2 50.52 106.23 50.55C106.31 50.61 106.4 50.66 106.48 50.7C106.56 50.74 106.65 50.76 106.73 50.78C107.26 50.86 107.74 50.49 108.08 49.97C108.18 50.03 108.29 50.09 108.4 50.1C109.64 50.12 110.74 47.92 111.05 46.53C111.34 45.13 110.87 43.9 110.01 43.57C109.95 43.55 109.89 43.54 109.83 43.53C110.24 43.27 110.57 42.76 110.74 42.09C111.05 40.9 110.73 39.66 110.05 39.28C109.54 39 108.97 39.26 108.56 39.84L108.56 39.84L108.56 39.84L108.56 39.84ZM108.67 38.95C108.92 39.01 109.14 38.92 109.33 38.7C109.38 38.76 109.43 38.82 109.49 38.86C110.13 39.32 110.97 38.76 111.36 37.57C111.74 36.43 111.52 35.23 110.86 34.95C110.38 34.74 109.8 35.09 109.41 35.69C109.17 35.21 108.82 34.92 108.47 34.94C107.87 34.99 107.51 35.77 107.53 36.73C107.55 37.75 108.02 38.78 108.67 38.95L108.67 38.95L108.67 38.95L108.67 38.95ZM93.47 33.23C93.32 34.21 92.77 35.02 92.13 35C91.89 34.98 91.67 34.84 91.49 34.59C91.44 34.63 91.38 34.67 91.32 34.7C90.68 34.98 89.85 34.27 89.48 33.16C89.2 32.28 89.32 31.46 89.74 31.05C89.49 30.89 89.26 30.68 89.08 30.43C88.85 30.1 88.75 29.78 88.76 29.48C88.77 29.4 88.78 29.33 88.8 29.25C88.8 29.24 88.8 29.24 88.81 29.23C88.81 29.22 88.81 29.22 88.81 29.21C88.81 29.21 88.81 29.2 88.81 29.2C88.82 29.18 88.83 29.16 88.83 29.14C88.85 29.11 88.86 29.07 88.88 29.04C88.95 28.9 89.05 28.76 89.18 28.65C89.35 28.49 89.57 28.39 89.79 28.38C90.02 28.36 90.26 28.43 90.48 28.58C90.58 28.31 90.76 28.09 91.02 28C91.06 27.99 91.09 27.98 91.13 27.97C91.17 27.97 91.21 27.96 91.24 27.96C91.28 27.96 91.32 27.96 91.36 27.97C91.4 27.97 91.44 27.98 91.48 27.99C91.64 28.03 91.8 28.12 91.95 28.24C92.25 28.49 92.51 28.89 92.66 29.36C92.9 30.13 92.78 30.83 92.45 31.16C92.49 31.17 92.53 31.16 92.57 31.17C93.25 31.37 93.6 32.3 93.47 33.23L93.47 33.23L93.47 33.23L93.47 33.23ZM91.18 30.95C91.14 31.01 91.09 31.07 91.04 31.11C91.21 31.26 91.37 31.45 91.51 31.68C91.6 31.53 91.71 31.43 91.83 31.34C91.62 31.29 91.39 31.15 91.18 30.95L91.18 30.95L91.18 30.95L91.18 30.95ZM93.44 39.84C93.71 39.25 94.06 38.86 94.43 38.79C95.03 38.68 95.53 39.42 95.62 40.53C95.73 41.7 95.16 43.18 94.31 43.51C93.99 43.63 93.71 43.54 93.49 43.31C93.43 43.38 93.36 43.45 93.28 43.51C93.16 43.6 93.03 43.65 92.89 43.68C93.24 43.87 93.59 44.22 93.9 44.71C94.29 43.9 94.79 43.31 95.34 43.16C95.77 43.03 96.23 43.2 96.59 43.55C96.96 43.92 97.22 44.48 97.32 45.29C97.34 45.51 97.34 45.75 97.34 46C97.33 46.25 97.31 46.51 97.27 46.79C97.2 47.35 97.08 47.96 96.9 48.53C96.72 49.12 96.49 49.66 96.21 50.06C96.14 50.16 96.07 50.26 96 50.34C95.96 50.38 95.92 50.42 95.88 50.45C95.84 50.49 95.8 50.52 95.77 50.55C95.69 50.61 95.6 50.66 95.52 50.7C95.44 50.74 95.35 50.76 95.27 50.78C94.74 50.86 94.26 50.49 93.92 49.97C93.82 50.03 93.71 50.09 93.6 50.1C92.36 50.12 91.26 47.92 90.95 46.53C90.66 45.13 91.13 43.9 91.99 43.57C92.05 43.55 92.11 43.54 92.17 43.53C91.76 43.27 91.43 42.76 91.26 42.09C90.95 40.9 91.27 39.66 91.95 39.28C92.46 39 93.03 39.26 93.44 39.84L93.44 39.84L93.44 39.84L93.44 39.84ZM93.33 38.95C93.08 39.01 92.86 38.92 92.67 38.7C92.62 38.76 92.57 38.82 92.51 38.86C91.87 39.32 91.03 38.76 90.64 37.57C90.26 36.43 90.48 35.23 91.14 34.95C91.62 34.74 92.2 35.09 92.59 35.69C92.83 35.21 93.18 34.92 93.53 34.94C94.13 34.99 94.49 35.77 94.47 36.73C94.45 37.75 93.98 38.78 93.33 38.95L93.33 38.95L93.33 38.95L93.33 38.95Z" />
</svg>