<svg version="1.2" baseProfile="tiny-ps" xmlns="http://www.w3.org/2000/svg" viewBox="0 0 200 175" width="200" height="175">
	<title>hair4</title>
	<style>
		tspan { white-space:pre }
		.shp0 { fill: #d73414 } 
	</style>
	<path id="Shape 1" class="shp0" d="M32 82C32.37 81.22 38.82 52.15 63 41C80.24 33.05 117.59 33.59 127 39C136.41 44.41 147 33 147 33L144 43L164 37C164 37 151.03 47.66 155 55C158.97 62.34 168.5 79.13 170 93C172.27 113.98 170.59 114.65 150 94C127.62 71.55 141 96 141 96C141 96 117.13 92.22 106 76C94.87 59.78 98.67 87.5 104 94C109.33 100.5 62.47 94.12 64 83C66.96 61.51 33.23 89.38 32 103C30.77 116.62 29.95 86.28 32 82Z" />
</svg>