<svg version="1.2" baseProfile="tiny-ps" xmlns="http://www.w3.org/2000/svg" viewBox="0 0 200 175" width="200" height="175">
	<title>hair10c</title>
	<style>
		tspan { white-space:pre }
		.shp0 { fill: #cd0099} 
	</style>
	<path id="dxmain" fill-rule="evenodd" class="shp0" d="M91.99 36.98C173.18 36.6 148.18 92.19 197 97C196.67 97.67 196.33 98.33 196 99C191.3 100.3 186.31 101.52 181 100C186 105.33 191 110.67 196 116C191 115.33 186 114.67 181 114C181 114.33 181 114.67 181 115C184.33 121.33 187.67 127.67 191 134C179.48 131.42 170.47 125.42 168 115C167.67 115 167.33 115 167 115C166.61 123.25 163.9 126.45 159 130C160 127.67 161 125.33 162 123C156.93 125.17 161.35 121.8 155 126C156.33 122.67 157.67 119.33 159 116C157 117.67 155 119.33 153 121C154.96 115.35 158.09 111.07 157 105C149.02 102 128.2 92.01 125 84C120.45 89.63 113.94 86.55 104 86C102.67 82.33 101.33 78.67 100 75C99.67 75 99.33 75 99 75C98.33 78.33 97.67 81.67 97 85C70.96 84.7 58.07 91.97 45 104C46.67 109.33 48.33 114.67 50 120C48 118.33 46 116.67 44 115C45.33 118.33 46.67 121.67 48 125C46.33 123.67 44.67 122.33 43 121C41.91 122.95 43.04 122.91 41 122C42 124.33 43 126.67 44 129C42 127.33 40 125.67 38 124C37 121.33 36 118.67 35 116C34.67 116 34.33 116 34 116C30.64 128.64 24.75 134.8 12 138C15.33 131.67 18.67 125.33 22 119C21.67 118.67 21.33 118.33 21 118C17.15 119.39 11.16 120.84 7 119C7.67 118.67 8.33 118.33 9 118C13.33 113.33 17.67 108.67 22 104C15.8 105.99 9.48 104.6 6 101C36.47 98.36 34.39 77.14 48 59C57.86 45.85 76.52 40.06 91.99 36.98Z" />
	<path id="dleft" class="shp0" d="M30 122.12L27 114C27 114 42.33 100.6 38 107C33.67 113.4 39.36 129.41 43 132C46.64 134.59 43 143 43 143C43 143 44.59 135.5 38 136C31.41 136.5 43 150 43 150C43 150 44.08 155.25 40 160C36.18 164.45 21.06 176.45 23.53 171.71C37.05 145.8 31.9 119.29 30 122.12L30 122.12Z" />
	<path id="dright" class="shp0" d="M169 123.12C167.1 120.29 161.95 146.8 175.47 172.71C177.94 177.45 162.82 165.45 159 161C154.92 156.25 156 151 156 151C156 151 167.59 137.5 161 137C154.41 136.5 156 144 156 144C156 144 152.36 135.59 156 133C159.64 130.41 165.33 114.4 161 108C156.67 101.6 172 115 172 115L169 123.12L169 123.12Z" />
</svg>