<svg version="1.2" baseProfile="tiny-ps" xmlns="http://www.w3.org/2000/svg" viewBox="0 0 200 175" width="200" height="175" style="transform:translateY(10px);">
	<title>hair10</title>
	<style>
		tspan { white-space:pre }
		.shp0 { fill: #000000 } 
	</style>
	<path id="Shape 1 copy 8" class="shp0" d="M197.15 73.07C197.09 73.11 197.01 73.14 196.94 73.17C197.56 72.8 197.68 72.68 197.15 73.07ZM183.29 76.25C181.48 75.79 179.71 75.23 178.07 74.69C181.26 78.36 192.91 91.43 196.5 90.98C193.7 91.32 183.53 92.08 179.43 87.22C179.34 87.11 179.25 87.01 179.16 86.9C182.19 95.74 187.08 108.5 190.32 109.45C186.98 108.45 175.06 104.28 172.66 96.23C172.43 95.46 172.19 94.7 171.94 93.95C172.34 106.67 173.62 99.51 166.82 88.43C166.69 94.08 165.53 99.79 162 103C156.61 107.89 161.1 104.73 163.56 96.21C163.1 96.87 162.58 97.47 162 98C155.72 103.7 162.86 98.48 164.56 86.56L163 85L162.81 84.72C162.65 90.28 161.47 95.85 158 99C150.81 105.52 161.2 97.73 160.89 81.97L160.69 81.92C160.3 86.71 159.01 91.27 156 94C149.53 99.88 157.32 94.14 158.7 81.42L157 81C157 81 156.01 80.7 154 79C151.99 77.3 152 77 152 77L150 76L148 75C148 75 146.74 73.76 146 73C145.26 72.24 144 70 144 70L142 69L138.5 69C138.72 70.95 138.7 73.25 137.96 75.37C137.61 79.38 135.56 83.6 128.77 84.59C120.27 85.82 127.26 85.33 131.89 81.09C131.13 81.33 130.3 81.53 129.37 81.67C118.84 83.2 132.08 82.08 135.15 74.44C135.19 72.72 134.76 70.76 133.6 68.53C133.25 67.86 132.95 67.27 132.68 66.71C132.52 66.58 132.35 66.49 132.19 66.39C133.1 70.81 133.56 79.57 123.38 81.05C111.63 82.75 129.46 81.16 129.74 70.89C128.77 73.98 126.36 76.75 121.04 77.52C108.29 79.37 130.39 77.34 127.08 64.56L125 63C125 63 123.16 63.29 122 63L120 64L118 66L115 67L113 65L112 64L112 62L111 61L106 61L103 61L100 61L100 63L100 64L96 63L96 61L93 60L91 60L88 61L86 62L84 65L81 65L77 63L76.35 63.22C71.06 77.2 95.15 79.44 81.96 77.52C76.6 76.74 74.2 73.95 73.25 70.83C73.46 81.15 91.4 82.76 79.62 81.05C68.92 79.49 69.97 69.89 70.95 65.74L70.74 65.86C70.37 66.63 69.93 67.51 69.4 68.53C68.24 70.76 67.81 72.72 67.85 74.44C70.92 82.08 84.16 83.2 73.63 81.67C72.7 81.53 71.87 81.33 71.11 81.09C75.74 85.33 82.73 85.82 74.23 84.59C67.43 83.6 65.37 79.37 65.03 75.35C64.17 72.86 64.29 70.11 64.63 68L64 68L62 67L59 69C59 69 58.18 70.87 56 72C53.82 73.13 52 75 52 75L49 76L46 78L44.29 80.29C45.62 93.1 53.5 98.9 47 93C44.37 90.61 43.06 86.84 42.51 82.74L42.14 83.3C42.79 97.48 51.82 104.2 45 98C42.01 95.29 40.72 90.78 40.32 86.03L39 88L38.9 88.08C41.12 98.18 46.81 102.28 41 97C40.42 96.47 39.9 95.87 39.45 95.22C41.9 103.74 46.39 106.89 41 102C38.02 99.3 36.73 94.81 36.32 90.08L33.77 92.07C32.69 94.06 31.89 95.83 31.29 97.26C30.96 98.23 30.64 99.22 30.34 100.23C27.94 108.28 16.02 112.45 12.68 113.45C15.92 112.5 20.81 99.74 23.84 90.9C23.75 91.01 23.66 91.11 23.57 91.22C19.47 96.08 9.3 95.32 6.5 94.98C10.09 95.43 21.74 82.36 24.93 78.69C23.29 79.23 21.52 79.79 19.71 80.25C16.61 81.27 12.49 80.19 9.45 78.88C7.89 78.21 6.7 77.55 6.06 77.17C6.83 77.5 8.29 77.3 10.15 77.03C12.18 76.72 14.72 76.51 17.18 76.27C22.15 76.01 26.28 73.56 26.26 73.48C26.32 73.73 27.38 72.61 28.86 71.17C29.84 67.96 31.17 64.96 32.93 63.55C33.2 63.33 33.48 63.2 33.77 63.14C42.86 33.95 67.97 13 100.5 13C131.84 13 156.82 32.45 166.95 59.97C168.02 59.05 169.1 58.77 170.07 59.55C171.83 60.96 173.16 63.96 174.14 67.17C175.62 68.61 176.68 69.73 176.74 69.48C176.72 69.56 180.85 72.01 185.82 72.27C188.28 72.51 190.82 72.72 192.85 73.03C194.71 73.3 196.17 73.5 196.94 73.17C196.3 73.55 195.11 74.21 193.55 74.88C190.51 76.19 186.39 77.27 183.29 76.25ZM196.7 90.96C197.44 90.84 197.36 90.88 196.7 90.96ZM196.57 90.98C196.55 90.99 196.52 90.98 196.5 90.98C196.57 90.98 196.64 90.97 196.7 90.96C196.65 90.97 196.62 90.97 196.57 90.98ZM190.55 109.52C191.46 109.74 191.34 109.75 190.55 109.52ZM190.39 109.48C190.37 109.47 190.34 109.46 190.32 109.45C190.4 109.47 190.48 109.5 190.55 109.52C190.5 109.51 190.45 109.49 190.39 109.48ZM12.45 113.52C12.52 113.5 12.6 113.47 12.68 113.45C12.66 113.46 12.63 113.47 12.61 113.48C12.55 113.49 12.5 113.51 12.45 113.52ZM12.45 113.52C11.66 113.75 11.54 113.74 12.45 113.52ZM6.3 94.96C6.36 94.97 6.43 94.98 6.5 94.98C6.48 94.98 6.45 94.99 6.43 94.98C6.38 94.97 6.35 94.97 6.3 94.96ZM6.3 94.96C5.64 94.88 5.56 94.84 6.3 94.96ZM6.06 77.17C5.99 77.14 5.91 77.11 5.85 77.07C5.32 76.68 5.44 76.8 6.06 77.17Z" />
</svg>