<svg version="1.2" baseProfile="tiny-ps" xmlns="http://www.w3.org/2000/svg" viewBox="0 0 200 175" width="200" height="175">
	<title>hair18n</title>
	<style>
		tspan { white-space:pre }
		.shp0 { fill: #000000 } 
	</style>
	<path id="hr23" class="shp0" d="M174 101.5C174 103.99 172.43 106 170.5 106C168.57 106 167 103.99 167 101.5C167 101.31 167.03 101.13 167.04 100.95C166.86 100.98 166.68 101 166.5 101C164.01 101 162 98.54 162 95.5C162 93.1 163.26 91.06 165.02 90.31C165.03 90.1 165.05 89.9 165.09 89.7C165.05 89.69 165.02 89.67 164.99 89.65C164.36 90.48 163.48 91 162.5 91C160.57 91 159 88.99 159 86.5C159 85.82 159.12 85.19 159.33 84.61C157.58 83.99 156.17 82.65 155.48 80.94C154.45 81.61 153.27 82 152 82C148.13 82 145 78.42 145 74C145 73.28 145.09 72.59 145.25 71.92C144.84 71.97 144.42 72 144 72C139.97 72 136.5 69.85 134.92 66.75C133.76 68.1 131.77 69 129.5 69C125.91 69 123 66.76 123 64C123 63.6 123.08 63.22 123.19 62.85C122.86 62.57 122.55 62.28 122.27 61.96C121.37 63.11 120.19 63.85 118.89 63.97C118.39 66.27 116.17 68 113.5 68C111.05 68 108.99 66.53 108.28 64.51C107.1 64.82 105.83 65 104.5 65C102.68 65 100.96 64.68 99.43 64.12C98.37 64.52 97.2 64.8 95.97 64.92C95.99 65.11 96 65.3 96 65.5C96 69.09 92.87 72 89 72C87.65 72 86.4 71.63 85.33 71.02C84.47 72.55 82.85 73.65 80.93 73.93C80.69 75.35 79.25 76.57 77.21 77.28C77.71 78.23 78 79.33 78 80.5C78 83.35 76.31 85.76 73.95 86.64C73.97 86.76 74 86.88 74 87C74 89.21 71.76 91 69 91C66.24 91 64 89.21 64 87C64 85.47 65.09 84.15 66.68 83.48C66.55 83.21 66.43 82.93 66.34 82.64C64.38 81.95 63 80.36 63 78.5C63 76.96 63.94 75.61 65.38 74.8C65.16 74.39 65 73.96 65 73.5C65 73.07 65.14 72.66 65.35 72.26C63.9 71.38 63 70.25 63 69C63 68.28 63.3 67.61 63.81 66.99C63.63 66.98 63.44 66.98 63.26 66.97C62.11 68.58 60.49 69.82 58.59 70.48C57.59 74.03 54.85 76.8 51.41 77.69C51.78 78.22 52 78.84 52 79.5C52 81.43 50.21 83 48 83C47.99 83 47.98 83 47.97 83C47.7 86.91 44.24 90 40 90C39.24 90 38.51 89.89 37.81 89.71C37.77 89.86 37.7 90 37.64 90.15C39.01 90.49 40 91.41 40 92.5C40 93.55 39.08 94.45 37.79 94.82C37.92 95.19 38 95.59 38 96C38 98.21 35.99 100 33.5 100C31.01 100 29 98.21 29 96C29 94.46 29.99 93.14 31.42 92.47C29.99 91.72 29 90.23 29 88.5C29 86.46 30.36 84.76 32.22 84.21C32.08 83.66 32 83.09 32 82.5C32 79.3 34.15 76.57 37.16 75.5C36.43 74.34 36 72.97 36 71.5C36 68.95 37.27 66.71 39.21 65.35C40.02 61.25 43.11 58.03 47.03 57.21C48.18 54.95 50.2 53.22 52.65 52.45C53.65 49.76 55.76 47.54 58.47 46.24C59.91 42.06 64.52 39 70 39C71.36 39 72.66 39.2 73.87 39.54C75.92 36.81 79.47 35 83.5 35C85.69 35 87.72 35.54 89.46 36.46C91.74 33.76 95.38 32 99.5 32C102.3 32 104.89 32.82 106.97 34.19C108.11 33.44 109.5 33 111 33C112.58 33 114.03 33.49 115.21 34.31C116.79 33.48 118.59 33 120.5 33C124.11 33 127.33 34.66 129.43 37.27C130.76 37.56 131.96 38.07 132.96 38.76C133.9 38.28 134.92 38 136 38C139.57 38 142.59 40.93 143.61 44.97C143.88 45.19 144.14 45.41 144.38 45.65C145.56 44.61 146.98 44 148.5 44C152.41 44 155.62 48 155.97 53.1C158.82 53.64 161 56.52 161 60C161 60.76 160.86 61.47 160.67 62.15C162.24 62.53 163.46 63.63 163.85 65.04C166.17 65.24 168 67.37 168 70C168 71.22 167.6 72.33 166.94 73.19C168.13 73.66 169 74.95 169 76.5C169 77.56 168.59 78.49 167.96 79.13C167.95 79.19 167.95 79.24 167.95 79.3C169.72 80.03 171 82.08 171 84.5C171 85.8 170.63 86.99 170.02 87.93C170.52 88.46 170.85 89.19 170.95 90.01C170.97 90.01 170.98 90 171 90C172.66 90 174 91.79 174 94C174 95.61 173.28 96.99 172.25 97.63C173.29 98.4 174 99.84 174 101.5Z" />
</svg>