<svg version="1.2" baseProfile="tiny-ps" xmlns="http://www.w3.org/2000/svg" viewBox="0 0 200 175" width="200" height="175">
	<title>hair11f</title>
	<style>
		tspan { white-space:pre }
		.shp0 { fill: #f8d445 } 
		.shp1 { fill: rgba(255,255,255,0.6); } 
		#dleft{transform: rotateX(5deg) translate(8px , 6px);}
		#dright{transform:rotateX(-5deg) translateX(-8px);}
	</style>
	<path id="dxmain" fill-rule="evenodd" class="shp0" d="M90.99 37.01C172.18 36.63 147.18 92.28 196 97.1C195.67 97.77 195.33 98.43 195 99.1C190.3 100.41 185.31 101.62 180 100.1C185 105.44 190 110.78 195 116.12C190 115.45 185 114.79 180 114.12C180 114.45 180 114.79 180 115.12C183.33 121.46 186.67 127.8 190 134.14C178.48 131.56 169.47 125.55 167 115.12C166.67 115.12 166.33 115.12 166 115.12C165.61 123.38 162.9 126.59 158 130.14C159 127.8 160 125.47 161 123.13C155.93 125.3 160.35 121.93 154 126.13C155.33 122.8 156.67 119.46 158 116.12C156 117.79 154 119.46 152 121.13C153.96 115.47 157.09 111.18 156 105.11C148.02 102.11 127.2 92.11 124 84.08C119.45 89.72 112.94 86.64 103 86.09C101.67 82.42 100.33 78.75 99 75.07C98.67 75.07 98.33 75.07 98 75.07C97.33 78.41 96.67 81.75 96 85.09C69.96 84.79 57.07 92.06 44 104.11C45.67 109.45 47.33 114.79 49 120.13C47 118.46 45 116.79 43 115.12C44.33 118.46 45.67 121.79 47 125.13C45.33 123.8 43.67 122.46 42 121.13C40.91 123.08 42.04 123.03 40 122.13C41 124.46 42 126.8 43 129.14C41 127.47 39 125.8 37 124.13C36 121.46 35 118.79 34 116.12C33.67 116.12 33.33 116.12 33 116.12C29.64 128.78 23.75 134.94 11 138.15C14.33 131.81 17.67 125.46 21 119.12C20.67 118.79 20.33 118.46 20 118.12C16.15 119.51 10.16 120.97 6 119.12C6.67 118.79 7.33 118.46 8 118.12C12.33 113.45 16.67 108.78 21 104.11C14.8 106.1 8.48 104.71 5 101.1C35.47 98.46 33.39 77.22 47 59.06C56.86 45.89 75.52 40.1 90.99 37.01Z" />
	<path id="dleft" class="shp0" d="M39 122.25C37.1 119.41 31.95 145.95 45.47 171.89C47.94 176.64 32.82 164.63 29 160.17C24.92 155.41 26 150.16 26 150.16C26 150.16 37.59 136.64 31 136.14C24.41 135.64 26 143.15 26 143.15C26 143.15 22.36 134.73 26 132.14C29.64 129.55 35.33 113.52 31 107.11C26.67 100.7 42 114.12 42 114.12L39 122.25L39 122.25Z" />
	<path id="dright" class="shp0" d="M161 123.25L158 115.12C158 115.12 173.33 101.7 169 108.11C164.67 114.52 170.36 130.55 174 133.14C177.64 135.73 174 144.15 174 144.15C174 144.15 175.59 136.64 169 137.15C162.41 137.65 174 151.16 174 151.16C174 151.16 175.08 156.41 171 161.17C167.18 165.63 152.06 177.64 154.53 172.9C168.05 146.95 162.9 120.41 161 123.25L161 123.25Z" />
	<path id="mg" class="shp1" d="M118.98 75.36C121.78 79.44 126.75 83.27 132.11 86.98C126.86 82.63 121.61 75 118.69 69.81C117.23 67.22 116.35 65.23 116.33 64.63C116.33 64.56 116.34 64.51 116.36 64.48C116.39 64.45 116.42 64.44 116.48 64.46C116.58 64.51 116.74 64.65 116.96 64.9C117.41 65.42 118.09 66.39 119.06 67.91C121.48 71.69 125.62 75.28 130.2 78.83C128.61 76.18 127.4 73.78 126.72 72.17C124.75 68.61 123.46 65.56 123.18 64.34C122.91 63.11 123.61 63.78 125.72 67.59C129.7 74.26 138.56 82.23 147.33 85.21C155.94 88.73 164.47 87.26 164.32 87.53C164.32 87.54 165.23 87.11 165.92 86.89C166.26 86.78 166.56 86.72 166.65 86.8C166.75 86.88 166.65 87.1 166.23 87.51C163.92 89.73 161.71 91 159.54 91.86C164.45 92.12 167.75 92.27 167.74 92.32C167.74 92.32 168.59 92.07 169.24 92C169.57 91.96 169.84 91.97 169.93 92.05C170.03 92.14 169.95 92.3 169.56 92.57C168.63 93.23 167.7 93.77 166.77 94.24C165.83 94.71 164.9 95.11 163.96 95.46C162.08 96.15 160.2 96.63 158.37 96.88C148.82 103.39 139.19 98.28 134.52 95.29C128.88 92.07 122.86 84.06 119.31 78.33C118.87 77.61 118.46 76.93 118.1 76.3C117.74 75.67 117.43 75.09 117.16 74.57C116.63 73.54 116.3 72.76 116.22 72.36C116.05 71.55 116.85 72.23 118.98 75.36L118.98 75.36Z" />
</svg>