<svg version="1.2" baseProfile="tiny-ps" xmlns="http://www.w3.org/2000/svg" viewBox="0 0 200 175" width="200" height="175" style="transform:translateY(-10px);">
	<title>hat.svg</title>
	<style>
		tspan { white-space:pre }
		.shp0 { opacity: 0.129;fill: #000000 } 
		.shp1 { fill: #8f6838 } 
		.shp2 { opacity: 0.161;fill: #000000 } 
		.shp3 { fill: #3f2e1a } 
	</style>
	<path id="hatshadow" class="shp0" d="M102 76C139.28 76 168.65 86.08 170 106C170.62 115.09 140.78 122 103.5 122C66.22 122 36.22 114.61 36 105.5C35.55 86.93 64.72 76 102 76Z" />
	<path id="hat" class="shp1" d="M80 11C86.92 11.07 99.79 16.2 106 17C112.21 17.8 127.65 9.61 133 9C138.35 8.39 146.44 13.24 150 17C153.56 20.76 154.35 29.23 155 33C155.65 36.77 158.31 58.9 158 61C157.69 63.1 160.12 76.04 161 79C161.88 81.96 165.56 84.12 168 84C170.44 83.88 170.71 82.14 180.44 80.18C190.18 78.21 196 79.68 196.5 80.18C197 80.67 197.91 83.61 194.71 88.13C191.52 92.65 166.39 106.2 145 112C123.61 117.8 90.39 116.26 61 113C31.61 109.74 5.36 83.61 3.84 82.17C2.31 80.72 3.16 78.86 3.84 78.19C4.51 77.51 11.83 79.02 17.22 79.18C22.6 79.34 42.35 83.29 43 82C43.65 80.71 46.63 63.84 46 62C45.37 60.16 45.31 61.2 44 58C42.69 54.8 42.84 48.84 44 36C45.16 23.16 48.28 21.48 51 18C53.72 14.52 61 12 61 12C62.81 11.34 73.08 10.93 80 11Z" />
	<path id="band" fill-rule="evenodd" class="shp2" d="M130 13C136.22 12.87 140.07 13.69 144 15C145.33 17 146.67 19 148 21C147.67 27 147.33 33 147 39C146 39.33 145 39.67 144 40C133.45 44.42 115.6 31.96 111 26C112 23.33 113 20.67 114 18C119.33 16.33 124.67 14.67 130 13ZM78 14C85.33 15 92.67 16 100 17C100 17.33 100 17.67 100 18C97.67 19 95.33 20 93 21C95 24 97 27 99 30C97.67 31.67 96.33 33.33 95 35C78.53 39.71 59.55 38.62 51 27C55.4 16.14 68.23 19.22 78 14ZM106 38C111.1 40.65 111.73 45.92 116 49C125.11 55.57 137.81 56.63 145 65C138.67 65 132.33 65 126 65C126.33 65.67 126.67 66.33 127 67C135.67 69 144.33 71 153 73C151.66 75.76 152.37 73.29 152 76C154.67 76.33 157.33 76.67 160 77C152.77 78.48 139.04 82.84 130 79C134.94 78.76 136.47 78.29 139 76C110.45 75.95 70.57 85.97 55 77C59.33 76 63.67 75 68 74C62.67 73.33 57.33 72.67 52 72C57.67 71.33 63.33 70.67 69 70C64 69 59 68 54 67C54.33 66.33 54.67 65.67 55 65C77.33 60.55 94.77 53.35 106 38ZM192 80C198.01 79.69 200.68 79.47 203 83C203 84.67 203 86.33 203 88C180.4 98.61 156.01 108.79 123 109C123.33 108.33 123.67 107.67 124 107C142.2 102.61 165.23 95.99 181 88C180.67 87.33 180.33 86.67 180 86C175.97 85.6 176.09 85.67 174 84C180 82.67 186 81.33 192 80Z" />
	<path id="topshadows" class="shp3" d="M45 63C45 63 81.74 58.43 106 58C132.56 57.53 158 65 158 65C158 65 163.82 65.56 164 68C164.18 70.44 166.36 75.65 166 77C165.64 78.35 164 83 164 83C164 83 127.29 85.15 104 85C79.12 84.84 42.92 83.78 43 82C43.08 80.22 45 63 45 63Z" />
</svg>