<svg version="1.2" baseProfile="tiny-ps" xmlns="http://www.w3.org/2000/svg" viewBox="0 0 200 148" width="200" height="148">
	<title>headicon</title>
	<style>
		tspan { white-space:pre }
		.shp0 { fill: #2d2d2d } 
	</style>
	<path id="tounge" class="shp0" d="M100 102C101.04 102 102.05 100.06 103.02 100.18C108.18 100.79 112 102.94 112 105.5C112 108.54 106.63 111 100 111C93.37 111 88 108.54 88 105.5C88 103.02 91.59 100.92 96.52 100.23C97.62 100.08 98.79 102 100 102Z" />
	<path id="head" fill-rule="evenodd" class="shp0" d="M100.5 17C132.26 17 158 42.74 158 74.5C158 106.26 132.26 132 100.5 132C68.74 132 43 106.26 43 74.5C43 42.74 68.74 17 100.5 17ZM50.91 75.5C50.91 102.89 73.11 125.09 100.5 125.09C127.89 125.09 150.09 102.89 150.09 75.5C150.09 48.11 127.89 25.91 100.5 25.91C73.11 25.91 50.91 48.11 50.91 75.5Z" />
	<path id="mouth" class="shp0" d="M125.05 92.91C125.05 92.91 124.84 92.97 124.46 93.06C123.07 105.23 112.75 114.69 100.2 114.69C87.7 114.69 77.4 105.28 75.97 93.15C75.32 93.01 74.95 92.91 74.95 92.91L73.95 86.42C73.95 86.42 86.87 89.42 99.96 89.42C113.41 89.42 127.05 86.42 127.05 86.42L125.05 92.91ZM100.2 111.75C110.78 111.75 119.51 103.95 121.02 93.79C116.48 94.68 108.61 95.91 99.96 95.91C91.77 95.91 84.04 94.74 79.4 93.86C80.94 103.98 89.65 111.75 100.2 111.75Z" />
	<path id="eyebrowleft" class="shp0" d="M63 60C63 60 70.77 49.66 80 54C89.23 58.34 91 63 91 63C91 63 76.59 53.06 63 60Z" />
	<path id="eyebrowright" class="shp0" d="M112 63C112 63 125.57 54.34 132 58C138.43 61.66 137 62 137 62C137 62 129.03 59.12 112 63Z" />
	<path id="eyeleft" class="shp0" d="M76.5 65C78.99 65 81 67.91 81 71.5C81 75.09 78.99 78 76.5 78C74.01 78 72 75.09 72 71.5C72 67.91 74.01 65 76.5 65Z" />
	<path id="eyeright" class="shp0" d="M124.5 69C127.54 69 130 70.34 130 72C130 73.66 127.54 75 124.5 75C121.46 75 119 73.66 119 72C119 70.34 121.46 69 124.5 69Z" />
</svg>