<svg version="1.2" baseProfile="tiny-ps" xmlns="http://www.w3.org/2000/svg" viewBox="0 0 200 175" width="200" height="175">
	<title>hlgbt.svg</title>
	<style>
		tspan { white-space:pre }
		.shp0 { opacity: 0;fill: #000000 } 
		.shp1 { opacity: 0;fill: #dd0303 } 
		.shp2 { opacity: 0;fill: #f78800 } 
		.shp3 { opacity: 0;fill: #f7e600 } 
		.shp4 { opacity: 0;fill: #007c25 } 
		.shp5 { opacity: 0;fill: #004bf7 } 
		.shp6 { opacity: 0;fill: #710783 } 
		.shp7 { opacity: 0;fill: #dc12f4 } 
		.shp8 { opacity: 0;fill: #624141 } 
#h1{opacity:1;fill:#222;}.dolgbt{opacity:1;}
	</style>
	<path id="h1" class="shp0" d="M167.83 90C168.25 106.71 169.08 163.42 161.2 168.98C151.95 175.51 148.15 157.98 143.6 156.88C139.05 155.79 134.8 154.68 134.8 154.68C134.8 154.68 150.88 140.42 158.04 122.05C162.32 111.08 162.29 98.01 161.4 90L160.95 90C160.95 90 152.02 81.74 149.87 75.79C147.72 69.84 100.5 68.83 100.5 68.83L99.5 68.83C99.5 68.83 52.28 69.84 50.13 75.79C47.98 81.74 39.05 90 39.05 90L37.6 90C36.71 98.01 36.68 111.08 40.96 122.05C48.12 140.42 64.2 154.68 64.2 154.68C64.2 154.68 59.95 155.79 55.4 156.88C50.85 157.98 47.05 175.51 37.8 168.98C28.55 162.45 31.3 85.38 31.3 85.38L31.3 84.28C31.3 84.28 32.54 83.22 34.05 82.14C39.02 66.9 54.79 34.83 99.5 35C99.67 35 99.83 35.01 100 35.01C100.17 35.01 100.33 35 100.5 35C146.2 34.82 161.67 68.33 166.27 83.12C167.11 83.79 167.7 84.28 167.7 84.28L167.7 85.38C167.7 85.38 167.74 86.7 167.8 88.98C167.94 89.64 168 90 168 90L167.83 90Z" />
	<path id="h1r" class="shp1 dolgbt" d="M64.48 42.59C64.48 42.59 72.49 38.15 72.82 39.19C73.15 40.23 71.76 77.19 71.76 77.19L64.71 71.67L64.48 42.59Z" />
	<path id="h1o" class="shp2 dolgbt" d="M73.89 38.27C73.89 38.27 82.83 34.9 83.16 35.94C83.49 36.98 80.81 69.85 80.81 69.85L73.76 75.34L73.89 38.27Z" />
	<path id="h1y" class="shp3 dolgbt" d="M84.23 36.02C84.23 36.02 95.02 33.72 95.35 34.76C95.68 35.79 93.85 69.74 93.85 69.74L82.81 74L84.23 36.02Z" />
	<path id="h1g" class="shp4 dolgbt" d="M96.35 34.9C96.35 34.9 107.99 33.67 108.32 34.71C108.65 35.75 105.82 75.62 105.82 75.62L95.85 71.88L96.35 34.9Z" />
	<path id="h1bl" class="shp5 dolgbt" d="M117.79 69.5L107.82 72.76C107.82 72.76 109.83 35.84 110.31 34.86C110.79 33.88 121.21 36.66 121.21 36.66L117.79 69.5Z" />
	<path id="h1m" class="shp6 dolgbt" d="M126.76 71.23L118.78 77.65C118.78 77.65 121.73 38.79 122.2 37.81C122.68 36.83 131.03 40.46 131.03 40.46L126.76 71.23Z" />
	<path id="h2" class="shp0" d="M160.95 90C160.95 90 152.02 81.74 149.87 75.79C147.72 69.84 101.73 76.01 101.73 76.01C101.73 76.01 100.54 41.01 99.99 41.01C99.49 41 98.36 76 98.36 76C98.36 76 52.28 69.84 50.13 75.79C47.98 81.74 39.05 90 39.05 90L32 90C32 90 40.87 34.77 99.5 35C99.67 35 99.83 35.01 100 35.01C100.17 35.01 100.33 35 100.5 35C159.13 34.77 168 90 168 90L160.95 90Z" />
	<path id="h2a" class="shp0" d="M180 99C180 105.08 177.31 110 174 110C173.93 110 173.86 109.98 173.79 109.98C172.14 113.67 169.71 116 167 116C162.03 116 158 108.16 158 98.5C158 88.84 162.03 81 167 81C169.95 81 172.57 83.76 174.21 88.02C177.42 88.22 180 93.05 180 99ZM34 116C31.29 116 28.86 113.67 27.21 109.98C27.14 109.98 27.07 110 27 110C23.69 110 21 105.08 21 99C21 93.05 23.58 88.22 26.79 88.02C28.43 83.76 31.05 81 34 81C38.97 81 43 88.84 43 98.5C43 108.16 38.97 116 34 116Z" />
	<path id="h3a" class="shp0" d="M167.95 89.73C167.98 89.9 168 90 168 90L167.94 90C167.81 92.21 167.81 94.88 168 98.25C170.25 138.74 191.77 154.69 191 162C190.23 169.31 179 173 179 173C179 173 162.69 167.11 157 171.83C151.31 176.55 149 159.95 144 160C139 160.05 131.13 157.66 135 153.15C138.87 148.63 154.85 135.79 157 129C166.55 98.79 149.84 109.12 147 132.12C146.39 137.03 141.11 107.2 148 98C150.88 94.16 152.99 88.11 153.56 81.94C151.98 79.89 150.56 77.72 149.87 75.79C147.72 69.84 100.5 68.83 100.5 68.83L100.33 68.83C99.7 70.57 100.07 72.27 101.38 73.98C102.24 75.1 103.58 76 105.06 76.72C111.82 80.03 91.97 80.21 89 69C88.71 67.91 88.74 66.09 89.03 63.77C85.33 62.53 80.99 61.65 76.57 62C64.2 62.99 51.24 72.74 50.13 75.79C47.98 81.74 39.05 90 39.05 90L32 90C32 90 40.66 36.1 97.4 35.02C100.5 27.84 104.01 22.07 107.17 20.85C115.87 17.48 129.46 23.63 131 32C131 32 153.03 60.03 156.7 51.11C158.71 46.22 173.75 58.5 172.19 70.3C170.96 79.61 168.49 81.26 167.95 89.73Z" />
	<path id="h3b" class="shp0" d="M42 87C42 87 33.79 104.84 37 114C40.21 123.16 48.19 134.09 48 138C47.81 141.91 42.03 163.1 28 164C13.97 164.9 22.53 152.83 24 152C25.47 151.17 23.54 153.24 23 156C22.46 158.76 22.52 161.12 25 161C27.48 160.88 34.13 158.93 36 156C37.87 153.07 45.55 141.35 44 138C42.45 134.65 32.72 117.56 32 114C31.28 110.44 32.47 90.34 35 88C37.53 85.66 41.55 84.21 42 87Z" />
	<path id="h3colorc" class="shp7" d="M45 77C45 77 29.08 103.91 34 119.12C38.92 134.34 50.17 133.5 53 143C55.83 152.5 32.41 157.91 30 149C27.59 140.09 41.7 141.61 44 144C46.3 146.39 35.58 142.98 34 145C32.42 147.02 33.8 151.18 39 151C44.2 150.82 48.38 147.16 48 145C47.62 142.84 46.23 140.7 40 136C33.77 131.3 27.39 118.53 28 113C28.25 110.7 28.14 105.87 29.32 100.83C30.98 93.75 38.22 77.29 40.09 76C43.29 73.79 45.37 76.02 45 77Z" />
	<path id="h3c" class="shp0" d="M38 76C50.62 65.21 44.97 79.38 44 81C43.03 82.62 40.2 81.1 34 87C27.8 92.9 27.81 96.54 28 102C28.19 107.46 32.09 113.39 35 117C37.91 120.61 49.59 125.61 53 128C61.81 134.18 58.68 141.5 59 142C59.32 142.5 53.54 148.74 56 143C58.46 137.26 52.18 131.58 48 130C44.51 128.68 42.15 128.31 35 123C27.85 117.69 22.05 106.32 22 97C21.95 87.68 38 77 38 77C38 77 25.38 86.79 38 76Z" />
	<path id="h4" class="shp0" d="M156.95 109C156.95 109 161.3 100.52 159.38 92.02C157.87 85.32 148.69 78.97 149.87 75.79C150.91 72.99 137.74 63.27 126.32 62.25C113.61 61.11 100.5 68.83 100.5 68.83L99.5 68.83C99.5 68.83 88.3 61.07 76.57 62C64.2 62.99 49.27 72.66 50.13 75.79C51.21 79.71 42.12 85.35 40.61 92.06C38.69 100.55 43.05 109 43.05 109L32 90C32 90 40.87 34.77 99.5 35C99.67 35 99.83 35.01 100 35.01C100.17 35.01 100.33 35 100.5 35C159.13 34.77 168 90 168 90L156.95 109Z" />
	<path id="h5" class="shp0" d="M168 90L166 98C166 98 161.3 94.52 159.38 86.02C157.87 79.32 148.69 78.97 149.87 75.79C150.91 72.99 137.74 63.27 126.32 62.25C113.61 61.11 100.5 68.83 100.5 68.83L99.5 68.83C99.5 68.83 88.3 61.07 76.57 62C64.2 62.99 49.27 72.66 50.13 75.79C51.21 79.71 42.12 79.35 40.61 86.06C38.69 94.55 34 98 34 98L32 90C32 90 38.87 47.25 80.46 37.13C80.17 36.28 80 35.4 80 34.5C80 27.6 89.18 24 100.5 24C111.82 24 121 27.6 121 34.5C121 35.48 120.79 36.44 120.44 37.35C161.23 47.86 168 90 168 90Z" />
	<path id="h6" class="shp0" d="M95.41 32.99C130.08 32.5 170.25 62.4 170.14 76.37C170.11 80.16 176.93 89.26 175.05 93.29C172.33 99.13 171.29 106.24 165.89 111.04C165.72 111 165.54 110.95 165.37 110.91C165.1 104.62 167.55 98.15 165.47 92.11C165.13 90.41 164.79 88.72 164.44 87.02C164.52 91.42 159.01 96.64 151.84 97.46C151.06 93.35 152.4 87.3 147.88 85.06C147.09 90.36 141.98 97.25 135.22 99.81C135.14 99.81 135.05 99.81 134.97 99.81C134.81 97.8 133.94 96.15 131.9 95.11C125.7 91.95 113.53 91.33 104.1 89.89C96.42 88.72 88.47 87.39 81.76 85.58C75.73 83.97 69.8 81.46 65.72 78.8C64.03 77.62 62.34 76.45 60.66 75.27C60.66 75.36 60.66 75.44 60.67 75.53C56.99 77.37 50.86 84.24 52.83 88.72C53.49 89.85 54.14 90.98 54.8 92.11C54.71 92.11 54.63 92.11 54.54 92.11C46.58 91.03 40.41 88.91 37.73 85.19C37.64 85.19 37.56 85.19 37.47 85.19C37.65 91.6 36.21 98.63 38.46 105.17C39.16 107.2 41.13 111.23 39.88 113C39.62 112.91 39.35 112.83 39.09 112.74C36.82 110.08 34.54 107.43 32.26 104.78C27.84 98.64 32.24 86.02 28.35 81.04C22.29 72.42 42.33 55.5 51 50.06C52.78 48.95 55.23 47.76 57.53 47.22C58.65 47.06 59.77 46.9 60.89 46.74C62.2 45.48 63.5 44.21 64.81 42.95C68.42 40.24 72.35 37.7 77.31 36.15C80.86 35.36 84.4 34.57 87.95 33.78C90.43 33.52 92.92 33.25 95.41 32.99Z" />
	<path id="h7" class="shp0" d="M109.67 34C115.73 35.32 120.75 35.62 125.79 37.46C150.71 46.55 163.89 72.95 170.35 97.58C176.46 120.87 164.9 156.08 147.28 163.02C147.7 161.87 148.12 160.71 148.54 159.56C148.44 159.56 148.33 159.56 148.23 159.56C143.31 162.26 133.63 164.77 126.42 164.88C126.53 164.62 126.63 164.35 126.74 164.08C127.83 163.5 128.54 162.84 129.26 161.96C129.16 161.87 129.05 161.78 128.95 161.69C127.05 162.13 125.16 162.58 123.26 163.02C123.47 162.66 123.68 162.31 123.89 161.96C140.89 155.89 147.55 119.99 142.54 97.84C140.95 90.84 138.55 84.36 136.53 78.16C136.32 78.16 136.11 78.16 135.9 78.16C135.9 78.25 135.9 78.34 135.9 78.43C138.18 84.64 134.97 94.96 130.85 97.84C131.29 89.61 131.76 81.05 129.58 73.9C129.37 73.99 129.16 74.08 128.95 74.17C128.84 84.67 121.65 104.88 112.83 107.16C108.92 103.36 100.32 109.35 96.71 111.94C96.29 111.68 95.87 111.41 95.45 111.15C95.34 110.52 95.24 109.9 95.13 109.28C93.24 110.17 91.34 111.06 89.44 111.94C86.8 110.34 85.7 111.15 82.17 111.68C82.28 110.17 82.39 108.66 82.49 107.16C78.7 108.49 74.9 109.82 71.11 111.15C71.01 110.35 70.9 109.55 70.8 108.75C66.16 109.37 61.53 109.99 56.89 110.61C56.59 126.46 59.12 138.96 65.11 149.98C68 155.3 75.89 161.81 77.43 166.74C76.49 166.83 75.54 166.92 74.59 167.01C75.22 167.54 75.85 168.07 76.49 168.61C76.59 168.87 76.7 169.14 76.8 169.4C76.8 169.49 76.8 169.58 76.8 169.67C74.33 169.3 72.74 170.02 71.11 171C64.5 167.45 51.73 166.19 49.94 158.76C49.83 158.76 49.73 158.76 49.62 158.76C49.83 160.36 50.04 161.96 50.25 163.55C44.47 160.04 42.37 153.04 38.88 147.59C16.72 112.99 34.82 59.81 63.84 43.04C70.14 39.41 78.16 36.72 86.92 35.33C94.7 34.09 103.09 36.23 109.67 34Z" />
	<path id="h7a" class="shp8" d="M119 63C119 63 118.96 76.37 112.3 89.15C106.48 100.3 99.09 110.76 96 112C89.17 114.73 76 114 76 114C74.68 113.65 81.08 111.99 82 110C82.91 108.04 77.45 111.87 68 111C64.78 110.7 74.33 109.12 75 107C75.94 104.02 57.1 109.66 60 108C65.7 104.74 68.45 100.66 73 102C75.89 102.85 86.94 102.59 99.46 92.21C109.9 83.55 116.21 67.58 119 63Z" />
	<path id="h8" class="shp0" d="M94.35 22.01C133.04 21.45 161.01 39.82 170.1 64.17C172.11 69.55 169.37 76.14 170.66 81.38C171.91 87.96 173.15 94.53 174.4 101.11C175.03 103.71 176.39 107.59 175.89 110.27C175.83 110.27 175.76 110.27 175.7 110.27C175.58 110.22 175.45 110.16 175.33 110.11C173.96 105.69 172.59 101.27 171.22 96.85C171.16 96.85 171.1 96.85 171.04 96.85C173.02 114.85 176.08 139.19 171.22 156.84C169.78 162.1 168.07 170.62 162.27 172C163.2 169.9 164.13 167.79 165.07 165.68C167.06 158.39 164.72 143.19 160.96 138.69C162.9 146.07 167.04 170.35 156.67 171.68C156.98 171.37 157.29 171.05 157.6 170.74C160.99 163.6 160 152.45 157.98 144.37C157.54 142.42 157.1 140.48 156.67 138.53C156.61 138.53 156.55 138.53 156.48 138.53C156.51 141.14 155.25 155.56 154 157C150.33 154.11 147.67 161.89 144 159C147.52 154.11 152.43 136.55 155 131C158.65 123.13 161.08 110.8 159.1 100.32C154.8 99.32 150.51 98.32 146.22 97.32C133.39 93.09 121.34 86.48 113.38 78.06C110.46 74.75 107.53 71.43 104.61 68.12C103.43 66.48 102.24 64.85 101.06 63.22C105.66 72.18 108.63 82.43 114.31 90.69C116.06 93.24 123.75 101.88 124.01 103.48C123.95 103.48 123.89 103.48 123.83 103.48C119.45 102.02 114.03 94.84 111.14 91.64C103.53 83.22 96.15 74.13 90.24 64.33C86.96 58.88 84.57 53.14 81.47 47.43C81.28 47.54 81.1 47.64 80.91 47.75C80.07 52.73 65.12 58.46 65.04 64.33C65.04 67.9 65.04 71.48 65.04 75.06C64.92 75.01 64.8 74.96 64.67 74.9C63.99 70.06 63.3 65.22 62.62 60.38C62.62 60.48 62.62 60.59 62.62 60.7C62.06 67.54 61.5 74.38 60.94 81.22C56.12 106.66 62.71 129.03 71.39 147.37C73.9 152.67 79.58 165.16 85.38 166.95C85.38 167.16 85.38 167.37 85.38 167.58C85.13 167.74 84.89 167.9 84.64 168.05C78.26 167.12 71.84 152.96 67.1 149.42C68.67 152.23 75.88 166.96 71.95 170.42C71.95 170.32 71.95 170.21 71.95 170.11C71.08 167.63 70.21 165.16 69.34 162.69C66 155.81 61.45 149.55 57.02 143.58C55.28 141.32 53.54 139.06 51.8 136.79C51.67 143.14 53.27 147.21 56.46 150.69C57.7 151.74 58.95 152.79 60.19 153.84C56.62 153.29 52.94 151.45 50.12 150.05C30.65 140.45 25.89 129.04 20.63 107.59C19.58 100.11 22.06 99.47 21 92C20.69 108.17 21.03 120.92 26.6 132.69C22.08 131.31 18.19 119.45 16.53 114.85C9.16 94.38 21.88 61.9 34.63 45.7C38.93 40.23 45.34 35.89 53.29 33.54C55.78 33.12 58.27 32.7 60.76 32.28C62.13 31.17 63.49 30.07 64.86 28.96C68.6 26.74 73.49 25.15 78.3 23.91C81.66 23.38 85.02 22.86 88.37 22.33C90.36 22.23 92.35 22.12 94.35 22.01Z" />
</svg>