<svg version="1.2" baseProfile="tiny-ps" xmlns="http://www.w3.org/2000/svg" viewBox="0 0 200 175" width="200" height="175">
	<title>luckyhat</title>
	<style>
		tspan { white-space:pre }
		.s0 { fill: #354d1c } 
		.s1 { fill: #48810c } 
		.s2 { fill: #224806 } 
		.s3 { fill: #e0d417 } 
		.s4 { fill: #1b1f17 } 
		.s5 { opacity: .1;fill: #000000 } 
		.s6 { fill: #539422 } 
		.s7 { fill: #78e12a } 
	</style>
	<path id="cozorok" class="s0" d="m100.9 70.28c42.54 4.5 76.64 11.83 76.16 16.35c-0.48 4.53-35.79 7.91-78.34 3.44c-42.55-4.47-76.2-15.22-75.72-19.75c0.48-4.53 35.36-4.54 77.9-0.04z" />
	<path id="hatg" class="s1" d="m35 74c0 0 16.89-25.85 27.41-45.43c6.42-11.95 8.59-21.57 8.59-21.57c0 0 21.39-1.7 42.32-0.42c20.05 1.22 39.68 5.42 39.68 5.42c0 0-0.51 3.36 2.2 20.08c3.24 19.99 11.8 53.92 11.8 53.92c0 0-23.77 4.71-85-2c-39.81-4.36-47-10-47-10z" />
	<path id="tg" class="s2" d="m112.32 2.76c23.16 1.3 40.75 5.7 40.51 9.84c-0.23 4.14-18.19-1.56-41.35-2.86c-23.16-1.3-40.75 2.3-40.51-1.84c0.23-4.14 18.19-6.44 41.35-5.14z" />
	<path id="sg" class="s2" d="m102.93 62.81c28.58 2.06 58.07-3.81 58.07-3.81l5 24c0 0-32.86 5.24-64.66 2.49c-31.7-2.75-64.34-14.49-64.34-14.49l12-20c0 0 27.06 9.88 53.93 11.81z" />
	<path id="bg" fill-rule="evenodd" class="s3" d="m120.96 62.58c-1.34 8.25-2.69 16.5-4.03 24.75c-11.63-0.95-23.26-1.9-34.88-2.85c1.01-8.28 2.02-16.56 3.04-24.84c11.96 0.98 23.92 1.96 35.88 2.94zm-4.23 2.66c-9.66-0.46-19.32-0.91-28.98-1.37c-0.55 2.63-1.1 5.26-1.65 7.89c2.99 0.24 5.98 0.49 8.97 0.73c0.22 1.36 0.45 2.71 0.67 4.07c-3.32-0.27-6.64-0.54-9.97-0.82c-0.16 1.99-0.33 3.99-0.49 5.98c9.63 0.79 19.27 1.58 28.9 2.37c0.85-6.28 1.7-12.57 2.55-18.86z" />
	<path id="cn" class="s4" d="m27 71c27.26 9.36 37.9 10.88 73 15c34.07 4 65.38 4.64 72.46 0.89c9.14-4.84 1.42 5.82 1.42 5.82c-1.95 0.65-37.35 4.62-76.88 0.29c-35.54-3.89-63.03-12.7-63.03-12.7c-16.05-4.48-14.23-11.79-6.97-9.3z" />
	<path id="hatshadow" fill-rule="evenodd" class="s5" d="m114 3c10.83 0.9 27.33 2.17 37 8c1.61 4.38 2.49 19.62 6 36c4.43 20.66 10.78 42.98 11.29 43.39c-24.88 4.43-49.31 5.02-63.29-1.39c10.53 0.41 26.14-2.21 32-7c-4.67-0.67-9.33-1.33-14-2c8.33-2 16.67-4 25-6c0-0.33 0-0.67 0-1c-3.67 0-7.33 0-11 0c1-1 2-2 3-3c-4.33-0.67-8.67-1.33-13-2c0.67 0 1.33 0 2 0c1-1 2-2 3-3c-3-1.67-6-3.33-9-5c0-0.33 0-0.67 0-1c1.67-1 3.33-2 5-3c0-0.33 0-0.67 0-1c-9-0.67-18-1.33-27-2c10.8-0.55 30.06-1.9 33-11c-11-1-22-2-33-3c13.37-0.49 27.7-3.31 36-9c-0.33-2.33-0.67-4.67-1-7c-4.33-1.33-12.67-1.67-17-3c0.33-0.67 4.67-2.33 5-3c1.33-0.33 2.67-0.67 4-1c0-0.33 0-0.67 0-1c-2.67-0.33-5.33-0.67-8-1c2.33-0.33 3.67-3.67 6-4c-5.33-1.67-18.67-1.33-24-3c3.98-0.79 9.83-1.39 12-4z" />
	<path id="tul" class="s6" d="m155.56 50.75c0 0-3.16 4.53-6.37 9.11c-3.29 4.71-2.45 10.72-2.45 10.72c0 0-3.68 3.41-3.38-1.27c0.13-2.07 0.35-8 3.28-11.56c3.7-4.48 7.47-8.72 7.47-8.72l1.44 1.71z" />
	<path id="4foi" class="s7" d="m169.25 45.97c-0.18 0.96-0.78 1.87-1.81 2.73c-1.03 0.86-2.44 1.31-4.22 1.35l-5.55 0.02l5.78 0.9c0.07 0 0.18 0.02 0.32 0.05c0.14 0.03 0.38 0.09 0.72 0.19c0.34 0.1 0.67 0.21 0.99 0.35c0.32 0.14 0.66 0.33 1.04 0.59c0.37 0.26 0.69 0.54 0.96 0.86c0.87 1.04 1.3 2.06 1.28 3.08c-0.02 1.01-0.47 1.89-1.37 2.64c-0.25 0.21-0.54 0.37-0.89 0.48c-0.34 0.11-0.7 0.18-1.06 0.19c-0.37 0.01-0.69 0.01-0.98-0.01c-0.29-0.02-0.57-0.05-0.86-0.1c0 0.29-0.02 0.58-0.05 0.86c-0.03 0.28-0.09 0.61-0.17 0.96c-0.08 0.36-0.2 0.7-0.37 1.01c-0.17 0.32-0.38 0.58-0.63 0.79c-0.89 0.75-1.84 1.04-2.84 0.88c-1-0.16-1.93-0.76-2.8-1.8c-0.87-1.04-1.31-2.49-1.3-4.34l0.13-5.82l-0.99 5.45c-0.35 1.75-1.04 3.06-2.07 3.92c-1.03 0.86-2.03 1.29-3 1.3c-0.98 0.01-1.81-0.4-2.52-1.24c-0.19-0.23-0.34-0.51-0.44-0.84c-0.1-0.33-0.15-0.66-0.16-1.01c0-0.35 0.01-0.66 0.03-0.94c0.02-0.27 0.06-0.55 0.12-0.82c-0.28 0.01-0.56 0-0.83-0.03c-0.27-0.02-0.58-0.07-0.93-0.13c-0.34-0.06-0.67-0.18-0.97-0.33c-0.3-0.16-0.55-0.35-0.74-0.58c-0.7-0.84-0.96-1.74-0.78-2.69c0.18-0.96 0.78-1.87 1.81-2.73c0.31-0.26 0.67-0.49 1.08-0.68c0.4-0.19 0.77-0.33 1.1-0.41c0.33-0.08 0.66-0.15 1-0.19c0.34-0.04 0.58-0.07 0.72-0.07c0.14 0 0.24 0 0.31 0l5.57-0.02l-5.76-0.89c-1.82-0.32-3.17-1-4.04-2.04c-0.87-1.04-1.3-2.06-1.28-3.08c0.02-1.01 0.47-1.89 1.37-2.64c0.25-0.21 0.54-0.37 0.89-0.48c0.34-0.11 0.7-0.18 1.06-0.19c0.37-0.01 0.69-0.01 0.98 0.01c0.29 0.02 0.57 0.05 0.86 0.1c0-0.29 0.02-0.58 0.05-0.86c0.03-0.28 0.09-0.61 0.17-0.96c0.08-0.36 0.2-0.7 0.37-1.01c0.17-0.32 0.38-0.58 0.63-0.79c0.89-0.75 1.84-1.04 2.84-0.88c1 0.16 1.93 0.76 2.8 1.8c0.27 0.32 0.49 0.68 0.68 1.1c0.19 0.41 0.32 0.79 0.4 1.13c0.08 0.34 0.14 0.68 0.17 1.03c0.04 0.35 0.06 0.6 0.06 0.74c0 0.14 0 0.25-0.01 0.32l-0.13 5.85l1-5.49c0.01-0.07 0.02-0.17 0.05-0.31c0.03-0.14 0.09-0.37 0.2-0.69c0.1-0.33 0.22-0.64 0.36-0.95c0.14-0.31 0.34-0.64 0.6-1.01c0.26-0.37 0.54-0.68 0.86-0.94c1.03-0.86 2.03-1.29 3-1.3c0.98-0.01 1.81 0.4 2.52 1.24c0.19 0.23 0.34 0.51 0.44 0.84c0.1 0.33 0.15 0.66 0.16 1.01c0 0.35-0.01 0.66-0.03 0.94c-0.02 0.27-0.06 0.55-0.12 0.82c0.28-0.01 0.56 0 0.83 0.03c0.27 0.02 0.58 0.07 0.93 0.13c0.34 0.06 0.67 0.18 0.97 0.33c0.3 0.16 0.55 0.35 0.74 0.58c0.7 0.84 0.96 1.74 0.78 2.69z" />
</svg>