<svg version="1.2" baseProfile="tiny-ps" xmlns="http://www.w3.org/2000/svg" viewBox="0 0 200 148" width="200" height="148">
	<title>m1</title>
	<style>
		tspan { white-space:pre }
		.shp0 { fill: #1f1f1f } 
		.shp1 { fill: #1c9dbd } 
	</style>
	<path id="n1" class="shp0" d="M99.12 66.07C99.37 65.37 99.66 65.01 100 65.01C100.34 65.01 100.63 65.37 100.88 66.07L109.63 90.95C109.88 91.65 110 92.48 110 93.45C110 94.41 109.88 95.24 109.63 95.94C109.38 96.65 109.09 97 108.75 97C108.75 97 104.19 93.03 99.73 93.03C95.44 93.03 91.25 97 91.25 97C90.91 97 90.61 96.65 90.37 95.94C90.12 95.24 90 94.41 90 93.45C90 92.48 90.12 91.65 90.37 90.95L99.12 66.07L99.12 66.07Z" />
	<path id="m1" class="shp0" d="M174 77.82C173.98 77.85 173.95 77.89 173.92 77.92C174.01 77.77 174.05 77.72 174 77.82ZM157.18 95.86C150.16 96.87 159.25 89.47 152 86C144.75 82.53 137.27 84.3 137 90C136.74 95.39 142 99 142 99C142 99 124.01 96.64 124 91C123.99 85.36 100 85.42 100 81C100 85.42 76.01 85.36 76 91C75.99 96.64 58 99 58 99C58 99 63.26 95.39 63 90C62.73 84.3 55.25 82.53 48 86C40.75 89.47 49.84 96.87 42.82 95.86C36.38 94.93 27.15 79.59 26.08 77.92C27.36 79.09 40.23 80.72 32.73 72.19C25 63.4 26.77 44.05 28.24 47.39C29.71 50.73 44.74 59.15 53.43 59.15C56.88 59.15 66.9 56.13 75.33 57.53C81.55 58.57 87.53 60.71 92.04 62.65C96.85 64.72 100 66.55 100 66.55C100 66.55 103.15 64.72 107.96 62.65C112.47 60.71 118.45 58.57 124.67 57.53C133.1 56.13 143.12 59.15 146.57 59.15C155.26 59.15 170.29 50.73 171.76 47.39C173.23 44.05 175 63.4 167.27 72.19C159.77 80.72 172.64 79.09 173.92 77.92C172.85 79.59 163.62 94.93 157.18 95.86ZM71 63C59.67 63 46 65 46 65C46 65 54.71 73.35 58 75C63.57 77.79 71.71 80.39 81 78C86.39 76.61 89.15 72.59 89 72C89 72 82.86 63 71 63ZM129 63C117.14 63 111 72 111 72C110.85 72.59 113.61 76.61 119 78C128.29 80.39 136.43 77.79 142 75C145.29 73.35 154 65 154 65C154 65 140.33 63 129 63ZM26.08 77.92C26.05 77.89 26.02 77.85 26 77.82C25.95 77.72 25.99 77.77 26.08 77.92Z" />
	<path id="b1" class="shp1" d="M167 68C163.97 71.61 160 59 160 59C160 59 167.89 58 171 53C171 53 170.03 64.39 167 68ZM33 68C29.97 64.39 29 53 29 53C32.11 58 40 59 40 59C40 59 36.03 71.61 33 68Z" />
</svg>