<svg version="1.2" baseProfile="tiny-ps" xmlns="http://www.w3.org/2000/svg" viewBox="0 0 200 148" width="200" height="148">
	<title>m2</title>
	<defs>
		<linearGradient id="grd1" gradientUnits="userSpaceOnUse"  x1="99" y1="59.709" x2="99" y2="81.279">
			<stop offset="0.62" stop-color="#5e5e5e" stop-opacity="0.6" />
		</linearGradient>
	</defs>
	<style>
		tspan { white-space:pre }
		.shp0 { fill: url(#grd1) } 
		.shp1 { fill: #1f1f1f } 
		.shp2 { fill: #1c9dbd } 
		.shp3 { opacity: 0.4;fill: #000000 } 
	</style>
	<path id="ir1" class="shp0" d="M134.18 80.88C120.44 82.48 108.76 79.13 108.09 73.39C107.42 67.66 118.02 61.71 131.76 60.11C145.51 58.51 157.19 61.86 157.86 67.59C158.53 73.33 147.93 79.28 134.18 80.88ZM63.82 80.88C50.07 79.28 39.47 73.33 40.14 67.59C40.81 61.86 52.49 58.51 66.24 60.11C79.98 61.71 90.58 67.66 89.91 73.39C89.24 79.13 77.56 82.48 63.82 80.88Z" />
	<path id="n1" class="shp1" d="M99.12 62.07C99.37 61.37 99.66 61.01 100 61.01C100.34 61.01 100.63 61.37 100.88 62.07L109.63 86.95C109.88 87.65 110 88.48 110 89.45C110 90.41 109.88 91.24 109.63 91.94C109.38 92.65 109.09 93 108.75 93C108.75 93 104.19 89.03 99.73 89.03C95.44 89.03 91.25 93 91.25 93C90.91 93 90.61 92.65 90.37 91.94C90.12 91.24 90 90.41 90 89.45C90 88.48 90.12 87.65 90.37 86.95L99.12 62.07L99.12 62.07Z" />
	<path id="ma" class="shp2" d="M174 78.82C173.98 78.85 173.95 78.89 173.92 78.92C174.01 78.77 174.05 78.72 174 78.82ZM157.18 96.86C150.16 97.87 159.25 90.47 152 87C144.75 83.53 137.27 85.3 137 91C136.74 96.39 142 100 142 100C142 100 124.01 97.64 124 92C123.99 86.36 100 86.42 100 82C100 86.42 76.01 86.36 76 92C75.99 97.64 58 100 58 100C58 100 63.26 96.39 63 91C62.73 85.3 55.25 83.53 48 87C40.75 90.47 49.84 97.87 42.82 96.86C36.38 95.93 27.15 80.59 26.08 78.92C27.36 80.09 40.23 81.72 32.73 73.19C25 64.4 26.77 45.05 28.24 48.39C29.71 51.73 44.74 60.15 53.43 60.15C56.88 60.15 66.9 57.13 75.33 58.53C81.55 59.57 87.53 61.71 92.04 63.65C96.85 65.72 100 67.55 100 67.55C100 67.55 103.15 65.72 107.96 63.65C112.47 61.71 118.45 59.57 124.67 58.53C133.1 57.13 143.12 60.15 146.57 60.15C155.26 60.15 170.29 51.73 171.76 48.39C173.23 45.05 175 64.4 167.27 73.19C159.77 81.72 172.64 80.09 173.92 78.92C172.85 80.59 163.62 95.93 157.18 96.86ZM71 64C59.67 64 46 66 46 66C46 66 54.71 74.35 58 76C63.57 78.79 71.71 81.39 81 79C86.39 77.61 89.15 73.59 89 73C89 73 82.86 64 71 64ZM129 64C117.14 64 111 73 111 73C110.85 73.59 113.61 77.61 119 79C128.29 81.39 136.43 78.79 142 76C145.29 74.35 154 66 154 66C154 66 140.33 64 129 64ZM26.08 78.92C26.05 78.89 26.02 78.85 26 78.82C25.95 78.72 25.99 78.77 26.08 78.92Z" />
	<path id="m1" class="shp1" d="M174 77.82C173.98 77.85 173.95 77.89 173.92 77.92C174.01 77.77 174.05 77.72 174 77.82ZM157.18 95.86C150.16 96.87 159.25 89.47 152 86C144.75 82.53 137.27 84.3 137 90C136.74 95.39 142 99 142 99C142 99 124.01 96.64 124 91C123.99 85.36 100 85.42 100 81C100 85.42 76.01 85.36 76 91C75.99 96.64 58 99 58 99C58 99 63.26 95.39 63 90C62.73 84.3 55.25 82.53 48 86C40.75 89.47 49.84 96.87 42.82 95.86C36.38 94.93 27.15 79.59 26.08 77.92C27.36 79.09 40.23 80.72 32.73 72.19C25 63.4 26.77 44.05 28.24 47.39C29.71 50.73 44.74 59.15 53.43 59.15C56.88 59.15 66.9 56.13 75.33 57.53C81.55 58.57 87.53 60.71 92.04 62.65C96.85 64.72 100 66.55 100 66.55C100 66.55 103.15 64.72 107.96 62.65C112.47 60.71 118.45 58.57 124.67 57.53C133.1 56.13 143.12 59.15 146.57 59.15C155.26 59.15 170.29 50.73 171.76 47.39C173.23 44.05 175 63.4 167.27 72.19C159.77 80.72 172.64 79.09 173.92 77.92C172.85 79.59 163.62 94.93 157.18 95.86ZM71 63C59.67 63 46 65 46 65C46 65 54.71 73.35 58 75C63.57 77.79 71.71 80.39 81 78C86.39 76.61 89.15 72.59 89 72C89 72 82.86 63 71 63ZM129 63C117.14 63 111 72 111 72C110.85 72.59 113.61 76.61 119 78C128.29 80.39 136.43 77.79 142 75C145.29 73.35 154 65 154 65C154 65 140.33 63 129 63ZM26.08 77.92C26.05 77.89 26.02 77.85 26 77.82C25.95 77.72 25.99 77.77 26.08 77.92Z" />
	<path id="b1" class="shp2" d="M167 68C163.97 71.61 160 59 160 59C160 59 167.89 58 171 53C171 53 170.03 64.39 167 68ZM33 68C29.97 64.39 29 53 29 53C32.11 58 40 59 40 59C40 59 36.03 71.61 33 68Z" />
	<path id="n2w" class="shp3" d="M155 76C155 76 123.2 94.91 107.09 75.1C107.92 76.06 114.99 83.24 135 79C149.05 76.03 156 63 156 63C156 63 161.21 64.02 162.3 66.74C163.19 68.97 155 76 155 76ZM107.09 75.1C107.03 75.04 107 75 107 75C107.03 75.04 107.06 75.07 107.09 75.1ZM93.91 75.1C93.94 75.07 93.97 75.04 94 75C94 75 93.97 75.04 93.91 75.1ZM46 76C46 76 37.81 68.97 38.7 66.74C39.79 64.02 45 63 45 63C45 63 51.95 76.03 66 79C86.01 83.24 93.08 76.06 93.91 75.1C77.8 94.91 46 76 46 76Z" />
</svg>