<svg version="1.2" baseProfile="tiny-ps" xmlns="http://www.w3.org/2000/svg" viewBox="0 0 200 148" width="200" height="148">
	<title>maleeyes1</title>
	<style>
		tspan { white-space:pre }
		.s0 { fill: #ffffff } 
		.s1 { fill: #000000 } 
		.s2 { opacity: .8;fill: #000000 } 
		.s3 { opacity: .2;fill: #ffffff } 
	</style>
	<path id="alb1" class="s0" d="m55.19 73.02c0 0 4.42-2.78 9.24-3.31c4.83-0.53 8.74 0.06 11.62 1.94c3.48 2.27 4.35 4.62 4.35 4.62c0 0-9.44 5.17-17.39 3.57c-10.77-2.17-7.82-6.82-7.82-6.82z" />
	<path id="irisblack" class="s1" d="m67.45 69.35c1.88-0.22 3.53-0.78 4.85 0.27c1.2 0.94 2.03 2.3 2.21 3.88c0.39 3.31-2.19 6.35-5.76 6.77c-3.58 0.43-6.8-1.92-7.19-5.23c-0.21-1.74 0.4-3.4 1.55-4.65c1.04-1.13 2.64-0.83 4.34-1.03z" />
	<path id="ochi" class="s1" d="m46.81 76.23c0 0 10.75-6.84 16.63-7.51c5.88-0.67 12.4-0.48 16.2 3.61c3.79 4.09 4.88 4.63 5.04 6.04c0.17 1.41-2.71-0.94-3.53-0.69c-0.82 0.26-2.82-0.05-3.45 0.41c-0.63 0.46-1.86 0-0.99-0.99c0.86-0.99 2.89-0.51 1.47-2.39c-1.42-1.88-3.56-6.23-17.06-3.51c-3.66 0.74-4.61 2.72-4.79 3.89c-0.36 2.25 1.82 2.99 3.97 3.95c1.14 0.51 3.71 1.77 3.71 1.77c0 0-6.62-0.85-8.16-2.35c-2.83-2.74-1.38-4.26-1.38-4.26c0 0-4.06 2.4-6.52 4.1c-2.46 1.7-1.13-0.08-1.12-2.08z" />
	<path id="sus" class="s1" d="m49.49 75.99c0 0 7.27-9.12 13.13-10.14c5.86-1.02 14.78 1.17 21.28 7.14c6.5 5.97-8.97-6.06-16-6.03c-7.02 0.03-16.05 5.34-18.42 9.04z" />
	<path id="downline" class="s2" d="m82.46 73.11c-0.43 0.3-5.41 5.59-12.11 8.36c-0.37 0.07-0.76 0.13-1.15 0.17c-0.39 0.04-0.79 0.06-1.2 0.07c-0.81 0.01-1.65-0.05-2.51-0.16c-1.71-0.22-3.47-0.66-5.16-1.16c-3.26-1.22-6.78-1.69-6.91-5.18c0.01-0.93 0.22-1.7 0.35-2.08c0.03-0.1 0.07-0.17 0.09-0.22c0.03-0.05 0.05-0.08 0.07-0.09c0.04-0.02 0.06 0.05 0.08 0.18c0.04 0.57 0.09 1.99 1.03 2.9c1.78 1.56 6.9 3.55 10.29 3.78c7.47-1.49 15.14-3.99 17.12-6.55v0z" />
	<path id="ineye1" class="s3" d="m68.55 69.8c2.19-0.26 3.95-0.64 4.16 1.12c0.21 1.76-1.4 3.4-3.59 3.67c-2.19 0.26-4.14-0.96-4.35-2.72c-0.21-1.76 1.59-1.81 3.78-2.07z" />
	<path id="inlights1" class="s0" d="m71.68 70.68c0.87-0.1 1.65 0.52 1.76 1.38c0.1 0.87-0.52 1.65-1.38 1.76c-0.87 0.1-1.65-0.52-1.76-1.38c-0.1-0.87 0.52-1.65 1.38-1.76z" />
	<path id="eyebrow-thik" class="s1" d="m79.72 59.86c-4.89 0.04-6.21-1.95-9.99-2.19c-9.38-0.6-15.7 2.77-17.12 3.84c-1.42 1.07-3.94 0.15-3.57 0c0.37-0.15 3.47-5.08 4.28-6.58c0.45-0.83 6.78-2.01 12.8-1.92c4.85 0.08 9.51 1.36 10.74 1.37c2.77 0.01 2.88-2.01 5.71-0.55c2.83 1.47 6.42 3.29 6.42 3.29c-6.88 2.67-4.38 2.71-9.28 2.74z" />
	<path id="alb12" class="s0" d="m137.22 80.74c-7.88 1.9-17.51-2.91-17.51-2.91c0 0 0.78-2.38 4.17-4.79c2.8-1.99 6.69-2.72 11.54-2.38c4.84 0.34 9.36 2.96 9.36 2.96c0 0 3.12 4.54-7.55 7.11z" />
	<path id="irisblack2" class="s1" d="m136.76 71.29c1.19 1.2 1.87 2.84 1.72 4.59c-0.27 3.33-3.4 5.79-6.99 5.5c-3.59-0.29-6.28-3.22-6.02-6.55c0.13-1.58 0.9-2.97 2.06-3.96c1.28-1.09 2.95-0.6 4.84-0.45c1.71 0.14 3.3-0.22 4.38 0.87z" />
	<path id="ochi2" class="s1" d="m152.22 78.64c-2.52-1.61-6.67-3.85-6.67-3.85c0 0 1.5 1.47-1.22 4.31c-1.49 1.56-8.07 2.66-8.07 2.66c0 0 2.52-1.36 3.64-1.91c2.12-1.05 4.27-1.87 3.82-4.1c-0.23-1.16-1.25-3.11-4.94-3.71c-13.59-2.21-15.57 2.22-16.91 4.15c-1.35 1.93 0.66 1.38 1.56 2.33c0.9 0.95-0.31 1.47-0.96 1.03c-0.65-0.44-2.64-0.05-3.47-0.28c-0.83-0.23-3.62 2.24-3.5 0.82c0.11-1.42 1.18-2 4.81-6.23c3.63-4.23 10.15-4.67 16.05-4.22c5.9 0.45 16.9 6.88 16.9 6.88c0.08 1.99 1.48 3.73-1.04 2.12z" />
	<path id="sus2" class="s1" d="m131.83 68.04c-7.02 0.24-22.03 12.84-15.76 6.63c6.27-6.21 15.11-8.74 21-7.94c5.89 0.8 13.5 9.64 13.5 9.64c-2.5-3.6-11.73-8.57-18.75-8.33z" />
	<path id="downline2" class="s2" d="m117.52 74.75c2.08 2.48 9.84 4.69 17.36 5.9c3.38-0.36 8.42-2.54 10.14-4.16c0.91-0.94 0.9-2.37 0.92-2.93c0.01-0.13 0.03-0.2 0.07-0.19c0.02 0.01 0.04 0.04 0.07 0.09c0.03 0.05 0.06 0.12 0.1 0.22c0.15 0.38 0.38 1.14 0.43 2.07c0 3.49-3.5 4.1-6.71 5.43c-1.67 0.57-3.41 1.07-5.11 1.36c-0.85 0.14-1.69 0.23-2.5 0.25c-0.41 0.01-0.81 0-1.2-0.02c-0.39-0.02-0.78-0.07-1.15-0.12c-6.8-2.52-11.98-7.61-12.42-7.89v0z" />
	<path id="eyebrow-thik2" class="s1" d="m110 57.11c0 0 3.59-1.83 6.42-3.29c2.83-1.47 2.93 0.56 5.71 0.55c1.24 0 5.89-1.29 10.74-1.37c6.02-0.09 12.35 1.08 12.8 1.92c0.82 1.5 3.91 6.43 4.28 6.58c0.37 0.15-2.15 1.07-3.57 0c-1.42-1.07-7.75-4.44-17.12-3.84c-3.78 0.24-5.1 2.23-9.99 2.19c-4.89-0.04-2.39-0.07-9.28-2.74z" />
	<path id="ineye2" class="s3" d="m131.3 70.91c2.2 0.18 4 0.15 3.86 1.92c-0.14 1.77-2.04 3.06-4.25 2.88c-2.2-0.18-3.87-1.76-3.73-3.53c0.14-1.77 1.91-1.46 4.12-1.28z" />
	<path id="inlights2" class="s0" d="m134.19 72.4c0.87 0.07 1.52 0.83 1.45 1.7c-0.07 0.87-0.83 1.52-1.7 1.45c-0.87-0.07-1.52-0.83-1.45-1.7c0.07-0.87 0.83-1.52 1.7-1.45z" />
</svg>