<svg version="1.2" baseProfile="tiny-ps" xmlns="http://www.w3.org/2000/svg" viewBox="0 0 200 148" width="200" height="148">
	<title>meye4.svg</title>
<defs>
   

<radialGradient id="rgrad3" cx="37%" cy="11%" r="17%" >
   


<stop offset="4%" style="stop-color:rgb(255,141,145);stop-opacity:1.00" />
            <stop offset="59%" style="stop-color:rgb(208,2,34);stop-opacity:1.00" />
            <stop offset="100%" style="stop-color:rgb(205,4,4);stop-opacity:1.00" />


    </radialGradient>
  </defs>

	<style>
		tspan { white-space:pre }
		.shp0 { opacity:0.7;fill: #000 } 
		.shp1 { fill: #d4d4d4 } 
		.shp2 { fill: #080808 } 
		.shp3 { fill: #ffffff }
#l5,#l5r{fill:url(#rgrad3);} 
#l1,#l1r{opacity:1;fill:#000;}
	</style>
	<path id="l1" class="shp0" d="M78.12 50.47C75.38 49.04 72.59 48.24 65.83 48.29C55.89 48.36 35.67 55.34 40.81 52.18C45.94 49.01 67.32 43.81 72.27 44C77.21 44.18 83.01 51.85 83.01 51.85C81.47 52.75 80.86 51.9 78.12 50.47Z" />
	<path id="l2" class="shp0" d="M64.75 60.69C68.21 60.66 71.44 61.1 74.19 61.89C75.09 61.88 76.18 61.94 76.18 61.94C76.18 61.94 89.2 65.29 90.79 67.54C89.12 65.17 93.16 68.74 88.98 72.18C88.6 72.5 88.28 72.86 88.05 73.3C87.59 74.13 89.66 74.84 89.66 74.84C88.72 75.73 81.33 77.27 74.5 79.5C68.17 81.58 62.35 84.38 62.29 84.39C59.81 85.93 59.18 79.77 55.59 78.53C40.93 73.46 55.65 75.84 49.67 72.4C45.99 70.28 43.84 71.89 43.82 70.11C43.78 65.44 54.9 60.77 64.75 60.69Z" />
	<path id="l3" class="shp0" d="M66.33 60.36C67.56 60.57 74.22 64.67 74.79 65.39C75.37 66.11 74.31 67.84 73.57 67.26C72.82 66.68 70.09 64.27 60.89 63.75C51.7 63.22 39.63 56.2 39.63 56.2C44.48 58.44 65.09 60.15 66.33 60.36Z" />
	<path id="l4" class="shp1" d="M70.32 62.98C79.07 63.36 85.93 68.65 85.84 71.19C85.71 74.72 78.41 78.41 69.66 78.02C60.91 77.64 53.96 73.97 54.14 69.81C54.32 65.65 61.56 62.6 70.32 62.98Z" />
	<path id="l5" class="shp2" d="M71.2 62.42C72.09 62.5 82.23 63.07 82.49 65.77C83.03 71.26 77.14 74.6 71.07 74.41C65 74.21 60.94 70.55 60.5 65.05C60.17 60.97 69.98 62.31 71.2 62.42Z" />
	<path id="l6" class="shp3" d="M64.33 64.09C65.98 63.93 67.47 65.36 67.66 67.29C67.85 69.21 66.66 70.9 65.01 71.06C63.36 71.22 61.88 69.79 61.69 67.87C61.5 65.95 62.69 64.26 64.33 64.09Z" />
	<path id="l7" class="shp3" d="M69.33 63.81C70.32 63.71 71.2 64.44 71.3 65.43C71.39 66.42 70.67 67.3 69.68 67.39C68.69 67.49 67.81 66.76 67.71 65.77C67.62 64.79 68.34 63.91 69.33 63.81Z" />
	<path id="l1r" class="shp0" d="M117.99 51.85C117.99 51.85 123.79 44.18 128.73 44C133.68 43.81 155.06 49.01 160.19 52.18C165.33 55.34 145.11 48.36 135.17 48.29C128.41 48.24 125.62 49.04 122.88 50.47C120.14 51.9 119.53 52.75 117.99 51.85Z" />
	<path id="l2r" class="shp0" d="M157.18 70.11C157.16 71.89 155.01 70.28 151.33 72.4C145.35 75.84 160.07 73.46 145.41 78.53C141.82 79.77 141.19 85.93 138.71 84.39C138.65 84.38 132.83 81.58 126.5 79.5C119.67 77.27 112.28 75.73 111.34 74.84C111.34 74.84 113.41 74.13 112.95 73.3C112.72 72.86 112.4 72.5 112.02 72.18C107.84 68.74 111.88 65.17 110.21 67.54C111.8 65.29 124.82 61.94 124.82 61.94C124.82 61.94 125.91 61.88 126.81 61.89C129.56 61.1 132.79 60.66 136.25 60.69C146.1 60.77 157.22 65.44 157.18 70.11Z" />
	<path id="l3r" class="shp0" d="M161.37 56.2C161.37 56.2 149.3 63.22 140.11 63.75C130.91 64.27 128.18 66.68 127.43 67.26C126.69 67.84 125.63 66.11 126.21 65.39C126.78 64.67 133.44 60.57 134.67 60.36C135.91 60.15 156.52 58.44 161.37 56.2Z" />
	<path id="l4r" class="shp1" d="M146.86 69.81C147.04 73.97 140.09 77.64 131.34 78.02C122.59 78.41 115.29 74.72 115.16 71.19C115.07 68.65 121.93 63.36 130.68 62.98C139.44 62.6 146.68 65.65 146.86 69.81Z" />
	<path id="l5r" class="shp2" d="M140.5 65.05C140.06 70.55 136 74.21 129.93 74.41C123.86 74.6 117.97 71.26 118.51 65.77C118.77 63.07 128.91 62.5 129.8 62.42C131.02 62.31 140.83 60.97 140.5 65.05Z" />
	<path id="l6r" class="shp3" d="M123.33 65.09C124.98 64.93 126.47 66.36 126.66 68.29C126.85 70.21 125.66 71.9 124.01 72.06C122.36 72.22 120.88 70.79 120.69 68.87C120.5 66.95 121.69 65.26 123.33 65.09Z" />
	<path id="l7r" class="shp3" d="M128.33 64.81C129.32 64.71 130.2 65.44 130.3 66.43C130.39 67.42 129.67 68.3 128.68 68.39C127.69 68.49 126.81 67.76 126.71 66.77C126.62 65.79 127.34 64.91 128.33 64.81Z" />
</svg>