<svg version="1.2" baseProfile="tiny-ps" xmlns="http://www.w3.org/2000/svg" viewBox="0 0 200 148" width="200" height="148" style="transform:translateY(-4px);">
	<title>mo3</title>
	<defs>
   <linearGradient id="grd1" x1="50%" y1="100%" x2="50%" y2="0%" >
    
          <stop offset="0%" style="stop-color:rgb(111,0,16);stop-opacity:1.00" />
          <stop offset="35%" style="stop-color:rgb(244,0,255);stop-opacity:1.00" />
          <stop offset="65%" style="stop-color:rgb(255,0,0);stop-opacity:1.00" />
          <stop offset="100%" style="stop-color:rgb(138,0,0);stop-opacity:1.00" />

    </linearGradient>
  </defs>
	<style>
		tspan { white-space:pre }
		.lipdown { fill: url(#grd1);} 
		.lipup { fill: #ff5555 }
	</style>
	<path id="ld" class="lipdown" d="M116.58 35.91C113.6 34.61 108.04 32.42 104.95 32.64C104.33 32.68 103.77 32.67 103.27 32.61C102.99 32.88 102.66 33.04 102.3 33.04L98.69 33.04C98.33 33.04 98 32.88 97.72 32.61C97.22 32.67 96.66 32.68 96.04 32.64C92.95 32.42 87.39 34.61 84.41 35.91C81.43 37.21 84.11 32.96 84.11 32.96C84.11 32.96 95.53 23.35 96.77 24.01C98.01 24.66 100.3 26.82 100.3 26.82L100.39 27.66L100.6 27.66L100.69 26.82C100.69 26.82 102.98 24.66 104.22 24.01C105.46 23.35 116.89 32.96 116.89 32.96C116.89 32.96 119.57 37.21 116.58 35.91Z" />
	<path id="lu" class="lipup" d="M101.5 42.81C101.32 42.93 101.11 42.99 100.9 42.99L100.5 42.99C100.28 42.99 100.08 42.93 99.89 42.81C98.21 42.84 93.36 42.43 89.24 37.36C89.24 37.36 94.56 39.86 96.54 39.32C97.63 39.02 98.79 38.77 99.62 38.6C99.87 38.35 100.17 38.21 100.5 38.21L100.9 38.21C101.22 38.21 101.52 38.35 101.77 38.6C102.6 38.77 103.76 39.02 104.85 39.32C106.83 39.86 112.15 37.36 112.15 37.36C108.03 42.43 103.18 42.84 101.5 42.81Z" />
</svg>