<svg version="1.2" baseProfile="tiny-ps" xmlns="http://www.w3.org/2000/svg" viewBox="0 0 200 148" width="200" height="148">
	<title>mop1</title>
	<defs>
		<linearGradient id="grd1" gradientUnits="userSpaceOnUse"  x1="100.5" y1="21.624" x2="100.5" y2="46.215">
			<stop offset="0" stop-color="#670303"  />
			<stop offset="0.768" stop-color="#e00808"  />
			<stop offset="1" stop-color="#7c0909"  />
		</linearGradient>
	</defs>
	<style>
		tspan { white-space:pre }
		.shp0 { fill: #ffffff } 
		.shp1 { fill: #e51d1d } 
		.shp2 { fill: url(#grd1) } 
	</style>
	<path id="th" class="shp0" d="M92 26C92 26 96.29 28 100.73 28C105.52 28 110.5 26 110.5 26C114.64 26 122.49 29.4 122.97 33.52C123.46 37.66 114.73 41 110.5 41C110.5 41 106.09 43 101.76 43C97.59 43 93.5 41 93.5 41C89.36 41 80 38.14 80 34C80 29.86 87.86 26 92 26Z" />
	<path id="zn" fill-rule="evenodd" class="shp1" d="M100.5 25C103.92 25 107.18 20.37 110.13 21.04C113.72 21.86 117.71 25.31 121.16 27.11C126.13 29.7 130 31.02 130 34.2C130 38.7 124.74 38.42 118.25 40.76C114.33 42.17 106.6 47 101.5 47C95.93 47 87.8 42.01 83.68 40.35C77.8 37.98 71 38.45 71 34.2C71 31.03 74.74 29.75 79.66 27.17C83.34 25.24 87.68 21.7 91.59 20.89C94.35 20.31 97.36 25 100.5 25ZM90.96 30.19C86.16 31.45 85 30.58 85 33C85 36.87 91.06 40 101 40C110.94 40 118 36.87 118 33C118 30.55 115.77 31.4 110.87 30.15C108.04 29.42 104.65 34 101 34C97.28 34 93.83 29.44 90.96 30.19Z" />
	<path id="znplus" fill-rule="evenodd" class="shp2" d="M100.5 25C103.92 25 107.18 20.37 110.13 21.04C113.72 21.86 117.71 25.31 121.16 27.11C126.13 29.7 130 31.02 130 34.2C130 38.7 124.74 38.42 118.25 40.76C114.33 42.17 106.6 47 101.5 47C95.93 47 87.8 42.01 83.68 40.35C77.8 37.98 71 38.45 71 34.2C71 31.03 74.74 29.75 79.66 27.17C83.34 25.24 87.68 21.7 91.59 20.89C94.35 20.31 97.36 25 100.5 25ZM90.96 30.19C86.16 31.45 85 30.58 85 33C85 36.87 91.06 40 101 40C110.94 40 118 36.87 118 33C118 30.55 115.77 31.4 110.87 30.15C108.04 29.42 104.65 34 101 34C97.28 34 93.83 29.44 90.96 30.19Z" />
</svg>