<svg version="1.2" baseProfile="tiny-ps" xmlns="http://www.w3.org/2000/svg" viewBox="0 0 200 148" width="200" height="148">
	<title>mouthicon.svg</title>
	<style>
		tspan { white-space:pre }
		.shp0 { fill: #555;transform:scale(.6);transform-origin:center; } 
	</style>
	<path id="ld" class="shp0" d="M174.45 85.25C160.64 79.22 134.93 69.07 120.62 70.09C117.75 70.29 115.16 70.21 112.83 69.95C111.53 71.2 109.98 71.93 108.32 71.93L91.64 71.93C89.97 71.93 88.43 71.2 87.13 69.95C84.8 70.21 82.21 70.29 79.34 70.09C65.03 69.07 39.32 79.22 25.5 85.25C11.68 91.27 24.09 71.57 24.09 71.57C24.09 71.57 76.98 27.09 82.73 30.11C88.48 33.14 99.08 43.16 99.08 43.16L99.48 47.03L100.48 47.03L100.88 43.16C100.88 43.16 111.48 33.14 117.23 30.11C122.98 27.09 175.86 71.57 175.86 71.57C175.86 71.57 188.27 91.27 174.45 85.25Z" />
	<path id="lu" class="shp0" d="M104.64 117.2C103.77 117.73 102.83 118.02 101.83 118.02L99.98 118.02C98.98 118.02 98.04 117.73 97.17 117.2C89.4 117.31 66.93 115.41 47.87 91.95C47.87 91.95 72.5 103.53 81.67 101.01C86.72 99.63 92.1 98.46 95.93 97.68C97.1 96.55 98.49 95.88 99.98 95.88L101.83 95.88C103.33 95.88 104.71 96.55 105.88 97.68C109.71 98.46 115.1 99.63 120.15 101.01C129.31 103.53 153.94 91.95 153.94 91.95C134.88 115.41 112.41 117.31 104.64 117.2Z" />
</svg>