<svg version="1.2" baseProfile="tiny-ps" xmlns="http://www.w3.org/2000/svg" viewBox="0 0 200 148" width="200" height="148">
	<title>mox1</title>
	<style>
		tspan { white-space:pre }
		.shp0 { fill: #b1b1b1 } 
		.shp1 { fill: #000000 } 
		.shp2 { fill: #2f2e2e } 
		.shp3 { fill: #ffffff } 
	</style>
	<path id="m1A" class="shp0" d="M101 24C108.18 24 114 27.81 114 32.5C114 37.19 108.18 41 101 41C93.82 41 88 37.19 88 32.5C88 27.81 93.82 24 101 24Z" />
	<path id="m1" fill-rule="evenodd" class="shp1" d="M99.5 23C108.61 23 116 27.25 116 32.5C116 37.75 108.61 42 99.5 42C90.39 42 83 37.75 83 32.5C83 27.25 90.39 23 99.5 23ZM89 33C89 36.87 94.37 40 101 40C107.63 40 113 36.87 113 33C113 29.13 107.63 26 101 26C94.37 26 89 29.13 89 33Z" />
	<path id="m2A" class="shp2" d="M100 23C105.52 23 110 28.37 110 35C110 41.63 105.52 47 100 47C94.48 47 90 41.63 90 35C90 28.37 94.48 23 100 23Z" />
	<path id="m2" fill-rule="evenodd" class="shp1" d="M100 20C106.63 20 112 25.49 112 33.5C112 38.52 109.88 44.95 106.67 47.55C104.76 49.1 102.47 48 100 48C97.58 48 95.33 49.14 93.45 47.65C90.17 45.07 88 38.59 88 33.5C88 25.49 93.37 20 100 20ZM99.37 26.27C94.49 26.27 90.53 28.99 90.53 34.82C90.53 40.64 94.49 41.09 99.37 41.09C104.25 41.09 109.21 40.64 109.21 34.82C109.21 28.99 104.25 26.27 99.37 26.27Z" />
	<path id="m3A" class="shp3" d="M101 36C102.74 36 104.38 34.24 105.8 34.67C108.9 35.61 111 37.42 111 39.5C111 42.54 106.52 45 101 45C95.48 45 91 42.54 91 39.5C91 37.38 93.18 35.54 96.38 34.62C97.76 34.22 99.33 36 101 36Z" />
	<path id="m3" fill-rule="evenodd" class="shp1" d="M100 20C106.63 20 112 25.49 112 33.5C112 38.52 109.88 44.95 106.67 47.55C104.76 49.1 102.47 48 100 48C97.58 48 95.33 49.14 93.45 47.65C90.17 45.07 88 38.59 88 33.5C88 25.49 93.37 20 100 20ZM99.37 26.27C94.49 26.27 90.53 28.99 90.53 34.82C90.53 40.64 94.49 41.09 99.37 41.09C104.25 41.09 109.21 40.64 109.21 34.82C109.21 28.99 104.25 26.27 99.37 26.27Z" />
	<path id="m4" class="shp1" d="M81 34.8C81.12 34.28 81.64 31.7 84.85 28.67C88.06 25.64 97.88 33.96 100.23 31.73C102.57 29.51 124.9 31.1 128.43 29.69C131.96 28.28 136.62 33.51 132.28 32.76C127.94 32 112.24 39.23 102.79 39.9C93.34 40.58 86.13 36.84 86.13 36.84C80.84 36.54 80.88 35.32 81 34.8Z" />
	<path id="m4A" class="shp1" d="M87 24C87 24 77.67 32.25 78 36C78.33 39.75 74.47 37.03 75 35C75.53 32.97 78.89 26.36 87 24Z" />
</svg>