<svg version="1.2" baseProfile="tiny-ps" xmlns="http://www.w3.org/2000/svg" viewBox="0 0 200 148" width="200" height="148" style="transform:translateY(-5px);">
	<title>mox1m5.svg</title>
	<style>
		tspan { white-space:pre }
		.shp0 { opacity: 0;fill: #b43f3f } 
		.shp1 { opacity: 0;fill: #000000 } 
		.shp2 { fill: #e1e1e1 } 
		.shp3 { fill: #bd0233 } 
		.shp4 { opacity: 0.4;fill: #ffffff } 

#up3{fill: #000;}
#down3{fill: #000;}
#dinti3{fill: #f1f1f1;}
	</style>
	<path id="inner" class="shp0" d="M82.16 24.9C82.16 24.9 94.17 29.64 98.6 29.48C103.04 29.31 113.29 26.91 115.68 24.59C118.07 22.26 110.22 35.94 111.24 40.5C111.84 43.18 101.87 37.1 88.97 42.45C83.91 44.56 88.03 29.7 82.16 24.9Z" />
	<path id="up" class="shp1" d="M80.09 23.94C80.09 23.94 95.66 28.53 99.58 28.39C102.99 28.26 117.54 24.01 118.71 23.84C119.88 23.66 120.6 23.84 117.63 25.35C114.67 26.86 105.38 31.26 99.7 31.53C94.02 31.81 88.46 31.06 80.09 23.94Z" />
	<path id="dow" class="shp1" d="M85.63 35.25C85.63 35.25 87.02 41.76 88.93 41.41C90.85 41.05 94.73 40.33 99.03 39.95C103.33 39.56 108.76 41.26 109.21 40.58C109.67 39.9 110.96 35.97 112.04 35.22C113.58 34.17 111.11 41.2 111.33 42.59C111.54 43.99 105.47 42.02 100.13 42C94.79 41.98 87.96 43.64 86.99 43.58C85.69 43.51 85 38.17 85.63 35.25Z" />
	<path id="inner2" class="shp0" d="M86.85 24.48C100.78 29.83 109.58 23.75 109.49 26.43C109.35 30.99 119.83 44.67 116.99 42.34C114.15 40.02 103.44 37.62 98.98 37.45C94.51 37.29 83.42 42.03 83.42 42.03C88.36 37.23 81.38 22.37 86.85 24.48Z" />
	<path id="dow2" class="shp1" d="M99.68 35.4C105.42 35.68 115.54 40.07 118.8 41.58C122.06 43.09 121.37 43.27 120.17 43.09C118.97 42.92 103.6 38.67 100.16 38.54C96.22 38.4 81.53 42.99 81.53 42.99C88.53 35.88 93.95 35.13 99.68 35.4Z" />
	<path id="up2" class="shp1" d="M84.65 23.35C85.61 23.29 92.76 24.95 98.09 24.93C103.43 24.91 109.12 22.94 109.18 24.34C109.23 25.73 113.05 32.76 111.31 31.71C110.08 30.96 108.04 27.03 107.45 26.35C106.86 25.67 101.76 27.37 97.39 26.98C93.02 26.6 88.99 25.88 87.01 25.52C85.02 25.17 84.9 31.68 84.9 31.68C83.7 28.76 83.37 23.42 84.65 23.35Z" />
	<path id="dinti3" class="shp2" d="M109 35C109 35 104.74 36.33 102.69 35.73C101.83 35.88 98.67 36.32 97.56 35.7C96.99 35.81 93.09 35.92 91 35C90.81 34.79 91.46 31.14 92.94 31.03C94.38 30.92 97.72 31.11 97.68 31.03C97.67 31.01 97.67 31.2 97.66 31.5C97.8 31.23 98 31.06 98.26 31.03C99.7 30.87 103.04 31.11 103 31.03C103 31.02 102.99 31.06 102.99 31.12C103.07 31.08 103.16 31.04 103.26 31.03C104.7 30.87 108.04 31.11 108 31.03C107.96 30.95 109 35 109 35Z" />
	<path id="down3" class="shp3" d="M105.45 41.02C104.98 41.42 103.86 42.28 102.73 42.81C101.8 43.24 100 42.81 100 42.81C100 42.81 98.2 43.24 97.27 42.81C96.14 42.28 95.02 41.42 94.55 41.02C93.59 40.22 90.5 38.68 90 33C90 33 93.44 37.54 96.36 37.46C99.29 37.38 100 37.46 100 37.46C100 37.46 100.71 37.38 103.64 37.46C106.56 37.54 110 33 110 33C109.5 38.68 106.41 40.22 105.45 41.02Z" />
	<path id="up3" class="shp3" d="M113.73 35.81C108.63 37.13 105.84 31.47 104.04 32.85C101.09 35.1 100 33.84 100 33.84C100 33.84 98.91 35.1 95.96 32.85C94.16 31.47 91.37 37.13 86.27 35.81C81.17 34.5 86.27 33.84 86.27 33.84C86.27 33.84 90.57 31.99 91.92 29.88C92.21 29.44 94.19 26.92 94.62 26.85C95.14 25.64 96.01 24.88 96.94 25C98.27 25.18 100 26.71 100 28.89C100 26.71 101.73 25.18 103.06 25C103.99 24.88 104.86 25.64 105.38 26.85C105.81 26.92 107.79 29.44 108.08 29.88C109.43 31.99 113.73 33.84 113.73 33.84C113.73 33.84 118.83 34.5 113.73 35.81Z" />
	<path id="umbra3" fill-rule="evenodd" class="shp4" d="M103 26C103.47 26 103.29 28.91 104.1 28.56C103.93 28.79 103.83 29 104 29C104 29.61 105 27.39 105 28C105 28.42 106 28.67 106 29.09C106 29.54 106 29.99 106 30.44C106 30.96 106 31.48 106 32C105.33 32 104.67 31 104 31C103.22 31.07 102.62 32.17 102.16 32.25C100.31 32.57 100.59 32.48 100 28C100.67 28 101.33 28 102 28C102.33 27.33 102.67 26.67 103 26ZM104.1 28.56C104.37 28.2 104.82 27.78 104.66 28C104.43 28.32 104.25 28.49 104.1 28.56ZM99 38C102.05 39.75 101.36 38.55 103 42C102.33 42.33 100.67 40.67 100 41C99.33 41 99.67 42 99 42C98.33 41.67 97.67 41.33 97 41C97.67 39.67 98.33 39.33 99 38Z" />
</svg>