<svg version="1.2" baseProfile="tiny-ps" xmlns="http://www.w3.org/2000/svg" viewBox="0 0 200 175" width="200" height="175" style="transform:translateY(6px);">
	<title>ninja.svg</title>
	<style>
		tspan { white-space:pre }
		.shp0 { opacity: 0.659;fill: #3f3a36 } 
		.shp1 { fill: #74583f } 
		.shp2 { opacity: 0.988;fill: #74583f } 
		.shp3 { opacity: 0.141;fill: #ffffff } 
		.shp4 { opacity: 0;fill: #000000 } 
		.shp5 { opacity: 0;fill: #8f6838 } 
		.shp6 { opacity: 0;fill: #3f2e1a } 

#ntop{opacity:1;fill: #111;}
#nmoith{opacity:1;fill: #111;}
#sideright{opacity:1;fill: #222;}
#sideleft{opacity:1;fill: #222;}



	</style>
	<path id="ntopshadow" class="shp0" d="M164.78 121.82C162.57 124 160.72 118.3 158 114C155.28 109.7 156.86 94.71 143 93C131.63 91.6 118.06 95.57 110.24 97.28C109.01 98.22 106.2 98.17 105 99C103.06 100.33 94.27 101.53 91 99C90.13 98.33 89.29 97.66 88.45 96.99C80.49 95.16 67.76 91.67 57 93C43.14 94.71 44.72 109.7 42 114C39.28 118.3 37.43 124 35.22 121.82C33.01 119.64 33.81 108.4 33.42 104.69C33.03 100.99 30.44 87.72 33 83C37.45 74.81 48.03 59.32 53 55C56.01 52.38 61.08 47.85 65 46C68.88 44.17 72.16 42.15 81.24 39.43C89.81 36.86 94 36 94 36C94 36 95.13 35.32 96.34 34.6C96.58 34.31 96.8 34.11 97 34C97.57 33.7 98.09 33.46 98.56 33.26C98.73 33.16 98.89 33.07 99 33C99.03 32.98 99.05 33.02 99.07 33.07C102.01 32.03 103 33 103 33C103 33 106.24 35.09 106 36C106 36 108.32 36.8 117 39C125.13 41.06 131.06 44.19 135 46C138.94 47.81 141.31 49.73 144 52C146.69 54.27 163.15 70.77 167 83C168.61 88.12 166.97 100.99 166.58 104.69C166.19 108.4 166.99 119.64 164.78 121.82Z" />
	<path id="ntop" class="shp1" d="M172 113C169.54 114.91 160.72 114.3 158 110C155.28 105.7 156.86 90.71 143 89C131.63 87.6 118.06 91.57 110.24 93.28C109.01 94.22 106.2 94.17 105 95C103.06 96.33 94.27 97.53 91 95C90.13 94.33 89.29 93.66 88.45 92.99C80.49 91.16 67.76 87.67 57 89C43.14 90.71 44.72 105.7 42 110C39.28 114.3 30.46 114.91 28 113C25.54 111.09 26.43 101.25 26 98C25.57 94.75 30.44 83.72 33 79C37.45 70.81 50.31 54.27 53 52C55.69 49.73 61.06 44.81 65 43C68.94 41.19 75.02 40.06 83 36C90.98 31.94 94 32 94 32C94 32 95.13 31.32 96.34 30.6C96.58 30.31 96.8 30.11 97 30C97.57 29.7 98.09 29.46 98.56 29.26C98.73 29.16 98.89 29.07 99 29C99.03 28.98 99.05 29.02 99.07 29.07C102.01 28.03 103 29 103 29C103 29 106.24 31.09 106 32C106 32 109.02 31.94 117 36C124.98 40.06 131.06 41.19 135 43C138.94 44.81 138.31 44.73 141 47C143.69 49.27 164.07 70.3 167 79C168.71 84.09 174.43 94.75 174 98C173.57 101.25 174.46 111.09 172 113Z" />
	<path id="nmoith" class="shp2" d="M34 121C34 121 70.87 122.96 79 120C87.13 117.04 97.06 113.79 100 115C102.94 116.21 122.15 119.73 126 120C129.85 120.27 166.37 116.99 166 121C165.31 128.36 159.52 140.58 149.63 149.33C139.76 158.06 128.93 165.56 114 168C100.63 170.18 74.88 168 67 162C62.42 158.51 45.37 153.75 34 121Z" />
	<path id="sideleft" class="shp1" d="M39 105C36.87 114.27 38.21 113.71 41 116C43.79 118.29 58.66 124.32 51 128C43.34 131.68 51.43 156.69 36 130C20.57 103.31 34 91 34 91C39.38 83.77 41.13 95.73 39 105Z" />
	<path id="sideright" class="shp1" d="M166 91C166 91 179.43 103.31 164 130C148.57 156.69 156.66 131.68 149 128C141.34 124.32 156.21 118.29 159 116C161.79 113.71 163.13 114.27 161 105C158.87 95.73 160.62 83.77 166 91Z" />
	<path id="shadowtop" fill-rule="evenodd" class="shp3" d="M52 77C70.86 77.64 85.6 79.47 96 88C96 89.67 96 91.33 96 93C95.67 93 95.33 93 95 93C80.45 85.01 42.38 74.21 33 93C35.27 99.41 35.17 97.52 33 103C35 104 37 105 39 106C38.67 106.33 38.33 106.67 38 107C35.33 107.67 32.67 108.33 30 109C29.67 108.33 29.33 107.67 29 107C22.57 69.32 70.29 37.16 101 31C116.28 41.38 138.19 68.47 106 79C112.05 70.42 120.93 52.88 107 45C94.04 39.73 56.13 61.27 53 70C52.67 72.33 52.33 74.67 52 77Z" />
	<path id="shadowmouth" fill-rule="evenodd" class="shp3" d="M34 116C35.33 116 36.67 116 38 116C39.81 120.89 41.53 121.11 45 124C42.44 127.91 42.81 124.58 44 129C43.24 139.29 60.78 155.92 73 157C67.06 138.43 82.97 135.79 90 125C87.8 123.89 85.61 123.69 84 122C87.67 120.67 91.33 119.33 95 118C95 118.33 95 118.67 95 119C92.4 125.01 88.11 133.37 90 138C75.36 138.22 72.93 149.7 76 162C75.33 162.33 74.67 162.67 74 163C71.33 161.67 68.67 160.33 66 159C68 159.33 70 159.67 72 160C63.99 156.12 47.05 146.15 38.91 133.37C35.49 127.99 31.98 122.12 34 116ZM104 119C118.64 121.63 139.72 123.47 158 120C157.33 121 156.67 122 156 123C142.95 125.01 135.9 125.33 121 125C121.33 127 121.67 129 122 131C120.67 130.33 119.33 129.67 118 129C118.33 130.33 118.67 131.67 119 133C118.33 132.67 117.67 132.33 117 132C115.67 130 114.33 128 113 126C112.33 126 111.67 126 111 126C110.67 127.67 110.33 129.33 110 131C109.67 131 109.33 131 109 131C108.38 124.77 106.62 122.8 104 119Z" />
	<path id="hatshadow" class="shp4" d="M102 76C139.28 76 168.65 86.08 170 106C170.62 115.09 140.78 122 103.5 122C66.22 122 36.22 114.61 36 105.5C35.55 86.93 64.72 76 102 76Z" />
	<path id="hat" class="shp5" d="M80 11C86.92 11.07 99.79 16.2 106 17C112.21 17.8 127.65 9.61 133 9C138.35 8.39 146.44 13.24 150 17C153.56 20.76 154.35 29.23 155 33C155.65 36.77 158.31 58.9 158 61C157.69 63.1 160.12 76.04 161 79C161.88 81.96 165.56 84.12 168 84C170.44 83.88 170.71 82.14 180.44 80.18C190.18 78.21 196 79.68 196.5 80.18C197 80.67 197.91 83.61 194.71 88.13C191.52 92.65 166.39 106.2 145 112C123.61 117.8 90.39 116.26 61 113C31.61 109.74 5.36 83.61 3.84 82.17C2.31 80.72 3.16 78.86 3.84 78.19C4.51 77.51 11.83 79.02 17.22 79.18C22.6 79.34 42.35 83.29 43 82C43.65 80.71 46.63 63.84 46 62C45.37 60.16 45.31 61.2 44 58C42.69 54.8 42.84 48.84 44 36C45.16 23.16 48.28 21.48 51 18C53.72 14.52 61 12 61 12C62.81 11.34 73.08 10.93 80 11Z" />
	<path id="band" fill-rule="evenodd" class="shp4" d="M130 13C136.22 12.87 140.07 13.69 144 15C145.33 17 146.67 19 148 21C147.67 27 147.33 33 147 39C146 39.33 145 39.67 144 40C133.45 44.42 115.6 31.96 111 26C112 23.33 113 20.67 114 18C119.33 16.33 124.67 14.67 130 13ZM78 14C85.33 15 92.67 16 100 17C100 17.33 100 17.67 100 18C97.67 19 95.33 20 93 21C95 24 97 27 99 30C97.67 31.67 96.33 33.33 95 35C78.53 39.71 59.55 38.62 51 27C55.4 16.14 68.23 19.22 78 14ZM106 38C111.1 40.65 111.73 45.92 116 49C125.11 55.57 137.81 56.63 145 65C138.67 65 132.33 65 126 65C126.33 65.67 126.67 66.33 127 67C135.67 69 144.33 71 153 73C151.66 75.76 152.37 73.29 152 76C154.67 76.33 157.33 76.67 160 77C152.77 78.48 139.04 82.84 130 79C134.94 78.76 136.47 78.29 139 76C110.45 75.95 70.57 85.97 55 77C59.33 76 63.67 75 68 74C62.67 73.33 57.33 72.67 52 72C57.67 71.33 63.33 70.67 69 70C64 69 59 68 54 67C54.33 66.33 54.67 65.67 55 65C77.33 60.55 94.77 53.35 106 38ZM192 80C198.01 79.69 200.68 79.47 203 83C203 84.67 203 86.33 203 88C180.4 98.61 156.01 108.79 123 109C123.33 108.33 123.67 107.67 124 107C142.2 102.61 165.23 95.99 181 88C180.67 87.33 180.33 86.67 180 86C175.97 85.6 176.09 85.67 174 84C180 82.67 186 81.33 192 80Z" />
	<path id="topshadows" class="shp6" d="M45 63C45 63 81.74 58.43 106 58C132.56 57.53 158 65 158 65C158 65 163.82 65.56 164 68C164.18 70.44 166.36 75.65 166 77C165.64 78.35 164 83 164 83C164 83 127.29 85.15 104 85C79.12 84.84 42.92 83.78 43 82C43.08 80.22 45 63 45 63Z" />
</svg>