<svg version="1.2" baseProfile="tiny-ps" xmlns="http://www.w3.org/2000/svg" viewBox="0 0 350 450" width="350" height="450">
	<title>nof.svg</title>
	<style>
		tspan { white-space:pre }
		.shp0 { opacity:0;fill: #f0dfc5 } 
		.shp1 { fill: #e70e0e } 
		.shp2 { opacity: 0.18;fill: #000000 } 
		.shp3 { opacity:1;fill: #522e62 } 
		.txt4 { font-size: 36px;fill: #ffffff;font-family: "Arial" } 
#h1,#h2,#h3{animation:Falling 7s infinite;transform-origin:center center;}

#h1{transform:translate(20px, 90px) rotate(-5deg);opacity:0;animation-delay:0.5s;}
#h2{transform:translate(20px, 90px) rotate(-5deg);opacity:0;animation-delay:1s;}
#h3{transform:translate(20px, 90px) rotate(-5deg);opacity:0;animation-delay:1.5s;}
@keyframes Falling{
0%{transform:translate(20px, 90px) rotate(-5deg);opacity:0;}
10%{transform:translate(20px, 110px) rotate(5deg);opacity:1;}
90%{transform:translate(20px, 180px) rotate(45deg);opacity:1;}
100%{transform:translate(20px, 220px) rotate(5deg);opacity:0;}
}
	</style>
	<path id="female" class="shp0" d="M146 173C148.05 172.11 151.59 162.74 156 159C160.41 155.26 191.08 157.32 195 159C198.92 160.68 201.59 170.06 204 172C206.41 173.94 205.97 173.47 218 173C230.03 172.53 241.65 182.22 245 185C247.15 186.79 254.69 194.76 259 198C263.31 201.24 265.29 202.87 275 206C284.71 209.13 289.81 215.61 291 221C292.19 226.39 285.03 235.03 282 237C278.97 238.97 268.47 235.99 267 235C265.53 234.01 251.31 220.31 247 220C242.2 219.65 222 206 222 206C222 206 211.46 219.88 210 224C202.82 244.3 208.31 250.7 209 257C209.5 261.6 215.64 271.94 219 282C222.24 291.71 226.08 314.97 226 317C225.92 319.03 228.25 335.2 231 341C229.01 336.8 229.82 350.9 231.09 366.85C232.17 380.43 239.99 393.25 240 391C239.99 393.46 241.05 399.96 245 402C248.95 404.04 247 415 247 415C247 415 242.46 417.52 241 418C239.54 418.48 227.17 418.79 222 418C216.83 417.21 212.29 406.69 213 405C213.71 403.31 215.48 398.32 215 395C214.52 391.68 211.25 377.71 211 375C210.75 372.29 207.79 359.55 206 357C204.21 354.45 201.38 338.22 198 336C194.62 333.78 190.03 322.16 188 319C186.99 317.42 184.74 312.88 181.75 311.76C180.58 311.32 179.29 311.4 178.16 311.66C176.39 312.08 175 310.95 175 311C175 311.05 173.39 312.22 171.53 311.84C170.33 311.59 169.03 310.53 168 311C165.35 312.22 164.42 317.94 163 319C160.9 320.57 159.39 325.96 157 330C154.83 333.65 153.04 343.34 153 347C152.93 354.02 148.28 368.52 147 377C145.93 384.11 146.05 386.36 146 388C145.89 391.61 147.19 399.09 148 400C148.81 400.91 150.7 405.46 148 410C145.3 414.54 141.87 411.46 140 414C138.13 416.54 125.63 418.47 121 419C118.29 419.31 109.82 419.78 103.48 417.92C99 416.6 100.57 412.12 101 411C102.03 408.31 114.91 398.85 118 396C123.13 391.27 124.27 373.65 124 371C123.67 367.75 123.17 348.96 122 346C120.83 343.04 126.12 330.86 127 328C127.88 325.14 127.22 315.29 128 312C128.78 308.71 126.59 293.73 131 281C133.92 272.56 139.74 265.03 141 258C142.35 250.47 141.22 241.76 133 222C129.42 213.4 121.09 206.01 120 208C118.91 209.99 108.35 221.1 105 223C101.65 224.9 99.76 231.29 102 234C104.24 236.71 99.76 248.17 99 250C98.24 251.83 86.06 256.14 80 255C73.94 253.86 69.82 241.49 70 239C70.18 236.51 82.56 207.09 83 205C83.44 202.91 104.62 184.24 111 179C117.85 173.38 129 173 129 173C133.78 171.41 143.95 173.89 146 173Z" />
	<path id="h1" class="shp1" d="M139.95 249.93C139.85 250.12 139.69 250.26 139.48 250.35C139.26 250.43 139.05 250.44 138.85 250.36L128.34 246.48C128.24 246.45 128.08 246.39 127.88 246.31C127.68 246.23 127.35 246.07 126.89 245.83C126.44 245.59 126.01 245.33 125.61 245.04C125.21 244.75 124.8 244.38 124.39 243.91C123.98 243.44 123.67 242.95 123.47 242.43C122.81 240.74 122.82 239.21 123.5 237.84C124.18 236.48 125.45 235.43 127.31 234.7C127.83 234.49 128.38 234.37 128.98 234.32C129.59 234.28 130.17 234.31 130.74 234.4C131.31 234.5 131.81 234.61 132.24 234.73C132.67 234.84 133.09 234.98 133.5 235.14C133.69 234.74 133.9 234.36 134.14 233.98C134.37 233.61 134.67 233.19 135.02 232.72C135.37 232.26 135.78 231.84 136.25 231.47C136.72 231.09 137.22 230.8 137.73 230.6C139.59 229.87 141.24 229.77 142.67 230.31C144.1 230.85 145.14 231.96 145.81 233.65C146.48 235.35 146.2 237.45 144.99 239.96L139.95 249.93L139.95 249.93Z" />
	<path id="h2" class="shp1" d="M201.1 258.37C200.92 258.49 200.71 258.54 200.48 258.51C200.25 258.48 200.07 258.38 199.93 258.21L192.64 249.71C192.56 249.64 192.45 249.51 192.31 249.34C192.18 249.18 191.97 248.88 191.68 248.44C191.4 248.01 191.15 247.57 190.94 247.12C190.73 246.68 190.56 246.15 190.43 245.54C190.3 244.94 190.27 244.36 190.35 243.81C190.59 242.01 191.34 240.68 192.6 239.81C193.86 238.95 195.48 238.65 197.46 238.92C198.01 238.99 198.56 239.15 199.11 239.4C199.65 239.66 200.15 239.97 200.6 240.33C201.05 240.69 201.44 241.03 201.76 241.34C202.08 241.65 202.38 241.97 202.65 242.31C203.01 242.06 203.39 241.83 203.78 241.61C204.16 241.4 204.62 241.17 205.16 240.94C205.69 240.71 206.25 240.54 206.84 240.44C207.44 240.34 208.01 240.33 208.56 240.4C210.54 240.67 212.03 241.39 213.01 242.55C214 243.72 214.37 245.2 214.13 247C213.89 248.81 212.63 250.51 210.35 252.11L201.1 258.37L201.1 258.37Z" />
	<path id="h3" class="shp1" d="M175.41 241.69C175.33 241.89 175.18 242.04 174.97 242.14C174.76 242.24 174.55 242.25 174.34 242.18L163.63 238.9C163.53 238.88 163.37 238.83 163.17 238.76C162.96 238.69 162.62 238.55 162.15 238.33C161.68 238.12 161.24 237.88 160.82 237.62C160.4 237.35 159.98 237 159.54 236.55C159.11 236.11 158.78 235.64 158.54 235.13C157.79 233.48 157.71 231.96 158.31 230.55C158.91 229.15 160.12 228.03 161.94 227.19C162.45 226.96 163 226.81 163.59 226.73C164.19 226.65 164.78 226.64 165.35 226.71C165.93 226.78 166.43 226.86 166.87 226.95C167.3 227.04 167.73 227.15 168.15 227.29C168.31 226.88 168.51 226.49 168.72 226.1C168.93 225.71 169.2 225.27 169.53 224.79C169.85 224.31 170.24 223.87 170.69 223.47C171.14 223.07 171.61 222.75 172.12 222.52C173.93 221.69 175.57 221.5 177.03 221.95C178.49 222.41 179.59 223.46 180.35 225.11C181.11 226.77 180.96 228.89 179.89 231.46L175.41 241.69L175.41 241.69Z" />
	<path id="rectshadow" class="shp2" d="M90.44 205.96L265.96 197.11L272.56 328.04L97.04 336.89L90.44 205.96Z" />
	<path id="rect" class="shp3" d="M85.64 196.74L270.41 187.43L277.36 325.26L92.59 334.57L85.64 196.74Z" />
	<text id="textit" style="transform: matrix(0.999,-0.05,0.05,0.999,175.446,226.72)" >
		<tspan x="-75.992" y="0" class="txt4" dx="0 -1 -1 -1 -1 -1 -1 -1 -1 -1 -1" >obviously!
</tspan>
		<tspan x="-47.795" y="43.2" class="txt4" dx="0 -1 -1 -1 -1 -1 -1" >I need
</tspan>
		<tspan x="-60.446" y="86.4" class="txt4" dx="0 -1 -1 -1 -1 -1 -1 -1 -1 -1" >an outfit
</tspan>
	</text>
</svg>