<svg version="1.2" baseProfile="tiny-ps" xmlns="http://www.w3.org/2000/svg" viewBox="0 0 350 450" width="350" height="450">
	<title>o</title>
	<style>
		tspan { white-space:pre }
		.shp0 { fill: #749e38 } 
		.shp1 { fill: #5a7c2a } 
		.shp2 { fill: #4d5c37 } 
		.shp3 { fill: #617840 } 
	</style>
	<path id="shorts" class="shp0" d="M177 274C189.34 275.12 228 270.03 228 270.03C228 270.03 227.88 274.77 229 279C230.12 283.23 231.48 284.58 231 286C230.52 287.42 231.64 289.16 232 290C232.36 290.84 241.62 316.45 242 318C242.38 319.55 241.45 324.63 241 326C240.55 327.37 236.38 326.75 230 327C223.62 327.25 210.72 339.01 210 338C209.28 336.99 206.96 333.78 206 333C205.04 332.22 199.6 324.46 198 323C196.4 321.54 193.88 321.2 193 321C192.12 320.8 182.6 319.4 181 319C179.4 318.6 169.69 319.56 169 320C168.31 320.44 158.73 320.7 158 321C157.27 321.3 156.11 322.83 155 324C153.89 325.17 150.72 329.04 149 331C147.28 332.96 144.99 334.76 144 336C143.01 337.24 141.07 333.29 135 329C128.93 324.71 108.7 326.59 109 325C109.3 323.41 110.17 321.69 110 320C109.83 318.31 110.83 313.68 111 312C111.17 310.32 114.1 305.99 115 303C115.9 300.01 125.05 279.18 125 277C124.95 274.82 124 270 124 270C140.21 275.54 164.66 272.88 177 274Z" />
	<path id="leglongright" class="shp1" d="M210 337C210 337 222.1 326.52 224 326C225.9 325.48 238.81 323.8 240 325C241.19 326.2 243.76 334.49 244 337C244.24 339.51 244.88 344.78 246 347C247.12 349.22 249.08 355.05 249 356C248.92 356.95 248.36 359.49 249 362C249.64 364.51 254.42 379.6 255 380C255.58 380.4 258 382 258 382C258 382 259.35 392.65 258 393C256.65 393.35 258 397 258 397L259 400C259 400 251.31 396.92 244 399C236.69 401.08 229.74 404.6 228 405C226.26 405.4 223 404 223 404C223 404 222.26 397.04 223 396C223.74 394.96 223 390 223 390C223 390 221.34 386.86 222 383C222.66 379.14 220.19 364.11 219 362C217.81 359.89 214.15 353.26 214 351C213.85 348.74 212.67 343.71 212 342C211.33 340.29 210 337 210 337Z" />
	<path id="leglongleft" class="shp1" d="M118 320C120.4 320.29 125.85 321.33 134 324.63C142.15 327.93 145.27 333.56 145 335C144.73 336.44 142.04 340.68 141 341C140.47 341.17 140.62 343.32 139.83 346.02C139.06 348.61 137.34 351.7 137 354C136.52 357.22 135.56 378.52 136 383C136.44 387.48 136 389 136 389C136 389 134.94 392.55 135 395C135.06 397.45 134.3 399.75 134 401C133.7 402.25 130.35 408.02 128 407C125.65 405.98 123.15 404.42 118 399C112.85 393.58 100 396 100 396C100 396 100.67 393.45 101 392C101.33 390.55 101.75 388.6 101 387C100.25 385.4 101.88 373 102 372C102.12 371 103.77 369.62 104 369C104.23 368.38 104.04 359.35 104 358C103.96 356.65 103.36 353.24 103 352C102.64 350.76 105.12 345.54 106 344C106.88 342.46 107.69 335.14 108 333C108.31 330.86 110 322 110 322C110 322 115.6 319.71 118 320Z" />
	<path id="top" class="shp2" d="M126 171C134.28 170.33 139.72 172.06 144 173C144.78 173.17 146.52 173.34 148.92 173.5C155 173.9 165.39 163.22 175.73 163.33C185.54 163.43 190.49 169.64 196 171C199.17 171.78 202.67 175.96 207 173C214.51 167.86 232 168 232 168C232 168 241.74 173.52 244 176C246.26 178.48 248.4 185.08 255 189C261.6 192.92 266.22 199.1 267 201C267.78 202.9 283 209 283 209C283 209 272.77 211.25 269 214C257.31 222.54 263 232 263 232L247 222L243 221L238 216L233 219C233 219 233.32 222.93 233 228C232.86 230.17 232.74 238.72 231.51 247.8C229.86 259.93 227 273 227 273C227 273 177 286.37 172 286C167 285.63 124 273 124 273L120 259L118 250L117 236L118 223L113 219C113 219 108.74 222.63 105.59 223.52C102.73 224.32 101.31 230.66 101 228C100.81 226.37 90.47 227.59 82.64 227.86C78.07 228.01 74.35 227.18 74 227C73.04 226.51 83.02 205.41 84 203C84.98 200.59 112 175 112 175C116.78 173.42 121.87 171.33 126 171Z" />
	<path id="vesta" class="shp3" d="M151 209C151.71 212.59 205.29 209.97 205 205C204.71 200.03 208.1 169.31 210 168C211.9 166.69 235.42 168.26 233 169C232 169.31 229.17 177.42 229.71 186.83C230.48 200.13 235 216 235 216C235 216 229.82 267.44 226 273C222.18 278.56 177 285.67 174 286C171 286.33 125.41 279.71 123 271C120.59 262.29 113.85 220.83 116 218C117.29 216.3 117.11 201.03 115.45 188.95C114.35 180.96 111.48 174.37 112 174C113.3 173.08 140 169 140 169C141.75 169.7 150.29 205.41 151 209Z" />
</svg>