<svg version="1.2" baseProfile="tiny-ps" xmlns="http://www.w3.org/2000/svg" viewBox="0 0 350 450" width="350" height="450">
	<title>oa</title>
	<style>
		tspan { white-space:pre }
		.shp0 { fill: #231e1e } 
		.shp1 { fill: #121212 } 
		.shp2 { opacity: 0.122;fill: #6a6a6a } 
		.shp3 { fill: #494949 } 
		.shp4 { fill: #2a2828 } 
		.shp5 { fill: #272424 } 
		.shp6 { opacity: 0.169;fill: #000000 } 
		.shp7 { fill: #2f2929 } 
		.shp8 { opacity: 0.29;fill: #000000 } 
	</style>
	<path id="shorts" class="shp0" d="M177 274C189.34 275.12 228 270.03 228 270.03C228 270.03 227.88 274.77 229 279C230.12 283.23 231.48 284.58 231 286C230.52 287.42 231.64 289.16 232 290C232.36 290.84 241.62 316.45 242 318C242.38 319.55 241.45 324.63 241 326C240.55 327.37 236.38 326.75 230 327C223.62 327.25 210.72 339.01 210 338C209.28 336.99 206.96 333.78 206 333C205.04 332.22 199.6 324.46 198 323C196.4 321.54 193.88 321.2 193 321C192.12 320.8 182.6 319.4 181 319C179.4 318.6 169.69 319.56 169 320C168.31 320.44 158.73 320.7 158 321C157.27 321.3 156.11 322.83 155 324C153.89 325.17 150.72 329.04 149 331C147.28 332.96 144.99 334.76 144 336C143.01 337.24 141.07 333.29 135 329C128.93 324.71 108.7 326.59 109 325C109.3 323.41 110.17 321.69 110 320C109.83 318.31 110.83 313.68 111 312C111.17 310.32 114.1 305.99 115 303C115.9 300.01 125.05 279.18 125 277C124.95 274.82 124 270 124 270C140.21 275.54 164.66 272.88 177 274Z" />
	<path id="leglongright" class="shp0" d="M210 337C210 337 222.1 326.52 224 326C225.9 325.48 238.81 323.8 240 325C241.19 326.2 243.76 334.49 244 337C244.24 339.51 244.88 344.78 246 347C247.12 349.22 249.08 355.05 249 356C248.92 356.95 248.36 359.49 249 362C249.64 364.51 254.42 379.6 255 380C255.58 380.4 258 382 258 382C258 382 259.35 392.65 258 393C256.65 393.35 258 397 258 397L259 400C259 400 251.31 396.92 244 399C236.69 401.08 229.74 404.6 228 405C226.26 405.4 223 404 223 404C223 404 222.26 397.04 223 396C223.74 394.96 223 390 223 390C223 390 221.34 386.86 222 383C222.66 379.14 220.19 364.11 219 362C217.81 359.89 214.15 353.26 214 351C213.85 348.74 212.67 343.71 212 342C211.33 340.29 210 337 210 337Z" />
	<path id="leglongleft" class="shp0" d="M118 320C120.4 320.29 125.85 321.33 134 324.63C142.15 327.93 145.27 333.56 145 335C144.73 336.44 142.04 340.68 141 341C140.47 341.17 140.62 343.32 139.83 346.02C139.06 348.61 137.34 351.7 137 354C136.52 357.22 135.56 378.52 136 383C136.44 387.48 136 389 136 389C136 389 134.94 392.55 135 395C135.06 397.45 134.3 399.75 134 401C133.7 402.25 130.35 408.02 128 407C125.65 405.98 123.15 404.42 118 399C112.85 393.58 100 396 100 396C100 396 100.67 393.45 101 392C101.33 390.55 101.75 388.6 101 387C100.25 385.4 101.88 373 102 372C102.12 371 103.77 369.62 104 369C104.23 368.38 104.04 359.35 104 358C103.96 356.65 103.36 353.24 103 352C102.64 350.76 105.12 345.54 106 344C106.88 342.46 107.69 335.14 108 333C108.31 330.86 110 322 110 322C110 322 115.6 319.71 118 320Z" />
	<path id="shueleft" class="shp1" d="M101 389C101.02 387.85 100.03 381.78 100 381C99.97 380.22 102 370 102 370L104 367C104 367 103.41 363.81 103 363C102.59 362.19 102 360 102 360C102 360 103.55 359.35 104 357C104.45 354.65 112.87 360.16 120 362C127.13 363.84 139.88 360.57 139 363C138.12 365.43 136 385 136 385L137 390C137 390 135.02 392.7 135 395C134.98 397.3 135.97 405.94 135 409C134.03 412.06 126.91 413.78 126 415C125.09 416.22 109.22 420.4 106 421C102.78 421.6 90.58 418.23 88 417C85.42 415.77 81.12 413.37 80 412C78.88 410.63 81.8 404.59 84 404C86.2 403.41 93.14 401.35 95 400C96.86 398.65 100 394 100 394C100 394 100.98 390.15 101 389Z" />
	<path id="shueright" class="shp1" d="M235 359C243.32 358.36 246.89 350.88 248 351C249.11 351.12 248.82 352.36 250 354C251.18 355.64 250.01 358.16 249 359C247.99 359.84 251.64 363.06 251 365C250.36 366.94 251.79 370.49 252 372C252.21 373.51 254.77 378.96 256 380C257.23 381.04 257.89 381.64 258 383C258.11 384.36 258.78 389.22 259 391C259.22 392.78 257.29 392.93 257 394C256.71 395.07 257.89 398.13 258 399C258.11 399.87 261.3 401.85 262 403C262.69 404.15 262.35 409.58 262 411C261.65 412.42 263.98 415.97 255 419C246.02 422.03 229 418 229 418C229 418 228.76 416.12 228 415C227.24 413.88 226.53 413.44 225 412C223.47 410.56 222 404 222 404C222 404 222.07 402 222 401C221.93 400 221.62 398.43 222 397C222.38 395.57 222.22 392.93 222 391C221.78 389.07 221.77 388.18 221 388C220.23 387.82 221 384 221 384C221 384 221.18 380.6 221 379C220.82 377.4 220.43 375.69 221 375C221.57 374.31 219.99 369.9 220 369C220.01 368.1 218.21 364.4 217 364C215.79 363.6 216 356.44 216 356.44C221.2 356.44 226.68 359.64 235 359Z" />
	<path id="shineshoose" fill-rule="evenodd" class="shp2" d="M102 399C102.67 399.33 103.33 399.67 104 400C103.49 402.2 93.42 404.82 94 407C95.68 413.27 101.49 410.87 101 413C102.67 413.33 102.33 414.67 104 415C103.67 416.33 108.33 416.67 108 418C98.32 417.74 91.73 414.54 85 412C84.67 410.33 84.33 408.67 84 407C84.67 407 86.33 405 87 405C91.48 401.22 97.96 403.21 102 399ZM234 405C234 405.33 234 405.67 234 406C235 407 236 408 237 409C242.13 406.83 245.67 407.11 253 407C249.14 418.91 237.4 412.31 229 410C234.48 416.31 241.03 417.99 248.68 416.42C252.16 415.7 254.67 414.73 258 414C258.33 412 258.67 409 259 407C258.67 406.33 256.33 404.67 256 404C251.67 403.33 253.64 400.36 243 401C238.7 401.8 237 403.33 234 405Z" />
	<path id="top" class="shp3" d="M126 171C134.28 170.33 139.72 172.06 144 173C144.78 173.17 146.52 173.34 148.92 173.5C155 173.9 165.39 163.22 175.73 163.33C185.54 163.43 190.49 169.64 196 171C199.17 171.78 202.67 175.96 207 173C214.51 167.86 232 168 232 168C232 168 241.74 173.52 244 176C246.26 178.48 248.4 185.08 255 189C261.6 192.92 266.22 199.1 267 201C267.78 202.9 283 209 283 209C283 209 272.77 211.25 269 214C257.31 222.54 263 232 263 232L247 222L243 221L238 216L233 219C233 219 233.32 222.93 233 228C232.86 230.17 232.74 238.72 231.51 247.8C229.86 259.93 227 273 227 273C227 273 177 286.37 172 286C167 285.63 124 273 124 273L120 259L118 250L117 236L118 223L113 219C113 219 108.74 222.63 105.59 223.52C102.73 224.32 101.31 230.66 101 228C100.81 226.37 90.47 227.59 82.64 227.86C78.07 228.01 74.35 227.18 74 227C73.04 226.51 83.02 205.41 84 203C84.98 200.59 112 175 112 175C116.78 173.42 121.87 171.33 126 171Z" />
	<path id="vesta" class="shp4" d="M151 209C151.71 212.59 205.29 209.97 205 205C204.71 200.03 208.1 169.31 210 168C211.9 166.69 235.42 168.26 233 169C232 169.31 229.17 177.42 229.71 186.83C230.48 200.13 235 216 235 216C235 216 229.82 267.44 226 273C222.18 278.56 177 285.67 174 286C171 286.33 125.41 279.71 123 271C120.59 262.29 113.85 220.83 116 218C117.29 216.3 117.11 201.03 115.45 188.95C114.35 180.96 111.48 174.37 112 174C113.3 173.08 140 169 140 169C141.75 169.7 150.29 205.41 151 209Z" />
	<path id="parbehind" class="shp5" d="M127.29 342.42C130.73 335.88 136.69 327.02 149 324C152.18 323.22 155.55 321.2 159.01 320.21C164.84 318.56 170.96 318.03 176.98 317.96C184.17 317.88 191.22 320.28 197.51 321.67C201.76 322.61 205.65 322.54 209 323C234.23 326.48 251.15 370.65 256 370C169.32 381.64 91.35 378.34 135.02 372.64C115.84 375.14 100 367 100 367C90.45 360.95 117.54 361.01 127.29 342.42Z" />
	<path id="innershadow" fill-rule="evenodd" class="shp6" d="M169 189C173.33 189.33 177.67 189.67 182 190C198.97 203.86 193.51 260.07 199 288C203.33 307.33 207.67 326.67 212 346C214.96 361.34 207.14 371.47 196 365C195.73 348.77 189.49 338.52 187 325C187 305.67 187 286.33 187 267C184.67 252 182.33 237 180 222C179 222 178 222 177 222C175.98 229.74 171.49 232.74 170 240C165.47 262.02 168.8 289.07 166 307C162.1 331.91 176.9 351.5 165 371C161.67 370.33 158.33 369.67 155 369C152.63 345.18 154.57 316.26 158 295C158.33 273.67 158.67 252.33 159 231C161.67 223.67 164.33 216.33 167 209C168.09 201.99 164.23 196.25 167 190C167.67 189.67 168.33 189.33 169 189Z" />
	<path id="parleft" class="shp7" d="M154 159C154 159 158.2 165.26 165 168C171.8 170.74 174 171 174 171L174 182L177 185C177 185 172.59 197.95 169.16 217.19C167.5 226.52 168.66 237.32 166.78 248.84C157.93 303.13 157.2 370.34 161 377C167.27 387.99 78 376 78 376C78 376 121.6 307.17 117 256C116.84 254.18 115.16 223.99 116 222C116.84 220.01 112.56 219.83 110 221C107.44 222.17 105.92 222.28 105 224C104.08 225.72 102.18 227.6 102 229C101.82 230.4 102.92 231.08 103 232C103.08 232.92 95.71 220.82 71 235C69.78 235.7 67 226 67 226L72 227C72 227 75 219.65 76 219C77 218.35 76.64 215.23 77 214C77.36 212.77 77.76 211.18 79 210C80.24 208.82 80.14 204.02 81 203C81.86 201.98 83.31 197.41 86 197C88.69 196.59 91.89 195.19 92 194C92.11 192.81 107.72 176.64 109 176C110.28 175.36 112.51 174.01 114 171C115.49 167.99 143.93 170.96 145 171C146.07 171.04 154 159 154 159Z" />
	<path id="parright" class="shp7" d="M206 171C207.07 170.96 231.51 164.99 233 168C233.58 169.17 235.32 169.54 237.31 170.81C240.45 172.83 244.22 175.61 245 176C246.28 176.64 259.89 191.81 260 193C260.05 193.53 260.9 192.48 262.06 193.43C263.53 194.61 265.5 197.77 267 198C269.69 198.41 269.14 201.98 270 203C270.86 204.02 275.76 204.82 277 206C278.24 207.18 285.64 210.77 286 212C286.36 213.23 272.58 208.96 271 216C270.42 218.59 265 223 265 223C265 223 264.47 226.52 267 233C268.71 237.38 258.23 229.49 259 230C252.89 225.91 251.41 224.17 246 223C243.53 222.47 232.93 212.2 235 222C235.44 224.11 234.16 254.18 234 256C229.4 307.17 273 376 273 376C273 376 195.73 390.99 202 380C204.51 375.6 199.3 338.53 195.03 297.81C193.57 283.8 195.74 269.36 193.58 255.66C191.86 244.78 185.14 234.38 183.51 225.04C178.27 194.91 174 185 174 185L177 182L177 171C177 171 179.2 170.74 186 168C192.8 165.26 197 159 197 159C197 159 204.93 171.04 206 171Z" />
	<path id="darkshadows" fill-rule="evenodd" class="shp8" d="M223 169C232.97 168.98 236.25 172.18 242 176C242 177 242 178 242 179C240 179.67 238 180.33 236 181C237.37 175.37 234.85 176 231 171C226 172 221 173 216 174C217.67 175.67 219.33 177.33 221 179C221.67 180.67 222.33 182.33 223 184C217.25 180.33 212.71 178.92 209 174C209 173.67 209 173.33 209 173C213.67 171.67 218.33 170.33 223 169ZM116 171C133.03 171.7 146.17 174.4 158 179C157.33 179.67 156.67 180.33 156 181C150.33 179 144.67 177 139 175C136.33 178.33 133.67 181.67 131 185C130.86 176.18 129.66 179.25 127 174C120.58 173.86 119.13 174.46 116 177C120.61 185 119.9 197.34 118 207C117.67 207 117.33 207 117 207C116.74 195.09 111.38 178.29 114 175C114.67 173.67 115.33 172.33 116 171ZM202 179C203.3 186.26 196.73 195.28 195 201C197.67 217 200.33 233 203 249C202.67 249 202.33 249 202 249C202 248.33 202 247.67 202 247C194.65 238.19 193.92 204.91 189 201C190.93 192.3 197.33 185.33 202 179ZM96 200C102.07 204.17 104.58 215.27 104 223C101.02 225.03 102.8 223.71 102 226C97 224.67 92 223.33 87 222C94.13 221.2 92.31 219.47 94 216C91.33 215.33 88.67 214.67 86 214C90.33 213.33 94.67 212.67 99 212C99 211 99 210 99 209C98 206 97 203 96 200ZM237 200C237.67 204.33 238.33 208.67 239 213C239.67 212 240.33 211 241 210C242.33 212.67 243.67 215.33 245 218C245.33 218 245.67 218 246 218C246.91 212.29 248.53 210.95 253 209C250.15 216.94 252.89 212.57 253 221C257.5 221.57 260.08 224.98 264 229C263.67 229.67 263.33 230.33 263 231C253 225 245 220 235 214C235.67 209.33 236.33 204.67 237 200Z" />
</svg>