<svg version="1.2" baseProfile="tiny-ps" xmlns="http://www.w3.org/2000/svg" viewBox="0 0 350 450" width="350" height="450">
	<title>oa4.svg</title>

<defs>
   <radialGradient id="grad" cx="78%" cy="0%" r="107%" >
    
            <stop offset="10%" style="stop-color:rgb(244,67,54);stop-opacity:1.00" />
            <stop offset="45%" style="stop-color:rgb(161,14,14);stop-opacity:1.00" />
            <stop offset="78%" style="stop-color:rgb(88,0,0);stop-opacity:1.00" />
            <stop offset="83%" style="stop-color:rgb(212,14,14);stop-opacity:1.00" />
            <stop offset="86%" style="stop-color:rgb(95,1,1);stop-opacity:1.00" />

    </radialGradient>
  </defs>

	<style>
		tspan { white-space:pre }
		.shp0 { fill: #516739 } 
		.shp1 { fill: #60788a } 
		.shp2 { fill: #452a2a } 
		.shp3 { opacity: 0.078;fill: #000000 } 
		.shp4 { fill: #3d3838 } 
		.shp5 { opacity: 0.271;fill: #6a6a6a } 
		.shp6 { fill: #111010 } 
		.shp7 { fill: #000000 } 
		.shp8 { fill: #433939 } 
		.shp9 { fill: #cbd5dd } 
		.shp10 { fill: #b89797 } 
		.shp11 { fill: #6a6a6a } 
                .shp12 { fill: #b6afaf }
#shadows2{opacity:0.3; fill: #000;}
#shadows1{opacity:0.2; fill: #000;}
#shirtgreenback{fill: #700008 ;}
#shirt1{fill: #e30211 ;}
#shirtright{ fill: #111 ;}
#pants { fill: #222 ;}
#shuel, #shuer {}
#shirtgreen{ fill: #900;}
#dagleft{fill: #700008 ; }
#dagright{ fill: #590006; }
#flyleft, #flyright {opacity:0;fill: #000}
#rozleft, #rozright{fill:#900;}	
#centura{fill: #590006;}
#medalion{fill: url(#grad);}	 
	</style>
	<path id="shirtgreenback" class="shp0" d="M156.91 319.09C164.21 313.58 173.2 310.01 180.17 307.94C181.93 307.42 183.58 307.01 185.12 306.7C185.88 306.55 186.62 306.42 187.33 306.31C188.03 306.2 188.7 306.12 189.35 306.06C191.92 305.82 193.96 305.97 195.55 306.38C201.82 308.13 201.29 313.59 201.47 313.48C202.43 312.84 194.1 325.49 196.11 347.99C197.76 358.84 202.96 362.95 206.25 364.96C207.99 365.95 209.47 366.37 210.48 366.64C210.99 366.77 211.39 366.87 211.65 366.96C211.78 367 211.87 367.05 211.93 367.1C211.96 367.12 211.98 367.15 211.99 367.18C212.01 367.21 212.01 367.24 212 367.27C210.6 372.28 207.22 377.45 203.61 382.67C201.72 385.22 199.56 387.64 196.89 389.57C195.56 390.54 194.1 391.39 192.52 392.1C190.94 392.81 189.24 393.38 187.44 393.8C180.33 395.53 171.16 394.56 165.99 392.82C164.71 392.39 163.7 391.92 163.04 391.44C162.71 391.2 162.46 390.96 162.31 390.71C162.16 390.47 162.09 390.22 162.13 389.96C162.24 388.94 163.94 387.89 166.87 386.45C177.98 379.87 167.1 362.76 162.51 347.32C156.49 331.91 156.77 318.17 156.91 319.09L156.91 319.09Z" />
	<path id="shirt1" class="shp1" d="M264 230C261.14 233.37 259 232 259 232C259 232 255.47 228.66 257 229C254.28 228.4 250.99 224.29 242 221C240.58 220.48 237.82 217.47 237 218C236.18 218.53 233.6 221.52 234 222C234.4 222.48 234.83 233.79 234 240C233.19 246.04 232.16 258.13 231 261C229.84 263.87 228.32 272.86 229 274C229.68 275.14 228.74 278.35 230 281C231.26 283.65 233 288 233 288C233 288 202.05 291.71 201 296C199.95 300.29 193.31 299.74 192 299C199.33 303.11 168.33 294.89 161 299C159.69 299.74 153.05 300.29 152 296C150.95 291.71 120 288 120 288C120 288 121.74 283.65 123 281C124.26 278.35 123.32 275.14 124 274C124.68 272.86 120.16 263.87 119 261C117.84 258.13 116.79 246.26 117 240C117.21 233.74 116.98 222.63 117 222C117.17 214.91 109.99 221.38 111 221C100.69 224.89 103.66 225.95 102 229C100.96 230.91 101 231 101 231L99 234C99 234 94.67 234.99 93 235C91.33 235.01 89.87 230.26 87 230C75.06 228.93 81.2 238.93 76 241C70.8 243.07 72 231 72 231C72 231 74.67 224.98 75 221C75.33 217.02 72 217 72 217L74 199L95 184L102 183C102 183 113.62 172.58 117 171C120.38 169.42 139.67 169.16 143 169C146.33 168.84 156 158 156 158C157.54 155.82 172.05 155.17 176 155.03L176 155C176 155 176.18 155 176.5 155.01C176.82 155 177 155 177 155L177 155.03C180.95 155.17 195.46 155.82 197 158C197 158 206.72 169.59 210 169C225.86 166.16 232.62 168.42 236 170C239.38 171.58 251 183 251 183L258 184L279 199C279 199 285.13 206.93 284 211C283.36 213.29 275.91 212.07 273 212C271.79 211.97 267.41 219.41 267.2 219.93C265.53 224.04 265.2 228.58 264 230Z" />
	<path id="shirtright" class="shp2" d="M209 169C210.01 168.52 228.33 167.48 234 169C239.67 170.52 228.13 192.81 220 205C211.87 217.19 232.72 244.28 233 248C233.28 251.72 232.01 266.57 230 272C227.01 280.07 232 286 232 286C232 286 181.69 299.48 167 285C152.31 270.52 152.96 191.85 168 188C183.04 184.15 196 157 196 157C196 157 207.99 169.48 209 169Z" />
	<path id="shadows1" class="shp3" d="M191 161C196.51 163.63 194.3 165.71 198 169C205.08 175.31 219.5 172.07 230 175C242.41 178.47 251.13 184.64 262 190C260.23 192.81 260.54 191.7 260 194C249.12 193.1 239.09 191.81 231 191C228.33 197 225.67 203 223 209C225 212.33 227 215.67 229 219C227.67 219 226.33 219 225 219C221.3 214.37 213.43 207.38 215 201C217.67 197 220.33 193 223 189C218.27 186.19 219.16 183.94 212 183C206.67 185.67 201.33 188.33 196 191C197.99 185.21 199.35 179.84 197 172C194.02 173.68 194.59 173.67 192 174C188.35 182.08 180.45 186.68 171 189C171 188.67 171 188.33 171 188C175.82 177.68 184.83 170.69 191 161ZM150 168C151 168 152 168 153 168C151.81 179.59 155.91 181.86 159 191C152.34 188.39 142.67 189 136 191C135.67 193.33 135.33 195.67 135 198C141.71 214.21 166.16 233.55 160 258C157.33 262 154.67 266 152 270C143.67 270 135.33 270 127 270C124.79 264.36 122.28 258.98 120 252C126.08 252.05 135 252 135 252C136.33 254 137.67 256 139 258C140.33 257.33 141.67 256.67 143 256C145.61 225.1 120.8 205.25 114 185C123.96 178.29 143.28 177.41 150 168ZM223 178C225.54 179.78 228.58 180.57 232 179C229 178.67 226 178.33 223 178ZM107 181C106.67 183.67 106.33 186.33 106 189C98.8 189.62 92.57 192.47 88 196C91.71 199.78 91.82 198.23 92 204C90 204 88 204 86 204C85.02 212.82 87.43 212.03 88 222C78.32 223.85 79.56 229.38 76 234C75.33 233.67 74.67 233.33 74 233C74.24 218.44 74.35 209.49 78 196C88.23 190.48 91.66 181.52 107 181ZM260 194C269.25 194.2 273.12 197.62 277 203C277 203.33 277 203.67 277 204C275.33 204 273.67 204 272 204C268 200.67 264 197.33 260 194ZM171 317C180.1 316.45 191.46 315.59 195 321C194.67 330.33 194.33 339.67 194 349C195.33 352.33 196.67 355.67 198 359C198.33 360.33 198.67 361.67 199 363C196.33 363 193.67 363 191 363C183.97 360.31 171.99 354.79 168 349C163.58 340.99 159.33 336.17 158 325C158.33 325 158.67 325 159 325C159.87 327.6 158.6 328.49 161 327C163.15 320.19 165.31 320.12 171 317Z" />
	<path id="pants" class="shp4" d="M229 277C229.56 280.64 230.96 282.93 233 287C235.21 291.42 244.33 318.93 244.33 327C244.33 335.07 248.41 340.65 251 346C253.59 351.35 253.66 356.44 255 362C256.34 367.56 261.37 370.09 262 373C262.63 375.91 261.02 382.01 260 384C258.98 385.99 256.81 386.92 254 387C251.19 387.08 244.33 377.8 240 378C235.67 378.2 232.29 383.76 230 387C227.71 390.24 220.03 387.97 218 386C215.97 384.03 214.42 379.91 217 377C219.58 374.09 213.72 365.89 214 362C214.28 358.11 208.47 348.01 208 345C207.53 341.99 196.2 326.29 193 324C189.8 321.71 170.63 322.43 165 324C159.37 325.57 146.45 342.76 144 346C141.55 349.24 140.5 356.44 140 371C139.5 385.56 136.29 384.81 135 387C133.71 389.19 127.18 387.27 123 380C118.82 372.73 102.66 376.05 102 374C101.34 371.95 100.91 366.59 98 362C95.09 357.41 95.65 351.52 96 349C96.35 346.48 99.86 328.39 101 323C102.14 317.61 115.97 299.65 117 297C118.03 294.35 124 272 124 272C180.76 266.39 228.44 273.36 229 277Z" />
	<path id="shadows2" fill-rule="evenodd" class="shp5" d="M213 276C218.33 278.67 223.67 281.33 229 284C229 285.33 229 286.67 229 288C218.75 288.76 202.39 296.45 197 303C198.19 303.76 198.23 302.6 198 304C188.58 313.24 167.47 317.52 151 319C151.33 318.33 151.67 317.67 152 317C158.73 315.02 163.59 311.28 167 306C167.33 304.67 167.67 303.33 168 302C165.67 302 163.33 302 161 302C161.33 301.33 161.67 300.67 162 300C167.18 297.68 168.8 294.6 175 293C175 292.67 175 292.33 175 292C162.51 292.52 158.12 289.43 153 283C163.4 283.12 208.89 278.68 210 278C211 277.33 212 276.67 213 276ZM138 321C139.33 321 140.67 321 142 321C141.67 322.33 141.33 323.67 141 325C136.64 333.31 127.54 339.04 118 342C119.8 338.38 118.36 338.42 120 337C126 331.67 132 326.33 138 321ZM228 323C232.67 324.67 237.33 326.33 242 328C244.66 342.7 253.34 348.63 254 366C253.33 366 252.67 366 252 366C246.49 368.34 237.31 365.23 234 362C239 361.67 244 361.33 249 361C246.26 348.6 239.63 340.86 229 334C229.8 328.49 230.39 328.23 228 323ZM216.99 355.91C217 355.94 217.01 355.97 217.02 356C217.01 356 217.01 356 217 356C217 355.97 217 355.94 216.99 355.91ZM222 356C222.95 363.06 226.05 365.08 229 370C226.67 372 224.33 374 222 376C221.33 375.67 220.67 375.33 220 375C220.1 370.02 218.88 363 217.02 356C218.68 356 220.34 356 222 356ZM206 331C206.33 329.67 206.67 328.33 207 327C210.33 327 213.67 327 217 327C218.33 328.67 219.67 330.33 221 332C213.57 334.78 216.32 346.09 216.99 355.91C214.04 344.84 209.49 333.83 206 331ZM138 350C139 350 140 350 141 350C141 352 141 354 141 356C131.69 358.9 133.17 364.94 118 365C118 364.33 118 363.67 118 363C123.48 360.71 133.75 354.31 138 350Z" />
	<path id="shuel" class="shp6" d="M115 374C116.87 374.38 122.27 377.1 124 380C125.73 382.9 129.23 385.37 132 386C134.77 386.63 136.41 384.28 136 387C135.59 389.72 134.45 396.69 136 399C137.55 401.31 136.63 406.48 136 409C135.37 411.52 131.84 411.7 128 413C124.16 414.3 124.88 415.4 122 417C119.12 418.6 106.72 420.62 103 420C99.28 419.38 84.86 415.62 83 414C81.14 412.38 80.94 411.47 81 410C81.06 408.53 90.08 404.07 92 403C93.92 401.93 95.34 399.23 95 398C94.66 396.77 99.76 393.82 101 392C103.14 388.85 102.35 386.57 101 380C100.2 376.09 100 372 100 372C105.44 377 113.13 373.62 115 374Z" />
	<path id="shuer" class="shp7" d="M229 384C229.38 382.41 237.1 376.23 240 376C242.9 375.77 247.11 380.8 250 383C252.89 385.2 257.33 384.94 257 386C256.67 387.06 257.77 397.34 258 399C258.23 400.66 262.55 404.3 263 408C263.45 411.7 260.81 416.05 258 418C255.19 419.95 245.37 420.84 242 421C238.63 421.16 232.54 418.45 231 418C229.46 417.55 222.09 406.04 222 405C221.91 403.96 223.7 400.39 224 397C224.3 393.61 223 388 223 388C224.74 388 228.62 385.59 229 384Z" />
	<path id="shirtgreen" class="shp0" d="M172 270.03C159.06 362.34 100.2 362.33 94 369C87.8 375.67 89.48 378.19 85 380C80.52 381.81 54.99 373.52 46 367C37.01 360.48 32 329 32 329C32 329 51.26 342.28 63 346C74.74 349.72 110.92 346.01 127 324C143.08 301.99 152.86 288.19 148 249C143.14 209.81 110.9 176.45 111 175C111.1 173.55 118.42 169.91 119 170C119.58 170.09 144.41 168.44 145 168C145.59 167.56 157 158 157 158C176.57 196.7 173.83 256.94 172 270.03Z" />
	<path id="dagleft" class="shp8" d="M145 173C149.05 174.21 167 179 167 179L167 269.03C167 269.03 153.31 255.85 154 247C154.69 238.15 141.93 186.29 136 183C130.07 179.71 121.27 184.77 116 187C110.73 189.23 99.73 186.94 98 186C96.27 185.06 95.6 183.46 97 183C98.4 182.54 105.72 179.33 108 177C110.28 174.67 114 172 114 172C114 172 119.95 171.42 121 171C122.05 170.58 123.14 168.24 122 164C120.86 159.76 133 166 133 166C133 166 140.95 171.79 145 173Z" />
	<path id="flyleft" class="shp9" d="M114 157C73.49 128.59 46.58 169.23 57 152C67.42 134.77 106.72 129.54 111 134C115.28 138.46 143 173 143 173C143 173 154.51 185.41 114 157Z" />
	<path id="rozleft" class="shp10" d="M148 179C143.83 176.31 121.82 178.79 112 182C102.18 185.21 98.95 183.14 91 180C83.05 176.86 78.98 155.92 84 163C89.02 170.08 119.51 170.98 125 171C130.49 171.02 130 165 130 165C141 166.45 152.17 181.69 148 179Z" />
	<path id="dagright" class="shp8" d="M219 166C219 166 231.14 159.76 230 164C228.86 168.24 229.95 170.58 231 171C232.05 171.42 238 172 238 172C238 172 241.72 174.67 244 177C246.28 179.33 253.6 182.54 255 183C256.4 183.46 255.73 185.06 254 186C252.27 186.94 241.27 189.23 236 187C230.73 184.77 221.93 179.71 216 183C210.07 186.29 197.31 238.15 198 247C198.69 255.85 185 269.03 185 269.03L185 179C185 179 202.95 174.21 207 173C211.05 171.79 219 166 219 166Z" />
	<path id="flyright" class="shp9" d="M209 173C209 173 236.72 138.46 241 134C245.28 129.54 284.58 134.77 295 152C305.42 169.23 278.51 128.59 238 157C197.49 185.41 209 173 209 173Z" />
	<path id="rozright" class="shp10" d="M222 165C222 165 221.51 171.02 227 171C232.49 170.98 262.98 170.08 268 163C273.02 155.92 268.95 176.86 261 180C253.05 183.14 249.82 185.21 240 182C230.18 178.79 208.17 176.31 204 179C199.83 181.69 211 166.45 222 165Z" />
	<path id="centura" class="shp11" d="M230 279C230.06 283.11 211.58 283.32 187 285C186.79 285.01 186.56 285.03 186.35 285.04C183.34 287.5 179.36 289 175 289C170.77 289 166.91 287.59 163.93 285.26C142.5 284.65 120.63 282.21 121 281C121.51 279.32 123 272 123 272L118 260C130.67 263.04 145.81 264.44 160.82 264.95C163.87 260.76 169.08 258 175 258C180.94 258 186.16 260.78 189.2 264.99C213.05 264.36 232.13 262.27 232 263C231.78 264.25 229.94 274.89 230 279Z" />
	<path id="medalion" class="shp12" d="M175 260.63C182.79 260.63 189.11 266.39 189.11 273.5C189.11 280.61 182.79 286.36 175 286.36C167.21 286.36 160.89 280.61 160.89 273.5C160.89 266.39 167.21 260.63 175 260.63Z" />
</svg>