<svg version="1.2" baseProfile="tiny-ps" xmlns="http://www.w3.org/2000/svg" viewBox="0 0 350 450" width="350" height="450">
	<title>army</title>
	<style>
		tspan { white-space:pre }
		.shp0 { fill: #5b6d41 } 
		.shp1 { fill: #3c462c } 
		.shp2 { fill: #8e774a } 
		.shp3 { opacity: 0.078;fill: #000000 } 
		.shp4 { fill: #4d5c37 } 
		.shp5 { opacity: 0.149;fill: #000000 } 
		.shp6 { opacity: 0.071;fill: #000000 } 
		.shp7 { fill: #303823 } 
		.shp8 { opacity: 0.259;fill: #000000 } 
		.shp9 { opacity: 0.22;fill: #000000 } 
		.shp10 { fill: #212121 } 
		.shp11 { opacity: 0.502;fill: #000000 } 
		.shp12 { opacity: 0.451;fill: #000000 } 
		.shp13 { opacity: 0.541;fill: #000000 } 
		.shp14 { fill: #1c2214 } 
		.shp15 { fill: #000000 } 
		.shp16 { opacity: 0.129;fill: #6a6a6a } 
		.shp17 { fill: #5b5050 } 
		.shp18 { fill: #e9edb8 } 
		.shp19 { fill: #252c1b } 
		.shp20 { fill: #171c11 } 
	</style>
	<path id="shorts" class="shp0" d="M177 274C189.34 275.12 228 270.03 228 270.03C228 270.03 227.88 274.77 229 279C230.12 283.23 231.48 284.58 231 286C230.52 287.42 232.64 289.16 233 290C233.36 290.84 241.62 316.45 242 318C242.38 319.55 241.45 324.63 241 326C240.55 327.37 236.38 326.75 230 327C223.62 327.25 210.72 339.01 210 338C209.28 336.99 206.96 333.78 206 333C205.04 332.22 199.6 324.46 198 323C196.4 321.54 193.88 321.2 193 321C192.12 320.8 182.6 319.4 181 319C179.4 318.6 169.69 319.56 169 320C168.31 320.44 158.73 320.7 158 321C157.27 321.3 156.11 322.83 155 324C153.89 325.17 150.72 329.04 149 331C147.28 332.96 144.99 334.76 144 336C143.01 337.24 141.07 333.29 135 329C128.93 324.71 108.7 326.59 109 325C109.3 323.41 110.17 321.69 110 320C109.83 318.31 110.83 313.68 111 312C111.17 310.32 114.1 305.99 115 303C115.9 300.01 125.05 279.18 125 277C124.95 274.82 124 270 124 270C140.21 275.54 164.66 272.88 177 274Z" />
	<path id="leglongright" class="shp1" d="M210 337C210 337 222.1 326.52 224 326C225.9 325.48 238.81 323.8 240 325C241.19 326.2 243.76 334.49 244 337C244.24 339.51 244.88 344.78 246 347C247.12 349.22 249.08 355.05 249 356C248.92 356.95 248.36 359.49 249 362C249.64 364.51 254.42 379.6 255 380C255.58 380.4 258 382 258 382C258 382 259.35 392.65 258 393C256.65 393.35 258 397 258 397L259 400C259 400 251.31 396.92 244 399C236.69 401.08 229.74 404.6 228 405C226.26 405.4 223 404 223 404C223 404 222.26 397.04 223 396C223.74 394.96 223 390 223 390C223 390 221.34 386.86 222 383C222.66 379.14 220.19 364.11 219 362C217.81 359.89 214.15 353.26 214 351C213.85 348.74 212.67 343.71 212 342C211.33 340.29 210 337 210 337Z" />
	<path id="leglongleft" class="shp1" d="M118 320C120.4 320.29 125.85 321.33 134 324.63C142.15 327.93 145.27 333.56 145 335C144.73 336.44 142.04 340.68 141 341C140.47 341.17 140.62 343.32 139.83 346.02C139.06 348.61 137.34 351.7 137 354C136.52 357.22 135.56 378.52 136 383C136.44 387.48 136 389 136 389C136 389 134.94 392.55 135 395C135.06 397.45 134.3 399.75 134 401C133.7 402.25 130.35 408.02 128 407C125.65 405.98 123.15 404.42 118 399C112.85 393.58 100 396 100 396C100 396 100.67 393.45 101 392C101.33 390.55 101.75 388.6 101 387C100.25 385.4 101.88 373 102 372C102.12 371 103.77 369.62 104 369C104.23 368.38 104.04 359.35 104 358C103.96 356.65 103.36 353.24 103 352C102.64 350.76 105.12 345.54 106 344C106.88 342.46 107.69 335.14 108 333C108.31 330.86 110 322 110 322C110 322 115.6 319.71 118 320Z" />
	<path id="shields" class="shp2" d="M110.3 313.86C110.3 313.86 115.37 312.4 120.67 313.24C126.98 314.24 133.71 317.57 133.71 317.57C136.41 318.74 137.72 322.01 136.62 324.88L130.24 341.5C129.14 344.37 126.06 345.75 123.35 344.59C123.35 344.59 118.37 345.43 114.43 344.28C111.67 343.48 108.37 341.58 108.37 341.58C105.45 341.71 104.13 338.29 104.01 335.19L105.23 319.7C105.11 316.6 107.38 313.99 110.3 313.86ZM237.92 320.01L240.94 335.26C241.18 338.35 240.27 341.9 237.35 342.11C237.35 342.11 234.3 344.38 231.66 345.5C227.87 347.1 222.83 346.85 222.83 346.85C220.28 348.32 217.05 347.31 215.62 344.59L207.35 328.82C205.92 326.1 206.83 322.7 209.39 321.23C209.39 321.23 215.68 317.13 221.83 315.4C227 313.95 232.2 314.81 232.2 314.81C235.12 314.6 237.68 316.93 237.92 320.01Z" />
	<path id="shadow1" fill-rule="evenodd" class="shp3" d="M130 331C133 331 136 331 139 331C140.38 327.35 142.36 325.65 145 325C143.66 317.95 140.52 316.49 137 312C141 312.67 145 313.33 149 314C148.33 313 147.67 312 147 311C145.33 309.67 143.67 308.33 142 307C150.05 308.31 157.11 309.2 159 301C158.33 300.67 157.67 300.33 157 300C167.33 299.4 173.29 294.7 180 293C186.67 295 193.33 297 200 299C199.33 300 198.67 301 198 302C204 300.67 210 299.33 216 298C215.67 298.67 215.33 299.33 215 300C208.13 301.18 198.9 304.49 195 309C195 309.33 195 309.67 195 310C202.2 310.85 201.38 314.36 207 315C206.67 317 206.33 319 206 321C207.67 321 209.33 321 211 321C209.46 327.09 212.66 327.59 212 336C220.06 337.9 218.27 339.98 224 343C220.18 347.76 221.4 346.94 219 352C226.34 353.22 224.3 355.87 228 360C236.25 359.06 236.05 356.29 246 356C247.11 361.61 248.04 362.37 246 367C239.24 370.41 231.94 375.86 222 371C221.88 364.82 217.87 360.08 215 353C212.81 347.61 212.23 339.87 209 335C205.37 329.52 202.19 324.29 197 321C191.58 317.57 184.82 316.75 178 317C170.84 317.26 163.03 316.33 155 322C150.31 325.31 148.58 329.3 146 333C141.69 339.17 138.09 345.45 137 353C135.84 361.08 136.04 372.46 133 381C131.67 380.67 128.33 377.33 127 377C119.53 376.15 116.91 373.27 114 368C121.86 367.89 122.78 366.11 127 363C126.57 356.38 125.36 357.1 124 352C128.66 350.39 129.36 349.62 131 345C127.15 344.28 126.44 341.51 124 337C129.72 336.18 129.21 336.84 130 331Z" />
	<path id="top" class="shp4" d="M126 171C134.28 170.33 139.72 172.06 144 173C144.78 173.17 146.52 173.34 148.92 173.5C155 173.9 165.39 163.22 175.73 163.33C185.54 163.43 190.49 169.64 196 171C199.17 171.78 202.67 175.96 207 173C214.51 167.86 232 168 232 168C232 168 241.74 173.52 244 176C246.26 178.48 248.4 185.08 255 189C261.6 192.92 266.22 199.1 267 201C267.78 202.9 283 209 283 209C283 209 272.77 211.25 269 214C257.31 222.54 263 232 263 232L247 222L243 221L238 216L234 220C234 220 234.32 222.93 234 228C233.86 230.17 233.64 239.92 232 249C229.82 261.05 228 273 228 273C228 273 177 286.37 172 286C167 285.63 124 273 124 273L119 259L118 250L117 236L117 223L113 219C113 219 108.74 222.63 105.59 223.52C102.73 224.32 101.31 230.66 101 228C100.81 226.37 90.47 227.59 82.64 227.86C78.07 228.01 74.35 227.18 74 227C73.04 226.51 83.02 205.41 84 203C84.98 200.59 112 175 112 175C116.78 173.42 121.87 171.33 126 171Z" />
	<path id="shadow2" fill-rule="evenodd" class="shp5" d="M219 167C234.63 162.5 250.67 192.59 280 209C280 209.33 278 209.67 278 210C266.65 211.71 265.69 218.9 260 226C259.67 225.67 259.33 225.33 259 225C258.67 222.33 258.33 219.67 258 217C260.33 213.67 262.67 210.33 265 207C255.5 203.8 247.52 184.81 238 197C237 195.33 236 193.67 235 192C235.67 186 235.33 181 236 175C231.88 173.53 233.06 173.21 230 171C228.33 172 226.67 171 225 172C225.33 172.67 225.67 173.33 226 174C228.33 174.67 230.67 175.33 233 176C229.4 184.67 232.78 195.03 232 206C226.58 204.34 225.51 201.29 224 196C221.79 198.06 222.12 197.38 221 201C224.62 203.93 222.64 201.9 222 208C224.67 208.67 227.33 209.33 230 210C231.16 232.57 225.99 247.99 228 263C226.33 265.33 224.67 267.67 223 270C183.7 270.76 156.85 284.42 124 264C112.01 225.66 124.6 226.24 112 215C117.05 210.17 113.6 205.28 113 196C107.55 194.37 108.62 192.2 104 190C103.67 190 103.33 190 103 190C98.12 197.17 95.46 200.89 95 208C89.85 208.87 88.58 209.8 86 213C88 216 90 219 92 222C91.33 222 90.67 222 90 222C85.67 222.33 81.33 222.67 77 223C77 222.67 77 222.33 77 222C83.47 204.86 99.89 176.12 120 174C123 176.67 126 179.33 129 182C132.38 196.03 133.4 221.04 144 228C147.67 228.67 151.33 229.33 155 230C154.33 230 153.67 230 153 230C151.33 231 149.67 232 148 233C150 233.67 152 234.33 154 235C154 235.33 154 235.67 154 236C150.19 236.66 149.16 237.05 147 239C147.67 239.67 148.33 240.33 149 241C151.4 244.38 154.01 243.38 158 245C156.33 246.33 154.67 247.67 153 249C156.09 254.85 158.08 258.29 162 262C167.8 262.12 173.16 258.64 177 260C181.03 261.43 184.72 263.92 191 263C191.33 261.67 191.67 260.33 192 259C192 258.67 192 258.33 192 258C190.33 257.67 188.67 257.33 187 257C189.67 255.67 192.33 254.33 195 253C195.67 251 196.33 249 197 247C193.67 245.67 190.33 244.33 187 243C191 242.67 195 242.33 199 242C199.67 239.67 200.33 237.33 201 235C197.33 234 193.67 233 190 232C195.66 231.56 200.81 229.96 204 227C201.3 225.4 202.62 226.66 201 224C221.62 217.25 211.41 187.13 215 169C216.33 168.33 217.67 167.67 219 167Z" />
	<path id="sh3" fill-rule="evenodd" class="shp6" d="M171 164C185.4 163.95 196.53 170.63 208 176C202.34 179.08 203.83 184.69 198 187C194.6 190.84 184.3 189.14 180 188C180 190.33 180 192.67 180 195C184.41 206.04 184.06 206.23 183 220C196.05 224.21 196.33 231.23 200 245C199 245.33 198 245.67 197 246C194.39 237.99 190.01 237.13 188 229C185.33 227.67 182.67 226.33 180 225C179 226.33 178 227.67 177 229C176 227.67 175 226.33 174 225C170.33 227.33 166.67 229.67 163 232C163.99 236.02 165.1 235.32 163 238C159 241 155 244 151 247C155.8 231.12 160.73 227.29 173 219C166.83 205.19 179.44 193.15 169 180C163.07 182.32 153.36 183.31 148 178C152 178 156 178 160 178C160.33 176.67 160.67 175.33 161 174C157.12 172.6 158.49 173.83 160 170C163.67 168 167.33 166 171 164Z" />
	<path id="vesta" class="shp7" d="M153 206C153.71 209.59 203.29 209.97 203 205C202.71 200.03 208.1 168.31 210 167C211.9 165.69 235.42 167.26 233 168C232 168.31 229.17 177.42 229.71 186.83C230.48 200.13 235 216 235 216C235 216 231.82 267.44 228 273C224.18 278.56 177 285.67 174 286C171 286.33 126.74 279.23 123 271C118.83 261.83 113.85 220.83 116 218C117.29 216.3 117.11 201.03 115.45 188.95C114.35 180.96 111.48 173.37 112 173C113.3 172.08 140 168 140 168C141.75 168.7 152.29 202.41 153 206Z" />
	<path id="shadowmuscle" class="shp8" d="M193.12 273.91L181.83 271.15C180.64 270.91 179.99 269.97 180.39 269.04L179.99 261.78C180.22 261.22 180.99 260.88 181.7 261.02L189.18 262.04C189.89 262.23 195.2 266.54 194.96 267.29L196.01 272.23C195.61 273.47 194.32 274.22 193.12 273.91ZM190.48 260.91L180.6 258.15C179.56 257.91 179 256.97 179.34 256.04L178.99 248.78C179.19 248.22 179.87 247.88 180.49 248.02L187.03 249.04C187.66 249.23 192.3 253.54 192.09 254.29L193.01 259.23C192.66 260.47 191.53 261.22 190.48 260.91ZM189.48 247.91L179.6 245.15C178.56 244.91 178 243.97 178.34 243.04L177.99 235.78C178.19 235.22 178.87 234.88 179.49 235.02L184.03 236.04C184.66 236.23 189.3 240.54 189.09 241.29L192.01 246.23C191.66 247.47 190.53 248.22 189.48 247.91ZM174.4 245.15L164.52 247.91C163.47 248.22 162.34 247.47 161.99 246.23L164.91 241.29C164.7 240.54 169.34 236.23 169.97 236.04L174.51 235.02C175.13 234.88 175.8 235.22 176.01 235.78L175.66 243.04C176 243.97 175.44 244.91 174.4 245.15ZM166.97 249.04L173.51 248.02C174.13 247.88 174.8 248.22 175.01 248.78L174.66 256.04C175 256.97 174.44 257.91 173.4 258.15L163.52 260.91C162.47 261.22 161.34 260.47 160.99 259.23L161.91 254.29C161.7 253.54 166.34 249.23 166.97 249.04ZM172.3 261.02C173.01 260.88 173.78 261.22 174.01 261.78L173.61 269.04C174.01 269.97 173.36 270.91 172.17 271.15L160.88 273.91C159.68 274.22 158.39 273.47 157.99 272.23L159.04 267.29C158.8 266.54 164.11 262.23 164.82 262.04L172.3 261.02Z" />
	<path id="vestshadows" fill-rule="evenodd" class="shp9" d="M140 169C139.33 170 139.67 172 139 173C130.84 173.11 133.69 176.96 121.08 179.05C115.67 178.67 120.33 186.33 120 187C120.6 202.89 120.52 215.55 130 223C130 223.33 130 223.67 130 224C127.33 225.33 124.67 226.67 122 228C123.66 233.44 122.51 232.23 121 239C122.67 240.33 124.33 241.67 126 243C124 243 122 243 120 243C128.46 258.41 129.93 257.7 147 266C141.17 266.12 141.74 266.92 141 269C141.49 272.12 139.88 269.66 142 272C143.2 275.81 148.03 277.09 156 277C155.67 277.67 172.33 284.33 172 285C159.1 285.4 131.87 277.62 124 273C118.51 256.89 117.47 247.35 117 232C116.86 227.43 116.61 223.02 117 219C118.49 203.8 117.28 188.12 113 174C117 172.33 132 168 140 169ZM212 168C212.8 168.7 211.2 178.3 212 179C218.79 177.17 210.31 171.96 222.92 174.05C231.79 181.66 214.76 196.43 217.11 200.05C239.25 234.12 208.45 215.36 200 222C200 222.33 200 222.67 200 223C202.67 224.33 208.33 230.67 211 232C209.34 237.44 210.49 236.23 212 243C210.33 244.33 208.67 245.67 207 247C209 247 216 249 218 249C209.54 264.41 214.07 252.7 197 261C202.83 261.12 202.26 261.92 203 264C202.51 267.12 204.12 264.66 202 267C200.8 270.81 195.97 276.09 188 276C188.33 276.67 171.67 283.33 172 284C184.9 284.4 218.13 277.62 226 273C232.46 258.44 231.53 247.35 232 232C232.14 227.43 236.88 219.58 235 216C227.52 201.76 226.72 183.12 231 169C227 167.33 218.39 165.24 212 168Z" />
	<path id="belt" class="shp2" d="M192 276C214.28 274.62 229.75 265.41 229 267C228.24 268.59 230.52 276.16 228 278C224.42 280.61 191 286 191 286C191 286 170.64 285.89 163 286C149.6 286.2 122.23 280.5 124 278C124.57 277.2 122 268 122 268C127.27 270.4 152.08 278.48 192 276Z" />
	<path id="catarama" class="shp10" d="M168 274L187 274C189.76 274 192 276.24 192 279L192 285C192 287.76 189.76 290 187 290L168 290C165.24 290 163 287.76 163 285L163 279C163 276.24 165.24 274 168 274Z" />
	<path id="pl1" class="shp11" d="M126 246C126 246 131.89 248.78 139.71 250.55C147.39 252.28 155 253 155 253C156.66 253 158 254.34 158 256L159 271C159 273.76 156.76 276 154 276L127 269C124.24 269 124 266.76 124 264L123 249C123 247.34 124.34 246 126 246ZM229 250L228 265C228 267.76 227.76 270 225 270L198 277C195.24 277 193 274.76 193 272L194 257C194 255.34 195.34 254 197 254C197 254 204.61 253.28 212.29 251.55C220.11 249.78 226 247 226 247C227.66 247 229 248.34 229 250Z" />
	<path id="pl2" class="shp12" d="M126 244C126 244 133.19 246.62 140.64 248.31C148.66 250.12 157 251 157 251C158.66 251 160 252.34 160 254L161 269C161 271.76 158.76 274 156 274L129 267C126.24 267 124 264.76 124 262L123 247C123 245.34 124.34 244 126 244ZM229 248L228 263C228 265.76 225.76 268 223 268L196 275C193.24 275 191 272.76 191 270L192 255C192 253.34 193.34 252 195 252C195 252 203.34 251.12 211.36 249.31C218.81 247.62 226 245 226 245C227.66 245 229 246.34 229 248Z" />
	<path id="3right3" class="shp8" d="M214.45 168.53L226.94 169.03C228.59 169.1 229.67 170.49 229.34 172.13L229.05 173.62C228.51 176.36 225.83 178.49 223.07 178.38L214.58 178.04C211.82 177.93 210.02 175.61 210.56 172.87L210.86 171.38C211.18 169.74 212.79 168.46 214.45 168.53ZM212.41 180.99L226.26 181.51C228.1 181.58 229.29 182.99 228.93 184.66L228.6 186.17C228 188.96 225.03 191.12 221.97 191.01L212.55 190.66C209.49 190.54 207.5 188.2 208.11 185.41L208.43 183.9C208.79 182.23 210.58 180.93 212.41 180.99ZM211.62 194.99L226.18 195.51C228.11 195.58 229.51 196.99 229.31 198.66L229.12 200.17C228.78 202.96 225.9 205.12 222.68 205.01L212.78 204.66C209.56 204.54 207.23 202.2 207.57 199.41L207.75 197.9C207.96 196.23 209.69 194.93 211.62 194.99Z" />
	<path id="3right" class="shp13" d="M214.45 166.53L226.94 167.03C228.59 167.1 229.67 168.49 229.34 170.13L229.05 171.62C228.51 174.36 225.83 176.49 223.07 176.38L214.58 176.04C211.82 175.93 210.02 173.61 210.56 170.87L210.86 169.38C211.18 167.74 212.79 166.46 214.45 166.53ZM212.41 178.99L226.26 179.51C228.1 179.58 229.29 180.99 228.93 182.66L228.6 184.17C228 186.96 225.03 189.12 221.97 189.01L212.55 188.66C209.49 188.54 207.5 186.2 208.11 183.41L208.43 181.9C208.79 180.23 210.58 178.93 212.41 178.99ZM211.62 192.99L226.18 193.51C228.11 193.58 229.51 194.99 229.31 196.66L229.12 198.17C228.78 200.96 225.9 203.12 222.68 203.01L212.78 202.66C209.56 202.54 207.23 200.2 207.57 197.41L207.75 195.9C207.96 194.23 209.69 192.93 211.62 192.99Z" />
	<path id="3lef2" class="shp8" d="M137.09 176.78L137.66 178.31C138.7 181.13 137.19 183.59 134.29 183.81L125.36 184.48C122.46 184.7 119.26 182.59 118.22 179.77L117.66 178.24C117.03 176.54 117.94 175.07 119.68 174.94L132.81 173.95C134.55 173.82 136.47 175.09 137.09 176.78ZM141.78 189.65L142.39 191.21C143.5 194.07 141.79 196.58 138.57 196.81L128.66 197.52C125.45 197.75 121.94 195.61 120.83 192.75L120.22 191.2C119.56 189.48 120.58 187.97 122.51 187.84L137.08 186.79C139.01 186.66 141.12 187.94 141.78 189.65ZM144.88 204.13L145.33 205.69C146.17 208.56 144.1 211.08 140.71 211.32L130.3 212.05C126.91 212.28 123.49 210.14 122.66 207.27L122.2 205.71C121.7 203.99 122.94 202.48 124.97 202.33L140.3 201.27C142.33 201.12 144.38 202.41 144.88 204.13Z" />
	<path id="3left" class="shp13" d="M137.09 174.78L137.66 176.31C138.7 179.13 137.19 181.59 134.29 181.81L125.36 182.48C122.46 182.7 119.26 180.59 118.22 177.77L117.66 176.24C117.03 174.54 117.94 173.07 119.68 172.94L132.81 171.95C134.55 171.82 136.47 173.09 137.09 174.78ZM141.78 187.65L142.39 189.21C143.5 192.07 141.79 194.58 138.57 194.81L128.66 195.52C125.45 195.75 121.94 193.61 120.83 190.75L120.22 189.2C119.56 187.48 120.58 185.97 122.51 185.84L137.08 184.79C139.01 184.66 141.12 185.94 141.78 187.65ZM144.88 202.13L145.33 203.69C146.17 206.56 144.1 209.08 140.71 209.32L130.3 210.05C126.91 210.28 123.49 208.14 122.66 205.27L122.2 203.71C121.7 201.99 122.94 200.48 124.97 200.33L140.3 199.27C142.33 199.12 144.38 200.41 144.88 202.13Z" />
	<path id="cestplateleftd" class="shp14" d="M128 216C128 216 167.97 214.79 170 216C172.03 217.21 171.97 238.99 167 241C162.03 243.01 132.39 238.1 128 237C123.61 235.9 125.63 223.37 128 216Z" />
	<path id="cestleftplatef" class="shp1" d="M128 215C128 215 167.97 213.79 170 215C172.03 216.21 171.97 237.99 167 240C162.03 242.01 132.39 237.1 128 236C123.61 234.9 125.63 222.37 128 215Z" />
	<path id="cestrightplateshadow" class="shp14" d="M226 237C221.61 238.1 191.97 243.01 187 241C182.03 238.99 181.97 217.21 184 216C186.03 214.79 226 216 226 216C228.37 223.37 230.39 235.9 226 237Z" />
	<path id="cestrightplatefront" class="shp1" d="M226 236C221.61 237.1 191.97 242.01 187 240C182.03 237.99 181.97 216.21 184 215C186.03 213.79 226 215 226 215C228.37 222.37 230.39 234.9 226 236Z" />
	<path id="shoose" class="shp15" d="M111 369C113.17 369.81 115.66 373.66 123 375C130.34 376.34 136.15 372.97 137 373C137.85 373.03 135.94 385.88 136 387C136.06 388.12 134.92 397.69 135 399C135.08 400.31 136 405 136 405C136 405 136.29 407.05 136 409C135.71 410.95 130 414 130 414L129 413L125 413C125 413 123.04 415.31 121 417C118.96 418.69 104.26 419.82 102 420C99.74 420.18 81.86 417.26 81 416C80.14 414.74 81.11 404.02 83 403C84.89 401.98 96.06 398.85 97 399C97.94 399.15 100 395 100 395C100 395 101.25 389.56 101 388C100.75 386.44 101.09 385.19 101 383C100.9 380.51 101.94 373.17 102 372C102.06 370.83 104 369 104 369C104 369 108.83 368.19 111 369ZM227 366C227.04 363.7 233.48 361.65 235 360C236.52 358.35 242.66 359.25 244 360C245.34 360.75 250 361 250 361L255 379C255 379 257.97 381.48 258 382C258.03 382.52 259 389 259 389L259 391L258 392L258 394C258 394 258.23 397.04 259 399C259.77 400.96 262.69 403.23 263 406C263.31 408.77 262.36 415.07 260 418C257.64 420.93 234.28 420.06 232 419C229.72 417.94 225 411 225 411C225 411 222.43 407.67 222 406C221.57 404.33 222.83 399.95 223 399C223.17 398.05 222.57 389.24 222 388C221.43 386.76 221 371 221 371C224.46 367.41 226.96 368.3 227 366Z" />
	<path id="shoselights" fill-rule="evenodd" class="shp16" d="M100 396C103.29 397.64 103.19 398.03 105 401C104.33 403 103.67 405 103 407C101.33 407.67 99.67 408.33 98 409C93 408.33 88 406.67 83 406C86.13 398.87 95.63 402.09 100 396ZM235 403C233.67 405 232.33 407 231 409C239.41 407.69 252.29 404.59 261 407C261.33 407 261.67 407 262 407C259.64 398.71 251.8 399.22 241 400C239 401 237 402 235 403Z" />
	<path id="tag" class="shp17" d="M207 206L227 206L227 213L207 213L207 206Z" />
	<path id="crown" class="shp18" d="M209.78 219.04L210.12 223.42L210.11 223.42L210.15 223.47L206.45 225.94C206.45 225.96 206.45 225.98 206.44 225.99C206.43 226.01 206.42 226.02 206.4 226.02L205.6 226.08C205.59 226.08 205.57 226.07 205.56 226.06C205.55 226.04 205.55 226.03 205.54 226.01L201.51 224.14L201.54 224.08L201.53 224.08L201.19 219.7L201.2 219.7L201.17 219.65L204.86 217.18C204.86 217.16 204.87 217.15 204.87 217.13C204.88 217.12 204.9 217.11 204.91 217.11L205.71 217.04C205.72 217.04 205.74 217.05 205.75 217.07C205.76 217.08 205.77 217.09 205.77 217.11L209.8 218.99L209.77 219.04L209.78 219.04ZM209.18 219.37L205.5 217.66L205.41 217.82C205.4 217.84 205.39 217.85 205.37 217.85C205.36 217.85 205.34 217.84 205.33 217.83L205.22 217.68L201.84 219.94L202.13 223.75L205.82 225.46L205.9 225.3C205.91 225.28 205.93 225.28 205.94 225.27C205.96 225.27 205.97 225.28 205.98 225.3L206.1 225.44L209.47 223.18L209.18 219.37ZM203.6 223.78C203.58 223.57 203.75 223.38 203.97 223.36L207.6 223.08C207.82 223.07 208.01 223.23 208.03 223.44L208.05 223.77L203.62 224.11L203.6 223.78ZM207.95 222.39C207.96 222.6 207.8 222.79 207.58 222.81L203.95 223.09C203.73 223.1 203.53 222.94 203.52 222.73L203.49 222.42L202.89 221.14C202.84 221.16 202.79 221.17 202.74 221.17C202.47 221.19 202.24 221 202.22 220.74C202.2 220.48 202.4 220.25 202.67 220.23C202.93 220.21 203.17 220.41 203.19 220.67C203.19 220.73 203.18 220.79 203.17 220.84L204.69 221.48L205.33 219.83C205.14 219.78 204.99 219.62 204.98 219.41C204.96 219.15 205.16 218.93 205.42 218.91C205.69 218.88 205.92 219.08 205.94 219.34C205.96 219.52 205.86 219.69 205.71 219.78L206.62 221.36L208.06 220.47C208.04 220.41 208.02 220.36 208.02 220.29C208 220.03 208.2 219.81 208.46 219.79C208.73 219.76 208.96 219.96 208.98 220.22C209 220.48 208.8 220.71 208.53 220.73C208.48 220.73 208.43 220.73 208.38 220.72L207.94 222.22L207.95 222.39Z" />
	<path id="wings" class="shp18" d="M201.22 221.17C201.42 221.58 201.26 221.82 200.99 221.58C201.13 222.37 200.88 222.32 200.78 221.45C200.83 221.76 200.85 222.1 200.85 222.38C200.85 222.57 200.71 222.68 200.7 222.42C200.68 222.13 200.65 221.78 200.61 221.49C200.6 221.96 200.59 222.39 200.52 222.8C200.45 223.16 200.33 223.14 200.34 222.79C200.35 222.39 200.37 221.99 200.36 221.58C200.27 222.2 200.13 222.82 199.97 223.44C200.1 222.73 200.19 222.02 200.23 221.32C200.06 222.31 199.74 223.27 199.18 224.22C198.99 224.54 198.8 224.49 198.9 224.11C199.12 223.35 199.21 222.38 199.19 221.24C198.92 222.44 198.54 223.49 198.03 224.37C198.49 223.36 198.79 222.26 198.92 221.05C198.4 222.71 197.72 224.05 196.86 224.9C196.5 225.26 196.41 225.2 196.64 224.75C197.23 223.61 197.48 222.62 197.69 221.42C196.94 222.5 196.05 223.46 195.04 224.3C195.94 223.43 196.73 222.51 197.31 221.52C195.73 223.27 194.08 224.37 192.43 224.93C191.58 225.22 191.76 224.8 192.15 224.58C193.77 223.63 195.1 222.49 196.24 221.34C194.69 222.17 193.1 222.67 191.48 222.97C193.06 222.54 194.51 221.95 195.83 221.19C193.86 221.97 190.57 222.59 188.07 222.34C187.47 222.28 187.42 221.93 187.95 221.95C189.97 222.05 192.74 221.29 195.76 220.21C192.17 220.59 189.29 220.72 187.53 220.46C189.41 220.55 191.2 220.41 192.92 220.13C190.69 219.97 188.36 219.89 187.07 218.98C186.86 218.84 186.77 218.56 187.11 218.71C189.23 219.62 191.67 219.52 194.15 219.3C192.68 219.29 191.28 219.01 189.99 218.26C191.84 219.07 193.53 219.11 195.21 219.09C194.6 218.99 194.03 218.83 193.54 218.62C193.26 218.5 193.26 218.26 193.55 218.37C194.19 218.61 194.8 218.65 195.38 218.57C196.22 218.49 197.05 218.4 197.89 218.31C199.1 218.19 199.89 218.58 200.33 219.39C200.65 219.96 200.92 220.58 201.22 221.17ZM210.58 218.6C210.9 217.74 211.62 217.23 212.83 217.16C213.67 217.12 214.51 217.08 215.35 217.04C215.94 217.02 216.54 216.89 217.13 216.55C217.4 216.4 217.44 216.64 217.18 216.79C216.73 217.08 216.19 217.32 215.6 217.52C217.26 217.29 218.93 216.98 220.63 215.9C219.47 216.84 218.13 217.33 216.68 217.57C219.16 217.41 221.59 217.13 223.55 215.9C223.86 215.7 223.82 215.99 223.63 216.17C222.49 217.26 220.2 217.7 218.02 218.2C219.77 218.21 221.55 218.07 223.4 217.7C221.7 218.22 218.84 218.54 215.23 218.71C218.38 219.32 221.23 219.64 223.21 219.24C223.74 219.13 223.74 219.49 223.15 219.64C220.72 220.27 217.38 220.16 215.31 219.69C216.73 220.24 218.25 220.6 219.88 220.79C218.23 220.74 216.58 220.49 214.93 219.9C216.23 220.87 217.72 221.78 219.47 222.47C219.88 222.64 220.13 223.02 219.24 222.86C217.53 222.56 215.73 221.73 213.89 220.24C214.62 221.14 215.54 221.92 216.57 222.64C215.44 221.97 214.42 221.15 213.5 220.2C213.9 221.36 214.3 222.29 215.06 223.33C215.35 223.74 215.27 223.82 214.86 223.52C213.88 222.8 213 221.59 212.23 220.02C212.55 221.2 213.01 222.25 213.62 223.17C212.98 222.38 212.45 221.4 211.99 220.26C212.15 221.39 212.39 222.33 212.72 223.05C212.88 223.4 212.7 223.48 212.46 223.2C211.76 222.34 211.3 221.44 210.99 220.49C211.13 221.18 211.33 221.87 211.57 222.55C211.31 221.96 211.08 221.37 210.89 220.77C210.94 221.17 211.02 221.57 211.1 221.97C211.16 222.31 211.04 222.35 210.92 221.99C210.79 221.61 210.71 221.19 210.63 220.72C210.64 221.01 210.66 221.36 210.69 221.65C210.72 221.9 210.56 221.82 210.53 221.64C210.49 221.36 210.46 221.02 210.46 220.71C210.49 221.58 210.25 221.67 210.27 220.86C210.04 221.14 209.85 220.93 209.98 220.5C210.19 219.87 210.36 219.21 210.58 218.6Z" />
	<path id="itmright" class="shp19" d="M231 282L234 279C236.76 279 240 285.24 240 288C240 288 238.22 288.87 238.56 290.26C238.79 291.14 241.06 292.24 241.36 293.45C242.84 299.37 245 308 245 308C245 310.76 246.76 315 244 315L239 314C236.24 314 235 311.76 235 309C235 309 233.06 301.87 231.38 295.73C230.11 291.08 227 287 227 287C227 284.24 228.24 282 231 282Z" />
	<path id="chinga" class="shp20" d="M238 308C238 308 231.49 305.17 223.92 308.85C213.46 313.94 201 326 201 326C201 326 198.88 324.94 198 322C197.48 320.27 210.75 309.98 221.75 305.11C229.43 301.71 236 303 236 303C237.9 303 238 308 238 308Z" />
</svg>