<svg version="1.2" baseProfile="tiny-ps" xmlns="http://www.w3.org/2000/svg" viewBox="0 0 350 450" width="350" height="450">
	<title>outfitsanta</title>
	<style>
		tspan { white-space:pre }
		.s0 { fill: #c90e0e } 
		.s1 { opacity: .3;fill: #000000 } 
		.s2 { opacity: .2;fill: #000000 } 
		.s3 { fill: #000000 } 
		.s4 { opacity: .1;fill: #000000 } 
		.s5 { fill: #ffffff } 
		.s6 { fill: #b9c7ae } 
		.s7 { opacity: .1;fill: #ffffff } 
		.s8 { fill: #8f0a0a } 
	</style>
	<path id="top" class="s0" d="m268 214c-6.18 9.1-4.89 30.58-6 32c-1.11 1.42-11.28-21.41-14-23c-2.72-1.59-5.17-0.46-7-2c-1.83-1.54-5.06 1.32-5 3c0.06 1.68-0.17 34.38-4 44c-3.83 9.62-4 12-4 12l-51 7.85v0.15l-0.5-0.08l-0.5 0.08v-0.15l-51-7.85c0 0-0.17-2.38-4-12c-3.83-9.62-6.3-43.2-5-45c0.98-1.36-2.17-3.54-4-2c-1.83 1.54-4.28 0.41-7 2c-2.72 1.59-2.89 8.42-4 7c-1.11-1.42-26.17-1.93-27-3c-0.83-1.07 2.03-9.46 3-10c0.97-0.54 3.58-9.51 3-11c-0.58-1.49 2.73-4.5 4-5c1.27-0.5 7.34-5 14-13c3.58-4.3 8.06-9.51 13-12.69c4.25-2.73 9.1-3.7 11-4.31c4.1-1.3 23 1 23 1c9.89 3.23 27.82 8.72 31.37 9.81c2.28-1.17 15.91-7.97 31.63-10.81c0 0 17.7-3.05 22-3c6.11 0.08 8.75 3.27 13 6c4.94 3.18 9.42 8.7 13 13c6.66 8 11.73 13.5 13 14c1.27 0.5 6.63 2.18 8 3c2.25 1.34 5.03 4.46 6 5c0.97 0.54-14.24 3.88-15 5z" />
	<path id="shadowbelly" fill-rule="evenodd" class="s1" d="m206 172c3 0 6 0 9 0c-0.67 1.67-1.33 3.33-2 5c-8.41 2.44-23.87 7.59-29 14c4.74 18.21-3.48 60.18 4 68c12.84 6.8 30.16-0.09 39-6c1.34-5.83 2.17-13.31 1.67-20.75c-0.74-10.97-5.21-21.86-3.67-27.25c0 0.67 0 1.33 0 2c11.52 11.82 11.64 41.7 5 58c-24.87 8.99-61.62 13.51-90 3c-7.2-2.67-15.64 0.15-19-6c-2.19-4.01-1.66-6.91-2-9c-2.21-13.4-5.21-31.4 7-45c-6.85 23.88-3.16 45.03 15 52c5.67-0.33 11.33-0.67 17-1c5.7 1.28 7.83 5.31 15 2c3-19.1-7.71-64.34 6-76c9-4.33 18-8.67 27-13z" />
	<path id="pants" class="s0" d="m230 279c4.48 4.58 10.2 11.43 10 16c-0.2 4.57 1.52 10.97 3 14c1.48 3.03 2.73 9.34 4 15c1.27 5.66 2.41 7.51 3 10c0.59 2.49 1.25 8.04 1 10c-0.25 1.96-0.8 3.05-2 5c-1.2 1.95-3 5-3 5c0 0-0.27 2.44 0 2.44c0.27 0 0 6.56 0 6.56c0 0 2.62 6.95 3 8c0.38 1.05 2.78 7.64 4 10c1.22 2.36 1.41 6.07 2 9c0.59 2.93-0.33 4.7 0 6c0.33 1.3-1.64 3.44-2 5c-0.36 1.56-4 3-4 3c0 0-6.43 2.29-8 3c-1.57 0.71-9.22-0.45-11-2c-1.78-1.55-3.22-7.14-3-10c0.22-2.86-0.75-6.61-1-8c-0.25-1.39-5.01-17.84-6-20c-0.99-2.16-2.43-6.53-5-7c-2.57-0.47-4.01-3.56-5-3.56c-0.99 0-2.43-11.5-2-13.44c0.43-1.94-3.85-9.12-4-11c-0.15-1.88-6.69-6.55-10-9c-3.31-2.45-12.22-1.5-17-2c-4.78-0.5-7.33 1.29-13 3c-5.67 1.71-4.33 2.77-7 6c-2.67 3.23-6.27 3.62-7 8c-0.73 4.38-7.69 11.68-10 14c-2.31 2.32-5.33 0.57-6 4.44c-0.67 3.86-1.43 2.46-1 3.56c0.43 1.11-0.43 13.38 0 17c0.43 3.62-0.96 14.81-1 18c-0.04 3.19-3.64 4.97-12 4c-8.36-0.97-18.22-2.19-17-4c1.22-1.81 0.88-24.78 3.72-27c2.83-2.22-3.1-16.74-5.72-21c-2.62-4.26 0.78-14.7 1-20c0.22-5.3 9.78-22.61 11-27c1.22-4.39 11-21 11-21c20.26-15.8 101.52-4.58 106 0z" />
	<path id="pantsshadow" fill-rule="evenodd" class="s2" d="m152 279c23.88-0.2 53.46-2.42 74 2c6.82 9.21 15.47 19.83 17 34c-0.33 0.33-0.67 0.67-1 1c-15.24 0.52-25.52 5.54-43 6c-5.03-7.13-11.47-12.35-23-13c-7.19 3.24-9.77 9.48-16 12c-14.72 5.96-33.8-1.9-47-4c-0.33 1-0.67 2-1 3c-1.43 11.76-4.59 13.85-1 30c-1.33-1-2.67-2-4-3c-18.85-33.29 22.47-57.65 45-68zm52 46c1 2.67 2 5.33 3 8c6.06 10.64 19.82 9 24 23c-13.67-3.57-27.04-13.01-27-31zm41 0c6.09 8.43 5.2 19.13 0 26c-1 0.33-2 0.67-3 1c1.89-7.45 3.06-15.18 3-27zm-93 4c1 0 2 0 3 0c-1.33 1.67-2.67 3.33-4 5c-4.22 1.58-4.76 2.67-7 6c1.67-1.33 3.33-2.67 5-4c-3.36 10.87-14.44 17.32-29 17c0.33-0.67 0.67-1.33 1-2c13.68-3.47 20.73-14.32 31-22z" />
	<path id="shuel" class="s3" d="m140 352c-0.84 1.12-2.28 4.44-3 7c-0.72 2.56 0.13 15.36-1 25c-1.13 9.64-0.95 19.04 0 20c0.95 0.96 0.24 5.43-1 7c-1.24 1.57-6 3-6 3l-2-1l-2 1c0 0-2.29 3.16-6 4c-3.71 0.84-19.47 2.57-23 2c-3.53-0.57-14.61-2.99-15-5c-0.39-2.01 1.14-10.77 2-12c0.86-1.23 4.64-1.3 7-2c2.36-0.7 8.19-3.01 9-4c0.81-0.99 1.57-6.42 2-10c0.43-3.58 1.71-25.53 2-27c0.29-1.47 0-8 0-8c24.37 8.32 37.84-1.12 37 0z" />
	<path id="shuer" class="s3" d="m250 348c-0.28 1.43-0.02 2.28 0 4c0.02 1.72-0.17 4.44 0 7c0.17 2.56 1 5 1 5c0 0 4.03 14.07 4 15c-0.03 0.93 3.3 3.68 4 5c0.7 1.32-0.55 7.15-1 8c-0.45 0.85 0.6 4.65 1 6c0.4 1.35 3.76 7.12 4 8c0.24 0.88 0.21 4.02 0 5c-0.21 0.98-3.21 6.75-4 8c-0.79 1.25-6.49 0.98-8 1c-1.51 0.02-17.07 0.13-21-2c-3.93-2.13-8-13-8-13c0 0-0.11-3.75 0-5c0.11-1.25-0.11-7.22 0-11c0.11-3.78-3.23-17.17-4-20c-0.77-2.83-5-10-5-10c37.9-1.49 37.28-12.43 37-11z" />
	<path id="fus" class="s0" d="m233 266c0 0-1.52 6.15-2 8c-0.48 1.85 16.67 31.88 17 33c0.33 1.12-2.94 2.36-11 1c-8.06-1.36-39.14 8.97-43 10c-3.86 1.03-10.72-28.66-12-31c-1.28-2.34-7-1-7-1c0 0-3.9 30.1-7 30c-3.1-0.1-64.59-8.14-65-11c-0.41-2.86 19.2-23.54 20-24c0.8-0.46-2-13-2-13c63.3 13.06 112-2 112-2z" />
	<path id="fushadow" fill-rule="evenodd" class="s4" d="m125 272c27.82 2.33 78.23 14.86 105.29-1.56c0.71 8.74 4.79 11.29 6.71 18.56c-25.68-5.18-25.3 7.67-43 8c0.33 2 0.67 4 1 6c3.18 5.98 9.15 5.02 14 9c0 0.33 0 0.67 0 1c-5.67 1.33-11.33 2.67-17 4c-2-6.67-4-13.33-8.44-27.05c-7.15-3.33-8.89-3.52-11.56 0.05c-1.77 5.03-1.55 21.72-5 25c-9.12 3.47-28.56-2.71-38-5c-0.33-0.67-0.67-1.33-1-2c0-0.33 0-0.67 0-1c12.88 1.06 27.91 4.38 37 0c0-2.67 0-5.33 0-8c-15.5-2.73-6.66-11.44-47-12c4.93-4.12 6.98-7.21 7-15z" />
	<path id="whites" class="s5" d="m287.5 213c-1.38 0-2.5-1.12-2.5-2.49c-0.02 0.01-0.03 0.02-0.05 0.03c0.02 0.15 0.05 0.3 0.05 0.46c0 1.66-1.34 3-3 3c-0.24 0-0.47-0.03-0.7-0.09c-0.93 1.24-2.72 2.09-4.8 2.09c-2.04 0-3.8-0.82-4.75-2.02c-0.13-0.01-0.26-0.03-0.39-0.05c-0.3 0.52-0.69 0.95-1.14 1.3c0.49 0.5 0.78 1.1 0.78 1.77c0 1.16-0.88 2.15-2.16 2.65c0.71 0.46 1.16 1.11 1.16 1.85c0 1.27-1.34 2.31-3.07 2.47c-0.18 0.67-0.74 1.24-1.51 1.61c0.95 0.63 1.58 1.7 1.58 2.92c0 1.4-0.83 2.6-2.02 3.16c-0.05 0.8-0.48 1.5-1.1 1.92c0.07 0.3 0.12 0.6 0.12 0.92c0 1.93-1.34 3.5-3 3.5c-1.66 0-3-1.57-3-3.5c0-1.54 0.86-2.83 2.05-3.3c0.05-0.39 0.16-0.76 0.37-1.08c-0.26-0.49-0.42-1.03-0.42-1.62c0-1.22 0.62-2.29 1.57-2.92c-0.95-0.45-1.57-1.21-1.57-2.08c0-1.28 1.35-2.32 3.09-2.47c0.19-0.68 0.74-1.27 1.53-1.63c-0.98-0.55-1.62-1.41-1.62-2.4c0-1.1 0.8-2.06 1.98-2.58c-0.6-0.79-0.98-1.8-0.98-2.92c0-2.49 1.79-4.5 4-4.5c0.77 0 1.48 0.25 2.08 0.68c-0.05-0.22-0.08-0.44-0.08-0.68c0-1.66 1.34-3 3-3c0.82 0 1.55 0.33 2.09 0.86c0.28-1.07 1.25-1.86 2.41-1.86c0.29 0 0.56 0.06 0.81 0.15c0.6-1.26 2.03-2.15 3.69-2.15c2.21 0 4 1.57 4 3.5c0 0.22-0.03 0.43-0.07 0.63c0.66 0.62 1.07 1.45 1.07 2.37c0 0.2-0.05 0.39-0.09 0.58c0.19-0.05 0.39-0.08 0.59-0.08c1.38 0 2.5 1.12 2.5 2.5c0 1.38-1.12 2.5-2.5 2.5zm-39.5 97c-0.38 0-0.74-0.14-1.04-0.37c-0.53 0.23-1.21 0.37-1.96 0.37c-0.33 0-0.65-0.03-0.95-0.08c-0.07 0.02-0.14 0.04-0.22 0.05c-0.39 0.6-1.51 1.03-2.84 1.03c-1.32 0-2.43-0.43-2.83-1.03c-0.21-0.02-0.41-0.06-0.6-0.12c-0.3 0.08-0.63 0.14-0.97 0.14c-0.52 0.6-1.48 1.01-2.59 1.01c-0.99 0-1.86-0.32-2.41-0.82c-0.58 0.48-1.74 0.82-3.09 0.82c-0.97 0-1.84-0.17-2.48-0.44c-0.42 0.27-0.94 0.44-1.52 0.44c-0.19 0-0.38-0.02-0.55-0.05c-0.25 1.17-1.47 2.05-2.95 2.05c-0.47 0-0.91-0.1-1.3-0.26c-0.35 0.16-0.75 0.25-1.18 0.26c-0.61 0.6-1.72 1-3.02 1c-0.67 0-1.29-0.11-1.82-0.3c-0.43 0.77-1.24 1.3-2.18 1.3c-0.49 0-0.94-0.15-1.33-0.39c-0.44 0.24-1.02 0.39-1.67 0.39c-0.28 0-0.54-0.03-0.79-0.08c-0.36 0.55-1.02 0.95-1.82 1.05c-0.26 0.6-1.01 1.03-1.89 1.03c-0.05 0-0.1-0.01-0.15-0.01c-0.34 0.59-1.26 1.01-2.35 1.01c-0.68 0-1.3-0.16-1.75-0.43c-0.4 0.84-1.25 1.43-2.25 1.43c-0.31 0-0.59-0.06-0.87-0.16c-0.47 0.1-1.03 0.16-1.63 0.16c-0.2 0-0.4-0.01-0.59-0.02c-0.55 0.62-1.42 1.02-2.41 1.02c-1.66 0-3-1.12-3-2.5c0-0.74 0.39-1.4 1.01-1.86c0-0.05-0.01-0.09-0.01-0.14c0-0.19 0.01-0.37 0.04-0.55c-1.16-0.22-2.04-1.23-2.04-2.45c0-0.07 0.03-0.14 0.04-0.21c-0.02-0.09-0.04-0.19-0.04-0.29c0-0.37 0.14-0.72 0.36-1.01c-1.31-0.08-2.36-1.15-2.36-2.49c0-0.29 0.06-0.57 0.15-0.83c-0.09-0.21-0.15-0.43-0.15-0.67c0-0.44 0.18-0.84 0.49-1.18c-0.87-0.31-1.49-1.01-1.49-1.82c0-0.18 0.04-0.35 0.1-0.52c-0.66-0.54-1.1-1.45-1.1-2.48c0-0.47 0.1-0.9 0.26-1.3c-0.16-0.36-0.26-0.76-0.26-1.2c0-0.6 0.18-1.14 0.46-1.57c-0.15 0.04-0.3 0.07-0.46 0.07c-1.1 0-2-0.9-2-2c0-0.78 0.45-1.45 1.1-1.78c0.09-0.46 0.21-0.88 0.42-1.23c-0.04-0.05-0.08-0.09-0.11-0.14c-0.28 0.09-0.59 0.14-0.91 0.14c-1.38 0-2.5-0.9-2.5-2c0-0.41 0.16-0.79 0.42-1.11c-0.27-0.4-0.42-0.87-0.42-1.39c0-0.18 0.02-0.36 0.06-0.54c-1.17-0.17-2.06-0.98-2.06-1.96c0-0.58 0.31-1.1 0.81-1.47c-0.04-0.02-0.09-0.03-0.13-0.06c-0.52 0.26-1.12 0.41-1.74 0.47c0.03 0.18 0.06 0.36 0.06 0.55c0 1.18-0.59 2.23-1.49 2.86c0.31 0.47 0.49 1.03 0.49 1.64c0 1.33-0.88 2.45-2.08 2.84c0.05 0.21 0.08 0.43 0.08 0.66c0 0.29-0.05 0.56-0.12 0.82c0.66 0.49 1.12 1.5 1.12 2.68c0 1.66-0.9 3-2 3c-0.12 0-0.23-0.02-0.34-0.05c-0.05 0.07-0.08 0.16-0.15 0.23c0.87 0.31 1.49 1.01 1.49 1.82c0 0.41-0.16 0.79-0.42 1.11c0.27 0.4 0.42 0.87 0.42 1.39c0 1.03-0.62 1.91-1.51 2.3c0.32 0.34 0.51 0.75 0.51 1.2c0 0.79-0.58 1.47-1.41 1.79c0.26 0.34 0.41 0.75 0.41 1.21c0 0.78-0.45 1.44-1.1 1.77c0.06 0.23 0.1 0.47 0.1 0.73c0 0.99-0.46 1.84-1.13 2.24c0.08 0.24 0.13 0.49 0.13 0.76c0 1.38-1.12 2.5-2.5 2.5c-0.61 0-1.17-0.23-1.6-0.6c-0.22 0.93-0.76 1.6-1.4 1.6c-0.49 0-0.93-0.4-1.2-1.01c-0.64 0.61-1.65 1.01-2.8 1.01c-1.93 0-3.5-1.12-3.5-2.5c0-0.18 0.06-0.34 0.1-0.51c-0.04 0-0.07 0.01-0.1 0.01c-0.06 0-0.12-0.01-0.18-0.02c-0.41 1.17-1.51 2.02-2.82 2.02c-1.35 0-2.47-0.89-2.85-2.11c-0.18-0.04-0.34-0.1-0.51-0.17c-0.34 0.18-0.73 0.29-1.14 0.29c-0.57 0-1.09-0.2-1.51-0.52c-0.53 0.32-1.23 0.52-1.99 0.52c-1.19 0-2.22-0.47-2.7-1.14c-0.25 0.09-0.52 0.14-0.8 0.14c-0.53 0-1.03-0.17-1.43-0.45c-0.43 0.28-0.97 0.45-1.57 0.45c-0.91 0-1.7-0.39-2.14-0.98c-0.55 0.59-1.4 0.98-2.36 0.98c-1.29 0-2.36-0.68-2.79-1.63c-0.34 0.39-0.76 0.63-1.21 0.63c-0.43 0-0.82-0.21-1.15-0.55c-0.51 0.34-1.15 0.55-1.85 0.55c-1.48 0-2.71-0.9-2.95-2.08c-0.18 0.05-0.36 0.08-0.55 0.08c-0.34 0-0.67-0.08-0.96-0.23c-0.32 0.15-0.67 0.23-1.04 0.23c-0.84 0-1.56-0.42-2.01-1.05c-0.16 0.03-0.32 0.05-0.49 0.05c-0.26 0-0.5-0.04-0.74-0.1c-0.24 0.06-0.49 0.1-0.76 0.1c-1.24 0-2.27-0.73-2.46-1.68c-0.54 0.42-1.25 0.68-2.04 0.68c-0.43 0-0.83-0.09-1.2-0.22c-0.38 0.14-0.82 0.22-1.3 0.22c-0.31 0-0.61-0.04-0.89-0.1c-0.58 0.65-1.75 1.1-3.11 1.1c-1.31 0-2.44-0.42-3.04-1.03c-0.15 0.02-0.3 0.03-0.46 0.03c-1.66 0-3-0.9-3-2c0-0.6 0.4-1.13 1.03-1.5c-0.63-0.37-1.03-0.9-1.03-1.5c0-0.35 0.14-0.67 0.38-0.95c-0.24-0.31-0.38-0.66-0.38-1.05c0-1.1 1.12-2 2.5-2c1.38 0 2.5 0.9 2.5 2c0 0.11-0.02 0.22-0.04 0.32c0.25 0.17 0.47 0.41 0.63 0.69c0.15 0.17 0.27 0.36 0.33 0.56c0.43-0.35 0.97-0.58 1.57-0.58c0.57 0 1.08 0.19 1.5 0.51c0.42-0.32 0.93-0.51 1.5-0.51c0.84 0 1.57 0.41 2.03 1.05c0.02 0 0.03-0.01 0.05-0.01c0.55-0.62 1.42-1.04 2.42-1.04c1.15 0 2.14 0.54 2.64 1.34c0.41-0.21 0.87-0.34 1.36-0.34c1.25 0 2.33 0.77 2.77 1.86c0.45-0.53 1.05-0.86 1.73-0.86c1.09 0 2.01 0.84 2.35 2.02c0.05 0 0.1-0.02 0.15-0.02c0.78 0 1.44 0.45 1.77 1.1c0.2 0.05 0.4 0.11 0.59 0.19c0.36-0.78 0.96-1.28 1.64-1.28c0.31 0 0.6 0.11 0.86 0.3c0.49-0.19 1.04-0.3 1.64-0.3c1.26 0 2.36 0.48 2.97 1.2c0.31-0.12 0.65-0.2 1.03-0.2c1.38 0 2.5 0.9 2.5 2c0 0.01-0.01 0.03-0.01 0.04c0.14 0.02 0.28 0.06 0.41 0.1c0.45-0.69 1.22-1.14 2.09-1.14c0.53 0 1.03 0.17 1.43 0.45c0.43-0.28 0.97-0.45 1.57-0.45c1.2 0 2.2 0.68 2.44 1.58c0.43-0.35 0.96-0.58 1.56-0.58c0.41 0 0.79 0.11 1.14 0.29c0.41-0.18 0.87-0.29 1.36-0.29c1 0 1.88 0.41 2.43 1.04c0.04 0.01 0.09 0.01 0.13 0.01c0.54-0.64 1.43-1.06 2.44-1.06c1.1 0 2.06 0.5 2.58 1.24c0.55-0.75 1.42-1.24 2.42-1.24c1.66 0 3 1.34 3 3c0 0.05-0.01 0.1-0.02 0.15c0.1 0.06 0.2 0.13 0.29 0.22c0.35-0.68 0.99-1.19 1.77-1.33c-0.03-0.18-0.05-0.36-0.05-0.55c0-0.94 0.42-1.75 1.03-2.18c-0.02-0.11-0.03-0.21-0.03-0.32c0-0.64 0.3-1.2 0.77-1.56c-0.47-0.36-0.77-0.87-0.77-1.44c0-0.86 0.68-1.58 1.62-1.87c-0.38-0.44-0.62-1.01-0.62-1.63c0-0.51 0.16-0.99 0.42-1.39c-0.27-0.32-0.42-0.7-0.42-1.11c0-0.44 0.18-0.84 0.49-1.18c-0.87-0.31-1.49-1.01-1.49-1.82c0-0.79 0.58-1.47 1.41-1.79c-0.26-0.34-0.41-0.75-0.41-1.21c0-0.78 0.45-1.44 1.1-1.77c-0.06-0.23-0.1-0.47-0.1-0.73c0-0.68 0.22-1.3 0.57-1.75c-0.36-0.49-0.57-1.1-0.57-1.75c0-0.85 0.35-1.61 0.92-2.15c-0.57-0.62-0.92-1.44-0.92-2.35c0-1.49 0.93-2.75 2.24-3.26c-0.15-0.39-0.24-0.81-0.24-1.24c0-0.75 0.25-1.44 0.65-2.04c-1-0.83-1.65-2.06-1.65-3.46c0-1.08 0.39-2.05 1.02-2.82c-0.64-0.9-1.02-1.99-1.02-3.18c0-1.38 0.52-2.62 1.36-3.59c-0.84-1.05-1.36-2.41-1.36-3.91c0-1.06 0.26-2.04 0.71-2.9c-0.44-0.43-0.71-0.99-0.71-1.6c0-0.81 0.47-1.52 1.19-1.98c-0.12-0.47-0.19-0.98-0.19-1.52c0-0.57 0.08-1.11 0.21-1.6c-0.73-0.55-1.21-1.41-1.21-2.4c0-0.46 0.11-0.89 0.3-1.28c-0.19-0.52-0.3-1.1-0.3-1.72c0-1.5 0.62-2.78 1.53-3.47c-0.91-0.6-1.53-1.72-1.53-3.03c0-1.14 0.47-2.13 1.19-2.77c-0.11-0.56-0.19-1.13-0.19-1.73c0-0.66 0.09-1.28 0.23-1.89c-0.74-0.82-1.23-2.13-1.23-3.61c0-0.82 0.16-1.58 0.41-2.24c-0.26-0.7-0.41-1.46-0.41-2.26c0-1.18 0.32-2.27 0.86-3.19c-0.31-0.57-0.55-1.18-0.69-1.85c-0.71-0.73-1.16-1.78-1.16-2.96c0-1.64 0.86-3.04 2.09-3.66c-0.04-0.22-0.07-0.45-0.08-0.68c-1.19-0.56-2.01-1.76-2.01-3.16c0-1.17 0.58-2.19 1.45-2.83c-1.44-0.6-2.45-2.01-2.45-3.67c0-2.21 1.79-4 4-4c0.03 0 0.05 0.01 0.07 0.01c0-0.02 0-0.03 0-0.05c-1.73-0.21-3.08-1.67-3.08-3.46c0-0.22 0.03-0.43 0.07-0.63c-0.66-0.62-1.07-1.45-1.07-2.37c0-0.89 0.39-1.69 1.02-2.31c0-0.06-0.02-0.12-0.02-0.19c0-0.12 0.02-0.24 0.03-0.36c-1.78-0.69-3.03-2.28-3.03-4.14c0-0.36 0.06-0.7 0.14-1.03c-0.25-0.12-0.48-0.26-0.69-0.42c-1.1 0.59-2.46 0.95-3.95 0.95c-3.59 0-6.5-2.01-6.5-4.5c0-0.17 0.05-0.34 0.07-0.51c-0.03 0-0.05 0.01-0.07 0.01c-0.49 0-0.96-0.1-1.39-0.26c-0.66 0.16-1.37 0.26-2.11 0.26c-1.82 0-3.46-0.52-4.64-1.36c-0.87 0.22-1.84 0.36-2.86 0.36c-3.29 0-6.03-1.3-6.78-3.05c-0.24 0.03-0.47 0.05-0.72 0.05c-0.69 0-1.34-0.11-1.93-0.3c-0.64 0.19-1.34 0.3-2.07 0.3c-2.04 0-3.8-0.82-4.75-2.02c-0.08 0.01-0.16 0.02-0.25 0.02c-1.93 0-3.5-1.34-3.5-3c0-0.17 0.03-0.33 0.06-0.49c-1.24-0.53-2.06-1.46-2.06-2.51c0-1.04 0.79-1.96 2-2.49c0 0 0 0 0-0.01c0-1.93 1.57-3.5 3.5-3.5c1.85 0 3.35 1.44 3.48 3.26c0.62-0.17 1.3-0.26 2.02-0.26c0.7 0 1.37 0.09 1.97 0.24c0.32-0.16 0.66-0.24 1.03-0.24c1.66 0 3 1.79 3 4c0 0.01 0 0.03 0 0.04c1.27 0.18 2.31 1.04 2.76 2.21c0.71-0.14 1.45-0.24 2.24-0.24c1.49 0 2.86 0.27 3.99 0.72c1.01-0.45 2.21-0.72 3.51-0.72c1.59 0 3.03 0.41 4.16 1.07c1.9 0.31 3.34 1.95 3.34 3.93c0 0.13-0.03 0.26-0.04 0.39c0.78-0.24 1.63-0.39 2.54-0.39c0.13 0 0.25 0.02 0.38 0.03c0.64-0.62 1.57-1.03 2.62-1.03c1.93 0 3.5 1.34 3.5 3c0 0.01 0 0.03 0 0.04c0.17-0.01 0.33-0.04 0.5-0.04c2.44 0 4.41 1.51 4.49 3.39c0.32 0.13 0.63 0.27 0.91 0.45c0.61-0.44 1.34-0.72 2.13-0.8c0.13-1.16 0.74-2.04 1.47-2.04c0.42 0 0.8 0.29 1.07 0.75c0.69-1.04 1.95-1.75 3.43-1.75c0.1 0 0.19 0.02 0.29 0.03c0.68-1.18 2.52-2.03 4.71-2.03c0-2.21 2.01-4 4.5-4c0.07 0 0.13 0.02 0.2 0.02c0.55-0.39 1.21-0.67 1.94-0.84c0.91-1.29 2.74-2.17 4.87-2.17c1.1 0 2.12 0.24 2.98 0.65c0.57-0.4 1.26-0.65 2.02-0.65c1.03 0 1.95 0.45 2.59 1.17c0.31-0.07 0.63-0.11 0.96-0.14c-0.02-0.18-0.05-0.35-0.05-0.53c0-2.49 2.01-4.5 4.5-4.5c1.46 0 2.75 0.71 3.57 1.79c0.83-0.43 1.85-0.7 2.97-0.76c-0.02-0.17-0.04-0.35-0.04-0.53c0-1.93 1.12-3.5 2.5-3.5c0.4 0 0.78 0.14 1.11 0.38c0.58-0.24 1.21-0.38 1.89-0.38c2.49 0 4.5 1.79 4.5 4c0 1.4-0.82 2.63-2.05 3.35c-0.22 0.83-1.22 1.49-2.47 1.62c-0.87 1.2-2.77 2.03-4.98 2.03c-0.94 0-1.81-0.16-2.59-0.43c-0.4 1.38-2.22 2.43-4.41 2.43c-0.21 0-0.41-0.02-0.62-0.04c-0.83 0.63-2.03 1.04-3.38 1.04c-0.86 0-1.65-0.17-2.33-0.44c-0.5 0.27-1.06 0.44-1.67 0.44c-0.39 0-0.76-0.08-1.12-0.2c-0.81 0.59-1.85 1-3.03 1.14c-0.85 1.22-2.47 2.06-4.35 2.06c-0.18 0-0.34-0.03-0.51-0.04c-0.75 0.59-1.71 0.98-2.78 1.02c-0.68 1.17-2.52 2.02-4.7 2.02c-0.36 0-0.71-0.03-1.05-0.07c-0.25 1.73-1.91 3.07-3.95 3.07c-0.37 0-0.72-0.06-1.06-0.14c0.03 0.21 0.06 0.42 0.06 0.64c0 1.04-0.37 1.99-0.96 2.75c0.59 0.61 0.96 1.39 0.96 2.25c0 1.11-0.61 2.09-1.53 2.73c0.9 0.45 1.53 1.52 1.53 2.77c0 0.41-0.07 0.8-0.19 1.15c0.12 0.41 0.19 0.87 0.19 1.35c0 1.02-0.32 1.93-0.81 2.57c0.5 0.73 0.81 1.77 0.81 2.93c0 0.54-0.07 1.05-0.19 1.52c0.72 0.46 1.19 1.17 1.19 1.98c0 0.99-0.69 1.83-1.69 2.24c0.43 0.81 0.69 1.75 0.69 2.76c0 0.69-0.13 1.34-0.34 1.95c0.83 1.11 1.34 2.51 1.34 4.05c0 1.6-0.55 3.04-1.43 4.17c0.14 0.36 0.25 0.74 0.32 1.13c0.67 0.64 1.11 1.61 1.11 2.7c0 1.48-0.79 2.74-1.9 3.25c1.15 1.28 1.9 3.15 1.9 5.25c0 0.96-0.15 1.87-0.43 2.7c0.86 0.64 1.43 1.65 1.43 2.8c0 1.07-0.49 2.02-1.25 2.65c1.87 0.42 3.25 1.75 3.25 3.35c0 1.37-1.03 2.55-2.51 3.12c0.32 1.13 0.51 2.46 0.51 3.88c0 2.71-0.68 5.08-1.68 6.39c1.01 1.05 1.68 2.94 1.68 5.11c0 2.4-0.83 4.44-2.01 5.39c1.19 0.64 2.01 2.01 2.01 3.61c0 1.49-0.72 2.78-1.78 3.47c1.06 0.6 1.78 1.73 1.78 3.03c0 1.31-0.73 2.44-1.8 3.04c0.49 0.37 0.8 0.88 0.8 1.46c0 0.02-0.01 0.03-0.01 0.05c1.14 0.23 2.01 1.24 2.01 2.45c0 0.2-0.04 0.39-0.09 0.58c0.19-0.05 0.38-0.08 0.59-0.08c1.38 0 2.5 1.12 2.5 2.5c0 0.91-0.5 1.7-1.23 2.14c0.14 0.41 0.23 0.87 0.23 1.36c0 0.8-0.21 1.53-0.56 2.07c0.89 0.25 1.56 1.24 1.56 2.43c0 0.04-0.01 0.07-0.01 0.11c0.61 0.55 1.01 1.41 1.01 2.39c0 0.46-0.09 0.89-0.25 1.28c0.04 0.02 0.08 0.05 0.12 0.07c0.32-0.22 0.71-0.35 1.13-0.35c1.1 0 2 0.9 2 2c0 0.9-0.6 1.65-1.41 1.9c0.26 0.32 0.41 0.69 0.41 1.1c0 0.24-0.06 0.46-0.15 0.67c0.09 0.26 0.15 0.54 0.15 0.83c0 0.57-0.2 1.08-0.51 1.5c0 0 0.01 0 0.01 0c1.38 0 2.5 0.9 2.5 2c0 0.08-0.02 0.15-0.03 0.22c0.01 0.09 0.03 0.18 0.03 0.28c0 0.49-0.15 0.94-0.39 1.33c0.19 0.36 0.3 0.82 0.35 1.31c1 0.28 1.73 0.99 1.94 1.86c0.03 0 0.06 0 0.1 0c0.02 0 0.03 0 0.05 0c-0.03-0.16-0.05-0.33-0.05-0.5c0-1.38 1.12-2.5 2.5-2.5c1 0 1.85 0.59 2.25 1.43c0.45-0.27 1.07-0.43 1.75-0.43c0.21 0 0.41 0.02 0.6 0.05c0.15-0.36 0.49-0.65 0.92-0.84c-0.01-0.07-0.03-0.14-0.03-0.21c0-1.1 1.12-2 2.5-2c0.52 0 1.01 0.13 1.41 0.35c0.43-0.22 0.98-0.35 1.59-0.35c0.19 0 0.37 0.01 0.55 0.04c0.22-1.16 1.23-2.04 2.45-2.04c0.6 0 1.14 0.22 1.57 0.57c0.63-0.35 1.49-0.57 2.43-0.57c0.28 0 0.55 0.02 0.81 0.06c0.42-0.63 1.24-1.06 2.19-1.06c0.04 0 0.07 0.01 0.11 0.01c0.55-0.61 1.41-1.01 2.39-1.01c0.43 0 0.83 0.08 1.2 0.21c0.36-0.67 1.17-1.14 2.13-1.19c0.43-0.61 1.23-1.02 2.17-1.02c0.67 0 1.28 0.21 1.72 0.56c0.45-0.91 1.52-1.56 2.78-1.56c1.45 0 2.66 0.86 2.94 2c0.02 0 0.04 0 0.06 0c0.46 0 0.89 0.07 1.28 0.2c0.32-0.11 0.68-0.17 1.06-0.18c0.43-0.6 1.23-1.01 2.16-1.01c1.38 0 2.5 0.9 2.5 2c0.02 0 0.03 0 0.05 0c-0.03-0.16-0.05-0.33-0.05-0.5c0-1.38 1.12-2.5 2.5-2.5c0.57 0 1.08 0.2 1.5 0.52c0-0.01 0-0.01 0-0.02c0-0.83 0.9-1.5 2-1.5c1.03 0 1.86 0.58 1.98 1.33c0.61 0.43 1.02 1.23 1.02 2.17c0 1.38-0.9 2.5-2 2.5zm-2.13-3.27c0.04 0.11 0.07 0.23 0.09 0.35c0.03 0 0.05 0.01 0.07 0.02c0.01-0.1 0.04-0.19 0.06-0.28c-0.08-0.03-0.15-0.06-0.22-0.09zm-143.87-72.73c-1.93 0-3.59-0.89-4.42-2.17c-0.66 0.1-1.35 0.17-2.08 0.17c-1.99 0-3.75-0.42-4.94-1.07c-1.1 0.65-2.72 1.07-4.56 1.07c-2.63 0-4.84-0.85-5.65-2.03c-0.12 0.01-0.23 0.03-0.35 0.03c-0.05 0-0.1-0.01-0.15-0.01c-0.82 0.62-2.01 1.01-3.35 1.01c-0.4 0-0.79-0.05-1.16-0.11c-0.27 0.07-0.55 0.11-0.84 0.11c-1.93 0-3.5-1.57-3.5-3.5c0-0.46 0.09-0.9 0.25-1.3c-0.16-0.37-0.25-0.77-0.25-1.2c0-0.65 0.21-1.25 0.56-1.74c-0.35-0.52-0.56-1.12-0.56-1.76c0-1.93 1.79-3.5 4-3.5c1.39 0 2.6 0.62 3.32 1.55c0.78-0.35 1.69-0.55 2.68-0.55c0.72 0 1.4 0.12 2.02 0.31c0.1-1.84 1.61-3.31 3.48-3.31c1.71 0 3.12 1.22 3.43 2.84c0.12-0.12 0.26-0.23 0.4-0.33c1.1-0.92 2.77-1.51 4.67-1.51c3.31 0 6 1.79 6 4c0 0.37-0.1 0.72-0.24 1.06c0.24-0.03 0.49-0.06 0.74-0.06c2.49 0 4.5 1.57 4.5 3.5c0 0.59-0.21 1.14-0.54 1.62c0.94 0.73 1.54 1.74 1.54 2.88c0 2.21-2.24 4-5 4zm159.5 4c1.3 0 2.36 1 2.48 2.26c0.61 0.34 1.02 0.99 1.02 1.74c0.38 0 0.72 0.1 1.02 0.24c-0.01-0.08-0.02-0.16-0.02-0.24c0-0.88 0.43-1.62 1.02-1.88c-0.01-0.2-0.02-0.4-0.02-0.62c0-0.17 0.01-0.34 0.01-0.5c0 0-0.01 0-0.01 0c-1.66 0-3-1.12-3-2.5c0-1.38 1.34-2.5 3-2.5c1.65 0 2.99 1.11 3 2.49c0.3-0.3 0.63-0.49 1-0.49c0.56 0 1.05 0.41 1.42 1.05c0.33-0.03 0.69-0.05 1.08-0.05c1.38 0 2.5 0.22 2.5 0.5c0 0.28-1.12 0.5-2.5 0.5c-0.25 0-0.48-0.01-0.71-0.02c0 0.01 0.01 0.03 0.01 0.04c0.07 0 0.13-0.02 0.19-0.02c1.66 0 3 1.34 3 3c0 1.4-0.96 2.56-2.25 2.89c0.16 0.34 0.25 0.71 0.25 1.11c0 1.66-1.57 3-3.5 3c-0.86 0-1.64-0.28-2.25-0.72c-0.45 0.44-1.06 0.72-1.75 0.72c-1.25 0-2.27-0.92-2.46-2.11c-0.17 0.07-0.35 0.11-0.54 0.11c-0.83 0-1.5-0.67-1.5-1.5c0-0.25 0.08-0.47 0.19-0.67c-0.39-0.18-0.71-0.48-0.92-0.85c-1.27-0.12-2.26-1.18-2.26-2.48c0-1.38 1.12-2.5 2.5-2.5z" />
	<path id="belt" class="s3" d="m235 255c0 0-0.08 5.82-2 12c-1.92 6.18 1 13 1 13c0 0-30.27 12.75-57.66 12.5c-27.61-0.25-53.34-12.5-53.34-12.5c0 0-1.46-2.71-2.8-8.88c-1.14-5.25-2.2-14.12-2.2-14.12c74.52 27.01 117-2 117-2z" />
	<path id="catarama" class="s6" d="m193 291.5c0 0.83-0.67 1.5-1.5 1.5h-26c-0.83 0-1.5-0.67-1.5-1.5v-10.5c-1.1 0-2-0.9-2-2c0-1.1 0.9-2 2-2v-9.5c0-0.06 0.03-0.11 0.03-0.17c-0.02-0.11-0.03-0.22-0.03-0.33c0-1.1 0.9-2 2-2h25c1.1 0 2 0.9 2 2c0 0.11-0.02 0.22-0.03 0.33c0.01 0.06 0.03 0.11 0.03 0.17v24zm-3-22.5h-23v8h3c1.1 0 2 0.9 2 2c0 1.1-0.9 2-2 2h-3v9h23v-21z" />
	<path id="bootsshine" fill-rule="evenodd" class="s7" d="m98 398c1.33 0 1.67 0 3 0c-0.33 0.67-0.67 1.33-1 2c-4.83 1.27-7.51 1.15-9 6c2.07 2.89 8 0.67 11 1c0.33 0.67 0.67 1.33 1 2c-1.33 2.33 0.43 5.44-4 7c-5.26 1.76-10.67-0.67-16-2c-1.6-2.02-0.33-6.67 0-9c2.95-3.6 9.18-2.04 15-7zm142 2c8.98-0.32 13.07 0.97 18 4c0.33 1 0.67 2 1 3c0 1-3-1-3 0c-0.33 0 2.33 3 2 3c-12.67-5.08-21.29-8.26-32-2c0.33-1-1.33 0-1-1c4.67-2.33 4.53-5.52 15-7z" />
	<path id="sac" class="s8" d="m282 237c0 0-2.91-2.71 21 25c23.91 27.71 26 129 26 129c0 0-5.14 2.24-2 6c9.51 11.41 5.25 19.15-3 25c-8.25 5.85-109.9 3.59-119-4c-9.1-7.59-0.32-26.26 2-61.56c2.32-35.3 62-121.44 62-121.44c6.6 2.77 13 2 13 2z" />
	<path id="sactop" class="s8" d="m281 215c0 0 0.11-4.78 4-6c3.89-1.22 20.89-13.5 38 14c1.49 2.4-9.4 10.96-9 16c0.4 5.04 8.83 12.86 5 14c-3.83 1.14-28.45-37.34-34-37c-5.55 0.34-7.39 2.86-8 1c-0.61-1.86 0.69-2.62 4-2z" />
	<path id="shadowsac" fill-rule="evenodd" class="s1" d="m269 236c19.63 2.86 50.99 43.71 41 65c-1.39-26.24-15.82-44.46-32-56c-0.33 7.67-2.67 17.33-3 25c-0.33 0-1.67 16-2 16c-0.33-8.33 0.33-32.67 0-41c0 0.67-3-0.67-3 0c-5.33 4.67-10.67 11.33-16 16c4.07-8.5 12.01-13.96 15-25zm-34 96c0.67 0 1.33 0 2 0c-9.17 11.58-20.13 20.78-24 38c-13.05 57.96 83.61 49.69 116 36c0 2.33 0 4.67 0 7c-9.53 16.99-114 13.55-122 0c-13.8-26.04 14.9-70.01 28-81zm90 40c6.57 9.24-1.43 19.14-1 27c-3.77 0.47-5.45 3.55-11 5c-17.48 4.56-71.85-0.77-78-8c27.83 6.29 67.89 8.32 88-6c-0.33-6 2.33-12 2-18zm2 27c2.21 2.06 1.88 1.38 3 5c-0.67-0.33-1.33-0.67-2-1c-0.33-1.33-0.67-2.67-1-4z" />
</svg>