<svg version="1.2" baseProfile="tiny-ps" xmlns="http://www.w3.org/2000/svg" viewBox="0 0 200 148" width="200" height="148">
	<title>pey11.svg</title>
<defs>
   <radialGradient id="gradpk" cx="50%" cy="50%" r="60%" >
    
            <stop offset="0%" style="stop-color:rgb(255,143,208);stop-opacity:1.00" />
            <stop offset="32%" style="stop-color:rgb(208,2,144);stop-opacity:1.00" />
            <stop offset="74%" style="stop-color:rgb(25,24,24);stop-opacity:1.00" />

    </radialGradient>
  </defs>
	<style>
		tspan { white-space:pre }
		.shp0 { fill: #2d2d2d } 
		.shp1 { fill: #d4d4d4 } 
		.shp2 { fill: #080808 } 
		.shp3 { opacity:0.8;fill: #ffffff;transform:translateX(2px); }
#l5,#l5r{fill:url(#gradpk);} 
	</style>
	<path id="l1" class="shp0" d="M48 51C48 51 53.01 39.11 57 39C60.99 38.89 78 47.83 82 53C86 58.17 70.01 46.46 62 46C56.56 45.69 54.27 46.84 52 49C49.73 51.16 49.2 52.48 48 51Z" />
	<path id="l2" class="shp0" d="M70.26 79.35C66.81 79.05 63.64 78.29 60.98 77.24C60.08 77.16 59 77 59 77C59 77 46.36 72.4 45 70C42.74 66.02 44.86 69.2 47 69C49.14 68.8 49.7 71.73 51 67.01C50.67 67.01 50.34 67.01 50 67C42.61 66.71 42.72 63.06 45 64C47.28 64.94 50.97 65.79 53 64C53.71 63.37 52 62 52 62C54.29 60.99 61.88 62.97 61.99 63C64.84 62.39 68.2 62.18 71.75 62.5C81.56 63.37 89.18 67.84 88.76 72.5C88.35 77.15 80.07 80.22 70.26 79.35Z" />
	<path id="l3" class="shp0" d="M53 63C51.75 62.94 44.65 59.65 44 59C43.35 58.35 44.19 56.51 45 57C45.81 57.49 48.81 59.56 58 59C67.19 58.44 80 64 80 64C74.92 62.34 54.25 63.06 53 63Z" />
	<path id="l4" class="shp1" d="M72.06 63.47C80.74 64.7 87.05 70.63 86.72 73.15C86.25 76.65 78.63 79.61 69.95 78.38C61.27 77.15 54.71 72.82 55.3 68.7C55.88 64.58 63.39 62.24 72.06 63.47Z" />
	<path id="l5" class="shp2" d="M71 63C71.87 63.17 81.91 64.72 81.91 67.42C81.91 72.95 75.73 75.7 69.71 74.92C63.68 74.13 60 70.1 60.09 64.58C60.16 60.49 69.79 62.77 71 63Z" />
	<path id="l6" class="shp3" d="M64 64C65.66 64 67 65.57 67 67.5C67 69.43 65.66 71 64 71C62.34 71 61 69.43 61 67.5C61 65.57 62.34 64 64 64Z" />
	<path id="l1r" class="shp0" d="M147 49C144.73 46.84 142.44 45.69 137 46C128.99 46.46 113 58.17 117 53C121 47.83 138.01 38.89 142 39C145.99 39.11 151 51 151 51C149.8 52.48 149.27 51.16 147 49Z" />
	<path id="l2r" class="shp0" d="M110.24 72.5C109.82 67.84 117.44 63.37 127.25 62.5C130.8 62.18 134.16 62.39 137.01 63C137.12 62.97 144.71 60.99 147 62C147 62 145.29 63.37 146 64C148.03 65.79 151.72 64.94 154 64C156.28 63.06 156.39 66.71 149 67C148.66 67.01 148.33 67.01 148 67.01C149.3 71.73 149.86 68.8 152 69C154.14 69.2 156.26 66.02 154 70C152.64 72.4 140 77 140 77C140 77 138.92 77.16 138.02 77.24C135.36 78.29 132.19 79.05 128.74 79.35C118.93 80.22 110.65 77.15 110.24 72.5Z" />
	<path id="l3r" class="shp0" d="M119 64C119 64 131.81 58.44 141 59C150.19 59.56 153.19 57.49 154 57C154.81 56.51 155.65 58.35 155 59C154.35 59.65 147.25 62.94 146 63C144.75 63.06 124.08 62.34 119 64Z" />
	<path id="l4r" class="shp1" d="M143.7 68.7C144.29 72.82 137.73 77.15 129.05 78.38C120.37 79.61 112.75 76.65 112.28 73.15C111.95 70.63 118.26 64.7 126.94 63.47C135.61 62.24 143.12 64.58 143.7 68.7Z" />
	<path id="l5r" class="shp2" d="M138.91 64.58C139 70.1 135.32 74.13 129.29 74.92C123.27 75.7 117.09 72.95 117.09 67.42C117.09 64.72 127.13 63.17 128 63C129.21 62.77 138.84 60.49 138.91 64.58Z" />
	<path id="l6r" class="shp3" d="M122 65C123.66 65 125 66.57 125 68.5C125 70.43 123.66 72 122 72C120.34 72 119 70.43 119 68.5C119 66.57 120.34 65 122 65Z" />
</svg>