<svg version="1.2" baseProfile="tiny-ps" xmlns="http://www.w3.org/2000/svg" viewBox="0 0 200 148" width="200" height="148">
	<title>pey3.svg</title>

<defs>
   <linearGradient id="grd1" x1="0%" y1="50%" x2="100%" y2="50%" >
    
          <stop offset="0%" style="stop-color:rgb(0,0,0);stop-opacity:1.00" />
          <stop offset="50%" style="stop-color:rgb(156,39,176);stop-opacity:1.00" />
          <stop offset="100%" style="stop-color:rgb(0,0,0);stop-opacity:1.00" />

    </linearGradient>
  </defs>
	<style>
		tspan { white-space:pre }
		.shp0 { fill: #000000 } 
		.shp1 { fill: #bebebe } 
		.shp2 { fill: #101010 } 
		.shp3 { fill: #d3d3d3 } 
		.shp4 { fill: #ffffff } 
		.shp5 { fill: #0f0f0f } 
		.shp6 { fill: #e0e0e0 }


#e1d.shp4,#e1dr.shp4,#e1a.shp1,#e1ar.shp1 {stroke: #000;stroke-width: 0.5; }
#e1a.shp1,#e1ar.shp1{opacity:1;fill:url(#grd1);}
	</style>
	<path id="e1" class="shp0" d="M60.53 47.71C60.53 47.71 62.48 42.03 65.43 42.11C68.38 42.19 75.65 49.54 77.33 50.51C79.01 51.47 81.05 51.98 81.53 51.91C82.01 51.84 80.85 52.99 78.73 52.61C75.14 51.97 69.11 46.14 67.53 45.61C64.78 44.68 61.33 46.71 60.53 47.71Z" />
	<path id="e1a" class="shp1" d="M58.43 70.11C58.43 70.11 59.46 56.21 63.33 54.01C67.2 51.81 76.7 51.21 82.23 61.01C87.76 70.81 87.13 73.61 87.13 73.61C87.13 73.61 75.68 69.04 71.03 69.41C66.38 69.78 59.69 72.21 59.13 71.51C58.57 70.81 58.43 70.11 58.43 70.11Z" />
	<path id="e1b" class="shp2" d="M88.53 75.01C88.53 75.01 84.66 79.13 77.33 79.91C73.19 80.35 65.38 77.23 64.73 77.11C58.31 75.87 46.41 70.25 49.33 70.81C52.25 71.37 60.45 69.78 68.23 68.71C76.01 67.64 88.53 74.31 88.53 74.31C88.76 74.49 88.53 75.01 88.53 75.01Z" />
	<path id="e1c" class="shp3" d="M59.83 72.21C59.83 72.21 65.76 70.81 71.03 70.81C76.3 70.81 86.11 74.43 86.43 75.01C86.75 75.59 80.34 78.43 78.73 78.51C77.12 78.59 69.34 77.64 65.43 75.41C61.47 73.15 59.83 72.21 59.83 72.21Z" />
	<path id="e1d" class="shp4 svg-eye" d="M82.23 72.91C82.23 72.91 79.95 74.59 78.73 75.01C77.51 75.43 75.53 76.3 71.73 75.71C67.93 75.12 64.73 70.81 64.73 70.81C73.3 68.99 82.23 72.91 82.23 72.91Z" />
	<path id="e1f" class="shp5" d="M73.83 70.81C76.09 70.81 77.42 70.81 76.74 72.5C76.37 73.4 74.11 74.05 72.43 73.61C70.75 73.17 70.08 71.74 70.33 70.81C70.57 69.87 72.05 70.81 73.83 70.81Z" />
	<path id="e1g" class="shp6" d="M75.93 70.81C76.7 70.81 77.33 71.28 77.33 71.86C77.33 72.44 76.7 72.91 75.93 72.91C75.16 72.91 74.53 72.44 74.53 71.86C74.53 71.28 75.16 70.81 75.93 70.81Z" />
	<path id="e1r" class="shp0" d="M131.47 45.61C129.89 46.14 123.86 51.97 120.27 52.61C118.15 52.99 116.99 51.84 117.47 51.91C117.95 51.98 119.99 51.47 121.67 50.51C123.35 49.54 130.62 42.19 133.57 42.11C136.52 42.03 138.47 47.71 138.47 47.71C137.67 46.71 134.22 44.68 131.47 45.61Z" />
	<path id="e1ar" class="shp1" d="M139.87 71.51C139.31 72.21 132.62 69.78 127.97 69.41C123.32 69.04 111.87 73.61 111.87 73.61C111.87 73.61 111.24 70.81 116.77 61.01C122.3 51.21 131.8 51.81 135.67 54.01C139.54 56.21 140.57 70.11 140.57 70.11C140.57 70.11 140.43 70.81 139.87 71.51Z" />
	<path id="e1br" class="shp2" d="M110.47 74.31C110.47 74.31 122.99 67.64 130.77 68.71C138.55 69.78 146.75 71.37 149.67 70.81C152.59 70.25 140.69 75.87 134.27 77.11C133.62 77.23 125.81 80.35 121.67 79.91C114.34 79.13 110.47 75.01 110.47 75.01C110.47 75.01 110.24 74.49 110.47 74.31Z" />
	<path id="e1cr" class="shp3" d="M133.57 75.41C129.66 77.64 121.88 78.59 120.27 78.51C118.66 78.43 112.25 75.59 112.57 75.01C112.89 74.43 122.7 70.81 127.97 70.81C133.24 70.81 139.17 72.21 139.17 72.21C139.17 72.21 137.53 73.15 133.57 75.41Z" />
	<path id="e1dr" class="shp4 svg-eye" d="M134.27 70.81C134.27 70.81 131.07 75.12 127.27 75.71C123.47 76.3 121.49 75.43 120.27 75.01C119.05 74.59 116.77 72.91 116.77 72.91C116.77 72.91 125.7 68.99 134.27 70.81Z" />
	<path id="e1fr" class="shp5" d="M128.67 70.81C128.92 71.74 128.25 73.17 126.57 73.61C124.89 74.05 122.63 73.4 122.26 72.5C121.58 70.81 122.91 70.81 125.17 70.81C126.95 70.81 128.43 69.87 128.67 70.81Z" />
	<path id="e1gr" class="shp6" d="M128.06 70.81C128.84 70.81 129.47 71.28 129.47 71.86C129.47 72.44 128.84 72.91 128.06 72.91C127.29 72.91 126.66 72.44 126.66 71.86C126.66 71.28 127.29 70.81 128.06 70.81Z" />
</svg>