<svg class="svgmo" version="1.2" baseProfile="tiny-ps" xmlns="http://www.w3.org/2000/svg" viewBox="0 0 200 148" width="200" height="148" style="transform:translateY(-7px);">
	<title>pmo7</title>
<defs>
<radialGradient id="rgrad" cx="50%" cy="10%" r="50%" >
    
            <stop offset="6%" style="stop-color:rgb(255,201,196);stop-opacity:1.00" />
            <stop offset="23%" style="stop-color:rgb(255,98,86);stop-opacity:1.00" />
            <stop offset="49%" style="stop-color:rgb(255,17,0);stop-opacity:1.00" />
            <stop offset="76%" style="stop-color:#900;stop-opacity:1.00" />

    </radialGradient>
<filter id="shadow">
  <feDropShadow 
    dx="0"
    dy="2"
    stdDeviation="1"
    floodColor="#ff0000"
    floodOpacity="1"
  />
</filter>

<filter id="shadown">
  <feDropShadow 
    dx="0"
    dy="1"
    stdDeviation="0"
    floodColor="#000000"
    floodOpacity="1"
  />
</filter>

</defs>
	<style>
		tspan { white-space:pre }
		.shp0 { fill: #0fa127 } 
		.shp1 { fill: #0fa127; }
  #ld,.shp1{filter: url(#shadow),url(#rgrad);}
		#lu,.shp0{filter: url(#shadown),url(#rgrad);}
		.shp0,.shp1{fill:url(#rgrad);}
		#ld,.shp1{transform:scaleY(1.3) translateY(-8px);}
	</style>
	<path id="ld" class="shp1" d="M115.97 35.36C113 34.5 107.49 33.04 104.42 33.18C103.81 33.21 103.25 33.2 102.75 33.16C102.47 33.34 102.14 33.45 101.78 33.45L98.21 33.45C97.85 33.45 97.52 33.34 97.24 33.16C96.74 33.2 96.18 33.21 95.57 33.18C92.5 33.04 86.99 34.5 84.02 35.36C81.06 36.23 83.72 33.4 83.72 33.4C83.72 33.4 95.06 27.01 96.3 27.44C97.53 27.88 99.8 29.32 99.8 29.32L99.89 29.87L100.1 29.87L100.19 29.32C100.19 29.32 102.46 27.88 103.7 27.44C104.93 27.01 116.27 33.4 116.27 33.4C116.27 33.4 118.93 36.23 115.97 35.36Z" />
	<path id="lu" class="shp0" d="M101 41.28C100.81 41.36 100.61 41.4 100.39 41.4L100 41.4C99.78 41.4 99.58 41.36 99.39 41.28C97.73 41.3 92.91 41.03 88.82 37.66C88.82 37.66 94.1 39.32 96.07 38.96C97.15 38.76 98.31 38.59 99.13 38.48C99.38 38.32 99.68 38.22 100 38.22L100.39 38.22C100.71 38.22 101.01 38.32 101.26 38.48C102.08 38.59 103.24 38.76 104.32 38.96C106.29 39.32 111.57 37.66 111.57 37.66C107.48 41.03 102.66 41.3 101 41.28Z" />
</svg>