<svg version="1.2" baseProfile="tiny-ps" xmlns="http://www.w3.org/2000/svg" viewBox="0 0 350 450" width="350" height="450">
	<title>rocker</title>
	<style>
		tspan { white-space:pre }
		.s0 { fill: #1e1e1e } 
		.s1 { fill: #110f0f } 
		.s2 { opacity: .1;fill: #ffffff } 
		.s3 { fill: #c6c6c6 } 
		.s4 { fill: #000000 } 
		.s5 { fill: #d0d0d0 } 
		.s6 { opacity: .2;fill: #000000 } 
	</style>
	<path id="top" class="s0" d="m261.64 194.66c-0.68-0.51-2.28-1.53-4.25-3c2.23 0.52 3.63 2.23 4.25 3zm0 0c0.22 0.17 0.35 0.28 0.36 0.34c0.01 0.13-0.11-0.03-0.36-0.34zm-12.64 0.34c-8.84 8.24-8 24-8 24l-2-2h-3l-1 2l-1 2c0 0 0.36 21.8-1 29c-0.8 4.25-5 23-5 23c0 0 0.57 3.73 1 5c0.43 1.27-52 1-52 1c0 0-52.43 0.27-52-1c0.43-1.27-2-5-2-5c0 0-4.2-18.75-5-23c-1.36-7.2-1-29-1-29v-1l-2-1h-1h-1c0 0-0.16-16.76-9-25c-4.97-4.63-8.15-3.82-9.98-2.36c4.81-5.13 16.7-16.87 17.98-17.64c1.61-0.97 5.51-1.61 7-2c0.67-0.18 3.54-1.49 6.78-1.74c3.97-0.3 8.49 0.49 10.22 0.74c3.14 0.45 10 2 10 2l10-15c3.13-2.34 21-1 21-1c0 0 17.87-1.34 21 1l10 12c0 0 6.86-1.55 10-2c1.73-0.25 6.25-1.04 10.22-0.74c3.24 0.25 6.11 1.56 6.78 1.74c1.49 0.39 5.39 4.03 7 5c0.8 0.48 4.75 7.5 9.52 12.51c1.97 2.07 4.07 3.79 5.87 5.14c-2.08-0.49-4.86 0.05-8.4 3.34zm-157-1c0-0.07 0.2-0.33 0.54-0.73c-0.37 0.54-0.54 0.9-0.54 0.73zm2.02-2.36c-0.63 0.67-1.13 1.23-1.48 1.63c0.33-0.48 0.81-1.1 1.48-1.63z" />
	<path id="pants" class="s1" d="m228 269c-0.75 1.21 0.24 6.7 1 9c0.76 2.3 12.44 36.38 13 37c0.56 0.62-0.76 18.36 0 21c0.76 2.64 6.34 15.6 7 17c0.66 1.4-1.34 5.24-0.14 7.32c1.87 3.25 8.28 25.67 8.14 26.68c-0.17 1.23 0.68 8.55 1 10c0.32 1.45-2.55 0.89-8 4c-5.45 3.11-26.32-0.65-26-2c0.32-1.35-1.71-24.12-2-26c-0.29-1.88-2.58-9.11-4-12c-1.42-2.89-7.61-22.95-9-24c-1.39-1.05-10.11-13.34-12-15c-1.89-1.66-18.87-2.59-20-3c-1.13-0.41-16.77 1.7-18 2c-1.23 0.3-7.26 6.99-8 8c-0.74 1.01-3.69 5.36-7 8c-3.31 2.64-7.49 14.99-7 16c0.49 1.01-2.29 33.96-2 36c0.4 2.8-1.16 7.66-1 9c0.16 1.34 0.57 2.07-2 3c-2.57 0.93-3.15 3.96-5 5c-1.85 1.04-5.16 2.38-10-5c-4.84-7.38-18.78-2.13-19-3c-0.22-0.87 2.06-1.53 3-4c0.94-2.47 1.09-16.72 1-19c-0.09-2.28 1.11-4.46 2-6c0.89-1.54 0.4-8.43 0-10c-0.4-1.57-0.98-4.8-1-6c-0.02-1.2 2.51-8.86 3-10c0.49-1.14 5.97-33.2 6-34c0.03-0.8 10-23 10-23l3-8l-3-8c63.8 6.6 106.75-2.21 106-1z" />
	<path id="hands" class="s0" d="m276 206c-0.05 0.02-0.18-0.02-0.37-0.09c0.28 0.03 0.42 0.06 0.37 0.09zm-14 6c-3.74 7.13-3 17-3 17l-7-4c0 0-0.79-4.15 0.66-9.34c1.23-4.44 3.55-9.64 15.34-13.66c0 0 6.04 3.32 7.63 3.91c-1.89-0.19-10.38-0.11-13.63 6.09zm-161 19c-8.82-11.63-28-1-28-1c0 0 0.74-2.85 2-5c1.26-2.15 7.31-3.21 14-4c6.69-0.79 13 6 13 6c-0.63 1.58-0.72 4.37-1 4z" />
	<path id="logo" class="s2" d="m193.13 196.59l17.87-6.5l-16.84 12.47l5.15 11.93l-2.75 5.96l-4.12-1.08l3.09 3.79h-3.78l2.75 2.71l-3.78 1.08l3.44 11.38l-3.78 8.67l-2.41-2.17l-4.81-3.79l0.34-12.47l4.81-10.3l-5.5-1.08l3.44-5.42l6.87 1.08l-2.75-9.21l-8.25 2.71l-1.72 8.13l-1.37 1.08v-18.43l6.53-5.42v2.71l9.62-5.42l-3.09 4.88l1.03 2.71zm-20.27 9.76l-8.25-2.71l-2.75 9.21l6.87-1.08l3.44 5.42l-5.5 1.08l4.81 10.3l0.34 12.47l-4.81 3.79l-2.41 2.17l-3.78-8.67l3.44-11.38l-3.78-1.08l2.75-2.71h-3.78l3.09-3.79l-4.12 1.08l-2.75-5.96l5.15-11.93l-16.84-12.47l17.87 6.5l1.03-2.71l-3.09-4.88l9.62 5.42v-2.71l6.53 5.42v18.43l-1.37-1.08l-1.72-8.13z" />
	<path id="chain" class="s3" d="m146 173c-0.31 0.89 15.97 33.24 28 33c14.93-0.3 33-37 33-37c0 0 1.79-0.02 2 1c0.21 1.02-22.3 39.69-36 38c-13.7-1.69-29-35-29-35c1.15-1.48 2.31-0.89 2 0z" />
	<path id="pandantiv" class="s3" d="m183.79 208.66c-0.54-0.08-1.2 0.99-1.14 1.75c0.06 0.76-0.68 1.52-1.05 1.76c-0.37 0.24-1.45 0.38-1.45 0.38c0 0 0.08 0.76-0.25 1.41c-0.33 0.65-1.17 0.8-1.7 0.77c-0.34-0.02-0.89-0.45-0.98-0.68c-0.09-0.23-0.41-0.04-0.83-0.5c-0.42-0.45 1.6-2.12 1.62-1.37c0.02 0.63 0.26 0.69 0.11 0.94c-0.15 0.24-0.29 0.28-0.41 0.72c-0.12 0.44 0.77 0.27 1.18 0.11c0.4-0.17 0.55-1 0.51-1.3c-0.04-0.3-0.81-1.29-1.84-1.51c-1.03-0.22-2.1 1.34-2.3 1.56c-0.17 0.19-0.08 1.74-0.05 2.16l0.58-0.46c0.13-0.1 0.35-0.11 0.49-0.01l1.06 0.79c0.14 0.1 0.14 0.27 0.01 0.37l-0.93 0.74l0.72 0.54l0.79-0.62c0.13-0.1 0.35-0.11 0.49-0.01l1.06 0.79c0.14 0.1 0.14 0.27 0.01 0.37l-1.02 0.81c-0.13 0.1-0.35 0.11-0.49 0.01l-0.84-0.63l-0.66 0.52l0.89 0.66c0.14 0.1 0.14 0.27 0.01 0.37l-1.02 0.81c-0.13 0.1-0.35 0.11-0.49 0.01l-0.84-0.63l-0.79 0.62c-0.13 0.1-0.35 0.11-0.49 0.01l-1.06-0.79c-0.14-0.1-0.14-0.27-0.01-0.37l0.89-0.7l-0.68-0.51l-0.79 0.62c-0.13 0.1-0.35 0.11-0.49 0.01l-1.06-0.79c-0.14-0.1-0.14-0.27-0.01-0.37l1.02-0.81c0.13-0.1 0.35-0.11 0.49-0.01l0.84 0.63l0.7-0.55l-0.93-0.69c-0.14-0.1-0.14-0.27-0.01-0.37l1.02-0.81c0.13-0.1 0.35-0.11 0.49-0.01l0.63 0.47c0.03-0.41 0.13-1.98-0.05-2.17c-0.2-0.22-1.27-1.78-2.3-1.56c-1.03 0.22-1.8 1.21-1.84 1.51c-0.04 0.3 0.11 1.13 0.51 1.3c0.4 0.17 1.3 0.33 1.18-0.11c-0.12-0.44-0.25-0.48-0.41-0.72c-0.15-0.24 0.09-0.3 0.11-0.94c0.02-0.76 2.05 0.92 1.62 1.37c-0.42 0.45-0.74 0.26-0.83 0.5c-0.09 0.23-0.64 0.66-0.98 0.68c-0.53 0.03-1.37-0.12-1.7-0.77c-0.33-0.65-0.25-1.41-0.25-1.41c0 0-1.07-0.13-1.45-0.38c-0.37-0.24-1.11-1-1.05-1.76c0.06-0.76-0.6-1.83-1.14-1.75c-0.54 0.08-1.21-0.06-1.21-0.06c0 0 0.44-0.64 1-0.59c0.55 0.04 1.89 0.39 1.97 0.75c0.08 0.36 0.29 0.14 0.48 0.13c0.19-0.01 1.01-0.07 1.25 0.31c0.24 0.38 0.53 0.88 0.53 0.88c0 0-0.47 0.27-0.8 0.16c-0.33-0.11-0.49-0.6-1.01-0.5c-0.23 0.04-0.36 0.45-0.33 0.7c0.03 0.23 0.36 0.98 0.75 1.11c0.41 0.14 1.2 0.21 1.46-0.05c0.26-0.25 0.59-0.77 0.54-1.06c-0.11-0.7 0.32-1.55 1.16-1.7c0.85-0.15 2.07-0.29 2.62 0.77c0.21 0.41 0.32 0.68 0.37 0.87c0.05-0.18 0.16-0.46 0.37-0.87c0.55-1.07 1.77-0.93 2.62-0.77c0.85 0.15 1.28 1.01 1.16 1.7c-0.05 0.29 0.28 0.8 0.54 1.06c0.26 0.25 1.05 0.19 1.46 0.05c0.39-0.13 0.72-0.88 0.75-1.11c0.03-0.25-0.1-0.66-0.33-0.7c-0.52-0.1-0.68 0.39-1.01 0.5c-0.33 0.11-0.8-0.16-0.8-0.16c0 0 0.29-0.5 0.53-0.88c0.24-0.38 1.06-0.32 1.25-0.31c0.19 0.01 0.4 0.23 0.48-0.13c0.08-0.36 1.42-0.7 1.97-0.75c0.55-0.04 1 0.59 1 0.59c0 0-0.66 0.14-1.21 0.06zm-8.78 9.92l0.66-0.52l-0.68-0.51l-0.66 0.52l0.68 0.51zm-0.01-1.74l0.7-0.55l-0.72-0.54l-0.7 0.55l0.72 0.54z" />
	<path id="belt" class="s4" d="m175.46 271.5c26.76-0.75 53.54-4.5 53.54-4.5c0 0-1.07 5.19-1 6c0.07 0.81 2 7 2 7c0 0-27.43 3.52-54.38 4.03c-26.03 0.49-51.62-2.03-51.62-2.03c0 0 0.63-2.73 1-4c0.37-1.27-3-8-3-8c0 0 26.72 2.25 53.46 1.5z" />
	<path id="catarama" class="s5" d="m226 276.01c-1.11 0-2.01-1.03-2.01-2.31c0-1.27 0.65-2.69 2.01-2.69c1.35 0 2.01 1.42 2.01 2.69c0 1.27-0.9 2.31-2.01 2.31zm0-3.59c0 0-1.32 0.35-1.22 1.41c0.1 1.05 1.17 1.68 1.84 1.41c0.66-0.28 0.57-1.66 0.61-2.11c0.05-0.45-1.12-0.68-1.22-0.7zm-11 5.59c-1.11 0-2.01-1.03-2.01-2.31c0-1.27 0.65-2.69 2.01-2.69c1.35 0 2.01 1.42 2.01 2.69c0 1.27-0.9 2.31-2.01 2.31zm1.22-2.89c0.05-0.45-1.12-0.68-1.22-0.7c0 0-1.32 0.35-1.22 1.41c0.1 1.05 1.17 1.68 1.84 1.41c0.66-0.28 0.57-1.66 0.61-2.11zm-16.72 4.89c-1.39 0-2.51-1.24-2.51-2.77c0-1.53 0.82-3.23 2.51-3.23c1.69 0 2.51 1.71 2.51 3.23c0 1.53-1.12 2.77-2.51 2.77zm0.77-0.94c0.83-0.33 0.71-1.99 0.77-2.53c0.06-0.54-1.4-0.82-1.53-0.84c0 0-1.65 0.42-1.53 1.69c0.12 1.27 1.47 2.02 2.3 1.69zm-11.27 5.93c-7.53 0.53-14 0.45-21 0c0.33-4.33-0.33-10.67 0-15c4.82-1.17 16.42-1.55 21 1c0.33 4-0.33 10 0 14zm-3-13c-3.92-0.61-7.92-0.45-12 0c-2.23 0-3.28 0.53-4 1c0 1 0 2 0 3c2.67 0 5.33 1 8 1c0 1.33 0 0.67 0 2c-7.22-0.39-7.45-1.15-8 4c5 0.38 9.92 0.98 15 0c0.67-0.33 1.33-0.67 2-1c-0.33-3.33-0.67-6.67-1-10zm-30.29 9.36c-1.38 0.07-2.57-1.11-2.64-2.64c-0.08-1.53 0.66-3.27 2.35-3.35c1.69-0.08 2.59 1.58 2.67 3.11c0.08 1.53-0.99 2.82-2.37 2.89zm-0.21-4.31c-0.13 0.03-1.57 0.38-1.49 0.92c0.08 0.54 0.04 2.2 0.89 2.49c0.84 0.29 2.15-0.53 2.21-1.8c0.06-1.27-1.61-1.61-1.61-1.61zm-15.37 3.07c-1.11 0.05-2.06-0.93-2.12-2.2c-0.06-1.27 0.52-2.72 1.87-2.79c1.35-0.07 2.08 1.32 2.14 2.59c0.06 1.27-0.78 2.35-1.89 2.4zm-0.18-3.59c-0.11 0.03-1.26 0.32-1.19 0.76c0.07 0.45 0.04 1.83 0.72 2.08c0.68 0.24 1.72-0.44 1.77-1.5c0.04-1.06-1.29-1.34-1.29-1.34zm-10.91 2.13c-1.11 0.05-2.06-0.93-2.12-2.2c-0.06-1.27 0.52-2.72 1.87-2.79c1.35-0.07 2.08 1.32 2.14 2.59c0.06 1.27-0.78 2.35-1.89 2.4zm-0.18-3.59c-0.11 0.03-1.26 0.32-1.19 0.76c0.07 0.45 0.04 1.83 0.72 2.08c0.68 0.24 1.72-0.44 1.77-1.5c0.04-1.06-1.29-1.34-1.29-1.34z" />
	<path id="shuel" class="s4" d="m101 391c0.12-1.99 4.1-3.88 6-4c4.1-0.26 9.23 0.63 12 5c2.77 4.37 5.64-0.23 10-1c4.36-0.77 3.31-2.88 5-3c1.69-0.12 0.02 3.83 0 5c-0.02 1.11 1.33 5.47 2 7c0.67 1.53-0.04 10.17-1 11c-0.96 0.83-7.68 3.31-11 5c-3.32 1.69-20.32 5.31-24 5c-11.72-0.98-15.05-3.14-18-6c-0.83-0.8-1.86-7.21-1-7c0.86 0.21 18-12 18-12c0.61-0.12 1.88-3.01 2-5z" />
	<path id="shuer" class="s4" d="m224 394c0.09-1.18 2.11 0.33 3 1c0.89 0.67 3.49-1.16 4-2c0.51-0.84 1.81-3.54 7-5c5.19-1.46 12.1 4.14 13 4c0.9-0.14 4.34-2.42 6-3c1.66-0.58 0.05 5.69 0 7c-0.05 1.31 4.68 6.25 5 7c0.32 0.75 0.65 4.85 1 6c0.35 1.15-2.42 6.74-3 8c-0.58 1.26-15 3-15 3c0 0-13.29-0.09-18-5c-4.71-4.91-4.67-10.32-4-12c0.67-1.68 1-6 1-6c0 0-0.09-1.82 0-3z" />
	<path id="shdow" fill-rule="evenodd" class="s6" d="m193 163c5.18 2.02 6.49 7.39 11 9c9.67-0.67 19.33-1.33 29-2c4.33 4.67 8.67 9.33 13 14c-0.81 15.74-12.29 27.31-16 41c-1 11-2 22-3 33c-1.83 6.18-8.12 16.04-5 27c2.46 8.65 11.13 13.83 13 24c2.53 13.81 1.99 33.76-6 41c4.15-35.17-19.11-50.05-17-83c-8 0-16 0-24 0c0-0.33 0-0.67 0-1c39.29 0.24 26.03-25.86 37-53c2.9-7.17 16.35-24.25 5-33c-6.72-4.38-24.34-3.26-33-5c-1.67-2.67-3.33-5.33-5-8c0.33-1.33 0.67-2.67 1-4zm10 20c1.67 0 3.33 0 5 0c-1.85 3.88-3.03 6.51-2 11c2 1 4 2 6 3c-3 5-6 10-9 15c5-1 10-2 15-3c0 0.33 0 0.67 0 1c-1.67 1.67-3.33 3.33-5 5c-1.9 4.24-4.11 5.81-8 8c-4.67-0.33-9.33-0.67-14-1c0.67-1.33 1.33-2.67 2-4c-7.67 1-15.33 2-23 3c10-8.33 20-16.67 30-25c-11.33 4-22.67 8-34 12c4.31-12.82 10.96-16.39 21-23c-0.33 1.33-0.67 2.67-1 4c5.67-2 11.33-4 17-6zm-9 49c0.67 0 1.33 0 2 0c-1 0.67-2 1.33-3 2c0.33-0.67 0.67-1.33 1-2zm-3 2c0.67 0 1.33 0 2 0c-4.67 3-9.33 6-14 9c4-3 8-6 12-9zm-14 9c0.67 0 1.33 0 2 0c-1 0.67-2 1.33-3 2c0.33-0.67 0.67-1.33 1-2zm22 47c1 0 2 0 3 0c-5.72 8.07-9.3 12.93-11 26c-14.67 1-29.33 2-44 3c0.33-1 0.67-2 1-3c1-1.33 2-2.67 3-4c10.97-1.6 22.8-1.69 29-8c-4.63 0.01-15.73-1.1-14-4c9.33-3 18.67-6 28-9c-0.67 1-1.33 2-2 3c2.33-1.33 4.67-2.67 7-4zm7 31c8.2 6.75 15.69 12.18 18 25c-1-0.33-2-0.67-3-1c-5.95-6.71-12.59-13.82-15-24zm40 40c2.33 2.33 4.67 4.67 7 7c-0.67 7.33-1.33 14.67-2 22c-0.33-0.67-0.67-1.33-1-2c-2.67-6.33-5.33-12.67-8-19c1.33-2.67 2.67-5.33 4-8zm-72-116c0.67 0 1.33 0 2 0c-0.67 0-1.33 0-2 0z" />
</svg>