<svg version="1.2" baseProfile="tiny-ps" xmlns="http://www.w3.org/2000/svg" viewBox="0 0 200 148" width="200" height="148">
	<title>santabeard.svg</title>
	<style>
		tspan { white-space:pre }
		.s0 { fill: #efefef;filter:drop-shadow(0 4px 2px rgba(0,0,0,0.3)); } 
		.s1 { opacity: .1;fill: #000000 } 
	</style>
	<path id="bw" class="s0" d="m127.8 33.98l-27.6 45.69l-28.2-37.67c0 0 0.26-0.49 0.66-1.27c-0.37 0.17-0.75 0.27-1.16 0.27c-1.93 0-3.5-2.01-3.5-4.5c0-0.76 0.16-1.47 0.42-2.1c-0.86-0.55-1.42-1.41-1.42-2.4c0-0.45 0.12-0.87 0.33-1.25c-0.8-0.27-1.33-0.73-1.33-1.25c0-0.83 1.34-1.5 3-1.5c0.02 0 0.05 0 0.07 0c-0.05-0.16-0.07-0.33-0.07-0.5c0-1.38 1.57-2.5 3.5-2.5c0.17 0 0.34 0.01 0.5 0.03c0-0.01 0-0.02 0-0.03c0-1.66 1.57-3 3.5-3c1.02 0 1.93 0.38 2.57 0.98c0.29-1.13 1.49-1.98 2.93-1.98c0.37 0 0.72 0.06 1.05 0.17c0.23-1.22 1.68-2.17 3.45-2.17c0.38 0 0.73 0.05 1.07 0.13c0.63-0.68 1.7-1.13 2.93-1.13c1 0 1.89 0.31 2.52 0.79c0.11-1 0.95-1.79 1.98-1.79c0.5 0 0.95 0.19 1.3 0.49c0.54-0.88 1.77-1.49 3.2-1.49c1.36 0 2.52 0.56 3.1 1.36c0.42-0.22 0.89-0.36 1.4-0.36c1.35 0 2.47 0.89 2.85 2.12c0.05-0.01 0.11-0.01 0.16-0.02c0-0.03-0.01-0.07-0.01-0.1c0-1.1 0.67-2 1.5-2c0.83 0 1.5 0.9 1.5 2c0 0.11-0.01 0.22-0.02 0.33c0.07 0.03 0.13 0.06 0.2 0.09c0.51-0.26 1.13-0.42 1.82-0.42c1.66 0 3 0.9 3 2c0 0.43-0.21 0.83-0.56 1.16c0.01 0.01 0.03 0.02 0.04 0.03c0.47-0.12 0.98-0.19 1.52-0.19c2.21 0 4 1.12 4 2.5c0 0 0 0.01 0 0.01c0.22 0.17 0.41 0.38 0.57 0.61c0.46-0.68 1.15-1.12 1.93-1.12c1.38 0 2.5 1.34 2.5 3c0 0.36-0.06 0.7-0.16 1.01c0.05 0 0.1-0.01 0.16-0.01c1.47 0 2.68 0.88 2.94 2.04c1.17 0.17 2.06 0.98 2.06 1.96c0 1.02-0.96 1.86-2.2 1.98zm-27.8-8.98c-6.06-0.22-16.77 3.14-21.98 4.93c0.6 0.54 0.98 1.27 0.98 2.07c0 0.82-0.39 1.57-1.02 2.11c0.83 2.67 3.44 7.73 6.19 10.37c3.79 3.65 7.83 4.51 7.83 4.51l5-7h5c0 0 3.15 6.82 6 7c2.32 0.14 11.46-9.53 12.11-15.03c-1.19-0.15-2.11-0.97-2.11-1.97c0-0.48 0.22-0.92 0.58-1.27c-4.95-3.31-10.59-5.44-18.58-5.73zm-24 14l13 12l11 1l13-3l7-11c0 0 5.37-11.2 7.14 7.03c0.69 7.16 7 24.38 2.92 40.27c-3.51 13.67-26.65 26.44-30.05 26.71c-4.05 0.32-29.12-14.22-32.24-27.53c-2.53-10.81-1.66-21.48-1.46-24.45c0.44-6.64 3.7-22.02 3.7-22.02l6 1zm-22.01-2.76c0 0 14.31-7.85 18.39-12.48c4.07-4.62 4.25 4.73 4.25 4.73c0 0-15.56 7.66-22.63 7.75zm66.75-6.7c0 0-0.78-9.32 3.74-5.14c4.52 4.19 19.56 10.54 19.56 10.54c-7.05 0.63-23.31-5.4-23.31-5.4z" />
	<path id="bsh" class="s1" d="m126.95 30.62c0.35 0.13 0.69 0.26 1.05 0.38c-0.92 1.87-2.65 3.67-3.22 5.39c-1.06 3.2 1.44 6.16 1.32 8.95c-0.72 16.17 10.91 30.47-2.64 48.39c-2.18 2.88-9.05 7.49-12.46 9.27c-7.64 4-14.7 8.03-22-1c0.33-0.33 0.67-0.67 1-1c3.33-0.33 6.67 2.33 10 2c0.42-3.78 19.54-13.83 15.34-30.09c-3.04-11.78-14.35-24.04-12.34-25.91c2.06 3.31 3.85 4.65 8 3c5.28-2.76 7.9-9.19 11-14c-0.88-2.34-1.75-4.67-2.63-7.01c-1-0.04-1.84-0.54-2.19-1.25c-6.12-0.95-14.16-3.08-17.18-6.74c1.07 0.08 2.07 0.21 3.04 0.35c-0.02-0.11-0.04-0.23-0.04-0.35c0-1.1 0.9-2 2-2c0.92 0 1.68 0.62 1.92 1.46c0.43-0.29 0.98-0.46 1.58-0.46c1.19 0 2.19 0.67 2.44 1.56c0.43-0.35 0.97-0.56 1.56-0.56c1.31 0 2.37 1.01 2.48 2.29c0.3-0.18 0.65-0.29 1.02-0.29c1.1 0 2 0.9 2 2c0 0.16-0.02 0.3-0.06 0.45c0.43-0.28 0.97-0.45 1.56-0.45c1.38 0 2.5 0.9 2.5 2c0 0.07-0.01 0.15-0.02 0.22c0.3-0.14 0.65-0.22 1.02-0.22c0.45 0 0.86 0.11 1.19 0.3c0.38-0.19 0.83-0.3 1.31-0.3c1.38 0 2.5 0.9 2.5 2c0 0.67-0.42 1.26-1.05 1.62z" />
</svg>