<svg version="1.2" baseProfile="tiny-ps" xmlns="http://www.w3.org/2000/svg" viewBox="0 0 200 148" width="200" height="148">
	<title>sgl1.svg</title>
	<defs>
		<radialGradient id="rgrada" cx="77%" cy="0%" r="106.82429058070149%" >
    
            <stop offset="5%" style="stop-color:rgb(255,192,130);stop-opacity:0.66" />
            <stop offset="30%" style="stop-color:rgb(205,129,54);stop-opacity:0.66" />
            <stop offset="79%" style="stop-color:rgb(111,64,17);stop-opacity:0.66" />

    </radialGradient>

<radialGradient id="rgrad" cx="50%" cy="100%" r="80%" >
    
            <stop offset="15%" style="stop-color:#000000;stop-opacity:0.31" />
            <stop offset="41%" style="stop-color:#222222;stop-opacity:0.39" />
            <stop offset="91%" style="stop-color:#333333;stop-opacity:0.63" />

    </radialGradient>
	</defs>
	<style>
		tspan { white-space:pre }
		.s0 { opacity: 0;fill: #282d25 } 
		.s1 { opacity: 0;fill: url(#grd1) } 
		.s2 { opacity: 0;fill: #000000 } 
		.s3 { fill: url(#grd2) } 
		.s4 { fill: #000000 } 
#sticla2{fill:url(#rgrada);}
	</style>
	<path id="sticla2" class="s3" d="m154 69c-0.26 0.38-1.74 9.62-8 15c-4.36 3.75-10.23 4.74-14 5c-2.16 0.15-10.26-0.49-14-4c-5.77-5.42-9.43-12.52-10-14c-0.54-1.39 0.2-6.28 1-7c1.29-1.16 6.3-4.36 9-5c1.68-0.4 5.63-1.09 10.01-1.54c2.64-0.27 5.44-0.47 7.99-0.46c6.77 0.02 8 0 8 0c0 0 4.26-0.66 7 4c2.74 4.66 3.26 7.62 3 8zm-71 16c-3.74 3.51-11.84 4.15-14 4c-3.77-0.26-9.64-1.25-14-5c-6.26-5.38-7.74-14.62-8-15c-0.26-0.38 0.26-3.34 3-8c2.74-4.66 7-4 7-4c0 0 1.23 0.02 8 0c2.55-0.01 5.34 0.18 7.99 0.46c4.38 0.46 8.33 1.14 10.01 1.54c2.7 0.64 7.71 3.84 9 5c0.8 0.72 1.54 5.61 1 7c-0.57 1.48-4.23 8.58-10 14z" />
	<path id="rama2" class="s4" d="m157 69h-1.09c-0.21 0.58-0.76 1-1.41 1c-0.83 0-1.5-0.67-1.5-1.5v-1c0-0.19 0.04-0.36 0.1-0.53c-0.41-1.17-0.72-2.34-1.42-3.51c-0.89-1.49-3.21-4.28-3.68-4.46c-10.54-2.84-27.15-2.69-35 3c-1.91 1.49-3.69 3.38-3.88 5.57c-0.02 0.2 0.01 0.4 0.01 0.61c0.54-0.1 0.87-0.17 0.87-0.17l-0.86 0.52c0.1 1.42 0.6 2.93 1.09 4.52c0.64 0.01 1.23 0.42 1.42 1.07l0.57 1.92c0.23 0.79-0.22 1.63-1.01 1.86c-0.79 0.23-1.63-0.22-1.86-1.01l-0.57-1.92c-0.15-0.49-0.02-1 0.28-1.37c-0.97-1.37-1.6-2.65-1.94-3.83l-0.39 0.24c0 0-2.86 1-5.72 1c-2.87 0-5.73-1-5.73-1l-1.25-0.77c-0.29 1.33-0.96 2.78-2.08 4.36c0.3 0.37 0.42 0.88 0.28 1.37l-0.57 1.92c-0.23 0.79-1.07 1.25-1.86 1.01c-0.79-0.23-1.25-1.07-1.01-1.86l0.57-1.92c0.19-0.65 0.78-1.06 1.42-1.07c0.61-1.96 1.26-3.8 1.11-5.48c-0.19-2.18-1.97-4.08-3.88-5.57c-7.85-5.69-24.46-5.84-35-3c-0.47 0.19-2.79 2.98-3.68 4.46c-0.7 1.17-1.01 2.34-1.42 3.51c0.06 0.16 0.1 0.34 0.1 0.53v1c0 0.83-0.67 1.5-1.5 1.5c-0.65 0-1.2-0.42-1.41-1h-1.09c-0.55 0-1-0.45-1-1c0-0.55 0.45-1 1-1h1.09c0.21-0.58 0.76-1 1.41-1c0.06 0 0.12 0.01 0.18 0.02c1.83-5.13 3.23-7.12 6.9-9.15c0.97-0.54 2.97-0.89 3.42-0.87c7.41-0.56 20 0.08 28.45 3.16c2.77 0.28 9.1 0.84 15.45 0.84c5.56 0 11.12-0.42 14.32-0.72c8.45-3.18 21.26-3.84 28.77-3.28c0.45-0.02 2.46 0.33 3.42 0.87c3.66 2.03 5.06 4.02 6.9 9.15c0.06-0.01 0.12-0.02 0.18-0.02c0.65 0 1.2 0.42 1.41 1h1.09c0.55 0 1 0.45 1 1c0 0.55-0.45 1-1 1zm-55.99-7c-5.41 0-10.83-1-10.83-1l-1.79-0.58c3.76 1.91 6.11 4.51 5.77 7.98c1.72 0.28 4.24 0.6 6.79 0.6c2.13 0 4.26-0.22 5.92-0.46c-0.38-3.16 1.46-5.61 4.57-7.47c-1.28 0.22-5.83 0.93-10.43 0.93z" />
</svg>