<svg version="1.2" baseProfile="tiny-ps" xmlns="http://www.w3.org/2000/svg" viewBox="0 0 200 148" width="200">
	<title>sgl2a.svg</title>
	<defs>
		<linearGradient id="grd1" gradientUnits="userSpaceOnUse"  x1="69" y1="59" x2="69" y2="83.2">
			<stop offset=".6" stop-color="#5e5e5e" stop-opacity=".2" />
		</linearGradient>
		<linearGradient id="grd2" gradientUnits="userSpaceOnUse"  x1="132" y1="59" x2="132" y2="83.2">
			<stop offset=".6" stop-color="#5e5e5e" stop-opacity=".6" />
		</linearGradient>
		<linearGradient id="grd3" gradientUnits="userSpaceOnUse"  x1="70.1" y1="57" x2="70.1" y2="89">
			<stop offset=".6" stop-color="#5e5e5e" stop-opacity=".6" />
		</linearGradient>
		<linearGradient id="grd4" gradientUnits="userSpaceOnUse"  x1="130.9" y1="57" x2="130.9" y2="89">
			<stop offset=".6" stop-color="#5e5e5e" stop-opacity=".6" />
		</linearGradient>


<radialGradient id="rgrad" cx="50%" cy="100%" r="80%" >
    
            <stop offset="15%" style="stop-color:rgb(189,247,255);stop-opacity:0.21" />
            <stop offset="41%" style="stop-color:rgb(0,188,212);stop-opacity:0.39" />
            <stop offset="91%" style="stop-color:rgb(161,9,161);stop-opacity:0.63" />

    </radialGradient>
<radialGradient id="rgrada" cx="37%" cy="5%" r="100%" >
    
            <stop offset="15%" style="stop-color:#444;stop-opacity:1" />
            <stop offset="30%" style="stop-color:#222;stop-opacity:1" />
            <stop offset="79%" style="stop-color:#111;stop-opacity:1" />

    </radialGradient>

	</defs>
	<style>
		tspan { white-space:pre }
		.s0 { fill: #282d25 } 
		.s1 { fill: url(#grd1) } 
		.s2 { fill: url(#grd2) } 
		.s3 { fill: #000000 } 
		.s4 { opacity: 1;fill: url(#grd3) } 
		.s5 { opacity: 1;fill: url(#grd4) } 
		.s6 { opacity: 1;fill: #000000 } 

 #sticle1{fill:url(#rgrada);}
	</style>
	<path id="n1" class="s0" d="m112.85 78.91c-1.54 0.43-3.57-2-4.52-5.43c-0.95-3.43-0.47-6.55 1.07-6.98c1.54-0.43 3.57 2 4.52 5.43c0.95 3.43 0.47 6.55-1.07 6.98zm-24.7 0c-1.54-0.43-2.02-3.55-1.07-6.98c0.95-3.43 2.97-5.86 4.52-5.43c1.54 0.43 2.02 3.55 1.07 6.98c-0.95 3.43-2.97 5.86-4.52 5.43z" />
	<path id="sticle1" class="s1" d="m155 64c-0.29 3.32-0.55 6.9-1 9c-0.45 2.1-0.35 4-2 5c-1.65 1-4.53 3.47-8 4c-3.47 0.53-24.73 1.75-26 1c-1.27-0.75-5.21-2.01-6-4c-0.79-1.99-3.23-11.46-3-13c0.23-1.54 3.82-5.14 7-6c3.18-0.86 35-1 35-1c0 0 4.29 1.68 4 5zm-72 19c-1.27 0.75-22.53-0.47-26-1c-3.47-0.53-6.35-3-8-4c-1.65-1-1.55-2.9-2-5c-0.45-2.1-0.71-5.68-1-9c-0.29-3.32 4-5 4-5c0 0 31.82 0.14 35 1c3.18 0.86 6.77 4.46 7 6c0.23 1.54-2.21 11.01-3 13c-0.79 1.99-4.73 3.25-6 4z" />
	<path id="rama" class="s2" d="m161 65c-0.09 0.57-3.63 1.72-5.26 1.98c-0.35 3.43-1 8.62-1.74 10.02c-1.06 2-7.52 5.81-8.96 5.94c-1.2 0.11-18.76 1.92-24.04 1.06c-5.28-0.86-9.47-3.23-10-5c-0.97-3.27-3.01-12.12-3-13v0h-15v0c0.01 0.88-2.03 9.73-3 13c-0.53 1.77-4.72 4.14-10 5c-5.28 0.86-22.84-0.95-24.04-1.06c-1.44-0.13-7.9-3.94-8.96-5.94c-0.74-1.4-1.4-6.59-1.74-10.02c-1.63-0.26-5.16-1.41-5.26-1.98c-0.11-0.69 0.27-2.9 1-3c0.65-0.09 2.65 0.62 3.8 0.96c0.09 0.03 0.14 0.04 0.21 0.06l0.12 0.49c0.02-0.03 0.03-0.06 0.05-0.09c-0.09-0.19-0.15-0.35-0.17-0.4c0 0 0 0 0 0l-0.01-0.03c0 0 2.04-5.05 6-5c3.96 0.05 27.93-0.56 32 0c4.02 0.55 9.69 4.87 10 6h15c0.31-1.13 5.98-5.45 10-6c4.07-0.56 28.04 0.05 32 0c3.96-0.05 6 5 6 5l-0.01 0.03c0 0 0 0 0 0c-0.02 0.06-0.08 0.21-0.17 0.4c0.02 0.03 0.03 0.06 0.05 0.09l0.12-0.49c0.06-0.02 0.12-0.03 0.21-0.06c1.15-0.34 3.15-1.05 3.8-0.96c0.73 0.1 1.11 2.31 1 3zm-85-5c-12.39-0.4-24 0-24 0c0 0-4.21-0.39-5 3c0 0 0.2 6.64 1 11c0.8 4.36 6.23 6.12 9 7c2.77 0.88 18.44 1 23 1c4.56 0 7.26-2.35 8-3c0.74-0.65 3-14 3-14c0 0-2.61-4.6-15-5zm73 0c0 0-11.61-0.4-24 0c-12.39 0.4-15 5-15 5c0 0 2.26 13.35 3 14c0.74 0.65 3.44 3 8 3c4.56 0 20.23-0.12 23-1c2.77-0.88 8.2-2.64 9-7c0.8-4.36 1-11 1-11c-0.79-3.39-5-3-5-3z" />
</svg>