<svg version="1.2" baseProfile="tiny-ps" xmlns="http://www.w3.org/2000/svg" viewBox="0 0 200 175" width="200" height="175">
	<title>smask2.svg</title>
	<style>
		tspan { white-space:pre }
		.s0 { opacity: 1;fill: #e4e4e4 } 
		.s1 { opacity: 1;fill: #c90e0e } 
		.s2 { opacity: .2;fill: #000000 } 
		.s3 { opacity: .2;fill: #ffffff } 
		.s4 { opacity: .3;fill: #000000 } 
		.s5 { fill: #000000 } 
		.s6 { fill: #b1bda8 } 
		.s7 { opacity: .7;fill: #3e4538 } 
		.s8 { opacity: .3;fill: #3e4538 } 
		.s9 { opacity: .1;fill: #000000 } 
		.s10 { opacity: .3;fill: #ffffff } 
.noshow{opacity: 0;}
	</style>
	<path id="mot" class="s0" d="m178.5 33c6.35 0 11.5 5.15 11.5 11.5c0 6.35-5.15 11.5-11.5 11.5c-6.35 0-11.5-5.15-11.5-11.5c0-6.35 5.15-11.5 11.5-11.5z" />
	<path id="hat" class="s1" d="m32.09 74c0 0 4.89-19.11 10.91-21c4.65-1.46 4.18-2.64 0-3c-4.18-0.36 22.12-24.43 27-27c4.88-2.57 40.08-23.39 72-18c31.92 5.39 37.02 29.66 36 33c-2.32 7.6-12.46-8.77-17-6c-4.54 2.77-10.76 2.9-7 6c5.56 4.59 1 8 1 8c0 0 13.3 27.8 13 31c-0.3 3.2-52.18 17.57-76 16c-23.82-1.57-54.09-9.67-57-11c-2.91-1.33-2.91-8-2.91-8z" />
	<path id="hatshadow" fill-rule="evenodd" class="s2" d="m149 32c3.02-0.25 15.23-9.43 16-6c-2.59 1.62 12.55 13.22 11 13c-2.32-0.33-7.2-4.76-11-7c-2.21-1.3-4.47-0.13-6.43 0.57c-2.94 1.05-5.2 2.28-5.57 2.43c0.16 0.95-0.68 1.85-0.49 2.72c0.31 1.46 2.85 1.08 3.49 4.28c0.44 2.18-1.74 2.17-1.34 3.28c2.51 6.93 6.08 12.93 10.34 24.72c-14.89 23.4-77.99 9.42-95-2c21.56 2.74 85.99 9.28 81-18c-6.67 0-14.33 5-21 5c6.33-0.73 14.27-7.51 18-11c-10.42 2.74-31.97 9.34-45 4c8.05-1.75 16.1-0.5 24.15-2.25c7.28-1.58 14.56-6.17 21.85-7.75c0-0.33 0-0.67 0-1c-2.58 0.29-5.17-1.43-7.75-1.14c-3.42 0.38-6.83 2.76-10.25 3.14c0-0.33 0-0.67 0-1c4.52-3.83 12-3.36 18-6zm-106 17c9.47-4.11 22.33 10.33 31 11c-10.67 1.67-22.33-6.67-33-5c10.65-4.56 4.83-5.29 2-6z" />
	<path id="hatlights" fill-rule="evenodd" class="s3" d="m169 20c-0.33 0.67-0.67 1.33-1 2c-9.04-0.16-17.72-2.71-25.86-1.77c-9.13 1.04-17.59 5.69-25.14 7.77c-0.67 1.33-1.33 2.67-2 4c0.33 0.67 0.67 1.33 1 2c2.67 1 5.33 2 8 3c0 1 0 2 0 3c-0.33 0.33-0.67 0.67-1 1c-8.67 1-17.33 2-26 3c-0.67 1.33-1.33 2.67-2 4c1.47 2.05 1.78 2.58 4 4c10.33 1.67 20.67 3.33 31 5c0.33 0.67 0.67 1.33 1 2c-1.63 2.56-1.23 2.42-4 4c-8.79 5.17-32.24 5.5-41 1c0.18-1.6 8.49-2.68 9.94-4.74c7.03-10.01-10.77-8.08-11.94-11.26c-10.48-2.32-24.1-0.35-30-7c12.89-19.04 30.01-24.47 48.46-29.55c-19.8 5.44 47.05-17.5 66.54 8.55z" />
	<path id="banda" class="s0" d="m100 77c36.97-0.37 64.37-9.68 66.25-10c3.03-0.52 10.31 18.11 4 25c-2.41 2.63-36.65 7.01-71.2 6.08c-34.51-0.93-69.93-5.99-71.05-8.08c-5.89-11.04 5-26 5-26c19.04 8.66 44.44 13.23 67 13z" />
	<path id="bandashadow" fill-rule="evenodd" class="s2" d="m163 69c1.67 0.33 3.33 0.67 5 1c2.72 7.19 4.68 12.84 2 21c-22.88 7.14-79.38 10.7-100-1c6 0.67 12 1.33 18 2c-1-1-2-2-3-3c13.67-1.33 27.33-2.67 41-4c-4.67-0.67-9.33-1.33-14-2c5-1 10-2 15-3c-3.67-0.67-7.33-1.33-11-2c15.29 0.2 36.53-2.62 47-9z" />
	<path id="motshadow" fill-rule="evenodd" class="s2" d="m178 37c1.33 0.33 2.67 0.67 4 1c-2 2.33-4 4.67-6 7c3.21 5.26 5.17 3.88 10 5c-1.67 1.67-3.33 3.33-5 5c-6.33 0.09-8.47-0.4-11-4c-2.29-3.36-2.02-7.46-1-12c4.19-0.39 5.78 2.32 9-2z" />
	<path id="maskshadow" fill-rule="evenodd" class="s4 noshow" d="m100.5 44c33.97 0 61.5 29.1 61.5 65c0 35.9-27.53 65-61.5 65c-33.97 0-61.5-29.1-61.5-65c0-35.9 27.53-65 61.5-65zm24.37 72c6.01 0.23 23.13-13.11 23.13-13.11c0 0-17.68-9.95-27.76-5.96c-10.08 3.99-12.72 8.34-12.72 8.34c0 0 11.33 10.5 17.35 10.73zm-32.39-10.73c0 0-2.65-4.35-12.72-8.34c-10.08-3.99-27.76 5.96-27.76 5.96c0 0 17.12 13.34 23.13 13.11c6.01-0.23 17.35-10.73 17.35-10.73z" />
	<path id="meyesdarks" class="s5 noshow" d="m53 101c19.65 10.02 21.98 6.28 42 5c-1.24 14.21-2.2 21.89-11.98 27.05c-14.06 10.85-29.95-10.94-37.02-20.74c0-3.77 7-7.54 7-11.31zm94 1c-20.04 10.21-18.4 4.28-39 4c-2.24 13.05-8 19.9 7 27c14.06 10.85 33.93-10.89 41-20.69c0-3.77-9-6.54-9-10.31z" />
	<path id="mask" fill-rule="evenodd" class="s6 noshow" d="m100.5 42c33.97 0 61.5 29.1 61.5 65c0 35.9-27.53 65-61.5 65c-33.97 0-61.5-29.1-61.5-65c0-35.9 27.53-65 61.5-65zm24.37 72c6.01 0.23 23.13-13.11 23.13-13.11c0 0-17.68-9.95-27.76-5.96c-10.08 3.99-12.72 8.34-12.72 8.34c0 0 11.33 10.5 17.35 10.73zm-32.39-10.73c0 0-2.65-4.35-12.72-8.34c-10.08-3.99-27.76 5.96-27.76 5.96c0 0 17.12 13.34 23.13 13.11c6.01-0.23 17.35-10.73 17.35-10.73z" />
	<path id="mdots" class="s7 noshow" d="m105 163c-1.1 0-2-0.9-2-2v-1c0-1.1 0.9-2 2-2c1.1 0 2 0.9 2 2v1c0 1.1-0.9 2-2 2zm0-12c-1.1 0-2-0.9-2-2v-1c0-1.1 0.9-2 2-2c1.1 0 2 0.9 2 2v1c0 1.1-0.9 2-2 2zm0-9c-1.1 0-2-0.9-2-2v-1c0-1.1 0.9-2 2-2c1.1 0 2 0.9 2 2v1c0 1.1-0.9 2-2 2zm-8 21c-1.1 0-2-0.9-2-2v-1c0-1.1 0.9-2 2-2c1.1 0 2 0.9 2 2v1c0 1.1-0.9 2-2 2zm0-12c-1.1 0-2-0.9-2-2v-1c0-1.1 0.9-2 2-2c1.1 0 2 0.9 2 2v1c0 1.1-0.9 2-2 2zm0-9c-1.1 0-2-0.9-2-2v-1c0-1.1 0.9-2 2-2c1.1 0 2 0.9 2 2v1c0 1.1-0.9 2-2 2z" />
	<path id="mdark" fill-rule="evenodd" class="s8 noshow" d="m112 164c0.08-8.35 0.8-19.72 4-25c13.11-4.2 20.39-16.04 33-19c0 0.33 0 0.67 0 1c-5.25 2.24-7.36 5.05-8 12c3.33-1.33 6.67-2.67 10-4c-4.39 15.23-20.59 34.18-39 35zm-61-35c3.33 1.33 6.67 2.67 10 4c-0.64-6.95-2.75-9.76-8-12c0-0.33 0-0.67 0-1c12.61 2.96 19.89 14.8 33 19c3.2 5.28 3.92 16.65 4 25c-18.41-0.82-34.61-19.77-39-35z" />
	<path id="mnoseshadow" fill-rule="evenodd" class="s9 noshow" d="m62 85c3.46 1.09 27.47 5.76 29.92 7.98c4.42 4.02 3.86-3.71 5.08-0.98c1.78 5.59 0.5 23.92 0 31c-6.22 1.28-7.95 3.9-12 7c1.49-6.18 5.18-8.33 9-12c0-1.33 0-2.67 0-4c-0.33 0-0.67 0-1 0c-6.58 3.82-17.97 7.75-26 2c8.01 1.15 14.12-1.47 18.98-4.77c3.14-2.14 5.75-3.98 8.02-7.23c-5.6-14.64-29.31-11.93-32-19z" />
	<path id="mlights" fill-rule="evenodd" class="s10 noshow" d="m100 46c3.33 0.33 6.67 0.67 10 1c-4.03 0.4-3.91 0.33-6 2c10.6 0.56 18.02 4.24 26 7c0 0.33 0 0.67 0 1c-11.19-1.13-20.56 1.25-31 3c0 0.33 0 0.67 0 1c18.24-0.68 35.2-0.8 43 9c-5 0.33-10 0.67-15 1c0 0.33 0 0.67 0 1c14.02-0.74 22.32 3.41 23 16c-29.54-10.11-42.47 11.55-59-5c-17.11 0.11-27.43 9.02-40 6c3.67-24.54 28.05-34.43 49-43zm-4 15c0.67 0.33 1.33 0.67 2 1c-0.67-0.33-1.33-0.67-2-1z" />
</svg>