<svg version="1.2" baseProfile="tiny-ps" xmlns="http://www.w3.org/2000/svg" viewBox="0 0 200 175" width="200" height="175">
	<title>smask1.svg</title>
	<style>
		tspan { white-space:pre }
		.s0 { opacity: 0;fill: #e4e4e4 } 
		.s1 { opacity: 0;fill: #c90e0e } 
		.s2 { opacity: 0;fill: #000000 } 
		.s3 { opacity: 0;fill: #ffffff } 
		.s4 { opacity: .8;fill: #000000 } 
		.s5 { fill: #000000 } 
		.s6 { fill: #b1bda8 } 
		.s7 { opacity: .7;fill: #3e4538 } 
		.s8 { opacity: .2;fill: #3e4538 } 
		.s9 { opacity: .1;fill: #000000 } 
		.s10 { opacity: .3;fill: #ffffff } 
#meyesdarks{transform:translateY(-14px);transform-origin:center top;}
	</style>
	<path id="maskshadow" fill-rule="evenodd" class="s4" d="m100.5 44c33.97 0 61.5 29.1 61.5 65c0 35.9-27.53 65-61.5 65c-33.97 0-61.5-29.1-61.5-65c0-35.9 27.53-65 61.5-65zm24.37 72c6.01 0.23 23.13-13.11 23.13-13.11c0 0-17.68-9.95-27.76-5.96c-10.08 3.99-12.72 8.34-12.72 8.34c0 0 11.33 10.5 17.35 10.73zm-32.39-10.73c0 0-2.65-4.35-12.72-8.34c-10.08-3.99-27.76 5.96-27.76 5.96c0 0 17.12 13.34 23.13 13.11c6.01-0.23 17.35-10.73 17.35-10.73z" />
	<path id="meyesdarks" class="s5" d="m53 101c19.65 10.02 21.98 6.28 42 5c-1.24 14.21-2.2 21.89-11.98 27.05c-14.06 10.85-29.95-10.94-37.02-20.74c0-3.77 7-7.54 7-11.31zm94 1c-20.04 10.21-18.4 4.28-39 4c-2.24 13.05-8 19.9 7 27c14.06 10.85 33.93-10.89 41-20.69c0-3.77-9-6.54-9-10.31z" />
	<path id="mask" fill-rule="evenodd" class="s6" d="m100.5 42c33.97 0 61.5 29.1 61.5 65c0 35.9-27.53 65-61.5 65c-33.97 0-61.5-29.1-61.5-65c0-35.9 27.53-65 61.5-65zm24.37 72c6.01 0.23 23.13-13.11 23.13-13.11c0 0-17.68-9.95-27.76-5.96c-10.08 3.99-12.72 8.34-12.72 8.34c0 0 11.33 10.5 17.35 10.73zm-32.39-10.73c0 0-2.65-4.35-12.72-8.34c-10.08-3.99-27.76 5.96-27.76 5.96c0 0 17.12 13.34 23.13 13.11c6.01-0.23 17.35-10.73 17.35-10.73z" />
	<path id="mdots" class="s7" d="m105 163c-1.1 0-2-0.9-2-2v-1c0-1.1 0.9-2 2-2c1.1 0 2 0.9 2 2v1c0 1.1-0.9 2-2 2zm0-12c-1.1 0-2-0.9-2-2v-1c0-1.1 0.9-2 2-2c1.1 0 2 0.9 2 2v1c0 1.1-0.9 2-2 2zm0-9c-1.1 0-2-0.9-2-2v-1c0-1.1 0.9-2 2-2c1.1 0 2 0.9 2 2v1c0 1.1-0.9 2-2 2zm-8 21c-1.1 0-2-0.9-2-2v-1c0-1.1 0.9-2 2-2c1.1 0 2 0.9 2 2v1c0 1.1-0.9 2-2 2zm0-12c-1.1 0-2-0.9-2-2v-1c0-1.1 0.9-2 2-2c1.1 0 2 0.9 2 2v1c0 1.1-0.9 2-2 2zm0-9c-1.1 0-2-0.9-2-2v-1c0-1.1 0.9-2 2-2c1.1 0 2 0.9 2 2v1c0 1.1-0.9 2-2 2z" />
	<path id="mdark" fill-rule="evenodd" class="s8" d="m112 164c0.08-8.35 0.8-19.72 4-25c13.11-4.2 20.39-16.04 33-19c0 0.33 0 0.67 0 1c-5.25 2.24-7.36 5.05-8 12c3.33-1.33 6.67-2.67 10-4c-4.39 15.23-20.59 34.18-39 35zm-61-35c3.33 1.33 6.67 2.67 10 4c-0.64-6.95-2.75-9.76-8-12c0-0.33 0-0.67 0-1c12.61 2.96 19.89 14.8 33 19c3.2 5.28 3.92 16.65 4 25c-18.41-0.82-34.61-19.77-39-35z" />
	<path id="mnoseshadow" fill-rule="evenodd" class="s9" d="m62 85c3.46 1.09 27.47 5.76 29.92 7.98c4.42 4.02 3.86-3.71 5.08-0.98c1.78 5.59 0.5 23.92 0 31c-6.22 1.28-7.95 3.9-12 7c1.49-6.18 5.18-8.33 9-12c0-1.33 0-2.67 0-4c-0.33 0-0.67 0-1 0c-6.58 3.82-17.97 7.75-26 2c8.01 1.15 14.12-1.47 18.98-4.77c3.14-2.14 5.75-3.98 8.02-7.23c-5.6-14.64-29.31-11.93-32-19z" />
	<path id="mlights" fill-rule="evenodd" class="s10" d="m100 46c3.33 0.33 6.67 0.67 10 1c-4.03 0.4-3.91 0.33-6 2c10.6 0.56 18.02 4.24 26 7c0 0.33 0 0.67 0 1c-11.19-1.13-20.56 1.25-31 3c0 0.33 0 0.67 0 1c18.24-0.68 35.2-0.8 43 9c-5 0.33-10 0.67-15 1c0 0.33 0 0.67 0 1c14.02-0.74 22.32 3.41 23 16c-29.54-10.11-42.47 11.55-59-5c-17.11 0.11-27.43 9.02-40 6c3.67-24.54 28.05-34.43 49-43zm-4 15c0.67 0.33 1.33 0.67 2 1c-0.67-0.33-1.33-0.67-2-1z" />
</svg>