<svg version="1.2" baseProfile="tiny-ps" xmlns="http://www.w3.org/2000/svg" viewBox="0 0 200 175" width="200" height="175" style="transform:translateY(7px);">
	<title>tk6.svg</title>
<defs>
		<radialGradient id="grd1" gradientUnits="userSpaceOnUse"  cx="100" cy="71" r="32.794">
		<stop offset="0.085" stop-color="#3b3a3a"  />
			<stop offset="0.448" stop-color="#111111"  />
			<stop offset="1" stop-color="#000000"  />
		</radialGradient>

		<radialGradient id="grd2" gradientUnits="userSpaceOnUse"  cx="100" cy="72" r="36.729">
			<stop offset="0.009" stop-color="#1a1e1f" stop-opacity="0" />
                        <stop offset="0.109" stop-color="#1a1e1f" stop-opacity="0.1" />
			<stop offset="30%" stop-color="#353a47" stop-opacity="0.7" />
                        <stop offset="70%" stop-color="#353a47" stop-opacity="0.4" />
		</radialGradient>
		<linearGradient id="grd3" gradientUnits="userSpaceOnUse"  x1="103.326" y1="127" x2="95.674" y2="91">
			<stop offset="0" stop-color="#5881c6" stop-opacity="0.6" />
			<stop offset="1" stop-color="#000000" stop-opacity="0.4" />
		</linearGradient>

<radialGradient id="grd4" cx="50%" cy="10%" r="80%" >
    
            <stop offset="0%" style="stop-color:rgb(0,0,0);stop-opacity:0.10" />
            <stop offset="16%" style="stop-color:rgb(208,151,255);stop-opacity:0.32" />
            <stop offset="56%" style="stop-color:rgb(255,0,222);stop-opacity:0.35" />
            <stop offset="96%" style="stop-color:rgb(18,0,0);stop-opacity:0.21" />

    </radialGradient>

<radialGradient id="grd5" cx="20%" cy="30%" r="100%" >
    
            <stop offset="0%" style="stop-color:rgb(199,255,201);stop-opacity:0.32" />
            <stop offset="24%" style="stop-color:rgb(104,255,110);stop-opacity:0.72" />
            <stop offset="46%" style="stop-color:rgb(76,175,80);stop-opacity:0.81" />
            <stop offset="73%" style="stop-color:rgb(35,65,36);stop-opacity:0.77" />

    </radialGradient>

<radialGradient id="grd6" cx="20%" cy="10%" r="80%" >
    
            <stop offset="0%" style="stop-color:rgb(255,234,49);stop-opacity:0.48" />
            <stop offset="24%" style="stop-color:rgb(235,217,72);stop-opacity:0.40" />
            <stop offset="47%" style="stop-color:rgb(145,130,51);stop-opacity:0.11" />
            <stop offset="73%" style="stop-color:rgb(95,88,52);stop-opacity:0.30" />

    </radialGradient>


	</defs>
	<style>
		tspan { white-space:pre }
		.shp0 { fill: #000000 } 
		.shp1 { fill: #1f1e1e } 
		.shp2 { fill: #131212 } 
		.shp3 { opacity: 0.302;fill: #000000 } 
		.shp4 { fill: #111111 } 
		.shp5 { fill: #56524b } 
		.shp6 { opacity: 0.51;fill: #56524b } 
		.shp7 { opacity: 0.522;fill: #98f660 } 
		.shp8 { fill: #5f5a5a }
#z1negru ,#br1,#br2,#brdaek{opacity:0;}
#vizor, #frame{transform:translateY(20px);}
#vizor, #frame{opacity: 0;fill: url(#grd4);}
.shp5 { opacity: 1;fill: #777 } 
.shp6 { opacity: 1;fill: #777}
	</style>
	<path id="z1negru" class="shp0" d="M98.38 169.14C108.99 169.14 120 165.09 120 165.09C120 165.09 117.24 174.03 99 174C80.76 173.97 79 165.09 79 165.09C79 165.09 88.52 169.14 98.38 169.14Z" />
	<path id="br1" class="shp1" d="M95.25 153L103.75 153C106.1 153 108 154.42 108 156.18L112 172.42C112 173.29 110.84 174 109.4 174L88.6 174C87.16 174 86 173.29 86 172.42L91 156.18C91 154.42 92.9 153 95.25 153Z" />
	<path id="br2" class="shp2" d="M98.4 162L100.29 162C101.91 162 103.23 162.29 103.23 163.88L106 173.57C106 174.36 105.19 175 104.2 175L93.8 175C92.81 175 92 174.36 92 173.57L95.46 163.88C95.46 162.29 96.78 162 98.4 162Z" />
	<path id="brdaek" class="shp2" d="M96.11 142.79L102.66 142.79C104.46 142.79 105.93 146.52 105.93 148.64L109.01 168.3C106.62 169.42 104.51 147.99 103.9 147.99L95.1 147.99C94.49 147.99 91.6 169.13 88.99 168.3L92.84 148.64C92.84 146.52 94.31 142.79 96.11 142.79Z" />
	<path id="mainshadows" class="shp3" d="M152 78C151.21 78.24 153.51 74.5 153.37 69.69C153.27 66.32 152.07 62.41 150 59C150 59 158.59 69.95 159 73C159.41 76.05 153.41 77.57 152 78ZM112.93 43C107.78 44.73 104.72 48.62 104.67 47.69C104.58 46.03 103.85 39.09 107.24 38.33C110.62 37.57 125.56 42.41 125.56 42.41C121.14 41.54 116.54 41.8 112.93 43ZM84.07 44C80.46 42.8 75.86 42.54 71.44 43.41C71.44 43.41 86.38 38.57 89.76 39.33C93.15 40.09 92.42 47.03 92.33 48.69C92.28 49.62 89.22 45.73 84.07 44ZM48 78C46.59 77.57 40.59 76.05 41 73C41.41 69.95 50 59 50 59C47.93 62.41 46.73 66.32 46.63 69.69C46.49 74.5 48.79 78.24 48 78Z" />
	<path id="sleft" class="shp1" d="M50 59C50 59 40.05 71.72 42 74C43.95 76.28 49.4 76.58 49 81C48.6 85.42 42.14 98.84 39 97C35.86 95.16 32.09 107 32.09 107C32.09 107 20.32 82.22 23 77C25.68 71.78 32.25 56.95 39 58C45.75 59.05 50 59 50 59Z" />
	<path id="sright" class="shp1" d="M161 58C167.75 56.95 174.32 71.78 177 77C179.68 82.22 167.91 107 167.91 107C167.91 107 164.14 95.16 161 97C157.86 98.84 151.4 85.42 151 81C150.6 76.58 156.05 76.28 158 74C159.95 71.72 150 59 150 59C150 59 154.25 59.05 161 58Z" />
	<path id="stop" class="shp1" d="M74.82 32.71C75.88 25.96 92.01 24.21 97.79 23.24C103.57 22.28 125 42 125 42C125 42 109.55 36.89 111.98 44.57C113.08 48.04 98.03 50.19 93.7 49.23C89.36 48.27 90.73 42.99 89.15 40.43C87.58 37.88 72.43 43.49 72.43 43.49C72.43 43.49 73.77 39.46 74.82 32.71Z" />
	<path id="darkleft" class="shp4" d="M42 70C40.87 74.2 42.47 75.98 37 70C33.71 66.41 37.88 60.61 39 60C41.73 58.52 49 60 49 60C47.9 60.94 43.21 65.53 42 70Z" />
	<path id="darkright" class="shp4" d="M150.56 60.47C150.56 60.47 157.71 58.49 160.54 59.78C161.7 60.31 166.25 65.81 163.22 69.62C158.18 75.96 159.66 74.08 158.24 69.97C156.72 65.59 151.73 61.34 150.56 60.47Z" />
	<path id="darktop" class="shp4" d="M74.69 42.34C74.69 42.34 75.87 35.81 78 34C79.77 32.5 86.17 29.4 87.87 33.96C90.7 41.56 88.29 38.99 84 39C80.45 39.01 75.92 41.57 74.69 42.34Z" />
	<path id="nimps" class="shp0" d="M47.38 80.23C48.27 80.49 48.75 81.56 48.45 82.62L47.89 84.54C47.59 85.61 46.61 86.26 45.72 86C44.82 85.74 44.34 84.67 44.65 83.61L45.2 81.69C45.5 80.63 46.48 79.97 47.38 80.23ZM154.8 81.69L155.35 83.61C155.66 84.67 155.18 85.74 154.28 86C153.39 86.26 152.41 85.61 152.11 84.54L151.55 82.62C151.25 81.56 151.73 80.49 152.62 80.23C153.52 79.97 154.5 80.63 154.8 81.69Z" />
	<path id="lightsleft" class="shp5" d="M45 59C45 59 40.27 59.51 37 61C34.17 62.29 34.84 66.15 36 69C37.25 72.08 46.5 77.05 48 78C48.39 78.24 49.13 79.66 49 80C48.73 80.68 46.79 79.93 46 80C45.67 80.03 45 81 45 81C45 81 35.17 74.14 33 68C32.08 65.41 31.94 62.6 33 61C34.35 58.95 38 58 38 58L45 59ZM28 85C28 85 33.19 95.82 36 96C39.37 96.22 40.51 94.39 41.85 92.24C43.62 89.4 44 86 44 86L48 85C48 85 42.91 95.96 41 97C39.09 98.04 33.36 99.91 28 85Z" />
	<path id="lightsright" class="shp6" d="M161 58C161 58 164.65 58.95 166 61C167.06 62.6 166.92 65.41 166 68C163.83 74.14 154 81 154 81C154 81 153.33 80.03 153 80C152.21 79.93 150.27 80.68 150 80C149.87 79.66 150.61 78.24 151 78C152.5 77.05 161.75 72.08 163 69C164.16 66.15 164.83 62.29 162 61C158.73 59.51 154 59 154 59L161 58ZM158 97C156.09 95.96 151 85 151 85L155 86C155 86 155.38 89.4 157.15 92.24C158.49 94.39 159.63 96.22 163 96C165.81 95.82 171 85 171 85C165.64 99.91 159.91 98.04 158 97Z" />
	<path id="centerlightstop" class="shp5" d="M80 29C80.77 27.08 85.2 26.33 87.7 25.84C89.47 25.49 92.33 24.33 94 25C94 25 100.39 25.67 103.23 30.31C105.63 34.24 108.21 38.08 108.21 38.08C109.37 39.97 110.95 42.63 108.71 44.51C107.66 45.39 104.55 46.8 101.88 47.06C100.21 47.23 98.72 46.35 98.02 46.52C94.26 47.41 92.49 44.09 91.59 40.33L89.92 33.8C89.17 31.9 87.99 30.02 86 29C84.3 28.13 79.33 30.65 80 29Z" />
	<path id="topblack" class="shp0" d="M100 25C100 25 102.67 25.77 106.06 28.05C111.71 31.86 119.38 38.12 120 39C120.99 40.41 112.4 37.84 112 39C111.76 39.71 109.3 35.19 106.05 31.04C103.99 28.41 101.02 25.92 100 25Z" />
	<path id="blacksideslow" class="shp0" d="M25 80C25 80 30.47 94.51 33 96C35.53 97.49 32.09 105 32.09 105C32.09 105 23.64 85.78 24 83C24.36 80.22 25 80 25 80ZM176 82C176.36 84.78 167.91 104 167.91 104C167.91 104 163.47 97.49 166 96C168.53 94.51 175 79 175 79C175 79 175.64 79.22 176 82Z" />
	<path id="vizor" class="shp7" d="M54 72C54 72 76.64 74 99.45 74C122.63 74 146 72 146 72C149.87 72 153 75.13 153 79L153 84C153 98.91 140.91 111 126 111C126 111 112.96 101 99.94 101C86.96 101 74 111 74 111C59.09 111 47 98.91 47 84L47 79C47 75.13 50.13 72 54 72Z" />
	<path id="frame" class="shp8" d="M60 73L53 72C53 72 48.04 74.01 48 77C47.98 78.41 46.8 81.51 47.13 85.18C47.49 89.27 49.48 94.06 52 98C56.79 105.47 45 92.28 45 92.28C45 92.28 42.95 78.47 45 75C47.05 71.53 50 69 50 69L56 69L57 70L78 72L81 75L78 76L74 74L60 73ZM125 74L121 76L118 75L121 72L142 70L143 69L149 69C149 69 151.95 71.53 154 75C156.05 78.47 154 92.28 154 92.28C154 92.28 142.21 105.47 147 98C149.52 94.06 151.51 89.27 151.87 85.18C152.2 81.51 151.02 78.41 151 77C150.96 74.01 146 72 146 72L139 73L125 74Z" />
</svg>