<svg version="1.2" baseProfile="tiny-ps" xmlns="http://www.w3.org/2000/svg" viewBox="0 0 350 450" width="350" height="450">
	<title>toga</title>
	<style>
		tspan { white-space:pre }
		.s0 { opacity: .1;fill: #000000 } 
		.s1 { fill: #e3e3e3 } 
		.s2 { opacity: .2;fill: #000000 } 
		.s3 { fill: #a76f2c } 
	</style>
	<path id="shd1" fill-rule="evenodd" class="s0" d="m224 168c1.67 0.33 1.33 0.67 3 1c-1.39 22.75 6.3 28.2 9 46c-2.74 3.21-4.8 3.25-8 6c-6.9-1.88-11.03-7.87-23-4c-17.99 5.81-69.25 28.11-87 6c0.33-1.33 0.67-2.67 1-4c3.79 0.31 7.45 4.42 10.97 5.78c5.94 2.29 11.47 2.26 16.57 3.17c12.66 2.25 22.63-1.11 29.43-4.27c6.97-3.24 14.29-10.04 18.22-18.65c4.37-9.58 5.26-21.4 11.82-33.03c6.05 0.39 13.19-0.13 18-4zm-91 236c-6.7-0.2-13.39 2.61-20.09 2.41c-4.64-0.14-9.28-3.27-13.91-3.41c1.62-2.49 2.03-3.37 0-1c1.67-4.67 3.33-9.33 5-14c11.31-0.29 20.76 2 28 6c0.33 3.33 0.67 6.67 1 10zm98-13c7 0.67 14 1.33 21 2c3.06 2.71 3.69 4.27 4 10c-0.67 0-1.33 0-2 0c-7.12 3.1-20.61 0.51-27-1c-0.56-6.83 0.55-6.45 4-11z" />
	<path id="tpga" class="s1" d="m205 171c0.49 0.53 4.34-1.01 5-2c0.66-0.99 3.41-1.47 5-1c1.59 0.47 3.21 0.18 5.82-1.57c2.54-1.69 8.19-1.13 6.18 1.57c-0.96 1.29-2.48 13.45 0.25 25.84c2.7 12.26 9.65 24.75 9.75 27.16c0.2 4.86-9.87 50.09-7 55c2.87 4.91 16.13 50.44 13 56c-1.92 3.41 6.24 18.85 6 21c-0.24 2.15 10.77 42.37 10 45c-0.77 2.63-58.8-0.95-78 4c-19.2 4.95-81.76-9.02-82-12c-0.24-2.98 4.07-42.5 5-46c0.5-1.9 2.31-14.1 6.59-31.06c2.52-10 11.45-24.65 12.68-36.82c0.54-5.31-2.68-7.57-4.27-13.12c-2.31-8.04-2-42-2-42c0 0 21.5 10.02 51 10c29.5-0.02 37-58 37-58c0 0-0.49-2.53 0-2z" />
	<path id="shd2" fill-rule="evenodd" class="s2" d="m223 166c4.2 6.23-0.73 25.26 2 35c3 5.33 6 10.67 9 16c0 2.33 0 4.67 0 7c-0.67 1.33-1.33 2.67-2 4c-1-0.67-2-1.33-3-2c-1.91-5.98-4.56-13.06-12-14c-4.33 12.67-8.67 25.33-13 38c-17.41 23.29-67.63 26.58-76-7c36.03 26.81 73.29 10.1 85-29c3.86-12.89 0.16-34.77 6-46c1.33-0.67 2.67-1.33 4-2zm-12 3c2 0.67 4-0.67 6 0c-1.33 1.33-2.67 2.67-4 4c-9.53 37.07-3.49 69.36-48 71c-12.99 0.48-21.37-1.28-27-8c0-0.33 0-0.67 0-1c40.31 8.34 58.08-6.57 66-39c2.52-10.31 0.42-18.88 5-26c0.67-0.33 1.33-0.67 2-1zm8 100c-0.08-13.38 4.42-30.71 12-37c-1.33 12-2.67 24-4 36c-2.67 0.33-5.33 0.67-8 1zm-26 9c2.33 8.33 4.67 16.67 7 25c-1.67-1.33-3.33-2.67-5-4c-2-5.33-4-10.67-6-16c1.33-1.67 2.67-3.33 4-5zm-45 6c1.33 2.33 2.67 4.67 4 7c-0.11 7.04-1.82 11.14-5 15c0.33-7.33 0.67-14.67 1-22zm66 18c0.28 18.54-60.75 46.41-69 20c27.37-0.58 56.85-3.71 69-20zm3 7c5.33 4 10.67 8 16 12c1 0 2 0 3 0c0.33-2.67 0.67-5.33 1-8c0 0.67 0 1.33 0 2c2.81 4.43 4.57 12.31 3 18c-0.33 0-0.67 0-1 0c-8.71-3.59-17.63-14.84-23-22c0.33-0.67 0.67-1.33 1-2zm-99 4c-2 10.67-4 21.33-6 32c-0.33-0.67-0.67-1.33-1-2c-5.29-11.78 2.93-23.81 7-30zm21 14c9.98 16.71-6.98 33.34-17 38c3.33-14.22 14.81-19.54 17-38zm72 12c8.08 11.18 10.32 21.34 10 42c-0.33 0-0.67 0-1 0c0-0.67 0-1.33 0-2c0 0-8.92-39.38-9-40zm-65-33c0.33 0.67 0.67 1.33 1 2c-0.33-0.67-0.67-1.33-1-2z" />
	<path id="belt" class="s3" d="m231 266c0 0-0.7 2.06-1 5c-0.3 2.94 2 8 2 8c0 0-5.19 4.53-21 6c-59.78 5.55-89-4-89-4c0 0 1.06-6.08 1-7c-0.06-0.92-2-6-2-6c81 9.48 110-2 110-2z" />
</svg>