<svg version="1.2" baseProfile="tiny-ps" xmlns="http://www.w3.org/2000/svg" viewBox="0 0 350 450" width="350" height="450">
	<title>uox</title>
	<style>
		tspan { white-space:pre }
		.shp0 { fill: #e98625 } 
		.shp1 { fill: #b2d2a4 } 
		.shp2 { fill: #000000 } 
		.txt3 { font-size: 24px;fill: #030303;font-family: "Arial" } 
	</style>
	<path id="frunza" class="shp0" d="M197.33 306.1C198.43 310.81 196.53 314.19 194.35 316.03C191.96 318.06 188.65 319.25 183.85 320.37C178.74 321.57 175.62 323.03 174.42 323.87C172.96 324.95 172.23 326.38 172.57 327.83C172.98 329.56 175 330.87 177.2 330.35C179.92 329.72 180.87 328.59 181.61 327.19C181.86 326.5 182.09 326.45 182.68 326.7C183.44 327.01 184.35 327.74 184.61 328.87C185.11 330.99 183.38 333.7 179.82 334.53C174.16 335.86 170.72 331.27 169.86 327.56C169.58 326.37 167.72 324.35 164.75 321.41C161.63 318.22 158.19 313.99 157.22 309.81C155.45 302.25 162.06 296.3 166.24 295.33C170.89 294.24 173.44 295.74 175.73 298.56L175.89 298.53C176.21 295.72 177.33 291.06 179.98 286.7C178.89 286.22 176.87 285.25 175.14 284.5C174.96 285.81 173.5 287.62 171.64 288.05C169.32 288.59 167.43 287.85 165.05 287.07C161.61 285.99 159.58 285.7 156.79 286.35C154.98 286.77 153.24 287.74 152.36 289.2C152.05 289.97 151.25 290.02 151.17 289.34C150.83 285.78 152.19 281.13 158.88 279.56C160.59 279.17 162.46 279.15 163.45 279.2C164.1 279.18 164.38 278.98 164.24 278.38C164.13 277.92 163.43 277.03 162.89 276.81C162.6 276.6 162.51 276.23 163.21 276.07C168.78 274.77 173.79 278.74 174.65 281.72C176.98 283.13 178.79 284.04 181.03 285.09C183.74 281.13 188 277.69 194.03 276.28C202.08 274.4 207.31 277.89 208.02 280.94C208.47 282.87 207.04 283.9 205.62 284.44C205.28 285.08 204.87 285.46 204.52 285.68C203.73 286.14 203.04 285.47 203.4 285.24C204.09 284.73 204.38 284.03 204.08 282.77C203.65 280.92 200.14 277.79 193.76 279.28C192.48 279.58 191.34 279.95 190.47 280.43L190.5 280.56C193.96 280.35 196.36 282.03 196.86 284.15C197.44 286.64 195.99 289 192.51 289.82C190.11 290.38 187.63 289.73 185.37 288.97C184.69 288.67 183.78 288.29 182.31 287.59C179.94 291.42 178.6 297.19 179.09 300.02C180.76 298.79 182.33 298.14 183.8 297.8C191.08 296.09 196.17 301.13 197.32 306.04L197.33 306.1ZM194.15 284.12C193.83 282.72 191.85 281.44 186.9 282.6C185.56 283.5 184.31 284.81 183.38 286.07C186.54 287.51 189.18 287.66 191.04 287.22C193.05 286.75 194.52 285.71 194.17 284.18L194.15 284.12Z" />
	<path id="Rectangle 1" class="shp1" d="M92.99 183.47L269.02 170C269.02 170 270.14 186.09 271.53 206.26C271.65 208.01 268.88 210.19 269 212C269.16 214.34 266.83 219.6 267 222C267.21 225.01 272.81 224.78 273.02 227.82C275.02 256.69 277.01 285.53 277.01 285.53L100.98 299C100.98 299 99.6 278.14 98 254.9C97.79 251.9 99.13 250.21 100 247C100.63 244.66 102.03 241.93 101.86 239.5C101.71 237.31 101 233.11 99.47 230.94C98.26 229.22 96.17 229.51 96.06 227.82C94.41 204.04 92.99 183.47 92.99 183.47Z" />
	<path id="sml" class="shp2" d="M189.3 202.61C188.86 204.27 187.92 205.65 186.5 206.73C185.07 207.82 183.42 208.42 181.55 208.53C179.68 208.65 177.97 208.25 176.42 207.35C174.87 206.44 173.78 205.2 173.13 203.6C173 203.27 173 202.95 173.16 202.62C173.32 202.29 173.59 202.06 173.96 201.93C174.32 201.8 174.68 201.81 175.04 201.95C175.39 202.09 175.64 202.33 175.78 202.67C176.22 203.72 176.95 204.55 177.98 205.16C179.02 205.76 180.16 206.03 181.39 205.95C182.63 205.88 183.72 205.47 184.68 204.75C185.63 204.02 186.26 203.11 186.56 202.01C186.66 201.66 186.88 201.39 187.22 201.2C187.57 201.02 187.92 200.97 188.3 201.06C188.67 201.14 188.96 201.34 189.16 201.64C189.35 201.95 189.4 202.27 189.3 202.61ZM174.87 192.1C174.09 192.15 173.44 192.44 172.92 192.98C172.39 193.52 172.16 194.14 172.2 194.85C172.24 195.57 172.56 196.16 173.14 196.63C173.72 197.1 174.4 197.31 175.18 197.26C175.97 197.22 176.62 196.92 177.14 196.38C177.66 195.85 177.9 195.22 177.85 194.51C177.81 193.8 177.5 193.2 176.91 192.73C176.33 192.26 175.65 192.05 174.87 192.1ZM186.18 191.41C185.4 191.46 184.75 191.75 184.23 192.29C183.7 192.83 183.47 193.45 183.51 194.16C183.55 194.88 183.87 195.47 184.45 195.94C185.03 196.41 185.71 196.62 186.5 196.57C187.28 196.52 187.93 196.23 188.45 195.69C188.97 195.15 189.21 194.53 189.16 193.82C189.12 193.1 188.81 192.51 188.22 192.04C187.64 191.57 186.96 191.36 186.18 191.41ZM191.55 208.01C190.36 209.24 188.92 210.25 187.21 211.04C185.51 211.83 183.7 212.29 181.79 212.4C179.87 212.52 178.02 212.29 176.23 211.71C174.45 211.13 172.89 210.31 171.56 209.23C170.23 208.16 169.14 206.85 168.29 205.31C167.44 203.76 166.97 202.11 166.86 200.36C166.75 198.62 167.03 196.92 167.68 195.28C168.33 193.64 169.26 192.21 170.44 190.98C171.63 189.76 173.08 188.75 174.78 187.96C176.49 187.16 178.29 186.71 180.21 186.59C182.12 186.48 183.97 186.71 185.76 187.28C187.55 187.86 189.11 188.69 190.44 189.76C191.77 190.83 192.85 192.14 193.7 193.69C194.55 195.24 195.03 196.89 195.14 198.63C195.24 200.38 194.97 202.07 194.32 203.71C193.66 205.35 192.74 206.79 191.55 208.01ZM188.69 185.57C186.01 184.34 183.13 183.82 180.05 184.01C176.97 184.2 174.18 185.07 171.66 186.61C169.15 188.15 167.2 190.16 165.83 192.62C164.46 195.09 163.86 197.73 164.03 200.54C164.2 203.35 165.12 205.89 166.78 208.17C168.45 210.45 170.62 212.2 173.3 213.43C175.99 214.65 178.87 215.17 181.95 214.99C185.02 214.8 187.82 213.93 190.33 212.39C192.85 210.84 194.79 208.84 196.16 206.37C197.53 203.91 198.14 201.27 197.96 198.46C197.79 195.65 196.87 193.11 195.21 190.83C193.55 188.55 191.38 186.79 188.69 185.57Z" />
	<text id="texte" style="transform: matrix(0.998,-0.067,0.067,0.998,184.516,241.809)" >
		<tspan x="-44.888" y="0" class="txt3" dx="0 -1 -1 -1 -1 -1 -1 -1" >LOVE IS
</tspan>
		<tspan x="-82.431" y="28.8" class="txt3" dx="0 -1 -1 -1 -1 -1 -1 -1 -1 -1 -1" >EVERYWHERE
</tspan>
	</text>
</svg>