<svg version="1.2" baseProfile="tiny-ps" xmlns="http://www.w3.org/2000/svg" viewBox="0 0 200 148" width="200" height="148">
	<title>v1</title>
	<style>
		tspan { white-space:pre }
		.shp0 { fill: #ff1a1a } 
		.shp1 { opacity: 0.251;fill: #000000 } 
		.shp2 { fill: #000000 } 
		.shp3 { fill: #f1f1f1 } 
	</style>
	<path id="tongue" class="shp0" d="M100 29C101.39 29 102.81 26.8 104 27C107.31 27.55 109 29.08 109 30.5C109 32.43 105.25 36 100 36C94.75 36 90 32.43 90 30.5C90 29.07 91.67 27.54 95 27C96.18 26.81 98.63 29 100 29Z" />
	<path id="shdow" class="shp1" d="M91 41C91 41 100.21 35.61 105 39C109.79 42.39 107 42 107 42C107 42 106.71 37.71 91 41Z" />
	<path id="mv" fill-rule="evenodd" class="shp2" d="M100 18.39C110.74 18.39 119.44 6.02 119.44 14.75C119.44 23.47 110.74 37.02 100 37.02C89.26 37.02 80.56 26.71 80.56 17.99C80.56 9.26 89.26 18.39 100 18.39ZM85.42 19.61C85.42 26.09 91.77 33.78 99.59 33.78C107.42 33.78 113.77 26.09 113.77 19.61C113.77 13.12 107.42 24.06 99.59 24.06C91.77 24.06 85.42 13.12 85.42 19.61Z" />
	<path id="tl" class="shp3" d="M86.59 28.44C86.59 28.44 83.66 22.23 83.71 19.46C83.77 16.68 88.8 16.9 89.05 18.75C89.31 20.6 86.95 18.6 86.59 28.44Z" />
	<path id="tr" class="shp3" d="M110.01 18.74C110.3 16.4 115.94 16.12 116.01 19.63C116.07 23.15 112.78 31 112.78 31C112.37 18.56 109.73 21.08 110.01 18.74Z" />
</svg>