<svg version="1.2" baseProfile="tiny-ps" xmlns="http://www.w3.org/2000/svg" viewBox="0 0 200 175" width="200" height="175">
	<title>wiking</title>
	<style>
		tspan { white-space:pre }
		.shp0 { fill: #523511 } 
		.shp1 { fill: #2c1e0c } 
		.shp2 { fill: #191004 } 
		.shp3 { fill: #372711 } 
		.shp4 { opacity: 0.122;fill: #b0863e } 
		.shp5 { opacity: 0.478;fill: #000000 } 
		.shp6 { fill: #ccc2c2 } 
		.shp7 { opacity: 0.18;fill: #b0863e } 
		.shp8 { opacity: 0.2;fill: #b0863e } 
		.shp9 { fill: #b0863e } 
		.shp10 { fill: #b1b1b1 } 
		.shp11 { opacity: 0;fill: #b1b1b1 } 
		.shp12 { fill: #8a7551 } 
	</style>
	<path id="dmain" class="shp0" d="M169 81L161.9 81C161.9 81 161.21 80.32 160.18 79.22C151.26 84.68 127.69 89 100 89C72.95 89 49.84 84.87 40.47 79.59C39.64 80.47 39.1 81 39.1 81L32 81C32 81 33.9 44.19 70.85 27.6C80.35 17.05 93.25 16 100.5 16C107.91 16 121.24 17.42 130.8 28.32C166.5 45.53 169 81 169 81Z" />
	<path id="nose" class="shp1" d="M90 103L108 103C108 103 108.9 112.56 110.67 122.86C112.75 134.92 117 135 117 135C117 135 108.2 143 99.31 143C90.21 143 81 135 81 135C81 135 86.17 135.42 88.21 123.56C90.03 113 90 103 90 103Z" />
	<path id="shadenose" class="shp2" d="M98.48 101.44C98.72 101.54 99.12 102.05 99.12 102.05C100.41 102.05 101.69 102.05 102.98 102.05C102.79 102.25 102.59 102.46 102.39 102.67C102.41 102.89 102.42 103.1 102.44 103.32C102.44 103.32 102.39 104.12 101.87 104.68C101.34 105.22 102.37 106.2 103.39 106.18C104.39 106.16 102.78 106.2 101.97 106.2C101.15 106.21 102.6 107.14 103.53 107.6C104.46 108.06 102.12 108.43 102.12 108.43C102.11 108.42 102.7 109.29 102.93 109.22C103.17 109.13 101.52 110.95 101.5 110.97C100.99 111.28 100.47 111.58 99.94 111.89C101.28 111.88 102.62 111.83 103.94 111.76C103.47 112.38 102.98 113.02 102.47 113.68C102.46 113.72 106.1 114.22 106.72 114.27C106.87 114.29 106.78 114.4 106.55 114.56C106.32 114.73 105.96 114.94 105.55 115.18C104.75 115.65 103.78 116.2 103.55 116.59C103.09 117.37 105.29 116.42 105.28 116.41C105.31 116.39 102.73 119.01 101.04 119.98C99.39 120.97 103.91 120.96 103.91 120.89C104.87 121.16 105.85 121.39 106.83 121.57C106.85 121.58 104.57 122.94 104.1 123.21C103.65 123.58 108.1 123.72 108.09 123.63C107.83 124.09 107.56 124.57 107.29 125.05C105.43 126.34 103.46 127.54 101.37 128.57C101.35 128.55 103.24 129.27 106.59 127.78C108.24 127.02 108.82 127.44 109.02 128.12C109.04 128.21 109.06 128.3 109.07 128.39C109.08 128.48 109.09 128.57 109.1 128.66C109.1 128.84 109.09 129.03 109.08 129.18C109.05 129.5 108.99 129.74 108.99 129.74C109.01 129.76 106.78 130.94 105.83 130.66C104.93 130.39 102.76 134.05 102.72 134.06C102.72 134.06 103.97 133.92 105.28 133.63C106.76 133.32 108.3 132.78 108.3 132.78C106.67 134.78 104.9 136.75 102.97 138.6C104.15 137.91 105.29 137.15 106.39 136.34C105.72 137.54 105.02 138.75 104.28 139.97C101.87 140.98 99.35 141.66 96.75 141.95C95.9 141.32 95.06 140.65 94.24 139.96C94.25 139.99 96.47 139.37 96.83 138.73C97.13 138.29 90.83 134.69 90.89 134.54C90.19 133.35 89.52 132.18 88.88 131.04C88.88 131.04 91.18 132.02 93.52 132.26C95.83 132.47 92.58 129.31 92.62 129.31C92.62 129.32 94.67 129.24 96 128.48C97.32 127.85 91.11 127.1 89.66 125.98C89.57 125.92 89.51 125.87 89.48 125.83C89.45 125.79 89.45 125.75 89.48 125.73C89.53 125.67 89.68 125.64 89.91 125.63C90.35 125.61 91.08 125.65 91.85 125.69C93.38 125.77 95.07 125.78 95.07 125.78C93.35 125.15 91.67 124.43 90.02 123.62C91.78 123.66 93.52 123.55 95.21 123.32C94.26 122.42 93.34 121.51 92.46 120.62C92.5 120.25 92.54 119.89 92.58 119.53C93.93 119 95.22 118.39 96.46 117.75C95.25 117.68 94.04 117.57 92.82 117.42C93.81 116.85 94.76 116.25 95.67 115.63C94.22 115.55 92.76 115.4 91.3 115.21C92.52 115.05 93.71 114.84 94.88 114.59C94.07 113.89 93.29 113.2 92.55 112.53C93.37 112.6 94.2 112.66 95.03 112.7C95.32 112.41 95.62 112.12 95.91 111.83C95.94 111.23 95.98 110.65 96.01 110.08C94.73 109.76 93.47 109.42 92.24 109.09C93.04 108.86 93.84 108.63 94.62 108.39C95.9 108.16 97.15 107.91 98.38 107.66C97.41 107.16 96.46 106.67 95.55 106.19C96.28 105.93 97.01 105.66 97.72 105.39C97.25 105.39 96.78 105.39 96.32 105.38C97.28 104.91 98.21 104.45 99.11 103.99C98.44 103.77 97.77 103.54 97.12 103.32C96.7 102.88 96.29 102.46 95.89 102.05C95.89 102.05 96.49 101.87 97.11 101.7C97.42 101.62 97.73 101.54 97.98 101.49C98.11 101.46 98.22 101.44 98.31 101.43C98.39 101.42 98.45 101.42 98.48 101.44L98.48 101.44Z" />
	<path id="wind" class="shp3" d="M98.22 38.18C99.5 37.8 100.62 37.61 101.59 37.61C105.5 37.61 108.43 39.61 110.37 43.62C110.82 45.02 111.05 46.21 111.05 47.19C111.05 50.49 109.2 53.5 105.51 56.23C103.51 57.99 102.51 60.22 102.51 62.92L102.51 63.27C102.51 67.34 104.55 70.08 108.63 71.48C109.21 71.63 109.75 71.7 110.25 71.7L110.47 71.7C114.25 71.7 116.8 69.7 118.11 65.69C118.26 65.01 118.34 64.39 118.34 63.84C118.34 60.43 116.68 58.16 113.37 57.03C112.54 56.93 112.04 56.85 111.87 56.8C108.89 56.8 106.85 58.46 105.73 61.77C105.66 62.3 105.63 62.73 105.63 63.04L105.63 63.39C106.13 66.85 107.79 68.58 110.6 68.58C113.59 68.07 115.09 66.57 115.09 64.09C115.17 64.09 115.22 64.01 115.22 63.84C115.22 61.76 114.22 60.49 112.22 60.02L111.52 60.02C110.07 60.02 109.15 61.03 108.75 63.04L108.75 63.27C108.97 64.65 109.47 65.34 110.25 65.34L110.72 65.34C111.31 65.34 111.76 64.92 112.1 64.09C112.01 63.96 111.94 63.57 111.87 62.92C112.02 62.45 112.33 62.22 112.79 62.22C113.41 62.22 113.72 62.8 113.72 63.97C113.72 65.78 112.6 66.82 110.37 67.09C108.21 66.69 107.13 65.41 107.13 63.27L107.13 63.04C107.13 60.86 108.33 59.32 110.72 58.42C110.87 58.42 111.29 58.38 111.97 58.3C114.07 58.3 115.57 59.5 116.49 61.89C116.72 62.51 116.84 63.08 116.84 63.62L116.84 63.97C116.84 67.03 115.11 69.11 111.65 70.21L110.12 70.21C107.33 70.21 105.33 68.43 104.13 64.89C104.05 64.36 104.01 63.93 104.01 63.62L104.01 62.57C104.01 59.71 105.66 57.39 108.98 55.63C110.14 55.33 111.14 55.18 111.97 55.18C115.7 55.18 118.29 57.3 119.73 61.54C119.88 62.26 119.96 62.83 119.96 63.27L119.96 64.66C119.96 67.53 118.26 70.11 114.87 72.4C113.35 73.02 112.05 73.33 110.95 73.33L109.77 73.33C106.5 73.33 103.77 71.36 101.59 67.44C101.19 66.09 100.8 64.08 100.41 61.42C98.4 57.41 95.4 55.4 91.4 55.4C88.09 55.4 85.66 57.18 84.11 60.72C83.82 61.75 83.67 62.64 83.67 63.39C83.67 66.44 85.28 68.78 88.51 70.43C89.44 70.81 90.21 71 90.83 71L91.98 71C94.34 71 96.15 69.62 97.42 66.86C97.65 66.36 97.77 65.75 97.77 65.01L97.77 64.66C97.77 62.07 96.42 60.18 93.72 59C93.09 58.68 92.32 58.52 91.4 58.52C89.22 58.52 87.73 59.84 86.91 62.47L86.91 63.49C86.91 65.42 87.98 66.81 90.13 67.66C90.41 67.81 90.72 67.88 91.05 67.88L91.75 67.88C93.37 67.88 94.33 66.84 94.65 64.76C94.27 62.68 93.23 61.64 91.53 61.64C90.7 61.64 90.2 62.19 90.03 63.27L90.03 63.39C90.03 64.11 90.56 64.61 91.63 64.89C91.86 65.17 91.98 65.44 91.98 65.69C91.88 66 91.69 66.24 91.4 66.39L91.18 66.39C89.7 66.39 88.73 65.35 88.28 63.27C88.28 61.4 89.4 60.32 91.63 60.02C94.01 60.02 95.56 61.41 96.27 64.19L96.27 65.34C96.27 67.04 95.15 68.39 92.9 69.41C92.17 69.56 91.71 69.63 91.53 69.63C88.63 69.63 86.59 68.05 85.39 64.89C85.24 64.16 85.16 63.62 85.16 63.27C85.16 60.24 86.82 58.16 90.13 57.03C90.53 56.94 90.91 56.9 91.28 56.9L91.63 56.9C95.24 56.9 97.74 58.83 99.14 62.69C99.31 63.24 99.42 63.97 99.49 64.89C99.49 67.87 97.99 70.21 95 71.93C93.85 72.48 92.61 72.75 91.28 72.75C87.98 72.75 85.29 71.1 83.19 67.78C82.43 66.32 82.04 64.97 82.04 63.74L82.04 62.82C82.04 59.47 83.86 56.74 87.48 54.61C88.82 54.06 89.93 53.78 90.83 53.78L91.98 53.78C93.33 53.78 95.33 54.36 97.99 55.53C98.58 55.68 99.12 55.75 99.62 55.75L100.41 55.75C103.83 55.75 106.56 53.98 108.63 50.44C109.09 49.26 109.33 48.26 109.33 47.44L109.33 46.84C109.33 43.41 107.39 40.99 103.53 39.58C102.97 39.41 102.44 39.33 101.94 39.33L101.11 39.33C98.07 39.33 95.75 41.03 94.17 44.42C94.02 45 93.95 45.54 93.95 46.04L93.95 46.62C93.95 49.48 95.65 51.44 99.04 52.51C99.61 52.51 100.03 52.55 100.31 52.63C102.59 52.63 104.44 51.4 105.86 48.94C106.09 48.17 106.21 47.52 106.21 46.97C106.21 45 105.12 43.58 102.96 42.7C102.63 42.55 102.09 42.47 101.34 42.47C99.29 42.47 97.87 43.59 97.07 45.82L97.07 46.62C97.52 48.46 98.44 49.39 99.84 49.39L100.19 49.39C102.04 49.11 102.96 48.42 102.96 47.32C103.04 47.32 103.09 47.28 103.09 47.19C103.09 46.31 102.59 45.78 101.59 45.59C101.15 45.59 100.61 45.86 99.96 46.39L99.39 46.39C99.26 46.39 99.1 46.24 98.92 45.92L98.92 45.59C98.92 44.8 99.69 44.26 101.24 43.97L101.59 43.97C103.47 43.97 104.51 45.05 104.71 47.19C104.71 48.86 103.63 50.1 101.46 50.91C101.38 50.98 100.88 51.05 99.96 51.14C98 51.14 96.54 49.98 95.57 47.67C95.42 46.93 95.35 46.47 95.35 46.27C95.35 44.04 96.77 42.31 99.62 41.08C100.61 40.84 101.27 40.73 101.59 40.73C104.38 40.73 106.42 42.31 107.7 45.47L107.83 46.84L107.83 47.54C107.83 50.07 106.25 52.12 103.09 53.68C102.25 54.06 101.21 54.26 99.96 54.26C96.7 54.26 94.27 52.48 92.68 48.94C92.38 48.01 92.23 47.12 92.23 46.27C92.23 42.77 94.22 40.08 98.22 38.18L98.22 38.18Z" />
	<path id="shades" class="shp4" d="M127.92 29.41C129.11 30.88 136.93 33.61 141.01 37.87C149.63 46.82 172.82 68.22 163 87C155.12 102.07 65 90 65 90C65 90 145.46 72.15 129 46C121.88 34.69 98.97 20.17 83 33C81.14 34.5 80.23 39.67 80.88 43.1C82.57 51.98 93.98 61.07 77 50C54.28 35.2 90 19 90 19C106.12 15.16 120.92 20.75 127.92 29.41Z" />
	<path id="dshadow" class="shp5" d="M32 73C32 73 64.53 89 99.12 89C133.98 89 168 73 168 73L168 95C168 95 134.58 111 98.51 111C63.09 111 32 95 32 95L32 73Z" />
	<path id="lightbelt" class="shp6" d="M32 69C32 69 63.48 85 99.1 85C134.98 85 168 69 168 69L170 91C170 91 134.58 107 98.51 107C63.09 107 30 91 30 91L32 69Z" />
	<path id="darkbelt" class="shp1" d="M32 71C32 71 63.48 87.63 99.1 87.63C134.98 87.63 168 71 168 71L170 88.37C170 88.37 134.58 105 98.51 105C63.09 105 30 88.37 30 88.37L32 71Z" />
	<path id="shaderight" class="shp7" d="M167.85 72.14C168.48 76.58 168.68 80.1 169 84C169.25 84.08 161.82 88.22 154.04 90.09C146.37 91.87 157.72 86.38 157.79 86.46C157.69 86.51 137.89 92.13 133.46 92C133.18 92 133.02 91.97 132.98 91.91C132.94 91.84 133.01 91.75 133.18 91.64C133.53 91.41 134.27 91.08 135.28 90.68C137.32 89.88 141.61 89.08 145 88C151.82 85.85 158.32 83.52 158.25 83.47C152.45 84.46 146.31 85.12 140.43 85.89C145.93 83.98 151.94 82.45 157.48 80.69C153.2 81.47 148.63 82.01 144.16 82.63C144.76 82.93 168.79 76.55 167.85 72.14L167.85 72.14Z" />
	<path id="shadeleft" class="shp8" d="M32.38 70.49L32.38 70.49C31.85 73.1 39.22 78.8 46.98 81.45C54.71 84.48 62.83 84.45 63.2 84.43C57.35 84.52 51.44 84.14 45.92 82.83C53.09 85.25 61 85.98 68.2 86.52C60.57 86.98 52.57 86.92 45.06 85.35C44.95 85.46 53.48 88.3 62.35 89.04C66.76 89.52 72.19 89.18 74.62 89.14C75.84 89.13 76.69 89.09 77.07 89.12C77.16 89.12 77.23 89.13 77.26 89.15C77.28 89.16 77.29 89.17 77.29 89.18C77.29 89.18 77.29 89.18 77.29 89.18C77.29 89.19 77.29 89.19 77.29 89.19C77.28 89.2 77.28 89.21 77.27 89.21C77.21 89.27 77.02 89.34 76.67 89.45C76.5 89.5 76.32 89.56 76.11 89.62C75.91 89.67 75.69 89.73 75.46 89.79C74.99 89.9 74.46 90.02 73.88 90.13C72.71 90.35 71.32 90.54 69.79 90.66C66.71 90.91 63.03 90.86 59.46 90.58C52.31 90.08 45.78 88.4 45.72 88.35C45.83 88.54 60.63 93.47 50.62 92.27C45.55 91.54 40.57 89.64 36.92 87.67C35.09 86.69 33.59 85.72 32.57 84.99C32.06 84.63 31.67 84.32 31.41 84.11C31.28 84.01 31.19 83.93 31.14 83.87C31.11 83.84 31.09 83.82 31.08 83.8C31.07 83.79 31.07 83.78 31.08 83.78C31.53 78.97 31.86 75.73 32.38 70.49L32.38 70.49Z" />
	<path id="nibs" class="shp9" d="M73 90C75.21 90 77 91.79 77 94C77 96.21 75.21 98 73 98C70.79 98 69 96.21 69 94C69 91.79 70.79 90 73 90ZM99 94C101.21 94 103 95.79 103 98C103 100.21 101.21 102 99 102C96.79 102 95 100.21 95 98C95 95.79 96.79 94 99 94ZM50.5 84C52.43 84 54 85.79 54 88C54 90.21 52.43 92 50.5 92C48.57 92 47 90.21 47 88C47 85.79 48.57 84 50.5 84ZM35.01 77.49C36.67 77.76 38.02 79.77 38.02 81.98C38.02 84.19 36.67 85.76 35.01 85.49C33.35 85.22 32 83.21 32 81C32 78.79 33.35 77.22 35.01 77.49ZM126 90C128.21 90 130 91.79 130 94C130 96.21 128.21 98 126 98C123.79 98 122 96.21 122 94C122 91.79 123.79 90 126 90ZM148.5 84C150.43 84 152 85.79 152 88C152 90.21 150.43 92 148.5 92C146.57 92 145 90.21 145 88C145 85.79 146.57 84 148.5 84ZM167 81C167 83.21 165.65 85.22 163.99 85.49C162.33 85.76 160.98 84.19 160.98 81.98C160.98 79.77 162.33 77.76 163.99 77.49C165.65 77.22 167 78.79 167 81Z" />
	<path id="hornleft" class="shp10" d="M29.06 73.74C34.01 76.35 30.59 89.43 15.95 82.73C-8.97 71.33 12.81 33.88 12.81 33.88C7.63 69.62 24.11 71.12 29.06 73.74Z" />
	<path id="hornright" class="shp10" d="M187.19 33.01C187.19 33.01 208.97 70.45 184.05 81.86C169.41 88.56 165.99 75.48 170.94 72.86C175.89 70.25 192.36 68.75 187.19 33.01Z" />
	<path id="hornrightbroken" class="shp11" d="M189.42 68.49C189.61 70.77 191.98 61.91 191.82 64.13C191.68 66.26 190.72 70.46 190.14 72.41C189.78 73.65 192.93 72.15 192.2 73.29C190.32 76.21 189.2 79.36 184.05 81.86C169.62 88.88 165.99 75.48 170.94 72.86C173.7 71.4 180.75 69.87 184.01 62.97C184.93 61.02 188.78 57.94 188.06 60.95C187.49 63.32 189 60.52 188.53 61.8C185.69 69.59 180.22 77.63 188.29 67.21C189.2 66.02 189.27 66.83 189.42 68.49Z" />
	<path id="slotleft" class="shp12" d="M20.24 70.01C20.85 69.7 26.84 68.73 28.96 69.72C30.22 70.3 35.14 69.77 36.07 73.46C37.54 79.33 37.62 77.84 37.62 77.84L35.6 82.87C35.6 82.87 33.28 92.06 30.39 90.92C27.5 89.77 19.74 84.47 19.74 84.47C19.74 84.47 18.65 83.5 19.75 82.79C23.09 80.61 21.03 71.36 21.03 71.36C20.81 70.51 19.64 70.31 20.24 70.01Z" />
	<path id="slotright" class="shp12" d="M178.97 70.48C178.97 70.48 176.91 79.73 180.25 81.91C181.35 82.63 180.26 83.59 180.26 83.59C180.26 83.59 172.5 88.9 169.61 90.04C166.72 91.19 164.4 82 164.4 82L162.38 76.96C162.38 76.96 162.46 78.46 163.93 72.58C164.86 68.89 169.78 69.43 171.04 68.84C173.16 67.86 179.15 68.82 179.76 69.13C180.36 69.44 179.19 69.63 178.97 70.48Z" />
</svg>