<svg version="1.2" baseProfile="tiny-ps" xmlns="http://www.w3.org/2000/svg" viewBox="0 0 350 450" width="350" height="450">
	<title>2s</title>
	<style>
		tspan { white-space:pre }
		.shp0 { fill: #2a2a2a } 
		.shp1 { fill: #9f9696 } 
		.shp2 { fill: #e2cebd } 
		.shp3 { fill: #ffffff } 
	</style>
	<path id="garda" class="shp0" d="M90.21 228.41L104.83 232.64L102.76 246.01L85.9 243.8L90.21 228.41Z" />
	<path id="bld1" class="shp1" d="M96.85 233L220.33 190L211.33 203.36L94.3 241.86L96.85 233Z" />
	<path id="bld2" class="shp2" d="M98 238L208 200L217 193L211 203L95 241L98 238Z" />
	<path id="gardar" class="shp0" d="M276.98 223.11L263.64 233.65L255.02 223.22L265.4 212.1L276.98 223.11Z" />
	<path id="bld1r" class="shp1" d="M268.77 225.74L148.55 252.63L133.98 245.76L262.05 219.44L268.77 225.74Z" />
	<path id="bld2r" class="shp2" d="M267.74 225.36L148.65 252.15L138.37 246.63L149.68 248.04L263.62 224.32L267.74 225.36Z" />
	<path id="s1" class="shp3" d="M136.94 217.49C136.94 217.49 136.02 223.18 136.66 224.49C137.36 225.92 142.51 228.94 142.51 228.94C142.51 228.94 136.72 228.07 135.36 228.74C133.98 229.41 131.06 234.51 131.06 234.51C131.06 234.51 131.76 228.39 131.03 226.88C130.44 225.67 125.49 223.06 125.49 223.06C125.49 223.06 131.24 223.95 132.59 223.29C133.99 222.61 136.94 217.49 136.94 217.49Z" />
	<path id="s2" class="shp3" d="M197.94 231.49C197.94 231.49 197.02 237.18 197.66 238.49C198.36 239.92 203.51 242.94 203.51 242.94C203.51 242.94 197.72 242.07 196.36 242.74C194.98 243.41 192.06 248.51 192.06 248.51C192.06 248.51 192.76 242.39 192.03 240.88C191.44 239.67 186.49 237.06 186.49 237.06C186.49 237.06 192.24 237.95 193.59 237.29C194.99 236.61 197.94 231.49 197.94 231.49Z" />
</svg>