<svg version="1.2" baseProfile="tiny-ps" xmlns="http://www.w3.org/2000/svg" viewBox="0 0 200 148" width="200" height="148">
	<title>xhd12.svg</title>
<defs>
   <radialGradient id="rgrad" cx="50%" cy="50%" r="50%" >
    
            <stop offset="0%" style="stop-color:rgb(240,223,197);stop-opacity:1.00" />
            <stop offset="53%" style="stop-color:rgb(240,223,197);stop-opacity:1.00" />
            <stop offset="100%" style="stop-color:rgb(222,205,180);stop-opacity:1.00" />

    </radialGradient>

<radialGradient id="rgrad2" cx="57%" cy="31%" r="97%" >
    
            <stop offset="5%" style="stop-color:rgb(170,232,57);stop-opacity:1.00" />
            <stop offset="71%" style="stop-color:rgb(74,145,58);stop-opacity:1.00" />
            <stop offset="100%" style="stop-color:rgb(23,88,37);stop-opacity:1.00" />

    </radialGradient>

<radialGradient id="rgrad3" cx="57%" cy="31%" r="97%" >
    
        <stop offset="5%" style="stop-color:rgb(255,228,189);stop-opacity:1.00" />
            <stop offset="71%" style="stop-color:rgb(248,197,123);stop-opacity:1.00" />
            <stop offset="100%" style="stop-color:rgb(225,179,112);stop-opacity:1.00" />

    </radialGradient>
  </defs>
	<style>
		tspan { white-space:pre }
		.shp0 { fill: #f0dfc5 }
                .shp2 { fill: url(#rgrad3) } 
#headshadow{fill: url(#rgrad3)}
#head{filter:drop-shadow(0 2px 1px rgb(0,0,0,0.30));}

	</style>
        <path id="head" class="shp0" d="M100 12C137.56 12 168 41.33 168 77.5C168 113.67 137.56 143 100 143C62.44 143 32 113.67 32 77.5C32 41.33 62.44 12 100 12Z" />
	<path id="headshadow" class="shp1" d="M100 12C137.56 12 168 41.33 168 77.5C168 113.67 137.56 143 100 143C62.44 143 32 113.67 32 77.5C32 41.33 62.44 12 100 12Z" />
</svg>