<svg version="1.2" baseProfile="tiny-ps" xmlns="http://www.w3.org/2000/svg" viewBox="0 0 200 148" width="200" height="148">
	<title>xm2.svg</title>
	<style>
		tspan { white-space:pre }
		.shp0 { opacity: 0.4;fill: #000000 } 
		.shp1 { opacity: 0.3;fill: #000000; } 
		.shp2 { fill: #2d2d2d } 
#m1a{opacity:0;fill: #fff;}
	</style>
	<path id="m0" class="shp0" d="M98 23C98 23 114.93 16.46 116 16C117.07 15.54 118.59 17.98 119 19C119.41 20.02 120.01 23.36 120 26C119.99 28.64 119.79 31.48 119 33C118.21 34.52 115.13 36.34 114 37C112.87 37.66 108.03 37.17 107 37C105.97 36.83 98.17 36.03 95 36C92.19 35.97 87.93 36.56 86 37C84.07 37.44 83.66 37.27 82 35C80.34 32.73 80.21 30.06 80 27C79.79 23.94 80.33 18.37 82 17C83.67 15.63 86.91 18.88 91 21C95.09 23.12 97 23 97 23L98 23Z" />
	<path id="m0s" class="shp1" d="M82 16C82 16 89.91 19.09 91 20C92.09 20.91 96.43 23.16 97 23C97.57 22.84 107.84 20.14 109 19C110.16 17.86 113.85 15.66 115 16C116.15 16.34 119.79 18 120 19C120.21 20 121.79 27.35 121 29C120.21 30.65 118.43 34.81 118 34C117.57 33.19 119.31 29.78 119 29C118.69 28.22 119.62 23.97 119 23C118.38 22.03 116 20 116 20C116 20 106.27 21.34 104 23C101.73 24.66 98.63 26.12 98 26C97.37 25.88 96.19 25.94 95 25C93.81 24.06 87.42 19.43 86 19C84.58 18.57 82.57 18.61 82 19C81.43 19.39 81.18 22.35 81 23C80.82 23.65 79 23 79 23C79 23 80.27 17.12 82 16Z" />
	<path id="m1" fill-rule="evenodd" class="shp2" d="M97.5 21.71C105.51 21.71 121 5.04 121 24.05C121 43.06 108.6 37.11 97 37.11C85.4 37.11 79 43.06 79 24.05C79 5.04 89.49 21.71 97.5 21.71ZM81.06 25.38C82.43 41.7 81.79 34.36 96.32 34.54C106.48 34.67 118.94 39.54 118.94 25.65C118.94 21.69 118.62 18.9 116.6 18.37C111.54 17.04 101.09 24.6 97.03 24.6C91.35 24.6 79.68 8.86 81.06 25.38Z" />
	<path id="m1a" class="shp2" d="M90.91 28.35C90.91 28.35 106.31 29.92 112.76 25.74C113.86 25.03 115.3 27.29 113.99 27.61C112.68 27.93 95.67 32.08 91.15 30.33C89.24 29.6 90.16 28.03 90.91 28.35Z" />
</svg>