<svg version="1.2" baseProfile="tiny-ps" xmlns="http://www.w3.org/2000/svg" viewBox="0 0 200 148" width="200" height="148">
	<title>xma</title>
	<style>
		tspan { white-space:pre }
		.shp0 { fill: #ede1d9 } 
		.shp1 { fill: #777575 } 
		.shp2 { fill: #000000 } 
	</style>
	<path id="m0" class="shp0" d="M88 16L91 16L96 18L100 19L103 19L106 19L108 19L111 18L113 17L115 14.94L116 16L117 18L117 19L116 22L115 25L114 29L112 31L111 32C111 32 109.62 31.55 109 31C108.38 30.45 106.35 29.48 106 29C105.65 28.52 103.37 28.57 102 28C100.63 27.43 99.02 28.68 98 29C96.98 29.32 95.01 30.46 94 31C92.99 31.54 91.22 34.18 90 34C88.78 33.82 88.33 31.92 88 31C87.67 30.08 88 16 88 16" />
	<path id="m1" class="shp1" d="M101 28C106.24 28.19 110 30.24 110 33C110 34.25 102.64 36.48 100 37C94.85 38.02 90.45 36.41 91 34C91.41 32.21 98.15 27.9 101 28Z" />
	<path id="m2" fill-rule="evenodd" class="shp2" d="M113.22 14C116.12 14.46 117.28 15.9 119 17.39C118.74 18.81 118.88 18.71 117.78 18.52C117.58 18.61 117.38 18.71 117.17 18.8C116.51 30.28 109.21 37.88 97.39 38C94.08 38.03 91.82 37.67 89.78 36.31C84.16 32.55 87.97 22.9 86.43 16.26C84.87 16.14 84.85 16 84 15.41C84.2 15.13 84.41 14.85 84.61 14.56C94.36 15.06 104.94 22.1 114.13 15.69C112.77 15.03 113.09 15.42 113.22 14ZM88.57 16.82C88.67 21.71 86.87 30.46 89.78 33.48C89.99 33.29 90.19 33.11 90.39 32.92C97.77 28.25 101 24.56 110.98 30.74C110.99 30.85 111.19 30.75 111.39 30.66C113.14 26.65 115.46 22.79 115.65 17.11C115.55 17.11 115.45 17.11 115.35 17.11C101.59 22.65 100.95 19.09 88.57 16.82ZM99.52 29.25C96.77 30.82 92.55 32.28 91.3 35.18C98.76 37.39 104.5 35.12 109.57 32.35C109.36 32.07 109.16 31.79 108.96 31.51C106.89 30.64 106.11 29.5 103.17 29.25C101.79 30.28 101.97 31.72 100.74 32.92C100.05 33.02 99.93 32.26 99.52 32.07C99.73 31.02 99.64 30.18 100.43 29.25C100.13 29.25 99.83 29.25 99.52 29.25Z" />
</svg>