<svg version="1.2" baseProfile="tiny-ps" xmlns="http://www.w3.org/2000/svg" viewBox="0 0 200 148" width="200" height="148">
	<title>xma</title>
	<style>
		tspan { white-space:pre }
		.shp0 { fill: #ede1d9 } 
		.shp1 { fill: #000000 } 
	</style>
	<path id="m9" class="shp0" d="M90 23L89 20L88 18L88 16L91 17L95 18L98 20L102 20L105 20L109 20L112 18L114 17L114 20L113 22L113 25L114 28L114 31C114 31 113.89 33.6 112 36C110.11 38.4 106.74 38 105 38C103.26 38 100 36.61 98 35C96 33.39 90 30 90 30L90 26L90 23Z" />
	<path id="m1" fill-rule="evenodd" class="shp1" d="M84.48 13.41C100.58 16.51 99.37 24.31 116.48 14.21C116.75 14.47 117.02 14.74 117.28 15.01C114.3 22.49 112.68 24.23 116.08 32.61C106.71 43.72 97.78 37.04 88.88 31.01C89.71 22.07 88.12 19.73 83.68 15.41C83.95 14.74 84.22 14.07 84.48 13.41ZM89.28 17.41C89.95 19.81 90.62 22.21 91.28 24.61C94.47 25.3 98.32 26.85 102.24 27.34C105.75 27.78 109.4 27.28 111.4 25.83C112.68 24.91 111.89 22.41 112.08 19.81C108.24 21.46 104.76 22.08 101.46 21.6C97.22 20.98 93.29 18.8 89.28 17.41ZM91.68 27.01C91.55 28.07 91.42 29.14 91.28 30.21C97.17 33.13 106.73 41.29 113.28 32.61C112.75 31.14 112.22 29.67 111.68 28.21C108.73 29.49 106.07 30.18 103.47 29.98C99.62 29.67 95.93 27.88 91.68 27.01Z" />
</svg>