<svg version="1.2" baseProfile="tiny-ps" xmlns="http://www.w3.org/2000/svg" viewBox="0 0 200 148" width="200" height="148">
	<title>xm7.svg</title>
	<style>
		tspan { white-space:pre }
		.shp0 { opacity:0.5;fill: #000000 } 
#mx6{transform:rotate(-20deg) translate(-2px,2px);transform-origin:top}
	</style>
	<path id="mx6" fill-rule="evenodd" class="shp0" d="M116.12 13.41C116.59 13.76 117.05 14.11 117.52 14.46C112.36 21.96 95.48 27.11 83.92 22.51C83.92 22.04 83.92 21.57 83.92 21.11C84.15 20.99 84.39 20.87 84.62 20.76C95.59 24.84 111.18 20.05 116.12 13.41ZM108.07 25.31C108.54 25.54 109 25.77 109.47 26.01C109.35 26.47 109.24 26.94 109.12 27.41C106.05 28.7 102.17 30.41 97.92 28.81C97.92 28.57 97.92 28.34 97.92 28.11C98.04 27.87 98.15 27.64 98.27 27.41C102.49 27.71 105.77 27.7 108.07 25.31Z" />
</svg>